<svg xmlns="http://www.w3.org/2000/svg" xmlns:xlink="http://www.w3.org/1999/xlink" width="68" height="68" viewBox="0 0 68 68"><defs><filter id="a" x="0" y="0" width="68" height="68" filterUnits="userSpaceOnUse"><feOffset dy="3" input="SourceAlpha"/><feGaussianBlur stdDeviation="3" result="b"/><feFlood flood-opacity="0.161"/><feComposite operator="in" in2="b"/><feComposite in="SourceGraphic"/></filter></defs><g transform="matrix(1, 0, 0, 1, 0, 0)" filter="url(#a)"><path d="M50.563,25.563a25,25,0,1,1-25-25A25,25,0,0,1,50.563,25.563ZM21.127,13.869V25.563H13.98a1.211,1.211,0,0,0-.857,2.067L24.706,39.151a1.2,1.2,0,0,0,1.7,0L37.992,27.629a1.21,1.21,0,0,0-.857-2.067H30V13.869a1.213,1.213,0,0,0-1.21-1.21H22.337A1.213,1.213,0,0,0,21.127,13.869Z" transform="translate(8.44 5.44)" fill="#6e298d"/></g></svg>