<svg xmlns="http://www.w3.org/2000/svg" viewBox="0 0 80.58 97.75">
  <defs>
    <style>
      .cls-1 {
        fill: #6e298d;
      }
    </style>
  </defs>
  <title>Asset 1</title>
  <g id="Layer_2" data-name="Layer 2">
    <g id="Layer_1-2" data-name="Layer 1">
      <g>
        <polygon class="cls-1" points="78.66 23.6 78.67 21.66 76.23 21.65 76.23 23.59 74.31 23.6 74.31 28.95 80.57 28.96 80.58 23.59 78.66 23.6"/>
        <polygon class="cls-1" points="74.3 30.92 74.25 59.99 74.27 59.99 74.23 81.69 75.79 82.61 77.35 88.15 78.92 82.61 80.49 81.81 80.53 59.95 80.52 59.95 80.56 30.93 74.3 30.92"/>
        <path class="cls-1" d="M16.62,14.85l33.57,0c4.25,0,3.93-5.5,0-5.85L42.46,8.3a2.78,2.78,0,0,1-2.58-2.56C39.88,2,38.9,0,35.34,0H31.46c-3.57,0-4.54,2-4.54,5.75a2.78,2.78,0,0,1-2.58,2.57L16.63,9C12.69,9.36,12.37,14.86,16.62,14.85ZM33.48,2.33a2.2,2.2,0,1,1-2.2,2.21A2.2,2.2,0,0,1,33.48,2.33Z"/>
        <path class="cls-1" d="M55.26,12.39a5.13,5.13,0,0,1-1.06,2.78,4.37,4.37,0,0,1-3.34,1.36l-34.74,0a4.38,4.38,0,0,1-3.35-1.36,5.22,5.22,0,0,1-1.07-2.77H0L0,97.75l67,0,0-85.32Zm-39,69.78a3.54,3.54,0,1,1,3.53-3.54A3.54,3.54,0,0,1,16.23,82.17Zm0-15.29a3.54,3.54,0,1,1,3.53-3.54A3.53,3.53,0,0,1,16.23,66.88Zm0-15.29a3.54,3.54,0,1,1,3.53-3.53A3.53,3.53,0,0,1,16.23,51.59Zm0-15.28a3.54,3.54,0,1,1,3.53-3.54A3.53,3.53,0,0,1,16.23,36.31ZM25,30.73l28.32,0v4.06L25,34.78ZM25,46H53.36v4.06H25Zm0,15.28H53.36v4.06H25ZM53.37,80.62,25,80.64V76.58l28.34,0Z"/>
      </g>
    </g>
  </g>
</svg>
