<svg xmlns="http://www.w3.org/2000/svg" viewBox="0 0 909.09 909.09"><defs><style>.cls-1,.cls-5{fill:#fff;}.cls-1{opacity:0.37;}.cls-2{fill:#f4d242;}.cls-3{fill:#59595b;}.cls-4{fill:#808183;}</style></defs><title>idea</title><g id="Layer_2" data-name="Layer 2"><g id="BG"><circle class="cls-1" cx="454.55" cy="454.55" r="454.55"/></g><g id="Objects"><path class="cls-2" d="M648.16,407.27c0-109.3-88.6-197.9-197.89-197.9S252,298.67,252.37,408a197.3,197.3,0,0,0,57.77,139,224.5,224.5,0,0,1,58.15,99.83l16,59H514L529.08,650A225.06,225.06,0,0,1,589,548.38,197.29,197.29,0,0,0,648.16,407.27Z"/><path class="cls-3" d="M480.23,775H417c-17.92,0-33.25-13.24-34.27-30l-5.34-64.81,143.25-.91-6.12,65.72C513.48,761.73,498.15,775,480.23,775Z"/><path class="cls-4" d="M507.74,707.48c-40,1.71-80.17-.34-120.18,1.43-3.56.15-3.29,5.34.19,5.46,40.05,1.33,80.2-1.15,120.24.12C512.49,714.63,512.29,707.28,507.74,707.48Z"/><path class="cls-4" d="M507.74,724.86c-40,1.71-80.17-.34-120.18,1.43-3.56.16-3.29,5.34.19,5.46,40.05,1.33,80.2-1.15,120.24.12C512.49,732,512.29,724.67,507.74,724.86Z"/><path class="cls-2" d="M466.4,108.74c0,12.75-6.78,58.6-15.14,58.6s-15.15-45.85-15.15-58.6,6.78-23.09,15.15-23.09S466.4,96,466.4,108.74Z"/><path class="cls-2" d="M655.11,179.15c-9.67,8.32-40,43.34-34.57,49.68s44.64-18.39,54.31-26.7,13.1-20.19,7.65-26.54S664.79,170.84,655.11,179.15Z"/><path class="cls-2" d="M728.66,383.75c-12.65,1.6-59,.65-60-7.64s43.58-20.8,56.23-22.41,23.76,3.82,24.81,12.11S741.32,382.14,728.66,383.75Z"/><path class="cls-2" d="M264.72,163.93c10,7.86,41.95,41.47,36.79,48s-45.43-16.34-55.47-24.2-14-19.58-8.84-26.17S254.68,156.06,264.72,163.93Z"/><path class="cls-2" d="M168.88,351c12.65,1.61,59,.66,60-7.64s-43.57-20.8-56.22-22.41-23.76,3.82-24.82,12.12S156.23,349.37,168.88,351Z"/><path class="cls-5" d="M535.68,508a50.93,50.93,0,0,1-14.91-17.6c7.18-8.86,10.34-20.77,11.66-31.85a200.87,200.87,0,0,0,1.14-20.37c.1-6.57-.76-12.14-6.32-16.23-5-3.65-11.58-.36-15.39,3.18-4.39,4.08-6.51,10.76-8.21,16.33-3.42,11.23-3.36,23.28-1.21,34.73a69,69,0,0,0,3.31,11.72,30.3,30.3,0,0,1-9.51,5.06c-10.81,3.46-19-2.77-24-12-.83-1.52-1.6-3.12-2.34-4.79.85-2.28,1.66-4.56,2.42-6.81a142.19,142.19,0,0,0,6.63-33.93c.76-9.53,1-20.92-8.14-26.56-2.94-1.82-6.26-.44-8.11,2.13-13.39,18.58-12.64,43.23-5.37,64.32a139,139,0,0,1-8.14,16.29c-3.36,5.79-9.77,14.71-17.55,13.58-7.25-1.05-13-10.14-16.64-15.77a64,64,0,0,1-6.34-13.09c.92-2.42,1.78-4.87,2.56-7.35A134.83,134.83,0,0,0,416.83,439c.67-8.49.94-20.42-8.34-24.48-2.7-1.18-6.69-1.06-8.12,2.13a85,85,0,0,0-4.57,57.26c.17.65.38,1.3.57,2a125.66,125.66,0,0,1-24.59,38.88c-4.67,5.07,2.72,12.54,7.58,7.58a131.85,131.85,0,0,0,23-31.88,83.86,83.86,0,0,0,6,9.66c6.06,8.39,13.66,16.25,24.57,16.84,10.19.55,18.47-8,24-15.46A80.64,80.64,0,0,0,464,490c5,7.95,12.19,14.26,22,15.63,9,1.26,17.76-1.54,25.15-6.49a75.27,75.27,0,0,0,16.45,19.47C535,524.79,543.51,513.75,535.68,508Zm-68.16-82.54c.41,4.74-.68,10.59-.95,13.47A113,113,0,0,1,464,454.55C462.72,444.44,463.55,434.08,467.52,425.49Zm46.23,29.82a56.28,56.28,0,0,1,3.31-14.41,29.25,29.25,0,0,1,2.88-6,12.19,12.19,0,0,1,.93-1.16,8.46,8.46,0,0,1,.23,1.44c.63,12-.36,25-4.1,36.41a35.34,35.34,0,0,1-1.65,4.14A67.64,67.64,0,0,1,513.75,455.31Z"/><path class="cls-5" d="M546.93,478.92c-21,64.22-43.19,128.13-67,191.39-2.85,7.57,8.82,12.21,11.65,4.64,23.72-63.35,45.74-127.28,65.49-192C559.12,476.29,549.14,472.19,546.93,478.92Z"/><path class="cls-5" d="M355.54,474.86C372.34,540.32,388,606.11,402,672.24c1.67,7.92,14,5.56,12.32-2.34-14.08-66.17-29.88-131.91-48-197.09C364.41,466.09,353.79,468,355.54,474.86Z"/></g></g></svg>