<svg xmlns="http://www.w3.org/2000/svg" viewBox="0 0 158.84 164.25"><defs><style>.cls-1{fill:#ffdeec;}.cls-2{fill:#2c72ba;}.cls-3{fill:#2f79c7;}.cls-4{fill:#2766a6;}.cls-5{fill:#fff;}.cls-6{fill:#f0f0f0;}.cls-7{fill:#fe0065;}.cls-8{fill:#fe84b5;}.cls-9{fill:#f9a124;}.cls-10{fill:#03b3e4;}.cls-11{fill:#00a7d6;}.cls-12{fill:#3589de;}</style></defs><title>Asset 9</title><g id="Layer_2" data-name="Layer 2"><g id="Layer_1-2" data-name="Layer 1"><path class="cls-1" d="M96.48,1.79A72.89,72.89,0,0,0,71,.64c-15.49,2.24-26.78,10-34.3,23.43a78.74,78.74,0,0,0-8.68,22.62c-1.63,8.09.11,15.25-4.41,22.94C19.72,76.3,13.39,81.27,9.26,87.81,4.31,95.66,3.15,106.66,9,113.89c4,5,10.62,7.53,13.75,13.07C25,131.05,25,136,26.22,140.55c2.8,10.28,12.19,17.74,22.34,21s21,2.95,31.68,2.31c6.06-.37,12.5-1,17.29-4.7,7.5-5.83,8.76-17.6,16.82-22.62,4.86-3,11-2.78,16.61-3.7a34.62,34.62,0,0,0,21.78-12.44c3.31-4.26,6.77-11.28,6-16.89-.85-6.14-4-11.57-3.85-18.12.08-4.27,1.15-8.51,1-12.79a22.25,22.25,0,0,0-7.32-15.46c-3.28-2.93-7.44-4.88-10.17-8.33-4-5.11-3.61-11.76-5.46-17.67s-3.71-11.53-8-16c-5.65-5.92-13.48-9.26-21.33-11.54C101.25,2.9,98.87,2.3,96.48,1.79Z"/><path class="cls-2" d="M60.33,18.58a53.58,53.58,0,0,1,40.34-5.27,42.77,42.77,0,0,1,12.44,5.43c7.87,5.17,12,13.36,14.13,19.57a38.16,38.16,0,0,1,2,11.55c.09,3.7.71,9.93,3.75,13.51,4.51,5.34,10.46,9.64,10,11.49-.38,1.69-1.87,4.77-8,6a2.75,2.75,0,0,0-2.18,2.55,6.31,6.31,0,0,0,1.43,4.71s1.33,2.25-1.74,3.69c0,0,2.46,1.13,1,3.18s-2.26,2.36-1.54,8,2.36,12.93-2.77,15.29-15.7,3.28-25.65,1.13-11.39,3.49-12.41,7.9-3.49,17.85-3.49,17.85-9.54,7.8-31.6-.41c-15.29-6.26-18.67-15.39-18.67-15.39s7.59-13,9.13-17S53.46,98.75,48,90.05c-3.85-6.11-10-17.63-8.88-32.37C40.14,44,42.18,28.93,60.33,18.58Z"/><path class="cls-3" d="M102.91,76c.19.07.19.16,0,.22s-.34-.07-.44-.35c0-.11-.1-.2-.15-.2s-.09-.25,0-.28.08,0,.1.11c.17,0,.27,0,.36,0s.23.12.08.23S102.75,76,102.91,76Zm5.69-9.68a.31.31,0,0,0,.1.14,1,1,0,0,1,.15.24c.27-.16.28-.23.05-.4S108.58,66.19,108.6,66.35Zm-3.32,41.16c0-.16,0-.28-.15-.29a.14.14,0,0,0-.09,0A.32.32,0,0,0,105.28,107.51Zm1.88-88.81a2.88,2.88,0,0,1-1-.57c-1-.71-.9-.68-1-.54s0,.34.26.54a1.13,1.13,0,0,1,.27.42c.15.4.55.71.85.66s.25,0,.22.14.93,1,1,.88,0-.41-.2-.56-.15-.2-.1-.27A.52.52,0,0,0,107.16,18.7Zm-3.64-2.18a.13.13,0,0,0-.13,0,.46.46,0,0,0,.19.21A.38.38,0,0,0,103.52,16.52Zm.85,12.34c-.09-.05-.31.26-.13.41C104.26,29,104.28,29,104.37,28.86ZM100,37.52c0,.08,0,.12,0,.14s.19-.09.18-.21S100.07,37.41,100,37.52Zm0-13.71c-.29-.07-.35,0-.23.15s.37.27.4.07S100.13,23.84,100,23.81ZM103.18,46a2.14,2.14,0,0,0-.5-.06c-.35,0-.38,0-.45-.12s-.32-.24-.35-.17a.67.67,0,0,1-.1.12c-.07.07-.06.11,0,.14a.13.13,0,0,0,.16,0c0-.13.3,0,.28.18s0,.46.18.48a.34.34,0,0,1,.21.09,2.29,2.29,0,0,0,.44.23,2.16,2.16,0,0,1,1,.67.92.92,0,0,0,.13.12c.07,0,.07-.33,0-.37a.14.14,0,0,1,0-.13c0-.05,0-.15-.14-.23s-.16-.18-.15-.2a.27.27,0,0,0-.07-.17.58.58,0,0,1-.11-.32c0-.24-.15-.36-.29-.26A.28.28,0,0,1,103.18,46Zm-3.75,7.55c-.06.13,0,.17.16.16s.41-.18.26-.32S99.51,53.32,99.43,53.53Zm2.32,20.7c-.44.08-.46.1-.33.26a.78.78,0,0,0,.77.05.63.63,0,0,1,.24-.09,1.64,1.64,0,0,1,.07-.2c.08-.21.2-.21.17,0s0,.17.06.16.1-.07.11-.15,0-.14.08-.14.09,0,.14.12.24.13.16-.06,0-.17.08-.15.29-.15.17-.39a.35.35,0,0,1,0-.37c.07-.14.07-.2,0-.26s-.08-.17-.06-.37,0-.3.22-.3.18,0,.15-.25,0-.24-.26-.17-.25,0-.3-.1-.19-.15-.24-.07a4.28,4.28,0,0,0-.43-.33c-.61-.42-.78-.32-.29.16s.48.49.7.4a.19.19,0,0,1,0,.13.24.24,0,0,0-.08.17c0,.15-.51.15-.53,0-.09-.49-.09-.5-.25-.47s-.38.19-.36.35a.26.26,0,0,1-.11.22c-.15.12-.15.17,0,.5a.7.7,0,0,0,.65.38.21.21,0,0,1,.15.12.34.34,0,0,0,.23.17c.27.07.27.31,0,.34s-.23,0-.26,0-.23,0-.17.12,0,.17,0,.18Zm4.56-16.59c0,.25.22.17.27-.13C106.36,57.41,106.3,57.54,106.31,57.64Zm2.9,52.36a1.31,1.31,0,0,1,.66-.16c.28,0,.28,0,.33-.13a1.22,1.22,0,0,1,.45-.43c.21-.16.37-.31.37-.31s-.74-.07-1.08,0a2.52,2.52,0,0,1-.51.14.53.53,0,0,0-.36.16,3.08,3.08,0,0,1-.66.3c-1.33.49-1.74.74-1.65,1A6.84,6.84,0,0,0,109.21,110Zm1.43-74.46a.55.55,0,0,0-.28,0,.25.25,0,0,0,0,.09.6.6,0,0,1,0,.28c0-.06.11-.09.28-.1C111,35.77,111,35.69,110.64,35.54Zm-.38,16.16c0,.15.14.15.19,0s0-.1-.08-.11S110.26,51.63,110.26,51.7ZM110.42,32c0-.22-.35-.41-.39-.21s0,.19.14.28a.64.64,0,0,1,.14.56c0,.48.15.58.33.19s.1-.55-.09-.59A.24.24,0,0,1,110.42,32ZM107,110l.28-.08-.08,0C106.94,109.66,106.85,109.72,107,110Zm-6.64-56.64c-.24.19-.26.24-.19.42s.06.23-.33.6-.44.48.1.51c.39,0,.49-.08.33-.35s-.09-.21.18-.4.3-.22.26-.44a.56.56,0,0,1,0-.35C100.8,53.12,100.59,53.13,100.31,53.33Zm7.61,16.37a.55.55,0,0,0,0,.45l.14-.06a.8.8,0,0,0,.45-.29,1,1,0,0,1,.14-.18.55.55,0,0,1-.19-.09C108.21,69.39,108.08,69.43,107.92,69.7Zm1.28-28.61c.09,0,.11-.08.06-.23s-.26-.34-.29-.1S109,41.14,109.2,41.09Zm1.41-17.25c0,.06,0,.15.17.3C110.75,24.07,110.69,24,110.61,23.84Zm-3,85.34c.08.09.29-.1.27-.25C107.62,108.88,107.55,109.08,107.64,109.18Zm-.82-73.07c.18,0,.57-.44.26-.49C106.86,35.74,106.66,36.12,106.82,36.11Zm1.25,41.08c-.16.06,0,.34.28.41s.37,0,.25-.15S108.17,77.15,108.07,77.19ZM93.31,79.85c0,.07.15.2.24.18s.1-.14-.06-.19S93.32,79.82,93.31,79.85Zm1.16,10.94s.22.24.79.57.45.15,0-.2S94.54,90.67,94.47,90.79Zm.69-11c.27-.11.28-.12.24-.34s-.25-.2-.29,0a.28.28,0,0,1-.22.16C94.89,79.79,95,79.8,95.16,79.75Zm1.21-16.63c-.12-.15-.15-.11-.17,0S96.31,63.26,96.37,63.12ZM95.22,84.28c0,.11.08.11.38-.14C95.4,84.07,95.22,84.13,95.22,84.28Zm.58,18.84c.06-.07,0-.18-.16-.17S95.75,103.18,95.8,103.12Zm.74-34.69c.23,0,.28,0,.3-.21s0-.35-.22-.26-.21,0-.23-.11a.23.23,0,0,1,.14-.25c.11,0,.16-.16,0-.45,0,.06-.19.06-.33,0s-.26-.11-.15-.29-.07-.47-.41-.25-.37.17-.08,1c.14.4.31.92.39,1.15a2.51,2.51,0,0,0,.21.52c.17.21.29,0,.17-.34S96.19,68.4,96.54,68.43Zm1.72-21.36c-.06.26.33.43.37.33S98.45,47.09,98.26,47.07Zm-.38,24.34c-.13.26.14.37.46.19s.17-.23-.13-.28S97.93,71.3,97.88,71.41Zm0,29.92c-.06-.07-.22,0-.33,0C97.73,101.59,98,101.44,97.9,101.33Zm-.59-21.39c-.2.2-.27.38-.19.49s.35-.1.43-.32S97.52,79.73,97.31,79.94ZM89.38,90.68c-.09.1-.11.24,0,.3s.41,0,.33-.25S89.54,90.48,89.38,90.68ZM92.11,99c0-.11-.22.05-.22.17C92.06,99.08,92.11,99,92.11,99ZM89.4,27.06c-.25-.06-.51,0-.42.17s.73.35.83.25S89.76,27.16,89.4,27.06ZM80.72,79.12c-.2-.14-.41-.05-.37.16s.08.14.23.13S80.92,79.25,80.72,79.12Zm8.13-19.75a.36.36,0,0,0,.24-.12c.17-.16,0-.45-.26-.39S88.69,59.34,88.85,59.37Zm2.37,4.4a.29.29,0,0,0-.17-.14c-.15,0-.2.34-.08.44S91.32,64,91.22,63.77Zm-2.22-3a2,2,0,0,0,.57.13c.51,0,.74-.36.24-.4-.23,0-.24,0-.14-.2s.06-.35-.18-.46-.17,0-.24.17a2.27,2.27,0,0,1-.36.57.82.82,0,0,0-.25.47A.87.87,0,0,0,89,60.82Zm1.69,18.92c.18.05.53-.15.46-.25a.93.93,0,0,0-.33.07C90.59,79.67,90.56,79.71,90.69,79.74Zm3.16-12.39c.06.14.07.14.2,0a.48.48,0,0,0,.1-.49,1.16,1.16,0,0,0-.25-.08c-.29-.07-.4.06-.24.28A1.9,1.9,0,0,1,93.85,67.35Zm-1.69,18.3c0,.07.15.36.21.31s0-.18-.06-.27S92.18,85.62,92.16,85.65Zm-.6,6.06c-.07.09,0,.24.13.37s.24.09.17-.12S91.63,91.62,91.56,91.71Zm0-4.41a.41.41,0,0,1-.21-.07c-.2-.11-.24-.09-.34.16s0,.35.14.29.14,0,.2.24a.11.11,0,0,0,.13.08.12.12,0,0,0,.06-.16c-.07-.16,0-.47.11-.37s.1,0,.23,0A.42.42,0,0,0,91.59,87.3ZM77.75,103.72c.16,0,.18,0,.19.1s.1.2.3.11a.44.44,0,0,1,.3,0,.27.27,0,0,0,.25,0c.06,0,.17,0,.29,0s.37,0,.29-.27c0-.06,0-.13.08-.07s0,.17.25.25.29.13.35.27c.13.3.4.15.45-.26s0-.3-.21-.39-.28-.16-.15-.32c-.11,0-.19-.08-.2-.13a.3.3,0,0,0-.19-.13,4.45,4.45,0,0,1-.49-.14,1,1,0,0,0-.41-.06.43.43,0,0,1-.27-.1c-.23-.17-.47-.2-.48-.06s-.16.16-.47.25c-.54.15-.58.29-.25.72C77.55,103.73,77.58,103.75,77.75,103.72Zm2-45.16h-.27C79.53,58.73,79.69,58.75,79.79,58.56Zm-3.46,44.72a.13.13,0,0,0,.22-.12c0-.09,0-.1-.12-.06S76.24,103.22,76.33,103.28Zm.91-42.86c0,.17.24.53.32.52a.12.12,0,0,1,.11.1c0,.15.19.1.22-.07a.46.46,0,0,1,.12-.23c.1-.07.1-.55,0-.6a.14.14,0,0,0-.13.07.09.09,0,0,1,0-.17c.26-.26-.11-.58-.39-.33-.12.1-.13.17-.07.34s.06.22,0,.25S77.24,60.38,77.24,60.42ZM79,58.9c0-.17,0-.18.23-.12l-.66-1a.53.53,0,0,1-.06.14,1,1,0,0,0,.16,1C78.85,59.14,79,59.12,79,58.9Zm-1.07,8.42-.06.53c0,.12.85-.22,1-.25-.19.22.1.29.69.15s.52-.12.57-.49.08-.45-.22-.34a.84.84,0,0,0-.41.42c-.18.38-.41.39-.46,0,0-.19-.14-.31-.42-.43C78.11,66.68,78,66.76,77.92,67.32Zm-2.28-12a.6.6,0,0,0,.11-.32c0-.27,0-.29-.2-.34s-.25,0-.24.12S75.54,55.34,75.64,55.28ZM75.3,26.4a1,1,0,0,0-.38-.23c0-.06-.12-.08-.37-.06a.11.11,0,0,0,.18.05c.11-.07.3.06.31.22S75.19,26.52,75.3,26.4Zm-.44,43.25c.11.16.26,0,.3-.21s0-.28,0-.29S74.79,69.55,74.86,69.65ZM75,110.19c.06.25.07.26.43.22s.36,0,.24-.31a2.37,2.37,0,0,0-.49-.57c-.44-.38-.68-.35-.71.09.08.12.19.13.29.19A.71.71,0,0,1,75,110.19Zm-.35-2.82s-.07-.06-.14-.06-.14,0-.13.08.06.06.14,0S74.63,107.4,74.62,107.37ZM76.37,58.5c.12,0-.06-.47-.26-.67s-.17.07,0,.4S76.3,58.52,76.37,58.5Zm.1,50.78a.56.56,0,0,1,.33.06c.09,0,.19,0,.22,0s.16,0,.37.15l.11.09c.11-.13.07-.19-.15-.32a.63.63,0,0,0-.46-.11,1,1,0,0,1-.71-.35A.29.29,0,0,0,76.47,109.28ZM98.58,71.74c.08-.07,0-.15-.06-.15S98.4,71.71,98.58,71.74ZM80.35,139.38c.3.19.75,0,.66-.23s-.19-.15-.25,0-.14.11-.33,0C80.06,138.93,80,139.13,80.35,139.38Zm.28-51c-.06,0-.18.18,0,.28S80.71,88.37,80.63,88.35Zm-.28,3.29c.1.11.56,0,.54-.25C80.71,91.32,80.25,91.54,80.35,91.64Zm-3.72,4.14c-.11.07-.08.26.06.49s.24.07.21-.23S76.79,95.68,76.63,95.78Zm.15-19.62c.16.19.83,0,1-.3A.56.56,0,0,1,78,75.7l-1,.23C77,76.09,76.9,76.21,76.78,76.16Zm2,21.07c.11-.23,0-.44-.16-.3l-.18.14c-.07,0,.07.28.17.3S78.71,97.32,78.74,97.23Zm-.36,3.45c.07.16.12.16.22,0s.05-.1-.06-.15S78.29,100.5,78.38,100.68ZM80,40c-.18,0-.22.11-.12.11S80,40,80,40ZM78.55,71.25c.19-.06.26-.14.13-.16a.17.17,0,0,1-.11-.14c0-.15-.12-.14-.21,0S78.37,71.3,78.55,71.25Zm.37,12.84a.3.3,0,0,1,.27-.12c.16,0,.18,0,.12-.28s-.31-.3-.52.09S78.77,84.3,78.92,84.09Zm-4.58-52.2c.06-.22,0-.35,0-.37s-.27.05-.29.37S74.22,32.3,74.34,31.89ZM85.06,133.94c.19.08.21-.07.12-.13S85,133.86,85.06,133.94Zm-1-84.74c-.12.22,0,.36.14.26s.26-.26.17-.37S84.2,49,84.1,49.2Zm1.72-15c.05,0,.07-.09.05-.18a.21.21,0,0,0-.25-.15.31.31,0,0,1-.28-.08.37.37,0,0,0-.31-.08c-.26,0-.71-.26-.61-.41s-.14-.43-.26-.33a1,1,0,0,0-.41-.29c-.32-.07-.31.24,0,.51a.42.42,0,0,1,0,.69.71.71,0,0,0-.18.39c0,.31-.16.36-.27.09s-.12-.16-.31,0-.22.16-.23-.11a.87.87,0,0,0-.15-.46c-.17-.23-.06-.32.32-.28s.5-.05.33-.26a.61.61,0,0,1-.09-.4c.06-.36-.26-.26-.55.18s-.29.37-.61.43-1,.53-.84.7,0,.34-.18.4-.17,0-.16-.15c0-.35-.53-.06-2.22,1.18-.75.55-1.69,1.21-2.07,1.48a3.53,3.53,0,0,1-.83.51c-.19,0-.45.52-.34.66a2.16,2.16,0,0,0-.49.3.3.3,0,0,1,0,.08.68.68,0,0,1,.1.45.25.25,0,0,0,0,.23,4,4,0,0,0,.56-.54c.22-.27.34-.34.46-.32s.33-.1.68-.41.56-.43.63-.4,0,.22,0,.26.13,0,.22-.22.16-.3.34-.17.19.13.14-.18a.49.49,0,0,1,.16-.47c.28-.22.46-.12.29.15s-.21.66.06.69h.07l.27-.2a.51.51,0,0,0,0-.35c-.26-.54.25-1,.65-.65.14.15.22.16.33,0,.48-.49.54-.6.43-.7a.2.2,0,0,1,0-.27c.22-.25.38.3.26.86a2.16,2.16,0,0,1,.86-.34c0-.11.07-.15.14-.15s.07-.15.43-.33a2.49,2.49,0,0,0,.48-.33c.14-.13.19-.14.26-.06s.06.09,0,.16a.35.35,0,0,1,.1.08c.15.19.19.18.57-.09.56-.4.6-.42.72-.41a.3.3,0,0,0,.11-.06c.07-.45.28-.65.56-.45a1.14,1.14,0,0,1,.39-.28C85.27,33.86,85.69,33.89,85.82,34.23ZM84.69,95.76c-.12-.24-.24-.23-.38,0s0,.2.12.26S84.83,96,84.69,95.76Zm-.14-50s.07-.09.08-.18-.07-.33-.16-.21S84.47,45.78,84.55,45.77ZM83,108.71a2.65,2.65,0,0,1,.54-.35l-.31-.19c0,.09-.1.17-.25.21a.38.38,0,0,1,.13-.29l-.4-.28a.33.33,0,0,0-.1.14.3.3,0,0,1-.08.22c-.18.39,0,.61.26.39C82.87,108.47,82.88,108.48,83,108.71Zm-7.81-13.5c-.1.14-.4.23-.37.11s0-.12-.16-.17a.47.47,0,0,0,.06.33.41.41,0,0,1,.06.22c0,.23,0,.25.32.2s.3-.18.16-.28,0-.13.1-.3a.1.1,0,0,0,0-.15A.12.12,0,0,0,75.16,95.21ZM85.35,39.26s0-.15-.12-.3-.19-.25-.23-.2S85.23,39.34,85.35,39.26Zm2.28,6.43a.47.47,0,0,0,.18.12c0-.09,0-.13.09-.17s.18-.08.12-.15a.77.77,0,0,0-.26,0C87.51,45.54,87.5,45.55,87.63,45.69Zm-.63-5c.07-.19-.06-.38-.21-.31s-.12,0-.17-.09c-.1.26-.08.3,0,.31s.13,0,.06.14-.06.15,0,.17S86.93,40.86,87,40.69Zm-.24,4.45s.06,0,.14,0S86.74,45.08,86.76,45.14Zm13.57-31.62a2.6,2.6,0,0,1-.32.38.72.72,0,0,0-.17.25.4.4,0,0,1-.14.21.58.58,0,0,0-.14.29.65.65,0,0,1-.2.37c-.29.25-.54,1.14-.25.92.11-.08.39,0,.39.15a2.23,2.23,0,0,1-.82.9.29.29,0,0,0-.2.16c0,.08-.11.14-.13.13s-.08.07-.13.16l-.11.19a1.4,1.4,0,0,0,0,.22c0,.24.14.26.23.06s.14-.15.35-.18a.79.79,0,0,0,.7-.53,3.52,3.52,0,0,1,.21-.48c.18-.33.27-.65.18-.68s0-.1.16-.34a2.27,2.27,0,0,0,.4-1.09c.21,0,.38-.42.41-.87a.86.86,0,0,0,0-.42l-.14,0A.8.8,0,0,0,100.33,13.52ZM75.92,90.72c-.08,0-.1.14.11.27C76.16,90.84,76.07,90.63,75.92,90.72Zm-2-32.2a.29.29,0,0,0,0,.24C74.08,58.75,74.08,58.64,73.91,58.52ZM75.42,96.7c-.07-.07-.2-.1-.31-.19s-.23-.13-.34,0a2.37,2.37,0,0,1-.45.46c-.2.17-.31.32-.3.43a1.82,1.82,0,0,1,.65-.23A.75.75,0,0,0,75.42,96.7ZM109.7,37.8a.3.3,0,0,0,.21.19c.19,0,.21-.36,0-.48S109.6,37.58,109.7,37.8Zm-33.42,45L76,82.49c-.27-.22-.45-.1-.33.22a.69.69,0,0,0,.63.47C76.59,83.24,76.61,83,76.28,82.76Zm6.65,14.57a16.26,16.26,0,0,0,.75-2.58,1.46,1.46,0,0,0,0-.42,1.71,1.71,0,0,1-.07-.32c0-.21-.1-.18-.37.1s-.59.33-.63,0-.14-.56-.3-.61c-.6,1.86-.61,1.92-.45,2.08s0,1-.21.94c-.44-.13-1.07,1.45-.93,2.31s0,1.06-.42,1.37a3,3,0,0,0-.8,1.75.16.16,0,0,0,.08-.07c.15-.2.25-.16.26.11a.44.44,0,0,0,0,.24,1.39,1.39,0,0,1,.21.46c.18.49.31.62.57.57s.28-.22.18-.52a.69.69,0,0,1,.3-.92c.37-.18.44-.34,1.16-2.58A14.73,14.73,0,0,1,82.93,97.33Zm-3.5,36c-.31,0-.34.1,0,.21a1.29,1.29,0,0,1,.38.3s.06-.13,0-.26A.39.39,0,0,0,79.43,133.37Zm2.12,12.36c0,.05,0,.14.11.21s.2.09.23,0,0-.13-.11-.2S81.58,145.69,81.55,145.73Zm1-11.09c.15.06.24,0,.17-.18C82.41,134.41,82.4,134.6,82.51,134.64Zm-2.36-4c0-.1-.14-.28-.22-.23a2.07,2.07,0,0,1-.65.18s-.11.07-.17.17c-.21.4.28.53.62.16a.63.63,0,0,1,.27-.17A.23.23,0,0,0,80.15,130.65ZM93.53,67.39c-.07-.06-.13.09,0,.15A.19.19,0,0,0,93.53,67.39Zm30.08,48.23a1.06,1.06,0,0,0,0-.63c-.1-.07-.3.05-.36.21S123.5,115.69,123.61,115.62Zm.91-28.09c-.09,0-.13.1-.1.13s.34-.06.29-.15S124.61,87.48,124.52,87.53Zm.34-24c-.19-.19-.39-.29-.48-.2.09.28.25.51.42.39A.39.39,0,0,1,124.86,63.58ZM113.36,61c.06,0,.08-.19-.1-.39C113.13,60.79,113.21,61.08,113.36,61Zm11-26.09c-.1.33,0,.45.1.18s.07-.42,0-.45A2.37,2.37,0,0,0,124.33,34.87Zm-1.16,70c.12-.09,0-.23-.2-.36s-.24-.09-.23,0S123.09,104.94,123.17,104.89ZM122,112.55c.08-.44-.64-.59-.83-.18-.1.22-.16.25-.36.23s-.6.19-.54.33a1.11,1.11,0,0,0,.33.22A1.19,1.19,0,0,0,122,112.55Zm1.58-38.63a.37.37,0,0,0,.2,0c.18,0,.2-.19,0-.24S123.48,73.85,123.54,73.92Zm-2.06,18.46c.14-.12.24-.14.3-.09s.22,0,.39-.08.29-.13.22,0a.25.25,0,0,0,0,.27c.13.11.63.09.7,0s0-.23-.2-.22a.59.59,0,0,1-.39-.21.43.43,0,0,0-.41-.18c-.19,0-.25,0-.3-.25s-.09-.26-.23-.16a.67.67,0,0,1-.45,0,1.13,1.13,0,0,0-.52,0l-.53.19c-.15.06-.25.16-.23.23C120,92.26,121.2,92.61,121.48,92.38Zm.76,10.25c-.11.17.14.44.33.36s.26-.58.15-.65S122.4,102.42,122.24,102.63Zm-4-77.27a.22.22,0,0,0-.36,0c0,.07,0,.13.06.15S118.28,25.46,118.25,25.36Zm-2,12.12c-.15,0-.23,0-.27.15s0,.32.3.18S116.56,37.5,116.24,37.48Zm0,68.4c0-.09.11-.16.18-.15s.23,0,.25-.35,0-.25-.16-.2-.86.79-.77.87S116.14,106,116.21,105.88Zm.64-36.35a.47.47,0,0,1,0-.43c-.26-.17-.26-.17-.49.16a1,1,0,0,1-.39.36.55.55,0,0,0-.17.11,1.18,1.18,0,0,0,1,.18C117,69.86,117,69.82,116.85,69.53Zm-.11,20.06c-.21,0-.22.06,0,.22A.16.16,0,0,0,116.74,89.59ZM116.23,44a.25.25,0,0,0,.46-.07.19.19,0,0,0-.13-.26C116.33,43.63,116.09,43.86,116.23,44Zm7.47,28.22c-.18.08-.28.15-.23.16a1.08,1.08,0,0,0,.66-.22C124.14,72.09,124.06,72.11,123.7,72.26Zm-8.22-48.74c-.23.09-.28.18-.35.53a5.45,5.45,0,0,1-.17.62,4.9,4.9,0,0,0-.5,1.51c0,.09,0,.26-.18.47a.93.93,0,0,0-.22.53,1.2,1.2,0,0,1-.16.54c-.42.81-.54,1.49-.26,1.6s.41-.16.68-1.32c.13-.56.22-.79.33-.86a.92.92,0,0,0,.26-.51c.06-.23.15-.42.21-.43s.39-.71.34-1a3.32,3.32,0,0,1,.16-.93C115.85,23.46,115.83,23.37,115.48,23.52Zm3,21.91s-.15.1-.23.24C118.42,45.74,118.57,45.46,118.46,45.43Zm-1.12-11.67a.14.14,0,0,0,.22.05c.08-.1,0-.17-.12-.15S117.31,33.72,117.34,33.76ZM118,35.3c.09.06.16,0,.13-.1s-.11-.12-.17,0A.11.11,0,0,0,118,35.3Zm-4.12,71c-.19-.33-.37-.16-.21.19s0,.38-.12.19-.2-.1,0,.23.27.49.42.5.12,0,.09-.15a.47.47,0,0,1,0-.27C114.15,106.85,114.08,106.61,113.9,106.28Zm1.92-66.43c.12-.28,0-.4-.19-.14s-.06.15,0,.2S115.77,40,115.82,39.85Zm10,7.8a.18.18,0,0,0-.17.1c-.07.15.13.18.22,0S125.88,47.65,125.79,47.65Zm-6,41c.06,0,.15,0,.36,0,0-.16.16-.19.41-.1a.75.75,0,0,0,.29,0,.19.19,0,0,1,.12,0,.69.69,0,0,1,.23-.37,4.55,4.55,0,0,0,.69-.7c-.09,0-.16,0-.17,0s0-.09.11-.14.12-.09,0-.15-.1-.1.11-.29c0,.1,0,.16.11.16s.08.06.1.1.07-.11.06-.13.09-.16.23-.24a9,9,0,0,0,1.19-.81l.19-.16h-.15c-.33-.05-.51,0-.63.18s-.12.14-.23.12-.23,0-.55.25a3.25,3.25,0,0,1-.56.34c-.13,0-.14.08-.09.26a.47.47,0,0,1,0,.37.8.8,0,0,0-.1.32s-.12,0-.2-.22-.13-.28-.27-.08-.12.2,0,.24.11.2-.09.26a1.43,1.43,0,0,0-.32.17c-.13.1-.19.1-.36,0s-.21-.09-.32.17-.13.26-.28.21-.38,0-.38.24A.8.8,0,0,0,119.77,88.69Zm-.35,9.82c0-.18,0-.19,0-.14S119.38,98.46,119.42,98.51Zm-.4,19.15c-.11,0-.15,0-.19.07s0,.13.09.15h.16a.67.67,0,0,1,0-.19ZM120.7,83.5c.13.32.23.35.34.08s0-.31-.22-.34S120.6,83.24,120.7,83.5Zm2,30.36c.7-.25.92-.5.37-.43a8.68,8.68,0,0,0-1.92.77c-.16.1-.28.2-.26.23s-.11.19-.29.35-.32.27.18.13a2,2,0,0,0,.9-.48A3.09,3.09,0,0,1,122.7,113.86Zm-1.63,2.31c.37-.13.33-.25.12-.2S121,116.06,121.07,116.17ZM127,82.91c.06-.09,0-.16-.09-.14S126.82,82.91,127,82.91ZM74.67,130.62c.16.46.84,0,1.11-.7a1.57,1.57,0,0,1,.24-.44c-.44.05-.54-.13-.34-.58a1.51,1.51,0,0,1,.27-.43.94.94,0,0,0,.22-.4c0-.11-.17-.07-.26-.11-.33-.13-.35-.49-.06-1a1.17,1.17,0,0,0,.25-.78,1.65,1.65,0,0,1,.61-1.35c.36-.3.36-.3.25-.6a.64.64,0,0,1,.07-.61.64.64,0,0,0,.08-.56,1.54,1.54,0,0,1,.12-.84c0,.11-.1.13-.19.06s-.14-.07-.18.16-.09.27-.19.23-.19,0-.26.14-.18.15-.34,0-.5.06-.34.31a.82.82,0,0,1,.07.46c0,.31.21.51.3.24a.6.6,0,0,1,.25-.25,1,1,0,0,0,.27-.2c.07-.09.11-.07.19.08s.14.2-.09.48c-.1.12-.25.2-.33.17s-.27.13-.19.33-.3.84-.49.77-.2,0-.36.5-.16.56,0,.57.16.29-.16.46-.23.14-.11.32,0,.51-.39.53-.54.18-.15.41.4.49.18.6c-.14-.44-.55-.51-.72-.21s-.11.89.11,1a.24.24,0,0,0,.13,0c.5-.09.61.07.41.62A1,1,0,0,0,74.67,130.62Zm44.61-56.9-.21-.08c-.18,0-.24,0-.29.07-.15.26.22.43.39.18Zm5,15.2c.07.17.35.34.44.27s.27,0,.35.22.52.27.59-.1a.57.57,0,0,1,.12-.26.11.11,0,0,0,0-.14c0-.09-.35-.12-.37,0s-.16,0-.34-.05c-.33-.11-.66-.47-.62-.77l-.71-.37a1.16,1.16,0,0,1-.4.06,2.92,2.92,0,0,1-1.28-.25l-.09,0a.38.38,0,0,0,0,.2.67.67,0,0,1,.06.3c0,.11,0,.13.3.11s.21,0,.3.22.12.23.23.15.27.24.12.5-.1.19,0,.15a.32.32,0,0,0,.17-.22c0-.13.09-.18.24-.21s.21,0,.35.23.29.4.23.16S124.22,88.72,124.29,88.92Zm-3,25.89c-.17-.08-.24,0-.15.13s0,.15-.06.21-.15.13,0,.21.34,0,.32-.09a2.53,2.53,0,0,1,0-.27A.17.17,0,0,0,121.31,114.81Zm-2.74-2.66c0,.09.06.17.31.15A.51.51,0,0,0,118.57,112.15ZM121.39,41c-.31,0-.32,0-.09.36s.39.22.5,0S121.74,41,121.39,41Zm.42,6.29c-.1,0-.18.55-.09.57a1.14,1.14,0,0,1,.48.39.12.12,0,0,0,.15.09c.11-.05.08-.12,0-.18s-.1-.08-.09-.2C122.22,47.73,122,47.27,121.81,47.33Zm.34-4.31a.29.29,0,0,0,.3.31c.06,0,0-.12,0-.23S122.19,42.84,122.15,43Zm-1,27.31c.14,0,.17-.12.06-.17S121,70.17,121.16,70.33Zm-1.77-37.08c.16-.08.19-.32.1-.64s-.07-.19-.16-.1-.11.06-.16,0-.09-.13-.12-.11,0,.1,0,.16a.49.49,0,0,1,0,.3.55.55,0,0,0,0,.26.61.61,0,0,1,0,.29.57.57,0,0,0,.09.31c.21.18.32.15.39.13s.14-.08.12-.25-.13-.35-.29-.2-.14.09-.16,0S119.31,33.3,119.39,33.25Zm1.49,28.89c0,.07.13.27.3.35s.21-.11.17-.29S121,62,120.88,62.14Zm-.48,17.91c-.1-.07-.2-.09-.24,0s.1.4.24.36.74.1.79.31.34.25.39-.07a.51.51,0,0,1,.07-.17l-1.07-.88a.38.38,0,0,1,0,.21C120.65,80.14,120.6,80.21,120.4,80.05Zm-1.09-55c-.08-.22-.19-.21-.3,0s-.07.26.27.3c.16,0,.31,0,.23-.13S119.34,25.19,119.31,25.09ZM123,82.49c0-.07-.11-.1-.14-.08C122.85,82.58,122.92,82.61,123,82.49ZM122.63,51a.21.21,0,0,0-.09.21c0,.08.11.09.23,0s.14-.16.08-.21A.2.2,0,0,0,122.63,51ZM122,34.89a.66.66,0,0,0,.08.13c.12.19.14.28.1.42-.09.33.21.37.51.09l.1-.11-.1-.09s0,.06,0,.08-.15-.1-.1-.2A2.34,2.34,0,0,0,122,34.89ZM93.36,57.43c.07.11.16.1.17,0s-.15-.19-.21-.14S93.31,57.37,93.36,57.43ZM88,116.66a1.9,1.9,0,0,1,0,.21c.44.12.74-.22.43-.42a.31.31,0,0,1-.28.08C88,116.5,88,116.54,88,116.66Zm.61-47.54a.5.5,0,0,0-.17,0c.12-.07.14-.22,0-.29S88,68.76,88,69a.29.29,0,0,0,.19.2.17.17,0,0,0,.12,0c-.06,0-.1.06-.11.1s.14.31.27.26S88.73,69.16,88.58,69.12ZM88,123.55c.19-.07.54-.49.48-.56s-.42-.07-.53.13S87.91,123.59,88,123.55Zm25-3.67c0,.09.15.1.26.05s.07-.32-.18-.25A.13.13,0,0,0,113,119.88ZM90.32,56.93a.57.57,0,0,0-.19-.33c-.3-.27-.4-.16-.4.47a1.12,1.12,0,0,1-.07.52c-.1.07-.08.47,0,.58a.4.4,0,0,1-.17.53.33.33,0,0,0-.17.18,3.34,3.34,0,0,1-.11.42c-.09.27-.09.27.15.35s.43,0,.27-.16-.09-.13,0-.17.1-.11.1-.25.14-.42.27-.4a.74.74,0,0,0,.26,0l.1-.05c.12.06.21.13.21.18s0,.05,0,.07a.18.18,0,0,0,.15-.09c.08-.1.13-.12.29-.08l.23.05a8.51,8.51,0,0,0,1.56-.05,2.71,2.71,0,0,1,.88,0c.75,0,.8,0,1.07-.11s.27-.13.39,0,.75.13.84,0,.23-.14.36,0a.23.23,0,0,0,.21.07,2.68,2.68,0,0,1,.9.06c.15.07.48-.09.46-.22s-.09-.12-.21-.14-.19-.06-.18-.12c0-.21-.4-.27-1.18-.15-.27,0-.31,0-.45-.1s-.17-.13-.33-.08a1.23,1.23,0,0,1-.39,0c-.16,0-.22,0-.23.1s0,.1-.2.06-.51-.07-.6,0-.76,0-1.16-.21c-.18-.11-.2-.12-.31,0a.4.4,0,0,1-.21.08.93.93,0,0,1-.5,0c-.23,0-.38,0-.38-.08a.33.33,0,0,0-.1,0,2.9,2.9,0,0,0-1.3.25,5.43,5.43,0,0,1,0-.72C90.29,57.19,90.31,57,90.32,56.93Zm-3-13.22a.64.64,0,0,1,.24-.25A.3.3,0,0,0,87.3,43.71ZM88,114.18a.28.28,0,0,0,.25.07c.2-.06.36-.33.23-.38S87.88,114.05,88,114.18Zm-.21-7.36a.48.48,0,0,0,.22,0,.37.37,0,0,0-.17-.14.36.36,0,0,0-.22,0A.37.37,0,0,0,87.77,106.82Zm4.39-76.57c-.06,0-.1.07,0,.18C92.29,30.36,92.27,30.21,92.16,30.25ZM88,62.49c0,.09.13.13.21,0S88.07,62.46,88,62.49Zm-.57,12.93c.24,0,.48-.33.28-.34a.3.3,0,0,1-.17-.08c-.07-.13-.18-.09-.14.06a.19.19,0,0,1-.1.22C87.16,75.38,87.22,75.46,87.46,75.42Zm.44-10.14c-.11.09.14.43.27.38a.4.4,0,0,0,.13-.17C88.36,65.34,88,65.17,87.9,65.28Zm7.83-17.39c.17,0,.2-.06.07-.23C95.52,47.71,95.58,47.85,95.73,47.89ZM97.07,27c-.11.08-.07.31,0,.29s.15-.12.1-.25S97.14,27,97.07,27Zm-.5-10c.2.16.69-.05.62-.27a1.12,1.12,0,0,0-.45.1C96.47,17,96.46,17,96.57,17Zm2,87c.14,0,.19.14.14.27s.18.33.34.09a2.4,2.4,0,0,0,.17-.27C99.23,104,98.54,103.82,98.54,104.05Zm.82-76.81a.14.14,0,0,0-.11-.11c-.13,0-.26.17-.16.24A.18.18,0,0,0,99.36,27.24Zm-5.69-.12c-.18-.2-.28-.2-.3,0a.29.29,0,0,0,.1.24A.15.15,0,0,0,93.67,27.12ZM92.34,57.54c0-.2-.07-.34-.13-.35S92.1,57.22,92.34,57.54ZM98.48,72a.38.38,0,0,0-.29,0c-.11,0-.08.07.21.21s.32.14.29,0A.39.39,0,0,0,98.48,72ZM94.55,45.74c-.12.16-.13.22,0,.29s.17,0,.47-.21a.42.42,0,0,0,0-.16C95,45.45,94.72,45.49,94.55,45.74ZM95,18.56s-.07-.13-.18-.18c-.3-.16-.61-.08-.39.1S95,18.66,95,18.56Zm-.85,13.55c.08,0,.17,0,.31.1l.09,0c-.13.07-.11.15,0,.17a.1.1,0,0,0,.11-.09c.31.09.65,0,.47-.2a.47.47,0,0,1-.11-.33.39.39,0,0,0-.07.14c0,.25-.07.26-.17.11s-.62-.27-.72-.11S94,32.17,94.12,32.11ZM91,27.54c0,.1.15.11.17,0S91.1,27.45,91,27.54Zm14.94,71.71a.15.15,0,0,0-.21.09C105.94,99.51,106.06,99.32,105.89,99.25Zm6.77-41.71c0-.09-.19-.17-.23-.09a.17.17,0,0,0,0,.14C112.46,57.68,112.64,57.65,112.66,57.54Zm.1-20.36c-.12-.07-.33.13-.27.25s.11,0,.23,0S112.92,37.27,112.76,37.18Zm-.46,75.7a2.68,2.68,0,0,1-.08.33C112.36,113.31,112.4,113,112.3,112.88ZM107,72.38c.31-.4.49-1.46.25-1.49a.23.23,0,0,1-.2-.15c0-.4-.74-.21-.93.26,0,.12-.13.21-.18.18-.22-.08-.68.55-.59.81s.48.47.64.3.4-.07.33.09a1,1,0,0,1-.39.26,1.62,1.62,0,0,0-.5.41.71.71,0,0,1-.43.27.57.57,0,0,0-.4.27c-.09.16-.22.23-.55.24.22.11.24.64,0,.81s-.16.19,0,.31c.28.29.59.78.55.88s.08.22.21.37.23.29,0,.82a1.25,1.25,0,0,0-.14.82c.11.31-.26.85-.65,1-.18.06-.18.09-.07.31s.21.73.09.79a.56.56,0,0,1-.53-.26c0-.26-.31-.22-.62.09s-.58.39-.35.07a.75.75,0,0,0,.14-.34c0-.22-.43-.38-.5-.2a.15.15,0,0,0,.08.21.19.19,0,0,1,.06.24.45.45,0,0,0,0,.27,1,1,0,0,1-.13.44c-.2.39.06.54.38.22.1-.1.23-.16.29-.14a1.38,1.38,0,0,0,.55-.06c.49-.11.6-.1.44,0s-.06.19,0,.34,0,.28-.14.44a.42.42,0,0,0-.17.49.81.81,0,0,1-.56.79c-.17.08-.37-.18-.24-.32s-.13-.76-.3-.84-.54.47-.48.63a.39.39,0,0,1,0,.28.61.61,0,0,0,.45.75c.17,0,.32.12.33.18s.14.15.3.18.28.09.29.31.41-.59.6-1.38a.86.86,0,0,0,0-.54.21.21,0,0,1,.14-.34c.09,0,.15-.16.24-.62a12,12,0,0,1,.35-1.27,1.72,1.72,0,0,0,.17-.71s0-.23.12-.44a1,1,0,0,0,.14-.55.38.38,0,0,1,.08-.31.58.58,0,0,0,.12-.34,5.78,5.78,0,0,1,.37-1.19c.21-.54.45-1.24.54-1.55A7.63,7.63,0,0,1,107,72.38ZM112.66,77c.14-.14-.14-.53-.3-.42s0,.48.13.5A.21.21,0,0,0,112.66,77Zm-1.16-21c-.07.09,0,.14.15.12s.18-.08.14-.19S111.59,56,111.5,56.06Zm.72,17.33c-.1.07,0,.13.15.13A.25.25,0,0,0,112.22,73.39Zm-.16-41c0-.42,0-.42-.22-.27s-.27.69.08.69C112,32.79,112.07,32.69,112.06,32.38Zm-.89-5.57c.21.39.46.47.46.15,0-.13,0-.3,0-.3a1.1,1.1,0,0,0-.31-.1C111,26.52,111,26.52,111.17,26.81Zm.07,85.59a.23.23,0,0,1,.19.23.42.42,0,0,1,.38-.08c.23,0,.32,0,.42-.11s0-.32-.23-.26-.21,0-.25-.2-.15-.28-.43,0a1,1,0,0,1-.27.24A.23.23,0,0,0,111.24,112.4Zm-5.9-1.81c.21.1.4,0,.21-.14a1,1,0,0,0-.31-.14c0-.14-.3-.41-.51-.51s-.31-.3-.59-.55c-.94-.82-2-1.66-3.83-3.17-1-.82-1.92-1.59-2-1.71-.28-.37-.41-.36-.48,0,0,.16,0,.25,0,.31a1.3,1.3,0,0,1-.32.08.35.35,0,0,0-.37.24.59.59,0,0,1-.32.26,1.15,1.15,0,0,0-.33.24c-.12.2-.61.39-.68.27a.12.12,0,0,0-.17,0c-.06,0-.09.1-.07.14s0,.09-.13.14a.56.56,0,0,0-.24.18c-.16,0-.21,0-.24,0a.32.32,0,0,0-.07.43c.09.15.08.17-.11.3s-.23.12-.32,0a.4.4,0,0,0-.36-.09c-.26,0-.4.15-.19.17s.1.09-.15.2-.46.27-.41.35,0,.1-.17.17-.2.15-.16.26a.34.34,0,0,1,0,.17.64.64,0,0,1-.41,0,2.77,2.77,0,0,1-.19.25,9.22,9.22,0,0,1-2.08,1.92c-1.32,1-1.41,1-1.52,1.3s.07.34.64-.14,1.28-.65,1.42-.23a1.18,1.18,0,0,0,.34-.32c.1-.18.12-.2.31-.24a2.1,2.1,0,0,0,.76-.37c.08-.06.11-.13.07-.19s0-.27.39-.63a2.42,2.42,0,0,1,.92-.61.54.54,0,0,0,.22-.08c.15-.1.23,0,.15.13s.1.22.22.1a.62.62,0,0,1,.28-.14c.15,0,.19-.06.23-.19a.6.6,0,0,1,.2-.25.61.61,0,0,0,.19-.24c0-.13.07-.14.34-.11a.84.84,0,0,0,.41,0,2.85,2.85,0,0,1,.36-.19c.21-.1.22-.1.1-.19s-.11-.1.1-.19a1.8,1.8,0,0,1,.39-.11.27.27,0,0,0,.24-.12.58.58,0,0,1,.21-.2c.28-.15.39-.25.35-.32s0-.12.06-.19.08-.12-.13-.1-.21,0-.11,0a.14.14,0,0,0,0-.22c-.1-.17,0-.4.26-.56s.17-.14.13-.17,0-.1.08-.16.15-.16,0-.19-.13-.17,0-.26a7.79,7.79,0,0,1,2,1.61c0,.2.24.39.68.55a19.3,19.3,0,0,1,2.17,1.55c.8.62,1.38,1.05,1.72,1.27a1.39,1.39,0,0,0,.49.47s0,.06,0,.13ZM88.36,130c0,.2.08.24.18.23C88.59,130,88.47,130,88.36,130Zm5.84-15.65c-.06-.07-.14-.09-.18-.06s-.06.19.08.22S94.32,114.47,94.2,114.35Zm-2,7.8c.18-.11.09-.31-.11-.25,0,0-.06.09,0,.17S92.09,122.18,92.16,122.15Zm-3.72,5.72a.17.17,0,0,0-.15.16c0,.17.17.27.26.18A.2.2,0,0,0,88.44,127.87Zm.29-5.55c-.15,0-.1.13,0,.26s.12.19.12.11a.53.53,0,0,1,0-.22S88.79,122.36,88.73,122.32Zm6.51-4.71c-.13.1-.08.33.2.18C95.49,117.65,95.34,117.52,95.24,117.61Zm7.52-3.48a.28.28,0,0,0-.11.14C102.82,114.32,102.86,114.26,102.76,114.13Zm-1.52,2.42c-.13,0-.23,0-.19.08s0,.09-.08.12-.11.2.06.17S101.38,116.6,101.24,116.55Zm-2,.85a1.78,1.78,0,0,0,.51.71C100.09,118.23,99.78,117.7,99.28,117.4Zm-.55-5.3c.17-.2.11-.3,0-.3S98.65,112,98.73,112.1Zm4.42,4c-.33-.07-.44.11-.22.38s.21.24.29,0S103.33,116.26,103.15,116.14ZM86.12,96c-.26.05-.4.14-.44.32s.14.24.24.08a.37.37,0,0,1,.18-.17C86.35,96.09,86.37,95.93,86.12,96ZM65.29,72.85c.14.15.31.12.5,0a.88.88,0,0,1-.35-.11,1.07,1.07,0,0,0-.89.16c-.07.12-.13.1-.18,0a.47.47,0,0,0-.08.31c0,.23.15.18.3-.12S65.07,72.63,65.29,72.85Zm-.58,14c-.11,0-.1-.07,0-.19s.08-.31-.37-.24l-.47.11a1.26,1.26,0,0,1-.51.11.18.18,0,0,1-.13.14,2.33,2.33,0,0,0-.41.26.54.54,0,0,1-.34.16c-.17,0-.3.1-.25.23s.08.07.22,0,.19-.09.3,0,.13.09.2,0a.18.18,0,0,1,.21-.12,2.67,2.67,0,0,0,.7-.18,2.79,2.79,0,0,1,.41-.12.18.18,0,0,1,.26,0h.08C64.74,86.94,64.82,86.93,64.71,86.86ZM64.88,73a2.6,2.6,0,0,1-.3.36c-.09.1-.13.22-.08.27s.32-.07.28-.25a.38.38,0,0,1,.16-.26c.11-.07.16-.18.13-.22S65,72.86,64.88,73Zm0,34.94a.14.14,0,0,0,.12-.11q0-.12-.12-.12c-.11,0-.14,0-.13.12A.14.14,0,0,0,64.86,107.91Zm-.27,18.74a1.18,1.18,0,0,0-.31-.12c-.1,0,0,.6.16.6A.26.26,0,0,0,64.59,126.65Zm0-40.65c-.09-.07-.15-.07-.16,0s0,.17.17.19S64.71,86.11,64.55,86Zm-1.12-5.59c0-.11-.06-.13-.25,0s-.13.09-.08.17S63.4,80.57,63.43,80.41Zm-.72-2.83c-.38.28-.46.43-.3.59s.15.06.55-.46S63.13,77.27,62.71,77.58Zm-.5-5.9a.43.43,0,0,0,.25.15C62.6,71.67,62.46,71.54,62.21,71.68Zm2.2,45a.43.43,0,0,0-.14-.35c-.14-.16-.21-.19-.25-.09a.43.43,0,0,0,.14.35C64.29,116.74,64.37,116.76,64.41,116.67Zm-1.15,13.4a.39.39,0,0,1,.34.11c.18.17.66,0,.52-.18a1.86,1.86,0,0,0-1.24-.19C62.64,130,62.9,130.19,63.26,130.07Zm3-33.66c0-.08-.14-.37-.21-.37s-.12.08,0,.25S66.22,96.45,66.23,96.41ZM64.52,64.83c.09.1.23,0,.18-.14s0-.15.1-.21.17-.4,0-.37A.46.46,0,0,0,64.52,64.83Zm.77,25.87a.3.3,0,0,0-.18,0C65.27,90.8,65.35,90.78,65.29,90.7Zm.45-40.23c-.11,0-.13.12.08.13A.11.11,0,0,0,65.74,50.47Zm1.61-14a.18.18,0,0,0-.29,0,.13.13,0,0,0,.09.15C67.28,36.74,67.43,36.6,67.35,36.5Zm-3.84,4.21c.17-.14.18-.18.09-.35a.18.18,0,0,1,0-.1l-.11,0c-.1.07-.16,0-.27-.54a.68.68,0,0,1-.11.2c-.2.24-.2.35,0,.64S63.32,40.87,63.51,40.71ZM65,55.36c.12-.12.07-.24-.1-.23a.15.15,0,0,0-.15.16C64.79,55.45,64.92,55.48,65,55.36ZM66,127.64c.1,0,.08-.14-.07-.36s-.35-.4-.57-.23S65.51,127.81,66,127.64Zm-5.91-27.21c.12.11.22.09.28-.06s0-.2-.15-.23S59.94,100.34,60.05,100.43Zm1.78-55.51c-.06-.08-.16-.08-.14.11S61.9,45,61.83,44.92ZM63,53.41c.18,0,.39-.21.33-.33-.15-.29-.43-.22-.45.12C62.88,53.38,62.9,53.41,63,53.41ZM61,63c.24-.08.31-.23.15-.29s-.48,0-.41.19S60.85,63.08,61,63ZM53.48,94c-.06.09.16.22.3.17a.09.09,0,0,0,.06-.12A.23.23,0,0,0,53.48,94Zm7.18-1.83c-.16-.34-.27-.44-.3-.28s0,.13-.19-.11-.19-.27-.23-.27,0,.18.2.43a.51.51,0,0,1,.09.13c-.13.08-.33.3-.26.3l.23-.07a.41.41,0,0,0,.11-.07.25.25,0,0,0,.18.1C60.75,92.41,60.76,92.4,60.66,92.18ZM55.09,56.44c0,.3,0,.31.51.27s.61-.17.08-.65C55.39,55.8,55.08,56,55.09,56.44Zm1.16,29.5c-.13-.09-.2-.11-.27-.07.19.08.23.13.22.23s-.05.14-.1.13-.16.11-.06.14l.31.1c0-.09,0-.21,0-.3A.22.22,0,0,0,56.25,85.94Zm-3.64-14.2c-.15.07-.17.13,0,.15S52.64,71.77,52.61,71.74Zm1.79,6.2c-.3.06-.44,0-.3-.18s-.09-.37-.38-.41-.19,0-.18-.15-.19-.09-.59.11c-.18.09-.23.08-.38,0s-.18-.12-.22-.07.21.42.41.49a.53.53,0,0,1,.23.24c.13.25.27.36.39.29a.17.17,0,0,1,.17,0,.26.26,0,0,0,.21,0c.15-.07.41.07.41.21s.07.12.18.17.17.11.13.17a.26.26,0,0,0,0,.2.2.2,0,0,1-.06.2c-.11.08-.11.17,0,.48s.16.3.3.1a.52.52,0,0,1,.27-.17,2.53,2.53,0,0,0,.87-1.1.93.93,0,0,0-.85-.32s-.13,0-.22-.12A.36.36,0,0,0,54.4,77.94ZM68.28,34.39c0-.15-.21-.13-.21-.07S68.22,34.44,68.28,34.39ZM56.6,63c0,.13.35,0,.31-.15s-.07-.13-.12-.13S56.56,62.88,56.6,63ZM55.27,41.83a.17.17,0,0,1-.24,0c-.18-.08-.21,0-.05.19s.54.22.45,0a.23.23,0,0,1,0-.19C55.47,41.79,55.37,41.73,55.27,41.83Zm.84,55.33c-.19.07-.07.3.21.41s.55.1.59-.11S56.28,97.09,56.11,97.16Zm.81-71.75a.18.18,0,0,0,.18-.09c.14-.26.1-.48-.08-.51s-.18,0-.17.15,0,.19-.05.2S56.79,25.39,56.92,25.41ZM56,95.6c.09,0,.15-.15.23-.39a1.26,1.26,0,0,1,.11-.28.45.45,0,0,0-.17-.08.42.42,0,0,0-.44.11s0,.05,0,.1a3.31,3.31,0,0,1-.28.72c-.26.51-.18.63.25.34.24-.16.27-.16.16,0a.29.29,0,0,0-.11.29.39.39,0,0,1,0,.24c-.06.08,0,.13.1.22s.17.11.18-.1a.38.38,0,0,1,.16-.34c.13-.1.15-.15.12-.34s0-.22-.17-.2A.14.14,0,0,1,56,95.6Zm-.7-47.37a.15.15,0,0,0,.17.07c.15-.06.17-.17.06-.26S55.26,48.1,55.34,48.23ZM59,37.69c0,.16,0,.25.12.26S59.35,37.8,59,37.69Zm0,8c.07.32.23.36.29.06s-.08-.38-.25-.35S59,45.43,59,45.64Zm.11,36.05c0-.06-.07-.14-.2-.17C59,81.76,59.12,81.76,59.14,81.69ZM58.4,55.82a.26.26,0,0,0-.29,0,.23.23,0,0,1-.21,0c-.08-.08-.2,0-.19.15s.34.3.69.07C58.56,55.92,58.56,55.91,58.4,55.82Zm.78,21.94c0,.1,0,.15.15.15s.2-.07.2-.15a.14.14,0,0,0-.14-.15A.22.22,0,0,0,59.18,77.76Zm-6.12-9.89a.12.12,0,0,1,0,.1s0,.07,0,.08C53.32,67.74,53.19,67.66,53.06,67.87ZM57.3,37.32c-.07.07,0,.16.1.13a.93.93,0,0,1,.36.18c.41.28.53.28.28,0S57.4,37.2,57.3,37.32ZM52.21,73c.19-.06.23-.29,0-.34a.22.22,0,0,0-.25.07A.19.19,0,0,0,52.21,73Zm6.43,16.86a1,1,0,0,1,.09-.21c.07-.11.05-.48,0-.5s-.12.06-.19.16-.16.16-.23.11-.37.3-.55.9-.06.61.25.18a1.57,1.57,0,0,1,.43-.4A.6.6,0,0,0,58.64,89.88ZM58,95.76s.13.1.25.12C58,95.62,57.92,95.62,58,95.76ZM57.71,22c0,.1.16.07.22-.06s-.11-.6-.26-.47a1,1,0,0,1-.23.25c0,.05.05.12.12.15A.4.4,0,0,1,57.71,22ZM135.63,80.6a.2.2,0,0,0-.06.13l.33-.07A.18.18,0,0,0,135.63,80.6Zm0-6.86a1,1,0,0,0-.08-.48c-.07-.13-.08-.26,0-.28s.06-.19-.11-.22a.26.26,0,0,1,0,.31c-.13.16-.13.18,0,.28a.15.15,0,0,1,.07.17.2.2,0,0,0,.06.17.37.37,0,0,1,.12.13S135.58,73.78,135.58,73.74ZM135,80.19a.59.59,0,0,0,0,.68l.1,0,.22,0a2.08,2.08,0,0,0,.06-.24C135.43,80.23,135.19,80,135,80.19ZM127.88,86c-.11-.3-.42-.23-.53.12,0,.15,0,.18.16.2S128,86.17,127.88,86Zm6.41-14.45c.16-.13.07-.27-.2-.3s-.18.12,0,.32S134.18,71.62,134.29,71.52Zm-6.13-29.87c0,.11,0,.17.07.2s0-.17,0-.25S128.16,41.63,128.16,41.65Zm.31,10.63c.53,0,.68-.13.21-.26a.79.79,0,0,0-.47,0C128,52.12,128.13,52.24,128.47,52.28Zm4.38,33a.13.13,0,0,0,.19.07,1.18,1.18,0,0,1,0-.2h-.09C132.84,85.16,132.82,85.21,132.85,85.29Zm-.34,9.3c-.17.16.05.63.28.59s.36-.19.27-.38S132.68,94.44,132.51,94.59Zm1.17-1.37c0,.17,0,.23.36.34a1.06,1.06,0,0,0-.12-.53C133.8,93,133.71,93.06,133.68,93.22Zm-2,10.5a.33.33,0,0,0,.33.14c.09,0,.15,0,.17-.07l0-.14a.32.32,0,0,0-.32-.13C131.67,103.55,131.63,103.59,131.7,103.72Zm.51-30.93c-.14-.28-.43-.13-.43.21,0,.54.37.67.77.27.23-.23.23-.23,0-.26A.49.49,0,0,1,132.21,72.79Zm-3.83-26.43a1.37,1.37,0,0,1-.2-.38c-.09-.29-.13-.28-.43.11s-.23.34-.12.45.17.08.22,0,.17-.09.31,0S128.56,46.59,128.38,46.36Zm.94,56.12c0,.1,0,.12.23.09s.37-.15.24-.24S129.32,102.35,129.32,102.48Zm.57-10.1c-.13.21.1.53.32.44s.16-.11,0-.3S130,92.22,129.89,92.38Zm-.74-38c.06-.27-.08-.27-.45,0a.8.8,0,0,0-.23.23.59.59,0,0,1-.35-.14.39.39,0,0,0-.32-.08c-.2,0-.22,0-.19.29s0,.26.5.28a2.88,2.88,0,0,1,.9.21l.8.33c-.07-.37-.13-.75-.18-1.12ZM54.22,31a.25.25,0,0,0-.24-.14c-.08-.19-.27-.31-.34-.22s-.22,0-.28-.16-.08-.1-.18-.08a.38.38,0,0,1-.27-.08.56.56,0,0,0-.26-.1c-.18,0-.31-.12-.3-.25s-.2-.15-.25,0,0,.17.14.28.52.62.47.68-.08,0-.15,0-.1,0-.06.15.24.3.18.11,0-.11,0-.11.19,0,.52.17a1.38,1.38,0,0,0,.39.19c-.09.1,0,.26.17.38a2.92,2.92,0,0,0,1,.31s0-.09-.16-.15a.71.71,0,0,1-.25-.23.92.92,0,0,0-.18-.2l.09-.05C54.61,31.33,54.49,30.94,54.22,31ZM131.31,98.2c0-.11-.05-.11-.21,0s-.18.17-.14.22S131.33,98.45,131.31,98.2ZM68.87,57.46c-.25,0-.27,0-.15.18a.25.25,0,0,1,.31,0,.72.72,0,0,0,.39,0c-.11,0-.19,0-.2-.08S69,57.45,68.87,57.46ZM129,96.28a.12.12,0,0,0,.13,0s.09-.07.07-.11a.1.1,0,0,0-.13,0A.09.09,0,0,0,129,96.28Zm-.06-12.79c.11.12.33,0,.16-.37C128.93,83.08,128.81,83.37,128.93,83.49Zm-1.12,18.68a.16.16,0,0,1-.18,0c-.12-.09-.18,0-.14.17s0,.23,0,.28c0,.23.29.16.39-.1S128,102.06,127.81,102.17ZM128,67.71a.35.35,0,0,1,.43,0c.37.24.57,0,.4-.4-.07-.17-.08-.34,0-.38a.48.48,0,0,0,0-.38.87.87,0,0,1,.1-.57c.13-.22.13-.27,0-.28s-.2-.08-.2-.19-.45-.43-.63-.36.07.51.26.59.3.38-.07,1.16C128,67.35,127.91,67.69,128,67.71Zm1.61-.8c-.06.24-.06.24.16,0s.29-.42.15-.41S129.64,66.66,129.57,66.91Zm.25,6.74c.16.23.36.13.35-.09a1.44,1.44,0,0,1-.3-.12l-.2-.1A1,1,0,0,0,129.82,73.65ZM70,86.24c0-.06-.08,0-.06.09a.53.53,0,0,1,.06.1A.18.18,0,0,0,70,86.24Zm0,31.64-.11-.07C69.85,117.87,69.89,117.89,70,117.88Zm-2.25-23.7c.08-.17,0-.25,0-.17A.21.21,0,0,0,67.72,94.18Zm2.47,24.67c-.19-.19-.49.09-.45.21S70.11,119,70.19,118.85ZM70.46,142c-.14-.16-.27-.27-.3-.24s0,.62.06.64C70.56,142.47,70.7,142.25,70.46,142ZM69,85.64c.17-.09-.13-.78-.37-.86a.52.52,0,0,0-.25,0C68.26,85.06,68.75,85.74,69,85.64ZM69.42,102a.51.51,0,0,0,.32,0,.26.26,0,0,0,.13-.22c0-.41-.45-.47-.57-.08C69.25,101.9,69.28,102,69.42,102Zm-1.15-29.3c.13-.12-.2-.3-.42-.23,0-.3-.25-.35-.38-.44s-.23-.16-.12.19a1.39,1.39,0,0,0,.16.37C68,72.78,68.19,72.8,68.27,72.73ZM60,33.76c-.24.18.47,1.56,1.19,2.32.24.24.21.26.4-.15s.11-.52-.14-.56c-.09,0-.15-.18-.17-.49C61.26,34.22,60.41,33.47,60,33.76ZM68.6,75.2c.09-.07,0-.15-.18-.13s-.22,0-.15.13S68.48,75.27,68.6,75.2Zm-1.28,32.72a.19.19,0,0,0-.11-.31c-.12,0-.15,0-.13.1S67.28,108,67.32,107.92Zm47.76-.47a.14.14,0,0,0,.15,0C115.14,107.32,115.07,107.31,115.08,107.45Zm.06-10.91a.29.29,0,0,0-.27,0C115,96.82,115.3,96.65,115.14,96.54ZM120.26,120a1.43,1.43,0,0,0,.29.33l.63-.07a2.81,2.81,0,0,0-.55-.41C120.16,119.58,120.05,119.62,120.26,120Zm18.6-42.68c0,.07.4.1.42,0s-.06-.2-.18-.23S138.81,77.24,138.86,77.32ZM50.09,40.68c-.05.19,0,.26.27.19a.37.37,0,0,1,.33,0c.12.1.18.1.56,0,.16-.05.18-.08.12-.18s-.09-.11-.27,0-.19.16-.27-.06A.4.4,0,0,0,50.09,40.68Zm92.48,33.76a.65.65,0,0,0-.28.5C142.3,75.13,142.49,75,142.57,74.44Zm-6.69,2.68-.09-.05a.34.34,0,0,1,.05.27c0,.18.14.32.36.32,0,0,.12.12.2.28.17.34.25.39.46.29s.19-.2.1-.36a2.07,2.07,0,0,1-.57-.37A2.1,2.1,0,0,0,135.88,77.12ZM42.5,133.22c.14-.13.13-.14-.07-.26s-.22-.12-.26,0a1,1,0,0,1-.1.23c0,.06,0,.09.11.12S42.34,133.38,42.5,133.22Zm72.63-56.91c.36-.07.2-.23-.19-.2s-.26,0-.11.12A.43.43,0,0,0,115.13,76.31ZM76.89,142.76A.61.61,0,0,0,77,143c.16.26.28.16.13-.11S76.92,142.66,76.89,142.76ZM76,141.61l-.27.34c-.1.12-.1.19,0,.23s.2-.06.34-.31S76.21,141.31,76,141.61Zm12.62-2.39c-.1.12-.16.27-.13.32s.05.17.13.23a1.66,1.66,0,0,1,.22-.31s0,0,0-.06l0-.13s0-.07,0-.1S88.74,139,88.59,139.22ZM42.77,51.11a.25.25,0,0,0-.12.2C42.93,51.26,43,51.17,42.77,51.11ZM72,23.49c0-.13-.3-.27-.44-.19s-.1.09,0,.2S71.92,23.67,72,23.49ZM71.09,37l-.1-.06-.08.06A.17.17,0,0,0,71.09,37Zm.38-5.47a.46.46,0,0,0,.31.18,1,1,0,0,1-.16-.14S71.53,31.48,71.47,31.48Zm2.07,108.41c0-.16-.34-.22-.39-.07C73.32,140.14,73.58,140.05,73.54,139.89Zm-1-110.67c.16,0,.16-.15,0-.18a.2.2,0,0,1-.15-.18c0-.21-.16-.2-.21,0S72.32,29.25,72.56,29.22Zm.79,64.53c.1-.33,0-.48-.32-.33a.27.27,0,0,1-.32-.07c-.08-.09-.2-.14-.26-.1-.29.15-.46-.09-.23-.34s.19-.31-.19-.49c-.11-.06-.17,0-.23.25-.18.61.21,1.18.68,1a.24.24,0,0,1,.31.09C73,94.09,73.24,94.07,73.35,93.75ZM73,119.28a.21.21,0,0,0-.32-.14C72.61,119.22,72.78,119.44,73,119.28ZM70.66,92.64a.57.57,0,0,0,0,.14l.29.14A1.26,1.26,0,0,0,70.66,92.64Zm1.88,10.56a.62.62,0,0,0-.72.36c-.1.24,0,.23.55-.06S72.83,103.26,72.54,103.2ZM71.17,60.74c.09-.1.14-.11.31,0s.28.09.3-.09,0-.12-.2-.1a.54.54,0,0,1-.32-.06c-.25-.16-.51.1-.29.3S71.08,60.84,71.17,60.74Zm-2,61.85c.34-.13.13-.52-.23-.44s-.43.31-.19.43A.55.55,0,0,0,69.15,122.59Zm-7.32,9.64c-.27,0-.34.08-.3.19a1.37,1.37,0,0,0,.59.64c.38.09.6-.11.48-.44S62.32,132.17,61.83,132.23Zm-1.45,3.22c-.05.3.11.36.52.23.2-.07.4-.13.42-.32C61.3,135,60.44,135.08,60.38,135.45Zm8.18,3.27c.2-.08.16-.2.09-.28C68.45,138.52,68.49,138.64,68.56,138.72Zm-7.78-32.95c.21,0,.17-.31-.05-.45C60.53,105.6,60.62,105.76,60.78,105.77ZM63,103.25c.09-.1.22-.18.28-.16s.34-.29.25-.58-.32-.37-.8,0-.4.27-.56.16-.32-.44-.1-.61c-.12-.18-.25-.12-.29,0s-.23.23-.3,0a.19.19,0,0,0-.21-.15c-.1,0-.11.14,0,.3.12.31-.09.5-.26.23-.07-.1-.18-.15-.24-.1a.24.24,0,0,1-.23,0c-.08,0-.28.07-.54.29-.42.35-.42.35-.76.25a1.4,1.4,0,0,0-.61,0,.25.25,0,0,0-.07-.12c-.1-.09-.11-.24-.1-.52-.11.13-.2.15-.3.07a1.3,1.3,0,0,0-.59-.07c-.5.05-.64-.08-.54-.5s-.08-.47-.34-.31-.59-.07-.57-.3a1.09,1.09,0,0,0-.22-.52c.08,0,.19-.1.25-.22.16-.29.29-.24.25.09s0,.27.21.25c.4,0,.41-.3,0-.9a2.28,2.28,0,0,1-.35-.77c0-.25-.16-.35-.24-.17a1.91,1.91,0,0,0,0,.62c.06.45,0,.55-.18.69a1.34,1.34,0,0,0-.36.35c-.08.15-.14.17-.44.14,0,.08-.1.18-.24.22s-.26.1.19.59c.19.2.3.24.43.16s.19,0,.32.19.2.29.36.25.22,0,.27.15a.46.46,0,0,0,.07.1.48.48,0,0,0-.46.19c-.1.11-.09.16.09.33s.26.46-.21.62-.39.11-.34,0-.08-.34-.28-.27-.11.13-.08.24a.17.17,0,0,1-.09.24.15.15,0,0,0-.1.19c.07.21-.1.34-.31.26s-.2-.16-.22-.36-.08-.3-.21-.3a.37.37,0,0,1-.26-.28c-.15-.44-.4-.45-.55,0s-.11.36,0,.37.29.26,0,.35-.26.08-.3-.88c0-.25-.06-.29-.34-.31a3.52,3.52,0,0,1-.51,0c-.13,0-.24.07-.35.29-.19.39-.56.5-.62.18s-.64-.61-.78-.35-.16.19-.35.16a.67.67,0,0,0-.28,0l0,.12c0,.12.15.15.28.11.47-.15.77.07.63.46s-.43.22-1-.07a30.1,30.1,0,0,1-.93,3.16.81.81,0,0,0,.24.29c.23.14.32-.07.15-.35s-.06-.38.31-.2a.92.92,0,0,0,.73,0,2,2,0,0,1,.68-.12c.16,0,.23,0,.25-.12a.43.43,0,0,1,.69-.21.38.38,0,0,0,.4.1c.08.54,1.36,0,1.64-.56a.71.71,0,0,1,.39-.4c.12,0,.3-.2.43-.43s.24-.38.39-.29a1.31,1.31,0,0,0,.47.14.48.48,0,0,1,.42.28c.19.4.39.29.37-.21s0-.57.42-.4a1.16,1.16,0,0,0,.65.06,1.7,1.7,0,0,1,.14.51,4.78,4.78,0,0,0,.12.52l-.12,0c-.22-.08-.33-.17-.3-.25s-.09-.62-.2-.56-.5,1-.35,1.08a.16.16,0,0,1,.1.2.43.43,0,0,0,.1.34c.2.24.12.47-.22.62s-.26.13-.15.28a.79.79,0,0,1,.09.45c0,.2.08.34.32.53s.44.41.3.53-.15,0-.24-.1c-.23-.28-.52-.09-.31.2a1,1,0,0,1,.11.55c0,.19,0,.31.08.29s.14-.16.16-.34.07-.3.19-.26a.27.27,0,0,0,.27-.11c.06-.09.23-.31.38-.49.32-.38.29-.76,0-.44s-.38.19-.32,0a.47.47,0,0,1,.34-.17c.19,0,.28-.09.28-.21a1.76,1.76,0,0,1,0-.27s-.11-.07-.28,0-.32.06-.19-.22.17-.26.48-.14.4.07.43-.13a.39.39,0,0,1,.11.06c.13.09.27.14.32.11s.22.12.18.42,0,.26.16.25a.4.4,0,0,1,.32.17.2.2,0,0,0,.24.09c.08-.05.18,0,.26.12a.59.59,0,0,0,.29.24c.11,0,.12.2,0,.64-.12.66,0,.82.3.65s.34-1.21-.05-1.79a.65.65,0,0,1-.09-.32.21.21,0,0,0-.17-.23c-.14,0-.15-.17-.06-.64s0-.88-.38-.66-.33.07-.24-.21.09-.19.25-.17a.33.33,0,0,0,.31-.13.82.82,0,0,1,.22-.26c.2-.15.06-.36-.16-.22a.52.52,0,0,1-.39,0,.3.3,0,0,0,.08-.08.51.51,0,0,1,.38-.21c.23,0,.27-.08.22-.24s.09-.44.36-.26.38.17.24,0,.22-.46.44-.26.43.14.27,0,.1-.25.43-.17A.35.35,0,0,0,63,103.25Zm-4.38,25c0,.08,0,.1.15.07a1.49,1.49,0,0,1,.28,0,.11.11,0,0,0,.12-.1.86.86,0,0,1,.12-.27c.13-.18.09-.3-.12-.3s-.13,0-.1.2a.29.29,0,0,1,0,.23c-.07,0-.38-.23-.38-.32s-.1-.14-.21-.06-.14.07-.25,0-.26-.06-.27.15.16.28.39.14.2-.1.26,0,.12.12.16.19A.11.11,0,0,0,58.61,128.25ZM73.68,89.77s-.06,0-.13,0S73.66,89.86,73.68,89.77ZM69.7,107c.3.14.42-.13.13-.28a4.56,4.56,0,0,1-.92-.68c-.43-.37-.43-.37-.56-.11s-.1.29.11.45.36.31.49.44.28.22.4.17A.53.53,0,0,1,69.7,107ZM67,139.46s.08-.08,0-.23C66.94,139.23,66.9,139.29,67,139.46Zm1.47-35a.79.79,0,0,1-.33.23c-.14,0-.18.07-.17.14s0,.13-.11.18-.25.23-.1.37l.21.17c.09.08.71-.76.73-1S68.6,104.26,68.43,104.48ZM67.11,70.87a.18.18,0,0,1,.18-.22.3.3,0,0,0,.24-.27c0-.26.1-.29.8-.36.39,0,.53-.26.21-.35a.19.19,0,0,1-.12-.23.33.33,0,0,0-.53-.3c-.29.22-.37.18-.35-.15s0-.3-.15-.29a.16.16,0,0,1-.19-.14c0-.11-.14-.14-.53-.1a.93.93,0,0,1-.65-.09.37.37,0,0,0-.44,0c.24.07.25.09.11.28a.66.66,0,0,0-.15.31c0,.19-.16.16-.47-.08s-.57-.28-.64,0-.62.25-.81.07a.42.42,0,0,0-.43-.07.68.68,0,0,1-.49,0c-.25-.14-.59,0-.48.25s-.12.21-.52.11c-.18,0-.3,0-.33,0s-.17.11-.3.13c-.34,0-.57.15-.56.29s.54.33.61.19.26-.11.5-.11a.76.76,0,0,0,.62-.2c.18-.19.19-.19.35,0s.42.21.81,0c.21-.13.33-.15.42-.08s0,.23-.27.36.22.66.39.64.17-.23,0-.37.08-.76.23-.77.42.66.37.88,0,.2.23.18.27-.06.21-.23.25-.7.53-.57a.6.6,0,0,0,.72-.35c.17.12-.1.7-.4.85s-.33.14-.58,0a1.34,1.34,0,0,1,.1.27c0,.19.42,0,.71-.24s.35-.29.56-.22a.46.46,0,0,0,.39,0c.21-.16.4-.15.42,0s-.52.37-.85.36-.5.22-.29.46a.82.82,0,0,1,.19.37c0,.14.1.17.33.15S67.12,71,67.11,70.87ZM68,146.28c-.2.06-.26.14-.19.27l.36-.06C68.09,146.36,68,146.3,68,146.28ZM81.4,54c-.1,0-.17,0-.16,0s.24.23.28.15S81.49,54.08,81.4,54ZM79.71,12.71a.28.28,0,0,0-.09.14c-.05.13,0,.22.16.26A.65.65,0,0,0,79.71,12.71ZM85.23,31c0-.29-.21-.32-.31-.05a.51.51,0,0,1-.14.2c0-.26-.15-.27-.31,0s-.1.29,0,.34.31,0,.34-.23l0,0A.29.29,0,0,0,85.23,31Zm-3-10.93c0-.14-.09-.2-.24-.1C81.91,20.28,82.18,20.22,82.22,20.08Zm-2.68,2.18a.63.63,0,0,0-.35,0,.15.15,0,0,0,0,.23l.07,0A2.93,2.93,0,0,1,79.54,22.26ZM83,19.09c-.06-.16-.21-.17-.22-.11S82.9,19.12,83,19.09Zm-2.2-2.47c-.23,0-.31.13-.29.37s0,.24.12.24c.3,0,.53-.23.34-.33C81,16.76,80.9,16.59,80.77,16.62ZM57.86,128.8c.13-.23.08-.33-.16-.3a.22.22,0,0,0-.18.2C57.52,129,57.73,129,57.86,128.8ZM83.59,77c-.15,0-.23.27,0,.71C83.64,77.38,83.67,77,83.59,77Zm.26,31.15c-.06-.35-.79-.55-.86-.25,0,.14,0,.18.18.19a.48.48,0,0,1,.34.2C83.65,108.46,83.89,108.36,83.85,108.11Zm-7.18-91c-.15,0-.13.26.19.45C76.87,17.32,76.77,17.07,76.67,17.06Zm-30,109c-.2.22-.2.24,0,.45a.28.28,0,0,0,.33.09c.23-.06.25-.11.09-.18a.11.11,0,0,1-.08-.17C47.14,125.89,46.93,125.77,46.64,126.08ZM83.91,25l-.12.06H84a.52.52,0,0,0,.25,0C84.19,25,84.08,25,83.91,25Zm2.33,6.63c0-.06-.1-.1-.16-.09l-.13,0,.12.07A.15.15,0,0,0,86.24,31.64Zm-.31,43.88a.48.48,0,0,1-.23.16.26.26,0,0,0,.08.21c.13.06.3-.19.25-.38l0-.05Zm0-24.22A.42.42,0,0,0,86,51C85.72,51.08,85.69,51.19,85.93,51.3Zm.33,68.27c.15,0,.23-.61.1-.68a.67.67,0,0,0-.18.27C86.05,119.53,86.07,119.63,86.26,119.57Zm-.59,24.64c0,.12.21.22.34,0A.2.2,0,0,0,85.67,144.21Zm.69-84.51s0,.08.06.23C86.45,59.9,86.47,59.83,86.36,59.7Zm-2.5-44.81c-.32-.24-.26,0,.11.46s.62.54.33.06A1.24,1.24,0,0,0,83.86,14.89Zm1,17.59a.44.44,0,0,0,0-.27C84.61,32.3,84.6,32.41,84.85,32.48Zm.85-7s-.09,0-.15,0-.11.1-.1.13.09,0,.16,0S85.72,25.46,85.7,25.43Zm-.32,6.08a.26.26,0,0,0,.27,0c.25-.09.26-.11.1-.24S85.25,31.35,85.38,31.51Zm-1.71-9.07c.2.09.32,0,.21-.19a.21.21,0,0,0-.35,0S83.57,22.39,83.67,22.44Zm-5.49-9.8c-.2,0-.5.22-.47.4s.17.07.38,0S78.49,12.7,78.18,12.64ZM47.08,62c-.07-.07-.1-.06-.15.06s-.08.15-.19,0-.2-.12-.2.11a.28.28,0,0,0,.15.23C46.88,62.56,47.23,62.18,47.08,62Zm.17.53c0,.08.06.35.13.33S47.51,62.57,47.25,62.55Zm-4-6a.24.24,0,0,0,.18.22c.23,0,.41-.24.29-.4A.27.27,0,0,0,43.22,56.54Zm6.09,9.68c-.12-.06-.21-.13-.21-.19s-.16-.2-.25-.06-.07.17,0,.21a1.21,1.21,0,0,0,.61.32C49.6,66.47,49.54,66.32,49.31,66.22ZM46.45,73.6a.45.45,0,0,1,.35.06c.16.11.18.1.22-.14a.84.84,0,0,0,0-.27,1.76,1.76,0,0,0-.79.07A.19.19,0,0,0,46.45,73.6ZM57.56,125q-.12-.09-.18.21c0,.16.16.35.25.24A.49.49,0,0,0,57.56,125Zm-14-56.11a.18.18,0,0,0,.3.12C43.72,68.67,43.58,68.7,43.61,68.88ZM43.17,44c0,.1,0,.21,0,.23s.14,0,.18-.15,0-.2,0-.23S43.22,43.87,43.17,44Zm.35,37.59a4,4,0,0,1,.2-.61,9.67,9.67,0,0,0,.64-3.17c0-.56-.07-1-.21-.86a3.25,3.25,0,0,0-.34,1.25,3.27,3.27,0,0,1-.21.81,4,4,0,0,0-.18.86,8,8,0,0,1-.23,1.25c.09.22.19.42.28.63Zm.53-33.05c.11.2.29.23.37.07a.36.36,0,0,1,.23-.15.32.32,0,0,0,.14-.46s.06-.16.17-.3c.24-.3.25-.38.08-.54a.27.27,0,0,0-.46.08c0,.08-.1.15-.15.16a.11.11,0,0,0-.08.19s0,.2-.18.43S44,48.35,44.05,48.51Zm1.71-5.1c.1,0,0-.17-.18-.24s-.17,0-.29.13-.12.2.17.79c.21.41.32.58.41.44a.39.39,0,0,1,0-.24c.08-.17,0-.26-.18-.28s-.16,0-.07-.29A.78.78,0,0,1,45.76,43.41Zm2.46,38.12c.05,0,.14-.06.22-.2s.11-.44-.11-.45S48.09,81.44,48.22,81.53Zm-4.11.8a.23.23,0,0,0-.3,0,.21.21,0,0,0,0,.06c0,.08.07.17.11.24l.14,0Q44.49,82.62,44.11,82.33Zm.8-13.53a1.48,1.48,0,0,0-.28.17,1.56,1.56,0,0,1,.18.21c.15.19.24.15.36-.15S45.19,68.75,44.91,68.8Zm.2,4.45c.29,0,.47-.23.37-.43s-.15-.16-.36,0S44.82,73.28,45.11,73.25Zm-1.18,1.28a.12.12,0,0,0,.11.1.11.11,0,0,0,.1-.11.09.09,0,0,0-.1-.09A.1.1,0,0,0,43.93,74.53ZM39,60.79v.66a.33.33,0,0,0,.2-.3c0-.1,0-.26,0-.35S39.16,60.68,39,60.79ZM50.6,88.9c-.09,0-.11.11-.07.26s.06.19.18.1.14-.07.16,0c.18-.06.08-.5,0-.56s0-.31.08-.36,0-.22-.16-.23c-.31,0-.37.14-.2.46S50.71,88.85,50.6,88.9Zm.86,10c.16,0,.26-.28.12-.31a.82.82,0,0,0-.51.24C51.06,98.9,51.28,99,51.46,98.92Zm-1-20.3a.19.19,0,0,0,.25,0,3,3,0,0,1,.42-.38.93.93,0,0,0-.42.12C50.44,78.47,50.39,78.54,50.48,78.62ZM49,80.91c.18,0,.16-.21,0-.21C48.9,80.88,49,80.92,49,80.91Zm.63-25.55c-.15.16.61,1.1.9,1.11s.17-.25,0-.42C49.84,55.38,49.74,55.3,49.67,55.36ZM47.9,81.2a.51.51,0,0,1-.14.17c-.11.07,0,.15.13.09s.25-.16.22-.27S48,81.06,47.9,81.2Zm.73-36.8c.07-.17-.15-.23-.22.07A.16.16,0,0,0,48.63,44.4Zm-3.22,80.14c.23.17.84-.16.73-.39a.3.3,0,0,1,0-.21c.09-.25-.68-.1-1,.21a2.19,2.19,0,0,1-1.16.55.94.94,0,0,0-.35,0c-.09.05-.22,0-.38-.07s-.47-.09-.37.11.13.1.29.06.24,0,.28.07c.16.3,1.32.13,1.61-.24S45.25,124.41,45.41,124.54Zm7.17-6.65c-.06,0-.13,0,0,.34C52.62,118.07,52.63,117.92,52.58,117.89Zm-.86.53a1.21,1.21,0,0,0,0-.3l-.51.44c.09.11,0,.15-.22.19l-.8.67c.08.2.31.16.73-.15a3.23,3.23,0,0,1,.63-.38C51.68,118.83,51.73,118.72,51.72,118.42Zm-2.81,20.17c0,.13,0,.25.13.21a.14.14,0,0,0,0-.25A.08.08,0,0,0,48.91,138.59Zm.38-30.09c0,.2-.09.39-.1.56.2,0,.23-.08.17-.4C49.34,108.54,49.32,108.49,49.29,108.5ZM50.85,129a.18.18,0,0,0,0,.25c.17.07.28,0,.28-.2S50.93,128.81,50.85,129ZM52.18,122c.1.1.58.26.65.2s.13-.42,0-.45S52.11,121.88,52.18,122ZM56,105.75c-.13,0-.17.27,0,.34s.12,0,.15-.07S56.13,105.79,56,105.75Zm.74,32.5a3.18,3.18,0,0,1-.37.43,1.66,1.66,0,0,0-.17,1.23,1.1,1.1,0,0,1-.07.45,1.94,1.94,0,0,0-.06.67c.2-.65.51-1.58.93-2.84A.36.36,0,0,1,56.75,138.25Zm-1.65-18c-.28.14-.27.7,0,.74a1.16,1.16,0,0,0,.31-.42.55.55,0,0,0,0-.18C55.33,120.18,55.31,120.18,55.1,120.28Zm-1.86,1.31c0,.11.14.44.24.44s.24-.22.15-.35S53.28,121.47,53.24,121.59Zm-12-73.24s.07,0,.13-.17.1-.35,0-.17A.42.42,0,0,0,41.2,48.35ZM38.48,128c-.12-.11-.18-.07-.19,0S38.47,128.05,38.48,128ZM41.62,46.4c0-.36-.23-.42-.57-.16a1.93,1.93,0,0,1-.44.27c-.21.07-.24.23-.06.33s.19,0,.3-.09.2-.14.3-.09A.3.3,0,0,0,41.62,46.4ZM82.34,73.77s-.08-.09-.09-.18-.19-.22-.58,0-.28.15-.13.19a.22.22,0,0,1,.18.16c.18.07.21.28.11.35a.26.26,0,0,0,0,.24.5.5,0,0,1,0,.32c-.06.13-.05.19.06.35a.62.62,0,0,1,.07.66c-.07.09,0,.11.09.14s.25,0,.2-.25c0,0,0-.09.1-.1.31,0,.34-.09.26-.36a.75.75,0,0,1,0-.32s0-.16-.08-.32-.12-.29-.08-.39S82.43,73.8,82.34,73.77ZM38.57,129.86c0,.11,0,.22.16.14C38.76,129.92,38.76,129.81,38.57,129.86Zm5.86,4.88c.12-.25.13-.37,0-.35s-.31.55-.26.62S44.26,135.09,44.43,134.74ZM42.18,48.62a.1.1,0,0,0,0,.15C42.35,48.68,42.27,48.55,42.18,48.62Zm2.38,72.14c-.31-.23-.32-.23-.34,0,0,.48.11.64.57.63S45.07,121.15,44.56,120.76Zm1.32.57a.29.29,0,0,0,0-.31c-.1-.11-.16-.1-.22,0a.31.31,0,0,0,.05.32C45.76,121.46,45.82,121.46,45.88,121.33Zm.13-4.75c-.1.09-.06.23.05.18S46.14,116.67,46,116.58Zm0,.9c.09,0,.15-.08.14-.11S46.1,117.33,46,117.48Z"/><path class="cls-4" d="M41.22,75.79a1.72,1.72,0,0,1,.07.21s0,0,.05-.06Z"/><path class="cls-4" d="M44.54,83.39a.73.73,0,0,0-.23.13l.4.8s0-.11.08-.17C45,83.73,44.88,83.29,44.54,83.39Z"/><path class="cls-4" d="M68.23,15.26c.1.38.25.4.45.07a1.09,1.09,0,0,1,.65-.31c.57-.11.57-.46,0-.39a.49.49,0,0,1-.26,0l-1,.36A.66.66,0,0,1,68.23,15.26Z"/><path class="cls-4" d="M51.8,46.45a.4.4,0,0,0,.07.35c.07.06.16,0,.2-.21s0-.33-.07-.35S51.83,46.32,51.8,46.45Z"/><path class="cls-4" d="M57.9,95.22c0,.16.1.29.18.29S58.27,95.12,57.9,95.22Z"/><path class="cls-4" d="M59.92,86.67c-.23-1.06-.53-2.11-.62-2.36-.21.29-.09,1,.08,1.68s.38,1.91.52,2.77c.22,1.71.53,2.74.59,1.73a7.39,7.39,0,0,0-.08-1.2C60.36,88.93,60.12,87.75,59.92,86.67Z"/><path class="cls-4" d="M57.8,93.16c-.12.15-.12.19.07.59s.58.46.57,0S58,93,57.8,93.16Z"/><path class="cls-4" d="M58.09,80.81c.1,0,.12-.12,0-.36s-.18-.41-.25-.39-.1.18,0,.36A.62.62,0,0,0,58.09,80.81Z"/><path class="cls-4" d="M54.78,89.49c-.14.21-.05.4.17.38a.23.23,0,0,0,.19-.27C55.1,89.34,54.92,89.29,54.78,89.49Z"/><path class="cls-4" d="M63.3,24.72c.07.14.17.24.33.11a1.46,1.46,0,0,0-.26-.45C63.26,24.42,63.23,24.56,63.3,24.72Z"/><path class="cls-4" d="M72.18,16.17c-.22-.14-1.57.13-1.53.31s.5.35,1.12.21S72.56,16.4,72.18,16.17Z"/><path class="cls-4" d="M60.57,92c-.1.08-.08.75.21,2.4A5.42,5.42,0,0,0,60.57,92Z"/><path class="cls-4" d="M72,15.3c-.27.24-.14.47.22.38s.6-.37.45-.52S72.32,15,72,15.3Z"/><path class="cls-4" d="M62.11,25.14c.54,0,.58-.16.35-.27S62.23,24.84,62.11,25.14Z"/><path class="cls-4" d="M55.08,81.88c-.28-.17-.3,0-.25.17C55.09,82.17,55.12,82,55.08,81.88Z"/><path class="cls-4" d="M52,73.66c0,.32.48.52.63.26-.19-.21-.3-.3-.33-.39C52.28,73.27,52,73.37,52,73.66Z"/><path class="cls-4" d="M51.11,51.62c-.44,0-.48,0-.5-.41s-.33-.7-.57-.45-.22.35.14.57c.18.11.32.28.3.38s.12.25.29.34a1.47,1.47,0,0,1,.52.53,2.4,2.4,0,0,0-1.54.26,1.22,1.22,0,0,1,.19.68.41.41,0,0,0,.18.41c.34.16.48.15.5,0s.17-.27.34-.38.32-.2.37,0c.22,1,.51,1,.6-.1C52.05,52.22,51.78,51.62,51.11,51.62Z"/><path class="cls-4" d="M50.56,46.65a.37.37,0,0,0,.21-.26C50.28,46.58,50.28,46.73,50.56,46.65Z"/><path class="cls-4" d="M50.27,50.31c.25,0,.46-.5.3-.72a.31.31,0,0,0-.3-.09C50,49.59,50,50.27,50.27,50.31Z"/><path class="cls-4" d="M51.05,44.34a1,1,0,0,0-.15-.43C50.89,44.2,51,44.32,51.05,44.34Z"/><path class="cls-4" d="M52.91,31.84a.34.34,0,0,0-.23-.25c-.2,0-.33.1-.25.26S53,32.07,52.91,31.84Z"/><path class="cls-4" d="M51.71,38.33c-.16.32,0,.5.22.36s.22-.55.06-.62S51.8,38.16,51.71,38.33Z"/><path class="cls-4" d="M50.59,72.45c.34,0,.46,0,.49-.13C50.69,72.29,50.57,72.38,50.59,72.45Z"/><path class="cls-4" d="M52.86,81.37a12.66,12.66,0,0,0,.56,2.52,23.06,23.06,0,0,0,.78,2.72c.36.3.4,0,.06-1.6C53.68,82.48,53.12,81.31,52.86,81.37Z"/><path class="cls-4" d="M49.19,127.58A27.56,27.56,0,0,0,51,125.4c.65-.83,1.36-1.8,2.18-3a53.36,53.36,0,0,0,4.26-7.83,40.76,40.76,0,0,0,3-9.24,37.45,37.45,0,0,0,.51-5.29c.11-2.4,0-3.06-.18-3.07a4.58,4.58,0,0,0-.17,1.18c-.09.71-.19,1.68-.29,2.73,0,.6-.23,1.88-.38,2.65a9.26,9.26,0,0,0-.23,2.15,1.53,1.53,0,0,1-.24,1.2,5.19,5.19,0,0,0-.55,2.25,1.17,1.17,0,0,1-.22.61,8,8,0,0,0-.54,1.52,14.48,14.48,0,0,1-1,2.53c-.66,1.3-.68,1.31-1,1.13a2.44,2.44,0,0,0-.56-.22c-.17,0-.16-.19,0-.71s.29-.67.55-.64.54-.27.51-.72a1.9,1.9,0,0,1,.34-.84,1.48,1.48,0,0,0,.3-1.1c-.06-.42,0-.55.22-.77s.28-.61-.07-.82a1.31,1.31,0,0,1-.3-1.21c.1-.33.34-.31.58,0s.55.24.66-.14c.07-.22,0-.38-.27-.51s-.34-.25-.16-1c.23-1.16-.26-2.08-.52-1A1.45,1.45,0,0,1,57,106a.85.85,0,0,0-.33.67c-.05.43-.1.49-.34.41s-.43.11-.15.54.18.38-.07.65-.57.21-.51-.42a1.41,1.41,0,0,0-.15-.81,1.42,1.42,0,0,1-.14-.79c.17-1.54.12-1.73-.25-1.89s-.3-.47.1-.36c.13,0,.4-.15.6-.42s.42-.45.68-.3.4.1.61-.14c.37-.49.79-.23.74.48s.37,1.07.48.52c.24-.09.23.1.15.24.11.32.21,0,.29-.69.13-1.14-.29-2.11-.78-2-.28.07-.47-.48-.43-1,.1-1.19.09-1.42-.09-1.63s-.25-.17-.53.18c-.45.57-.63.49-.87-.36A7.38,7.38,0,0,1,56,96a.91.91,0,0,0,0-1.17c-.27-.27-.29-.43-.23-1.45.12-1.64-.18-2-.72-1.36-.24.28-.26.28-.41,0a.51.51,0,0,0-.38-.27c-.16,0-.2-.13-.17-.65a1.42,1.42,0,0,0-.13-.87c-.15-.16-.15-.26,0-.43s.15-.29,0-.54a.79.79,0,0,1-.09-.71c.13-.51.66-.64.72-.16a.61.61,0,0,0,.21.4c.09.06.1-.3,0-1s-.21-.9-.23-.62-.12.43-.55.51c-.59.11-.6.1-.51-.66a.86.86,0,0,0-.11-.71,10.06,10.06,0,0,1-.52-1.73c-.26-1.11-.45-1.56-.6-1.61s-.18-.16,0-.45.16-.39-.23-.74-.44-.5-.59-1.22a1.9,1.9,0,0,0-.41-1c-.17-.12-.21-.21-.13-.36a.74.74,0,0,0-.08-.56c-.22-.41-.2-1.18,0-1.25s.18.1.21.28c.07.39.78,1.28,1,1.22s.14-.51-.05-1.16c-1.06-3.62-1.16-4.06-1.52-4s-.62-.54-.48-1a1.82,1.82,0,0,0-.13-1,5.52,5.52,0,0,1-.41-2.46,2.26,2.26,0,0,1,.3.31.43.43,0,0,0,.48.16,5.73,5.73,0,0,1,.73-.17c.48-.08.58-.29.23-.49a1,1,0,0,1-.25-.6c-.07-.66-.37-.81-.91-.45-.37.25-.8.4-.81.27s-.06-.13-.12-.24,0-.2.33-.24c.62-.08,1.49-1,1.25-1.23a3.52,3.52,0,0,1-.33-1.88c.07-.1.19-.09.44,0,.44.21.74.19.9,0s.15-.15.39,0,.21.51-.19.54a.63.63,0,0,0-.44.26c-.19.31,0,.52.23.33s.69-.07.62.26a.54.54,0,0,0,.16.48,1.08,1.08,0,0,1,.17,1.18c-.11.35-.1.41.38.65s.5.31.45.59A1.09,1.09,0,0,0,53.69,70a2.38,2.38,0,0,1,.45,1.11,2.22,2.22,0,0,0,.35.9,5,5,0,0,1,.65,1.81,1,1,0,0,0,.26.48,14,14,0,0,1,.93,2,15.37,15.37,0,0,0,1,2.33,6.9,6.9,0,0,0-.57-2l-.62-1.8-.41-1.23c-.2-.62-.82-2.24-1.25-3.67-.26-.73-.4-1.43-.59-2s-.25-1-.32-1.28a10.56,10.56,0,0,1-.38-1.84,16.79,16.79,0,0,0-.89-4.5c-.13-.39-.36-.4-.59,0s-.41.4-.5.07a3.65,3.65,0,0,0-.23-.59,1.21,1.21,0,0,1,0-.8c.16-.52.46-.66.5-.22s.42.67.59.53a4.53,4.53,0,0,0,0-2.61,2.57,2.57,0,0,1-.19-.92c0-.6-.08-.74-.31-.78-.76-.11-.89-.16-1.13-.4a1.08,1.08,0,0,0-.61-.31c-.2,0-.35-.1-.34-.17a.78.78,0,0,0-.09-.33,3.73,3.73,0,0,1-.11-1,2.4,2.4,0,0,0-.2-1.09c-.26-.36-.19-.59.15-.54s.38-.09.21-.92c-.08-.42-.07-.63,0-.65s.31-.5.14-.53a.47.47,0,0,1-.31-.77c.21-.27.22-.37.06-.6s-.12-.41,0-.8c.34-.93.14-2.35-.41-2.59.65-.24.78-.58.57-1.28-.15-.49-.15-.52.21-.84s.36-.36.27-.55a.55.55,0,0,1,.09-.5.38.38,0,0,0,.08-.4.4.4,0,0,1,0-.36,2,2,0,0,0-.2-1.17c0-.06.09-.24.3-.38.38-.24.37-.27.28-.68a1.6,1.6,0,0,1,.1-.88,5.49,5.49,0,0,0,.26-.7c.05-.16.19-.23.43-.2.44.05.47,0,.22-.48s-.16-.45.1-.79.47-1.13.21-1.3c.6-.08.63-.63.22-.85-.23-.12-.25-.21-.08-.53s.14-.42,0-.5c-.52-.26,0-.92,1.13-1.3a.5.5,0,0,0,.29-.28.31.31,0,0,0-.39-.38c-.14-.35-.05-.39.25-.28.57.19.82-.2.4-.6-.22-.21-.28-.36-.19-.49s.18-.13.32,0a1,1,0,0,0,.62.19c.23,0,.41.05.42.11s.22.05.49,0c.69-.16.87-.86.24-.89-.38,0-.39,0-.37-.41a1.23,1.23,0,0,0-.08-.53c.22-.26.31-.42.3-.56.34-.2.47.32.32.53s-.11.26-.05.32.27,0,.26-.26a.73.73,0,0,1,.32-.51c.29-.22.3-.31.15-.74s-.09-.68.41-.58c.26,0,.34,0,.37-.16s.22-.39.28-.11.34.41.43,0,.29-.48,1-.92c1.57-.87,1.79-.87,2-.35.15.3.27.41.39.36.41.39.77-.13,1-.94.31-1,.52-1.18.69-.76a.72.72,0,0,0,.58.32c.65.09.68.06.5-.45-.34-.93-.48-1.48-.39-1.51a4,4,0,0,0-.24-.8c-.29-.72-.34-.76-.67-.68s-.83-.33-.6-.68a.38.38,0,0,0,0-.38c-.27-.41.21-.32.54.1s.45.46.55.42c.29-.11.74.21.88.62.07.21.21.41.3.43a.43.43,0,0,1,.24.28,1.94,1.94,0,0,0,.56.58c.43.32.46.33.51,0a1.06,1.06,0,0,0-.11-.56.47.47,0,0,1,0-.5.69.69,0,0,0,.07-.48c-.16-.49.11-.9.47-.72s.53.06,1.46-.23c1.12-.37,1.15-.39,1-.7s0-.42.26-.7.31-.38.16-.39a1.91,1.91,0,0,1-.61-.21c-.31-.17-.49-.15-1,.08s-.62.29-.45.71.16.42-.58.67c-1,.34-1.28.27-1.49-.39a1.26,1.26,0,0,0-.71-.82c-1.4.65-2.78,1.34-4.12,2.11C42.18,28.93,40.14,44,39.08,57.68a46.88,46.88,0,0,0,1.16,14.54l.13,0c.43.16.43.4,0,.48.2.89.44,1.76.7,2.61l.11-.15a2,2,0,0,1,.33-.3c.19,0,.43.55.33.78s0,.27.17.38.29.28.32.65a1.46,1.46,0,0,0,.38.88,2.48,2.48,0,0,1,.47.81c.07.24.19.45.26.47A4.35,4.35,0,0,1,44,80c.31.83.79,2.14,1.44,4.09a4,4,0,0,0,.49,1.07c.31.31.41,1.49.17,1.64.16.32.34.63.51.92.23.11.44.41.36.61.27.23.33.31.25.43.27.44.53.85.77,1.25,5.5,8.7.21,18.26-1.33,22.26s-9.13,17-9.13,17a18.57,18.57,0,0,0,3.3,5,34.16,34.16,0,0,0,4.2-2.85A38.64,38.64,0,0,0,49.19,127.58Zm7-25.24c0,.1-.06.26-.2.36C55.82,102.26,56.08,102.09,56.16,102.34ZM54.5,117.42c-.21.06-.26,0-.23-.2.06-.42.21-.53.51-.38S54.83,117.32,54.5,117.42ZM54.36,113c-.34-.08-.1-.5.31-.55.2,0,.37,0,.4.08S54.63,113,54.36,113Zm.67-2.76c.2-1,.47-1.32.74-.77a.94.94,0,0,1-.5,1.14C54.94,110.71,54.92,110.69,55,110.19Zm-.24-15.86c.06-.53.19-.57.51-.15a.45.45,0,0,1,.11.54c-.16.32-.22,1.31,0,1.32s.1.52.06,1.16a6.1,6.1,0,0,1-.18,1.13c-.2,0-.32-.7-.28-1.47a2,2,0,0,0-.12-1C54.67,95.64,54.69,95.24,54.79,94.33Zm0,14.37c.19.17.26.74.1.82s-.2,0-.3-.1S54.53,108.51,54.74,108.7ZM54,111.47c.14-.36.19-.37.7-.11s.73,1,.17.75a.64.64,0,0,0-.47,0A.37.37,0,0,1,54,112,.55.55,0,0,1,54,111.47Zm-.89,2.84c.22-.13.29-.11.4.13.2.42,0,.65-.34.47S52.72,114.52,53.07,114.31ZM49.79,58.9c.36-.1.45.07.44.8s-.12.89-.48.55S49.43,59,49.79,58.9Zm.67,2.69c-.13.37-.3.43-.42.12s-.11-.26.16-.45S50.59,61.18,50.46,61.59Zm.69.85a.81.81,0,0,0,.57.08c.34-.07.35-.05.26.39-.17.81-.64,1.18-.75.57-.14-.88-.34-1.06-.51-.4a.58.58,0,0,0,.11.6c.36.32,0,.71-.56.53-.35-.13-.38-.18-.36-1.08s.24-1.26.52-.83a.28.28,0,0,0,.3.05A.58.58,0,0,1,51.15,62.44ZM49.9,55.77c.24,0,.25,0,.1.34-.06.12-.17.21-.24.2s-.12-.13-.1-.29A.25.25,0,0,1,49.9,55.77Zm-.33,1.39c.28-.22.49-.17.76.17s.45.38.54,0,.37-.42.61,0,.18.4,0,.63-.26.21-.32.11-.35-.21-.37,0c0,.48-.53.61-.92.24S49.3,57.38,49.57,57.16Zm-7.85,1.23a.45.45,0,0,1-.79.21c-.34-.34-.19-1.06.21-1A.62.62,0,0,1,41.72,58.39Zm4.06,23.25c-.47.24-.67,0-.85-1-.11-.62-.24-1-.36-1.09a1.25,1.25,0,0,1-.24-.67c-.07-.47.16-.61.5-.3S46.06,81.5,45.78,81.64Zm0-2.41c0-.19,0-.34.13-.34.27,0,.51.67.3.84S45.89,79.71,45.82,79.23Zm1,1.61c-.07.07-.25,0-.4-.07-.39-.29-.4-.43,0-.35S46.94,80.66,46.79,80.84Zm2.52.1c.94.52.95.55.46.62S49.07,81.31,49.31,80.94Zm1,11.76c-.09-.28-.19-.64-.24-.8-.11-.38,0-1,.13-1s.32.55.31,1.33C50.48,93.23,50.46,93.27,50.3,92.7Zm-4.95,32.52c.47-.69,1.11-.64,1.22.13,0,.41,0,.42-.39.48a1.33,1.33,0,0,1-.74-.14C45.22,125.54,45.2,125.43,45.35,125.22Z"/><path class="cls-4" d="M52.48,36.24c-.33.09-.36.13-.27.36s.63.19.71-.17S52.93,36.11,52.48,36.24Z"/><path class="cls-4" d="M56.59,27.21c-.2.27,0,.59.26.41A.58.58,0,0,0,57,27C56.89,26.84,56.81,26.89,56.59,27.21Z"/><path class="cls-5" d="M117.2,59.37l-1.35.06c-1.19.07-2.82.21-4.76.51-.34,0-.7.09-1.06.16a56.71,56.71,0,0,0-5.55,1.21c-.34.09-.68.18-1,.29-1.52.43-3.12,1-4.76,1.6a56.07,56.07,0,0,0-8.39,4c-6.42,3.79-16.16,5-24.86,3.37q-1.57-.3-3.09-.72a29.12,29.12,0,0,1-7.75-3.3A20.69,20.69,0,0,1,52,64.7a16.94,16.94,0,0,1-4-4.94,18.5,18.5,0,0,1-2-5.9,21.59,21.59,0,0,1,.93-10,36.56,36.56,0,0,1,7.37-12.54,41.6,41.6,0,0,1,6.12-5.78c.44-.34.9-.67,1.39-1,9.45-6.15,27.94-8.74,42.52-1.91.58.26,1.16.54,1.73.85a23.3,23.3,0,0,1,2.61,1.6,28.11,28.11,0,0,1,8,8.67,35.23,35.23,0,0,1,2.23,4.36,45.43,45.43,0,0,1,3.55,14.71S123.22,59.19,117.2,59.37Z"/><path class="cls-6" d="M112.05,30.53c-.17,0-.13.27.06.36s.17,0,.18,0A.35.35,0,0,0,112.05,30.53Z"/><path class="cls-6" d="M115.44,36.94c.09.25.33.55.43.53s0-.11-.17-.52S115.31,36.59,115.44,36.94Z"/><path class="cls-6" d="M117,43.86c0,.62.08.73.15.52S117.14,44.15,117,43.86Z"/><path class="cls-6" d="M99.41,25.45a1.91,1.91,0,0,0,.46,0C99.54,25.38,99.42,25.41,99.41,25.45Z"/><path class="cls-6" d="M117.18,45.37c-.08,0-.14.07-.07.29,0,0,.08,0,.25-.06C117.34,45.46,117.26,45.36,117.18,45.37Z"/><path class="cls-6" d="M107.76,28.11c-.29-.05-.12.31.24.51s.31.14.14-.2S108,28.14,107.76,28.11Z"/><path class="cls-6" d="M106,27.17c-.35-.19-.52-.19-.34,0s.6.31.65.24S106.14,27.29,106,27.17Z"/><path class="cls-6" d="M121.09,57.42c-.08,0-.18.16-.27.37C121.2,57.66,121.26,57.42,121.09,57.42Z"/><path class="cls-6" d="M122.16,50.89s0,0,.06,0c0-.3-.08-.64-.13-1C121.87,50.52,121.9,51,122.16,50.89Z"/><path class="cls-6" d="M119.44,57c-.2.69-.22.82,0,.59a3.76,3.76,0,0,0,.46-1.54C119.8,56,119.61,56.4,119.44,57Z"/><path class="cls-6" d="M119.63,57.87c-.11.35-.11.7,0,.63s.2-.26.23-.67S119.76,57.5,119.63,57.87Z"/><path class="cls-6" d="M121.12,55.55c.13-.5.26-.36.27.33s.17.7.23,0a1.29,1.29,0,0,1,.11-.49,2,2,0,0,0,.27-.53,1.73,1.73,0,0,0,.15-.77,1.51,1.51,0,0,1,0-.45.48.48,0,0,0-.43.53c0,1-.06,1.18-.16,1.15s-.07-.26-.06-.61c0-.61,0-.86-.13-.62a.19.19,0,0,1-.24.1c-.19-.05-.24.09-.14.42a2,2,0,0,1-.06.77C120.81,56,121,56.15,121.12,55.55Z"/><path class="cls-6" d="M91.49,24.54a.71.71,0,0,1-.41.16.52.52,0,0,0-.37.14,1.59,1.59,0,0,1-.58.25c.07-.24,0-.38-.36-.76a2.74,2.74,0,0,1-.75.1.71.71,0,0,0-.44.1c-.17.17-.15.24.07.25a1.08,1.08,0,0,1,.44.16c.24.15.23.16,0,.19-1.14.13-1.06.27.14.3,1.39,0,2.06-.08,2-.42s0-.24.44-.25.77-.15.48-.28A.5.5,0,0,0,91.49,24.54Z"/><path class="cls-6" d="M55.15,38.41c-.16.08-.24.24-.15.31s.14,0,.21-.1S55.31,38.33,55.15,38.41Z"/><path class="cls-6" d="M54.67,41.9c-.1.07-.11.1-.17.43s.11.45.25.14S54.8,41.8,54.67,41.9Z"/><path class="cls-6" d="M58.38,38.31c-.29.37-.79,1.1-1.13,1.61-.64,1-.91,1.68-.49,1.14a4.72,4.72,0,0,0,.45-.68,17.49,17.49,0,0,1,1-1.51c.44-.61.9-1.22,1-1.37C59,37.54,58.65,37.93,58.38,38.31Z"/><path class="cls-6" d="M55.57,43.46a6.43,6.43,0,0,0,.66-1.5A4,4,0,0,0,55.57,43.46Z"/><path class="cls-6" d="M97.12,25.59a.8.8,0,0,0-.39,0c-.06,0,0,.08.26.12s.36,0,.38,0S97.27,25.62,97.12,25.59Z"/><path class="cls-6" d="M66.64,29.48c.25-.13.17-.24-.1-.14s-.53.47-.3.47A2.22,2.22,0,0,1,66.64,29.48Z"/><path class="cls-6" d="M54,43.36c0,.12,0,.24,0,.25S54.24,43.36,54,43.36Z"/><path class="cls-6" d="M69.73,69.19c-1.18-.43-2.33-.92-3-1.21a26.59,26.59,0,0,1-4.35-2.27,16,16,0,0,1-1.8-1.29,14.3,14.3,0,0,1-2-2,17.29,17.29,0,0,1-3.19-5.64,20.51,20.51,0,0,1-1.07-6.45c0-.45,0-1,0-1.63s.12-1.18.21-1.63.14-.72.19-1l.16-.63c.07-.32.07-.43,0-.45a4.31,4.31,0,0,0-.3.76,14.86,14.86,0,0,0-.46,1.84c-.07.44-.2,1.18-.22,1.66a3.88,3.88,0,0,0,0,1.36,1.73,1.73,0,0,1,0,.8A3.39,3.39,0,0,0,54.22,53a1.24,1.24,0,0,1,.05.45,3.66,3.66,0,0,0,.2,1.12c.1.47.36,1.31.5,1.9.32,1,.31,1,.13,1.07a.66.66,0,0,0-.28.12c-.06.06-.13,0-.29-.45s-.2-.53-.09-.62.1-.38-.09-.66a2,2,0,0,1-.18-.65,1.59,1.59,0,0,0-.22-.82c-.15-.26-.19-.36-.14-.58s0-.48-.24-.53-.39-.45-.42-.76.1-.29.27-.1.3,0,.29-.25a.27.27,0,0,0-.22-.28c-.18-.05-.21-.11-.26-.66,0-.82-.36-1.42-.37-.63a1.41,1.41,0,0,1-.12.61.78.78,0,0,0,0,.55c0,.32,0,.38-.09.38s-.18.18,0,.43a.45.45,0,0,1,.12.49c-.06.39-.19.32-.33-.17a2.3,2.3,0,0,0-.24-.58,1.57,1.57,0,0,1-.21-.58c-.18-1.25-.16-1.39-.38-1.46s-.2-.34,0-.31.18-.17.28-.39.19-.38.33-.29.2,0,.29-.14c.18-.37.39-.21.39.28s.24.7.26.32c.12-.08.11,0,.09.14s.09,0,.11-.47a2.7,2.7,0,0,0-.11-1c-.07-.24-.17-.39-.3-.35s-.21-.32-.15-.75c.16-.92.23-1.09.15-1.28s-.1-.16-.28.1c-.31.42-.39.36-.38-.36a6.27,6.27,0,0,1,.64-2.36,1.3,1.3,0,0,0,.35-.92c0-.26,0-.39.43-1.15.71-1.17.79-1.52.28-1.23-.22.13-.23.12-.17-.13s0-.29,0-.32,0-.17.26-.54a2,2,0,0,0,.39-.69.33.33,0,0,1,.24-.3c.14-.06.21-.15.3-.37a1.14,1.14,0,0,1,.37-.53c.32-.28.55-.12.31.21a.8.8,0,0,0-.16.35c0,.08.18-.16.53-.62s.48-.63.31-.47-.3.21-.46.06-.22-.21.27-.64a1.75,1.75,0,0,0,.42-.49,9.15,9.15,0,0,1,1.06-1.26,8.11,8.11,0,0,0,1.07-1.19c0-.12.09-.18.33-.25s.3-.1.52-.5a3.05,3.05,0,0,1,.93-.91,3.94,3.94,0,0,0,.83-.69.39.39,0,0,1,.3-.23,1.53,1.53,0,0,0,.47-.29c.35-.29,1-.6,1.08-.49s-.09.15-.25.24c-.35.2-1.1,1-1,1.08s.42-.15,1-.5c1.57-1.05,2.55-1.55,3.1-1.87s.7-.43.69-.52.58-.55,1.06-.62a4.38,4.38,0,0,0,1-.4,11.37,11.37,0,0,1,2.68-.95l-.36.24c-.19.12-.27.24-.22.31a1.28,1.28,0,0,1,.11.36c0,.25.26.24.53,0a2.56,2.56,0,0,1,.69-.31c.76-.22,1-.42.6-.62s-.39-.33-.25-.36l.28-.13c.17-.08.22-.06.25.11s1,.56,1.34.37a9.14,9.14,0,0,1,2.27-.63c.12,0,.11.08,0,.24s-.26.43,0,.45.19,0,0,.19-.64.24-.66,0-.14-.16-.3-.17c-.36,0-.64.11-.41.19s0,.34-.37.4a2,2,0,0,0-.62.22,3.28,3.28,0,0,1-1.41.41.94.94,0,0,0-.8.4,1.13,1.13,0,0,1-.73.43,2.9,2.9,0,0,0-1.26.53,8.74,8.74,0,0,1-1.26.64,4,4,0,0,0-.94.5,16.91,16.91,0,0,1-1.77,1,1.75,1.75,0,0,0-.45.32c0,.08-.84.61-1.7,1.26a12.57,12.57,0,0,0-1.66,1.43,13,13,0,0,0,1.41-1c.92-.69,2.07-1.41,2.51-1.67a39,39,0,0,1,3.78-2c1.65-.76,3.39-1.32,3.95-1.52s1.57-.51,2.37-.69c2.75-.65,3.74-.8,5.32-1.26.43-.11.42-.22,0-.29s-.46-.16-.1-.24c.14,0,.43-.12.65-.19a2.42,2.42,0,0,1,.87-.1c.56,0,.71.17.25.23s-.72.27-.56.34a11.47,11.47,0,0,0,2.8-.2,4.9,4.9,0,0,1,1-.14c.66,0,.81-.08.84-.19.1-.38.15-.45.41-.57s.3-.22.31-.32a.21.21,0,0,1,.18-.18,1.24,1.24,0,0,0,.36,0,9.65,9.65,0,0,1,1.13-.06A7.64,7.64,0,0,0,91,24c.39-.12.64-.09.61.08s.13.18,1,.12c.46,0,.7,0,.73,0s.59.18.61.1.47-.27.84-.13a.84.84,0,0,0,.66.07,1.86,1.86,0,0,1,.9.07c1.07.23,2.63.31,2.84.06a1.69,1.69,0,0,0,1.46.47,1.1,1.1,0,0,1,.93.27.92.92,0,0,0,.63.24,1.3,1.3,0,0,1,.55.16.86.86,0,0,0,.43.13.75.75,0,0,1,.39.06,3.43,3.43,0,0,0,1.2.18,1.19,1.19,0,0,1,.43.29,1,1,0,0,0,.73.37,4,4,0,0,1,.92.34l.71.43a.39.39,0,0,1,.26.32c0,.26.06.31.49.34a1,1,0,0,1,.74.4,4.17,4.17,0,0,0,.73.54c.23.16.43.25.49.2.13.45.62.75.77.58s.16-.07.45.21.36.33.42.27c.18-.24.76.46,1.13,1.59a1.55,1.55,0,0,0,.23.4c.19.2.36.15.27-.08.27.1.29.19.23.38s.21.78.48.68.24,0,.34.15.1.23,0,.26-.12.22-.11.42,0,.34-.06.3,0,.16,0,.44c.16.73.63,1.37.63.79,0-.35,0-.35.27-.09a.85.85,0,0,0,.35.25,2,2,0,0,0,.37.62c.14.43-.19.25-.34,0s-.17-.25-.21-.24,0,.23.18.41a1.66,1.66,0,0,1,.34.61c.13.4.19.47.46.58s.42.3.36.73a.49.49,0,0,0,.09.44c.2.23.24.44.07.35s-.25.1,0,.39a4.73,4.73,0,0,1,.53,1.56c.47,2,.45,2.28.16,2.29s-.23.09-.2.24c-.22.24,0,.9.48,1.54s.61,1.06.38,1.06c-.08,0-.17.19-.2.47-.09.64-.07.69.2.71.51,0,.8.12.8.21a1.18,1.18,0,0,0,.43.09c.39,0,.42,0,.41-.42s.21-.69.38-.33c.07.13.15.22.2.2.23-.11.14.33-.1.5a.55.55,0,0,0-.26.38c0,.35-.17.67-.39.66a.22.22,0,0,0-.24.13.2.2,0,0,1-.17.14c-.07,0-.23.15-.35.33s-.21.35-.07.51a.28.28,0,0,0,.29.1c.08,0,.18,0,.24.19s.15.25.21.26c.26,0,.42.45.29.75a4.75,4.75,0,0,0-.16,1.55c-.07,1.24-.09,1.27.08,1.28s.19.14.24.52.09.46.13.32a2,2,0,0,1,.25-.51,1.66,1.66,0,0,0,.21-1c0-.71,0-.73-.23-.73s-.22,0-.21-.83c0-1.13.06-1.39.42-1.35s.34-.08.64-.71a2.3,2.3,0,0,1,.49-.76,46.61,46.61,0,0,0-3.1-10.72,35.23,35.23,0,0,0-2.23-4.36,28.11,28.11,0,0,0-8-8.67,23.3,23.3,0,0,0-2.61-1.6c-.57-.31-1.15-.59-1.73-.85a46.83,46.83,0,0,0-22.6-3.94l.06,0c.36.23.19.38-.49.44s-1-.07-.56-.35l.13-.06c-.63.05-1.25.11-1.87.18a.51.51,0,0,1-.33.13c-.12,0-.2,0-.22-.07-6.56.83-12.48,2.84-16.64,5.55-.49.31-.95.64-1.39,1a41.6,41.6,0,0,0-6.12,5.78,36.56,36.56,0,0,0-7.37,12.54,21.59,21.59,0,0,0-.93,10,18.5,18.5,0,0,0,2,5.9,16.94,16.94,0,0,0,4,4.94,20.69,20.69,0,0,0,2.61,1.89,29.12,29.12,0,0,0,7.75,3.3q1.51.42,3.09.72a42.24,42.24,0,0,0,10.59.6c-1.16-.35-1.92-.6-3.19-1C72.12,70,70.91,69.62,69.73,69.19ZM86.26,24.38c.17,0,.29,0,.28.11s0,.12-.37.06c-.12,0-.22-.08-.22-.11S86.1,24.37,86.26,24.38ZM85,24.4c.24.12.2.23-.16.39s-.4.25,0,.27.47.15,0,.3a.82.82,0,0,1-.68,0c-.18-.06-.23-.12-.13-.15s.21-.19,0-.18c-.51,0-.67-.22-.28-.44A1.61,1.61,0,0,1,85,24.4Zm-1.84-4.2c.35-.21,1.13-.18,1.11,0s-.39.36-.87.36S82.89,20.37,83.19,20.2ZM81.7,24.77c.35-.22,1.35-.3,1.47-.12s-.06.22-.85.3S81.34,25,81.7,24.77Zm-1.11.36c.25.12.12.18-.35.17s-.49-.08-.15-.19S80.39,25,80.59,25.13Zm-.66-6c.15.05,0,.17-.31.2s-.24,0-.23-.08S79.74,19.08,79.93,19.15Zm-2.71,6.52c.16-.2.21-.25,1.25-.39s1.44-.09,1,.12a.1.1,0,0,0-.06.16c0,.05,0,.15-.09.23a.24.24,0,0,0-.09.3c.09.15.07.16-.44.19-1,0-1.4-.08-.68-.27,1-.23,1.22-.36.46-.33a1.37,1.37,0,0,0-.69.16C77.46,26.09,77,26,77.22,25.67ZM68.8,22.11c.36-.12.39-.1.2.17s-.43.33-.47.12S68.57,22.18,68.8,22.11Zm-17,17.13c.11-.29.28-.65.36-.81.19-.38.56-.86.62-.81s-.21.61-.66,1.28C51.64,39.78,51.6,39.82,51.84,39.24ZM52,49c-.08-.33.05-.47.09-.28A.36.36,0,0,1,52,49Zm1.12-6.57a2.11,2.11,0,0,0-.44,1,5,5,0,0,1-.29,1c-.17.52-.34.93-.34.93s0-.64.2-1.29a2.85,2.85,0,0,0,.26-.89A2.41,2.41,0,0,1,53,42c.23-.4.29-.39.28,0A.63.63,0,0,1,53.09,42.43ZM59.65,31.2c-.07-.23.19-.55.51-.58C59.75,31.43,59.74,31.45,59.65,31.2Zm1-2.61c-.1.29-.24.48-.39.47s0-.13.06-.28C60.59,28.4,60.74,28.34,60.65,28.59Zm.64-.37c-.14,0,0-.23.48-.48.18-.1.32-.12.31-.06S61.43,28.28,61.29,28.22Zm1.21-1.36a23,23,0,0,1-3,2c-.21-.16,0-.44,1-1a5.41,5.41,0,0,0,1-.71,3.13,3.13,0,0,1,.66-.42C62.7,26.44,62.81,26.53,62.5,26.86Zm-14.71,20a.93.93,0,0,1-.11-.5c0-.22.06-.21.15,0C48,46.89,48,47.21,47.79,46.89ZM51,38.11a3,3,0,0,0-.79,1.45,7.05,7.05,0,0,1-.44,1.09,3.59,3.59,0,0,0-.36.91,1.06,1.06,0,0,1-.25.63.63.63,0,0,0-.18.45,14.7,14.7,0,0,1-.46,1.65,7.91,7.91,0,0,1-.49,1.44c-.07,0-.13-.08-.13-.27a9,9,0,0,0-.09-1,5.85,5.85,0,0,1,.23-1.76,16.4,16.4,0,0,1,1.2-2.84c.37-.74.5-.92.49-1.14s.05-.34.32-.72c.74-.93,1.18-1.81,1-2s0-.18,0-.3.2-.17.25-.12.39-.13.57-.5a1,1,0,0,1,.4-.4c.19-.11.28-.21.3-.31a.68.68,0,0,1,.24-.36,5.12,5.12,0,0,0,.48-.73,1.64,1.64,0,0,1,.54-.67c.42-.57.54-.6.59-.54a.18.18,0,0,0,.23,0,1.84,1.84,0,0,1,.49-.92,8,8,0,0,0,.62-.64,2.63,2.63,0,0,1,1.42-1c.39-.11.8-.45.71-.61a.19.19,0,0,0-.23-.05c-.64.29.2-.74,1.25-1.37.41-.28.84-.54,1.27-.84l1.33-1a14.79,14.79,0,0,1,2.34-1.46c.74-.34,1.3-.54,1.39-.46.47-.35.49-.34.74-.31a1,1,0,0,1,.26.1c0,.1-.57.4-.79.42a.54.54,0,0,0-.39.23,1.41,1.41,0,0,1-.66.4,2.8,2.8,0,0,0-.89.54,6.06,6.06,0,0,1-.82.57,1.81,1.81,0,0,0-.48.36,13,13,0,0,1-1.15.81,37.44,37.44,0,0,0-3.84,3,9,9,0,0,0-.94,1c-.28.36-1.26,1.3-1.43,1.27s-.82.71-.71.84-.2.69-.43.84c-.16.44-.2.48-.38.55a.61.61,0,0,0-.46.57c0,.16-.11.29-.36.6a8.59,8.59,0,0,0-.82,1.3C51.36,37.76,51.29,37.87,51,38.11Zm1.38,16.4c-.16-.08-.26-.68-.12-.61a.93.93,0,0,1,.28.59S52.48,54.55,52.41,54.51Zm.52-.38a1.12,1.12,0,0,1,.17,1c-.09.22-.1.22-.23-.18C52.61,54.14,52.68,53.81,52.93,54.13Zm.39,2.41a.14.14,0,0,1-.18.11.89.89,0,0,1-.23-.4c-.08-.31-.07-.34.23-.35s.65.4.35.46A.24.24,0,0,0,53.32,56.54Zm.35.58c-.15.1-.26-.3-.12-.51s.14-.13.18-.09A.63.63,0,0,1,53.67,57.12ZM54.22,59c-.21.07-.32-.05-.33-.35s0-.2.19-.1S54.42,58.89,54.22,59Zm1.51.77c-.21-.25-.23-.38-.07-.44s.26.22.23.43S55.84,59.84,55.73,59.72Zm5.88,8c-.07.11-.17.11-.39,0-.71-.38-.75-.76-.14-.7.33,0,.33,0,.48.29A.48.48,0,0,1,61.61,67.68Z"/><path class="cls-6" d="M68,28.33c.08-.23,0-.27-.07-.24C67.79,28.3,67.87,28.34,68,28.33Z"/><path class="cls-6" d="M92.64,24.61c0,.12.59.24.83.16s.13-.09.08-.14S92.67,24.48,92.64,24.61Z"/><path class="cls-6" d="M97.1,25.07c-.26-.27-.44-.28-.32-.13A.6.6,0,0,0,97.1,25.07Z"/><path class="cls-6" d="M59.73,34.27c0,.2.07.14.15.06S59.85,34.16,59.73,34.27Z"/><path class="cls-6" d="M61,35.45c0,.06.09,0,.23-.11s.23-.26.21-.29-.13,0-.23.11A.73.73,0,0,0,61,35.45Z"/><path class="cls-6" d="M58.25,34.43a14.48,14.48,0,0,0-1.62,1.9c-.08.36.1.15,1-.87C59.19,33.82,60.08,33,60,32.88a2.75,2.75,0,0,0-.57.45A14,14,0,0,0,58.25,34.43Z"/><path class="cls-1" d="M10.79,73.55a11.05,11.05,0,0,1-6.41,2.09,3,3,0,0,1-1.55-.44,2.82,2.82,0,0,1-1-1.81c-.5-2.69,1.14-5.3,3-7.32s4-3.87,5-6.41c.92-2.37.69-5,1.2-7.51S13.24,47,15.78,47c5.39-.08,6.09,8.51,5.24,12.19A24,24,0,0,1,10.79,73.55Z"/><path class="cls-1" d="M118,141.5c1.6-1.4,3.37-2.8,5.48-3.05s4.56,1.12,4.67,3.24c.13,2.48-2.61,4-4,6-1.65,2.34-1.58,5.58-3.27,7.9-2.35,3.22-10,4.75-11.1-.39C108.69,150.39,114.83,144.24,118,141.5Z"/><path class="cls-7" d="M98.55,41.26H95A13.48,13.48,0,0,0,93,36.64l2.54-2.54a1.3,1.3,0,0,0,0-1.84l-2-2a1.32,1.32,0,0,0-1.84,0l-2.55,2.55a13.31,13.31,0,0,0-4.62-1.92V27.32A1.3,1.3,0,0,0,83.3,26H80.51a1.3,1.3,0,0,0-1.3,1.3v3.59a13.34,13.34,0,0,0-4.61,1.92l-2.55-2.55a1.32,1.32,0,0,0-1.84,0l-2,2a1.32,1.32,0,0,0,0,1.84l2.55,2.54a13.48,13.48,0,0,0-1.92,4.62H65.27a1.3,1.3,0,0,0-1.3,1.3v2.79a1.3,1.3,0,0,0,1.3,1.3h3.59a13.31,13.31,0,0,0,1.92,4.62l-2.55,2.55a1.3,1.3,0,0,0,0,1.83l2,2a1.32,1.32,0,0,0,1.84,0l2.55-2.54A13.34,13.34,0,0,0,79.21,57V60.6a1.3,1.3,0,0,0,1.3,1.3H83.3a1.3,1.3,0,0,0,1.3-1.3V57a13.31,13.31,0,0,0,4.62-1.92l2.55,2.54a1.32,1.32,0,0,0,1.84,0l2-2a1.29,1.29,0,0,0,0-1.83L93,51.27A13.31,13.31,0,0,0,95,46.65h3.59a1.3,1.3,0,0,0,1.3-1.3V42.56A1.3,1.3,0,0,0,98.55,41.26Zm-9.48,6a8,8,0,0,1-3.82,3.82,5.51,5.51,0,0,1-.65.27,7.72,7.72,0,0,1-2.69.47,7.82,7.82,0,0,1-2.7-.47c-.22-.08-.44-.17-.65-.27a8,8,0,0,1-3.81-3.82,6.32,6.32,0,0,1-.27-.65,8,8,0,0,1,0-5.39c.08-.22.17-.44.27-.65a8.07,8.07,0,0,1,3.81-3.82l.65-.26a7.83,7.83,0,0,1,2.7-.48,7.73,7.73,0,0,1,2.69.48c.23.08.45.17.65.26a8.05,8.05,0,0,1,3.82,3.82c.1.21.19.43.27.65a8,8,0,0,1,0,5.39A6.32,6.32,0,0,1,89.07,47.3Z"/><path class="cls-8" d="M147.4,35.07H146a1.14,1.14,0,0,1-1.15-1.15v-1.4a7.35,7.35,0,0,1-1.74-.72l-1,1a1.16,1.16,0,0,1-1.62,0l-1-1a1.16,1.16,0,0,1,0-1.62l1-1a6.74,6.74,0,0,1-.72-1.73h-1.4a1.15,1.15,0,0,1-1.15-1.15V24.9a1.15,1.15,0,0,1,1.15-1.15h1.4a6.74,6.74,0,0,1,.72-1.73l-1-1a1.16,1.16,0,0,1,0-1.62l1-1a1.17,1.17,0,0,1,1.63,0l1,1a7.79,7.79,0,0,1,1.74-.72v-1.4A1.14,1.14,0,0,1,146,16.13h1.39a1.14,1.14,0,0,1,1.15,1.15v1.4a7.42,7.42,0,0,1,1.74.72l1-1a1.17,1.17,0,0,1,1.63,0l1,1a1.16,1.16,0,0,1,0,1.62l-1,1a7.14,7.14,0,0,1,.73,1.73H155a1.16,1.16,0,0,1,1.15,1.15v1.4A1.16,1.16,0,0,1,155,27.45h-1.4a7.14,7.14,0,0,1-.73,1.73l1,1a1.16,1.16,0,0,1,0,1.62l-1,1a1.16,1.16,0,0,1-1.62,0l-1-1a7.35,7.35,0,0,1-1.74.72v1.4A1.14,1.14,0,0,1,147.4,35.07ZM143,30.52l.35.23a6.26,6.26,0,0,0,2.13.89l.4.08v2.2a.15.15,0,0,0,.15.15h1.39a.15.15,0,0,0,.15-.15v-2.2l.4-.08a6.31,6.31,0,0,0,2.14-.89l.34-.23L152,32.09a.15.15,0,0,0,.21,0l1-1a.16.16,0,0,0,0-.22l-1.56-1.56.22-.34a6.15,6.15,0,0,0,.89-2.13l.08-.4H155a.15.15,0,0,0,.15-.15V24.9a.15.15,0,0,0-.15-.15h-2.21l-.08-.4a6.15,6.15,0,0,0-.89-2.13l-.22-.34,1.56-1.56a.16.16,0,0,0,0-.22l-1-1a.14.14,0,0,0-.21,0l-1.56,1.56-.34-.23a6.31,6.31,0,0,0-2.14-.89l-.4-.08v-2.2a.15.15,0,0,0-.15-.15H146a.15.15,0,0,0-.15.15v2.2l-.4.08a6.38,6.38,0,0,0-2.13.89l-.34.23-1.57-1.56a.14.14,0,0,0-.21,0l-1,1a.18.18,0,0,0,0,.22l1.56,1.56-.22.34a6.15,6.15,0,0,0-.89,2.13l-.08.4h-2.2a.15.15,0,0,0-.15.15v1.4a.15.15,0,0,0,.15.15h2.2l.08.4a6.15,6.15,0,0,0,.89,2.13l.22.34-1.56,1.56a.18.18,0,0,0,0,.22l1,1a.17.17,0,0,0,.22,0Zm3.73-.47a4.54,4.54,0,0,1-1.52-.26l-.37-.15a4.58,4.58,0,0,1-2.15-2.15l-.15-.37a4.57,4.57,0,0,1,0-3l.15-.36a4.49,4.49,0,0,1,2.15-2.15l.37-.16a4.53,4.53,0,0,1,3,0l.36.16a4.47,4.47,0,0,1,2.15,2.14,2.39,2.39,0,0,1,.15.37,4.41,4.41,0,0,1,0,3,2.39,2.39,0,0,1-.15.37,4.47,4.47,0,0,1-2.15,2.14,3.92,3.92,0,0,1-.36.16A4.62,4.62,0,0,1,146.71,30.05Zm0-7.9a3.57,3.57,0,0,0-1.18.2l-.29.12a3.54,3.54,0,0,0-1.66,1.67l-.12.28a3.58,3.58,0,0,0,0,2.36l.12.28a3.52,3.52,0,0,0,1.67,1.67l.28.12a3.51,3.51,0,0,0,2.35,0l.29-.12a3.56,3.56,0,0,0,1.67-1.67c0-.09.08-.19.11-.28a3.42,3.42,0,0,0,0-2.36,1.69,1.69,0,0,0-.12-.28,3.5,3.5,0,0,0-1.66-1.67l-.29-.12A3.55,3.55,0,0,0,146.71,22.15Z"/><path class="cls-9" d="M68.13,65.7h-2a7.57,7.57,0,0,0-1.06-2.55l1.41-1.41a.71.71,0,0,0,0-1l-1.1-1.1a.71.71,0,0,0-1,0L63,61A7.11,7.11,0,0,0,60.41,60V58a.72.72,0,0,0-.72-.72H58.14a.72.72,0,0,0-.71.72v2A7.11,7.11,0,0,0,54.88,61l-1.41-1.41a.72.72,0,0,0-1,0l-1.09,1.1a.71.71,0,0,0,0,1l1.41,1.41A6.83,6.83,0,0,0,52,64.7a20.69,20.69,0,0,0,2.61,1.89A4,4,0,0,1,55,65.34a4.5,4.5,0,0,1,2.11-2.11,2.24,2.24,0,0,1,.36-.14,4.25,4.25,0,0,1,3,0,2.35,2.35,0,0,1,.37.14,4.44,4.44,0,0,1,2.1,2.11,3.88,3.88,0,0,1,.15.36,4.38,4.38,0,0,1,.26,1.5A4.31,4.31,0,0,1,63,68.68a3.88,3.88,0,0,1-.15.36,4.06,4.06,0,0,1-.53.85q1.51.42,3.09.72a7.28,7.28,0,0,0,.7-1.93h2a.71.71,0,0,0,.71-.72V66.42A.72.72,0,0,0,68.13,65.7Z"/><path class="cls-7" d="M81.91,50.61A6.66,6.66,0,1,1,88.56,44,6.66,6.66,0,0,1,81.91,50.61Zm0-12.31A5.66,5.66,0,1,0,87.56,44,5.67,5.67,0,0,0,81.91,38.3Z"/><path class="cls-10" d="M64.58,33.36H61a13.39,13.39,0,0,0-1.92-4.62l2.54-2.55a1.29,1.29,0,0,0,.18-1.61c-.49.31-.95.64-1.39,1a41.6,41.6,0,0,0-6.12,5.78,8.14,8.14,0,0,1,.82,1.37,6.32,6.32,0,0,1,.27.65,8,8,0,0,1,0,5.39,6.32,6.32,0,0,1-.27.65,8,8,0,0,1-3.81,3.81,4.06,4.06,0,0,1-.65.27,7.82,7.82,0,0,1-2.7.47,7,7,0,0,1-1-.07,21.59,21.59,0,0,0-.93,10,1.19,1.19,0,0,0,.56.14h2.79a1.31,1.31,0,0,0,1.31-1.3V49.11a13.74,13.74,0,0,0,4.61-1.92l2.55,2.54a1.3,1.3,0,0,0,1.83,0l2-2a1.3,1.3,0,0,0,0-1.84l-2.54-2.54A13.39,13.39,0,0,0,61,38.75h3.59a1.3,1.3,0,0,0,1.3-1.3V34.66A1.3,1.3,0,0,0,64.58,33.36Z"/><path class="cls-9" d="M117.33,39.53a9.9,9.9,0,0,0,1.51-1.38,35.23,35.23,0,0,0-2.23-4.36,6,6,0,0,1-.81,1.26,5.14,5.14,0,0,1-.38.42,6.46,6.46,0,0,1-3.9,1.84l-.57,0a6.31,6.31,0,0,1-2.16-.38,6.47,6.47,0,0,1-1.9-1.08c-.14-.13-.29-.25-.41-.38a6.47,6.47,0,0,1-1.85-3.91,5.25,5.25,0,0,1,0-.56A6.42,6.42,0,0,1,106.06,27a5.31,5.31,0,0,1,.38-.42,6.14,6.14,0,0,1,2.21-1.43,23.3,23.3,0,0,0-2.61-1.6c-.57-.31-1.15-.59-1.73-.85a10.79,10.79,0,0,0-2.48,2.77l-2.71-1a1,1,0,0,0-1.32.64L97,27.21a1,1,0,0,0,.62,1.32l2.71,1a10.73,10.73,0,0,0,.2,4L98,34.74a1,1,0,0,0-.5,1.38l1,2a1,1,0,0,0,1.38.5l2.61-1.23a10.64,10.64,0,0,0,3,2.7l-1,2.71a1,1,0,0,0,.64,1.32l2.1.76a1,1,0,0,0,1.33-.62l1-2.71a10.73,10.73,0,0,0,4-.2L114.66,44a1.05,1.05,0,0,0,1.38.5l2-1a1,1,0,0,0,.49-1.38Z"/><path class="cls-10" d="M115.7,57.46a.65.65,0,0,0-.77-.48l-1.76.42a6.73,6.73,0,0,0-1.46-2l.93-1.53a.64.64,0,0,0-.21-.89l-1.19-.73a.64.64,0,0,0-.89.21L109.4,54a6.75,6.75,0,0,0-2.46-.4l-.43-1.75a.66.66,0,0,0-.77-.48l-1.37.33a.68.68,0,0,0-.48.79l.43,1.75a6.55,6.55,0,0,0-2,1.47l-1.54-.95a.66.66,0,0,0-.89.22l-.73,1.2a.65.65,0,0,0,.22.89l1.53.93a6.8,6.8,0,0,0-.39,2.47l-1.74.42a.65.65,0,0,0-.48.79L98.6,63a.56.56,0,0,0,.09.19c1.64-.64,3.24-1.17,4.76-1.6a4,4,0,0,1-.22-1.81c0-.11,0-.23,0-.34a4.13,4.13,0,0,1,.51-1.28,4.25,4.25,0,0,1,.9-1c.1-.06.18-.13.28-.2a4,4,0,0,1,2.63-.63l.35.06a3.86,3.86,0,0,1,1.26.5,3.91,3.91,0,0,1,1,.9,3.06,3.06,0,0,1,.21.29,4,4,0,0,1,.64,1.88c1.94-.3,3.57-.44,4.76-.51a.62.62,0,0,0,.18-.62ZM110,60.1a56.71,56.71,0,0,0-5.55,1.21,2.72,2.72,0,0,1-.21-1.07A2.88,2.88,0,0,1,110,60.1Z"/><path class="cls-8" d="M15.59,129.19H13.41a1.51,1.51,0,0,1-1.51-1.52v-2.4a11,11,0,0,1-3-1.26l-1.7,1.7a1.51,1.51,0,0,1-2.14,0l-1.55-1.54a1.53,1.53,0,0,1,0-2.14l1.71-1.71a10.91,10.91,0,0,1-1.26-3H1.51A1.52,1.52,0,0,1,0,115.78V113.6a1.52,1.52,0,0,1,1.51-1.52H3.92a11,11,0,0,1,1.26-3l-1.71-1.7a1.53,1.53,0,0,1,0-2.14L5,103.66a1.53,1.53,0,0,1,2.14,0l1.7,1.71a10.68,10.68,0,0,1,3-1.26V101.7a1.51,1.51,0,0,1,1.51-1.51h2.18a1.52,1.52,0,0,1,1.51,1.51v2.41a10.5,10.5,0,0,1,3,1.26l1.71-1.71a1.53,1.53,0,0,1,2.14,0l1.54,1.55a1.51,1.51,0,0,1,0,2.13l-1.71,1.71a11,11,0,0,1,1.26,3h2.41A1.52,1.52,0,0,1,29,113.6v2.18a1.52,1.52,0,0,1-1.51,1.51H25.08a10.91,10.91,0,0,1-1.26,3l1.7,1.71a1.51,1.51,0,0,1,0,2.13L24,125.71a1.51,1.51,0,0,1-2.14,0L20.13,124a10.79,10.79,0,0,1-3,1.26v2.4A1.52,1.52,0,0,1,15.59,129.19Zm-6.86-6.46.34.22a9.88,9.88,0,0,0,3.43,1.43l.4.08v3.21a.51.51,0,0,0,.51.52h2.18a.51.51,0,0,0,.51-.52v-3.21l.4-.08A9.88,9.88,0,0,0,19.93,123l.34-.22L22.55,125a.53.53,0,0,0,.73,0l1.54-1.54a.54.54,0,0,0,0-.73l-2.28-2.27.23-.34a10.06,10.06,0,0,0,1.42-3.43l.09-.4h3.21a.51.51,0,0,0,.51-.51V113.6a.51.51,0,0,0-.51-.52H24.28l-.09-.4a10,10,0,0,0-1.42-3.42l-.23-.34,2.28-2.28a.54.54,0,0,0,0-.73l-1.55-1.54a.52.52,0,0,0-.73,0l-2.27,2.27-.34-.22A9.88,9.88,0,0,0,16.5,105l-.4-.08V101.7a.51.51,0,0,0-.51-.51H13.41a.51.51,0,0,0-.51.51v3.21l-.4.08a9.88,9.88,0,0,0-3.43,1.43l-.34.22-2.28-2.27a.52.52,0,0,0-.73,0l-1.54,1.54a.53.53,0,0,0,0,.73l2.28,2.28-.23.34a10,10,0,0,0-1.42,3.42l-.09.4H1.51a.51.51,0,0,0-.51.52v2.18a.51.51,0,0,0,.51.51H4.72l.09.4a10.06,10.06,0,0,0,1.42,3.43l.23.34-2.28,2.27a.54.54,0,0,0,0,.73L5.73,125a.53.53,0,0,0,.73,0Zm5.77-1.38a6.79,6.79,0,0,1-2.28-.39l-.54-.23a6.76,6.76,0,0,1-3.22-3.22c-.08-.18-.16-.36-.23-.55a6.67,6.67,0,0,1,0-4.55c.07-.19.15-.37.23-.55a6.78,6.78,0,0,1,3.21-3.22l.55-.22a6.71,6.71,0,0,1,4.55,0c.19.07.38.14.55.22a6.76,6.76,0,0,1,3.22,3.22c.08.18.16.36.23.55a6.67,6.67,0,0,1,0,4.55c-.07.19-.15.37-.23.55a6.76,6.76,0,0,1-3.22,3.22l-.55.23A6.69,6.69,0,0,1,14.5,121.35Zm0-12.33a5.49,5.49,0,0,0-1.93.34l-.47.19a5.78,5.78,0,0,0-2.74,2.74c-.07.15-.13.3-.19.47a5.68,5.68,0,0,0-.34,1.93,5.77,5.77,0,0,0,.34,1.93c.06.16.12.32.19.47a5.76,5.76,0,0,0,2.74,2.73,5.11,5.11,0,0,0,.47.2,5.81,5.81,0,0,0,3.86,0l.47-.2a5.76,5.76,0,0,0,2.74-2.73c.07-.15.13-.31.19-.47a5.68,5.68,0,0,0,0-3.87c-.06-.16-.12-.31-.19-.46a5.78,5.78,0,0,0-2.74-2.74l-.47-.19A5.49,5.49,0,0,0,14.5,109Z"/><path class="cls-11" d="M52.36,47.88a.2.2,0,0,1-.18-.27c.1-.27.11-.32,0-.39s-.11-.08-.26,0-.34,0-.41-.2.05-.66.17-.7.21-.16.11-.27-.08-.14.06-.35.19-.47-.16-.44c-.15,0-.16,0-.19-.07A.27.27,0,0,0,51.4,45c-.08,0-.08-.07,0-.18s.11-.16.08-.22,0-.08.07-.09.12,0,.1-.11,0-.12.09-.16.4,0,.35.12a.12.12,0,0,0,0,.13s.1,0,.18-.19.08-.21,0-.16-.14,0-.34,0-.28-.12-.08-.25.12-.11.09-.16a.88.88,0,0,1,.18-.44c.15-.26.19-.39.15-.44s0-.07.09-.08.16,0,.1-.19a.22.22,0,0,1,0-.08,7.22,7.22,0,0,1-1.2.7,4.06,4.06,0,0,1-.65.27,7.82,7.82,0,0,1-2.27.45l0,0c-.2.08-.24.18-.2.44a.41.41,0,0,1-.08.33A.39.39,0,0,0,48,45c0,.11,0,.15-.08.17s-.11.06-.07.13-.25.86-.39.86a.19.19,0,0,1-.16-.11,1.68,1.68,0,0,0-.2-.32c-.21-.31-.16-.72.28-1.37.14-.2.15-.26.07-.35a.13.13,0,0,1,0-.08l-.48,0a21.59,21.59,0,0,0-.93,10,1.19,1.19,0,0,0,.56.14h2.79a1.31,1.31,0,0,0,1.31-1.3V49.11c.22,0,.44-.12.66-.18a.24.24,0,0,1-.1-.19c0-.37,0-.42-.21-.48s-.16-.14,0-.09a.45.45,0,0,0,.28-.06.33.33,0,0,1,.33,0,.34.34,0,0,0,.29,0c.19-.08.38,0,.38.16s.21.26.25.15.11,0,.08.06.11-.07.12-.12A.44.44,0,0,0,52.36,47.88Zm-5.1-1.41c-.09-.06-.15-.14-.13-.18s0,0,.15.05S47.46,46.6,47.26,46.47Zm2.36-2c-.17.26-.19.27-.17.08l0-.26c0-.13.15-.26.23-.23S49.74,44.24,49.62,44.44Zm1.58,2.34c-.1,0-.12-.22,0-.41a.3.3,0,0,0,0-.27c-.07-.07,0-.17.13-.37s.15-.1.26.05,0,.12,0,.14-.23.28-.14.31,0,.14-.07.29A1.37,1.37,0,0,1,51.2,46.78Zm.2,1.15c-.07-.12.06-.13.09-.07S51.47,47.92,51.4,47.93Z"/><path class="cls-11" d="M55.07,39.63a.49.49,0,0,1,0,.15.25.25,0,0,0,.14.19l.31.2c.2.14.3.13.23,0s0-.14.06-.21.07-.3-.22-.4-.41-.17-.38-.2l0-.09c0-.06,0,0,.18,0s.83.28.81.14a.92.92,0,0,1,.34-.57c.05,0,.09,0,.16.15s.24.28.35.27.1,0,.16.12,0,.2-.2.07a.43.43,0,0,0-.23-.07c-.15,0-.15.12,0,.15s.28.21.16.27a.17.17,0,0,0-.07.17c0,.14-.06.25-.25.32s-.14.06,0,.27.1.22,0,.27a.26.26,0,0,0-.18.32.6.6,0,0,1-.16.37c-.09.12-.15.24-.12.27s-.07.24-.28.5a.19.19,0,0,0,0,.15,1.74,1.74,0,0,1-.2.57c-.34.69-.29.79.08.17.17-.28.35-.61.44-.73s.34-.6.59-1,.49-.86.57-1,.23-.4.35-.58a2.8,2.8,0,0,0,.64-1.37c0-.14-.06-.21-.23-.19s-.24,0-.21-.13a1.27,1.27,0,0,0,0-.22.21.21,0,0,1,.14-.19c.16-.07.31,0,.24.1a.26.26,0,0,0,.13.31c.14,0,.52-.42.48-.58a.56.56,0,0,1,.1-.27c.1-.15.11-.2,0-.29-.27-.27-.31-.32-.35-.45a.91.91,0,0,0-.18-.27c-.07-.07-.12-.13-.1-.15s0-.06,0-.1a1,1,0,0,1,.15-.29.52.52,0,0,0,.12-.33c0-.17,0-.21.15-.09s.16.1.25-.16.1-.18.14-.15.21,0,.15-.1-.13-.29,0-.3.15,0,.13-.13,0-.15.15-.21a.66.66,0,0,0,.3-.85c.29.14.4.08.43-.2s0-.2.22-.18.19,0,.19-.08a.12.12,0,0,1,.06-.1,13.16,13.16,0,0,0-1.79-4.15l2.54-2.55a1.29,1.29,0,0,0,.18-1.61c-.23.15-.45.31-.67.47s-.49.33-.72.51a41.6,41.6,0,0,0-6.12,5.78,8.14,8.14,0,0,1,.82,1.37,6.32,6.32,0,0,1,.27.65,8,8,0,0,1,0,5.39,6.32,6.32,0,0,1-.27.65,3,3,0,0,1-.2.34C55,39.65,55.05,39.6,55.07,39.63Zm3-3s.1,0,.14,0,.09.09,0,.11a.14.14,0,0,1-.13,0S58.05,36.69,58.08,36.66Zm-.24.23a.33.33,0,0,1,.26.28c0,.19.1.23.21.18s.22,0,.23.19,0,.15-.12.14-.14,0-.14-.08-.1-.16-.15-.11-.32,0-.4-.24S57.69,36.86,57.84,36.89Zm-.24.47c.16.09.16.16,0,.32s-.21.17-.29,0S57.43,37.27,57.6,37.36Zm-.3.68c.16,0,.17.1,0,.16s-.2,0-.18-.1S57.16,38,57.3,38Zm-.51.35c.21-.21.37-.22.38,0a.18.18,0,0,0,.11.1.46.46,0,0,1,.15.16.53.53,0,0,0,.2.19c.15.09.15.1,0,.17s-.52.09-.43-.09.11-.36-.1-.26-.12.1-.1.18-.18.16-.33-.05S56.58,38.6,56.79,38.39Z"/><path class="cls-11" d="M52.19,48.61a.27.27,0,0,1-.07.08l.29-.1C52.33,48.51,52.23,48.48,52.19,48.61Z"/><path class="cls-11" d="M53.59,41.94c.59-.85.73-1,.62-1.11a7.24,7.24,0,0,1-1,1.07c0,.11,0,.21.08.23S53.48,42.09,53.59,41.94Z"/><path class="cls-11" d="M59.33,35.8a.19.19,0,0,0-.13-.3c-.14,0-.15,0-.05.19s.07.17.05.19,0,.1,0,.18a.82.82,0,0,1,.1.3,1.69,1.69,0,0,0-.64-.43c0,.13,0,.19-.05.22a.13.13,0,0,0,0,.16c.1.15.16.19.2.15a.3.3,0,0,1,.2,0c.16.05.16.05.13.13-.11.31,0,.39.25.17s.28-.5,0-.71S59.28,35.9,59.33,35.8Z"/><path class="cls-11" d="M55.19,44a.1.1,0,0,0,0,.12.07.07,0,0,0,.1,0s0-.09,0-.11A.08.08,0,0,0,55.19,44Z"/><path class="cls-11" d="M59.62,35.38a.19.19,0,0,0-.1-.12c-.11-.06-.24.11-.15.21S59.65,35.49,59.62,35.38Z"/><path class="cls-11" d="M54.81,41.33c-.09.05,0,.23.15.24s0-.14,0-.17S54.89,41.28,54.81,41.33Z"/><path class="cls-11" d="M60.75,33.92c0,.09,0,.15,0,.18A.32.32,0,0,0,60.75,33.92Z"/><path class="cls-11" d="M53.93,47.19a2.22,2.22,0,0,0-.4.75c0,.06-.06.15-.1.23l.4-.18c0-.06,0-.11,0-.16C54,47.35,54,47.22,53.93,47.19Z"/><path class="cls-11" d="M54.66,45.06c0,.13-.16.36-.24.53s-.12.55,0,.39a1.05,1.05,0,0,0,.12-.21l.2-.49a2.85,2.85,0,0,0,.17-.47C54.79,44.8,54.71,44.94,54.66,45.06Z"/><path class="cls-11" d="M60.14,34.59a.15.15,0,0,0,.13,0C60,34.48,60,34.52,60.14,34.59Z"/><path class="cls-11" d="M60.65,34.93a.14.14,0,0,0,0,.12s.07,0,.12,0,.06-.08,0-.11S60.69,34.91,60.65,34.93Z"/><path class="cls-11" d="M54.14,46.71c.11-.06.24-.46.15-.46S54.17,46.37,54.14,46.71Z"/><path class="cls-11" d="M53,42.77A3.15,3.15,0,0,0,52.3,44c.1.14.17.08.36-.27C53,43.16,53.1,42.84,53,42.77Z"/><path class="cls-11" d="M52,44.67c-.1,0-.1.07,0,.11s.12,0,.13,0S52.11,44.66,52,44.67Z"/><path class="cls-11" d="M52.76,46.51c.11,0,.13,0-.06-.09A.09.09,0,0,0,52.76,46.51Z"/><path class="cls-11" d="M54.63,40.65c.11.12.18.14.21.13C54.71,40.65,54.64,40.63,54.63,40.65Z"/><path class="cls-11" d="M52.87,46c-.07,0-.07,0,0,.14s.23.18.27.09S53,46,52.87,46Z"/><path class="cls-11" d="M53.59,43.4c.08.09.12.07.14,0S53.61,43.36,53.59,43.4Z"/><path class="cls-11" d="M107.12,56.19a.2.2,0,0,1-.18.09.17.17,0,0,0-.1,0,3.12,3.12,0,0,1,.43,0C107.23,56.09,107.17,56,107.12,56.19Z"/><path class="cls-11" d="M110,56.86c0-.08-.13-.14-.3-.14H109c.08.05.18.08.26.14a3.69,3.69,0,0,1,.4.29C109.74,57.17,110,57,110,56.86Z"/><path class="cls-11" d="M106.34,56.36l0,0,.14,0S106.36,56.32,106.34,56.36Z"/><path class="cls-11" d="M105.73,56.32c0-.21,0-.36-.09-.43s-.06-.08,0-.19.15-.12.19.08a.5.5,0,0,0,.13.21c.11.08.17,0,.09-.12s-.07-.34,0-.31a.14.14,0,0,0,.16-.08c.06-.13.21-.15.39,0s.14,0,.21-.17.09-.22.19-.18a.28.28,0,0,0,.37-.1.51.51,0,0,1,.37-.13c.15,0,.28,0,.28-.08s.23-.1.57-.12a.18.18,0,0,0,.14-.06,1.94,1.94,0,0,1,.58-.16c.76-.14.82-.24.1-.17l-.87.08c-.37,0-2,.43-2.33.54a4.64,4.64,0,0,1-.65.2,2.54,2.54,0,0,0-1.34.65c-.09.09-.06.2.08.28s.16.18.08.24a.69.69,0,0,0-.13.15.22.22,0,0,1-.22.07c-.16,0-.23-.17-.12-.22s.12-.25.06-.33-.64.06-.7.21a.52.52,0,0,1-.22.17c-.16.07-.19.11-.16.22a1.25,1.25,0,0,1,.07.57.87.87,0,0,0,0,.32c0,.1,0,.18,0,.18l-.07.07a.57.57,0,0,1-.24.16.43.43,0,0,0-.24.21c0,.16-.12.15-.16,0s-.09-.17-.27,0-.14.12-.17.07-.18-.08-.16,0,0,.32-.13.25-.13,0-.15,0-.08.12-.2.12a.54.54,0,0,0-.53.6.34.34,0,0,0-.06-.06,7.08,7.08,0,0,0-.11,1.38l-1.74.42a.65.65,0,0,0-.48.79L98.6,63a.56.56,0,0,0,.09.19c1.64-.64,3.24-1.17,4.76-1.6a4,4,0,0,1-.22-1.81c0-.11,0-.23,0-.34a4.07,4.07,0,0,1,1.41-2.31c.1-.06.18-.13.28-.2l.33-.18c-.25,0-.36-.07-.27-.22a.19.19,0,0,0,0-.14.52.52,0,0,1,0-.21.58.58,0,0,0,0-.28c-.06-.17,0-.17.09-.15s.44.27.26.34-.29.21-.07.27.14,0,.17-.08.23,0,.22.26a.43.43,0,0,1,0,.05l.18-.05C105.72,56.51,105.72,56.45,105.73,56.32Zm-2.28,1a.12.12,0,0,1-.1-.1c0-.12,0-.12.07-.07a.19.19,0,0,1,.09.09S103.49,57.34,103.45,57.35Zm.57-.28c0,.23-.17.34-.27.22a.36.36,0,0,1-.06-.38c0-.17,0-.24-.07-.25s-.17-.15-.09-.3.08-.12.17,0,.09.11.07.14,0,.19.06.18S104.06,56.85,104,57.07Zm.52-.09a.2.2,0,0,1-.37.07c-.08-.16,0-.22.15-.27S104.58,56.79,104.54,57Zm.36-.22c-.06.07-.06.07-.14,0s-.07-.19.06-.14S105,56.69,104.9,56.76Z"/><path class="cls-11" d="M112.81,57.14c-.09,0-.17,0-.19,0s-.06,0-.1,0-.07-.09-.12,0-.09.06-.16,0-.16-.37,0-.37a.1.1,0,0,0,.09-.07s-.07-.07-.22-.07-.2,0-.14,0,.1.1.13.32,0,.3-.15.18-.13-.06-.16,0-.2.06-.4.07-.36,0-.38.1,0,.07-.1,0-.09-.12-.18,0-.12.14-.3.11-.23,0-.26.06-.05.06-.09,0a.14.14,0,0,0-.14,0,4,4,0,0,1,.35.37,3.06,3.06,0,0,1,.21.29l.08.13c.06-.15.07-.11.08.08v.07a3.91,3.91,0,0,1,.48,1.6c1.94-.3,3.57-.44,4.76-.51a.62.62,0,0,0,.18-.62l-.33-1.35a.65.65,0,0,0-.77-.48l-1.76.42c-.06-.13-.14-.26-.21-.39a.17.17,0,0,0,0,.07C113,57.17,112.93,57.18,112.81,57.14Zm.36,1.81c.24,0,.25.06.12.12l-.19.08c-.08,0-.23,0-.23-.11S113,58.91,113.17,59Z"/><path class="cls-11" d="M102.05,57.38a.2.2,0,0,0,0,.32c.1.08.12.06.12-.13s0-.19,0-.19,0-.08,0-.18a.56.56,0,0,1,.06-.29,1.78,1.78,0,0,0,.32.69c0-.11.1-.15.14-.16s.08-.06.08-.12,0-.24-.09-.24-.1,0-.16-.12-.1-.13,0-.18c.23-.2.17-.34-.13-.27s-.47.27-.35.58S102.15,57.32,102.05,57.38Z"/><path class="cls-11" d="M110.44,54.2s0-.07-.09-.07a.08.08,0,0,0-.09.07.09.09,0,0,0,.09.07A.1.1,0,0,0,110.44,54.2Z"/><path class="cls-11" d="M101.88,57.65c0-.12-.21-.16-.24,0a.21.21,0,0,0,0,.15A.12.12,0,0,0,101.88,57.65Z"/><path class="cls-11" d="M110,60.08c0-.1,0-.2,0-.3a.11.11,0,0,1,0-.09.09.09,0,0,1,0-.07,2.88,2.88,0,0,0-5.69.62,2.72,2.72,0,0,0,.21,1.07l.55-.14c0-.13,0-.21.12-.2a.2.2,0,0,1,.13.14c1.67-.43,3.24-.75,4.67-1Z"/><path class="cls-11" d="M100.67,57.43s0-.06-.09,0-.09,0-.07.08a.08.08,0,0,0,.09.06A.1.1,0,0,0,100.67,57.43Z"/><path class="cls-11" d="M108.49,56c-.07,0,0,.13,0,.16s.15-.17.08-.27C108.55,55.92,108.52,56,108.49,56Z"/><path class="cls-11" d="M112.24,53.9l-.53.06a2.28,2.28,0,0,0-.5.07c.07.13.22.14.36.13s.4,0,.57,0a.85.85,0,0,0,.38-.07l0-.07a.1.1,0,0,0-.07,0A.51.51,0,0,0,112.24,53.9Z"/><path class="cls-11" d="M111.79,56.73c.06-.14,0-.19-.37-.19-.57,0-.86.09-.85.23A2.66,2.66,0,0,0,111.79,56.73Z"/><path class="cls-11" d="M112.51,56.63c0-.06,0-.11-.06-.11s-.07.08,0,.17S112.52,56.74,112.51,56.63Z"/><path class="cls-11" d="M110.69,55.78c0,.11,0,.14,0,.14S110.72,55.78,110.69,55.78Z"/><path class="cls-12" d="M129.57,66.77c0,.28,0,.3-.15.09s-.18-.55,0-.42S129.57,66.56,129.57,66.77Zm5.5,5.47c-.19-.15-.33-.08-.17.09s.34.2.4.15S135.29,72.4,135.07,72.24ZM132,68.81c-.12,0-.11.19,0,.25s.12,0,.13,0A.22.22,0,0,0,132,68.81Zm-5.06-8.11A.85.85,0,0,0,127,61C127,60.76,126.92,60.7,126.89,60.7Zm1.59,4.3c0,.14.21.45.27.43s0-.13-.07-.28S128.47,64.8,128.48,65Zm9.27,10.37c.21.28.29.3.26.18S137.94,75.43,137.75,75.37ZM125,42.49c-.13-.06-.18,0-.19,0C125,42.58,125.05,42.54,125,42.49Zm17.58,32.76a.72.72,0,0,0,.23.35,5,5,0,0,0,.22-.74.27.27,0,0,0,0-.09.13.13,0,0,1,0,0C142.8,74.22,142.43,74.7,142.62,75.25Zm-4.24.72s0,.1.06.17.07,0,.12-.15A.14.14,0,0,0,138.38,76ZM102.52,13.85a41.93,41.93,0,0,1,10.59,4.89c7.87,5.17,12,13.36,14.13,19.57a38.16,38.16,0,0,1,2,11.55c0,.37,0,.77,0,1.19-.12-.15-.27-.08-.28.14s.09.44.25.45,0,0,.06,0c.24,3.7,1.07,8.7,3.67,11.77C137,68,142,71.89,142.93,74a1,1,0,0,1-.19.12c-.16.08-.21.16-.21.3a.21.21,0,0,1-.12.23c-.25.08-.31.35-.2.83s.08.5-.05.62-.12.28.16.55l-.16.25a.69.69,0,0,1,0-.1.28.28,0,0,0-.45-.11.3.3,0,0,1-.22,0,.16.16,0,0,0-.19.07.25.25,0,0,1-.19.11c-.13,0-.14,0-.17-.24a.55.55,0,0,1,0-.33.12.12,0,0,0,0-.14.19.19,0,0,1,.08-.19.36.36,0,0,0,0-.47c-.05,0-.05-.18,0-.3s0-.42-.12-.25-.1,0-.17,0c-.22-.07-.28.15-.1.34s.14.17-.06.38a.86.86,0,0,1-.26.19s-.22.09-.5.34-.18.11-.37-.21c-.09-.14-.11-.27-.06-.31s0-.2-.58-.29S138,75.21,138,75c-.07-.06,0-.13,0-.22s.09-.24-.77-1c-.43-.4-.59-.53-.74-.57s-.26-.19-.09-.22.05-.12-.13-.16-.13-.07-.16-.21-.15-.31-.39-.25-.25,0-.42-.16a.85.85,0,0,0-.34-.23c-.16,0-.27-.13-.2-.18s.11,0,.19.07.39.1.22-.1a1,1,0,0,1-.36-.24.48.48,0,0,1-.26,0c-.23-.07-.23-.07-.17.14s-.33.12-.54-.31c-.08-.16-.12-.29-.09-.28s0-.08,0-.2,0-.26,0-.29,0-.1,0-.17a.18.18,0,0,0-.25,0c-.18.13-.43-.11-.37-.35s0-.19-.17-.21c.06.14-.05.2-.19.09a.7.7,0,0,1-.17-.24c-.28-.72-.59-1.18-.74-1s-.13,0-.27-.19-.22-.24-.3-.17-.44-.14-.44-.48c-.1.05-.5-.36-.66-.72s-.2-.36-.39-.46-.29-.2-.2-.37a.26.26,0,0,0,0-.29,3.76,3.76,0,0,1-.27-.51,3.12,3.12,0,0,0-.37-.57.6.6,0,0,1-.21-.53c0-.16,0-.32-.07-.34a2.1,2.1,0,0,1-.47-.7.54.54,0,0,0-.12-.23.5.5,0,0,1-.11-.29,1.07,1.07,0,0,0-.12-.37c-.08-.1-.1-.19-.08-.44a.71.71,0,0,0-.14-.62c-.25-.43-.27-.7-.1-1-.23-.05-.57-1-.57-1.67a.94.94,0,0,0-.1-.55.45.45,0,0,1,0-.4c0-.24,0-.47-.2-.48s-.06-.34,0-.37,0-.16,0-.43c-.13-.52-.13-.61,0-.61s.14-.13,0-.35a2.48,2.48,0,0,1-.14-.67,3.21,3.21,0,0,0-.11-.63.79.79,0,0,1,0-.2s-.07-.09-.14-.09a.39.39,0,0,1-.25-.16c-.1-.14-.15-.16-.44-.2-.08,0-.11-.1-.15-.47a2,2,0,0,0-.12-.54,4.37,4.37,0,0,1-.13-1.54c.06-.08.23.12.25.3s.15.17.18-.14a1.27,1.27,0,0,0-.06-.48,2.44,2.44,0,0,1-.12-.35c-.05-.2-.13-.17-.18.06s-.15.25-.23,0a19,19,0,0,1-.62-3c-.07-.46-.19-1.08-.26-1.38-.12-.67-.89-4.07-1.09-4.82-.07-.3-.26-1.08-.42-1.74-.39-1.44-.28-1.33.18.21.18.61.34,1.15.37,1.19a.78.78,0,0,1,.11.31,5.17,5.17,0,0,0,.29,1.16,2.47,2.47,0,0,1,.16.61,3.28,3.28,0,0,0,.21.78,1.29,1.29,0,0,1,.17.77.54.54,0,0,0,.2.45c.2.2.21.24.18.47a1.36,1.36,0,0,0,.13.83.8.8,0,0,1,.09.36c0,.23.15.37.25.22s.16,0,.11.23-.09.17-.15.17-.18.24,0,.37.12.09.15,0,.15-.16.33,0,.15.09.17,0a4.39,4.39,0,0,0-.23-1.29c-.11-.2.19-.73.43-.74s.15,0,.11-.14l-.05-.16c0-.08-.17,0-.31.13s-.31.07-.37-.37a1.06,1.06,0,0,0-.12-.41c-.14-.16-.11-.29.07-.3a1,1,0,0,0,.28,0c.07,0,.14,0,.19.14a1.38,1.38,0,0,0,.13.22,6.46,6.46,0,0,0-.23-1.57,1.75,1.75,0,0,1-.08-.61c.06-.28-.06-.65-.2-.66s-.19-.36-.63-2.44c-.08-.36-.1-.6,0-.61s.36.52.39.74.06.18.09.17.08-.43,0-.67a.59.59,0,0,1,0-.3c0-.07,0-.13-.06-.2a1.53,1.53,0,0,1-.17-.57,1.25,1.25,0,0,0-.26-.67c-.16-.2-.17-.22-.12-.39s0-.19,0-.22a2.53,2.53,0,0,1-.31-.83,4.49,4.49,0,0,0-.32-.85.57.57,0,0,1-.1-.34c0-.37,0-.37-.25-.31s-.19.1-.17.26,0,0-.14-.28-.14-.47-.1-.44A.26.26,0,0,1,123,34c.08.22.27.14.26-.1a.5.5,0,0,0-.12-.34c-.08-.1-.1-.16-.07-.25a.14.14,0,0,0-.05-.2,1,1,0,0,1-.18-.4c-.06-.25-.1-.31-.16-.29a.25.25,0,0,1-.18-.09c-.09-.11-.1-.1-.14,0-.11.36-.24.2-.49-.52-.16-.46-.21-.52-.35-.59a.54.54,0,0,1-.23-.5,3.42,3.42,0,0,0-.7-1.17c-.29-.29-.36-.28-.36,0s0,.22-.12.18-.17-.14-.44-.6c-.12-.21-.31-.32-.38-.24s-.47,0-.72-.38-.22-.32-.11-.26.07.11.11,0c-.12-.18.11-.17.27,0s.35.19.33-.05,0-.18.13-.2.13-.07.09-.27a.37.37,0,0,1,0-.3c.14-.08.06-.2-.09-.14s-.2,0-.68-.49a.6.6,0,0,0-.3-.18.91.91,0,0,1-.32-.17c-.22-.18-.32-.16-.25.06s.07.17.22.19.27.1.15.18-.07.09.06.22a.34.34,0,0,1,.13.27.7.7,0,0,0,.13.33c.24.37-.14.24-.43-.12s-.22-.26-.35-.2a.15.15,0,0,1-.21,0c-.1-.12,0-.25.09-.24s.23-.06.14-.17-.38-.24-.48-.19-.25,0-.29-.16-.06-.18-.23-.25a.63.63,0,0,1-.35-.32,1,1,0,0,0-.26-.3c-.17-.07-.27-.2-.21-.31s0-.14-.19-.32-.25-.2-.27-.14a1.06,1.06,0,0,1-.15.16c-.11.09-.11.1.31.57.24.25.56.64.77.82a2,2,0,0,1,.42.5.41.41,0,0,0,.16.2,1.57,1.57,0,0,1,.57.67c0,.15.1.22.29.36a2.34,2.34,0,0,1,.49.6c.14.24.38.61.5.84a7.4,7.4,0,0,1,.71,1.43c-.07,0-.19-.19-.71-1-.29-.46-.78-1.17-1.09-1.56a30.19,30.19,0,0,0-2.45-2.87c-1.06-1.09-2.28-2.1-3-2.69-2.2-1.79-2.88-2.28-4.74-3.88-.65-.56-2.13-1.93-2.73-2.55a19.09,19.09,0,0,1-1.91-2.32Zm34.39,54.64c.16.09.28.06.26-.06a.45.45,0,0,0-.31-.29C136.65,68.1,136.69,68.37,136.91,68.49Zm-9.68-28.83c.13.21.22.16.19-.1a.88.88,0,0,0-.1-.4,2.19,2.19,0,0,1-.15-.64c-.09-.61-.18-.77-.36-.68A5.37,5.37,0,0,0,127.23,39.66Zm-.57-.81c-.08.07,0,.46.13.49s.06-.06,0-.17C126.8,38.9,126.74,38.78,126.66,38.85Zm-.23-.67c-.05.08,0,.19.18.28s.14,0,0-.2S126.46,38.15,126.43,38.18Zm-.69,11.29c-.06-.19-.12-.16-.15.08s0,.33.12.19S125.8,49.63,125.74,49.47Zm-.18-.37c.13.27.2,0,.15-.53s-.06-.61-.2-.7-.34.13-.18.35a.6.6,0,0,1,.07.38c0,.43-.11.32-.21-.25-.08-.41-.24-.16-.25.38,0,.28,0,.29.12.24a.24.24,0,0,1,.22.05.15.15,0,0,0,.17,0A.08.08,0,0,1,125.56,49.1Zm.63,3.72c0-.09,0-.16,0-.16s-.06.05-.08.12,0,.2,0,.2S126.19,52.91,126.19,52.82ZM126,51.48c-.16-.21-.34-.12-.33.16s-.08.14-.14,0-.06,0-.11.07a.36.36,0,0,0,0,.37c.12.24.22.24.23,0s.07-.21.2,0,.21.21.3.07S126.18,51.71,126,51.48Zm-.21-.79c0,.43.08.53.21.46s.09-.61-.06-.8S125.74,50.23,125.79,50.69Zm-.35-12.81a.24.24,0,0,0-.2-.37C125.05,37.51,125.06,37.52,125.44,37.88Zm-1.51-6.05c.14.41.29.7.36.68s0-.34-.13-.53l-.24-.41C123.75,31.28,123.76,31.31,123.93,31.83Zm-3-2.18s.09.23.22.51a1.45,1.45,0,0,0,.28.48c.07,0,.26.42.26.58a.29.29,0,0,0,.14.22c.19.14.23.1.15-.14-.14-.42-.23-.6-.32-.65a1.09,1.09,0,0,1-.28-.43C121.23,29.88,121,29.62,120.94,29.65Zm-1.39-1.48a.18.18,0,0,0,0,.16C119.68,28.4,119.71,28.27,119.55,28.17Zm-2-2.29c0,.08.23.2.33.18s-.12-.27-.23-.25S117.52,25.85,117.52,25.88Zm-.47-.09a.5.5,0,0,0,.34.43c.24.05.2-.14-.16-.43C117.05,25.64,117,25.64,117.05,25.79Zm-.22-.4c.18-.12.18-.14.06-.28s-.17-.13-.22-.12a.11.11,0,0,0-.09.12.18.18,0,0,1-.07.17C116.34,25.43,116.63,25.53,116.83,25.39Zm-.5-.1s.07-.05.09-.12-.12-.34-.19-.23S116.24,25.27,116.33,25.29Zm-.62-1c.11,0,.13,0,.09-.12s-.14-.2-.26-.09S115.51,24.31,115.71,24.31Zm-1.36-.11c0,.15.15.27.22.2s.05-.16-.11-.25S114.35,24.12,114.35,24.2Zm-3.92-4.26c0,.19.06.19.26.19.37,0,.37-.24,0-.49-.12-.07-.18-.07-.23,0A.35.35,0,0,0,110.43,19.94Zm16.21,39a.33.33,0,0,0,0,.22C126.75,59,126.72,58.87,126.64,59Zm-5.89-27.59c0-.06-.09-.1-.12-.09S120.64,31.48,120.75,31.38Zm2,2.12c0-.11,0-.19-.11-.17a.11.11,0,0,0,0,.14C122.66,33.59,122.73,33.6,122.76,33.5ZM126.27,57a.08.08,0,0,0,.12,0c.09-.09,0-.53-.07-.54S126.19,56.82,126.27,57ZM121.14,32.2c0-.08,0-.1-.12-.24s-.28-.09-.2.08S121.12,32.3,121.14,32.2Zm2,4.83c.12.09.12,0,.1-.07S123.15,37,123.16,37Zm.88.35a12.21,12.21,0,0,0-.78-2.56c-.16-.14-.14,0,.09.75C123.71,36.77,123.93,37.4,124,37.38Zm.41,4.22c0-.19-.19-.35-.25-.22a1,1,0,0,1,.13.26C124.36,41.8,124.45,41.77,124.45,41.6Zm1.92,14.53c.07-.19,0-.25-.1-.36a.34.34,0,0,1-.14-.23.31.31,0,0,0-.13-.2.78.78,0,0,1-.23-.31c.19,0,.29,0,.56-.25a1.12,1.12,0,0,1-.11-.42.42.42,0,0,0-.09-.24c-.14-.09-.19-.08-.19.05a.72.72,0,0,1-.1.26c-.1.14-.11.14-.14,0-.14-.63-.25-.59-.22.1s.17,1.19.42,1.13.18,0,.22.24S126.3,56.31,126.37,56.13Zm-6-23.15s-.07-.3-.43-.86C119.93,32.3,120.29,33.05,120.33,33Zm5.78,26.27c0,.13,0,.24.08.24s0-.08,0-.18a.51.51,0,0,0-.08-.24S126.1,59.11,126.11,59.25ZM122,37.42s0,0,0,.15.07.19.1.18,0-.07,0-.15A.37.37,0,0,0,122,37.42Zm-1.09-3.25c-.25-.66-.5-1-.4-.62a3.05,3.05,0,0,0,.16.45c.06.14.25.57.4,1s.32.83.37.93a1.17,1.17,0,0,0-.12-.68Z"/></g></g></svg>