<svg xmlns="http://www.w3.org/2000/svg" xmlns:xlink="http://www.w3.org/1999/xlink" viewBox="0 0 518.65 515.1"><defs><style>.cls-1{fill:none;}.cls-2{isolation:isolate;}.cls-3{clip-path:url(#clip-path);}.cls-4{fill:#92c6cc;mix-blend-mode:multiply;}.cls-5{fill:#ffb652;}.cls-6,.cls-7{fill:#fefefe;}.cls-7{stroke:#222221;stroke-linecap:round;stroke-linejoin:round;stroke-width:0;}</style><clipPath id="clip-path" transform="translate(-4.7 -37.4)"><rect class="cls-1" width="443.03" height="500"/></clipPath></defs><title>mian_1</title><g class="cls-2"><g id="Layer_2" data-name="Layer 2"><g id="OBJECTS"><g class="cls-3"><path class="cls-4" d="M42,187.43a1.34,1.34,0,0,1,2.28-1,17.6,17.6,0,0,0,5.22,3.85c-17.65-25.95,4.24-54.75,17.39-78.16a1.42,1.42,0,0,1,2.65.77A77.64,77.64,0,0,0,70.34,123c5.38-17.25,10.81-38.22,23.5-49.83,14.36-13.15,35.21-10.35,51.95-17.52.93-.4,1.91,1,1.33,1.87l-1,1.53a80.68,80.68,0,0,1,67.5.68c10.08,4.77,19.19,9.25,29.85,12.51,16,4.88,31.24,11.82,42.58,25.39,10.2,12.21,18.45,29,20.38,45.54a1.39,1.39,0,0,1,.5.3c24.71,22.65,22.56,60.2,20.32,91.83-1.6,22.71-2.62,45.8,6.49,67,7.85,18.28,20.92,33.19,35,46.08,28.64,26.24,59.26,48.5,85.52,77.88a496.29,496.29,0,0,1,33.62,42c10.47,14.65,20.49,30.13,20.92,49.26a1.32,1.32,0,0,1-1.58,1.46,1.23,1.23,0,0,1-1.06,1.59c-23.62,3.06-48.58.76-72.37.92-24.81.17-49.63.56-74.44,1-48.93.91-97.83,2.74-146.75,4.3-1.57,0-2.16-1.57-1.76-2.82a2.11,2.11,0,0,1-.29-1c-.56-27.71,16.82-55.46,44.18-52.2-6.19-23.57-30-29.06-48.46-16.68-8.69,5.82-18.71,19.93-29.57,10.94-5.56-4.6-9-12.36-13.39-18.11-3.42-4.51-7.2-8.49-12.37-10.6-3.27-1.33-6.9-1.28-10.11-2.82-5.16-2.48-10-9.39-6.16-14.29-6.31-.48-10.54-4.13-12.83-10.69-1.81-5.22-3.85-10.34-9.64-12.26-2.4-.79-6.23.22-8.74,0-3.37-.36-6.25-1.14-8.84-3.58-6.21-5.85-5.15-15.64-3.56-23.35,1.73-8.33,3.48-16.47,3.73-25.06.18-6-.91-12-.19-17.9C81.16,322.24,74.71,309,71.42,295.22c-4.54-19.08-7.5-41.15-5.42-60.87a1.65,1.65,0,0,1-.54-.16C49.22,225.31,40.15,207,42,187.43Z" transform="translate(-4.7 -37.4)"/><path class="cls-4" d="M20.49,212.93c.05-1.28,1.25-2,2.22-1.19a17.19,17.19,0,0,0,5.44,3.48C9,190.56,29.12,160.29,40.85,136a1.41,1.41,0,0,1,2.69.59,78,78,0,0,0,1.39,10.09c4.34-17.59,8.51-38.89,20.48-51.37C79,81.2,99.93,82.53,116.2,74.21c.91-.46,2,.86,1.44,1.78-.3.53-.61,1.06-.92,1.59a81.5,81.5,0,0,1,45.42-9.21,79.84,79.84,0,0,1,22,5.19c10.34,4,19.7,7.89,30.53,10.4,16.21,3.75,31.88,9.61,44,22.36,10.91,11.47,20.14,27.67,23.05,44a1.44,1.44,0,0,1,.52.27c26,20.87,26.09,58.49,25.75,90.21-.25,22.78.11,45.89,10.46,66.42,8.92,17.69,22.85,31.65,37.66,43.53,30.14,24.19,62,44.27,90,71.75a486,486,0,0,1,36.06,39.58c11.32,13.89,22.24,28.63,23.81,47.7a1.34,1.34,0,0,1-1.49,1.57,1.25,1.25,0,0,1-1,1.66c-23.38,4.7-48.43,4.15-72.16,6-24.75,1.89-49.49,4-74.22,6.21-48.78,4.32-97.46,9.56-146.19,14.53-1.57.16-2.25-1.41-1.93-2.69a2.08,2.08,0,0,1-.34-1c-2.22-27.62,13.48-56.53,41-55.19C242,457.79,218,454,200.25,467.61c-8.32,6.42-17.48,21.2-28.86,13-5.82-4.2-9.74-11.7-14.43-17.14-3.69-4.27-7.7-8-13-9.71-3.33-1.11-6.95-.8-10.24-2.11-5.3-2.12-10.5-8.68-7-13.83-6.33,0-10.77-3.39-13.44-9.78-2.13-5.08-4.46-10-10.35-11.55-2.45-.63-6.21.65-8.73.56-3.38-.12-6.3-.7-9-3-6.54-5.4-6.07-15.24-4.93-23,1.22-8.44,2.48-16.68,2.22-25.27-.18-6-1.62-11.92-1.25-17.85-13.63-3.2-20.86-15.95-24.95-29.48-5.67-18.73-9.94-40.55-9-60.37a1.39,1.39,0,0,1-.54-.12C29.93,250.22,19.79,232.59,20.49,212.93Z" transform="translate(-4.7 -37.4)"/><path class="cls-4" d="M5.56,231.07c0-1.28,1.2-2,2.19-1.24a17.1,17.1,0,0,0,5.53,3.32c-19.84-24.11-.55-54.93,10.5-79.53a1.41,1.41,0,0,1,2.7.52,79,79,0,0,0,1.67,10c3.85-17.7,7.43-39.11,19.05-51.91C60.35,97.78,81.35,98.53,97.39,89.76c.9-.49,2,.8,1.49,1.73L98,93.11a81.6,81.6,0,0,1,45.15-10.47,80.13,80.13,0,0,1,22.11,4.58c10.46,3.76,19.92,7.34,30.81,9.55,16.31,3.3,32.13,8.72,44.6,21.13,11.23,11.17,20.91,27.11,24.26,43.37a1.51,1.51,0,0,1,.53.25C292,181.67,293.17,219.27,293.7,251c.38,22.77,1.38,45.87,12.3,66.1,9.41,17.43,23.72,31,38.85,42.47,30.8,23.35,63.23,42.54,91.93,69.23a487,487,0,0,1,37.14,38.56c11.7,13.58,23,28,25.13,47a1.35,1.35,0,0,1-1.46,1.61,1.25,1.25,0,0,1-.91,1.69c-23.25,5.35-48.3,5.49-72,8-24.68,2.58-49.35,5.38-74,8.26-48.64,5.68-97.17,12.26-145.73,18.58-1.57.21-2.29-1.35-2-2.63a2.2,2.2,0,0,1-.37-1c-3-27.54,11.91-56.87,39.44-56.29-8.22-22.87-32.39-26-49.71-11.89-8.14,6.64-16.89,21.67-28.49,13.78-5.93-4-10.06-11.43-14.9-16.73-3.81-4.17-7.91-7.76-13.25-9.35-3.36-1-7-.6-10.3-1.83-5.36-2-10.73-8.38-7.38-13.63-6.33.14-10.86-3.08-13.71-9.4-2.26-5-4.73-9.91-10.66-11.26-2.47-.56-6.19.82-8.71.8-3.39,0-6.32-.52-9.12-2.7-6.68-5.22-6.49-15.08-5.57-22.9,1-8.47,2-16.74,1.53-25.32-.35-6-2-11.87-1.75-17.81C56.29,361.51,48.71,349,44.24,335.55,38.05,317,33.18,295.3,33.53,275.46a1.58,1.58,0,0,1-.55-.11C16,268.09,5.41,250.75,5.56,231.07Z" transform="translate(-4.7 -37.4)"/><path class="cls-4" d="M66,168.3a1.34,1.34,0,0,1,2.31-1,17.7,17.7,0,0,0,5.11,4C56.5,144.86,79.18,116.78,93,93.82a1.41,1.41,0,0,1,2.62.86,79.88,79.88,0,0,0,.5,10.18C102,87.8,108,67,121,55.82,135.7,43.15,156.46,46.63,173.39,40c.94-.37,1.88,1.07,1.28,1.92l-1.06,1.5a80.79,80.79,0,0,1,67.45,2.88C251,51.4,260,56.18,270.55,59.78c15.81,5.4,30.89,12.84,41.84,26.77,9.86,12.53,17.64,29.61,19.11,46.18a1.48,1.48,0,0,1,.49.32c24.07,23.44,20.87,60.9,17.76,92.45-2.24,22.65-3.9,45.69,4.62,67.19,7.34,18.52,20,33.85,33.68,47.19,27.9,27.17,57.88,50.42,83.31,80.64a494,494,0,0,1,32.44,43.09c10.06,15,19.65,30.78,19.55,49.92a1.33,1.33,0,0,1-1.63,1.41,1.23,1.23,0,0,1-1.1,1.56c-23.7,2.29-48.59-.83-72.37-1.45-24.8-.64-49.61-1.06-74.43-1.41-48.93-.69-97.86-.46-146.8-.5-1.58,0-2.12-1.63-1.69-2.87a2.18,2.18,0,0,1-.25-1c.2-27.71,18.35-54.89,45.61-50.74-5.53-23.76-29.16-30-48-18.25-8.85,5.53-19.26,19.31-29.87,10-5.43-4.78-8.67-12.65-12.87-18.53-3.3-4.63-7-8.73-12.08-11-3.22-1.44-6.86-1.5-10-3.15-5.09-2.65-9.68-9.71-5.76-14.48-6.3-.68-10.42-4.47-12.52-11.11-1.67-5.27-3.56-10.45-9.3-12.56-2.38-.88-6.24,0-8.74-.33-3.35-.47-6.21-1.34-8.74-3.87-6-6.05-4.7-15.8-2.9-23.45,2-8.27,3.93-16.35,4.43-24.93.34-6-.58-12,.3-17.89-13.28-4.59-19.37-18-22.26-31.91-4-19.22-6.35-41.38-3.73-61a1.56,1.56,0,0,1-.53-.17C72.14,206.4,63.58,187.8,66,168.3Z" transform="translate(-4.7 -37.4)"/></g><circle class="cls-5" cx="188.57" cy="168.59" r="80.32"/></g><g id="DESIGNED_BY_FREEPIK" data-name="DESIGNED BY FREEPIK"><path class="cls-6" d="M229.76,180.41c-.1-1.2.11-2.92-1.25-3.39a11.14,11.14,0,0,0-2.83-.27l-3.31-.26c-.07-.24-.15-.47-.24-.71a22.1,22.1,0,0,0-4.66-7.47,30.29,30.29,0,0,0,2.55-5.38c.43-1.6-1.24-2.37-2.33-3.26s-1.94-1.93-3.35-1.36a30.35,30.35,0,0,0-5.8,3.4,31,31,0,0,0-8.59-2.78c-.09-.5-.19-1-.3-1.48a28,28,0,0,1-.55-4.66,1,1,0,0,0-1-1,23.72,23.72,0,0,1-4.53-.27,1,1,0,0,0-1.17.66c-.46,1.49-1,3-1.39,4.47a19.37,19.37,0,0,0-.63,2.24,24.86,24.86,0,0,0-8.67,2.45l-2.29-1.49a22,22,0,0,0-3.25-2.1c-1.29-.54-2,.48-2.9,1.39s-2.31,2.17-1.9,3.59a20.47,20.47,0,0,0,2.34,4.74,27.13,27.13,0,0,0-5.23,8.78l-2.82.34a14.3,14.3,0,0,0-2.8.35c-1.39.49-1.26,2.69-1.5,3.9-.27,1.46-.79,2.48.65,3.28a40.16,40.16,0,0,0,4.9,2.23,28.5,28.5,0,0,0,2,9.38,27.81,27.81,0,0,0-3.64,3.72c-1.3,1.47-1.17,2.06-.26,3.83.6,1.16,1.19,3.49,2.88,3.33a15.2,15.2,0,0,0,3-1.17,23.77,23.77,0,0,1,3.42-.86,28.8,28.8,0,0,0,4.34,4.06,27.18,27.18,0,0,0,2.61,1.77c-.21,2.17-.69,4.38-.73,6.51,0,1.67,2,2.16,3.28,2.75s2.32,1.3,3.44.35c1.58-1.34,2.73-3.89,3.88-5.61a.88.88,0,0,0,.15-.35,14,14,0,0,0,2.87.19,21.05,21.05,0,0,0,6.44,0,19.86,19.86,0,0,0,3.65,4.41c1.17,1,2.91.14,4.25-.17,1-.25,1.8-.48,1.91-1.65a19,19,0,0,0-.84-6,32.22,32.22,0,0,0,7.46-6.44,25.2,25.2,0,0,0,6.47,1.79c1.65.09,2.32-1.67,3.13-2.86s1.47-1.9.41-3.19a25.17,25.17,0,0,0-4.53-4.58,22.9,22.9,0,0,0,1.62-8.36,18.14,18.14,0,0,0,4.78-2.8C230.24,183.28,229.91,182,229.76,180.41Zm-19.12-18a1.89,1.89,0,0,0-.09.34l-.28-.17Zm4.11,29.72a18.93,18.93,0,0,1-20.54,14.18,1,1,0,0,0-.91.27c-8-1.29-14.35-7.11-16.88-15a17.76,17.76,0,0,1,.51-13.23,21.06,21.06,0,0,1,7.48-8.64,20.43,20.43,0,0,1,22.14-.14C213.94,174.37,216.93,183.78,214.75,192.17Z" transform="translate(-4.7 -37.4)"/><path class="cls-6" d="M165.46,190.84c-.1-.9-.14-1.68-1.12-2a12.18,12.18,0,0,0-4.18-.26,20.53,20.53,0,0,0-2.76-5,14.43,14.43,0,0,0,1.94-3.57c.36-1.19-.28-1.76-1.17-2.43-.74-.55-1.61-1.54-2.62-1.2a9.39,9.39,0,0,0-3.18,2.63,18.15,18.15,0,0,0-4-1.79,18.81,18.81,0,0,0-2.22-.52,37.79,37.79,0,0,0-.51-4,.65.65,0,0,0-.63-.48c-1,0-2,0-3,.06-.61,0-1.16,0-1.56.53a5.7,5.7,0,0,0-.72,2.1,13.82,13.82,0,0,0-.31,1.78,18.86,18.86,0,0,0-5.54,1.95,33,33,0,0,0-3.72-2.58c-1.1-.57-1.81.32-2.63,1s-1.71,1.2-1.31,2.36a18.79,18.79,0,0,0,2.06,3.88,19.15,19.15,0,0,0-3.14,5.6,29.76,29.76,0,0,0-4-.15c-1.32,0-1.47,1.08-1.6,2.2s-.22,2.34,1,2.91a21,21,0,0,0,3.52,1.41,19.19,19.19,0,0,0,.88,5.79,18.29,18.29,0,0,0-3.25,2.7c-.82.91-.42,1.58.2,2.51s1.26,2.67,2.53,2.75a10.51,10.51,0,0,0,2.4-.42l2.19-.42a18.61,18.61,0,0,0,4.55,3.56c-.13,1.31-.43,2.59-.59,3.92s.61,1.58,1.68,1.91,2.19.91,3.12.19A7.54,7.54,0,0,0,139,216c.46-.68.92-1.35,1.37-2a18.94,18.94,0,0,0,5-.09l.25,0c.4.7.8,1.39,1.26,2.06a6.07,6.07,0,0,0,1.44,1.78c1.19.72,3.18-.54,4.26-1.07a.76.76,0,0,0,.39-.67c-.19-1.42-.38-2.84-.58-4.25a19.79,19.79,0,0,0,4.61-3.73,13.6,13.6,0,0,0,3.77,1.22c1.15.1,1.68-1.38,2.21-2.2s1.12-1.53.55-2.5a10.73,10.73,0,0,0-2.83-2.75,17,17,0,0,0,.89-6.06,16.39,16.39,0,0,0,3.35-1.88C165.94,193.05,165.58,191.87,165.46,190.84ZM143.82,209c-3.25-.31-6.16-.56-9-2.55a13.11,13.11,0,0,1-5.6-9.52,13.48,13.48,0,0,1,13-14.85c7.77-.31,13.79,5.92,14,13.58C156.42,202.91,150.49,207.94,143.82,209Z" transform="translate(-4.7 -37.4)"/><path class="cls-6" d="M241.09,235.45c-.14-1-.09-2.23-1.19-2.67a7.12,7.12,0,0,0-2.11-.22l-2.57-.15a21.43,21.43,0,0,0-3.43-6.23,31.93,31.93,0,0,1,2.14-4.15.76.76,0,0,0-.27-1c-.95-.74-2.78-2.84-4.08-2.57-.71.14-1.42.93-2,1.36s-1.18.93-1.74,1.42a21.43,21.43,0,0,0-6.77-2.3,35,35,0,0,0-.87-4.54.88.88,0,0,0-.83-.63h-3.74a.88.88,0,0,0-.83.63c-.58,1.5-1.2,3-1.65,4.55a19.22,19.22,0,0,0-6.21,2.3,22.86,22.86,0,0,0-3.79-2.58c-1.29-.56-2.31.94-3.15,1.73s-1.58,1.47-1.09,2.7a15.78,15.78,0,0,0,2.2,3.46,22.74,22.74,0,0,0-2.92,5.42q-1.07,0-2.13.12a12,12,0,0,0-3,.29c-.6.22-.72.54-.89,1.14-.31,1.06-.49,2.2-.73,3.28a.82.82,0,0,0,.56,1,30.39,30.39,0,0,1,4.81,2.14,24.91,24.91,0,0,0,1,6.85c-.38.33-.75.67-1.12,1a12.64,12.64,0,0,0-2.58,2.64c-.73,1.4,1,3.39,1.68,4.58a.83.83,0,0,0,.9.37q2.51-.65,5-1.38a13.21,13.21,0,0,0,3.78,2.92,1.35,1.35,0,0,0,.6.78l1,.58,0,.14a1.5,1.5,0,0,0-.18,1c-.23,1.22-.41,2.45-.6,3.68a.7.7,0,0,0,.47.84,11.45,11.45,0,0,1,2.78,1A1.7,1.7,0,0,0,209,265a3.68,3.68,0,0,0,1.28-1.53c.59-.92,1.18-1.83,1.76-2.76a22,22,0,0,0,7,0c.86,1.22,1.76,2.43,2.7,3.56s1.63.66,2.8.32,2.14-.42,2.36-1.65a13,13,0,0,0-.54-4.87,20.36,20.36,0,0,0,2.56-1.8,20.83,20.83,0,0,0,2.61-2.62c.9.2,1.79.41,2.68.65a7.62,7.62,0,0,0,2.37.58c1.42-.12,2.34-2.41,2.9-3.49a.8.8,0,0,0-.12-1q-2-1.82-4-3.65a22,22,0,0,0,1.13-6.44,23.69,23.69,0,0,0,3.82-2C241.35,237.62,241.25,236.6,241.09,235.45Zm-12.21,11.67a16.54,16.54,0,0,1-16.89,7.8,15.35,15.35,0,0,1-4.44-1.85,15,15,0,0,1-6.35-7.84c-2.16-6.23.08-13.9,5.56-17.68s14.08-3.45,19,1.34C230.5,233.44,232.16,241.32,228.88,247.12Z" transform="translate(-4.7 -37.4)"/><path class="cls-6" d="M264.14,221.6a8.51,8.51,0,0,0,2.61-1.18c.8-.65.59-2.18.62-3.1a.67.67,0,0,0-.67-.66l-3.07-.37a16.48,16.48,0,0,0-1.55-3.87,6.58,6.58,0,0,0,1.39-2.22c.15-.8-.48-1.31-1-1.82s-1-.87-1.77-.49a7.51,7.51,0,0,0-1.58.88l-.24-.21a11,11,0,0,0-4.72-2.23l-.09-1.12a2.49,2.49,0,0,0-.26-1.3c-.49-.7-2-.6-2.72-.71a.72.72,0,0,0-.85.49c-.3.85-.63,1.7-.85,2.58a15.83,15.83,0,0,0-3.95,1.21,8.37,8.37,0,0,0-2.54-1.87.76.76,0,0,0-.88.12,5.69,5.69,0,0,1-1.63,1,.74.74,0,0,0-.44,1.07,10.69,10.69,0,0,1,1,2.68.33.33,0,0,0,0,.06,12.48,12.48,0,0,0-2.61,3.86l-2.49-.19a.73.73,0,0,0-.71.54c-.22.74-1,2.27-.33,2.93a3.44,3.44,0,0,0,1.34.59c.36.12.73.22,1.1.31a13.26,13.26,0,0,0,.35,4.61,12.78,12.78,0,0,0-2.1,2.27c-.63.93.27,2.05.7,2.91a.78.78,0,0,0,.86.36,23.33,23.33,0,0,1,2.63-.46.79.79,0,0,0,.45-.21,15.36,15.36,0,0,0,3,2.77c-.08.5-.16,1-.27,1.51a9.78,9.78,0,0,0-.5,1.77c0,1.11,1.77,1.6,2.55,2a.68.68,0,0,0,.9-.24c.65-1,1.29-2,1.86-3a11,11,0,0,0,3.87.45c.55,1,1.11,2.06,1.75,3.06a.72.72,0,0,0,1,.23,3.13,3.13,0,0,0,1.95-.68,1,1,0,0,0,.37-.32,1.67,1.67,0,0,0,.2-1.35c-.12-.69-.27-1.39-.42-2.08a14.53,14.53,0,0,0,4.15-2.64,9.84,9.84,0,0,0,2.22,1.17c.85.26,1.29-.47,1.79-1s1.07-1.16.68-2a4.38,4.38,0,0,0-2.12-1.79,1,1,0,0,1,0-.1A14.19,14.19,0,0,0,264.14,221.6Zm-4.22,1.24c-1.77,5.11-7.2,7.49-12.23,6.55A11,11,0,0,1,244,227a9.62,9.62,0,0,1-2.72-7.38c.41-5.63,6-10.25,11.64-8.92A9.44,9.44,0,0,1,259.92,222.84Z" transform="translate(-4.7 -37.4)"/><path class="cls-7" d="M241.34,210.6s0,0,0,0" transform="translate(-4.7 -37.4)"/></g></g></g></svg>