<svg xmlns="http://www.w3.org/2000/svg" xmlns:xlink="http://www.w3.org/1999/xlink" viewBox="0 0 373.83 324"><defs><style>.cls-1,.cls-5{fill:none;}.cls-2{fill:#7baeff;}.cls-3{fill:#6d8fcc;opacity:0.6;}.cls-4{fill:#fafeff;}.cls-5{stroke:#5b8bd8;stroke-miterlimit:10;stroke-dasharray:3;}.cls-6{fill:#8aaff9;}.cls-7{fill:#aecdff;}.cls-8{fill:#5b8bd8;}.cls-9{clip-path:url(#clip-path);}.cls-10{opacity:0.3;}.cls-11{fill:#f7d946;}.cls-12{fill:url(#Degradado_sin_nombre_7);}.cls-13{fill:url(#Degradado_sin_nombre_7-2);}.cls-14{opacity:0.7;}.cls-15{fill:url(#Degradado_sin_nombre_7-3);}.cls-16{fill:url(#Degradado_sin_nombre_7-4);}.cls-17{fill:url(#Degradado_sin_nombre_7-5);}.cls-18{fill:url(#Degradado_sin_nombre_7-6);}.cls-19{fill:url(#Degradado_sin_nombre_7-7);}.cls-20{fill:url(#Degradado_sin_nombre_7-8);}</style><clipPath id="clip-path"><path class="cls-1" d="M178.13,55.15a20.73,20.73,0,0,0-22.49-25A20.69,20.69,0,0,0,138.5,17.57a20.72,20.72,0,0,0-31-6.59,20.94,20.94,0,0,0-8.61-1.87A20.71,20.71,0,0,0,78.8,24.7,20.7,20.7,0,0,0,54.32,49.07a20.71,20.71,0,0,0,13.6,36.32A20.72,20.72,0,0,0,93.39,96.32a20.73,20.73,0,0,0,21,4.58,20.72,20.72,0,0,0,32.14-.49,20.27,20.27,0,0,0,3.82.36A20.66,20.66,0,0,0,166,93.6c.5,0,1,.05,1.49.05a20.72,20.72,0,0,0,10.62-38.5Z"/></clipPath><linearGradient id="Degradado_sin_nombre_7" x1="117.77" y1="12" x2="117.77" y2="40.94" gradientUnits="userSpaceOnUse"><stop offset="0" stop-color="#f7d946" stop-opacity="0"/><stop offset="1" stop-color="#f7da4b"/></linearGradient><linearGradient id="Degradado_sin_nombre_7-2" x1="117.77" y1="97.86" x2="117.77" y2="66.46" xlink:href="#Degradado_sin_nombre_7"/><linearGradient id="Degradado_sin_nombre_7-3" x1="162.41" y1="57.12" x2="126.95" y2="57.12" xlink:href="#Degradado_sin_nombre_7"/><linearGradient id="Degradado_sin_nombre_7-4" x1="67.88" y1="57.12" x2="106.48" y2="57.12" xlink:href="#Degradado_sin_nombre_7"/><linearGradient id="Degradado_sin_nombre_7-5" x1="151.28" y1="85.41" x2="125" y2="68.53" xlink:href="#Degradado_sin_nombre_7"/><linearGradient id="Degradado_sin_nombre_7-6" x1="86.1" y1="26.65" x2="110.7" y2="53.18" xlink:href="#Degradado_sin_nombre_7"/><linearGradient id="Degradado_sin_nombre_7-7" x1="82.58" y1="74.5" x2="115.78" y2="74.5" xlink:href="#Degradado_sin_nombre_7"/><linearGradient id="Degradado_sin_nombre_7-8" x1="148.97" y1="28.04" x2="130.64" y2="44.19" xlink:href="#Degradado_sin_nombre_7"/></defs><title>main_2</title><g id="Layer_2" data-name="Layer 2"><g id="OBJECTS"><path class="cls-2" d="M197.12,74.06c.1,19.71-6.21,38.92-14.26,56.91-5.32,11.91-11.53,23.75-13,36.71-1.91,16.47,4,32.91,12.12,47.39s18.35,27.65,26.24,42.23A150.14,150.14,0,0,1,226.14,324H64.82c2-11.3,6.23-26.46,12.38-36.15,6.75-10.63,15.68-19.69,22.9-30s3.13-56-6.14-61.37C77,199.2,59.84,201.92,42.81,200c-6.12-.71-12.72-2.34-16.45-7.25-5.69-7.46-2-20.56-3.3-29.85a17.16,17.16,0,0,1-3-2.16,9.33,9.33,0,0,1-2.68-9.58,22.51,22.51,0,0,0,.73-5.3c-2-2.1-4.52-4.65-4.26-7.57.35-3.8,1.84-4.53-.11-7.8C-8.37,127.82,2,112.71,5.46,110.75c10.89-6.17,22.28-28.57,22.72-32.5,1.76-15.35-.54-30.84,6.49-44.6C41.44,20.4,54.33,11,68.33,5.94s29.13-6.1,44-5.92c21.66.26,44.41,3.47,61.71,16.5S197,52.22,197.12,74.06Z"/><path class="cls-3" d="M176.71,74.06C176.61,93.77,182.92,113,191,131c5.33,11.91,11.53,23.75,13,36.71,1.92,16.47-4,32.91-12.12,47.39s-18.35,27.65-26.24,42.23A150.26,150.26,0,0,0,147.7,324H309c-2-11.3-6.23-26.46-12.38-36.15-6.74-10.63-15.68-19.69-22.9-30s-3.12-56,6.14-61.37C296.8,199.2,314,201.92,331,200c6.12-.71,12.72-2.34,16.45-7.25,5.68-7.46,2-20.56,3.3-29.85a17.54,17.54,0,0,0,3-2.16,9.37,9.37,0,0,0,2.68-9.58,23,23,0,0,1-.74-5.3c2-2.1,4.53-4.65,4.26-7.57-.34-3.8-1.83-4.53.12-7.8,22.08-2.64,11.7-17.75,8.25-19.71-10.88-6.17-22.27-28.57-22.72-32.5-1.75-15.35.55-30.84-6.48-44.6C332.39,20.4,319.51,11,305.5,5.94s-29.13-6.1-44-5.92c-21.66.26-44.4,3.47-61.71,16.5S176.82,52.22,176.71,74.06Z"/><path class="cls-4" d="M178.13,55.15a20.73,20.73,0,0,0-22.49-25A20.69,20.69,0,0,0,138.5,17.57a20.72,20.72,0,0,0-31-6.59,20.94,20.94,0,0,0-8.61-1.87A20.71,20.71,0,0,0,78.8,24.7,20.7,20.7,0,0,0,54.32,49.07a20.71,20.71,0,0,0,13.6,36.32A20.72,20.72,0,0,0,93.39,96.32a20.73,20.73,0,0,0,21,4.58,20.72,20.72,0,0,0,32.14-.49,20.27,20.27,0,0,0,3.82.36A20.66,20.66,0,0,0,166,93.6c.5,0,1,.05,1.49.05a20.72,20.72,0,0,0,10.62-38.5Z"/><path class="cls-4" d="M201.63,55.15A20.76,20.76,0,0,1,221.88,30a21.2,21.2,0,0,1,2.25.12,20.69,20.69,0,0,1,17.13-12.59,20.73,20.73,0,0,1,31-6.59A20.72,20.72,0,0,1,301,24.7,20.73,20.73,0,0,1,325.85,45a21.35,21.35,0,0,1-.4,4.07,20.72,20.72,0,0,1-13.61,36.32,20.72,20.72,0,0,1-25.47,10.93,20.73,20.73,0,0,1-21,4.58,20.71,20.71,0,0,1-32.13-.49,20.42,20.42,0,0,1-3.82.36,20.66,20.66,0,0,1-15.67-7.17c-.5,0-1,.05-1.49.05a20.72,20.72,0,0,1-10.63-38.5Z"/><line class="cls-5" x1="271.49" y1="51.47" x2="286.81" y2="87.09"/><line class="cls-5" x1="279.15" y1="51.47" x2="294.46" y2="87.09"/><line class="cls-5" x1="286.81" y1="51.47" x2="302.12" y2="87.09"/><path class="cls-6" d="M286.71,41.46c.31,2.2-1.61,4.27-3.78,4.77s-4.4-.29-6.38-1.3a5.69,5.69,0,0,1-4.05,3.92,10.16,10.16,0,0,1-5.82-.33c-2-.63-3.93-2-4.51-4-1.24,1.78-3.56,2.41-5.72,2.61a13.24,13.24,0,0,1-6.52-.85,7.23,7.23,0,0,1-4.17-4.82,7.36,7.36,0,0,1-3.48-2.3,4.47,4.47,0,0,1-.88-4,4,4,0,0,1,3.78-2.28,7.38,7.38,0,0,1,11.75-3.37c1.28-3.5,4.34-6.48,8-7s7.75,2,8.42,5.63c1.51-2.34,5-2.74,7.45-1.36s3.82,4.1,4.4,6.82c.53-.77,2-.39,2.88-.15A5.66,5.66,0,0,1,291.62,36a4,4,0,0,1,0,4.19A4.73,4.73,0,0,1,290,41.58C288.83,42.22,288,41.42,286.71,41.46Z"/><path class="cls-7" d="M303.52,56.89c.31,2.2-1.61,4.27-3.78,4.77s-4.4-.3-6.38-1.3a5.67,5.67,0,0,1-4.05,3.91,10.15,10.15,0,0,1-5.82-.32c-2-.63-3.93-2-4.51-4-1.24,1.78-3.56,2.41-5.72,2.6a13,13,0,0,1-6.52-.85,7.19,7.19,0,0,1-4.17-4.81,7.36,7.36,0,0,1-3.48-2.3,4.48,4.48,0,0,1-.88-4A4,4,0,0,1,262,48.36,7.38,7.38,0,0,1,273.74,45c1.28-3.5,4.34-6.48,8-7s7.76,2,8.42,5.64c1.51-2.35,5-2.75,7.45-1.36s3.82,4.1,4.4,6.82c.53-.77,2-.39,2.88-.15a5.66,5.66,0,0,1,3.51,2.49,4,4,0,0,1,0,4.19A4.73,4.73,0,0,1,306.77,57C305.64,57.64,304.82,56.85,303.52,56.89Z"/><path class="cls-8" d="M272.71,57.36c.36,2.6-1.89,5-4.45,5.63s-5.18-.35-7.52-1.54A6.67,6.67,0,0,1,256,66.06a11.88,11.88,0,0,1-6.85-.38c-2.33-.74-4.64-2.34-5.32-4.69-1.46,2.1-4.19,2.84-6.73,3.07a15.59,15.59,0,0,1-7.69-1,8.49,8.49,0,0,1-4.91-5.67,8.69,8.69,0,0,1-4.1-2.71,5.24,5.24,0,0,1-1-4.68c.49-1.59,2.78-2.82,4.44-2.68a8.69,8.69,0,0,1,13.85-4c1.5-4.13,5.11-7.64,9.46-8.23s9.14,2.32,9.93,6.64c1.77-2.76,5.93-3.24,8.78-1.6s4.49,4.83,5.17,8c.63-.91,2.33-.46,3.4-.18a6.71,6.71,0,0,1,4.14,2.93,4.7,4.7,0,0,1,0,4.94,5.82,5.82,0,0,1-1.92,1.63C275.21,58.25,274.24,57.31,272.71,57.36Z"/><line class="cls-5" x1="225.55" y1="51.47" x2="240.87" y2="87.09"/><line class="cls-5" x1="233.21" y1="51.47" x2="248.52" y2="87.09"/><line class="cls-5" x1="240.87" y1="51.47" x2="256.18" y2="87.09"/><line class="cls-5" x1="248.52" y1="51.47" x2="263.84" y2="87.09"/><line class="cls-5" x1="256.18" y1="51.47" x2="271.49" y2="87.09"/><line class="cls-5" x1="263.84" y1="51.47" x2="279.15" y2="87.09"/><g class="cls-9"><g class="cls-10"><circle class="cls-11" cx="117.83" cy="57.4" r="20.45" transform="translate(34.68 158.71) rotate(-76.6)"/></g><polygon class="cls-12" points="118.81 53.43 116.73 53.43 114.63 12 120.91 12 118.81 53.43"/><polygon class="cls-13" points="116.73 60.8 118.81 60.8 120.91 102.24 114.63 102.24 116.73 60.8"/><g class="cls-14"><polygon class="cls-15" points="121.46 58.16 121.46 56.08 162.89 53.98 162.89 60.26 121.46 58.16"/><polygon class="cls-16" points="114.09 56.08 114.09 58.16 72.65 60.26 72.65 53.98 114.09 56.08"/></g><polygon class="cls-17" points="119.72 60.42 121.15 58.91 152.54 86.04 148.2 90.58 119.72 60.42"/><polygon class="cls-18" points="115.83 53.82 114.39 55.32 83 28.19 87.34 23.65 115.83 53.82"/><g class="cls-14"><polygon class="cls-19" points="114.36 58.87 115.78 60.39 86.86 90.14 82.58 85.53 114.36 58.87"/><polygon class="cls-20" points="121.18 55.37 119.77 53.85 148.69 24.1 152.96 28.7 121.18 55.37"/></g><circle class="cls-11" cx="117.83" cy="57.4" r="17.4" transform="translate(35.59 159.45) rotate(-77.11)"/></g></g></g></svg>