<svg xmlns="http://www.w3.org/2000/svg" viewBox="0 0 500 373.22"><defs><style>.cls-1{fill:#ebebeb;}.cls-2{fill:#f0f0f0;}.cls-3{fill:#e6e6e6;}.cls-4{fill:#e0e0e0;}.cls-5{fill:#f5f5f5;}.cls-16,.cls-6{fill:#fff;}.cls-7,.cls-8{fill:#407bff;}.cls-7{opacity:0.3;}.cls-9{opacity:0.2;}.cls-10{fill:#263238;}.cls-11{fill:#7f3e3b;}.cls-12{fill:#630f0f;}.cls-13{fill:#ffc3bd;}.cls-14{fill:#ed847e;}.cls-15{fill:#ce7a63;}.cls-16{opacity:0.1;}.cls-17{fill:#ba4d3c;}</style></defs><title>teams</title><g id="Layer_2" data-name="Layer 2"><g id="Background_Complete" data-name="Background Complete"><rect class="cls-1" y="328.06" width="500" height="0.25"/><rect class="cls-1" x="324.56" y="334.87" width="33.12" height="0.25"/><rect class="cls-1" x="428.57" y="337.06" width="8.69" height="0.25"/><rect class="cls-1" x="358.68" y="344.16" width="19.19" height="0.25"/><rect class="cls-1" x="206.81" y="340.77" width="43.19" height="0.25"/><rect class="cls-1" x="191.57" y="340.77" width="6.33" height="0.25"/><rect class="cls-1" x="77.31" y="336.55" width="93.68" height="0.25"/><path class="cls-1" d="M237,283.46H43.91a5.71,5.71,0,0,1-5.7-5.7V6.32a5.71,5.71,0,0,1,5.7-5.7H237a5.71,5.71,0,0,1,5.71,5.7V277.76A5.71,5.71,0,0,1,237,283.46ZM43.91.87a5.46,5.46,0,0,0-5.45,5.45V277.76a5.46,5.46,0,0,0,5.45,5.45H237a5.46,5.46,0,0,0,5.46-5.45V6.32A5.46,5.46,0,0,0,237,.87Z"/><path class="cls-1" d="M453.31,283.46H260.21a5.72,5.72,0,0,1-5.71-5.7V6.32a5.72,5.72,0,0,1,5.71-5.7h193.1A5.71,5.71,0,0,1,459,6.32V277.76A5.71,5.71,0,0,1,453.31,283.46ZM260.21.87a5.46,5.46,0,0,0-5.46,5.45V277.76a5.46,5.46,0,0,0,5.46,5.45h193.1a5.46,5.46,0,0,0,5.46-5.45V6.32A5.46,5.46,0,0,0,453.31.87Z"/><rect class="cls-1" x="60.57" y="233.52" width="36.07" height="3.31"/><path class="cls-2" d="M79.1,223.33h0a3.29,3.29,0,0,1-2.55-3.9l3.29-15.75a3.3,3.3,0,0,1,3.9-2.55h0a3.3,3.3,0,0,1,2.55,3.9L83,220.78A3.29,3.29,0,0,1,79.1,223.33Z"/><path class="cls-2" d="M77.12,223h0a2.82,2.82,0,0,1-3.21-2.37L71.85,207a2.82,2.82,0,0,1,2.37-3.21h0a2.81,2.81,0,0,1,3.21,2.36l2,13.61A2.81,2.81,0,0,1,77.12,223Z"/><polygon class="cls-3" points="84.73 233.52 72.47 233.52 69.92 218.93 87.28 218.93 84.73 233.52"/><rect class="cls-4" x="68.98" y="216.85" width="19.23" height="4.17"/><polygon class="cls-5" points="100.75 328.06 92.58 236.84 86.14 236.84 98.31 328.06 100.75 328.06"/><polygon class="cls-5" points="56.45 328.06 64.61 236.84 71.06 236.84 58.89 328.06 56.45 328.06"/><polygon class="cls-5" points="74.33 328.06 76.65 236.84 83.09 236.84 76.78 328.06 74.33 328.06"/><rect class="cls-1" x="412.05" y="233.52" width="36.07" height="3.31" transform="translate(860.17 470.35) rotate(180)"/><path class="cls-2" d="M429.59,223.33h0a3.3,3.3,0,0,0,2.55-3.9l-3.29-15.75a3.3,3.3,0,0,0-3.9-2.55h0a3.3,3.3,0,0,0-2.56,3.9l3.29,15.75A3.3,3.3,0,0,0,429.59,223.33Z"/><path class="cls-2" d="M431.57,223h0a2.83,2.83,0,0,0,3.21-2.37l2.06-13.6a2.82,2.82,0,0,0-2.37-3.21h0a2.81,2.81,0,0,0-3.21,2.36l-2.06,13.61A2.82,2.82,0,0,0,431.57,223Z"/><polygon class="cls-3" points="423.96 233.52 436.21 233.52 438.77 218.93 421.4 218.93 423.96 233.52"/><rect class="cls-4" x="420.47" y="216.85" width="19.23" height="4.17" transform="translate(860.17 437.86) rotate(180)"/><polygon class="cls-5" points="407.93 328.06 416.1 236.84 422.54 236.84 410.38 328.06 407.93 328.06"/><polygon class="cls-5" points="452.24 328.06 444.07 236.84 437.63 236.84 449.79 328.06 452.24 328.06"/><polygon class="cls-5" points="434.35 328.06 432.04 236.84 425.59 236.84 431.91 328.06 434.35 328.06"/><rect class="cls-3" x="78.8" y="2.49" width="135.36" height="172.26" transform="translate(235.1 -57.86) rotate(90)"/><rect class="cls-2" x="80.77" y="2.49" width="135.36" height="172.26" transform="translate(237.06 -59.83) rotate(90)"/><rect class="cls-6" x="73.66" y="32.28" width="149.58" height="110.72" transform="translate(296.9 175.27) rotate(180)"/><path class="cls-2" d="M200.69,85.39l3.81-23.61a.6.6,0,0,0-.74-.73l-23.61,3.81c-11.88,1.92-23.1,13.14-25,25l-3.81,23.61a.61.61,0,0,0,.74.74l23.61-3.82C187.54,108.5,198.77,97.27,200.69,85.39Z"/><path class="cls-2" d="M141.76,85.39l3.82-23.61a.6.6,0,0,0-.74-.73l-23.61,3.81c-11.88,1.92-23.1,13.14-25,25L92.4,113.49a.6.6,0,0,0,.73.74l23.61-3.82C128.62,108.5,139.85,97.27,141.76,85.39Z"/><path class="cls-3" d="M171.23,85.39,175,61.78a.6.6,0,0,0-.74-.73l-23.61,3.81c-11.88,1.92-23.1,13.14-25,25l-3.81,23.61a.6.6,0,0,0,.73.74l23.61-3.82C158.08,108.5,169.31,97.27,171.23,85.39Z"/><rect class="cls-3" x="286.64" y="54.74" width="98.81" height="203.11"/><rect class="cls-2" x="290.35" y="54.74" width="109.05" height="203.11"/><rect class="cls-6" x="260.99" y="119.45" width="167.77" height="73.7" transform="translate(501.17 -188.57) rotate(90)"/><rect class="cls-5" x="299.95" y="136.57" width="89.84" height="39.47" rx="7.04" transform="translate(501.17 -188.57) rotate(90)"/></g><g id="Shadow"><ellipse id="_Path_" data-name="&lt;Path&gt;" class="cls-5" cx="250" cy="361.9" rx="193.89" ry="11.32"/></g><g id="Bulb"><path class="cls-7" d="M374.24,88.63a107.14,107.14,0,0,0-3-12.5l1-.29a111.62,111.62,0,0,1,3,12.61Z"/><path class="cls-7" d="M368.1,67.07a112,112,0,0,0-12.39-22.79l.82-.58a112.78,112.78,0,0,1,12.5,23Z"/><path class="cls-7" d="M371.64,127A107.83,107.83,0,0,0,283.16,1.45c-57.39-9.53-112.52,28.83-123.52,86a107.78,107.78,0,0,0,35.88,102.47,30.51,30.51,0,0,1,10,28.64l-1.28,7.08a20.45,20.45,0,0,0,16.49,23.75L258,256.08a20.45,20.45,0,0,0,23.75-16.49l1.28-7.09a30.68,30.68,0,0,1,19.55-23.39A107.79,107.79,0,0,0,371.64,127Z"/><circle class="cls-6" cx="229.51" cy="51.29" r="28.22" transform="translate(-1.14 5.41) rotate(-1.35)"/><circle class="cls-6" cx="276.05" cy="37.89" r="10.37" transform="translate(0.79 81.15) rotate(-16.75)"/></g><g id="Character_1" data-name="Character 1"><path class="cls-8" d="M149.6,100c-.45,2.14-.95,4.53-1.39,6.8s-.84,4.57-1.19,6.82-.6,4.46-.71,6.51c-.06,1,0,2,0,2.81s.18,1.49.14,1.57l-.46-.79c-.21-.21-.58-.4-.65-.31s.18.25.62.36a12.63,12.63,0,0,0,4,.18,44.7,44.7,0,0,0,5-.68c1.7-.31,3.52-.74,5.17-1.09l.3-.06a3.63,3.63,0,0,1,3,6.42,40.41,40.41,0,0,1-5.21,3.4,37.32,37.32,0,0,1-5.83,2.61,22.24,22.24,0,0,1-7.27,1.27,13.64,13.64,0,0,1-4.86-.93,11.23,11.23,0,0,1-5-3.86,4.36,4.36,0,0,1-.35-.59l-.11-.2a19.57,19.57,0,0,1-1.76-5.54,33.06,33.06,0,0,1-.44-4.56,61.49,61.49,0,0,1,.29-8.23c.24-2.64.63-5.22,1.07-7.78s1-5,1.7-7.65a7.22,7.22,0,0,1,14,3.35Z"/><path class="cls-9" d="M149.6,100c-.45,2.14-.95,4.53-1.39,6.8s-.84,4.57-1.19,6.82-.6,4.46-.71,6.51c-.06,1,0,2,0,2.81s.18,1.49.14,1.57l-.46-.79c-.21-.21-.58-.4-.65-.31s.18.25.62.36a12.63,12.63,0,0,0,4,.18,44.7,44.7,0,0,0,5-.68c1.7-.31,3.52-.74,5.17-1.09l.3-.06a3.63,3.63,0,0,1,3,6.42,40.41,40.41,0,0,1-5.21,3.4,37.32,37.32,0,0,1-5.83,2.61,22.24,22.24,0,0,1-7.27,1.27,13.64,13.64,0,0,1-4.86-.93,11.23,11.23,0,0,1-5-3.86,4.36,4.36,0,0,1-.35-.59l-.11-.2a19.57,19.57,0,0,1-1.76-5.54,33.06,33.06,0,0,1-.44-4.56,61.49,61.49,0,0,1,.29-8.23c.24-2.64.63-5.22,1.07-7.78s1-5,1.7-7.65a7.22,7.22,0,0,1,14,3.35Z"/><path class="cls-8" d="M127.21,276.65s-4.58-5.57-4.36-7.43l-5.29-3-3.46,5.42,4.32,2.45.82-.21.5,1a25.81,25.81,0,0,0,7.17,3.15A1.33,1.33,0,0,0,127.21,276.65Z"/><path class="cls-10" d="M132.63,206.62c3.94-28.23,2.66-45.38,6.79-59.29l25.63-2.06S153.69,190,148.48,208.68s-25.19,61.26-25.19,61.26l-7-4S125.69,228.45,132.63,206.62Z"/><path d="M153.53,166.14c-1.74,4-5.14,29.92-5.13,42.84,0-.1,0-.2.08-.3,1.83-6.55,4.42-16.33,7-26.26Z"/><path class="cls-8" d="M173.79,276.23S163,274.67,162.22,273h-6.74l.32,6.42h3.75l.61-.59.92.59c3,0,11.68-.83,13.41-2C174.37,276.44,173.79,276.23,173.79,276.23Z"/><path class="cls-10" d="M155.34,207.41c-5.63-38.25-5.63-61.92-5.63-61.92l25.08-.4s-3,45.6-4.06,64.7c-1.09,19.86-7.29,63.57-7.29,63.57H154.7S152.7,232,155.34,207.41Z"/><path class="cls-11" d="M151.83,73.53c-1.16,5-2,11.53-3.49,15.26,2.53,2.35,6.63,5.27,12.1,5.19s4.47-3.78,3-5.68c-3.92-2-4.07-4-3.11-5.73Z"/><path class="cls-6" d="M143.25,90a39,39,0,0,1,4.69-3.61c1.38-.68,12-.45,14.43,0s5.46,4.13,5.46,4.13Z"/><path class="cls-10" d="M169.1,72.9c-.12.5.06,1,.38,1s.68-.27.79-.76-.06-1-.39-1S169.21,72.41,169.1,72.9Z"/><path class="cls-12" d="M168.91,73.59a18,18,0,0,0,1.42,4.73,2.93,2.93,0,0,1-2.47-.07Z"/><path class="cls-10" d="M170.81,70.06a.28.28,0,0,1-.28,0,2.31,2.31,0,0,0-2.14.08.29.29,0,0,1-.41-.09.3.3,0,0,1,.08-.41,2.92,2.92,0,0,1,2.7-.12.3.3,0,0,1,.16.39A.36.36,0,0,1,170.81,70.06Z"/><path class="cls-11" d="M152.7,67.88c-1,6.14-1.88,9.69.5,13.46,3.57,5.68,11.7,4.52,14.51-1.22,2.53-5.17,3.73-14.35-1.69-18A8.57,8.57,0,0,0,152.7,67.88Z"/><path class="cls-10" d="M162.76,76.83c-6.61,4.06-10.56,3.11-12.2.7-2.69-3.94,0-6.14,0-6.14-3.19.11-4.09-5.39-1.87-7.28-2-2.06-.67-6.67,2.74-6-.28-3.44,5.09-6.83,10.26-3.22,4.24-2.22,10.13-.55,11.57,3.33s-.72,5.56-.72,5.56c1.28,1.39-1,5.6-5.06,5.44-.72,2.17-1,3.89-3.61,4C163.26,76.11,163.93,75.83,162.76,76.83Z"/><path class="cls-11" d="M161.17,72.9a5.17,5.17,0,0,0,.38,3.82c.81,1.46,2.4.79,3.16-.79.69-1.42,1.11-3.89-.18-4.8S161.62,71.25,161.17,72.9Z"/><path class="cls-8" d="M143.6,89.32c8.47-1,20.49-.95,28.47.44A9.06,9.06,0,0,1,179.51,98c1,12.17-1.7,33.45-4,54.86-18.77,6.3-37.83-.08-37.83-.08-.42-4.33,1.91-18.48,3.36-26-1.06-7.8-3.77-16.73-5.3-27.1A9.07,9.07,0,0,1,143.6,89.32Z"/><path class="cls-9" d="M169.1,106.36c1.27,7.33,5.33,16.07,9,21.85.51-5.07.94-9.89,1.21-14.34Z"/><path class="cls-11" d="M216.84,114l-1.86-.72a2.32,2.32,0,0,0-2.11.23l-2.93,1.93a4.32,4.32,0,0,0-1.94,3.46l0,.87c3,1.4,7.28.7,7.28.7l1.24-.06a1.94,1.94,0,0,0,1.89-2l-.09-2.46A2.24,2.24,0,0,0,216.84,114Z"/><path class="cls-8" d="M178.39,94.94c1,2,2,4.16,3.06,6.22s2.13,4.14,3.22,6.14,2.26,3.89,3.42,5.58a26.18,26.18,0,0,0,1.71,2.23c.51.63,1,1.08,1.07,1.16l-.85-.35a6.58,6.58,0,0,0,2.92.61,28.46,28.46,0,0,0,4.57-.26c1.64-.2,3.32-.49,5-.83s3.49-.75,5.14-1.09l.28-.06a3.63,3.63,0,0,1,3,6.43,42,42,0,0,1-5,3.35,43.87,43.87,0,0,1-5.51,2.67,31.64,31.64,0,0,1-6.33,1.82,18.38,18.38,0,0,1-8.08-.26,3.27,3.27,0,0,1-.55-.2l-.3-.15a19,19,0,0,1-4.78-3.31,31,31,0,0,1-3.13-3.34,59.75,59.75,0,0,1-4.8-6.69c-1.43-2.24-2.7-4.52-3.9-6.81s-2.29-4.57-3.33-7.1a7.21,7.21,0,0,1,13.15-5.92Z"/><rect class="cls-10" x="99.32" y="279.37" width="85.83" height="7.04"/><rect class="cls-10" x="89.32" y="317.34" width="85.83" height="7.04"/><rect class="cls-10" x="79.32" y="355.32" width="85.83" height="7.04"/><rect class="cls-10" x="183.21" y="279.37" width="1.94" height="82.98"/><polygon class="cls-10" points="160.43 362.36 162.37 362.36 181.31 279.37 179.36 279.37 160.43 362.36"/><rect class="cls-10" x="109.74" y="279.37" width="1.94" height="82.98"/><polygon class="cls-10" points="86.96 362.36 88.9 362.36 107.84 279.37 105.89 279.37 86.96 362.36"/></g><g id="Character_2" data-name="Character 2"><path class="cls-4" d="M291.4,263.33c-8.78-1-12.48,6.79-6.13,10.6s-11,15.48-2.73,21.65,18.33,19.35,24.08,6.88-9.83-19-2.83-25S301.35,253.83,291.4,263.33Z"/><path class="cls-4" d="M306.62,302.71a.24.24,0,0,1-.21-.12.25.25,0,0,1,.09-.34c1.95-1.15,3.08-2.45,3.44-4,.69-3-1.58-6.39-3.77-9.7-2.66-4-5.41-8.18-2.26-11.21,1.93-1.85,2.54-4.79,1.68-8.06-1-3.88-3.8-7-6.9-7.81-2.56-.65-5.16.31-7.51,2.8a.25.25,0,1,1-.36-.34c3.13-3.32,6.08-3.43,8-2.95,3.28.84,6.19,4.12,7.27,8.17.91,3.45.24,6.57-1.82,8.55-2.85,2.75-.33,6.55,2.33,10.58,2.25,3.39,4.57,6.91,3.83,10.08-.39,1.69-1.59,3.1-3.67,4.32A.31.31,0,0,1,306.62,302.71Z"/><path class="cls-10" d="M272.23,330.26l18.21,3.34c1.65,9.53-2.49,21.77-18.86,21.77-19.92,0-38.89-3.83-36.07-13C238.92,331.37,272.23,330.26,272.23,330.26Z"/><path class="cls-9" d="M272.23,330.26l18.21,3.34c1.65,9.53-2.49,21.77-18.86,21.77-19.92,0-38.89-3.83-36.07-13C238.92,331.37,272.23,330.26,272.23,330.26Z"/><path class="cls-10" d="M290.9,346.64c3.73,3.15,10.35,9.23,9.45,9.95-4.4,3.5-9.1-4.21-13.88-3C287.15,350.17,290.9,346.64,290.9,346.64Z"/><path class="cls-10" d="M299.15,333.6c1.65,9.53-2.49,24.92-18.86,24.92-26.84,0-42.51.43-44.69-8.9s36.28-10.38,36.28-10.38a13.08,13.08,0,0,1-1.56-10.89C288.05,328.66,299.15,333.6,299.15,333.6Z"/><path class="cls-13" d="M280.94,299.78a63.13,63.13,0,0,1-3.38,5.46c-1.21,1.74-2.49,3.44-3.89,5.08a46.43,46.43,0,0,1-4.61,4.71,31,31,0,0,1-2.73,2.13c-.48.34-1,.66-1.52,1l-.81.46a8.31,8.31,0,0,1-1.38.6,8.92,8.92,0,0,1-5.18,0,15.29,15.29,0,0,1-3.62-1.55,30.18,30.18,0,0,1-5.36-4.07,57.27,57.27,0,0,1-8.17-9.55,2.24,2.24,0,0,1,3.33-2.95l.07.06a99,99,0,0,0,9,7.22,27.85,27.85,0,0,0,4.57,2.64,7.73,7.73,0,0,0,2,.61c.55.08.82,0,.74-.05s-.08,0,0,0l.47-.33c.31-.23.63-.47.95-.74.62-.53,1.25-1.1,1.87-1.72a47.42,47.42,0,0,0,3.55-4.08c1.13-1.47,2.24-3,3.29-4.56s2.1-3.22,3-4.7l.07-.11a4.5,4.5,0,0,1,7.8,4.47Z"/><path class="cls-8" d="M277.28,292.48c-5.93,1.19-10.69,11.28-10.69,11.28l9.25,10.43s4.91-6.91,5.85-10.11S280.68,291.8,277.28,292.48Z"/><path class="cls-13" d="M235.18,301.14l.7-2.89a1.29,1.29,0,0,1,1.56-.94l2.08.52a4.05,4.05,0,0,1,2.08,1.28L245,303l-1.66,2.72a12.36,12.36,0,0,1-4.34-1.53l-3.13-1.61A1.28,1.28,0,0,1,235.18,301.14Z"/><path class="cls-8" d="M277.28,292.48c7.39-1.53,13.13-2.4,21.11,1a10.08,10.08,0,0,1,5.94,11c-1.77,10.45-4.91,19.65-5.18,29.14-18.43,7.62-29.13.82-28.83-5.25,4.35-11.39,1.24-24.36,2.8-30.71C273.92,294.39,274.84,293,277.28,292.48Z"/><path class="cls-13" d="M292.37,279.17c-.7,3.57-1.57,10.86.93,13.25a87.07,87.07,0,0,0-10.43,9.08c-4-5.92-.7-9.13-.7-9.13,4-.95,4.07-4.59,3.37-7.37Z"/><path class="cls-9" d="M289.59,281.54l-4,3.45a12.62,12.62,0,0,1,.34,2c1.53-.22,3.92-1.52,4.25-3.18A4.74,4.74,0,0,0,289.59,281.54Z"/><path class="cls-13" d="M300.45,277.5c-3.25,5-4.52,7.23-8.65,8.42-6.22,1.8-11.69-3.29-10-9.19,1.52-5.31,6.58-12.64,12.84-11.84A8.16,8.16,0,0,1,300.45,277.5Z"/><path class="cls-9" d="M292.07,274.36a1.89,1.89,0,0,1,1.39.73A3.76,3.76,0,0,1,292.07,274.36Z"/><path class="cls-9" d="M291.94,274.75a1.68,1.68,0,0,1,1.07,1A3.46,3.46,0,0,1,291.94,274.75Z"/><path class="cls-9" d="M289.81,267.25a12.45,12.45,0,0,1,3.88,2.44A23.71,23.71,0,0,1,289.81,267.25Z"/><path class="cls-4" d="M290.86,264c2.8,6.08,5.84,8.18,7.09,8.8-4.12,2-3.95,7.32.21,8.7s5.34-6.88,5.21-9.92S297.85,262,290.86,264Z"/><path class="cls-6" d="M284.78,277.41A48,48,0,0,1,292.2,279c-1,1.14-2.48,1.9-5.24,1.16S284.78,277.41,284.78,277.41Z"/><path class="cls-10" d="M291.36,274.21c-.23.43-.65.65-.93.49s-.31-.63-.07-1.05.66-.64.93-.49S291.6,273.79,291.36,274.21Z"/><path class="cls-10" d="M286.57,271.52c-.24.42-.66.64-.93.48s-.31-.62-.07-1.05.65-.64.93-.48S286.81,271.09,286.57,271.52Z"/><path class="cls-10" d="M286.61,270.56l-.85-.87S285.83,270.78,286.61,270.56Z"/><path class="cls-14" d="M287.62,273.11a13.25,13.25,0,0,1-3,1.86,2.06,2.06,0,0,0,1.35,1.13Z"/><path class="cls-13" d="M299.29,282.69a4.37,4.37,0,0,1-3.3.5c-1.49-.38-1.47-1.89-.42-2.9s2.86-1.79,4.05-.88A2,2,0,0,1,299.29,282.69Z"/><path class="cls-10" d="M293.63,273.57a.28.28,0,0,1-.17-.29,3.42,3.42,0,0,0-1.16-2.45.28.28,0,1,1,.37-.43,3.89,3.89,0,0,1,1.36,2.94.28.28,0,0,1-.31.26Z"/><path class="cls-10" d="M286.19,268.39a.29.29,0,0,1-.22-.18.28.28,0,0,1,.17-.37,2.84,2.84,0,0,1,2.59.23.29.29,0,0,1,.07.4.28.28,0,0,1-.4.06,2.28,2.28,0,0,0-2.06-.15A.26.26,0,0,1,286.19,268.39Z"/><path class="cls-10" d="M291.4,273.26l-.85-.87S290.63,273.48,291.4,273.26Z"/><path class="cls-10" d="M229.29,280.49a4.13,4.13,0,0,0-3.6,5.41c3.6,10.51,15.38,17.63,28.67,16.52s23.74-10.06,25.56-21a4.13,4.13,0,0,0-4.45-4.75Z"/><path class="cls-13" d="M303,303.12c-1.08,2-2.19,3.67-3.38,5.45a61.62,61.62,0,0,1-3.88,5.05,45,45,0,0,1-4.58,4.7,30.37,30.37,0,0,1-2.71,2.14c-.48.33-1,.66-1.51,1l-.81.45c-.08.05-.4.22-.64.33s-.55.22-.82.32a6.85,6.85,0,0,1-3.7.07,7.67,7.67,0,0,1-2.64-1.34,12.85,12.85,0,0,1-2.81-3.09,30.9,30.9,0,0,1-3-6,63,63,0,0,1-3.19-12.06,2.24,2.24,0,0,1,4.26-1.26l0,.08c1.53,3.54,3.2,7.15,5,10.42a28,28,0,0,0,2.91,4.38,5,5,0,0,0,1.32,1.2c.14.07.19,0,0,0a1.34,1.34,0,0,0-.75,0s-.1,0-.13,0-.11.05,0,0l.48-.33c.31-.24.63-.47.94-.74.63-.53,1.25-1.1,1.87-1.72a48.89,48.89,0,0,0,3.54-4.08c1.12-1.46,2.22-3,3.27-4.54s2.09-3.21,3-4.69l.07-.11a4.5,4.5,0,0,1,7.81,4.47Z"/><path class="cls-8" d="M299.48,295.16c-6,0-10.83,11.94-10.83,11.94l9.24,10.42s4.92-6.9,5.86-10.1S304,295.13,299.48,295.16Z"/><path class="cls-13" d="M266,294.81l2.1-2.29a1.34,1.34,0,0,1,1.9-.08l1.65,1.53a4.21,4.21,0,0,1,1.26,2.22l1.13,5.27-2.9,1.66a13.1,13.1,0,0,1-3.21-3.59l-2.06-3.06A1.36,1.36,0,0,1,266,294.81Z"/><path class="cls-6" d="M297.39,283.62a1.36,1.36,0,1,1-2.71,0,1.36,1.36,0,0,1,2.71,0Z"/></g><g id="Character_3" data-name="Character 3"><path class="cls-15" d="M364.84,204.38c.58.82,1,1.5,1.46,2.26s.86,1.48,1.27,2.23c.81,1.51,1.54,3,2.23,4.6s1.31,3.14,1.86,4.76c.29.8.53,1.62.78,2.43l.35,1.24c.11.42.22.73.38,1.49a10.44,10.44,0,0,1,0,3.44,19.34,19.34,0,0,1-.69,2.84,31.7,31.7,0,0,1-2.14,4.87,52.1,52.1,0,0,1-5.71,8.39,1.8,1.8,0,0,1-2.53.21,1.77,1.77,0,0,1-.46-2.14l0-.07c.68-1.39,1.39-2.84,2-4.29s1.25-2.87,1.76-4.32a32.54,32.54,0,0,0,1.26-4.24,7.65,7.65,0,0,0,.14-3.34l-.72-1.93c-.3-.71-.56-1.44-.87-2.14-.59-1.43-1.25-2.83-1.91-4.22s-1.4-2.76-2.15-4.1c-.36-.68-.74-1.34-1.13-2l-1.14-1.87-.1-.15a3.6,3.6,0,0,1,6-4Z"/><path class="cls-15" d="M363.39,248.69l1.48-1.16a2.19,2.19,0,0,0,.83-1.81l-.15-3.3a4.07,4.07,0,0,0-1.86-3.24l-.69-.44c-2.58,1.75-4.08,5.55-4.08,5.55l-.54,1a1.82,1.82,0,0,0,.7,2.49l2,1.11A2.1,2.1,0,0,0,363.39,248.69Z"/><path class="cls-15" d="M355.34,185.25c-1,3.67-2.22,10.41.17,12.86,0,0,1.83,3.44-9,2.89-7.59-.39-2.42-2.89-2.42-2.89,4.17-1,4.29-4,3.79-6.87Z"/><path class="cls-15" d="M371.31,338.94l7-2.58a122.87,122.87,0,0,0,2.82,13.71l-4.92,2.11S372.94,342.25,371.31,338.94Z"/><path class="cls-10" d="M375.07,360.3c3.76-2.75,3.45-2.61,5.52-4.23,1.77-1.4,2.35-1.48,3.78-2.57,1.2-.92.39-2.11-.87-3.25-.48-.43-1.08-.92-1.77-1.54a1.11,1.11,0,0,0-1.42-.08l-4.4,3.22a1.3,1.3,0,0,0-.53,1,7.89,7.89,0,0,1-2.57,5.66C371,360.3,373.57,361.4,375.07,360.3Z"/><path class="cls-8" d="M340.88,237.07s7.4,38.1,13.13,55.86c6,18.64,14.83,39.39,18.82,51.54,1.24.16,4.78-1.32,6.51-2.79,0,0-2.64-31.85-11.66-48.3.91-48-8.22-56.31-8.22-56.31Z"/><path class="cls-9" d="M354.62,251.37,347,265.9c1.74,7.64,3.68,15.55,5.52,22C358.07,272.43,354.62,251.37,354.62,251.37Z"/><path class="cls-10" d="M371.32,342.21a15.09,15.09,0,0,1,.5,2.53.49.49,0,0,0,.64.42,32.42,32.42,0,0,0,7.39-3.47.65.65,0,0,0,.31-.6l-.32-2.43a.49.49,0,0,0-.72-.36l-7.41,3.2A.64.64,0,0,0,371.32,342.21Z"/><path class="cls-16" d="M371.32,342.21a15.09,15.09,0,0,1,.5,2.53.49.49,0,0,0,.64.42,32.42,32.42,0,0,0,7.39-3.47.65.65,0,0,0,.31-.6l-.32-2.43a.49.49,0,0,0-.72-.36l-7.41,3.2A.64.64,0,0,0,371.32,342.21Z"/><path class="cls-15" d="M334.73,342.21l6.74.49c-1.1,5.39-2.26,13.89-2.26,13.89h-5.36S334.81,345.89,334.73,342.21Z"/><path class="cls-10" d="M328.19,361.9c4.65,0,4.32-.07,6.94-.15,2.24-.09,2.77.2,4.58.15,1.5,0,1.44-1.47,1-3.13-.18-.63-.43-1.38-.69-2.29a1.21,1.21,0,0,0-1.17-.9h-5.45a1.17,1.17,0,0,0-1,.52,7.17,7.17,0,0,1-5.19,3C324.69,359.48,326.33,361.9,328.19,361.9Z"/><path class="cls-8" d="M335.14,237.07s-.85,33.2-1.6,53.88.86,57.22.86,57.22c.15,1,5.42.6,6.32,0,0,0,10.06-29.62,6.22-55.24,13.47-33.23,9.59-55,9.59-55Z"/><path class="cls-10" d="M333.68,345.4c0,.68-.06,1.9-.12,2.8a.57.57,0,0,0,.49.6,38.85,38.85,0,0,0,7-.08.51.51,0,0,0,.46-.42l.47-2.44a.56.56,0,0,0-.54-.67l-7.19-.29A.52.52,0,0,0,333.68,345.4Z"/><path class="cls-16" d="M333.68,345.4c0,.68-.06,1.9-.12,2.8a.57.57,0,0,0,.49.6,38.85,38.85,0,0,0,7-.08.51.51,0,0,0,.46-.42l.47-2.44a.56.56,0,0,0-.54-.67l-7.19-.29A.52.52,0,0,0,333.68,345.4Z"/><path class="cls-15" d="M358.15,231.28a49.35,49.35,0,0,0,.72,5.79H335.39l-.25-6S353.24,230.07,358.15,231.28Z"/><path class="cls-10" d="M332.88,206.9a99.67,99.67,0,0,0,.16,10.82c.2,4.7-.7,5.85,0,13.56,2.57,1.51,19.51,1.45,27.83.37-.5-6.66-1.12-11.16,3.39-26.16a5.55,5.55,0,0,0-5-7.17c-1-.09-2.06-.17-3.14-.22a85.25,85.25,0,0,0-11.42,0c-1.25.1-2.53.25-3.76.41A9.14,9.14,0,0,0,332.88,206.9Z"/><path class="cls-6" d="M304.46,191.66a24.69,24.69,0,0,1-2,11.16,2.49,2.49,0,0,0,.26,2.61c3.59,4.84,10.33,3.12,13,2.16a2.53,2.53,0,0,0,1.55-1.58c1.15-3.47,2.27-7.84,1.28-12.36a2.29,2.29,0,0,0-.45-1c-2.23-2.68-7.23-3-10.7-3.56A2.51,2.51,0,0,0,304.46,191.66Z"/><ellipse class="cls-6" cx="317.29" cy="179.93" rx="4.09" ry="5.07"/><path class="cls-6" d="M300.66,194.35c-2,.4-2.21.74-2.54,3.15-.33-2.41-.6-2.75-2.54-3.15,1.94-.41,2.21-.74,2.54-3.16C298.45,193.61,298.71,193.94,300.66,194.35Z"/><path class="cls-15" d="M314.18,192.51l1,1.57a2.16,2.16,0,0,1,.21,2l-1.2,3.07a4,4,0,0,1-2.8,2.47l-.79.2c-1.88-2.49-2.09-6.56-2.09-6.56l-.18-1.16a1.82,1.82,0,0,1,1.46-2.13l2.28-.4A2.08,2.08,0,0,1,314.18,192.51Z"/><path class="cls-15" d="M335.56,209.65c-.24.27-.34.37-.49.52l-.42.41c-.28.25-.56.5-.84.72-.56.46-1.12.87-1.69,1.26a27.66,27.66,0,0,1-3.57,2,32.87,32.87,0,0,1-3.73,1.48,37.26,37.26,0,0,1-3.82,1l-.21,0a1.89,1.89,0,0,1-.47.06,5.91,5.91,0,0,1-2.32-.41,6.63,6.63,0,0,1-1.73-1,9.83,9.83,0,0,1-2-2.33,20,20,0,0,1-2.08-4.53,36.87,36.87,0,0,1-1.15-4.45,41.78,41.78,0,0,1-.61-4.49,1.79,1.79,0,0,1,3.46-.78l0,.06c.49,1.27,1,2.62,1.54,3.88s1.11,2.53,1.73,3.7a17.15,17.15,0,0,0,2,3.09,3.7,3.7,0,0,0,.91.83c.25.11.18,0,0-.05l-.68.11c1.05-.37,2.08-.76,3.09-1.19s2-.91,2.92-1.41,1.85-1.07,2.69-1.65c.43-.29.84-.59,1.22-.9.2-.16.37-.32.55-.46L330,205c.07-.05.18-.17.14-.12a3.6,3.6,0,0,1,5.39,4.77Z"/><path class="cls-10" d="M342,198.38c-4.72-.09-9.56,2.59-16.85,8.55-.15,3.24,5.46,8.64,5.46,8.64S348.29,205.81,342,198.38Z"/><path class="cls-10" d="M343.38,178.43c-.17.48-.56.79-.87.7s-.42-.54-.25-1,.56-.79.87-.71S343.55,178,343.38,178.43Z"/><path class="cls-10" d="M343.26,177.47l-1-.65S342.5,177.88,343.26,177.47Z"/><path class="cls-17" d="M343,179.32a14.67,14.67,0,0,1-2.79,2.57,2,2,0,0,0,1.58.8Z"/><path class="cls-10" d="M344.1,174.47a.27.27,0,0,1-.17-.13A.29.29,0,0,1,344,174a3.12,3.12,0,0,1,2.74-.32.27.27,0,0,1,.12.38.32.32,0,0,1-.4.15,2.47,2.47,0,0,0-2.16.27A.41.41,0,0,1,344.1,174.47Z"/><path class="cls-15" d="M359.77,181.14c-2.28,5.59-3.13,8-7,10.1-5.85,3.18-12.25-.44-11.69-6.5.5-5.46,4.14-13.68,10.53-14.38A7.73,7.73,0,0,1,359.77,181.14Z"/><path class="cls-10" d="M347.72,181c-3.3-4.87-.47-7.42.94-8.17-3.09-.9-5.34-1.75-5.09-4.6a4.81,4.81,0,0,1,6-3.9c-.73.6,2.47,4.55,5.12,3.3a8.11,8.11,0,0,1,9.82,3.45c2.16,3.88,1.5,11-4.14,14.17,2.11,3.27-4.79,7.76-9.68,6S343.72,182.59,347.72,181Z"/><path class="cls-6" d="M368.11,169.92c1.27,3.57-.23,6.86-3.39,7.52-2.91.61-6.61-1.07-6.92-4.49-.27-2.95.81-6.4,3.39-7.53C364,164.19,366.87,166.39,368.11,169.92Z"/><path class="cls-10" d="M378.81,168.5a8.84,8.84,0,0,1-9.76,9.77c-5.39-.37-11-4.51-9.77-9.77,1-4.52,4.69-9.21,9.77-9.77C374.56,158.12,378.45,162.68,378.81,168.5Z"/><path class="cls-15" d="M349.11,181.31a4.17,4.17,0,0,1-2.73,1.94c-1.41.22-1.85-1.42-1.23-2.94s2-3.15,3.27-2.67S350,180,349.11,181.31Z"/><path class="cls-10" d="M359.51,198.38c4.09.63,5.74,1.88,9.08,10.11-1.52,3.06-8.63,6-8.63,6S355.25,203.83,359.51,198.38Z"/><path class="cls-10" d="M335.09,238.87a113.49,113.49,0,0,0,25.26-.05.57.57,0,0,0,.43-.8c-.2-.49-.41-1-.61-1.46a.52.52,0,0,0-.54-.33,110.73,110.73,0,0,1-24.28,0,.54.54,0,0,0-.59.51l-.15,1.5A.56.56,0,0,0,335.09,238.87Z"/></g></g></svg>