<svg xmlns="http://www.w3.org/2000/svg" width="735.328" height="524.568" viewBox="0 0 735.328 524.568"><g transform="translate(15.516 -101.645)"><g transform="translate(218.442 118.583)"><path d="M145.395,432.026c.135.814.78,3.116,6.208,5.286,13.744,5.495,22.821-4,45.249-5.738,4.269-.331,10.03-.217,21.557.067,14.566.359,19.186,1.111,27.943.025,1.673-.207,20.613-2.634,20.689-6.428.09-4.54-26.915-8.079-33.73-8.972-1.541-.2-15.076-1.917-22.994-.121-.588.133-3.087.67-6.519,1.181a62.168,62.168,0,0,1-7.811.591c-19.627.478-25.213-4.443-36.353.2C152.564,421.063,144.615,427.294,145.395,432.026Z" transform="translate(-130.389 53.13)" fill="#1e0605" opacity="0.3"/><g transform="translate(26.45)"><path d="M164.308,227.018c-1.894-16.851-3.684-17.851-9.3-54.73-2.491-16.361-4.644-36.571,3.7-43.675,9.071-7.726,11.086-6.047,11.086-6.047s-3.7-11.759,19.151-9.742c9.407.829,15.794,3.653,20.359,7.322,7.229,5.807,10.3,13.212,11.893,17.54,27.779,75.368,18.7,116.483,18.7,116.483a161,161,0,0,1-34.44,68.933l.368-11.033s-10.665,17.653-20.961,20.963a59.419,59.419,0,0,1-18.756,2.942l6.62-17.284-9.561,3.678c.868-9.993,1.835-23.81,2.247-40.313C165.984,259.032,166.333,245.045,164.308,227.018Z" transform="translate(-152.772 -112.591)" fill="#350801"/><path d="M171.812,210.926c-2.527-7.095-4.949-14.779-7.126-23.03a287.081,287.081,0,0,1-7.474-39.23,72.193,72.193,0,0,0,15.643-23.8A84.569,84.569,0,0,0,207.2,131.2s17.82,53.21,15.311,83.058-14.5,59.925-14.5,59.925S180.18,226.708,171.812,210.926Z" transform="translate(-150.341 -105.87)" fill="#1e0300" opacity="0.6"/></g><g transform="translate(96.253 132.481)"><g transform="translate(13.128 116.538)"><path d="M225.641,273.518c1.615,9.868,3.011,15.149,4.105,18.2a18.571,18.571,0,0,1,.9,5.179,9.646,9.646,0,0,1-.95,5.4c-.761,1.335-1.14.964-2.222,2.61-1.433,2.179-1.085,3.318-2.383,4.237-.857.607-1.153.215-2.821.777-2.841.956-3.019,2.443-4.354,2.354s-2.463-2.05-4.681-5.968c-.788-1.39-1.394-2.567-1.8-3.387a4.981,4.981,0,0,1-3.426-1.168,4.926,4.926,0,0,1-1.52-2.795,8.531,8.531,0,0,1,1.3-5.8c1.569-2.765,3.536-7.632,6.058-16.761a38.445,38.445,0,0,0,11.793-2.884Z" transform="translate(-206.365 -273.518)" fill="#a57147"/><path d="M226.118,284.986c-.676-2.909-1.414-6.635-2.205-11.468a38.446,38.446,0,0,1-11.793,2.884c-.941,3.406-1.8,6.217-2.6,8.549C213.038,287.027,219.146,289.5,226.118,284.986Z" transform="translate(-204.637 -273.518)" fill="#352213" opacity="0.3"/></g><path d="M215.164,203.528c6.688,7.5,3.082,15.813,7.756,37.874.918,4.328.874,3.15,1.9,7.864,3.649,16.791,3.024,26.338,4.339,42.3.492,5.97,1.405,14.652,3.254,25.219a16.24,16.24,0,0,1-15.52,2.86s-12.087-72.09-11.655-75.111-7.769-31.081-7.338-35.83c.252-2.774,2.087-9,6.332-10.272C209.175,196.95,214.839,203.162,215.164,203.528Z" transform="translate(-197.881 -198.206)" fill="#6d1000"/><path d="M222.919,241.4c-4.673-22.061-1.068-30.371-7.756-37.874-.325-.365-5.988-6.578-10.934-5.092-4.245,1.277-6.08,7.5-6.332,10.272-.432,4.749,7.769,32.808,7.338,35.83a17.506,17.506,0,0,0,.2,2.665c3.983.695,10.273.568,17.811-4.3C223.151,242.48,223.046,242,222.919,241.4Z" transform="translate(-197.881 -198.206)" fill="#350801" opacity="0.5"/></g><g transform="translate(9.83 204.622)"><g transform="translate(67.974 24.868)"><path d="M217.777,272.777c1.328,5.263,1.56,9.8,1.571,18.768,0,1.465-.011,3.253-.186,9.472-.048,1.676-.322,11.4-.62,18.162-1.017,23.155-3.212,32.438-3.508,50.153-.039,2.361-.116,9.082-.661,18.355-.232,3.952-.435,6.425-.6,8.648-.758,10.48-.839,19.073-.894,26.244-.235,30.233,2.049,43.415,3.578,50.4a35.317,35.317,0,0,0,3.28,9.841c2.98,5.6,8.837,12.37,15.725,17.425,2.183,1.6,6.8,4.921,6.479,7.7a.566.566,0,0,1-.053.172c-1.623,3.375-30.253.983-41.583-14.668-5.532-7.643-1.911-11.417-3.183-33.475-1.356-23.468-7.981-59.607-7.324-72.483a45.674,45.674,0,0,1,1.526-9.53,42.493,42.493,0,0,1,3.051-7.8c-.413-1.382-.992-3.373-1.636-5.784a202.013,202.013,0,0,1-5.159-26.006c-.469-3.613-1.123-9.447-1.445-16.718a167.815,167.815,0,0,1,2.27-36.531,62.141,62.141,0,0,1,2.064-8.05c1.781-5.447,4.642-13.857,10.782-15.59.056-.016.1-.028.139-.037,1.122-.3,6.344-1.536,10.646,1.123C214.361,264.005,216.176,266.425,217.777,272.777Z" transform="translate(-185.959 -260.898)" fill="#a57147"/><path d="M241.891,508.116a.566.566,0,0,0,.053-.172c.323-2.778-4.3-6.1-6.479-7.7-.433-.319-.848-.661-1.273-.992-3.548,2.109-14.7-.789-21.606-5.01-9.048-5.53-8.294-26.643-11.813-60.325a179.165,179.165,0,0,1,4.272-61.077c-1.006-7.038-3.016-32.676-3.016-32.676,3.081.172,10.7-1.171,15.253-2.046.473-5.362.93-11.412,1.26-18.94.3-6.765.573-16.486.62-18.163.175-6.217.187-8,.186-9.47-.011-8.969-.243-13.506-1.571-18.768-1.6-6.352-3.415-8.772-5.736-10.207-4.3-2.66-9.524-1.425-10.646-1.123-.04.009-.084.022-.139.037-6.14,1.733-9,10.143-10.782,15.59a62.141,62.141,0,0,0-2.064,8.05,167.815,167.815,0,0,0-2.27,36.531c.322,7.271.976,13.1,1.445,16.718a202.013,202.013,0,0,0,5.159,26.006c.644,2.409,1.222,4.4,1.636,5.784a42.493,42.493,0,0,0-3.051,7.8,45.674,45.674,0,0,0-1.526,9.53c-.658,12.876,5.968,49.015,7.324,72.483,1.272,22.058-2.349,25.832,3.183,33.475C211.638,509.1,240.268,511.491,241.891,508.116Z" transform="translate(-185.959 -260.898)" fill="#352213" opacity="0.22"/><path d="M191.7,417.52a20.654,20.654,0,0,1,2.754-9.674,36.47,36.47,0,0,0,14.287,11.166c2.736,1.193,12.777,5.173,23.672,2.163.429-.118.781-.226,1.026-.3a55.352,55.352,0,0,1,6.012,2.358c3.126,1.444,3.622,2.035,3.81,2.648.484,1.6-1.145,3.316-2.255,4.487a14.5,14.5,0,0,1-6.3,4.046c-5.294,1.608-9.071-.993-19.811-3.881-4.166-1.12-7.578-1.8-9.594-2.168a9.409,9.409,0,0,1-9.738.271C191.486,426.108,191.634,420.132,191.7,417.52Z" transform="translate(-182.828 -180.459)" fill="#6d1000"/></g><g transform="translate(0 20.826)"><path d="M200.882,283.738c-.3,9.843-1.246,16.509-1.246,16.509a314.281,314.281,0,0,1-6.852,33.642c-1.252,5.015-3.007,12.028-5.4,20.842-1.583,5.823-2.083,7.366-6.434,22.456-.412,1.427-3.776,12.764-5.772,20.17-3.372,12.508-5.144,22.214-6.666,30.665-4.54,25.2-6.812,37.8-6.024,48.041,1.815,23.635,11.85,35.318,5.759,40.6-4.4,3.813-14.646,2.333-20.381-2.734-8.868-7.839-1.6-19.531-.41-47.637,1.023-24.113-2.208-65.147,2.5-76.345.11-.262,1.575-3.728,3.564-8.325,1.7-3.932,3.1-7.1,3.957-9.048a225.683,225.683,0,0,1-3.005-34.631c-.292-30.337,5.654-47.07,7.342-51.567,2.748-7.321,9.564-24.488,20.537-27.355,4.554-1.19,11.358-1.3,15.38,2.566C198.864,262.675,201.434,265.674,200.882,283.738Z" transform="translate(-141.216 -258.286)" fill="#a57147"/><path d="M200.882,283.738c.552-18.064-2.018-21.063-3.154-22.156-4.022-3.867-10.826-3.755-15.38-2.566-10.973,2.867-17.789,20.034-20.537,27.355-1.688,4.5-7.635,21.23-7.342,51.567a225.683,225.683,0,0,0,3.005,34.631c-.86,1.947-2.256,5.116-3.957,9.048-1.988,4.6-3.454,8.063-3.564,8.325-4.709,11.2-1.478,52.232-2.5,76.345-1.191,28.105-8.458,39.8.41,47.637,5.735,5.068,15.98,6.547,20.381,2.734,3.912-3.39,1.171-9.428-1.77-19.571a7.675,7.675,0,0,1-1.39,6.889,7.342,7.342,0,0,1-6.689,2.4c-3.262-.526-5.012-3.229-5.821-4.478-2.985-4.608-2.4-9.927-2.239-11.418,1.636-15.181,1.419-30.553,3.582-45.67,2.921-20.416,1.5-18.207,4.029-33.133a331.162,331.162,0,0,1,7.618-34.01c.244-8.339,2.453-38.018,2.453-38.018,8.653,3.426,18.609,1.421,23.291.116.552-2.183,1.046-4.158,1.476-5.879a314.281,314.281,0,0,0,6.852-33.642S200.581,293.581,200.882,283.738Z" transform="translate(-141.216 -258.286)" fill="#352213" opacity="0.22"/><path d="M145.6,408.814c.424,10.694,3.556,18.768,7.517,21.107a11.111,11.111,0,0,0,5.425,1.594,10.54,10.54,0,0,0,4.865-1.594c3.72-2.389,5.255-8.486,3.865-15.347,1.136,3.632,2.23,6.5,3.051,8.515a36.489,36.489,0,0,1,2.867,9.434c.074.518.1.938.144,1.388.243,2.762-1.947,9.67-6.326,10.36-7.886,1.244-16.347,1.99-21.167-2.993-4.611-4.766-4.04-11.321-3.356-19.182A48.2,48.2,0,0,1,145.6,408.814Z" transform="translate(-142.031 -175.887)" fill="#6d1000"/></g><g transform="translate(11.265)"><g transform="translate(3.469)"><path d="M239.068,263.3s2.072-12.874-.258-18.471c0,0-24.856,14.833-73.792,0,0,0-4.4,12.314-3.366,15.672,0,0-8.026,27.708-10.1,53.176,0,0,26.928,13.435,41.169,11.475l6.733-22.391,4.4-.839.258,24.628s23.562,1.119,33.66-3.079C237.774,323.47,242.175,278.132,239.068,263.3Z" transform="translate(-151.553 -244.827)" fill="#46546d"/><path d="M163.067,244.827s-4.4,12.314-3.366,15.672c0,0-2.2,7.587-4.586,18.46,7.109-1.492,22.7-7.005,26.088-22.761.579-2.7,1.048-4.894,1.431-6.7A162.285,162.285,0,0,1,163.067,244.827Z" transform="translate(-149.603 -244.827)" fill="#1e0300" opacity="0.15"/><path d="M214.254,263.3s2.072-12.874-.258-18.471c0,0-5.744,3.414-17.113,5.326.166,7.316,2.094,28.116,18.437,34.173h0C215.47,275.855,215.244,268.026,214.254,263.3Z" transform="translate(-126.74 -244.827)" fill="#222a35" opacity="0.3"/><path d="M161.5,244.827s-4.4,12.314-3.366,15.672c0,0,51.349,21.024,77.416,2.8,0,0,2.072-12.874-.258-18.471C235.293,244.827,210.437,259.66,161.5,244.827Z" transform="translate(-148.036 -244.827)" fill="#5e7493"/><path d="M165.017,244.827s-4.4,12.314-3.366,15.672c0,0-8.026,27.708-10.1,53.176,0,0,26.928,13.435,41.169,11.475l1.835-6.106c-11.158.927-18.833-1.875-23.339-4.186-3.644-1.868-7.239-4.412-6.987-5.035.3-.75,5.933,1.855,14.993,3.147,4.97.709,9.538.817,9.608.314.057-.421-5.334-1.521-12.665-4.721-1.732-.755-3.014-1.385-3.89-2.841-1.2-1.991-1.007-4.486,0-8.543,2.005-8.084,3.008-12.124,5.269-13.832,4.885-3.689,10.169,1.953,25.114,2.245,6.165.119,10.773-.732,10.773-1.195,0-.622-8.686-.661-20.379-4-3.868-1.1-5.735-1.9-5.677-2.2.133-.7,10.689,2.012,24.455.788,3.912-.348,7.964-1,7.955-1.62-.012-.879-8.282-.508-18.145-3.257a63.327,63.327,0,0,1-14.493-6.1,6.565,6.565,0,0,1-.474-3.2h0c-.282-1.219.006-2.9.944-5.1a86.184,86.184,0,0,0,52.158-3.017c.263-4.025.252-8.933-.967-11.861C238.809,244.827,213.953,259.66,165.017,244.827Z" transform="translate(-151.553 -244.827)" fill="#222a35" opacity="0.3"/><path d="M219.272,305.851s.272-2.813.634-7.263c-8.786,3.864-18.988,2.583-19.906,1.195-.961-1.455,8.268-2.182,13.17-3.325s.577-1.663-3.076-1.455-12.593.311-12.785-5.4-1.346-6.86,5.863-11.431-17.5,5.922-17.82,6.134l.258,24.628S209.174,310.049,219.272,305.851Z" transform="translate(-133.051 -227.207)" fill="#222a35" opacity="0.3"/></g><g transform="translate(0 65.973)"><path d="M153.13,287.462a57.624,57.624,0,0,0,15.8,8.551,55.537,55.537,0,0,0,25.716,2.62,7.431,7.431,0,0,1,.5,1.448c.48,2.043-.09,3.514-1.5,7.9-1,3.092-1.99,6.326-1.99,6.326-2.047.989-14.145,6.578-27.242.382a34.6,34.6,0,0,1-15.106-14.547c.269-1.371.511-2.55.707-3.485.978-4.658,1.462-6.347,2.471-8.147C152.748,288.048,152.981,287.686,153.13,287.462Z" transform="translate(-149.311 -287.462)" fill="#5e7493"/><path d="M191.659,314.306s.237-.771.591-1.908a46.738,46.738,0,0,1-11.8,1.23c-6.719-.162-11.5-.279-13.786-3.763-3.328-5.08,1.1-13.58,1.422-14.171a57.907,57.907,0,0,1-14.959-8.232c-.149.224-.382.586-.641,1.048-1.009,1.8-1.493,3.489-2.471,8.147-.2.935-.438,2.114-.707,3.485a34.6,34.6,0,0,0,15.106,14.547C177.514,320.884,189.611,315.295,191.659,314.306Z" transform="translate(-149.311 -287.462)" fill="#222a35" opacity="0.3"/></g><g transform="translate(54.72 75.374)"><path d="M186.135,296.9s22.464,2.29,33.766-3.359a3.223,3.223,0,0,1,.781.661c1.134,1.323.964,3.305.644,5.852-.586,4.642-.879,6.963-1.377,7.836s-1.7,2.617-6.057,4.464a31.342,31.342,0,0,1-18.443,1.685c-4.373-.868-8.237-1.636-9.636-4.76-.644-1.439.08-1.487-.826-6.745-.275-1.6-.65-3.383.275-4.761A3.288,3.288,0,0,1,186.135,296.9Z" transform="translate(-184.674 -293.537)" fill="#5e7493"/><path d="M213.892,311.162c4.354-1.848,5.558-3.592,6.057-4.464a3.878,3.878,0,0,0,.334-.911,35.085,35.085,0,0,1-9.464,2.186c-3.872.342-6.08.5-7.748-.969-3.444-3.038-1.626-10.426-1.49-10.949a117.4,117.4,0,0,1-15.446-.347,3.288,3.288,0,0,0-.873.873c-.925,1.379-.551,3.164-.275,4.761.907,5.258.183,5.306.826,6.745,1.4,3.124,5.263,3.892,9.636,4.76A31.342,31.342,0,0,0,213.892,311.162Z" transform="translate(-184.674 -292.349)" fill="#222a35" opacity="0.3"/></g></g></g><g transform="translate(35.745 25.605)"><g transform="translate(8.949 34.903)"><path d="M174.448,165.786c0,.659,3.132,22.409,1.484,22.9s-11.37,3.132-11.37,3.132,20.763,18.125,28.013,17.465,19.279-15.819,19.279-15.819-8.569-2.142-9.722-3.79-2.637-27.517-3.3-30.648-11.534-8.568-18.29-7.086S174.448,165.786,174.448,165.786Z" transform="translate(-164.562 -151.694)" fill="#a57147"/><path d="M196.327,169.107c-.4-4.848-.744-8.947-.983-10.077-.659-3.13-11.534-8.568-18.29-7.086s-6.1,13.841-6.1,13.841c0,.254.466,3.646.944,7.742a41.114,41.114,0,0,0,11.91,5.3S191.516,174.8,196.327,169.107Z" transform="translate(-161.071 -151.694)" fill="#352213" opacity="0.3"/><path d="M191.8,190.737c-2.658.419-16.836-10.8-21.062-14.2-3.022.828-6.179,1.685-6.179,1.685s20.761,18.125,28.013,17.465,19.279-15.819,19.279-15.819-3.242-.811-6.007-1.818C201.935,182.253,194.12,190.371,191.8,190.737Z" transform="translate(-164.562 -138.095)" fill="#352213" opacity="0.3"/></g><path d="M207.77,155.134a23.017,23.017,0,0,1-1.294,15.762,25.982,25.982,0,0,1-8.939,10.234,32.512,32.512,0,0,1-7.294,4,36.4,36.4,0,0,1-12.351-3.647c-2.969-1.5-6.671-3.417-9.763-7.528a22.585,22.585,0,0,1-3.412-6.587,3.931,3.931,0,0,1-2.208.184c-2.562-.586-4.045-4.128-3.674-6.889.08-.593.384-2.85,2.092-3.6a3.166,3.166,0,0,1,1.908-.162q-1.3-4.176-2.589-8.351a37.092,37.092,0,0,0,14.823-19.409,48.18,48.18,0,0,0,28.232,8.586q1.309,3.1,2.62,6.205c.084-.105,1.889-2.292,3.968-1.852,1.787.378,2.511,2.431,2.94,3.646,1.416,4.014.323,9.557-2.234,10.234A3.34,3.34,0,0,1,207.77,155.134Z" transform="translate(-158.778 -129.138)" fill="#a57147"/><path d="M200.328,140.908l5.074,3.022q-1.311-3.1-2.62-6.205a48.18,48.18,0,0,1-28.232-8.586,37.092,37.092,0,0,1-14.823,19.409q1.3,4.176,2.589,8.351c.241-.313.687-7.109.687-7.109a25.193,25.193,0,0,0,5.222-2.925,26.249,26.249,0,0,0,8.331-10.338,31.059,31.059,0,0,0,8.611,3.935A31.651,31.651,0,0,0,200.328,140.908Z" transform="translate(-158.259 -129.138)" fill="#352213" opacity="0.3"/></g><g transform="translate(0 137.361)"><path d="M178.233,287.7,143.7,273.852a4,4,0,0,0-5.456,3.2l-2.533,19.589a4,4,0,0,0,2.4,4.2l29.3,12.441c.421.226,2.549,1.052,4.658,1.855a4,4,0,0,0,5.371-3.1l3.243-19.977A4,4,0,0,0,178.233,287.7Z" transform="translate(-135.678 -161.837)" fill="#2d3a4a"/><g transform="translate(8.138)"><g transform="translate(0 121.739)"><path d="M146.181,280.033a92.642,92.642,0,0,1-2.606,9.425s-2.583,7.712-2.637,12.571a6.4,6.4,0,0,0,.418,2.374,4.449,4.449,0,0,0,1.6,2.238c.667.446.921.241,1.753.715.614.35.7.611,1.6,1.467a7.136,7.136,0,0,0,2.041,1.651c1.275.419,1.79-.6,2.988-.26,1.287.362,1.236,1.693,2.583,2.473,1.1.634,2.268.412,3.782.125a18.579,18.579,0,0,0,6.846-3.078h0a20.744,20.744,0,0,1-1.312-9.284c.576-.214,4.223-1.615,4.6-4.356.166-1.2-.412-2.23-1.572-4.234-1.6-2.757-2.723-3.523-4.234-5.807a22.8,22.8,0,0,1-2.553-5.244,32.741,32.741,0,0,1-5.127.531C151.524,281.45,148.2,281.257,146.181,280.033Z" transform="translate(-140.938 -280.033)" fill="#a57147"/><path d="M162.714,288.349a25.808,25.808,0,0,1-1.732-2.3,22.8,22.8,0,0,1-2.553-5.244,32.741,32.741,0,0,1-5.127.531c-2.816.111-6.137-.082-8.159-1.306-.786,3.542-1.629,6.422-2.312,8.532C146.427,290.718,154.874,294.481,162.714,288.349Z" transform="translate(-139.901 -280.033)" fill="#352213" opacity="0.3"/></g><g transform="translate(2.624)"><path d="M151.122,206.791c-1.195,5.736-2.258,11.921-3.087,18.521a234.015,234.015,0,0,0-1.8,25.722,57.685,57.685,0,0,0-2.573,9c-1.356,6.8-1.089,11.9-.771,18.519.574,11.966.928,20.856,1.029,23.664.183,5.15.328,12.848,0,22.378a13.318,13.318,0,0,0,16.2,2.315q1.174-17.345,2-35.372.7-15.34,1.085-30.219,4.09-24.351,8.18-48.7a10.862,10.862,0,0,0-20.269-5.834Z" transform="translate(-142.634 -201.36)" fill="#6d1000"/><path d="M162.576,201.9a11.011,11.011,0,0,0-12.86,4.887c-1.195,5.736-2.258,11.921-3.087,18.521-.695,5.529-1.137,10.8-1.425,15.842a22.908,22.908,0,0,0,12.07,4.357,22.159,22.159,0,0,0,7.327-.834l5.385-32.053A10.993,10.993,0,0,0,162.576,201.9Z" transform="translate(-141.227 -201.36)" fill="#350801" opacity="0.5"/></g></g></g><g transform="translate(5.692 98.921)"><path d="M164.232,177.694l4-1.151c2.485,2.9,10.244,11.749,17.7,16.537a10.265,10.265,0,0,0,6.389,2.018c2.6-.2,4.531-1.673,6.727-3.7a64.133,64.133,0,0,0,10.334-12.409l5.195,1.151c-3.638,18.317-13.257,30.758-22.241,30.662-7.127-.074-13.3-8.036-18.111-14.25A63.745,63.745,0,0,1,164.232,177.694Z" transform="translate(-125.74 -176.504)" fill="#6d1000"/><path d="M179.012,176.518a75.476,75.476,0,0,0,14.429,21.088c4.89,4.986,8.313,8.378,12.6,7.909,4.515-.494,7.548-5,12.6-12.522a89.56,89.56,0,0,0,7.519-13.62l11.206.1s21.947,42.018,29.758,45.436a34.76,34.76,0,0,1-8.347,13.017,31.163,31.163,0,0,1-17.513,8.54,53.62,53.62,0,0,0,1.889,18.57,75.322,75.322,0,0,0,4.122,11.143c2.491,4.037,3.557,5.236,3.265,7.427-.554,4.156-6.281,6.853-8.3,7.8a26.749,26.749,0,0,1-4.378,1.547,37.634,37.634,0,0,1-7.011,1.278c-9.4.879-14.1,1.318-18.484,1.009a61.083,61.083,0,0,1-25.076-7.726,19.174,19.174,0,0,1-15.344-1.5c-2.324-1.5-5.048-3.8-5.088-6.679-.026-1.863,1.086-2.816,2.18-5.24,1.048-2.321,1.212-4.071,1.575-10.346.342-5.9.568-10.737.718-14.313a32.962,32.962,0,0,1-11.531-1.834c-11.983-4.2-18.351-14.247-20.45-17.934,6.005-9.871,12.05-20.83,17.846-32.9q4.043-8.419,7.44-16.486Z" transform="translate(-139.357 -176.518)" fill="#ff6552"/><path d="M250.541,273.451c.292-2.191-.774-3.39-3.263-7.427a72.54,72.54,0,0,1-3.664-9.626,36.428,36.428,0,0,1-9.557-5.383c-6.041-4.754-19.013-18.112-22.646-20.282-.05-.029-.189-.105-.258-.057-1.116.783,13.19,26.495,16.347,34.061.381.911.819,2.385.226,3.076-1.919,2.245-13.933-4.927-23.426-13.289-8.091-7.129-10.759-11.957-13.345-10.917-4.61,1.851-1.608,19.373-3.428,19.689-1.577.274-5.651-12.566-7.756-26.9-1.674-11.411-3.168-21.592-2.884-33.726.048-2.053.223-7.479-.542-7.6-.407-.067-1.01,1.376-2.281,5.857-3.749,13.21-3.417,14.31-4.819,17.215-2.349,4.868-9.594,4.656-16.644.422s-5.677-2.751-3.525,0,19.386,14.182,9.4,11.853c-7.6-1.77-14.4-10.153-17.219-14.064-.634,1.065-1.267,2.123-1.9,3.164,2.1,3.687,8.467,13.738,20.45,17.934a32.963,32.963,0,0,0,11.531,1.834c-.15,3.576-.376,8.413-.718,14.313-.364,6.275-.528,8.025-1.575,10.346-1.094,2.423-2.207,3.376-2.18,5.239.04,2.877,2.764,5.174,5.088,6.679a19.174,19.174,0,0,0,15.344,1.5,61.083,61.083,0,0,0,25.076,7.726c4.382.309,9.083-.13,18.484-1.009a37.765,37.765,0,0,0,7.011-1.278,26.745,26.745,0,0,0,4.378-1.547C244.26,280.3,249.988,277.608,250.541,273.451Z" transform="translate(-139.357 -166.367)" fill="#1e0300" opacity="0.3"/><path d="M230.291,211.466c-3.259,4.751-8.28,11.414-11.582,12.644-5.23,1.95-6.312-1.753-4.328-3.118s7.756-8.774,9.2-10.722c.333-.45.546-1.205.272-1.5-.627-.681-3.245,1.871-6.583,2.333-4.068.565-7.57-2.2-8.665-3.068-5.277-4.17-5.975-10.615-6.5-10.471-.67.181,1.759,10.284,3.25,20.4a167.918,167.918,0,0,1,1.626,16.983,31.171,31.171,0,0,0,17.513-8.54,34.76,34.76,0,0,0,8.347-13.017A9.4,9.4,0,0,1,230.291,211.466Z" transform="translate(-105.072 -165)" fill="#1e0300" opacity="0.3"/><path d="M222.136,222.094c-3.345.243-8.221.416-10.957-.33-4.441-1.212-1.817-7.268.607-9.286s1.212-2.222-3.028-2.019c-1.9.09-3.68-1.2-5.065-2.654.254,1.495.5,3.019.727,4.548a167.916,167.916,0,0,1,1.626,16.983,31.12,31.12,0,0,0,16.09-7.242Z" transform="translate(-104.14 -159.392)" fill="#1e0300" opacity="0.25"/><path d="M161.815,218.779c-3.316-.741-2.287.248-.687,1.732s3.774,7.293-2.744,6.674a55.2,55.2,0,0,1-12.172-2.869,34.158,34.158,0,0,0,9.841,5.448,32.962,32.962,0,0,0,11.531,1.834s1.776-19.245,2.462-22.089S165.131,219.522,161.815,218.779Z" transform="translate(-135.604 -158.684)" fill="#1e0300" opacity="0.25"/><path d="M170.357,230.75c-.313.079.633,15.087.733,16.676a3.976,3.976,0,0,1-.685,3c-1.49,1.526-5,.116-6.869-1.117a11.763,11.763,0,0,1-4.145-5.082c-.017.04-.057.135-.076.175-1.094,2.423-2.207,3.376-2.18,5.239.04,2.877,2.764,5.174,5.088,6.679a19.174,19.174,0,0,0,15.344,1.5,61.083,61.083,0,0,0,25.076,7.726c4.382.309,9.083-.13,18.484-1.009a37.765,37.765,0,0,0,7.011-1.278,26.75,26.75,0,0,0,4.378-1.547c2.015-.949,7.743-3.646,8.3-7.8.292-2.191-.774-3.39-3.263-7.427-2.485,12.724-13.315-2.323-19.347-7.446s2.3,7.607,4.166,13.2a2.66,2.66,0,0,1,.1,1.3c-.531,3.174-7.051,5.3-11.9,4.949-9.472-.679-15.459-10.985-16.774-9.828-1.165,1.024,4.54,8.229,2.822,10.505-1.913,2.535-12.864-1.26-18.629-9.421a43.271,43.271,0,0,1-4.413-8.673C171.412,235.617,170.538,230.7,170.357,230.75Z" transform="translate(-129.626 -146.832)" fill="#1e0300" opacity="0.25"/></g></g><g transform="translate(-15.516 115.853)"><path d="M155.421,437.489c-.189.8-1.006,3.075-6.965,4.975-15.093,4.811-24.364-5.117-48.423-7.96a195.8,195.8,0,0,0-23.217-.995c-10.188.218-15.607,1.208-23.548-.995-4.846-1.346-14.575-4.975-14.261-8.293.452-4.768,21.551-7.779,39.8-6.634,11.788.74,10.245,2.453,22.884,3.318,21.111,1.444,27.387-3.2,39.137,1.99C148.283,426.185,156.512,432.8,155.421,437.489Z" transform="translate(45.358 56.96)" fill="#1e0605" opacity="0.3"/><g transform="translate(0 79.001)"><path d="M7.2,189.186c-.811-1.62-1.1-3.489-1.69-7.228-.823-5.247-.289-6.778.2-7.689.624-1.167,1.947-2.734,2.606-2.391a.734.734,0,0,1,.313.34c.472.947,9.032,21.233,5.513,23.165C12.443,196.315,8.851,192.491,7.2,189.186Z" transform="translate(26.792 -156.435)" fill="#cc9864"/><path d="M29.914,198.11q-1.5,1.808-2.994,3.618l-15.383-3.279Q6.331,192.89,1.03,186.737c-6.066-7.059-11.565-14-16.546-20.723q1.53-2.068,3.062-4.133l15.67,7.57q7.005,7.868,14.5,15.886Q23.851,191.894,29.914,198.11Z" transform="translate(15.516 -161.881)" fill="#931300"/><path d="M1.03,186.737q5.29,6.155,10.507,11.712l15.383,3.279q1.5-1.81,2.994-3.618L15.266,193Q1.4,177.439-12.455,161.881q-1.53,2.066-3.061,4.133C-10.535,172.734-5.035,179.678,1.03,186.737Z" transform="translate(15.516 -161.881)" fill="#350801" opacity="0.5"/><g transform="translate(7.029 13.523)"><path d="M92.547,217.285a154.336,154.336,0,0,1-9.1,13.843A159.424,159.424,0,0,1,71.81,245.113c-1.824,1.957-3.415,3.568-4.61,4.751a50.313,50.313,0,0,1-9.588-4.192,51.973,51.973,0,0,1-8.186-5.8c-5.643-4.8-17.131-16.183-31.48-31.807-3.039-2.286-5.56-4.249-7.429-5.727C3.232,196.577-.051,193.558-.977,192.7c-1.558-1.447-2.819-2.683-3.687-3.548-.162-.588-.405-1.461-.7-2.521-.661-2.4-.811-3-.941-3.451-.86-3.034-1.806-3.431-3.291-7.287-.814-2.114-1.834-4.761-1.164-5.207.518-.345,1.826.778,2.505,1.36a17.939,17.939,0,0,1,4.873,6.988c-1.913-6.44-1.8-7.992-1.34-8.2.614-.277,2.151,1.659,2.762,2.428a17.935,17.935,0,0,1,2.343,3.933c2.734,5.945,2.49,6.117,3.432,7.531a14.288,14.288,0,0,0,4.687,4.52c2.3,1.328,3.2.845,8.87,2.343,3.146.831,4.718,1.246,5.775,2.009,1.238.893,3.6,3.168,4.091,9.027,2.5,2.112,6.287,5.2,11.141,8.662,3.191,2.276,5.185,3.534,12,8.009,2.923,1.917,7.141,4.695,12.279,8.11q7.142-9.28,14.282-18.561a10.961,10.961,0,0,1,4.939-4.831,8.157,8.157,0,0,1,3.562-.863,9,9,0,0,1,4.757,1.594C93.136,206.865,94.221,211.96,92.547,217.285Z" transform="translate(10.973 -170.62)" fill="#cc9864"/><path d="M61.98,193.235a9,9,0,0,0-4.757-1.594,8.183,8.183,0,0,0-3.562.862,10.97,10.97,0,0,0-4.939,4.833L40.59,207.9c2.1,2.912,6.487,6.883,15.59,10.385,2.544-3.527,5.32-7.675,8.141-12.511C66,200.453,64.91,195.358,61.98,193.235Z" transform="translate(39.199 -159.114)" fill="#352213" opacity="0.2"/></g></g><g transform="translate(162.817 118.079)"><path d="M90.094,201.26q1.228,12.3,3.163,25.544c1.6,10.83,3.465,21.134,5.49,30.881,0,0,.06,3.892.5,9.512.184,2.361,1.015,10.64,2.771,19.889,3.217,16.942,9.544,37.074,10.443,39.914a118.664,118.664,0,0,1-6.005,16.895c-.659,1.455-1.733,3.712-1.109,6.244.778,3.166,3.762,4.932,5.363,5.71a20.829,20.829,0,0,0,1.848,6.066c.757,1.56,1.244,2.536,2.128,2.778,1.431.392,3.375-1.289,4.9-4.125a3.762,3.762,0,0,0,2.908,1.247c1.738-.173,3.3-1.97,3.435-4.362a3.836,3.836,0,0,0,3.113.478c2.835-1.068,2.963-6.925,2.98-7.672.113-5.14-2.137-7.674-5.422-16.06-1.294-3.3-2.18-6.061-2.717-7.838-.374-6.238-1.009-16.616-1.889-30.013-.76-11.584-1.205-17.832-3.362-26.146a97.149,97.149,0,0,0-4.859-14.148q-2.539-28.7-5.077-57.395c-1.238-8.407-8.568-12.673-13.066-11.253C91.731,188.634,88.571,194.573,90.094,201.26Z" transform="translate(-89.704 -187.135)" fill="#cc9864"/><path d="M108.694,198.657c-1.238-8.407-8.568-12.673-13.066-11.253-3.9,1.23-7.056,7.169-5.533,13.855q1.228,12.3,3.163,25.544c.008.046.015.091.022.138a72.452,72.452,0,0,0,17.289-7.107Q109.63,209.246,108.694,198.657Z" transform="translate(-89.704 -187.135)" fill="#352213" opacity="0.2"/></g><path d="M45.127,219.45a61.4,61.4,0,0,0,23.13,12.932,62.464,62.464,0,0,0,36.8-.559,109.988,109.988,0,0,0-19.8-8.085A111.528,111.528,0,0,0,45.127,219.45Z" transform="translate(48.712 -51.537)" fill="#350801"/><g transform="translate(100.434 156.871)"><path d="M54.884,215.944a175.811,175.811,0,0,1-1.308,18.778,176.139,176.139,0,0,1-4.187,22.128q7.815.5,16.07.7a395.433,395.433,0,0,0,40.667-1.14q-1.154-7.335-2.108-15.14c-.882-7.293-1.544-14.34-2.026-21.116-7.059-5.971-13.3-7.5-17.356-7.869-2.358-.214-4.291-.062-11.376.9C68.2,213.881,61.991,214.783,54.884,215.944Z" transform="translate(-49.389 -212.204)" fill="#cc9864"/><path d="M83.176,212.289c-2.358-.214-4.291-.062-11.376.9-5.063.69-11.27,1.592-18.377,2.753a175.812,175.812,0,0,1-1.308,18.778c-.017.141-.04.271-.057.41,6.566,1.564,29.057,6.42,50.38,5.1-.82-6.92-1.448-13.623-1.906-20.073C93.473,214.186,87.237,212.656,83.176,212.289Z" transform="translate(-47.928 -212.204)" fill="#352213" opacity="0.2"/><path d="M106.126,245c-.61-3.876-1.168-7.881-1.693-11.955-14.912,3.607-44.172,1.84-52.576,1.232-.747,3.963-1.581,7.7-2.468,11.16q7.815.5,16.07.7A395.425,395.425,0,0,0,106.126,245Z" transform="translate(-49.389 -200.794)" fill="#352213" opacity="0.2"/></g><g transform="translate(115.779 40.584)"><path d="M67.995,171.392s6.454,23.584,3.723,25.074-12.412,3.723-12.412,3.723,0,14.151,14.4,15.889,27.059-7.7,35.5-18.618c0,0-8.192-.249-10.675-3.228s-5.957-32.769-6.7-38.728-10.179-19.612-20.605-18.371S67,165.186,67.995,171.392Z" transform="translate(-59.306 -137.054)" fill="#cc9864"/><path d="M92.118,173.9c-1.134-7.889-2.053-15.66-2.4-18.4-.746-5.957-10.179-19.612-20.605-18.371s-4.221,28.053-3.228,34.259c0,0,1.739,6.358,3.03,12.681a70.876,70.876,0,0,0,23.2-10.171Z" transform="translate(-57.2 -137.054)" fill="#352213" opacity="0.2"/><path d="M109.2,176.734s-5.391-.164-8.752-1.817c-4.248,3.842-16.194,12.263-24.661,12.743-8.682.492-9.739-8.082-9.866-9.9-3.3.935-6.62,1.7-6.62,1.7s0,14.151,14.4,15.889S100.764,187.657,109.2,176.734Z" transform="translate(-59.306 -116.328)" fill="#352213" opacity="0.2"/></g><g transform="translate(92.104)"><path d="M52.322,131.137A28.918,28.918,0,0,0,47.03,138.4c-6.061,11.913-1.841,25.052,2.476,37.871,5.772,17.133,15.316,32,15.653,31.828.02-.009.008-.073,0-.1-.184-1.057,2.535-5.6,11.414-17.247l18.674-9.337,1.894,25.9a69.563,69.563,0,0,0,13.247-17.433,68.632,68.632,0,0,0,3.268-7.072l3.231,1.835c14.606-24.43,9.2-53.388-8.029-66.236,0,0-19.185-14.3-47.417-3.624a12.756,12.756,0,0,0-4.415,2.909C52.631,122,52.277,128.214,52.322,131.137Z" transform="translate(-44.006 -110.827)" fill="#5e7493"/><path d="M121.422,127.318a7.775,7.775,0,0,1-2.632,4.995c-4.382,3.468-14.066.737-23.553-7.731a13.117,13.117,0,0,1-4.8,6.524c-3.13,2.1-6.728,2.08-19.9.056-3.553-.546-8.084-1.283-13.351-2.236-2.173,5.453-5.3,8.534-6.986,8.014-1.54-.474-2.267-4.067-1.841-8.388-.455.716-.9,1.49-1.326,2.323-6.061,11.913-1.841,25.052,2.476,37.871,5.772,17.133,15.316,32,15.653,31.828.02-.009.008-.073,0-.1-.184-1.057,2.535-5.6,11.414-17.247l18.674-9.337,1.894,25.9a69.563,69.563,0,0,0,13.247-17.433,68.632,68.632,0,0,0,3.268-7.072l3.231,1.835C126.863,160.438,127.5,141.65,121.422,127.318Z" transform="translate(-44.006 -103.297)" fill="#222a35" opacity="0.3"/><path d="M79.959,136.364l1.663,15.222c1.407-1.512,5-5.783,4.436-10.962-.136-1.256-.463-4.28-2.49-5.031C82.056,135.033,80.423,136.051,79.959,136.364Z" transform="translate(-24.325 -97.36)" fill="#cc9864"/></g><g transform="translate(104.369 32.251)"><path d="M87.671,136.225l3.24,33.787a71.108,71.108,0,0,1-26.3,13.922,62.333,62.333,0,0,1-10.959-52.265c3.847.888,7.929,1.7,12.234,2.388A183.419,183.419,0,0,0,87.671,136.225Z" transform="translate(-51.932 -131.669)" fill="#cc9864"/><path d="M65.88,134.057c-4.3-.689-8.387-1.5-12.234-2.388a62.9,62.9,0,0,0-1.7,12.856c.743-1.139,1.537-2.307,2.381-3.494q1.1-1.55,2.2-2.971a91.869,91.869,0,0,0,27.482,6.169q1.042,3.54,2.055,7.158,2.653,9.493,4.826,18.632l.009-.008-3.24-33.787A183.419,183.419,0,0,1,65.88,134.057Z" transform="translate(-51.922 -131.669)" fill="#352213" opacity="0.2"/></g><g transform="translate(79.298 191.946)"><g transform="translate(0 203.834)"><g transform="translate(31.688)"><path d="M57.372,372.5a18.687,18.687,0,0,0-1.136,7.565c.429,9.151,1.9,13.707,2.211,21.161a66.755,66.755,0,0,1-.763,15.869c-.783,4.331-1.535,5.71-.88,8.176,1.36,5.12,7.584,10.46,13.3,8.9,4.508-1.23,6.347-6.108,6.434-6.346.7-1.956.028-2.066-.136-8.539-.128-5.068.2-8.381.077-12.916-.008-.3-.04-1.119-.02-2.227.039-2.176.277-3.728.509-13.455.127-5.23.17-9.495.189-12.245a12.412,12.412,0,0,0-2.528-6.915C71.051,367,63.8,365.145,60.162,367.871,58.71,368.958,58.1,370.571,57.372,372.5Z" transform="translate(-56.208 -366.598)" fill="#cc9864"/><path d="M60.162,367.871c-1.451,1.086-2.061,2.7-2.79,4.628a18.687,18.687,0,0,0-1.136,7.565c.429,9.151,1.9,13.707,2.211,21.161.012.311.025.63.037.945a24.857,24.857,0,0,0,7.934,2.295,24.487,24.487,0,0,0,10.053-.768c.06-1.985.282-3.954.5-13.012.127-5.23.17-9.495.189-12.245a12.412,12.412,0,0,0-2.528-6.915C71.051,367,63.8,365.145,60.162,367.871Z" transform="translate(-56.208 -366.598)" fill="#352213" opacity="0.2"/></g><g transform="translate(0 49.769)"><path d="M90.471,428.947c-3.121,6.45-12.071,7.916-22.71,9.657-10.558,1.73-22.594,3.7-28.834-2.965-.749-.8-3.76-4.015-3.1-7.533.831-4.461,6.7-4.809,16.927-12.512a55.856,55.856,0,0,0,8.888-7.646c4.757-5.26,6.07-9.3,9.15-9.185,2.781.11,4.763,3.147,5.184,3.793,2.795,4.283.921,9.113.658,9.758,4.231-4.976,9.057-7.8,11.768-6.525,2.391,1.126,2.6,5.191,2.918,11.208C91.637,423.135,91.8,426.205,90.471,428.947Z" transform="translate(-35.73 -398.761)" fill="#ff6552"/><path d="M90.471,421.22c1.035-2.14,1.162-4.5,1.015-8.342a100.609,100.609,0,0,1-13.117,5.588,71.177,71.177,0,0,1-42.512,1.784c-.009.045-.026.085-.034.13-.656,3.517,2.355,6.733,3.1,7.533,6.241,6.665,18.276,4.695,28.834,2.965C78.4,429.137,87.35,427.67,90.471,421.22Z" transform="translate(-35.73 -391.034)" fill="#6d1000" opacity="0.7"/></g></g><g transform="translate(92.886 209.842)"><g transform="translate(0.607)"><path d="M97.945,375.929a13.666,13.666,0,0,0-1.467,9.787,184.133,184.133,0,0,1,5.544,24.464c1.01,6.717,1.516,10.075,1.351,13.8-.2,4.449-1.018,5.863,0,8.051,2.121,4.557,9.948,8.063,14.587,4.73,3.084-2.213,3.347-6.431,3.384-7.4-.036-3.075-.418-30.635-3.664-45.769-.686-3.191-2.016-8.648-6.524-11.417a9.376,9.376,0,0,0-6.2-1.631C100.853,371.1,98.622,374.806,97.945,375.929Z" transform="translate(-96.149 -370.481)" fill="#cc9864"/><path d="M120.168,402.774a156.5,156.5,0,0,0-2.487-19.178c-.686-3.191-2.016-8.648-6.524-11.417a9.376,9.376,0,0,0-6.2-1.631c-4.107.549-6.338,4.258-7.014,5.382a13.666,13.666,0,0,0-1.467,9.787,190.909,190.909,0,0,1,4.831,20.18A26.761,26.761,0,0,0,120.168,402.774Z" transform="translate(-96.149 -370.481)" fill="#352213" opacity="0.2"/></g><g transform="translate(0 52.56)"><path d="M123.463,447.992c-5.509,6.709-20.783,2.516-24.532-1.9l-.059-.071a13.517,13.517,0,0,1-3.113-8.388c.057-3.291,1.6-4.978,3.6-9.94A53.6,53.6,0,0,0,102.1,418.6c-.187-.61-1.787-6.1,1.481-10.152,2.515-3.116,6.4-3.511,9.306-3.807,2.273-.231,4.472-.453,6.555.634,3.469,1.814,5.23,6.538,4.865,11.844a123.533,123.533,0,0,1,2.326,17.552,24.6,24.6,0,0,1-.21,4.865C126.142,441.447,125.554,445.445,123.463,447.992Z" transform="translate(-95.757 -404.447)" fill="#ff6552"/><path d="M123.463,438.1c2.091-2.547,2.679-6.545,2.962-8.46a24.6,24.6,0,0,0,.21-4.865c-.032-.747-.08-1.5-.136-2.261a23.108,23.108,0,0,1-11.791,7.171,24.342,24.342,0,0,1-12.989-.743,21.384,21.384,0,0,1-5.7-3.226,9.231,9.231,0,0,0-.26,2.021,13.517,13.517,0,0,0,3.113,8.388l.059.071C102.68,440.617,117.954,444.811,123.463,438.1Z" transform="translate(-95.757 -394.557)" fill="#6d1000" opacity="0.7"/></g></g><g transform="translate(12.329)"><path d="M53.968,235.872s40.666,5.564,55.323-.95a2.237,2.237,0,0,1,1.1.039c1.685.514,2.295,3.089,2.776,5.117.52,2.19,1.184,4.989-.226,6.632a3.143,3.143,0,0,1-1.046.789s8.678,27.729,11.055,47.12,24.153,150.573,27.72,166.523c0,0-11.989,8.135-25.872,4.7L86.731,326.9s-5.763,39.211-2.643,68.259,4.9,57.659,4.9,57.659-17.147.542-27.394-3.435c0,0-14.51-97.013-16.492-117.974s-3.315-56.147,6.426-84.39c0,0-1.334-.474-1.125-3.454S51.356,235.094,53.968,235.872Z" transform="translate(-43.698 -234.871)" fill="#46546d"/><path d="M133.638,446.29c-3.446,1.007-10,3.288-15.344,3.157l4.491,16.392c13.883,3.438,25.872-4.7,25.872-4.7-3.567-15.951-25.343-147.133-27.72-166.523s-11.055-47.12-11.055-47.12a3.143,3.143,0,0,0,1.046-.789c1.41-1.643.746-4.443.226-6.632-.481-2.029-1.091-4.6-2.776-5.117a2.237,2.237,0,0,0-1.1-.039c-14.657,6.515-55.323.95-55.323.95-2.612-.778-3.352,4.712-3.562,7.692s1.125,3.454,1.125,3.454c-.794,2.3-1.489,4.656-2.14,7.036,5.883,3.817,17.472,9.718,31.6,8.565,20.6-1.679-5.671,6.349-11.166,6.318s-15.728-.121-6.533,3.086,33.444,3.262,23.12,6.262-29.608,4.226-17.6,6.521,31.593-1.411,34.02,3.449,16.226,92.856,18.963,103.232,13.133,46.236,12.05,47.743-10.926,4.763-7.282,5.629S138.342,444.915,133.638,446.29Z" transform="translate(-41.684 -234.871)" fill="#222a35" opacity="0.3"/><path d="M70.809,280.717c-3.89-1.956-14.829-4.727-12.839-2.366s3.039,35.589,2.708,45.3,6.553,65.964,7.092,72.876,2,16.036-1.328,16.471-6.956,1.21-6.149,2.671,11.841-.54,10.233,1.492c-1.523,1.925-9.877,3.466-16,1.263.713,4.812,1.139,7.655,1.139,7.655,10.248,3.977,27.394,3.435,27.394,3.435s-1.784-28.613-4.9-57.659S80.8,303.6,80.8,303.6,74.7,282.673,70.809,280.717Z" transform="translate(-37.769 -211.567)" fill="#222a35" opacity="0.3"/><path d="M49.5,243.237c-.209,2.98,1.125,3.454,1.125,3.454a131.4,131.4,0,0,0-5.28,21.517,39.624,39.624,0,0,0,16.258-31.392c0-.105,0-.2,0-.306-5.157-.5-8.545-.964-8.545-.964C50.453,234.766,49.713,240.256,49.5,243.237Z" transform="translate(-42.794 -234.543)" fill="#222a35" opacity="0.3"/><path d="M104.2,275.981c-3.37-14.838-7.638-28.481-7.638-28.481a3.143,3.143,0,0,0,1.046-.789c1.41-1.643.746-4.443.226-6.632-.481-2.029-1.091-4.6-2.776-5.117a2.237,2.237,0,0,0-1.1-.039c-5.159,2.293-13.54,3.087-22.236,3.155C72.164,246.473,76.317,271.34,104.2,275.981Z" transform="translate(-28.36 -234.871)" fill="#222a35" opacity="0.3"/><g transform="translate(6.686)"><path d="M110.8,240.078c-.481-2.029-1.091-4.6-2.776-5.117a2.237,2.237,0,0,0-1.1-.039c-14.657,6.515-55.323.95-55.323.95-2.612-.778-3.352,4.712-3.562,7.692s1.125,3.454,1.125,3.454,27.245,10.751,60.366.481a3.143,3.143,0,0,0,1.046-.789C111.987,245.067,111.323,242.267,110.8,240.078Z" transform="translate(-48.019 -234.871)" fill="#5e7493"/><path d="M109.52,247.5a3.143,3.143,0,0,0,1.046-.789c1.41-1.643.746-4.443.226-6.632-.481-2.029-1.091-4.6-2.776-5.117a2.237,2.237,0,0,0-1.1-.039c-4.357,1.937-11.019,2.8-18.222,3.067-.009,1.357-.025,3.333-.046,5.735a18.259,18.259,0,0,1-.073,2.784c-1.311,4.345-17.277,2.474-21.421,1.965a139.579,139.579,0,0,1-19.112-3.731,3.1,3.1,0,0,0,.617,1.857,1.309,1.309,0,0,0,.5.419S76.4,257.769,109.52,247.5Z" transform="translate(-48.007 -234.871)" fill="#222a35" opacity="0.15"/></g><g transform="translate(15.517 210.02)"><path d="M55.69,371.9a28.9,28.9,0,0,0,10.334,2.767,29.432,29.432,0,0,0,16.9-4.07,3.5,3.5,0,0,1,1.814,1.563c.534,1.023.271,1.982,0,4.125a36.477,36.477,0,0,0-.378,5.243c.08,3.014.962,3.607.845,4.928-.385,4.323-10.747,8.456-20.28,6.784-1.927-.339-9.3-1.633-10.641-6.191-.605-2.053.593-2.679.11-6.932-.334-2.949-1.187-4.791-.21-6.623A4.3,4.3,0,0,1,55.69,371.9Z" transform="translate(-53.726 -370.596)" fill="#5e7493"/><path d="M85.067,386.455c.118-1.322-.764-1.914-.845-4.928a36.478,36.478,0,0,1,.378-5.243c.275-2.143.538-3.1,0-4.125a3.5,3.5,0,0,0-1.814-1.563,30.293,30.293,0,0,1-12.277,3.989c.755,4.911,1.229,10.572-.922,12.908-2.443,2.654-8.836,1.626-15.485-2.8a4.608,4.608,0,0,0,.039,2.357c1.342,4.559,8.715,5.852,10.641,6.191C74.32,394.912,84.682,390.779,85.067,386.455Z" transform="translate(-53.591 -370.596)" fill="#222a35" opacity="0.15"/></g><g transform="translate(75.907 210.918)"><path d="M94.066,377.338a33.523,33.523,0,0,0,8.452.552,35.918,35.918,0,0,0,18.42-6.714,3.474,3.474,0,0,1,1.215,1.048,4.757,4.757,0,0,1,.738,2.319c.1.721.47,1.82,1.092,4.059.628,2.261.967,2.318,1.639,4.706a16.335,16.335,0,0,1,.715,3.212c.135,4.361-9.756,9.12-18.96,10.211-4.231.5-8.234.918-10.4-1.705-1.626-1.965-.262-3.265-2.377-8.834-1.1-2.889-2.4-5.014-1.591-7.225A4.473,4.473,0,0,1,94.066,377.338Z" transform="translate(-92.752 -371.176)" fill="#5e7493"/><path d="M125.2,386.52a16.472,16.472,0,0,0-.716-3.212c-.672-2.388-1.01-2.445-1.639-4.706-.622-2.239-.993-3.338-1.092-4.059a4.757,4.757,0,0,0-.738-2.319,3.474,3.474,0,0,0-1.215-1.048,38.1,38.1,0,0,1-9.495,4.908c1.8,5.521,3.28,12.95-.936,14.912-4.876,2.27-11.2,1.611-14.533,1.02a4.756,4.756,0,0,0,1,3.01c2.169,2.623,6.173,2.207,10.4,1.705C115.441,395.64,125.332,390.881,125.2,386.52Z" transform="translate(-91.613 -371.176)" fill="#222a35" opacity="0.15"/></g></g></g><g transform="translate(89.614 98.906)"><path d="M58.827,179.437s9.39-.7,14.318-2.346c0,0-2.583,15.726,12.91,14.552s28.166-16.9,28.166-16.9,9.39.938,10.563.7c0,0,14.084,24.881,23.239,30.278,0,0-15.257,16.9-31.923,19.952q-.441,5.264-.752,10.744c-.421,7.477-.616,14.7-.63,21.637a197.88,197.88,0,0,1-22.029-3.082c-9.4-1.866-14.389-3.584-30.21-7.482-6.784-1.671-12.327-2.946-15.858-3.743Q51.811,230.972,57,218.19a23.6,23.6,0,0,1-14.6-14.81,81.4,81.4,0,0,0,9.154-11.033A81.318,81.318,0,0,0,58.827,179.437Z" transform="translate(-42.397 -174.744)" fill="#6d1000"/><path d="M146.528,199.293a17.132,17.132,0,0,1-2.134-1.532c-1.386.936-2.974,1.985-5.065,3.271-.905.556-13.069,7.994-14.16,6.553-.794-1.048,4.814-6.084,3.9-7.262s-6.728,3.472-9.034,1.77c-3.2-2.36,2.784-15.147,1.762-15.587-.67-.286-2.515,5.512-7.794,10.451-4.834,4.521-10.471,6.381-13.506,7.35-7.783,2.484-13.568,1.877-13.761,3.454-.214,1.738,6.671,3.557,6.377,4.783-.132.548-1.612.636-6.528.607-3.147-.017-9.159-.009-13.807,0-4.209.009-4.713.227-4.746.432-.152.98,10.474,3.194,23.486,9.413,1.854.885,3.94,1.778,5.421,3.963,3.013,4.441,2.234,11.955-1.526,14.32-1.216.766-2.381.761-7.912,0-6.7-.924-10.606-1.691-13.784-2.182-3.41-.528-7.034-.747-14.279-1.19-3.916-.238-8.747-.469-14.307-.588,3.531.8,9.074,2.072,15.858,3.743,15.821,3.9,20.812,5.615,30.21,7.482a197.877,197.877,0,0,0,22.029,3.082c.014-6.94.209-14.16.63-21.637q.309-5.478.752-10.744C131.271,216.193,146.528,199.293,146.528,199.293Z" transform="translate(-40.903 -168.311)" fill="#350801" opacity="0.2"/><path d="M95.9,208.351c-1.02-1.2-1.458-2.4-2.332-4.788a39.479,39.479,0,0,1-2.086-8.713q-.726,9.911-1.451,19.822a39.965,39.965,0,0,0,10.139-3.454A11.124,11.124,0,0,1,95.9,208.351Z" transform="translate(-16.324 -163.738)" fill="#350801" opacity="0.3"/><path d="M60.477,193.066a11.794,11.794,0,0,1-5.071,2.019c-2.66.271-4.252-.84-4.675-.192-.357.549.515,1.762,1.718,3.435,1.479,2.058,2.381,2.723,2.194,3.051-.289.506-3.144.224-5.343-1.526-1.937-1.543-3.961-4.7-5.188-6.908-.58.622-1.159,1.238-1.715,1.8A23.6,23.6,0,0,0,57,209.557s6.272-13.828,6.719-19.041A17.181,17.181,0,0,1,60.477,193.066Z" transform="translate(-42.397 -166.11)" fill="#350801" opacity="0.2"/></g></g><g transform="translate(522.802 101.644)"><path d="M473.273,432.362c3.017,1.714,12.946,7.355,12,11.612-1.841,8.262-43.468,5.892-65.947,3.4-22.2-2.46-62.456-9.111-62.156-15.4.262-5.507,31.582-9.546,54.956-8.9,8.54.235,4.732.785,28.639,2.71C456.643,427.063,464.372,427.306,473.273,432.362Z" transform="translate(-318.796 74.269)" fill="#1e0605" opacity="0.3"/><g transform="translate(0 207.095)"><path d="M520.5,260.056l-.07-.545a27.471,27.471,0,0,0-34.211-23.123q-36.081,9.479-72.754,19.7-22.949,6.4-45.545,12.939L351.7,274.068a27.481,27.481,0,0,0-19.183,29.085l.464,4.475a27.48,27.48,0,0,0,35.48,23.4L501.389,289.77A27.483,27.483,0,0,0,520.5,260.056Z" transform="translate(-332.37 -235.479)" fill="#350801"/><path d="M340.878,294.115l-.466-4.71c-1.345-13.617,6.567-26.338,18.925-30.519l-7.635,2.371a27.481,27.481,0,0,0-19.183,29.085l.464,4.475a27.5,27.5,0,0,0,29.35,24.574C351.228,316.813,342.156,307.06,340.878,294.115Z" transform="translate(-332.37 -222.666)" fill="#1e0300" opacity="0.6"/></g><g transform="translate(61.371 9.311)"><path d="M375.675,213.732c-1.437-3.316-2.733-6.021-3.644-7.865,3.557-16.262,5.442-29.588,6.505-38.705,2.358-20.237,2.19-32.8,10.951-46.847,6.846-10.98,12.523-12.248,14.473-12.525,8.715-1.243,16.167,6.887,18.779,9.516,3.735,3.76,12.246,13.841,14.038,56.155a336.54,336.54,0,0,1-.749,40.618c-.566,2.515-4.325,18.013-19.092,25.643-8.554,4.421-23.129,7.353-30.51.562C381.93,236.148,383.318,231.358,375.675,213.732Z" transform="translate(-372.031 -107.661)" fill="#2d3a4a"/><path d="M433.207,172.881c-1.592-37.575-8.481-49.733-12.621-54.618-.695-.819-1.417-1.537-1.417-1.537-5.3-5.281-11.94-7.242-17.083-8.006a46.143,46.143,0,0,0-14.019,16.023c-6.843,13.311-3.889,25.315-3.647,44.356a202.952,202.952,0,0,1-3.83,41.424c-3.875,11.281-2.191,22.926,4.812,30.088a23.749,23.749,0,0,0,10.476,6.1A101.778,101.778,0,0,0,432.458,213.5,336.54,336.54,0,0,0,433.207,172.881Z" transform="translate(-368.461 -107.081)" fill="#0f171e" opacity="0.5"/></g><g transform="translate(49.565)"><g transform="translate(19.787 54.877)"><path d="M394.528,161.681c-.686,17.028,3.489,25.945-1.769,30.255-1.956,1.6-6.106,3.3-9.732,4.777-2.381.972-4.408,1.665-5.838,2.123.212,1.651,4.481,32.964,17.592,34.776,2.237.31,4.794-.232,13.9-7,14.312-10.634,31.6-23.479,28.65-32.173-1.784-5.26-12.419-1.12-13.733-9.006-1.577-9.455-.676-35.346-1.351-40.523-1.074-8.228-15.8-9.473-21.557-5.947C395.309,142.261,394.969,150.728,394.528,161.681Z" transform="translate(-377.189 -137.108)" fill="#a57147"/><path d="M423.6,185.433c-1.577-9.456-.676-35.346-1.351-40.523-1.074-8.228-15.8-9.473-21.557-5.947-5.382,3.3-5.722,11.765-6.163,22.717a135.632,135.632,0,0,0,.67,17.688c5.012-2.177,15.5-7.613,15.5-7.613L409,203.1s-11.141,14.73-12.463,17.373c0,0-7.082-18.414-8.976-25.673-1.476.659-3.047,1.3-4.535,1.911-2.381.972-4.408,1.665-5.838,2.123.212,1.651,4.481,32.964,17.592,34.776,2.237.31,4.794-.232,13.9-7,14.312-10.634,31.6-23.479,28.65-32.173C435.548,189.179,424.912,193.319,423.6,185.433Z" transform="translate(-377.189 -137.108)" fill="#352213" opacity="0.3"/></g><path d="M407.709,111.058a69.7,69.7,0,0,1-10.553-2.445c-5.583-1.761-8.374-2.641-11.021-4.543-2.078-1.493-3.073-2.727-4.252-2.361-1.9.585-2.306,4.693-2.205,6.929a13.462,13.462,0,0,0,2.047,6.457c-2.016-.2-3.773-.357-5.2-.472-3.441-.277-3.853-.238-5.2-.474-3.636-.634-4.113-1.53-5.04-1.1-2.44,1.131-2.951,9.128,1.106,14.183a13.353,13.353,0,0,0,7.084,4.4,11.686,11.686,0,0,1-2.047.788c-2.564.718-3.718.082-4.252.63-1.148,1.176,1.39,6.945,5.828,10.711,4.836,4.1,10.714,4.8,14.275,4.833l-1.345,5.335,15.361.2-.192,15.6s27.455-9.029,30.912-21.958S416.958,112.511,407.709,111.058Z" transform="translate(-364.402 -101.644)" fill="#ff6552"/><path d="M407.687,107.9c-.979-.149-1.92-.316-2.832-.492,1.944,1.914,12.554,12.545,13.317,17.314.84,5.25-3.991,6.51-9.452,5.04-4.825-1.3-31.123-3.915-44.279-13.346a14.386,14.386,0,0,0,2.932,7.658,13.353,13.353,0,0,0,7.084,4.4,11.686,11.686,0,0,1-2.047.788c-2.564.718-3.718.082-4.252.63-1.148,1.176,1.39,6.943,5.827,10.711,4.836,4.1,10.714,4.8,14.275,4.833l-1.345,5.335,15.361.2-.192,15.6s27.455-9.029,30.912-21.958S416.936,109.355,407.687,107.9Z" transform="translate(-364.379 -98.488)" fill="#1e0300" opacity="0.4"/><g transform="translate(17.987 32.249)"><path d="M417.173,168.1s-21.405,9.2-31.407,12.6c0,0-7.8-13.8-9.4-29.207a76.485,76.485,0,0,1,3-29.006c3.076.8,6.321,1.552,9.729,2.225,5.739,1.136,11.168,1.9,16.206,2.4-.738.5-1.736,1.193-2.909,2.024-4.966,3.516-5.352,4.113-5.312,4.679.093,1.292,2.394,2.1,5.06,3.034a34.782,34.782,0,0,0,7.841,1.772c-2.363,1.561-3.827,3.4-3.407,4.475.481,1.227,3.339,1.2,5.209,1.17a18.7,18.7,0,0,0,5.461-.908Q417.207,155.723,417.173,168.1Z" transform="translate(-376.026 -122.485)" fill="#a57147"/><path d="M416.656,168.1q.035-12.374.067-24.744a18.7,18.7,0,0,1-5.461.908c-1.869.028-4.727.057-5.207-1.17-.421-1.072,1.043-2.914,3.406-4.475a34.782,34.782,0,0,1-7.841-1.772c-2.666-.935-4.967-1.742-5.06-3.034-.04-.566.347-1.164,5.312-4.679,1.173-.831,2.171-1.52,2.909-2.024-5.038-.5-10.465-1.26-16.206-2.4-3.407-.673-6.652-1.425-9.728-2.225a65.139,65.139,0,0,0-1.877,7.561c1.62.413,3.376.783,5.266,1.069a54.385,54.385,0,0,0,12.681.418c-2.962,1.024-4.84,2.764-4.772,4.422.028.651.3,1.51,1.741,2.558a16.908,16.908,0,0,0,10.491,3.288s-5.01,3.6-1.566,5.167,11.587.627,11.587.627-.175,14.309-.849,22.671C414.634,168.966,416.656,168.1,416.656,168.1Z" transform="translate(-375.509 -122.485)" fill="#352213" opacity="0.3"/></g></g><g transform="translate(36.514 251.463)"><g transform="translate(18.451)"><path d="M370.033,267.789c-3.984,66.981-1.781,102.235,1.51,122.21,1.01,6.126,5.145,25.365,7.853,52.088,1.939,19.137,2.5,34.926,2.674,45.342a19.673,19.673,0,0,0,19.592,0c-1.023-27.927-1.643-47.367-1.8-57.893-.045-2.911-.094-7.8-.7-14.419-.158-1.73-.444-4.576-2.049-16.365-.631-4.642-1.168-8.48-1.543-11.121q2.321-18.759,4.481-37.879,1.92-17,3.653-33.75a8.58,8.58,0,0,1,4.262,2.131,10.226,10.226,0,0,1,2.344,3.836,26.3,26.3,0,0,1,1.705,5.967c.925,6.962,20.212,63.323,28.659,91.283a612.319,612.319,0,0,1,15.5,63.612c.3.393,4.132,5.2,10.338,4.771a12.241,12.241,0,0,0,8.348-4.373c-4.865-24.469-7.22-41.846-8.472-53.439-.288-2.671-2.374-22.208-5.956-36.051-.224-.868-3.293-12.682-3.293-12.682l-6.388-116.9q-25.662,2.038-53.105,3.016Q383.616,267.647,370.033,267.789Z" transform="translate(-367.891 -264.151)" fill="#350801"/><path d="M460.284,393.738c-.224-.868-3.293-12.682-3.293-12.682l-6.388-116.9q-25.662,2.038-53.105,3.016-14.036.48-27.619.622c-.814,13.685-1.366,26.024-1.707,37.2,3.605,1.995,9.648,4.379,19.113,5.479q.114-7.7.224-15.4a86.231,86.231,0,0,0,26.9-.5q.063,2.927.125,5.854c-15.146.147-18.473.915-18.522,1.622s3.265,1.558,6.443,2.363a65.051,65.051,0,0,0,11.954,1.868q.063,4.171.125,8.344a70.827,70.827,0,0,0,22.417-1.883s10.295,66.455,11.231,73.319,17.472,68.95,16.224,73.63-4.681,4.057-6.241,5.3,2.808,4.056,5.928,3.432,4.368,4.056.936,4.679c-1.558.285-6.27.116-10.948-.15q.986,4.807,1.945,9.877c.3.393,4.132,5.2,10.338,4.771a12.237,12.237,0,0,0,8.348-4.373c-4.865-24.469-7.22-41.846-8.472-53.439C465.952,427.118,463.866,407.581,460.284,393.738Z" transform="translate(-367.737 -264.151)" fill="#1e0300" opacity="0.3"/><path d="M387.237,450.015c-.658.254-1.671.5-4.347,0A27.331,27.331,0,0,1,376.523,448c.508,8.785.726,16.257.822,22.058a19.673,19.673,0,0,0,19.592,0c-1.023-27.927-1.643-47.367-1.8-57.893-.045-2.911-.094-7.8-.7-14.419-.158-1.73-.444-4.576-2.049-16.365-.631-4.642-1.168-8.48-1.543-11.121q2.321-18.759,4.481-37.879,1.92-17,3.653-33.75c-.777-.327-12.744-3.938-13.4-2.327a.6.6,0,0,0,.062.475c1.6,3.253-6.812,46.335-7.585,66.072-.3,7.531,1.1,15.263,3.886,30.728,2.912,16.158,9.26,43.6,3.044,46.459-1.2.551-3.992.706-4.184,1.931-.124.788.9,1.558,1.506,2.005,3.65,2.686,7.559,1.473,7.991,2.824C390.607,447.772,388.88,449.381,387.237,450.015Z" transform="translate(-363.166 -246.777)" fill="#1e0300" opacity="0.3"/></g><g transform="translate(95.31 211.228)"><path d="M427.05,403.054c.449-.413,3.587-.979,9.862-2.115a13.562,13.562,0,0,1,7,.395c.049.019.091.034.13.051,4.933,2.08,5.65,10.708,5.79,13.362a109.914,109.914,0,0,1,4.9,16.033c2.1,9.385,1.956,14.637,1.869,16.492-.224,4.826-.336,7.239-1.749,9.4-4.438,6.8-15.875,5.939-19.243,5.685-4.95-.371-10.569-.792-14.433-5.247-4.133-4.766-4.275-11.864-2.624-16.619,1.416-4.076,3.582-4.8,7.217-11.808a59.078,59.078,0,0,0,3.265-7.537C424.744,413.406,423.906,405.937,427.05,403.054Z" transform="translate(-417.56 -400.656)" fill="#6d1000"/><path d="M435.6,447.312c3.369.254,14.805,1.113,19.243-5.685,1.413-2.163,1.524-4.576,1.748-9.4a39.415,39.415,0,0,0-.028-4.082,28.72,28.72,0,0,1-18.482,7.776c-10.956.379-17.26-2.6-20.508-4.964a16.168,16.168,0,0,0,3.593,11.11C425.031,446.52,430.65,446.941,435.6,447.312Z" transform="translate(-417.558 -385.61)" fill="#350801"/></g><g transform="translate(0 205.434)"><path d="M381.626,399.679c1.581-2.038,4.385-2.38,6.323-2.615,1.244-.152,5.416-.661,7.474,1.71a5.858,5.858,0,0,1,1.17,3.609,67.741,67.741,0,0,1,.132,10.875A8.368,8.368,0,0,1,401,409.732a7.178,7.178,0,0,1,5.085-.125,6.56,6.56,0,0,1,2.8,2.238c2.518,3.259,2.5,7.33,2.507,8.61.076,13.473,4.724,18.487.863,22.55-.851.9-1.832,1.38-5.934,2.6a99.585,99.585,0,0,1-20.206,3.862c-15.182.913-27.322,1.645-29.794-3.578-.638-1.348-.334-3.345.272-7.339.63-4.152,1.082-7.123,2.894-9.871s3.8-3.458,14.742-9.024c3.364-1.711,6.049-3.107,7.613-3.924-.108-1.065-.258-2.561-.426-4.353C380.561,402.291,380.651,400.934,381.626,399.679Z" transform="translate(-355.967 -396.912)" fill="#6d1000"/><path d="M412.994,420.738c-12.658,6.812-46.129,6.2-56.559,5.824-.494,3.293-.693,5.066-.114,6.289,2.471,5.223,14.612,4.491,29.794,3.578a99.585,99.585,0,0,0,20.206-3.862c4.1-1.224,5.082-1.707,5.934-2.6C414.447,427.655,413.893,425.035,412.994,420.738Z" transform="translate(-355.967 -383.87)" fill="#350801"/></g></g><g transform="translate(62.873 106.109)"><path d="M386.506,177a107.6,107.6,0,0,0,12.124,33.028c3.691-5.882,7.836-12.031,12.491-18.346,5.824-7.9,11.65-14.988,17.264-21.294l9.278-.175a439.076,439.076,0,0,0-8.2,61.673c-1.207,19.848-.774,35.327-.412,47.253.653,21.526,2.318,39.736,3.924,53.453a98.446,98.446,0,0,1-56.989,2.341c-1.7-23.573-2.411-43.278-2.731-57.769-.206-9.266-.458-23.471,0-42.156.537-21.931,1.844-40.632,3.144-55.032Q381.454,178.491,386.506,177Z" transform="translate(-373.002 -170.217)" fill="#5e7493"/><path d="M429.467,231.89a439.076,439.076,0,0,1,8.2-61.673l-7.294.138c-2.026,1.486-3.963,2.962-5.793,4.41-4.35,5.083-8.794,10.62-13.241,16.638-.4,12.947-2.462,81.947-1.261,102.767.84,14.555-2.649,20.916-6.733,23.749a26.529,26.529,0,0,1-6.987,2.279c-5.3,1.173-9.209.828-9.289,1.518-.074.641,3.231,1.513,4,1.715,11.828,3.078,21.418,2.612,21.523,3.618.031.289-.7.939-4.571,1.715-7.228,1.447-15.848,1.408-23.864.806-1.2-26.055-1.421-48.686-1.249-67.121.05-5.346.3-27.734,1.851-57.357.59-11.24,1.226-20.812,1.752-28.087q-5.051,1.488-10.1,2.977c-1.3,14.4-2.607,33.1-3.144,55.032-.458,18.685-.206,32.89,0,42.156.32,14.491,1.034,34.2,2.731,57.769.681.176,1.388.348,2.112.517.438.1.894.2,1.346.3.26.056.517.114.781.17.593.125,1.2.244,1.817.364l.333.063a97.888,97.888,0,0,0,17.031,1.707,99.087,99.087,0,0,0,33.569-5.464c-1.606-13.718-3.271-31.927-3.924-53.453C428.693,267.217,428.26,251.739,429.467,231.89Z" transform="translate(-373.002 -170.217)" fill="#222a35" opacity="0.3"/></g><g transform="translate(33.841 7.686)"><path d="M496.028,278.1c-.548-2.009-16.618-31.045-19.722-37.62s-12.783-35.793-14.793-35.975-14.792-1.643-14.792-1.643c.548-7.853-5.478-8.218-6.575-8.766s6.027-10.592,3.471-14.244-12.418-42.185-12.6-54.6-6.575-12.053-14.428-13.879-18.991-4.566-20.452-4.749-3.472,1.741-3.472,1.741c5.045,2.361,13.326,11.022,14.7,14.23s-1.834,75.174-4.125,116.886,5.5,154.585,5.5,154.585c34.332-5.113,42.914-18.08,42.914-18.08L448,340.192s4.017-.365,5.3-2.191,42.366-46.567,42.731-48.028S496.577,280.111,496.028,278.1Zm-47.4,22.662q.165-18.782.333-37.561a70.333,70.333,0,0,0,16.353,16.019,3.99,3.99,0,0,0-1.408,2.156,4.2,4.2,0,0,0,.828,3.48A7.191,7.191,0,0,0,462,285.936a7.882,7.882,0,0,0-2.736,3.4C458.414,291.174,455.936,294.453,448.633,300.764Z" transform="translate(-333.206 -106.611)" fill="#2d3a4a"/><path d="M389.149,352.481s-1.806-116.436.45-142.159,4.3-35.811,4.3-35.811-21.967,6.015-22.221,7.539-2.541,25.4-2.795,27.686-7.6,70.793-9.7,76.5-4.945,12.746-4.945,12.746l1.711,3.424,17.023-4.826-2.79,38.334A23.356,23.356,0,0,0,389.149,352.481Z" transform="translate(-354.24 -69.443)" fill="#2d3a4a"/><path d="M490.653,230.707c-.215-.794-2.857-5.81-6.162-11.988a30.961,30.961,0,0,1,.084,10.217c-.9,5.144-3.791,8.483-5.43,10.521-13.6,16.891-21.161,23.618-29.261,32.649a47.266,47.266,0,0,1-8.3,7.474,46.417,46.417,0,0,1-7.2,4.152q-.378-10.317-.757-20.636l9.631-9.727q.162-18.487.327-36.977a159.53,159.53,0,0,1-9.032-13.168c-4.09-6.654-5.648-10.27-7.219-10.015-2.62.424-2.912,11.22-2.991,14.787-.772,34.906.226,53.809.226,53.809.949,31.525,2.8,47.62-7.008,55.166-2.389,1.838-7.612,4.82-7.01,6.556.535,1.54,5.343,1.232,9.948.905,10.618-.754,16.4-3.059,16.732-2.261.378.916-6.6,5.546-15.375,8.365a58.047,58.047,0,0,1-19.37,2.711c.528,8.358.877,13.421.877,13.421,34.332-5.113,42.914-18.08,42.914-18.08L442.624,292.8s4.017-.365,5.3-2.191,42.366-46.567,42.731-48.028S491.2,232.715,490.653,230.707Z" transform="translate(-327.831 -59.215)" fill="#0f171e" opacity="0.3"/><path d="M375.294,233.838c-.959-.215-2.1,9.793-8,11.739a8.948,8.948,0,0,1-6.459-.755,69.994,69.994,0,0,1-1.645,8.939c-2.092,5.708-4.945,12.746-4.945,12.746l1.711,3.424q8.511-2.414,17.023-4.826c.13-2.248.351-5.636.718-9.745C374.728,243.78,376.242,234.052,375.294,233.838Z" transform="translate(-354.24 -36.969)" fill="#0f171e" opacity="0.3"/><path d="M410.143,201.373c4.34-7.311,20.56-14.165,20.56-14.165l1.083-.031a2.338,2.338,0,0,1-.319-.121c-1.1-.548,6.027-10.592,3.471-14.244-2.476-3.536-11.8-39.762-12.554-53.337.634,19.646-6.578,48.771-8.814,59.281C411.285,189.493,405.8,208.682,410.143,201.373Z" transform="translate(-324.528 -99.569)" fill="#0f171e" opacity="0.3"/></g></g><g transform="translate(382.704 116.455)"><path d="M372.846,429.064c-.11,1.414-2.761,2.731-11.46,4.265-19.845,3.5-26.652.274-43.445,1.332-13.894.876-25.232,4.091-41.046,4.265a43.657,43.657,0,0,1-11.728-1.6c-1.076-.3-13.789-3.867-13.594-7.462.26-4.747,22.888-7.076,26.654-7.463,12.9-1.328,14.669.166,29.585-.268,22.99-.665,26.807-4.446,41.846-2.131C360.493,421.669,373.1,425.875,372.846,429.064Z" transform="translate(-236.501 57.407)" fill="#1e0605" opacity="0.3"/><g transform="translate(88.692 44.722)"><path d="M307.943,140.117l8.839.867,2.253,3.12s-9.875,34.516-10.934,37.885c0,0-9.046-3.079-8.95-3.369S307.943,140.117,307.943,140.117Z" transform="translate(-299.149 -140.117)" fill="#ff6552"/><path d="M306.772,181.681c1.058-3.369,10.934-37.885,10.934-37.885l-2.253-3.12-13.876,39.182C304.027,180.747,306.772,181.681,306.772,181.681Z" transform="translate(-297.821 -139.81)" fill="#1e0300" opacity="0.4"/></g><g transform="translate(13.458 210.545)"><g transform="translate(7.61)"><g transform="translate(0)"><path d="M310.609,269.374c-.3,4.231-.809,10.564-1.653,18.224-3.112,28.263-7.338,43.24-18.717,92.313,0,0-7.021,30.278-14.289,71.21a146.977,146.977,0,0,0-2.745,23c-.483,15.788.419,28.15.419,28.15.746,10.233,1.694,14.467-1.1,16.7-3.225,2.583-10.321,1.606-14.163-2.238-5.688-5.69-1.707-15.12.686-37.484.876-8.193,1.066-13.715,1.447-24.755,1.195-34.659-3.913-45.945,2.055-67.213a93.831,93.831,0,0,1,6.756-17.263q-1.177-15.342-1.784-31.74s-.214-5.978-.317-11.055c-.446-21.953,2.32-51.982,3.458-63.544,2.6-11.353,13.832-18.312,24.333-15.943C304.4,249.864,311.276,259.034,310.609,269.374Z" transform="translate(-255.447 -247.279)" fill="#350801"/></g><path d="M310.609,269.374c.667-10.34-6.207-19.51-15.615-21.633-10.5-2.369-21.732,4.59-24.333,15.943-1.139,11.562-3.9,41.591-3.458,63.544.1,5.077.317,11.055.317,11.055q.587,16.389,1.784,31.74a93.831,93.831,0,0,0-6.756,17.263c-5.968,21.267-.86,32.554-2.055,67.213-.381,11.041-.571,16.562-1.447,24.755-2.392,22.364-6.374,31.794-.686,37.484.079.079.167.149.248.226l14.953.8c1.459-2.494.693-6.85.063-15.494,0,0-.9-12.362-.419-28.15a146.977,146.977,0,0,1,2.745-23q.875-4.928,1.741-9.628-2.716-.348-5.575-.633-2.256-.223-4.432-.385a161.475,161.475,0,0,1,.266-17.089c1.571-22.908,8.135-27.644,9.928-50.962.331-4.3,2.316-36.732,2.316-36.732,4.518,2.259,14.747,3.567,19.423,4.065,4.751-20.661,7.287-33.524,9.339-52.158C309.8,279.938,310.308,273.6,310.609,269.374Z" transform="translate(-255.447 -247.279)" fill="#1e0300" opacity="0.4"/></g><g transform="translate(0 200.476)"><path d="M259.1,377.367a50.324,50.324,0,0,1,27.494,3.694q-3.287,20.734-6.57,41.472a230.218,230.218,0,0,0,3.287,28.286c.393,2.01,1.212,5.909-.845,9.321-2.177,3.612-6.385,4.7-8.059,5.128-7.882,2.032-18.915-.913-22.711-8.548-1.827-3.677-1.243-7.548,0-15.141a82.35,82.35,0,0,1,5.128-18.07Q257.959,400.437,259.1,377.367Z" transform="translate(-250.529 -376.836)" fill="#2d3a4a"/><path d="M282.461,437.358c2.056-3.412,1.238-7.311.845-9.321q-.367-1.878-.72-4.033a18.5,18.5,0,0,1-10.6,5.679c-11.957,2.242-17.763-5.894-20.232-11.228-.019.116-.042.226-.062.342-1.243,7.593-1.827,11.465,0,15.141,3.8,7.635,14.829,10.58,22.711,8.548C276.076,442.054,280.284,440.97,282.461,437.358Z" transform="translate(-250.529 -354.054)" fill="#0f171e" opacity="0.5"/></g></g><g transform="translate(73.682 215.295)"><path d="M314.114,253.185c14.021,10.041,14.575,48.548,11.754,119.422-.681,17.15-1.023,25.724-1.291,28.783,0,0-4.63,45.959-4.167,63.234a39.229,39.229,0,0,0,1.866,12.081c.9,2.708,3,7.926,13.914,20.412,8.277,9.47,12.22,12.362,11.248,14.366-1.167,2.4-8.405,1.487-12.938.128-7.322-2.194-6.805-5.317-14.532-7.653-4.681-1.416-7.307-1.007-10.914-3.737a16.807,16.807,0,0,1-4.515-5.193c-2.8-5.088-1.657-9.872-1.071-17.865.385-5.269-.031-10.569.147-15.848.859-25.456-6.819-38.292-4.548-65.2a126.806,126.806,0,0,1,2.822-17.866c-2.932-21.65-5.543-38.874-7.24-49.758-3.525-22.594-10-62.023.627-72.9,4.8-4.911,9.9-5.227,9.9-5.227A14.543,14.543,0,0,1,314.114,253.185Z" transform="translate(-289.449 -250.349)" fill="#350801"/><path d="M335.766,496.623c-10.527-12.121-12.6-17.247-13.489-19.918a39.229,39.229,0,0,1-1.866-12.081c-.136-5.052.167-12.565.659-20.659a51.236,51.236,0,0,1-11.429-.976s0-3.11-.933-12.446,2.177-45.117,3.423-51.341-.935-39.517-.935-39.517c8.489.214,13.5-1.889,15.83-3.248.992-48.023-1.495-75.077-12.911-83.252a14.54,14.54,0,0,0-8.932-2.821s-5.106.316-9.9,5.227c-10.628,10.877-4.152,50.306-.627,72.9,1.7,10.884,4.308,28.108,7.24,49.758a126.806,126.806,0,0,0-2.822,17.866c-2.272,26.908,5.407,39.743,4.548,65.2-.178,5.28.238,10.579-.147,15.848-.586,7.992-1.727,12.777,1.071,17.865a16.807,16.807,0,0,0,4.515,5.193c3.607,2.73,6.233,2.321,10.914,3.737.034.009.063.022.1.031l15.4-3.124Z" transform="translate(-289.449 -250.349)" fill="#1e0300" opacity="0.4"/><g transform="translate(11.519 201.894)"><path d="M296.893,382.888a42,42,0,0,1,28.727.989l-.8,30.213a14.641,14.641,0,0,0,1.281,3.955,14.885,14.885,0,0,0,3.661,4.662,100.988,100.988,0,0,0,8.894,7.138c8.952,6.151,11.268,7.24,11.622,9.984a34.594,34.594,0,0,1-.905,5.085c-1.2,5.807-1.764,6.539-2.138,6.92-1.082,1.1-2.451,1.229-7.407.91-12.727-.82-15.607-1.694-18.419-3.155a28.04,28.04,0,0,1-3.064-1.851,18.4,18.4,0,0,0-3.355-4.135,17.848,17.848,0,0,0-2.6-1.984c-.09.464-.226,1.136-.416,1.939-.525,2.227-.8,3.352-1.411,3.892-.679.6-1.5.594-3,.559a12.131,12.131,0,0,1-5.018-1.08,12.878,12.878,0,0,1-5.239-4.546l.268-13.167q-.1-8.186-.218-16.388Q297.136,397.83,296.893,382.888Z" transform="translate(-296.893 -380.823)" fill="#2d3a4a"/><path d="M310.414,430.263c.611-.54.887-1.665,1.411-3.892.19-.8.327-1.475.416-1.939a17.848,17.848,0,0,1,2.6,1.984,18.4,18.4,0,0,1,3.355,4.135,28.052,28.052,0,0,0,3.064,1.851c2.812,1.461,5.691,2.335,18.419,3.154,4.956.32,6.326.19,7.407-.908.374-.381.939-1.113,2.138-6.92.217-1.052.395-1.914.535-2.626-6.321,3.2-28.4-.091-32.741-2.9-3.708-2.4-14.821-7.814-19.6-9.979q-.132,6.487-.265,12.975a12.878,12.878,0,0,0,5.239,4.546,12.1,12.1,0,0,0,5.018,1.079C308.912,430.857,309.735,430.865,310.414,430.263Z" transform="translate(-296.751 -363.636)" fill="#0f171e" opacity="0.5"/></g></g><g transform="translate(19.723)"><path d="M329.473,232.39s1.677-71.8,4.361-80.519l4.31-1.43a42,42,0,0,0-3.135-17.82c-1.67-4.009-5.778-13.88-16-18.761-14.075-6.72-28.517,1.38-30.015,2.251a20.588,20.588,0,0,0-10.505,2.813c-5.821,3.527-8.15,9.414-9.379,12.757-8.659,23.544-12.339,55.519-12.569,57.589-2.4,21.543-2.338,26.123-1.213,32.047a72.021,72.021,0,0,0,10.593,25.919q1.077-3.735,2.156-7.466s8.051,14.762,14.762,20.8,13.083,7.381,13.083,7.381-1.677-21.807-1.006-23.485c0,0,9.729,14.762,17.11,17.111l.336-21.136,7.381,13.419A34.788,34.788,0,0,0,329.473,232.39Z" transform="translate(-254.578 -111.216)" fill="#2d3a4a"/><path d="M302.579,202.768q1-4.742,1.917-9.589a519.432,519.432,0,0,0,7.37-54.162l-24.457-1.459-9.591,58.759Q290.2,199.544,302.579,202.768Z" transform="translate(-241.856 -96.796)" fill="#0f171e" opacity="0.5"/><path d="M277.847,153.806s-5.685,26.869-5.588,36.061,4.517,36.1,7.194,40.386q-9.821-14.655-19.64-29.312c1.072-11.6,2.518-21.611,3.9-29.691,2.346-13.707,4.384-21.1,8.068-28.924,1.1-2.33,2.114-4.217,2.838-5.506Q276.236,145.312,277.847,153.806Z" transform="translate(-251.712 -97.2)" fill="#0f171e" opacity="0.5"/><path d="M300.52,139.555c-.35-.7-6.662-17.673-6.662-17.673-1.193,1.332-7.294,15.709-7.294,15.709a32.83,32.83,0,0,1-10.539-.265,15.331,15.331,0,0,0,4.3,3.635,15.994,15.994,0,0,0,9.238,2.887q1.878-7.072,3.754-14.146,1.588,7.075,3.175,14.146a48.042,48.042,0,0,0,17.713,1.484,29.216,29.216,0,0,1,7.886.7l4.309-1.43C320.446,140.952,300.52,139.555,300.52,139.555Z" transform="translate(-242.839 -105.377)" fill="#0f171e" opacity="0.5"/></g><path d="M279.6,159.295s-1.611,22.581-2.624,23.016-9.122,0-9.122,0a58.961,58.961,0,0,0,4.181,14.224c3.031,6.926,5.9,13.492,12.543,17.376,5.759,3.369,16.616,6.046,23.808-.158,6.847-5.9,8.193-17.981,1.56-27.725-1.88-.371-4.458-.9-7.522-1.585-4.2-.936-4.709-1.133-5.243-1.634-1.877-1.77-1.5-4.563-.984-11.816.169-2.394.416-6.2.636-11.005-.416-6.176-5.858-10.135-10.448-9.24C282.893,151.433,279.953,154.922,279.6,159.295Z" transform="translate(-227.587 -89.644)" fill="#eabd8c"/><path d="M309.949,174.818c-1.88-.371-4.458-.9-7.522-1.585a37.72,37.72,0,0,1-4.384-1.119c1.544,4.579.7,9.026-2.035,11.208-2.437,1.944-5.6,1.469-6.632,1.314-8.573-1.289-12.494-12.5-12.812-13.445a84.194,84.194,0,0,1-8.707-.09,58.961,58.961,0,0,0,4.181,14.224c3.031,6.926,5.9,13.492,12.543,17.376,5.759,3.369,16.616,6.046,23.808-.158C315.237,196.638,316.583,184.562,309.949,174.818Z" transform="translate(-227.587 -78.434)" fill="#cc9864"/><g transform="translate(72.799 96.213)"><g transform="translate(8.486 19.565)"><path d="M304.328,211.208s27.593,27.341,33.111,28.847,10.033-5.769,9.783-9.031-40.636-43.9-43.4-44.9-12.04,6.773-8.778,13.045S304.328,211.208,304.328,211.208Z" transform="translate(-294.363 -186.037)" fill="#eabd8c"/><path d="M331.416,212.832c-11.742-12.22-25.989-26.125-27.589-26.707-2.759-1-12.04,6.773-8.778,13.045s9.28,12.039,9.28,12.039,6.456,6.4,13.744,13.17A31.707,31.707,0,0,0,331.416,212.832Z" transform="translate(-294.363 -186.037)" fill="#cc9864"/></g><path d="M293.916,174.066c2.973-1.49,6.429-.135,8.1.523,8,3.138,9.509,10.759,18.038,21.959a88.866,88.866,0,0,0,9.934,10.98,38.839,38.839,0,0,1-25.371,18.841c-1.535-3.652-3.964-9.173-7.313-15.753-4.9-9.622-6.954-12.033-7.924-17.623C288.3,186.728,288.61,176.726,293.916,174.066Z" transform="translate(-288.878 -173.393)" fill="#6d1000"/><path d="M326.208,204.838c-1.761,1.956-6.589,6.737-10.617,5.3-3.766-1.345-15.9-24.868-21.744-36.571a6.088,6.088,0,0,0-1.065.407,6.376,6.376,0,0,0-1.834,1.407l1,27.151c1.1,2.067,2.48,4.569,4.224,7.994,3.349,6.58,5.778,12.1,7.313,15.752a38.839,38.839,0,0,0,25.371-18.841C327.915,206.548,327.04,205.684,326.208,204.838Z" transform="translate(-287.745 -173.299)" fill="#350801" opacity="0.5"/></g><path d="M291.965,176.028c.077-1.393.206-3.041.347-5.035.169-2.394.416-6.2.636-11.005-.416-6.176-5.858-10.135-10.448-9.24-3.5.684-6.436,4.173-6.785,8.546,0,0-.314,4.41-.754,9.368a41.269,41.269,0,0,0,17,7.366Z" transform="translate(-223.698 -89.644)" fill="#cc9864"/><g transform="translate(40.875 92.023)"><path d="M268.949,170.962l5.688-.277c.45,1.484,5.1,16.169,15.418,17.947,1.092.189,4.105.707,6.549-.986,3.548-2.46,4.554-8.661,2.152-15.519l7.516,1.749a95.45,95.45,0,0,1,3.919,9.817c2.7,8.06,4.1,12.966,2.462,16.684-3.239,7.381-19.09,10.583-29.968,4.995C272,199.886,266.136,185.936,268.949,170.962Z" transform="translate(-268.248 -170.685)" fill="#6d1000"/><path d="M312.655,200.347c1.632-3.718.24-8.624-2.464-16.684a95.448,95.448,0,0,0-3.919-9.817l-5.814-1.352c.919,2.853,2.295,8.908,4.347,19.994-.99-.079-2.423-.172-4.155-.2a88.6,88.6,0,0,0-9.02.405c-2.12.164-4.836.391-8.006.709a116.319,116.319,0,0,0-6.182-14.594c-1.475-2.909-2.994-5.594-4.506-8.068l-3.988.195c-2.813,14.974,3.055,28.924,13.736,34.409C293.563,210.93,309.415,207.729,312.655,200.347Z" transform="translate(-268.248 -170.656)" fill="#350801" opacity="0.5"/></g><g transform="translate(41.044 24.326)"><path d="M280.644,138.195q-1.135,6.65-2.2,13.461-1.634,10.454-3,20.605a63.424,63.424,0,0,0,26.9,12.373A79.687,79.687,0,0,0,309.44,170.3a80.588,80.588,0,0,0,5.085-27.736,48.041,48.041,0,0,1-17.713-1.484l-3.175-14.146q-1.878,7.075-3.754,14.146a15.994,15.994,0,0,1-9.238-2.887Z" transform="translate(-264.475 -126.936)" fill="#eabd8c"/><path d="M291.474,147.464l1.928-9.255,1.928,9.448a41.6,41.6,0,0,0,18.962.515c.153-2.026.22-3.906.232-5.606a48.041,48.041,0,0,1-17.713-1.484l-3.175-14.146q-1.878,7.075-3.754,14.146a15.994,15.994,0,0,1-9.238-2.887q-1.135,6.65-2.2,13.461-1.634,10.454-3,20.605l8.314-26.919A43.848,43.848,0,0,0,291.474,147.464Z" transform="translate(-264.475 -126.936)" fill="#cc9864" opacity="0.7"/><path d="M273.3,153.754l2.852-17.53s-3.845-.557-6.2.975S267.218,149.163,273.3,153.754Z" transform="translate(-268.357 -121.906)" fill="#eabd8c"/></g><g transform="translate(22.506 91.297)"><path d="M276.544,170.216a56.4,56.4,0,0,1,5.089,7.957,57.184,57.184,0,0,1,5.93,18.145c3.479-.381,7.14-.681,10.968-.873,5.657-.285,10.991-.3,15.954-.125a92.892,92.892,0,0,0-6.757-23.429q2.112.527,4.279,1.037,2.8.659,5.535,1.255c1.352,3.1,3.2,7.635,5.3,13.161,3.1,8.173,4.554,12.3,5.235,16.328,1.151,6.807-.046,9.388-.947,22.538-.313,4.537-.613,10.7-.6,18.091.692,2.295,1.677,5.622,2.81,9.653,0,0,1.275,4.539,2.607,9.614,5.509,21,9.281,37.688,9.281,37.688,5.659,25.028,9.592,47.61,11.585,59.641a98.765,98.765,0,0,1-36.862,9.032c-29.374,1.323-51.117-11.117-59.565-16.6,1.8-8.02,3.262-14.422,4.15-18.309,3.664-16.045,11.821-51.445,13.725-67.7.667-5.691,1.14-11.406,1.14-11.406.33-3.974.549-7.472.7-10.358-1.317-4.306-3.038-9.94-4.429-14.505-4.582-15.027-4.164-13.8-4.579-15.045-10.016-30.046-9.6-33.049-8.794-39.047a8,8,0,0,1,1.623-4.084,9.885,9.885,0,0,1,1.535-1.439,9.627,9.627,0,0,1,2.143-1.212Q270.068,170.218,276.544,170.216Z" transform="translate(-256.377 -170.216)" fill="#5e7493"/><path d="M335.715,277.813c-1.128-4.521-2.4-9.506-3.777-14.761-1.332-5.075-2.607-9.614-2.607-9.614-1.133-4.031-2.118-7.358-2.81-9.653-.009-7.387.291-13.554.6-18.091.865-12.619,2-15.516,1.069-21.742h0a15.977,15.977,0,0,1-6.34,8.651c-3.352,2.092-6.529,1.9-11.092,1.849-19.081-.226-21.158,2.4-24.953-.554-.925-.72-1.654-1.538-6.286-15.158-2.437-7.171-4.93-13.349-7.715-17.674a30.945,30.945,0,0,0-10.657-9.913h0a9.2,9.2,0,0,0-1.236,1.2,8.012,8.012,0,0,0-1.623,4.084c-.8,6-1.222,9,8.794,39.047.415,1.246,0,.019,4.579,15.045,1.391,4.565,3.112,10.2,4.429,14.505-.15,2.886-.37,6.385-.7,10.358,0,0-.474,5.715-1.14,11.406-1.9,16.26-10.061,51.66-13.725,67.7-.888,3.887-2.346,10.289-4.15,18.309a105.423,105.423,0,0,0,29.659,13.266c1.131-12.679,2.68-25.968,4.757-39.8,2.2-14.668,4.785-28.563,7.6-41.637a112.289,112.289,0,0,0,37.32-6.83Z" transform="translate(-256.377 -169.703)" fill="#222a35" opacity="0.3"/><path d="M292.953,231.848c-10.176-7.358-6.943-18.477-19.239-32.67a56.449,56.449,0,0,0-12.113-10.47c1.334,4.478,3.113,10.06,5.484,17.168.415,1.246,0,.019,4.579,15.045,1.391,4.565,3.112,10.2,4.429,14.505-.15,2.886-.37,6.385-.7,10.358,0,0-.474,5.715-1.14,11.406-1.9,16.26-10.061,51.66-13.725,67.7-.888,3.887-2.346,10.289-4.15,18.309a105.676,105.676,0,0,0,14.08,7.672c4.433-26.324,7.556-46.238,10.057-63.725.127-.887,3.689-25.794,14.84-37.693a39.043,39.043,0,0,1,12.535-9.1c5.6-2.233,10.2-2.061,10.211-2.836C318.126,236.133,303.3,239.333,292.953,231.848Z" transform="translate(-256.377 -160.094)" fill="#222a35" opacity="0.2"/><path d="M270.08,316.818c2.645.966,5.459,1.882,8.455,2.692,1.131-12.679,2.68-25.968,4.757-39.8q1.817-12.107,3.966-23.483C280,269.912,271.553,309.714,270.08,316.818Z" transform="translate(-248.876 -123.133)" fill="#222a35" opacity="0.3"/><path d="M296.829,323.371c1.247-.056,2.468-.142,3.675-.243-.769-20.39-6.942-67.861-6.942-67.861.241,10.581-1.659,57.326-2.268,68.192C293.108,323.481,294.952,323.456,296.829,323.371Z" transform="translate(-237.264 -123.659)" fill="#222a35" opacity="0.3"/><path d="M304.276,253.871c2.578,11.946,4.944,24.63,6.968,38.007,1.448,9.572,2.61,18.83,3.553,27.782,3.229-1.023,6.146-2.121,8.716-3.2C317.806,294.665,304.276,253.871,304.276,253.871Z" transform="translate(-230.157 -124.423)" fill="#222a35" opacity="0.3"/></g><g transform="translate(0 109.082)"><path d="M279.646,195.728q-1.049,12.32-2.8,25.586c-1.448,10.852-3.161,21.182-5.048,30.957,0,0,0,3.892-.362,9.518a180.388,180.388,0,0,1-2.487,19.927c-2.994,17.241-8.065,36.508-9.287,41.1,1.792,5.255,3.384,9.592,4.577,12.752,1.891,5.009,2.836,7.513,3.748,9.428,3.146,6.612,5.9,9.77,5.116,10.532s-4.405-1.693-5.388-2.361c-5.062-3.449-5.978-6.5-7.417-6.163-2.149.5-3.96,8.2-2.309,15.01.588,2.425,1.792,5.469.508,8.831-.265.7-.87,2.279-1.773,2.352-1.328.105-3.124-3.059-5.609-12.607a13.057,13.057,0,0,1-5.533-6.872,12.644,12.644,0,0,1-.472-5.964,7.5,7.5,0,0,1-2.688-3.022c-.744-1.585-.727-3.174-.279-5.745a50.264,50.264,0,0,1,2.9-9.815c.692-1.851,1.634-4.534,2.6-7.875.286-6.244.772-16.63,1.461-30.036.594-11.595.95-17.848,2.988-26.193a97.032,97.032,0,0,1,4.656-14.216q2.128-28.731,4.255-57.461c1.117-8.424,8.385-12.794,12.9-11.438C277.829,183.128,281.074,189.02,279.646,195.728Z" transform="translate(-241.832 -181.71)" fill="#eabd8c"/><path d="M268.036,181.953c-4.518-1.356-11.786,3.014-12.9,11.438q-1.279,17.267-2.558,34.536a21.963,21.963,0,0,0,17.055,2.74c.466-3.078.918-6.187,1.34-9.354q1.769-13.251,2.8-25.586C275.194,189.02,271.949,183.128,268.036,181.953Z" transform="translate(-235.952 -181.71)" fill="#cc9864"/></g><g transform="translate(3.418 91.278)"><path d="M251.337,200.049c7.4-16.514,8.105-27.906,15.33-29.633a9.615,9.615,0,0,1,5.911.692c9.976,4.2,9.2,23.033,8.918,29.845a76.7,76.7,0,0,1-3.081,17.937,83.162,83.162,0,0,1-2.756,7.989,39.394,39.394,0,0,1-21.079-4.371,35.361,35.361,0,0,1-10.539-8.591A124.312,124.312,0,0,0,251.337,200.049Z" transform="translate(-244.041 -170.204)" fill="#6d1000"/><path d="M275.674,172.129a25.543,25.543,0,0,1,2.236,12.051c-.913,13.933-13.739,25.659-19.428,24.237-.6-.15-1.71-.6-1.875-.3-.566,1.006,14.5,10.279,7.67,10.515-5.5.19-12.938-6.578-17.334-10.8-1.089,1.992-2.087,3.692-2.9,5.031a35.361,35.361,0,0,0,10.539,8.591,39.394,39.394,0,0,0,21.079,4.371,83.162,83.162,0,0,0,2.756-7.989A76.7,76.7,0,0,0,281.5,199.9C281.743,193.893,282.367,178.557,275.674,172.129Z" transform="translate(-244.041 -169.15)" fill="#350801" opacity="0.5"/></g><path d="M325.449,249.427c-7.94-15.248-16.959-50.557-18.6-57.053-4.873-10.351-4.212-16.825-2.519-20.913,1.178-2.839,3.008-4.907,5.538-10.666a70.564,70.564,0,0,0,3.574-10.2,6.067,6.067,0,0,1,1.756,2.364c.672,1.679.11,2.722-.385,6.306a30.178,30.178,0,0,0-.466,6.98,9.373,9.373,0,0,1,.019,3.446c-.107.4-.446,1.49-.846,3.2l-.017.073a31.42,31.42,0,0,0,.5,15.37,199.674,199.674,0,0,0,11.178,22.758c5.524,9.625,8.667,13.193,12.491,22.443,3.031,7.336,7.373,18.16,2.878,23.042a7.171,7.171,0,0,1-5.431,2.261C332.29,258.7,329.132,256.5,325.449,249.427Z" transform="translate(-208.309 -89.658)" fill="#eabd8c"/></g></g></svg>