<?xml version="1.0" encoding="utf-8"?>
<!-- Generator: Adobe Illustrator 23.0.1, SVG Export Plug-In . SVG Version: 6.00 Build 0)  -->
<svg version="1.1" id="Layer_1" xmlns="http://www.w3.org/2000/svg" xmlns:xlink="http://www.w3.org/1999/xlink" x="0px" y="0px"
	 viewBox="0 0 400.8 353.8" style="enable-background:new 0 0 400.8 353.8;" xml:space="preserve">
<style type="text/css">
	.st0{fill:#FFFFFF;}
	.st1{fill:#FFCF9F;}
	.st2{fill:#040B20;}
	.st3{fill:#6B6271;}
	.st4{fill:#75C6D1;}
	.st5{fill:#F75F73;}
	.st6{fill:#F4CDA6;}
	.st7{fill:#DADADA;}
	.st8{opacity:0.3;}
	.st9{fill:#3C3C3B;}
	.st10{opacity:0.2;fill:#3C3C3B;enable-background:new    ;}
	.st11{fill:#F3384B;}
	.st12{opacity:0.35;fill:#FFFFFF;enable-background:new    ;}
	.st13{fill:#EE1D2C;}
	.st14{fill:#FB7058;}
	.st15{opacity:0.75;fill:#FFFFFF;enable-background:new    ;}
	.st16{opacity:0.25;fill:#3C3C3B;enable-background:new    ;}
	.st17{opacity:0.1;fill:#FFFFFF;enable-background:new    ;}
	.st18{opacity:0.3;fill:#FFFFFF;enable-background:new    ;}
	.st19{fill:#F6F6F6;}
	.st20{opacity:0.1;fill:#1D1D1B;enable-background:new    ;}
	.st21{fill:#2F2E29;}
	.st22{fill:#71433D;}
	.st23{fill:#FAF0F0;}
	.st24{fill:#4A4150;}
	.st25{fill:#F2C799;}
	.st26{fill:#FFD2A1;}
	.st27{fill:#E6DCDC;}
	.st28{fill:#21201D;}
	.st29{opacity:7.000000e-02;enable-background:new    ;}
	.st30{opacity:0.2;enable-background:new    ;}
	.st31{fill:#C49F7B;}
	.st32{fill:#E3B88E;}
	.st33{opacity:0.4;}
</style>
<title>treatment</title>
<g>
	<g>
		<g id="Layer_1-2">
			<path class="st0" d="M50.1,107.1l-0.1-0.5l1.5-0.4l0.1,0.5C51,106.9,50.5,107,50.1,107.1z"/>
			<path class="st0" d="M30.2,227.4c-0.6-0.8-1.3-1.6-1.9-2.4l0.4-0.3c0.6,0.8,1.2,1.6,1.9,2.4L30.2,227.4z M27.1,223.4
				c-0.6-0.8-1.2-1.6-1.7-2.5l0.4-0.3c0.6,0.8,1.1,1.7,1.7,2.5L27.1,223.4z M24.2,219.2c-0.5-0.9-1.1-1.7-1.6-2.6l0.4-0.3
				c0.5,0.9,1,1.7,1.6,2.6L24.2,219.2z M21.6,214.9c-0.5-0.9-1-1.8-1.4-2.7l0.4-0.2c0.5,0.9,0.9,1.8,1.4,2.7L21.6,214.9z
				 M19.3,210.4c-0.4-0.9-0.9-1.8-1.3-2.8l0.5-0.2c0.4,0.9,0.8,1.8,1.3,2.7L19.3,210.4z M17.2,205.8c-0.4-0.9-0.8-1.9-1.1-2.8
				l0.5-0.2c0.4,0.9,0.7,1.9,1.1,2.8L17.2,205.8z M15.4,201.1c-0.3-0.9-0.7-1.9-1-2.9l0.5-0.1c0.3,0.9,0.6,1.9,1,2.9L15.4,201.1z
				 M13.8,196.2c-0.3-1-0.5-2-0.8-2.9l0.5-0.1c0.3,1,0.5,2,0.8,2.9L13.8,196.2z M12.5,191.4c-0.2-1-0.4-2-0.6-3l0.5-0.1
				c0.2,1,0.4,2,0.6,3L12.5,191.4z M11.5,186.4c-0.2-1-0.3-2-0.5-3l0.5-0.1c0.1,1,0.3,2,0.5,3L11.5,186.4z M10.8,181.4
				c-0.1-1-0.2-2-0.3-3H11c0.1,1,0.2,2,0.3,3H10.8z M10.4,176.4c-0.1-1-0.1-2-0.1-3h0.5c0,1,0.1,2,0.1,3H10.4z M10.7,171.3h-0.5
				c0-1,0-2,0.1-3h0.5C10.8,169.3,10.8,170.3,10.7,171.3L10.7,171.3z M10.9,166.3h-0.5c0.1-1,0.1-2,0.2-3h0.5
				C11,164.2,11,165.3,10.9,166.3L10.9,166.3z M11.3,161.3l-0.5-0.1c0.1-1,0.3-2,0.4-3l0.5,0.1C11.6,159.2,11.5,160.2,11.3,161.3
				L11.3,161.3z M12,156.3l-0.4-0.1c0.2-1,0.4-2,0.6-3l0.5,0.1C12.4,154.3,12.3,155.3,12,156.3L12,156.3z M13,151.4l-0.5-0.1
				c0.2-1,0.5-2,0.8-2.9l0.5,0.1C13.6,149.4,13.3,150.3,13,151.4L13,151.4z M14.4,146.5l-0.5-0.1c0.3-1,0.6-1.9,1-2.9l0.5,0.2
				C15,144.6,14.7,145.5,14.4,146.5L14.4,146.5z M16,141.7l-0.4-0.2c0.4-0.9,0.7-1.9,1.1-2.8l0.5,0.2
				C16.8,139.8,16.4,140.8,16,141.7L16,141.7z M18,137.1l-0.5-0.2c0.4-0.9,0.9-1.8,1.3-2.7l0.4,0.2C18.9,135.2,18.4,136.1,18,137.1
				L18,137.1z M20.3,132.6l-0.4-0.2c0.5-0.9,1-1.8,1.5-2.6l0.4,0.3C21.3,130.8,20.8,131.7,20.3,132.6z M22.9,128.3l-0.4-0.3
				c0.6-0.9,1.1-1.7,1.7-2.5l0.4,0.3C24,126.6,23.4,127.4,22.9,128.3L22.9,128.3z M25.8,124.2l-0.4-0.3c0.6-0.8,1.3-1.6,1.9-2.4
				l0.4,0.3C27.1,122.6,26.4,123.4,25.8,124.2L25.8,124.2z M29.1,120.4l-0.4-0.3c0.7-0.7,1.4-1.5,2.2-2.2l0.3,0.4
				C30.5,118.9,29.8,119.6,29.1,120.4L29.1,120.4z M32.7,116.9l-0.3-0.4c0.8-0.7,1.5-1.3,2.3-1.9l0.3,0.4
				C34.2,115.6,33.4,116.2,32.7,116.9L32.7,116.9z M36.6,113.7l-0.3-0.4c0.8-0.6,1.7-1.2,2.5-1.7l0.3,0.4
				C38.3,112.6,37.4,113.1,36.6,113.7z M40.8,111l-0.2-0.5c0.9-0.5,1.8-1,2.7-1.4l0.2,0.4C42.6,110.1,41.7,110.6,40.8,111z
				 M45.3,108.8l-0.2-0.5c0.9-0.4,1.9-0.8,2.8-1.1l0.2,0.5C47.2,108.1,46.3,108.4,45.3,108.8z"/>
			<path class="st0" d="M32.5,230.2c-0.3-0.4-0.7-0.8-1-1.1l0.4-0.3c0.3,0.4,0.6,0.8,1,1.1L32.5,230.2z"/>
			<path class="st0" d="M55.9,53.1c0-0.5-0.1-1-0.1-1.5h0.5c0,0.5,0,1,0.1,1.5L55.9,53.1z"/>
			<path class="st0" d="M56.3,49.6h-0.5c0-1,0.1-2,0.2-3l0.5,0C56.4,47.6,56.3,48.6,56.3,49.6z M56.7,44.7l-0.5-0.1
				c0.2-1,0.3-2,0.6-3l0.5,0.1C57.1,42.7,56.9,43.7,56.7,44.7z M57.8,39.8l-0.5-0.1c0.3-1,0.6-1.9,1-2.9l0.5,0.2
				C58.4,37.9,58.1,38.9,57.8,39.8z M59.5,35.2L59.1,35c0.4-0.9,0.9-1.8,1.3-2.7l0.4,0.2C60.4,33.4,59.9,34.3,59.5,35.2z M61.8,30.8
				l-0.4-0.2c0.5-0.8,1.1-1.7,1.7-2.5l0.4,0.3C62.9,29.1,62.3,30,61.8,30.8z M64.6,26.7l-0.4-0.3c0.6-0.8,1.3-1.6,1.9-2.3l0.4,0.3
				C65.9,25.2,65.3,25.9,64.6,26.7z M67.9,23l-0.4-0.3c0.7-0.7,1.4-1.4,2.2-2.1l0.3,0.4C69.3,21.6,68.6,22.3,67.9,23z M71.6,19.6
				l-0.3-0.4c0.8-0.6,1.6-1.3,2.3-1.9l0.3,0.4C73.1,18.3,72.3,18.9,71.6,19.6z M152.3,19.2c-0.7-0.7-1.5-1.3-2.3-1.9l0.3-0.4
				c0.8,0.6,1.6,1.3,2.3,2L152.3,19.2z M75.5,16.6l-0.3-0.4c0.8-0.6,1.7-1.1,2.5-1.7l0.3,0.4C77.1,15.4,76.3,16,75.5,16.6z
				 M148.5,16c-0.8-0.6-1.6-1.2-2.4-1.7l0.3-0.4c0.8,0.6,1.7,1.1,2.5,1.7L148.5,16z M79.7,13.9l-0.3-0.4c0.9-0.5,1.8-1,2.6-1.5
				l0.2,0.5C81.4,12.9,80.6,13.4,79.7,13.9z M144.4,13.2c-0.9-0.5-1.7-1-2.6-1.5l0.2-0.4c0.9,0.5,1.8,1,2.6,1.5L144.4,13.2z
				 M84.1,11.6l-0.2-0.5c0.9-0.4,1.8-0.9,2.8-1.2l0.2,0.5C85.9,10.7,85,11.1,84.1,11.6z M140,10.9c-0.9-0.4-1.8-0.9-2.7-1.2l0.2-0.5
				c0.9,0.4,1.9,0.8,2.7,1.3L140,10.9z M88.7,9.6l-0.2-0.5c0.9-0.4,1.9-0.7,2.8-1l0.2,0.5C90.5,8.9,89.6,9.2,88.7,9.6z M135.4,8.9
				c-0.9-0.4-1.9-0.7-2.8-1l0.2-0.5c0.9,0.3,1.9,0.7,2.8,1L135.4,8.9z M93.4,7.9l-0.1-0.5c1-0.3,1.9-0.6,2.9-0.8l0.1,0.5
				C95.3,7.4,94.3,7.7,93.4,7.9L93.4,7.9z M130.8,7.3c-1-0.3-1.9-0.5-2.9-0.8l0.1-0.5c1,0.2,1.9,0.5,2.9,0.8L130.8,7.3z M98.2,6.7
				l-0.1-0.5c1-0.2,2-0.4,3-0.6l0.1,0.5C100.1,6.2,99.2,6.4,98.2,6.7L98.2,6.7z M125.9,6.1c-1-0.2-2-0.4-3-0.5l0.1-0.5
				c1,0.1,2,0.3,3,0.5L125.9,6.1z M103.1,5.7L103,5.2c1-0.1,2-0.3,3-0.4l0.1,0.5C105,5.5,104,5.6,103.1,5.7L103.1,5.7z M121,5.4
				c-1-0.1-2-0.2-3-0.3V4.6c1,0.1,2,0.2,3,0.3V5.4z M108.1,5.2V4.7c1-0.1,2-0.1,3-0.2V5C110,5,109,5.1,108.1,5.2L108.1,5.2z
				 M116.1,5c-0.8,0-1.7,0-2.5,0h-0.4V4.4h0.4c0.9,0,1.7,0,2.6,0L116.1,5z"/>
			<path class="st0" d="M154.9,21.7c-0.4-0.4-0.7-0.7-1.1-1.1l0.4-0.4c0.4,0.3,0.7,0.7,1.1,1.1L154.9,21.7z"/>
			<path class="st0" d="M221.7,23l-0.4-0.3c0.4-0.4,0.7-0.7,1.1-1.1l0.3,0.4L221.7,23z"/>
			<path class="st0" d="M315.3,41.6c-0.3-1-0.6-1.9-1-2.9l0.5-0.2c0.4,1,0.7,1.9,1,2.9L315.3,41.6z M313.5,36.9
				c-0.4-0.9-0.8-1.8-1.3-2.7l0.5-0.2c0.5,0.9,0.9,1.8,1.3,2.8L313.5,36.9z M311.2,32.4c-0.5-0.9-1-1.7-1.6-2.6l0.4-0.3
				c0.6,0.8,1.1,1.7,1.6,2.6L311.2,32.4z M308.4,28.2c-0.6-0.8-1.2-1.6-1.9-2.4l0.4-0.3c0.7,0.8,1.3,1.6,1.9,2.4L308.4,28.2z
				 M305.2,24.3c-0.7-0.7-1.4-1.5-2.1-2.2l0.4-0.4c0.7,0.7,1.5,1.5,2.1,2.2L305.2,24.3z M301.6,20.7c-0.8-0.7-1.5-1.3-2.3-1.9
				l0.3-0.4c0.8,0.6,1.6,1.3,2.4,2L301.6,20.7z M224.2,20.6l-0.3-0.4c0.8-0.7,1.5-1.4,2.3-2l0.4,0.4C225.8,19.2,225,19.9,224.2,20.6
				z M297.6,17.6c-0.8-0.6-1.7-1.2-2.5-1.7l0.3-0.4c0.9,0.5,1.7,1.1,2.5,1.7L297.6,17.6z M228.2,17.3l-0.3-0.4
				c0.8-0.6,1.7-1.2,2.5-1.8l0.2,0.4C229.8,16.1,229,16.7,228.2,17.3L228.2,17.3z M293.4,14.8c-0.9-0.5-1.8-1-2.7-1.5l0.2-0.5
				c0.9,0.5,1.8,1,2.7,1.5L293.4,14.8z M232.4,14.5l-0.3-0.4c0.9-0.5,1.8-1,2.7-1.5L235,13C234.1,13.5,233.2,14,232.4,14.5
				L232.4,14.5z M288.9,12.4c-0.9-0.4-1.8-0.9-2.8-1.3l0.2-0.5c1,0.4,1.9,0.8,2.8,1.3L288.9,12.4z M236.8,12.1l-0.2-0.5
				c0.9-0.5,1.9-0.9,2.8-1.3l0.2,0.5C238.7,11.2,237.7,11.6,236.8,12.1L236.8,12.1z M284.2,10.4c-1-0.4-1.9-0.7-2.9-1l0.2-0.5
				c1,0.3,1.9,0.7,2.9,1L284.2,10.4z M241.5,10.1l-0.2-0.5c0.9-0.4,1.9-0.7,2.9-1l0.1,0.5C243.4,9.4,242.4,9.7,241.5,10.1
				L241.5,10.1z M279.4,8.8c-1-0.3-2-0.5-3-0.8l0.1-0.5c1,0.2,2,0.5,3,0.8L279.4,8.8z M246.3,8.5L246.2,8c1-0.3,2-0.5,3-0.7l0.1,0.5
				C248.3,8,247.3,8.2,246.3,8.5L246.3,8.5z M274.5,7.6c-1-0.2-2-0.4-3-0.5l0.1-0.5c1,0.1,2,0.3,3,0.5L274.5,7.6z M251.2,7.4
				l-0.1-0.5c1-0.2,2-0.3,3-0.5l0.1,0.5C253.3,7,252.2,7.2,251.2,7.4L251.2,7.4z M269.4,6.8c-1-0.1-2-0.2-3-0.3V6
				c1,0.1,2,0.2,3.1,0.3L269.4,6.8z M256.3,6.7l0-0.5c1-0.1,2-0.2,3.1-0.2v0.5C258.3,6.5,257.3,6.6,256.3,6.7L256.3,6.7z M264.4,6.4
				h-2.3h-0.8V5.9h0.8c0.8,0,1.5,0,2.2,0L264.4,6.4z"/>
			<path class="st0" d="M316.1,45c-0.1-0.5-0.2-1-0.3-1.5l0.5-0.1c0.1,0.5,0.2,1,0.4,1.5L316.1,45z"/>
			<path class="st0" d="M327.4,70.8c-0.5-0.1-1-0.2-1.5-0.3L326,70c0.5,0.1,1,0.2,1.5,0.3L327.4,70.8z"/>
			<path class="st0" d="M362,151.1l-0.4-0.3c0.5-0.8,1-1.7,1.4-2.6l0.5,0.2C363,149.3,362.5,150.2,362,151.1z M364.3,146.6l-0.5-0.2
				c0.4-0.9,0.8-1.8,1.1-2.8l0.5,0.2C365,144.8,364.6,145.7,364.3,146.6z M366,141.9l-0.5-0.1c0.3-0.9,0.5-1.9,0.8-2.9l0.5,0.1
				C366.5,140,366.2,141,366,141.9L366,141.9z M367.1,137.1l-0.5-0.1c0.2-1,0.3-1.9,0.5-2.9l0.5,0.1
				C367.5,135.1,367.3,136.1,367.1,137.1L367.1,137.1z M367.8,132.1h-0.5c0.1-1,0.1-2,0.2-3h0.5
				C367.9,130.2,367.9,131.2,367.8,132.1L367.8,132.1z M367.5,127.1c0-1,0-2-0.1-3h0.5c0.1,1,0.1,2,0.1,3H367.5z M367.2,122.2
				c-0.1-1-0.2-2-0.4-3l0.5-0.1c0.1,1,0.3,2,0.4,3L367.2,122.2z M366.6,117.3c-0.2-1-0.4-1.9-0.6-2.9l0.5-0.1c0.2,1,0.4,2,0.6,2.9
				L366.6,117.3z M365.5,112.5c-0.2-0.9-0.5-1.9-0.8-2.9l0.5-0.1c0.3,1,0.6,1.9,0.8,2.9L365.5,112.5z M364.1,107.7
				c-0.3-0.9-0.7-1.9-1-2.8l0.5-0.2c0.4,0.9,0.7,1.9,1,2.8L364.1,107.7z M362.3,103.1c-0.4-0.9-0.8-1.8-1.2-2.7l0.5-0.2
				c0.4,0.9,0.9,1.8,1.2,2.7L362.3,103.1z M360.2,98.6c-0.5-0.9-0.9-1.8-1.4-2.6l0.4-0.2c0.5,0.8,1,1.7,1.4,2.6L360.2,98.6z
				 M357.8,94.3c-0.5-0.8-1-1.7-1.6-2.5l0.4-0.3c0.6,0.8,1.1,1.7,1.6,2.5L357.8,94.3z M355,90.2c-0.6-0.8-1.2-1.6-1.8-2.3l0.4-0.3
				c0.6,0.8,1.2,1.6,1.8,2.4L355,90.2z M352,86.4c-0.6-0.8-1.3-1.5-2-2.2l0.4-0.3c0.7,0.7,1.4,1.4,2,2.2L352,86.4z M348.6,82.8
				c-0.7-0.7-1.4-1.3-2.2-2l0.3-0.4c0.8,0.7,1.5,1.3,2.2,2L348.6,82.8z M344.9,79.6c-0.8-0.6-1.6-1.2-2.4-1.8l0.3-0.4
				c0.8,0.6,1.6,1.2,2.4,1.8L344.9,79.6z M340.9,76.7c-0.8-0.5-1.7-1-2.5-1.5l0.3-0.4c0.9,0.5,1.7,1,2.6,1.6L340.9,76.7z
				 M336.6,74.2c-0.9-0.4-1.8-0.9-2.7-1.2l0.2-0.5c0.9,0.4,1.8,0.8,2.7,1.3L336.6,74.2z M332.1,72.2c-0.9-0.3-1.9-0.6-2.8-0.9
				l0.1-0.5c1,0.3,1.9,0.6,2.8,0.9L332.1,72.2z"/>
			<path class="st0" d="M360.1,154l-0.4-0.3c0.3-0.4,0.6-0.8,0.8-1.2l0.4,0.3C360.6,153.2,360.4,153.6,360.1,154z"/>
			<path class="st0" d="M384.1,184.2c-0.3-0.4-0.6-0.8-1-1.1l0.4-0.3c0.3,0.4,0.7,0.8,1,1.1L384.1,184.2z"/>
			<path class="st0" d="M360.1,275.9l-0.1-0.5c1-0.2,2-0.5,3-0.8l0.1,0.5C362.1,275.5,361.1,275.7,360.1,275.9z M365,274.6l-0.2-0.5
				c1-0.3,1.9-0.7,2.9-1l0.2,0.5C367,273.9,366,274.3,365,274.6z M369.8,272.7l-0.2-0.5c0.9-0.4,1.8-0.9,2.7-1.3l0.2,0.4
				C371.6,271.9,370.7,272.3,369.8,272.7L369.8,272.7z M374.3,270.4l-0.3-0.4c0.9-0.5,1.7-1.1,2.6-1.6l0.3,0.4
				C376.1,269.3,375.2,269.8,374.3,270.4L374.3,270.4z M378.6,267.6l-0.3-0.4c0.8-0.6,1.6-1.3,2.3-1.9l0.3,0.4
				C380.2,266.2,379.4,266.9,378.6,267.6z M382.5,264.2l-0.4-0.4c0.7-0.7,1.4-1.4,2.1-2.2l0.4,0.3
				C383.9,262.7,383.2,263.5,382.5,264.2L382.5,264.2z M385.9,260.4l-0.4-0.3c0.6-0.8,1.2-1.6,1.8-2.4l0.4,0.3
				C387.1,258.8,386.5,259.6,385.9,260.4L385.9,260.4z M388.9,256.3l-0.4-0.3c0.5-0.9,1.1-1.7,1.6-2.6l0.4,0.2
				C390,254.5,389.4,255.4,388.9,256.3L388.9,256.3z M391.5,251.8l-0.4-0.2c0.4-0.9,0.9-1.8,1.3-2.8l0.5,0.2
				C392.3,249.9,391.9,250.9,391.5,251.8L391.5,251.8z M393.5,247.1L393,247c0.4-0.9,0.7-1.9,1-2.9l0.5,0.1
				C394.1,245.2,393.8,246.2,393.5,247.1L393.5,247.1z M395.1,242.3l-0.5-0.1c0.3-1,0.5-2,0.7-2.9l0.5,0.1
				C395.6,240.3,395.3,241.3,395.1,242.3L395.1,242.3z M396.3,237.3l-0.5-0.1c0.2-1,0.4-2,0.5-3l0.5,0.1
				C396.6,235.2,396.4,236.3,396.3,237.3L396.3,237.3z M397,232.2l-0.5-0.1c0.1-1,0.2-2,0.3-3h0.5
				C397.2,230.2,397.1,231.2,397,232.2L397,232.2z M397.4,227.1h-0.5c0-0.9,0-1.8,0-2.6v-0.4h0.5v0.4
				C397.4,225.3,397.4,226.2,397.4,227.1L397.4,227.1z M396.9,222c0-1-0.1-2-0.2-3h0.5c0.1,1,0.1,2.1,0.2,3.1L396.9,222z M396.5,217
				c-0.1-1-0.2-2-0.4-3l0.5-0.1c0.1,1,0.3,2,0.4,3L396.5,217z M395.9,212c-0.2-1-0.4-2-0.6-3l0.5-0.1c0.2,1,0.4,2,0.6,3L395.9,212z
				 M394.9,207c-0.2-1-0.5-2-0.8-3l0.5-0.1c0.3,1,0.5,2,0.8,3L394.9,207z M393.5,202.1c-0.3-1-0.6-1.9-1-2.9l0.5-0.2
				c0.4,0.9,0.7,1.9,1,2.9L393.5,202.1z M391.8,197.3c-0.4-1-0.8-1.9-1.2-2.8l0.5-0.2c0.4,0.9,0.8,1.9,1.2,2.8L391.8,197.3z
				 M389.6,192.7c-0.5-0.9-1-1.8-1.5-2.7l0.4-0.3c0.5,0.9,1,1.8,1.5,2.7L389.6,192.7z M387.1,188.3c-0.6-0.9-1.1-1.7-1.7-2.5
				l0.4-0.3c0.6,0.8,1.2,1.6,1.8,2.5L387.1,188.3z"/>
			<path class="st0" d="M356.6,276.6l-0.1-0.5l1.5-0.3l0.1,0.5L356.6,276.6z"/>
			<path class="st0" d="M203.8,306.8c-0.3-0.4-0.6-0.8-0.9-1.2l0.4-0.3c0.3,0.4,0.6,0.8,0.9,1.2L203.8,306.8z"/>
			<path class="st0" d="M273.8,334.1v-0.5c1,0,2,0,3,0v0.5C275.8,334.1,274.8,334.1,273.8,334.1z M271.8,334.1c-1,0-2,0-3-0.1v-0.5
				c1,0,2,0.1,3,0.1V334.1z M278.8,333.9v-0.5c1,0,2-0.1,3-0.2v0.5C280.8,333.8,279.8,333.9,278.8,333.9L278.8,333.9z M266.7,333.9
				c-1-0.1-2-0.1-3-0.2l0-0.5c1,0.1,2,0.1,3,0.2L266.7,333.9z M283.8,333.6l0-0.5c1-0.1,2-0.2,3-0.3l0.1,0.5
				C285.8,333.4,284.8,333.5,283.8,333.6L283.8,333.6z M261.7,333.5c-1-0.1-2-0.2-3-0.3l0.1-0.5c1,0.1,2,0.2,3,0.3L261.7,333.5z
				 M288.8,333l-0.1-0.5l3-0.5l0.1,0.5C290.8,332.7,289.8,332.8,288.8,333L288.8,333z M256.8,332.9c-1-0.1-2-0.3-3-0.5l0.1-0.5
				c1,0.2,2,0.3,3,0.5L256.8,332.9z M293.8,332.1l-0.1-0.5c1-0.2,2-0.4,2.9-0.6l0.1,0.5C295.7,331.7,294.7,332,293.8,332.1
				L293.8,332.1z M251.8,332.1c-1-0.2-2-0.4-2.9-0.6l0.1-0.5c1,0.2,1.9,0.4,2.9,0.6L251.8,332.1z M298.7,331.1l-0.1-0.5
				c1-0.3,2-0.5,2.9-0.8l0.1,0.5C300.6,330.6,299.6,330.8,298.7,331.1L298.7,331.1z M246.9,331c-1-0.2-2-0.5-2.9-0.7l0.1-0.5
				c1,0.3,1.9,0.5,2.9,0.7L246.9,331z M242.1,329.7c-1-0.3-1.9-0.6-2.9-0.9l0.1-0.5c0.9,0.3,1.9,0.6,2.9,0.9L242.1,329.7z
				 M303.5,329.7l-0.1-0.5c1-0.3,1.9-0.6,2.9-0.9l0.2,0.5C305.4,329.1,304.5,329.4,303.5,329.7L303.5,329.7z M237.3,328.3l-2.8-1
				l0.2-0.5c0.9,0.3,1.9,0.7,2.8,1L237.3,328.3z M308.3,328.1l-0.2-0.5c1-0.4,1.9-0.7,2.8-1.1l0.2,0.5
				C310.2,327.4,309.2,327.7,308.3,328.1L308.3,328.1z M232.5,326.6c-0.9-0.4-1.9-0.8-2.8-1.1l0.2-0.5c0.9,0.4,1.8,0.8,2.8,1.1
				L232.5,326.6z M312.9,326.3l-0.2-0.5c0.9-0.4,1.8-0.8,2.7-1.3l0.2,0.5C314.8,325.4,313.9,325.8,312.9,326.3L312.9,326.3z
				 M227.9,324.6c-0.9-0.4-1.8-0.9-2.7-1.3l0.2-0.5c0.9,0.4,1.8,0.9,2.7,1.3L227.9,324.6z M317.5,324.1l-0.2-0.5
				c0.9-0.5,1.8-0.9,2.6-1.4l0.3,0.4C319.3,323.1,318.4,323.6,317.5,324.1L317.5,324.1z M223.4,322.4c-0.9-0.5-1.8-1-2.6-1.5
				l0.3-0.4c0.9,0.5,1.7,1,2.6,1.5L223.4,322.4z M321.9,321.7l-0.3-0.4c0.9-0.5,1.7-1,2.5-1.6l0.3,0.4
				C323.6,320.6,322.7,321.1,321.9,321.7L321.9,321.7z M219,319.8c-0.9-0.5-1.7-1.1-2.5-1.6l0.3-0.4c0.8,0.5,1.7,1.1,2.5,1.6
				L219,319.8z M326.1,318.9l-0.3-0.4c0.8-0.6,1.6-1.1,2.4-1.8l0.3,0.4C327.7,317.7,326.9,318.3,326.1,318.9L326.1,318.9z
				 M214.8,317.1c-0.8-0.6-1.6-1.2-2.4-1.8l0.3-0.4c0.8,0.6,1.6,1.2,2.4,1.8L214.8,317.1z M330.1,315.9l-0.3-0.4
				c0.8-0.6,1.5-1.3,2.3-1.9l0.3,0.4C331.7,314.6,330.9,315.3,330.1,315.9z M210.8,314c-0.8-0.6-1.5-1.3-2.3-2l0.3-0.4
				c0.7,0.7,1.5,1.4,2.3,2L210.8,314z M333.9,312.7l-0.3-0.4c0.7-0.7,1.5-1.4,2.2-2.1l0.4,0.4C335.4,311.3,334.7,312,333.9,312.7
				L333.9,312.7z M207.1,310.6c-0.7-0.7-1.4-1.5-2.1-2.2l0.4-0.3c0.6,0.8,1.3,1.5,2,2.2L207.1,310.6z M337.5,309.1l-0.4-0.4
				c0.7-0.7,1.4-1.5,2-2.2l0.4,0.3C338.9,307.6,338.2,308.4,337.5,309.1z M340.9,305.3l-0.4-0.3c0.6-0.8,1.3-1.6,1.9-2.4l0.4,0.3
				C342.1,303.8,341.5,304.6,340.9,305.3z"/>
			<path class="st0" d="M344,301.3l-0.4-0.3c0.3-0.4,0.6-0.8,0.9-1.2l0.4,0.3L344,301.3z"/>
			<path class="st0" d="M35.7,264.1l-0.5-0.1c0.1-0.5,0.3-1,0.4-1.5l0.5,0.1C35.9,263.2,35.8,263.6,35.7,264.1z"/>
			<path class="st0" d="M89.8,331.6c-1,0-2,0-3-0.1V331c1,0,2,0.1,3,0.1V331.6z M91.8,331.6v-0.5c1,0,2,0,3-0.1v0.5
				C93.8,331.5,92.8,331.6,91.8,331.6L91.8,331.6z M84.7,331.4c-1-0.1-2-0.2-3-0.3l0.1-0.5c1,0.1,2,0.2,3,0.3L84.7,331.4z
				 M96.8,331.4v-0.5c1-0.1,2-0.2,3-0.3v0.5C98.9,331.1,97.9,331.2,96.8,331.4L96.8,331.4z M101.8,330.9l-0.1-0.5c1-0.1,2-0.3,3-0.4
				l0.1,0.5C103.9,330.6,102.9,330.7,101.8,330.9L101.8,330.9z M79.6,330.9c-1-0.1-2-0.3-3-0.5l0.1-0.5c1,0.2,2,0.4,3,0.5
				L79.6,330.9z M106.8,330.1l-0.1-0.5c1-0.2,2-0.4,3-0.6l0.1,0.5C108.9,329.7,107.9,329.9,106.8,330.1L106.8,330.1z M74.6,329.9
				c-1-0.2-2-0.5-3-0.7l0.1-0.5c1,0.3,1.9,0.5,2.9,0.7L74.6,329.9z M111.9,329.1l-0.1-0.5c1-0.2,2-0.4,2.9-0.7l0.1,0.5
				C113.9,328.6,112.9,328.8,111.9,329.1L111.9,329.1z M69.7,328.6c-1-0.3-1.9-0.6-2.9-1l0.2-0.5c0.9,0.3,1.9,0.7,2.9,1L69.7,328.6z
				 M116.8,327.8l-0.1-0.5c1-0.3,1.9-0.5,2.9-0.8l0.1,0.5L116.8,327.8z M65,326.8c-0.9-0.4-1.9-0.8-2.8-1.2l0.2-0.5
				c0.9,0.4,1.8,0.8,2.8,1.2L65,326.8z M121.7,326.4l-0.2-0.5c1-0.3,1.9-0.6,2.9-0.9l0.2,0.5C123.6,325.9,122.7,326.2,121.7,326.4
				L121.7,326.4z M126.5,324.9l-0.2-0.5c0.9-0.3,1.9-0.7,2.9-1l0.2,0.5C128.4,324.3,127.5,324.6,126.5,324.9L126.5,324.9z
				 M60.4,324.7c-0.9-0.5-1.8-1-2.7-1.5l0.3-0.4c0.8,0.5,1.7,1,2.6,1.5L60.4,324.7z M131.3,323.1l-0.2-0.5c0.9-0.4,1.9-0.7,2.8-1.1
				l0.2,0.5C133.2,322.5,132.2,322.8,131.3,323.1L131.3,323.1z M56,322.1c-0.8-0.6-1.7-1.1-2.5-1.7l0.3-0.4c0.8,0.6,1.6,1.2,2.5,1.7
				L56,322.1z M136,321.3l-0.2-0.5c0.9-0.4,1.9-0.8,2.8-1.2l0.2,0.5C137.9,320.6,136.9,321,136,321.3L136,321.3z M140.6,319.3
				l-0.2-0.5c0.9-0.4,1.8-0.8,2.8-1.3l0.2,0.5L140.6,319.3z M51.8,319.2c-0.8-0.6-1.6-1.3-2.3-2l0.3-0.4c0.7,0.7,1.5,1.3,2.3,2
				L51.8,319.2z M145.2,317.2l-0.2-0.5l2.7-1.3l0.2,0.5C147.1,316.3,146.2,316.8,145.2,317.2L145.2,317.2z M48,315.8
				c-0.7-0.7-1.4-1.5-2.1-2.2l0.4-0.3c0.7,0.7,1.4,1.5,2.1,2.2L48,315.8z M149.8,314.9l-0.2-0.4c0.9-0.5,1.8-0.9,2.7-1.4l0.2,0.5
				C151.6,314.1,150.7,314.6,149.8,314.9L149.8,314.9z M44.6,312.1c-0.6-0.8-1.3-1.6-1.9-2.4l0.4-0.3c0.6,0.8,1.2,1.6,1.8,2.4
				L44.6,312.1z M41.6,308c-0.6-0.9-1.1-1.7-1.6-2.6l0.4-0.3c0.5,0.9,1,1.7,1.6,2.6L41.6,308z M39.1,303.6c-0.5-0.9-0.9-1.8-1.3-2.8
				l0.5-0.2c0.4,0.9,0.8,1.8,1.3,2.7L39.1,303.6z M37,298.9c-0.4-0.9-0.7-1.9-1-2.9l0.5-0.1c0.3,1,0.7,1.9,1,2.8L37,298.9z
				 M35.3,294.1c-0.3-1-0.5-2-0.8-3L35,291c0.2,1,0.5,2,0.8,2.9L35.3,294.1z M34.1,289.2c-0.2-1-0.3-2-0.5-3l0.5-0.1
				c0.1,1,0.3,2,0.5,3L34.1,289.2z M33.4,284.2c-0.1-1-0.2-2-0.2-3h0.5c0,1,0.1,2,0.2,3L33.4,284.2z M33.7,279.1h-0.5V279
				c0-1,0-2,0.1-3h0.5c0,1-0.1,2-0.1,3V279.1z M33.9,274.1l-0.5,0c0.1-1,0.2-2,0.3-3l0.5,0.1C34.1,272,34,273,33.9,274.1L33.9,274.1
				z M34.6,269.1l-0.5-0.1c0.2-1,0.4-2,0.6-3l0.5,0.1C35,267.1,34.8,268.1,34.6,269.1L34.6,269.1z"/>
			<path class="st0" d="M154.4,312.6l-0.2-0.4l1.3-0.7l0.2,0.4L154.4,312.6z"/>
			<path class="st1" d="M362,288.4c6.2-7.4,7-18.7,6-28.5c-1.3-12.3-12.7-16.6-24.2-16.6c-18.2-0.1-21.9,11.8-22.3,16
				c-0.1,1.2-0.8,6.6-0.8,6.6c-0.1,0.7-0.8,4,0.4,4.8c0.5,0.3,0.8,0.9,0.8,1.5l-1.9,9.7c-0.2,1.2,0.5,2.4,1.7,2.6c0.1,0,0.3,0,0.4,0
				h1.6c-0.5,0,0.7,13.3,1,14.8c0.4,1.7,2,2.8,3.8,2.6l9.4-0.9l-0.8,8.4l26.6-0.1L362,288.4z"/>
			<path class="st2" d="M349.2,256.5c0-1.5-1.2-2.7-2.6-2.7c-1.5,0-2.7,1.2-2.7,2.6c0,0.8,0.4,1.6,1.1,2.1l-0.7,8.1h4.5l-0.7-8.1
				C348.8,258.1,349.2,257.3,349.2,256.5z"/>
			<path class="st3" d="M299.4,256.4c0,4.5,3.7,8.1,8.1,8.1c3.6,0,6.8-2.4,7.8-5.8H327v7.7h3.3v-7.7h0.9v7.7h6.6v-7.7h2.5v-4.5
				h-24.9c-1.3-4.3-5.8-6.8-10.1-5.5C301.8,249.7,299.4,252.8,299.4,256.4z M303.4,256.4c0-2.3,1.8-4.2,4.1-4.2
				c2.3,0,4.2,1.8,4.2,4.1c0,2.3-1.8,4.2-4.1,4.2c0,0,0,0,0,0C305.3,260.6,303.4,258.7,303.4,256.4
				C303.4,256.4,303.4,256.4,303.4,256.4L303.4,256.4z"/>
			<path class="st4" d="M51.1,249.5l-3-9.5c-0.1-0.6,0.2-1.2,0.8-1.4c1.2-0.8,0.6-4.1,0.4-4.8c0,0-0.7-5.4-0.8-6.6
				c-0.4-4.2-4.1-16.1-22.3-16c-11.5,0-23,4.3-24.2,16.6c-1,9.8,0.7,17.1,6,28.5L6.4,277h26.5l-0.8-8.2l9.4,0.9
				c1.7,0.2,3.4-0.9,3.8-2.6c0.3-1.5,1.5-14.8,1-14.8l2.7-0.2c1.2,0,2.2-1,2.3-2.2C51.2,249.8,51.2,249.6,51.1,249.5z"/>
			<path class="st5" d="M9.6,244l2.1-6.4c0-0.4-0.2-0.8-0.5-1c-0.8-0.5-0.4-2.8-0.3-3.3c0,0,0.5-3.6,0.5-4.5
				c0.3-2.8,2.8-10.9,15.1-10.9c7.8,0,15.6,2.9,16.5,11.3c0.7,6.6-0.5,11.6-4.1,19.3l1.1,14.1H22l0.5-5.5l-6.4,0.6
				c-1.2,0.2-2.3-0.6-2.5-1.7c-0.2-1-1-10-0.7-10l-1.8-0.1c-0.8,0-1.5-0.7-1.5-1.5C9.6,244.2,9.6,244.1,9.6,244z"/>
			<path class="st2" d="M195.5,52.2c-0.8,4-1.1,8.2-0.7,12.3c-1,0.1-4.7,0.3-5.7,0.4c-0.7-3.1,0.7-6.1-1-8.7c0,0,0-0.1-0.1-0.1
				c-0.1-0.2-0.3-0.4-0.5-0.4s-0.4,0.1-0.6,0s-0.2-0.5,0-0.8c0.7-1.3,1.4-2.6,2.3-3.9c0.2-0.3,0.4-0.5,0.5-0.7l0.7-0.9
				c0.1-0.2,0.3-0.3,0.4-0.4c0.2-0.1,0.5-0.2,0.8-0.2c0.4,0,0.7,0,1.1,0c0.4,0,0.8,0.1,1.2,0.2c0.7,0.2,1.4,0.5,2.1,0.9
				C195.9,50.6,195.7,51.4,195.5,52.2z"/>
			<path class="st6" d="M190.4,54c-0.4,0.7-0.9,1.3-1.5,1.7c-0.3,0.2-0.5,0.4-0.8,0.5c-3.8,2.3-8.7,2-13.2,1.3
				c-1.7-0.1-3.3-0.7-4.6-1.6c-1.3-0.9-1.9-2.6-1.4-4.1l0.1-0.3c0.6-1,1.6-1.7,2.7-2c2.1-0.8,4.4-1.2,6.6-1.4
				c0.9-0.1,1.8-0.1,2.7-0.1h1.5c1.4,0,2.8,0.1,4.1,0.4c0.4,0.1,0.9,0.2,1.3,0.4c0.7,0.3,1.4,0.8,1.9,1.4c0.1,0.1,0.2,0.2,0.3,0.3
				c0.1,0.2,0.3,0.4,0.4,0.7C190.8,52.1,190.8,53.1,190.4,54z"/>
			<path class="st7" d="M226,28c-0.1,0.5-0.2,0.9-0.3,1.4c0,0.1,0,0.1-0.1,0.2c-1.6,5-5.9,7.7-10.8,9.1c-0.5,0.1-1.1,0.3-1.6,0.4
				c-1,0.2-2.1,0.4-3.2,0.5l-1.4,0.1c-1.3,0.1-2.5,0.2-3.6,0.2h-1.6c0.1,0,0.2,0.1,0.2,0.1c0.1,0.4,0.2,0.9,0.1,1.4
				c-0.1,0.8-0.2,1.7-0.4,2.5c-0.1,0.5-0.2,0.9-0.3,1.4c-0.3,1.3-0.7,2.6-1,3.4c-0.1,0.3-0.2,0.6-0.4,0.9l-0.3,0.4
				c-1.5,1.7-3.7,2.6-5.9,2.2c-1.7-0.2-3.5-0.5-5.2-1l-0.9-0.2c-0.1,0-0.2-0.1-0.3-0.1c-0.6-0.1-1.2-0.2-1.8-0.3
				c-0.4,0-0.9-0.1-1.4-0.1c-3.2,0-6.4,0.2-9.6,0.6l-1.7,0.2c-1.5,0.2-3,0.3-4.5,0.3c-0.5,0-0.9,0-1.4,0c-1.4,0-2.8-0.2-4.1-0.7
				c-0.5-0.2-1-0.5-1.5-0.8c-0.3-0.2-0.5-0.5-0.8-0.7c-0.9-1.1-1.6-2.3-2-3.6c-0.1-0.2-0.1-0.4-0.2-0.6c-0.1-0.5-0.2-0.9-0.3-1.4
				c-0.1-0.8-0.2-1.6-0.3-2.4c-0.1-1.5,0-3.1,0.2-4.6c0.1-0.7,0.2-1.4,0.4-2.2c0.4-1.6,0.9-3.2,1.6-4.7c0.5-1.2,1.1-2.3,1.8-3.4
				c0.3-0.4,0.5-0.8,0.8-1.2c1.3-1.8,2.8-3.5,4.4-5l0.5-0.4c0.6-0.5,1.2-1,1.8-1.5c0.8-0.6,1.6-1.2,2.5-1.7c2.4-1.4,4.9-2.6,7.5-3.5
				c0.4-0.1,0.8-0.3,1.3-0.4c1-0.3,2.1-0.6,3.2-0.9c0.5-0.1,0.9-0.2,1.4-0.3c1.1-0.2,2.3-0.4,3.5-0.6c4.7-0.6,9.4-0.7,14.1-0.4
				c1.3,0.1,2.6,0.2,3.8,0.4c3.6,0.5,7,1.5,10.3,3c0.6,0.3,1.2,0.6,1.8,0.9l0.4,0.2c1.4,0.9,2.5,2,3.3,3.4c0.5,0.9,0.9,1.8,1.2,2.7
				c0.1,0.4,0.3,0.9,0.4,1.3C226.2,24.6,226.3,26.3,226,28z"/>
			<g class="st8">
				<path class="st9" d="M169,45.7l-1.1,0.6c-0.5,0.3-1,0.5-1.5,0.9c-0.5,0.3-1,0.7-1.3,1.2c-0.5,0.8-0.7,1.9-0.4,2.8
					c-0.5-0.2-1-0.5-1.5-0.8c0-1,0.2-2,0.8-2.8c0.2-0.3,0.4-0.6,0.7-0.8c0.8-0.7,1.7-1.3,2.7-1.7l1-0.5c1.3-0.7,2.5-1.9,2.3-3.3
					c-0.3-0.9-0.9-1.7-1.8-2.1c-0.3-0.2-0.6-0.3-0.9-0.5c-0.8-0.4-1.5-0.9-2.1-1.4c-1.1-0.9-1.5-2.5-1-3.8c0.2-0.3,0.6-0.5,0.9-0.3
					c0,0,0,0,0,0c0.3,0.2,0.5,0.6,0.3,0.9c-0.2,0.8,0,1.7,0.7,2.3c0.6,0.5,1.2,0.9,1.8,1.2c0.3,0.2,0.6,0.3,0.9,0.5
					c1.2,0.6,2.1,1.7,2.4,3C172.3,42.7,171.2,44.5,169,45.7z"/>
				<path class="st9" d="M167.7,41.6c-0.7,0.9-1.7,1.5-2.9,1.6l-0.7,0.1c-0.6,0-1.3,0.2-1.9,0.4c-0.8,0.4-1.3,1.1-1.7,1.9
					c-0.1,0.1-0.1,0.3-0.2,0.4c-0.1-0.2-0.1-0.4-0.2-0.6c-0.1-0.5-0.2-0.9-0.3-1.4c0.4-0.7,1.1-1.2,1.8-1.5c0.7-0.3,1.5-0.5,2.3-0.5
					l0.7-0.1c0.7,0,1.5-0.4,1.9-0.9c0.2-0.3,0.6-0.4,0.9-0.2C167.8,40.9,167.9,41.3,167.7,41.6L167.7,41.6z"/>
				<path class="st9" d="M162,39.3c0.1,0.1,0.3,0.1,0.4,0.1c0.2,0,0.4-0.1,0.5-0.3c0.2-0.3,0.2-0.7-0.1-0.9c0,0,0,0,0,0
					c-1.1-0.9-2-2-2.5-3.4c-0.2,0.7-0.3,1.4-0.4,2.2C160.4,37.9,161.2,38.6,162,39.3z"/>
				<path class="st9" d="M177.1,42.4c-0.2-1.3-0.8-2.5-1.8-3.5c-0.2-0.3-0.5-0.6-0.7-0.9c-0.6-1-1.2-2-1.6-3.1
					c-0.3-0.6-0.6-1.3-0.9-1.9c-1.2-2.3-2.6-3.7-4.3-4.2c-1.2-0.4-2.6-0.2-3.7,0.4c-0.9,0.5-1.5,1.3-1.7,2.3
					c-0.1,0.4,0.2,0.7,0.5,0.8s0.7-0.2,0.8-0.5c0.1-0.6,0.5-1.1,1-1.4c0.8-0.5,1.7-0.6,2.6-0.3c1.6,0.7,2.9,1.9,3.5,3.6
					c0.3,0.6,0.6,1.2,0.9,1.8c0.5,1.2,1,2.3,1.7,3.3c0.2,0.3,0.5,0.6,0.7,1c0.7,0.8,1.3,1.8,1.5,2.8c0,1.1-0.4,2.1-1.2,2.8
					c-0.9,0.8-1.9,1.5-3,2c-0.3,0.2-0.4,0.6-0.3,0.9c0.1,0.2,0.4,0.4,0.6,0.4c0.1,0,0.2,0,0.3-0.1c1.2-0.6,2.3-1.3,3.3-2.2
					C176.6,45.4,177.2,43.9,177.1,42.4z"/>
				<path class="st9" d="M225.9,22.9c-0.6,0.2-1.2,0.4-1.8,0.4c-1.3,0-2.5-0.2-3.6-0.8c-1.5-0.9-2.9-2-4.1-3.2l-0.8-0.8
					c-1.3-1.4-3.1-2.4-5-2.9c-2.2-0.2-4.3,0.8-5.4,2.8c-0.3,0.7-0.6,1.5-0.8,2.2c-0.1,0.5-0.3,1-0.5,1.5c-0.4,1.2-1.2,2.3-2.2,2.9
					c0.3,0.4,0.6,0.8,0.9,1.1c0.2,0.3,0.2,0.7-0.1,0.9c0,0,0,0,0,0c-0.1,0.1-0.2,0.1-0.4,0.1c-0.2,0-0.4-0.1-0.5-0.3
					c-5.3-7.4-15.1-10-23.4-6.4c0.7,0.5,1.2,1.3,1.3,2.1c0.1,0.8-0.1,1.6-0.5,2.3c-0.3,0.4-0.6,0.8-1.1,1.1c-0.8,0.6-1.8,1-2.8,1.3
					l0,0c0.3,0.6,0.5,1.2,0.7,1.8s0.3,1,0.5,1.5c0.2,0.4,0.4,0.9,0.7,1.3c0.3,0.5,0.8,0.9,1.3,1.2c0.8-3.5,4.3-5.6,7.7-4.8
					c0.2,0.1,0.5,0.1,0.7,0.2c1,0.4,2,0.9,2.8,1.6c0.4,0.3,0.8,0.6,1.2,0.8c0.8,0.5,2.4,1.3,3.7,0.7c0.1,0,0.2-0.1,0.3-0.1
					c0.3,0,0.5,0.2,0.6,0.4c0.2,0.3,0,0.7-0.3,0.9c0,0,0,0,0,0c-1.4,0.6-3.1,0.3-5-0.8c-0.5-0.3-0.9-0.6-1.3-0.8
					c-0.8-0.6-1.6-1.1-2.5-1.4c-2.7-0.9-5.6,0.5-6.5,3.1c-0.1,0.4-0.2,0.8-0.3,1.2c-0.1,0.4-0.1,0.9,0,1.3c0.3,1.3,0.8,2.5,1.5,3.6
					c0.2,0.4,0.5,0.8,0.7,1.2c1.2,2.3,1.4,4.4,0.6,6c-0.3,0.5-0.6,1-1.1,1.4c-0.1,0.1-0.2,0.2-0.3,0.2c-0.6,0.5-1.3,0.9-2,1.3
					c-0.4,0.2-0.7,0.4-1.1,0.6c-0.5,0.3-1,0.8-1.4,1.3l-1.7,0.2c0.5-1.1,1.3-2,2.4-2.6l1.1-0.6l0,0l0.6-0.3c0.9-0.5,1.7-1.2,2.3-2.1
					c0.8-1.5,0.1-3.4-0.6-4.7c-0.2-0.4-0.4-0.8-0.6-1.2c-0.8-1.3-1.4-2.7-1.7-4.1c-0.1-0.4-0.1-0.7-0.1-1.1l0,0
					c-1.5-0.7-2.6-1.9-3.1-3.4c-0.2-0.5-0.4-1.1-0.5-1.6c-0.3-0.9-0.6-1.8-1.1-2.6c-0.6-1-1.9-1.9-3-1.6c-0.3,0.1-0.7-0.1-0.9-0.4
					s0.1-0.7,0.4-0.9c0,0,0,0,0.1,0c1.8-0.6,3.5,0.6,4.5,2c0.9-0.2,1.8-0.6,2.6-1.1c0.7-0.5,1.1-1.3,1-2.1c-0.1-0.7-0.7-1.4-1.8-1.9
					c-2.1-1.1-4.5-1.5-6.8-1.1c0.6-0.5,1.2-1,1.8-1.5c1.9,0,3.8,0.5,5.4,1.3c0.1-0.1,0.1-0.1,0.2-0.2c1.6-0.7,3.3-1.3,5-1.6
					c0.2-1.6,0-3.3-0.6-4.8c0.4-0.1,0.8-0.3,1.3-0.4c0.7,1.6,0.9,3.3,0.8,5l0,0c2.5-0.3,5.1-0.1,7.6,0.5c3.7,1,7.1,3,9.8,5.7
					c0.9-0.5,1.6-1.4,1.9-2.4c0.2-0.4,0.3-0.9,0.4-1.4c0.2-0.9,0.5-1.7,0.9-2.5c1.3-2.4,4-3.8,6.8-3.5c2.2,0.5,4.2,1.6,5.7,3.2
					l0.9,0.8c1.1,1.2,2.4,2.2,3.8,3c1,0.5,2.1,0.7,3.2,0.6c0.4,0,0.9-0.2,1.3-0.4C225.7,22.1,225.8,22.5,225.9,22.9z"/>
				<path class="st9" d="M167.1,27.4c0.3,0,0.6-0.2,0.6-0.5c0.1-0.4-0.1-0.7-0.4-0.8c0,0,0,0,0,0c-0.9-0.3-1.8-0.5-2.8-0.7
					c-0.3,0.4-0.6,0.8-0.8,1.3c1.1,0.1,2.2,0.4,3.2,0.7L167.1,27.4z"/>
				<path class="st9" d="M205.1,39.9h-1.4c0-1.2-0.1-2.3-0.4-3.5c-0.1-0.4,0.1-0.7,0.5-0.8c0,0,0,0,0,0c0.4-0.1,0.7,0.1,0.8,0.5
					c0,0,0,0,0,0C204.9,37.4,205.1,38.7,205.1,39.9z"/>
				<path class="st9" d="M226,28c-0.1,0.5-0.2,0.9-0.3,1.4c-0.5,0.1-1,0.1-1.5,0.1c-0.8,0-1.6-0.1-2.4-0.2c-3.7-0.6-7-2.7-9.1-5.9
					l-0.2-0.4c-0.2-0.4-0.5-0.8-0.9-1.2c-0.3-0.3-0.8-0.5-1.2-0.4c-0.5,0.2-0.7,0.9-1,1.7c-0.3,1-0.7,2.1-1.9,2.5
					c-0.4,0.1-0.7-0.1-0.9-0.4s0.1-0.7,0.4-0.9c0.5-0.1,0.7-0.7,1-1.7c0.2-1.1,0.8-2,1.8-2.5c0.9-0.3,1.9,0,2.6,0.7
					c0.4,0.4,0.8,0.9,1.1,1.5l0.2,0.3c2,3,5.2,4.9,8.7,5.3C223.7,28.2,224.9,28.1,226,28z"/>
				<path class="st9" d="M221.8,32.5c-0.5,1.2-1.5,2.1-2.7,2.6c-0.6,0.2-1.2,0.4-1.9,0.4c-0.6,0-1.3-0.1-1.8-0.4
					c-0.5-0.2-0.9-0.5-1.3-0.8c-0.4-0.3-0.8-0.7-1.1-1s-0.5-0.5-0.8-0.8s-1.8-1.4-3-0.9c-0.2,0.1-0.3,0.1-0.5,0
					c-0.6,0.5-1.3,1-2.1,1.3c0.5,0.5,1,1.1,1.4,1.8c0.6,1,1.1,2.1,1.5,3.2l0.2,0.5c0.1,0.4,0.3,0.9,0.5,1.3l-1.4,0.1
					c-0.1-0.3-0.2-0.7-0.4-1l-0.2-0.5c-0.4-1.4-1.1-2.8-2-3.9c-0.4-0.5-0.8-0.9-1.2-1.2l0,0c-1.5-1.2-3.5-1.5-5.3-0.7l0,0v0.1
					c0,0.6,0,1.2-0.2,1.8l0.1,0.1c1.4,3,1.3,6.5-0.1,9.4c1.3,0.2,2.7,0.3,4,0.2c-0.1,0.5-0.2,0.9-0.3,1.4c-0.3,0-0.7,0-1,0
					c-1.3,0-2.6-0.1-3.9-0.4c-0.9-0.2-1.8-0.5-2.6-0.8c-1.6-0.6-3.1-1.5-4.4-2.5c-0.3-0.2-0.3-0.7-0.1-0.9c0.2-0.3,0.7-0.3,0.9-0.1
					c1.4,1.1,3,1.9,4.7,2.5c0.4,0.2,0.9,0.3,1.3,0.4c1.3-2.4,1.5-5.2,0.6-7.7c-0.1,0.1-0.2,0.3-0.3,0.4c-1.2,1-2.6,1.6-4.2,1.8
					c-1.5,0.2-3.1,0.4-4.6,0.4c-0.6,0-1.3,0-1.9-0.1l0,0c0.2,0.9,0.4,1.8,0.5,2.8c0,0.4,0.1,0.9,0.2,1.3c0.1,1.1,0.5,2.1,1,3.1
					c0.2,0.3,0.4,0.5,0.6,0.7c0.2,0.2,0.5,0.4,0.8,0.6l0,0c1,0.5,2.1,0.8,3.3,0.9c2.7,0.4,5.4,0.8,8.2,1.1c-0.1,0.3-0.2,0.6-0.4,0.9
					l-0.3,0.4c-2.5-0.3-5-0.6-7.5-1h-0.3l-1-0.2c-1.4-0.2-2.7-0.7-3.8-1.6l-0.1-0.1c-0.1-0.1-0.1-0.1-0.2-0.2
					c-0.1,0.1-0.1,0.3-0.2,0.4c-0.3,0.5-0.5,1.1-0.7,1.6c-0.2,0.6-0.4,1.2-0.5,1.9c-0.4,0-0.9-0.1-1.4-0.1c0.1-0.7,0.3-1.5,0.5-2.2
					c0.1-0.3,0.2-0.7,0.4-1c0.3-0.6,0.6-1.2,1-1.8c-0.5-1-0.9-2.1-1-3.2c-0.1-0.4-0.1-0.9-0.2-1.3c-0.1-1.1-0.3-2.1-0.6-3.2
					c0-0.1-0.1-0.1-0.1-0.2c-0.4-1.2-1.4-2.1-2.6-2.5c-0.4-0.1-0.6-0.4-0.5-0.8c0.1-0.4,0.4-0.6,0.8-0.5c0,0,0,0,0,0
					c1.5,0.4,2.8,1.5,3.4,2.9c2.3,0.2,4.5,0.1,6.8-0.2c1.3-0.1,2.5-0.6,3.5-1.4c0.5-0.5,0.8-1.2,0.9-1.9c0.1-0.8,0-1.7-0.3-2.4
					c-0.8-1.5-2-2.7-3.6-3.3c-1.6-0.7-3.4-1.1-5.1-1.4c-2.8-0.5-5.4-0.9-7.5,0.1c-0.3,0.2-0.7,0-0.9-0.3c0,0,0,0,0,0
					c-0.1-0.2-0.1-0.4,0-0.6c0.1-0.1,0.2-0.2,0.3-0.3c2.7-1.3,5.8-0.7,8.3-0.3c1.9,0.3,3.7,0.7,5.4,1.4c1.9,0.8,3.4,2.2,4.3,4
					c0.1,0.2,0.2,0.4,0.3,0.7l0,0c2-0.8,4.3-0.5,6,0.8c2.4-0.7,4.1-2.7,4.5-5.1c0.1-0.4,0.4-0.6,0.8-0.6c0.4,0.1,0.6,0.4,0.6,0.8
					l0,0c-0.2,1.1-0.6,2.2-1.3,3.2c1.1,0.1,2.2,0.6,3,1.4c0.3,0.3,0.6,0.6,0.9,0.8c0.6,0.6,1.2,1.1,1.9,1.5l0.1,0.1
					c1.8,0.7,3.8-0.1,4.6-1.8c0.1-0.3,0.5-0.5,0.9-0.4c0.3,0.1,0.5,0.5,0.4,0.9L221.8,32.5z"/>
				<path class="st9" d="M214.9,38.7c-0.5,0.1-1.1,0.3-1.6,0.4c-0.8-0.8-1.6-1.6-2.2-2.5c-0.2-0.3-0.2-0.7,0.1-0.9c0,0,0,0,0,0
					c0.3-0.2,0.7-0.2,0.9,0.1c0,0,0,0,0,0C212.9,36.8,213.8,37.8,214.9,38.7z"/>
				<path class="st9" d="M189.7,14.8c1.4,0.2,2.7,0.1,4.1-0.3l1-0.2c1.8-0.3,3.2-0.1,4,0.6c-0.6,0.7-1.1,1.4-1.5,2.2
					c-0.2,0.3-0.1,0.7,0.3,0.9c0.1,0,0.2,0.1,0.3,0.1c0.2,0,0.5-0.1,0.6-0.4c2.1-3.7,5.8-6.1,10-6.5c-1.3-0.2-2.5-0.3-3.8-0.4
					c-1.9,0.7-3.6,1.8-5,3.2c-1.2-1-2.9-1.3-5.2-0.9l-1.1,0.2c-1.2,0.3-2.4,0.4-3.6,0.3c-1.1-0.2-2.1-0.8-2.8-1.8
					c-0.5,0.1-0.9,0.2-1.4,0.3l0.1,0.2C186.7,13.6,188.1,14.5,189.7,14.8z"/>
				<path class="st9" d="M220.3,19L220.3,19c0.4,0,0.7-0.3,0.7-0.6c0-1.1-0.1-2.1-0.4-3.1c-0.6-0.4-1.2-0.7-1.8-1
					c0.6,1.3,0.9,2.7,0.9,4.1C219.6,18.6,219.9,18.9,220.3,19C220.3,19,220.3,19,220.3,19z"/>
			</g>
			<path class="st10" d="M226,28c-0.1,0.5-0.2,0.9-0.3,1.4c0,0.1,0,0.1-0.1,0.2c-1.6,5-5.9,7.7-10.8,9.1c-0.5,0.1-1.1,0.3-1.6,0.4
				c-1,0.2-2.1,0.4-3.2,0.5l-1.4,0.1c-1.3,0.1-2.5,0.2-3.6,0.2h-1.6c0.1,0,0.2,0.1,0.2,0.1c0.1,0.4,0.2,0.9,0.1,1.4
				c-0.1,0.8-0.2,1.7-0.4,2.5c-0.1,0.5-0.2,0.9-0.3,1.4c-0.3,1.3-0.7,2.6-1,3.4c-0.1,0.3-0.2,0.6-0.4,0.9l-0.3,0.4
				c-1.5,1.7-3.7,2.6-5.9,2.2c-0.8,4-1.1,8.2-0.7,12.3c-1,0.1-4.7,0.3-5.7,0.4c-0.7-3.1,0.7-6.1-1-8.7c-3.8,2.3-8.7,2-13.2,1.3
				c-1.7-0.1-3.3-0.7-4.6-1.6c-1.3-0.9-1.9-2.6-1.4-4.1c-1.4,0-2.8-0.2-4.1-0.7c-0.5-0.2-1-0.5-1.5-0.8c-0.3-0.2-0.5-0.5-0.8-0.7
				c-0.9-1.1-1.6-2.3-2-3.6c-0.1-0.2-0.1-0.4-0.2-0.6l0.4,0.1c1.3,0.5,2.6,0.9,4,1.2l0.5,0.1c0.4,0.1,0.8,0.2,1.2,0.2
				c1.6,0.3,3.3,0.5,4.9,0.6c0.7,0.1,1.5,0.1,2.2,0.1c1.7,0.1,3.5,0.1,5.2,0.1h2h0.4c1.9,0,3.8-0.1,5.7-0.4c0.5-0.1,1.1-0.1,1.6-0.3
				l0.5-0.1c0.6-0.1,1.1-0.3,1.7-0.4l0,0c0,0,0.1,0,0.1,0c1.7-0.5,3.4-1.4,4.8-2.6c0.4-0.3,0.8-0.6,1.1-1c0.7-0.8,1.3-1.6,1.8-2.6
				c0.3-0.7,0.6-1.5,0.7-2.3c0.3-1.7,0-3.4-0.9-4.9c-0.4-0.8-1-1.5-1.7-2l1.7,0.6l1.4,0.5c2.1,0.8,4.3,1.4,6.5,1.8
				c0.6,0.1,1.2,0.2,1.8,0.3c0.4,0.1,0.7,0.1,1.1,0.1c1.7,0.1,3.4,0,5.1-0.4c2.6-0.5,5-1.9,6.8-3.8c0.4-0.4,0.7-0.8,1-1.3
				c0.3-0.4,0.5-0.8,0.7-1.3c0.7-1.5,1.2-3.1,1.5-4.7c0.1-0.4,0.1-0.9,0.2-1.4c0.1-1,0.1-2.1,0.1-3.1c0.5,0.9,0.9,1.8,1.2,2.7
				c0.1,0.4,0.3,0.9,0.4,1.3C226.2,24.6,226.2,26.3,226,28z"/>
			<path class="st11" d="M238.5,56.9c1.3,1.2,1.1,3.5-0.5,5.1l0,0c-1.6,1.6-3.9,1.8-5.1,0.5l-16.5-17.5c-1.2-1.3-1.1-3.3,0.1-4.5
				l0,0c1.2-1.3,3.2-1.3,4.5-0.1L238.5,56.9z"/>
			<path class="st12" d="M193.9,17.9c5.3-5.3,13.8-5.3,19.1,0c5.3,5.3,5.3,13.8,0,19.1s-13.8,5.3-19.1,0c0,0,0,0,0,0
				C188.6,31.7,188.6,23.2,193.9,17.9C193.9,17.9,193.9,17.9,193.9,17.9z"/>
			<path class="st13" d="M212.5,39.3l2.7-2.7c0.7-0.7,1.7-0.7,2.4,0l0.6,0.6c0.7,0.7,0.7,1.7,0,2.4l-2.7,2.7c-0.7,0.7-1.7,0.7-2.4,0
				l-0.6-0.6C211.8,41,211.8,39.9,212.5,39.3z"/>
			<path class="st14" d="M191.4,15.5c6.6-6.6,17.3-6.6,23.9,0c6.6,6.6,6.6,17.3,0,23.9c-6.6,6.6-17.3,6.6-23.9,0c0,0,0,0,0,0
				C184.8,32.8,184.8,22.1,191.4,15.5C191.4,15.5,191.4,15.5,191.4,15.5z M212.9,17.9c-5.3-5.3-13.8-5.3-19.1,0
				c-5.3,5.3-5.3,13.8,0,19.1c5.3,5.3,13.8,5.3,19.1,0C218.2,31.7,218.2,23.2,212.9,17.9C213,17.9,213,17.9,212.9,17.9L212.9,17.9z"
				/>
			<path class="st15" d="M361.5,145.5l1.8-2.6c-2.9-2-6.5-2.7-9.9-1.8l0.8,3C356.8,143.4,359.4,143.9,361.5,145.5z"/>
			<path class="st11" d="M191.4,15.5c6.6-6.6,17.3-6.6,23.9,0c6.6,6.6,6.6,17.3,0,23.9c-6.6,6.6-17.3,6.6-23.9,0c0,0,0,0,0,0
				C184.8,32.8,184.8,22.1,191.4,15.5C191.4,15.5,191.4,15.5,191.4,15.5z M212.9,17.9c-5.3-5.3-13.8-5.3-19.1,0
				c-5.3,5.3-5.3,13.8,0,19.1c5.3,5.3,13.8,5.3,19.1,0C218.2,31.7,218.2,23.2,212.9,17.9C213,17.9,213,17.9,212.9,17.9L212.9,17.9z"
				/>
			<path class="st16" d="M235.5,53.9l3.5,3.4c1.3,1.2,1.1,3.5-0.5,5.1s-3.9,1.8-5.1,0.5c-4-4.3-8-8.5-12.1-12.8
				C225.8,52.2,230.6,53.4,235.5,53.9z"/>
			<rect x="29" y="207.4" class="st17" width="4.3" height="55.4"/>
			<path class="st18" d="M54.2,260.8h-5.3c-1.4,0-2.6,1.2-2.6,2.6c0,0.1,0,0.1,0,0.2c2-1.5,4.8-2,7.8-2.1L54.2,260.8z"/>
			<path class="st1" d="M292.8,225.2c-1.3,2.5-3.9,4-6.7,4l-9.3,0.7c0.5,0,0.5,3.8,0.2,9.4c-0.6,13.6-2.9,37.6-3.8,41.3
				c-0.2,0.7-0.4,1.4-0.7,2c-2.1,4.8-7.1,7.6-12.3,6.8l-32.1-2.9l2.8,28h-91.2l0.4-5.6l0.5-6.2l0.4-5.6l0.5-6.2l0.4-5.6l0.5-6.2
				l0.4-5.6l0.5-6.2l0.4-5.6l0.1-1.6c0.1-1.5,0.2-3,0.2-4.5c0-6.4-1.2-12.6-3.4-18.6c-0.7-2.1-1.6-4.1-2.6-6
				c-0.8-1.5-1.5-3.1-2.2-4.7c-0.6-1.3-1.1-2.6-1.7-3.9l0,0c-5.1-13-8.4-26.6-9.7-40.5l0,0c0,0,0,0,0-0.1l0,0c0-0.3-0.1-0.6-0.1-0.9
				l0,0c0,0,0-0.1,0-0.1c0-0.1,0-0.3,0-0.4l0,0c-0.1-0.5-0.1-1.1-0.1-1.6l0,0c-0.1-0.7-0.1-1.4-0.2-2c0-0.3-0.1-0.6-0.1-1
				c-0.1-1.7-0.2-3.4-0.3-5.2c-0.3-8.4,0-16.8,0.9-25.2c4.4-42.2,43.6-56.8,83.2-57c62.5-0.2,75.1,40.6,76.5,55
				c0.5,4.3,2.7,22.7,2.7,22.7c0.5,2.2,2.3,11.4-0.3,15.3c-0.3,0.5-0.7,0.9-1.2,1.2c0,0-3.3,1.8-2.7,5l0.3,0.8l0,0l10.2,31.8
				C294,221.8,293.7,223.6,292.8,225.2z"/>
			<rect x="126" y="255.7" class="st19" width="84.3" height="11.8"/>
			<rect x="112.9" y="267.4" class="st19" width="84.3" height="11.8"/>
			<rect x="99.8" y="279.2" class="st19" width="84.3" height="11.8"/>
			<rect x="86.6" y="290.9" class="st19" width="84.3" height="11.8"/>
			<rect x="73.5" y="302.7" class="st19" width="84.3" height="11.8"/>
			<rect x="126" y="261.8" class="st20" width="84.3" height="5.6"/>
			<rect x="112.9" y="273.6" class="st20" width="84.3" height="5.6"/>
			<rect x="99.8" y="285.4" class="st20" width="84.3" height="5.6"/>
			<rect x="86.6" y="297.1" class="st20" width="84.3" height="5.6"/>
			<rect x="73.5" y="308.9" class="st20" width="84.3" height="5.6"/>
			<path class="st2" d="M235.3,255.7h-69.1V116.6h69.1c-21.1,10.6-15.6,122.9-2.8,137.5C233.2,255,234.2,255.6,235.3,255.7z"/>
			<path class="st21" d="M121.2,260.9l-0.1,0.1l-0.2,0.5l-0.4,0.9l-0.2,0.4l-0.6-0.1c-1.4-0.3-2.6-0.8-3.7-1.7l0.3-1l2.6,0.5
				l0.4,0.1L121.2,260.9L121.2,260.9z"/>
			<path class="st21" d="M134.4,265.7l-0.5,1.3c-3,0.1-7.4-1.2-12.8-4.1l-0.6-0.3l-1-0.5c-1-0.6-2.1-1.2-3.2-1.9l0,0l0.4-1v-0.1
				l0.2-0.4l0,0l1.8,0.7l0.6,0.2l1.8,0.8L134.4,265.7z"/>
			<path class="st22" d="M116.8,259c0.6,0.6,1.4,1.1,2.1,1.5c0.6,0.4,1.3,0.7,2,1.1l0.2,0.1c4.8,2.3,11.9,4.8,13.3,4
				c0.4-0.9-0.8-2.3-3.1-4.2l-0.7-0.6l-0.5-0.4l-0.7-0.6l0,0l-0.5-0.4l0,0l-0.8-0.6l-1-0.7l-1.1-0.7c-1.3-1-2.8-1.6-4.4-1.8
				c-1.4-0.2-2.7,0.4-3.6,1.5c-0.3,0.4-0.6,0.8-0.9,1.3c-0.1,0.1-0.1,0.3-0.2,0.4L116.8,259z"/>
			
				<rect x="148.3" y="166.1" transform="matrix(0.1913 -0.9815 0.9815 0.1913 -41.8074 300.4848)" class="st23" width="26.2" height="19"/>
			
				<rect x="158.8" y="183.1" transform="matrix(0.1913 -0.9815 0.9815 0.1913 -54.7133 311.0897)" class="st21" width="5.3" height="11.3"/>
			<path class="st24" d="M160.7,195.6l-3.1,6.7l-0.9,1.9l-1.4,2.9l-9.5,20.3l-16.7,32.2h-0.2l-10.6-0.6l0,0l-1.4-0.1l0,0l-1.6-0.1
				c1.1-3,3.3-8,6.1-13.6c4.3-8.7,10.1-19.1,15.8-26.6l4.6-20.9l1-4.5l0.1-0.3c0.8-4.4,4.3-7.8,8.7-8.5c0.2,0,0.3,0,0.5-0.1l0.3,0.3
				l2.4,2.9l1.2,1.4l2.2,3.1L160.7,195.6z"/>
			<path class="st21" d="M189.1,253.3l-0.5,0.4c-0.2,0.1-0.4,0.3-0.6,0.4c-0.9,0.7-1.9,1.1-3,1.3l-0.6-0.9l2-1.7l0.2-0.1l0.2-0.1
				l1.4-1.2l0,0l0.1,0.1l0.2,0.5l0.4,0.9L189.1,253.3z"/>
			<path class="st21" d="M200.8,245.3c-1.8,2.4-5.6,5-11.3,7.3l-0.6,0.3l-1,0.4l-0.5,0.2c-0.9,0.4-1.9,0.7-3,1v0l-0.5-1l-0.1-0.1
				l-0.2-0.4l0,0l1.7-0.9l0.5-0.3l0,0l1.7-0.9l12.6-6.7l0,0L200.8,245.3z"/>
			<path class="st22" d="M200.2,244.1L200.2,244.1c-0.3,1.5-6.7,5.5-11.5,7.7l-0.2,0.1c-0.6,0.3-1.3,0.5-1.8,0.8l-0.2,0.1
				c-0.8,0.3-1.7,0.6-2.6,0.7l-0.1-0.1l-0.2-0.4c-0.2-0.5-0.4-1-0.4-1.5c0-0.2,0-0.4-0.1-0.6c-0.1-0.8,0.1-1.6,0.5-2.2
				c0.2-0.3,0.4-0.7,0.7-1c1.2-1.1,2.7-1.9,4.2-2.3l1.3-0.4c0.4-0.1,0.8-0.2,1.1-0.3l0.5-0.1l0.5-0.1l0.6-0.2l0,0l0.9-0.2l0.7-0.1
				l0.9-0.2C197.9,243.3,199.8,243.3,200.2,244.1z"/>
			<path class="st24" d="M177.7,155.5c-0.2,0.8-1.4,6-2.9,12.7c-0.1,0.7-0.3,1.3-0.4,2c-2.4,10.8-4.9,22.2-6.2,28.1
				c-0.3,1.2-0.5,2.1-0.6,2.6l-2.8-0.7c-2.3-0.6-3.8-2.9-3.2-5.2c0-0.1,0-0.2,0.1-0.2l1.8-6.2l2.7-9.3l5.1-16.7l3.1-10.7l0.4,0.2
				l2.6,3L177.7,155.5z"/>
			<path class="st3" d="M191.5,244.6L191.5,244.6l-7.1,5.3l-1.3,1l-1.9,1.4c-4.3-8.7-7.1-28.2-9.5-41.8l-15-6.3l-8.9-3.8
				c-0.8-0.4-1.4-1-2.1-1.6c-1.6-1.5-2.6-3.5-3-5.7c-0.1-0.7-0.2-1.5-0.1-2.3c0-0.7,0.1-1.4,0.3-2.1l1.7-6.6l12,2.3l2.8,2.2l2.6,2.1
				l1.1,0.9l2.6,2.1l3.3,2.6l13.8,11L191.5,244.6z"/>
			<path class="st25" d="M201.6,181.1l-2.4-0.3c0.2-1.5,0.4-3,0.5-4.5l2.3,0.3l0.2-0.4c0.4-0.6,1.1-1,1.8-1.1c0.2,0,2.6-0.1,2.7-0.1
				l0,0l-0.2,1.1l2.6,0.3c-0.2,2.5-0.5,4.2-0.9,6.4l-3-0.1C203.1,182.6,202.2,182.1,201.6,181.1z"/>
			<path class="st26" d="M207.6,179.4c-0.2,0-0.5-0.1-0.6-0.3c-0.2-0.2-0.2-0.4-0.2-0.6v-0.1c0.1-0.5,0.5-0.8,1-0.7c0,0,0,0,0,0
				l2.4,0.2c0.2,0,0.4,0.1,0.6,0.3c0.1,0.2,0.2,0.4,0.2,0.6v0.3c-0.1,0.4-0.4,0.7-0.9,0.6L207.6,179.4z"/>
			<path class="st26" d="M207.5,177.6c-0.2,0-0.5-0.1-0.6-0.3c-0.2-0.2-0.2-0.4-0.2-0.6v-0.1c0.1-0.5,0.5-0.8,1-0.7c0,0,0,0,0,0
				l2.3,0.2c0.2,0,0.4,0.1,0.6,0.3c0.1,0.2,0.2,0.4,0.2,0.6v0.3c-0.1,0.4-0.4,0.7-0.9,0.6L207.5,177.6z"/>
			<path class="st26" d="M207.2,181.2c-0.5,0-0.9-0.4-0.8-0.9v-0.2c0-0.2,0.1-0.4,0.3-0.6c0.2-0.1,0.4-0.2,0.7-0.2l1.9,0.2
				c0.5,0,0.8,0.4,0.8,0.9v0.3c0,0.2-0.1,0.4-0.3,0.5c-0.2,0.1-0.4,0.2-0.6,0.1L207.2,181.2z"/>
			<path class="st26" d="M207,182.7c-0.4,0-0.7-0.4-0.6-0.8c0,0,0,0,0,0v-0.1c0-0.4,0.4-0.7,0.8-0.6l1.4,0.2c0.4,0,0.6,0.4,0.6,0.7
				c0,0,0,0,0,0v0.3c0,0.3-0.3,0.6-0.7,0.6L207,182.7z"/>
			<path class="st26" d="M207,178l-0.6-0.7c-0.1-0.1-0.3-0.2-0.4-0.2h-0.3c-0.5,1.5-2.1,2.3-3.6,1.9l-0.4,2.1h-2.4
				c0.2-1.6,0.4-3.3,0.6-4.9l1.3,0.2l0.9,0.1l0.2-0.4c0.4-0.6,1.1-1,1.8-1.1c0.2,0,2.6-0.1,2.7-0.1l0,0c0.2,0,0.3,0.1,0.4,0.2l1,1.1
				l0.7,0.8c0.2,0.2,0.2,0.6,0,0.8l-0.1,0.1c-0.2,0.2-0.6,0.3-0.9,0.3C207.5,178.4,207.2,178.2,207,178z"/>
			<polygon class="st27" points="202.4,175.5 199,175.2 197.6,181.9 201,182.2 			"/>
			<path class="st24" d="M200.7,174.9l-1.5,7.6h-0.5c-7.4-0.5-18.8-0.8-20.3-3.3c-0.1-0.1-2-4.1-4-8.9c-0.2-0.5-0.5-1.1-0.7-1.6
				c-0.9-2-1.8-4.2-2.5-6.1c-0.6-1.6-1.1-3-1.5-4.2c-0.6-1.5-0.9-3.2-0.9-4.9c0.3-2,2-2.9,4.1-2.7c0.5,0.1,1.1,0.2,1.6,0.3
				c1.5,0.4,2.8,1.3,3.7,2.6c1.3,1.7,6.2,18.7,6.2,18.7C186.4,173,194.9,174.2,200.7,174.9z"/>
			<path class="st28" d="M145.1,182.2c0.4-1.3,0.5-1.7,0.8-2.4l22.5,7.2c-0.2,0.8-0.4,1.6-0.8,2.4L145.1,182.2z"/>
			
				<rect x="160.1" y="184.6" transform="matrix(0.306 -0.952 0.952 0.306 -65.2768 282.4262)" class="st27" width="2" height="2.8"/>
			<path class="st29" d="M144.9,191.7c0.3,0.3,0.6,0.6,0.9,0.9L144.9,191.7z"/>
			<path class="st23" d="M142.6,178.6l21.7,7.1c1-4.5,10.4-33.8,10.4-33.8l-2.9-1.5l-8.9-4.5C162.9,146,143.8,174.6,142.6,178.6z"/>
			<path class="st25" d="M165.3,145.2l3.3-7.5c3.2,1.5,7.5,3.3,8.3,3.5c0,0-2.3,5.5-3.1,7.9C172.5,153.9,167,152.5,165.3,145.2z"/>
			<path class="st27" d="M170.7,151.9l2,3.6c1-1.8,1.9-2.8,2-4l-1-2.3C173.5,150.8,172.2,151.9,170.7,151.9z"/>
			<path class="st27" d="M170.7,151.9l-4.5,3.5c-1.6-3-3.4-7-3.3-9.4l2.7-1.6C165,146.4,168,151.2,170.7,151.9z"/>
			<path class="st3" d="M168.1,173.3c3.7-5.5,8.4-16.9,8.4-16.9s-2.2-1.8-2-1.9l2.2,0.4l-0.7-3.3l-2-1.6
				C172.5,157.3,170.5,165.5,168.1,173.3z"/>
			<path class="st26" d="M165.9,139.3c-0.4-1.4-0.5-2.8-0.3-4.2c1.1-8.1,5.6-6.5,8.6-6.2c3.5,0.5,6.6,3.2,6.2,8.7
				c-0.1,0.3-0.3,0.6-0.5,0.9l0.9,3.1c0.1,0.5-0.1,0.9-0.6,1.1c0,0-0.1,0-0.1,0l-0.8,0.1c-0.1,0.6-0.3,2.9-0.3,2.9
				c-0.2,1.4-1,3.5-2.8,3.1c-5.2-1-7-3.7-6.1-8.3C168.8,140.3,166.2,140.6,165.9,139.3z"/>
			<path class="st9" d="M166.4,143.1c4.1,1.6,2.9-4.8,2.9-4.8c1.2-0.3,2.4-0.5,3.6-0.6c-3.4-5.6-2.4-9.8,4.6-7.5
				c1.1-0.9-1.6-2.8-5.3-2.5c-4.1,0.4-7.1,2-8,6C163.5,136.2,162.8,141.1,166.4,143.1z"/>
			<path class="st26" d="M168.4,138.2c-0.1,1.3,0.8,2.9,1.6,2.9s1-1,1.1-2.3c0.1-0.8,0.3-2-0.6-2.4S168.5,136.4,168.4,138.2z"/>
			<path class="st25" d="M124,180.6L124,180.6c0.5,0.1,0.8,0.6,0.6,1.1c0,0,0,0.1,0,0.1c-0.5,2-0.9,4-1,6c0,0.5-0.5,0.9-1,0.9l0,0
				c-0.5,0-0.9-0.4-0.9-0.9c0,0,0-0.1,0-0.1c0.1-2.1,0.4-4.3,1-6.3C122.9,180.8,123.4,180.5,124,180.6z"/>
			
				<rect x="120.6" y="176.1" transform="matrix(0.5223 -0.8527 0.8527 0.5223 -93.6377 190.1177)" class="st26" width="4.6" height="5.1"/>
			<path class="st25" d="M123.4,182.4L123.4,182.4c0.4,0.2,0.5,0.8,0.3,1.2c0,0,0,0,0,0l-3.2,5.3c-0.3,0.4-0.8,0.5-1.2,0.3l0,0
				c-0.4-0.2-0.5-0.8-0.3-1.2c0,0,0,0,0,0l3.2-5.3C122.5,182.3,123,182.2,123.4,182.4C123.4,182.4,123.4,182.4,123.4,182.4z"/>
			<path class="st25" d="M120.6,183.7L120.6,183.7c0.4,0.2,0.5,0.8,0.3,1.2c0,0,0,0,0,0l-1.6,2.7c-0.2,0.4-0.8,0.5-1.2,0.3l0,0
				c-0.4-0.2-0.5-0.8-0.3-1.2c0,0,0,0,0,0l1.7-2.8C119.7,183.5,120.2,183.4,120.6,183.7z"/>
			<path class="st25" d="M119.3,182.6L119.3,182.6c0.4,0.3,0.5,0.8,0.3,1.2l-1.4,2.3c-0.2,0.4-0.8,0.5-1.2,0.3l0,0
				c-0.4-0.2-0.5-0.8-0.3-1.2c0,0,0,0,0,0l1.4-2.3C118.3,182.4,118.9,182.3,119.3,182.6z"/>
			<path class="st25" d="M117.9,181.7L117.9,181.7c0.3,0.2,0.4,0.7,0.3,1l-1.3,2.1c-0.2,0.3-0.7,0.4-1,0.3l0,0
				c-0.4-0.2-0.5-0.7-0.3-1c0,0,0,0,0,0l1.3-2.1C117.1,181.6,117.5,181.5,117.9,181.7z"/>
			<path class="st26" d="M117.6,180.7l-0.8,1.3c-0.2,0.4-0.1,0.8,0.3,1l0,0c0.3,0.2,0.8,0.1,1-0.3l-0.1,0.2
				c-0.2,0.4-0.1,0.9,0.3,1.2l0,0c0.4,0.2,0.9,0.1,1.2-0.3l-0.1,0.2c-0.2,0.4-0.1,0.9,0.3,1.2l0,0c0.4,0.2,0.9,0.1,1.2-0.3
				c0,0,0,0,0,0c-0.3,0.4-0.1,0.9,0.3,1.2c0,0,0,0,0,0l0,0c0.4,0.2,0.9,0.1,1.2-0.3c0,0,0,0,0,0l1.1-1.8L117.6,180.7z"/>
			<path class="st26" d="M122,178.3l1.4,0.9c1.2,0.7,1.6,2.3,0.8,3.5c0,0,0,0,0,0l-1.1,1.8l-5.8-3.5l1.1-1.8
				C119.3,178,120.8,177.6,122,178.3C122,178.3,122,178.3,122,178.3z"/>
			<polygon class="st27" points="121.7,174.1 127.5,178 125.3,180.9 119.6,177.1 			"/>
			<path class="st24" d="M155.9,155.4c-0.3,0.5-0.7,0.9-1.1,1.3c-1.5,1.1-3.1,2.1-4.7,3.1l-1.8,1.1c-4.1,2.5-8.5,5.1-8.5,5.1
				s-0.5-0.8-1.4-1.9c-1.3-1.6-3.3-3.8-5.4-4.3c0.1-0.2,11.8-8.1,16.4-11.2c1.3-0.8,2.8-1.3,4.4-1.3h0.4c2,0.2,3.1,1.8,3,3.9
				C157.2,152.6,156.7,154.1,155.9,155.4z"/>
			<path class="st24" d="M139.8,166c-0.9,0.9-7.6,7.6-11.7,12.4c-0.5,0.6-1,1.2-1.5,1.8l-0.4-0.3l-0.8-0.5l-4.3-2.7l-0.9-0.5
				l-0.4-0.2c4-5.6,8.4-11,13.1-16.2c2.5,0.1,4.9,1.5,6.1,3.7C139.5,164.2,139.8,165.1,139.8,166z"/>
			<path class="st0" d="M121.6,175.4c-0.2-0.2-0.2-0.5,0-0.7c0,0,0,0,0,0c0.2-0.2,0.5-0.2,0.7,0s0.2,0.5,0,0.7c0,0-0.1,0.1-0.1,0.1
				C122,175.6,121.7,175.6,121.6,175.4z"/>
			<path class="st0" d="M122.5,173.9c-0.2-0.2-0.2-0.5,0-0.7s0.5-0.2,0.7,0s0.2,0.5,0,0.7c0,0,0,0,0,0
				C123,174.1,122.7,174.1,122.5,173.9C122.5,173.9,122.5,173.9,122.5,173.9z"/>
			<path class="st20" d="M164,186.5l2.1-7.2c-2.6-3.4-3.8-8.7-4.4-12.8c-0.4-4.3-0.3-8.6,0.1-12.9c-3.2,10.9-5.8,19.7-8.6,30.8
				L164,186.5z"/>
			<path class="st30" d="M198.7,182.4c-7.4-0.5-18.8-0.8-20.3-3.3c-0.1-0.1-2-4.1-4-8.9c-1.9,8.8-3.9,17.3-5.4,24.2l-3.3-2.6
				c1.5-2.9,2.1-6.4,2.8-9.6c1.2-5.5,2.6-8.6,5.2-13.6c0.2-0.5,0.5-0.9,0.7-1.4l0.4,0.9c0.9,2.2,2,4.2,3.3,6.1c1.5,2.2,3.6,4,6,5.2
				C188.7,181.4,194.3,180.2,198.7,182.4z"/>
			<path class="st30" d="M188,254.1c-0.9,0.7-1.9,1.1-3,1.3l-0.6-0.9v0l-0.5-1l-0.1-0.1l-0.2-0.4l0,0c-0.2-0.5-0.4-1-0.4-1.5
				c0-0.2,0-0.4-0.1-0.6l-1.9,1.4c-4.3-8.7-7.1-28.2-9.5-41.8l-15-6.3l-1.4,2.9c-2.6-0.2-5.2,0.3-7.5,1.5c-5.1,2.9-7.9,8.7-6.9,14.5
				c-8.9,4.5-13.3,14.4-19.7,22.2c4.3-8.7,10.1-19.1,15.8-26.6l4.6-20.9l-2.7-0.9c1.1-2,2.3-4,3.5-5.9c1.6-2.6,3.3-5.2,5-7.8
				l3.9,1.2l0.8,0.2l3,0.9l4.1,1.3l4.2,1.4v0.1l-0.1,0.2c0,0.1-0.1,0.2-0.1,0.3c-0.1,0.2-0.1,0.3-0.1,0.5s-0.1,0.4-0.1,0.5
				c0,0,0,0,0,0.1c-1.8,0.2-3.6,1-5,2.2c-2.4,2.1-3.8,5-4,8.2c1.1,0.7,2.3,1.5,3.4,2.1c5.4,3.2,11.1,5.7,17.1,7.6
				c0.9,8.1,2.2,16.2,3.9,24.1c0.8,4.4,2.1,8.7,4,12.8c0.3,0.7,0.7,1.4,1.1,2c0.3,0.4,0.5,0.8,0.8,1.2c0.4,0.6,0.9,1.3,1.4,1.9
				c0.2,0.3,0.5,0.6,0.7,0.9l0.1,0.1c0.2,0.3,0.5,0.5,0.7,0.8L188,254.1z"/>
			<path class="st24" d="M156,183c-0.1,0.5-0.3,0.9-0.4,1.4s-0.2,0.7-0.3,1.1l-0.6,1.9c-0.8,2.6-1.5,5-2.1,7.2
				c-0.9,3-3.8,4.8-6.9,4.3l0,0c-0.3-0.1-0.6-0.1-0.9-0.2l-3.1-1l-2.7-0.9l-0.2-0.1l-3-1c0.6-1.9,3-9.3,5.9-17.6
				c2.3-6.6,4.4-11.6,6.5-17.2c0.5-1.3,1-2.6,1.4-3.7l0.4-1l0.6-1.5c1.1-2.6,2-5.1,3.1-7.6l0,0l9.1-1.2l0.4,0.2
				C164.4,151.9,160.1,168.2,156,183z"/>
			<path class="st3" d="M159.3,171.3c0.3-6.6,0.5-19.8,0.5-19.8s3.1-0.5,3-0.8l-3-0.9l1.8-3.7l3.4-1.4
				C164.8,152.6,162,163.6,159.3,171.3z"/>
			<path class="st30" d="M150.8,156.9c-0.2,1-0.4,2-0.7,2.9c-1.3,5.2-2.7,8-4.6,13c-0.6,1.8-1.3,3.5-1.9,5.3l-0.3,0.7
				c-2.2,5.8-3.7,11.7-4.5,17.8l-3-1c0.6-1.9,3-9.3,5.9-17.6c2.3-6.6,4.4-11.6,6.5-17.2c-4.1,2.5-8.5,5.1-8.5,5.1
				c-0.9,0.9-7.6,7.6-11.7,12.4c2.5-5.4,6-10.2,10.3-14.3l0.7-0.6c3.1-2.7,6.7-4.9,10.6-6.3C150.1,157.1,150.4,157,150.8,156.9z"/>
			<polygon class="st11" points="171,155.8 169.1,155.5 169,153.2 170.7,151.9 171.6,153.6 			"/>
			<path class="st11" d="M171,155.8l-1.9-0.4c-1.5,6-4.1,10.8-8.6,14l0.2,4.3l3.8-1.2C168.7,168,170.3,162.2,171,155.8z"/>
			<polygon class="st31" points="235.3,116.6 232.5,254.1 232.5,255.6 232,255.7 196.1,265.4 193.3,264.5 193.3,125 226.9,116.6 			
				"/>
			<polygon class="st32" points="235.3,255.7 196.1,265.4 196.1,126.3 235.3,116.5 			"/>
			<path class="st2" d="M205.5,188.1c0.1-1-0.7-1.9-1.7-1.9c-0.3,0-0.6,0-0.9,0.2c-1.5,0.6-2.5,1.9-2.6,3.5c-0.1,0.7,0.3,1.4,1,1.8
				l-0.7,8.3l4.4-1.5l-0.7-7.8C205,189.9,205.4,189,205.5,188.1z"/>
			<path class="st20" d="M287,181.4c-0.3,0.5-0.7,0.9-1.2,1.2c0,0-3.3,1.8-2.7,5l0.3,0.8l0,0l-17.5,8.4l-17.7-13.6L287,181.4z"/>
			<path class="st20" d="M292.8,225.2c-1.3,2.5-3.9,4-6.7,4l-9.3,0.7c0.5,0,0.5,3.8,0.2,9.4c-7.2-2.2-10.6-4.6-12.6-10.4
				C276.2,229,287.2,228.6,292.8,225.2z"/>
			<path class="st20" d="M272.6,282.6c-2.1,4.8-7.1,7.6-12.3,6.8l-32.1-2.9l2.8,28c-21.3-9.2-33.4-24.3-33.4-47
				C223.4,280.5,248.4,285.1,272.6,282.6z"/>
			<path class="st18" d="M282.5,318.2c0.2,0.4,0.5,0.7,0.8,0.9l0.4,0.3c-0.9,1.4-0.2,2.9-0.5,4.5c-0.5-0.1-2.4-0.1-3-0.2
				c0.2-2.1,0.1-4.3-0.4-6.4c0.9-0.1,1.8-0.3,2.7-0.5C282.3,317.3,282.3,317.8,282.5,318.2z M284.7,319.1l0.4,0.3
				c2,1.2,4.5,1,6.8,0.7c0.9-0.1,1.7-0.4,2.4-0.8c0.7-0.5,1-1.3,0.7-2.1h-0.7c-0.8,0-1.5-0.1-2.3-0.2l-0.9-0.1
				c-1.7-0.2-3.3-0.4-5-0.3c-0.2,0-0.5,0-0.7,0s-0.6,0.1-1,0.1h-0.2l-0.5,0.1c-0.2,0.4-0.2,1,0,1.4
				C284,318.6,284.3,318.9,284.7,319.1z M277.2,312.9c-0.2,0-0.3,0-0.5,0c0.2,0.7,0.4,1.4,0.5,1.8c1.4-0.2,2.8-0.4,4.2-0.6
				c0.6-0.1,1.1-0.2,1.7-0.5l0,0c0.2-0.1,0.3-0.2,0.4-0.3c0.1-0.1,0.2-0.2,0.3-0.4c0.3-0.5,0.5-1,0.5-1.6c0-0.2,0.1-0.5,0.1-0.7
				c0-0.5,0.1-1,0.2-1.4l0,0h-1c-0.8,0-1.6-0.1-2.4-0.2c-0.8-0.1-1.6-0.4-2.2-0.9L279,308c-0.1,0.4-0.2,0.8-0.3,1.3
				c-0.1,0.9,0.1,1.9,0.6,2.7c0.2-0.1,0.5-0.1,0.7-0.2c0.9-0.3,1.7-0.7,2.4-1.3c0.1-0.1,0.4-0.1,0.5,0c0,0,0,0,0,0
				c0.1,0.2,0.1,0.4-0.1,0.5c-0.7,0.5-1.5,1-2.3,1.3c-0.4,0.2-0.9,0.3-1.4,0.4C278.6,312.8,277.9,312.9,277.2,312.9z M286.9,298.7
				L286.9,298.7c-1.3-0.2-2.6-0.1-3.9,0.3c-1.9,0.5-3.7,1.5-5.1,3c-0.5-0.3-0.8-0.7-1-1.2c-0.1-0.2-0.1-0.5-0.2-0.7
				c-0.1-0.4-0.3-0.9-0.5-1.3c-0.7-1.3-2.1-2-3.5-1.8c-1.1,0.2-2.2,0.8-3,1.6l-0.4,0.4c-0.6,0.6-1.3,1.1-2,1.5
				c-0.5,0.3-1.1,0.4-1.7,0.3c-0.2,0-0.5-0.1-0.7-0.2c0.2-0.5,0.4-1,0.6-1.4c0.4-0.7,1-1.3,1.7-1.8l0.2-0.1c0.3-0.2,0.6-0.3,0.9-0.5
				c1.7-0.8,3.5-1.3,5.3-1.5l1.2-0.2l-1.2,0.2c2.2,0.2,4.1,1.5,5.2,3.4c0.1,0.1,0.2,0.2,0.3,0.2c0.1,0,0.1,0,0.2,0
				c0.2-0.1,0.2-0.3,0.1-0.5c0,0,0,0,0,0c-0.2-0.4-0.5-0.8-0.8-1.1c0.6-0.4,1.4-0.5,2.1-0.3l0.5,0.1c0.7,0.2,1.4,0.2,2.1,0.1
				c0.8-0.1,1.5-0.6,2-1.3c0,0,0-0.1,0.1-0.1l-0.5-0.1l0.5,0.1c0.6,0.1,1.1,0.3,1.6,0.5C287,297,286.8,297.9,286.9,298.7z
				 M267.6,297.3c-0.2,0.5-0.2,1.1-0.2,1.6c0,0.2,0.2,0.3,0.3,0.3l0,0c0.2,0,0.3-0.2,0.3-0.3c0,0,0,0,0,0c0-0.7,0.1-1.4,0.5-2.1
				C268.3,297,268,297.2,267.6,297.3z M290.3,299.7c0.9-0.4,1.8-0.7,2.8-0.7c-0.4-0.3-0.9-0.6-1.3-0.9c-1.2-0.7-2.5-1.4-3.9-1.8
				c-0.3,0.8-0.5,1.6-0.3,2.5c0.9,0.2,1.8,0.4,2.6,0.8L290.3,299.7z M274,309.6c-0.1,0.2-0.1,0.3-0.2,0.5c0.6,0.1,1.3,0.1,1.9,0.1
				c0-0.7,0.1-1.3,0.2-1.9c0.1-0.2,0.3-0.3,0.4-0.2c0.2,0.1,0.3,0.2,0.2,0.4c-0.1,0.6-0.2,1.2-0.2,1.8h0.1c-0.1,0-0.1,0-0.1,0.1
				c-0.1,0.2-0.1,0.5,0,0.7c0,0.4,0.1,0.9,0.2,1.3c0.7,0.1,1.4,0,2.1-0.1c-0.4-0.8-0.6-1.6-0.6-2.5c0-0.8,0.2-1.6,0.5-2.4v0
				c-0.1-0.3-0.1-0.6-0.1-0.9c0,0,0,0,0-0.1l0,0c-0.9-0.4-2-0.3-2.7,0.4l0,0c-0.2,0.2-0.4,0.4-0.6,0.6c-0.4,0.6-0.8,1.3-1,2
				L274,309.6z M285,295.6c-0.6-0.1-1.2-0.2-1.8-0.3c-2.4-0.3-4.9-0.4-7.3-0.2c1,0.4,1.8,0.9,2.6,1.6c0.8-0.5,1.8-0.7,2.7-0.5
				l0.5,0.1c0.6,0.2,1.2,0.2,1.8,0.1C284.1,296.4,284.6,296,285,295.6L285,295.6z M264.9,304c0.6,0.1,1.2,0.1,1.8,0
				c1.8-0.2,3.5-1.2,4.5-2.8l0.1-0.2c0.2-0.3,0.4-0.5,0.6-0.8c0.4-0.4,0.9-0.5,1.4-0.3c0.6,0.2,0.8,0.8,0.9,1.3s0.3,0.8,0.5,0.9
				c0.2,0,0.3,0.2,0.3,0.4c0,0.2-0.2,0.3-0.4,0.3c0,0-0.1,0-0.1,0c-0.6-0.2-0.8-0.8-1-1.3s-0.3-0.8-0.5-0.9c-0.2,0-0.5,0-0.6,0.2
				c-0.2,0.2-0.3,0.4-0.5,0.6l-0.1,0.2c-1.3,2-3.6,3.1-5.9,3.1c-0.3,0-0.5,0-0.8,0v0.1c0.9,2.6,3,4,5.6,4.7c0.5-0.4,1-0.9,1.4-1.5
				c0.1-0.2,0.3-0.2,0.5-0.1c0.2,0.1,0.2,0.3,0.1,0.5c0,0,0,0,0,0c-0.3,0.5-0.7,0.9-1.1,1.3c0.5,0.1,1.1,0.2,1.6,0.3
				c0.1-0.2,0.2-0.4,0.2-0.6l0.1-0.3c0.2-0.6,0.5-1.1,0.8-1.7c0.2-0.3,0.4-0.6,0.7-0.9c-0.4-0.2-0.8-0.4-1.1-0.7c-0.1,0-0.2,0-0.3,0
				c-0.6-0.3-1.3,0.3-1.5,0.5l-0.4,0.4c-0.2,0.2-0.4,0.4-0.6,0.5c-0.2,0.2-0.4,0.3-0.7,0.4c-0.3,0.1-0.6,0.2-1,0.2
				c-0.3,0-0.7-0.1-1-0.2c-0.6-0.2-1.1-0.7-1.4-1.3c-0.1-0.2,0-0.4,0.2-0.5c0.2-0.1,0.4,0,0.5,0.2c0.2,0.5,0.5,0.8,1,1
				c0.4,0.2,0.9,0.2,1.4,0h0.1c0.4-0.2,0.7-0.5,1-0.8l0.5-0.4c0.4-0.4,1-0.7,1.6-0.7c-0.3-0.5-0.6-1-0.7-1.6c0-0.2,0.1-0.4,0.3-0.4
				s0.4,0.1,0.4,0.3c0,0,0,0,0,0c0.2,1.3,1.1,2.3,2.4,2.6c0.9-0.7,2.1-0.8,3.1-0.4l0,0c0-0.1,0.1-0.2,0.1-0.3c0.5-0.9,1.3-1.7,2.2-2
				c0.9-0.4,1.8-0.6,2.8-0.8c1.4-0.4,2.9-0.4,4.3,0.1c0.1,0,0.1,0.1,0.1,0.1c0.1,0.1,0.1,0.2,0,0.3c-0.1,0.2-0.3,0.2-0.5,0.2
				c-1.3-0.4-2.6-0.4-3.9-0.1c-0.9,0.1-1.8,0.4-2.6,0.7c-0.8,0.3-1.5,0.9-1.9,1.7c-0.1,0.2-0.1,0.4-0.2,0.6c0,0.2,0,0.5,0,0.7
				c0.1,0.4,0.2,0.7,0.5,1c0.5,0.4,1.1,0.7,1.8,0.7c1.2,0.2,2.3,0.2,3.5,0.1c0.3-0.8,1-1.3,1.8-1.5c0.2,0,0.4,0.1,0.4,0.3
				s-0.1,0.4-0.3,0.4c-0.6,0.2-1.1,0.7-1.3,1.3l0,0.1c-0.2,0.5-0.3,1.1-0.3,1.6c0,0.2,0,0.5-0.1,0.7c-0.1,0.6-0.2,1.1-0.5,1.7
				c0.2,0.3,0.4,0.6,0.5,0.9c0.1,0.2,0.1,0.3,0.2,0.5c0.1,0.4,0.2,0.8,0.3,1.1c1.7,0,3.3,0.1,5,0.3c-0.2-0.3-0.4-0.5-0.7-0.6
				c-0.2-0.1-0.4-0.2-0.5-0.3c-0.4-0.2-0.7-0.4-1-0.7l-0.1-0.1c-0.2-0.2-0.4-0.5-0.6-0.7c-0.4-1-0.3-2.2,0.3-3.1
				c0.1-0.2,0.2-0.4,0.4-0.6c0.4-0.6,0.6-1.2,0.8-1.9c0-0.2,0-0.4,0-0.7c-0.1-0.7-0.4-1.3-0.9-1.8c-0.7-0.6-1.7-0.8-2.6-0.5
				c-0.5,0.2-0.9,0.4-1.3,0.8c-0.2,0.1-0.4,0.3-0.7,0.4c-0.7,0.5-1.7,0.7-2.6,0.4c-0.2-0.1-0.3-0.3-0.2-0.5c0.1-0.1,0.2-0.2,0.3-0.2
				h0.1c0.7,0.2,1.4,0,1.9-0.4c0.2-0.1,0.4-0.3,0.6-0.4c0.4-0.3,0.9-0.6,1.5-0.8c1.1-0.4,2.3-0.2,3.3,0.6c0.6,0.5,0.9,1.1,1.1,1.8
				c0.3-0.2,0.5-0.4,0.7-0.6c0.1-0.2,0.3-0.4,0.4-0.7c0.1-0.2,0.2-0.5,0.3-0.8c0.1-0.3,0.2-0.6,0.3-0.9l0,0c-0.5-0.1-1-0.4-1.4-0.7
				c-0.2-0.2-0.4-0.4-0.5-0.6c-0.2-0.3-0.3-0.8-0.3-1.2c0.1-0.4,0.3-0.8,0.7-1.1c-4.3-1.9-9.3-0.6-12.1,3.2
				c-0.1,0.1-0.2,0.2-0.3,0.1c-0.1,0-0.1,0-0.2-0.1c-0.2-0.1-0.2-0.3-0.1-0.5c0,0,0,0,0,0c0.1-0.2,0.3-0.4,0.5-0.6
				c-0.5-0.4-0.9-0.9-1.1-1.5c-0.1-0.2-0.2-0.5-0.2-0.8c-0.1-0.4-0.2-0.8-0.4-1.2c-0.6-1-1.7-1.6-2.8-1.4c-1,0.2-1.9,0.7-2.6,1.5
				l-0.4,0.4c-0.6,0.7-1.3,1.2-2.1,1.7c-0.6,0.3-1.2,0.4-1.9,0.4c-0.3,0-0.6-0.1-0.9-0.2C264.8,302.2,264.7,303.1,264.9,304
				L264.9,304z M281.5,314.8c-1.3,0.2-2.6,0.4-3.9,0.5c0.8,0.9,1.9,1.3,3.1,1.2c0.9-0.1,1.8-0.3,2.7-0.5l0.4-0.1c0.1,0,0.1,0,0.2,0
				c0.3-0.1,0.6-0.1,1-0.1c0-0.3-0.1-0.7-0.2-1c-0.1-0.3-0.2-0.6-0.4-0.9l-0.1-0.2c0,0-0.1,0.1-0.1,0.1l0,0c-0.6,0.5-1.3,0.8-2,0.9
				l-0.5,0.1L281.5,314.8z M291.5,316.1c-0.3-0.6-0.7-1-1.2-1.3l-0.6-0.3l0,0l-0.3-0.2c-0.5-0.2-0.9-0.6-1.2-1.1
				c-0.3-0.8-0.2-1.7,0.3-2.5c0.1-0.2,0.2-0.4,0.3-0.6c0.4-0.7,0.7-1.4,0.9-2.1c0-0.2,0-0.4,0-0.6l0,0c0.8-0.3,1.3-1,1.6-1.8
				c0.1-0.3,0.2-0.5,0.3-0.8c0.1-0.5,0.3-0.9,0.5-1.3c0.3-0.6,0.9-0.9,1.6-0.8c0.2,0.1,0.4,0,0.4-0.2c0.1-0.2,0-0.4-0.2-0.4
				c-0.9-0.2-1.8,0.2-2.3,1c-0.5-0.1-0.9-0.3-1.4-0.6c-0.4-0.2-0.6-0.7-0.5-1.1c0.1-0.4,0.4-0.7,0.9-1c1.1-0.6,2.3-0.8,3.5-0.6
				l0.3,0.2c0.9,0.8,1.6,1.6,2.3,2.6c0,0,0,0.1,0.1,0.1c0,0-0.1-0.1-0.1-0.1c-0.5,0.1-1,0.2-1.5,0.4c-0.2,0.1-0.3,0.3-0.2,0.4
				c0,0.1,0.2,0.2,0.3,0.2h0.1c0.5-0.2,1.1-0.3,1.6-0.4c0.3,0.6,0.7,1.2,0.9,1.8c0.4,0.8,0.6,1.6,0.8,2.5l0,0
				c-0.3,0.7-0.7,1.3-1.3,1.7c-0.2,0.1-0.2,0.3-0.1,0.5c0.1,0.1,0.2,0.1,0.3,0.1c0.1,0,0.2,0,0.2-0.1c0.4-0.3,0.8-0.7,1.1-1.2
				c0-0.3-0.1-0.6-0.1-0.8c0.1,0.3,0.1,0.6,0.1,0.8c0.1,0.8,0.2,1.6,0.1,2.4c0,0.4-0.1,0.8-0.1,1.2c-0.2-0.3-0.5-0.6-0.9-0.8
				c-0.4-0.2-0.8-0.2-1.2-0.3h-0.4c-0.4,0-0.7-0.2-1-0.5c-0.1-0.2-0.3-0.2-0.5-0.1c-0.2,0.1-0.2,0.3-0.1,0.5c0,0,0,0,0,0
				c0.4,0.5,0.9,0.8,1.5,0.8h0.4c0.3,0,0.7,0.1,1,0.2c0.4,0.2,0.7,0.6,0.9,1c0,0.1,0.1,0.1,0.1,0.2c-0.2,0.7-0.6,1.3-1,1.9
				c-0.1,0.1-0.2,0.3-0.4,0.4c0-0.5-0.1-1-0.4-1.4c-0.1-0.2-0.2-0.3-0.4-0.4c-0.4-0.4-0.9-0.7-1.4-0.9l-0.5-0.3
				c-0.6-0.4-1.3-1-1.2-1.7c0.1-0.5,0.5-0.9,0.9-1.1l0.5-0.3c0.4-0.2,0.8-0.4,1.1-0.7c0.6-0.5,0.8-1.3,0.5-2
				c-0.1-0.2-0.3-0.2-0.4-0.2c0,0,0,0,0,0c-0.2,0.1-0.2,0.3-0.2,0.5c0.1,0.4,0,0.9-0.4,1.2c-0.3,0.2-0.6,0.5-0.9,0.6
				c-0.2,0.1-0.3,0.2-0.5,0.3c-0.6,0.3-1.1,0.9-1.2,1.6c-0.1,1,0.6,2,1.5,2.4c0.2,0.1,0.4,0.2,0.6,0.3s0.5,0.3,0.8,0.5
				c0.3,0.2,0.5,0.4,0.7,0.6c0.3,0.4,0.4,1,0.2,1.5c-0.7,0.3-1.4,0.4-2.1,0.4h-0.7C293,316.3,292.2,316.2,291.5,316.1L291.5,316.1z
				 M293.1,314c-0.6-0.3-1.1-0.6-1.5-1c-0.4-0.4-0.6-0.9-0.6-1.5c0.1-0.5,0.4-1.1,0.8-1.5l0.4-0.5c0.3-0.5,0.6-1.1,0.9-1.7
				c0.1-0.3,0.3-0.6,0.5-1c0.3-0.8,1-1.5,1.8-1.8c0.4-0.1,0.9-0.1,1.3,0.2c0.3,0.2,0.5,0.4,0.5,0.7c0,0.2,0.2,0.3,0.4,0.3
				s0.3-0.2,0.3-0.4c-0.1-0.5-0.4-0.9-0.9-1.2c-0.6-0.3-1.3-0.4-1.9-0.2c-1,0.4-1.8,1.2-2.2,2.2c-0.2,0.3-0.3,0.7-0.5,1
				c-0.2,0.6-0.5,1.1-0.8,1.6l-0.4,0.5c-0.5,0.5-0.8,1.1-0.9,1.8c0,0.8,0.3,1.5,0.8,2c0.5,0.5,1.1,0.9,1.7,1.1
				c0.2,0.1,0.4,0,0.5-0.1C293.3,314.3,293.2,314.1,293.1,314C293,314,293,314,293.1,314L293.1,314z"/>
			<path class="st18" d="M21.5,256.5c1-0.9,2.5-0.9,3.5,0.1l0,0c1,0.9,1,2.4,0.2,3.4c-4.1,4.5-8.3,9-12.4,13.5
				c-0.9,1-2.7,0.9-3.9-0.3l0,0c-1.2-1.2-1.4-3-0.5-3.9L21.5,256.5z M43.8,237.2c-5.1-5-13.3-4.8-18.2,0.3c-5,5.1-4.8,13.3,0.3,18.2
				s13.3,4.8,18.2-0.3c0,0,0,0,0,0C49,250.3,48.9,242.1,43.8,237.2z M27.4,239.3c4-4.1,10.5-4.2,14.6-0.2c4.1,4,4.2,10.5,0.2,14.6
				c-4,4.1-10.5,4.2-14.6,0.2c0,0,0,0,0,0C23.6,249.9,23.5,243.4,27.4,239.3C27.4,239.3,27.4,239.3,27.4,239.3z M43.8,237.2
				c-5.1-5-13.3-4.8-18.2,0.3c-5,5.1-4.8,13.3,0.3,18.2s13.3,4.8,18.2-0.3c0,0,0,0,0,0C49,250.3,48.9,242.1,43.8,237.2L43.8,237.2z
				 M27.4,239.3c4-4.1,10.5-4.2,14.6-0.2c4.1,4,4.2,10.5,0.2,14.6c-4,4.1-10.5,4.2-14.6,0.2c0,0,0,0,0,0
				C23.6,249.9,23.5,243.4,27.4,239.3C27.4,239.3,27.4,239.3,27.4,239.3z"/>
			<path class="st18" d="M350.1,170.6c1.6,4.2,6.3,6.3,10.5,4.6c3.4-1.3,5.5-4.7,5.2-8.2l10.9-4.2l2.8,7.2l3.1-1.2l-2.8-7.2l0.8-0.3
				l2.8,7.2l6.1-2.4l-2.8-7.2l2.3-0.9l-1.6-4.2l-23.2,9c-2.7-3.6-7.8-4.2-11.4-1.5C349.9,163.4,348.9,167.2,350.1,170.6z
				 M353.9,169.1c-0.8-2.1,0.2-4.5,2.4-5.4c2.1-0.8,4.5,0.2,5.4,2.4c0.8,2.1-0.2,4.5-2.4,5.4l0,0
				C357.1,172.3,354.7,171.3,353.9,169.1C353.9,169.2,353.9,169.1,353.9,169.1L353.9,169.1z"/>
			<polygon class="st18" points="215.9,18.3 209.8,18.3 209.8,12.3 205.1,12.3 205.1,18.3 199,18.3 199,23.1 205.1,23.1 205.1,29.1 
				209.8,29.1 209.8,23.1 215.9,23.1 			"/>
			<polygon class="st18" points="349.4,33.3 345.7,33.3 345.7,29.6 342.8,29.6 342.8,33.3 339.2,33.3 339.2,36.2 342.8,36.2 
				342.8,39.8 345.7,39.8 345.7,36.2 349.4,36.2 			"/>
			<polygon class="st18" points="142.1,95.3 138.4,95.3 138.4,91.6 135.5,91.6 135.5,95.3 131.9,95.3 131.9,98.2 135.5,98.2 
				135.5,101.8 138.4,101.8 138.4,98.2 142.1,98.2 			"/>
			<polygon class="st18" points="112.4,245.2 108.7,245.2 108.7,241.5 105.8,241.5 105.8,245.2 102.2,245.2 102.2,248.1 
				105.8,248.1 105.8,251.7 108.7,251.7 108.7,248.1 112.4,248.1 			"/>
			<polygon class="st18" points="190.7,326.9 187,326.9 187,323.2 184.2,323.2 184.2,326.9 180.5,326.9 180.5,329.8 184.2,329.8 
				184.2,333.4 187,333.4 187,329.8 190.7,329.8 			"/>
			<polygon class="st18" points="384.2,249.7 380.5,249.7 380.5,246 377.7,246 377.7,249.7 374,249.7 374,252.6 377.7,252.6 
				377.7,256.2 380.5,256.2 380.5,252.6 384.2,252.6 			"/>
			<polygon class="st18" points="317.1,277.8 313.4,277.8 313.4,274.1 310.6,274.1 310.6,277.8 306.9,277.8 306.9,280.6 
				310.6,280.6 310.6,284.3 313.4,284.3 313.4,280.6 317.1,280.6 			"/>
			<polygon class="st18" points="64.5,241.7 60.8,241.7 60.8,238 57.9,238 57.9,241.7 54.3,241.7 54.3,244.6 57.9,244.6 57.9,248.2 
				60.8,248.2 60.8,244.6 64.5,244.6 			"/>
			<polygon class="st18" points="36.2,135.8 32.6,135.8 32.6,132.1 29.7,132.1 29.7,135.8 26,135.8 26,138.7 29.7,138.7 29.7,142.3 
				32.6,142.3 32.6,138.7 36.2,138.7 			"/>
			<polygon class="st18" points="322.2,100.5 318.5,100.5 318.5,96.8 315.7,96.8 315.7,100.5 312,100.5 312,103.3 315.7,103.3 
				315.7,107 318.5,107 318.5,103.3 322.2,103.3 			"/>
			<polygon class="st18" points="287.1,23.1 283.4,23.1 283.4,19.5 280.6,19.5 280.6,23.1 276.9,23.1 276.9,26 280.6,26 280.6,29.7 
				283.4,29.7 283.4,26 287.1,26 			"/>
			<polygon class="st18" points="25.2,287.3 21.5,287.3 21.5,283.6 18.7,283.6 18.7,287.3 15,287.3 15,290.1 18.7,290.1 18.7,293.8 
				21.5,293.8 21.5,290.1 25.2,290.1 			"/>
			<polygon class="st18" points="122.7,14.4 119.1,14.4 119.1,10.7 116.2,10.7 116.2,14.4 112.5,14.4 112.5,17.3 116.2,17.3 
				116.2,20.9 119.1,20.9 119.1,17.3 122.7,17.3 			"/>
			<polygon class="st18" points="18.3,238.3 12.3,238.3 12.3,232.2 7.5,232.2 7.5,238.3 1.5,238.3 1.5,243 7.5,243 7.5,249.1 
				12.3,249.1 12.3,243 18.3,243 			"/>
			<polygon class="st18" points="121,207.4 109.9,207.4 109.9,196.3 101.2,196.3 101.2,207.4 90.2,207.4 90.2,216.1 101.2,216.1 
				101.2,227.1 109.9,227.1 109.9,216.1 121,216.1 			"/>
			<polygon class="st18" points="396.3,285.3 387.6,285.3 387.6,276.6 380.9,276.6 380.9,285.3 372.2,285.3 372.2,292.1 
				380.9,292.1 380.9,300.8 387.6,300.8 387.6,292.1 396.3,292.1 			"/>
			<g class="st33">
				<path class="st0" d="M88.2,30.2c-3.4-1.2-6.6-2.9-9.6-5l-5.5,15.2C71.3,45.8,73.5,53.1,79,55l0.3,0.1c5.4,1.9,11.7-2.3,13.7-7.6
					l5.5-15.1C94.9,32.1,91.5,31.4,88.2,30.2z M90.3,38.1c1.6,0.4,2.6,1.6,2.3,2.9c-2.1-0.3-4.1-0.8-6.1-1.4
					C87.3,38.2,88.9,37.6,90.3,38.1z M81.3,34.9c1.5,0.8,2.4,2.3,2,3.6c-1.9-0.8-3.8-1.7-5.6-2.8C78.3,34.4,79.9,34.1,81.3,34.9
					L81.3,34.9z M80.6,51.2l-0.2-0.1c-3.9-1.4-5.8-6.4-4.9-10.8c1.6,4.1,3.7,6.6,6.3,7.5s5.7,0.3,9.3-1.9
					C89,49.9,84.6,52.6,80.6,51.2z"/>
			</g>
			<g class="st33">
				<path class="st0" d="M28.4,89.3c-3,1.4-6.2,2.4-9.5,3l6.4,13.7c2.3,4.8,8.6,8.2,13.5,5.9l0.2-0.1c4.9-2.3,6.4-9.3,4.1-14.1
					L36.7,84C34.2,86.1,31.4,87.9,28.4,89.3z M24.5,99.1c2.1-0.4,3.9-1.5,5.3-3.2c0.8,1.3,0.3,2.9-0.9,3.7c0,0,0,0-0.1,0
					C27.4,100.5,25.6,100.3,24.5,99.1z M35.5,104.5c-2.2,1-4.2,2.6-5.6,4.6c-0.5-2.3,1.2-5.6,4.4-7c3.6-1.6,6.8-0.7,8.2,1.1
					C40.1,103.1,37.7,103.6,35.5,104.5L35.5,104.5z M36.1,96.2c-1.4,0.5-2.9-0.1-3.5-1.5c0,0,0-0.1,0-0.1c2.1,0,4.2-0.7,5.8-2
					C38.5,94.2,37.6,95.7,36.1,96.2z"/>
			</g>
			<path class="st18" d="M311.1,129.8l-6.2,6.3l7.5,7.5l6.3-6.4c2.1-2.1,2-5.4-0.1-7.5S313.1,127.7,311.1,129.8z M307.2,137.2
				l-0.8-0.8l5.7-5.8c1.6-1.5,4.1-1.5,5.7,0c0.1,0.1,0.1,0.2,0.2,0.3C314.1,131.5,310.6,134,307.2,137.2z M297.5,143.7l6.1-6.2
				l7.5,7.5l-6,6.1c-2.1,2-5.5,1.9-7.5-0.2C295.6,148.9,295.6,145.7,297.5,143.7L297.5,143.7z"/>
			<path class="st18" d="M0,273.3l5,7.2l8.8-6l-5.1-7.3c-1.8-2.3-5.1-2.8-7.4-1C-0.9,267.8-1.5,270.9,0,273.3z M6.5,278.4l-0.9,0.6
				L1,272.5c-1.2-1.8-0.8-4.3,1-5.6c0.1-0.1,0.2-0.1,0.3-0.1C2.1,270.5,4,274.5,6.5,278.4L6.5,278.4z M11.1,289.2l-5-7.1l8.8-6
				l4.9,7.1c1.6,2.5,0.9,5.7-1.6,7.3C15.9,291.9,12.8,291.4,11.1,289.2L11.1,289.2z"/>
			<path class="st18" d="M46.9,179l-10.2,0.1v12.2l10.3-0.1c3.4,0,6.1-2.8,6.1-6.2S50.3,178.9,46.9,179L46.9,179z M37.8,181.8v-1.3
				l9.3-0.1c2.5,0,4.6,2.1,4.6,4.6c0,0.1,0,0.2,0,0.4C48.1,182.8,43.2,182,37.8,181.8z M24.6,179.2l10-0.1v12.2l-9.9,0.1
				c-3.4,0.2-6.2-2.4-6.4-5.8c-0.2-3.4,2.4-6.2,5.8-6.4C24.3,179.1,24.4,179.1,24.6,179.2L24.6,179.2z"/>
			<path class="st18" d="M357.4,63.2c0,0.6-0.5,1.1-1.1,1.1c-0.2,0-0.3,0-0.5-0.1c-0.4-0.2-0.8-0.6-1-1c-0.7-1.6,0.6-3,2-3.5
				c1.5-0.7,3.3-0.6,4.7,0.3c1.1,0.9,1.9,2.1,2.2,3.5c0.6,2.6-0.2,5.3-2.2,7c-2.2,1.9-5.3,2.6-8.1,1.9c-2.6-0.7-4.7-2.4-6-4.8
				c-1.5-3-1.5-6.6,0-9.6c1.2-2.7,3.4-4.8,6.2-6c2.3-0.9,4.8-1.1,7.2-0.6c5.8,1.4,10,6.3,10.5,12.2c-0.6-3.3-2.3-6.2-4.8-8.3
				c-2.6-2.3-6-3.4-9.4-3c-5.8,0.8-9.9,6-9.4,11.9c0.4,2.8,2.2,5.3,4.8,6.5c2.6,1.3,5.8,1,8.1-0.9c0.7-0.6,1.2-1.3,1.7-2l0,0
				c0.5-1,0.8-2.2,0.6-3.4c-0.1-0.8-0.3-1.6-0.7-2.3c-0.2-0.4-0.5-0.8-0.8-1.1c-1.1-0.9-2.5-1.3-3.9-0.9c-1.3,0.4-3,1.6-2.3,3.2
				c0,0.1,0.1,0.2,0.1,0.3c0.2,0.3,0.5,0.5,0.8,0.7c0.5,0.2,1.1-0.1,1.3-0.6C357.3,63.4,357.4,63.3,357.4,63.2
				C357.3,63.3,357.3,63.3,357.4,63.2z M343.8,67.5c0.5,1.4,1.2,2.7,2.2,3.9c1.9,2.5,4.7,4.2,7.9,4.8c5.1,0.9,10.2-1.4,12.8-5.8
				c1.3-2.2,1.7-4.8,1.2-7.3c-0.6-3.1-2.6-5.8-5.4-7.3c-2.9-1.5-6.3-1.3-9,0.5c-2.2,1.6-3.4,4.2-3.1,6.9c0.2,1.5,0.9,2.9,2,3.9
				c1,0.9,2.3,1.4,3.7,1.4c1.5-0.1,2.9-1.1,3.4-2.6c0.3-0.7,0.2-1.6-0.4-2.2c-0.5-0.4-1.1-0.6-1.7-0.6c0.6,0,1.1,0.3,1.6,0.7
				c0.4,0.6,0.5,1.3,0.2,1.9c-0.6,1.5-2.2,2.3-3.8,2.1c-1.1-0.2-2.1-0.8-2.8-1.7c-1.1-1.2-1.5-2.9-1.2-4.5c0.3-1.5,1.1-2.9,2.3-3.9
				l0,0c0.5-0.4,1.1-0.8,1.7-1c0.8-0.3,1.7-0.5,2.6-0.5c1.4,0,2.8,0.3,4,0.9c1.6,0.8,2.8,2.1,3.7,3.7c0.8,1.6,1.2,3.3,1.1,5.1
				c-0.1,1.3-0.6,2.6-1.2,3.7c-0.7,1.3-1.7,2.4-2.8,3.3c-1.2,1-2.7,1.7-4.2,2.1c-1.4,0.4-2.8,0.5-4.2,0.3c-1.2-0.2-2.4-0.5-3.6-1
				c-1.5-0.7-2.8-1.6-3.9-2.7c-1.1-1.2-2-2.5-2.7-3.9c-0.5-1.2-0.9-2.4-1.2-3.6C343.1,65.2,343.4,66.4,343.8,67.5z"/>
			<path class="st18" d="M378.4,150.3c0,0.5-0.4,0.9-0.9,0.9c-0.1,0-0.3,0-0.4-0.1c-0.3-0.2-0.6-0.4-0.8-0.8
				c-0.6-1.2,0.5-2.3,1.6-2.8c1.2-0.5,2.6-0.4,3.7,0.3c0.9,0.7,1.5,1.7,1.8,2.8c0.5,2-0.2,4.2-1.7,5.6c-1.8,1.5-4.2,2.1-6.4,1.5
				c-2.1-0.6-3.8-2-4.8-3.8c-1.2-2.4-1.2-5.2,0-7.6c1-2.1,2.8-3.8,4.9-4.7c1.8-0.7,3.8-0.9,5.7-0.5c4.6,1.1,7.9,5,8.4,9.6
				c-0.4-2.6-1.8-4.9-3.8-6.6c-2.1-1.8-4.8-2.6-7.5-2.3c-4.6,0.6-7.9,4.8-7.4,9.4c0.3,2.2,1.8,4.2,3.8,5.2c2.1,1,4.6,0.8,6.4-0.7
				c0.5-0.5,1-1,1.3-1.6l0,0c0.4-0.8,0.6-1.8,0.5-2.7c-0.1-0.6-0.3-1.3-0.6-1.8c-0.2-0.3-0.4-0.6-0.6-0.9c-0.8-0.8-2-1-3.1-0.7
				c-1,0.3-2.4,1.3-1.8,2.5c0,0.1,0.1,0.1,0.1,0.2c0.2,0.2,0.4,0.4,0.7,0.5c0.4,0.1,0.9-0.1,1-0.5
				C378.4,150.4,378.4,150.3,378.4,150.3C378.4,150.4,378.4,150.4,378.4,150.3z M367.6,153.7c0.4,1.1,1,2.2,1.7,3.1
				c1.5,2,3.8,3.4,6.2,3.9c4,0.7,8.1-1.1,10.2-4.6c1-1.7,1.4-3.8,1-5.8c-0.5-2.5-2-4.6-4.3-5.8c-2.3-1.2-5-1-7.1,0.4
				c-1.7,1.3-2.7,3.3-2.5,5.5c0.1,1.2,0.7,2.3,1.6,3.1c0.8,0.8,1.8,1.2,2.9,1.1c1.2-0.1,2.3-0.9,2.7-2c0.3-0.6,0.1-1.2-0.3-1.7
				c-0.4-0.3-0.8-0.5-1.3-0.5c0.5,0,0.9,0.2,1.2,0.6c0.3,0.4,0.4,1,0.1,1.5c-0.5,1.2-1.7,1.8-3,1.6c-0.9-0.2-1.7-0.7-2.3-1.4
				c-0.8-1-1.2-2.3-0.9-3.6c0.2-1.2,0.9-2.3,1.8-3.1l0,0c0.4-0.4,0.8-0.7,1.3-0.8c0.7-0.3,1.4-0.4,2.1-0.5c1.1,0,2.2,0.3,3.1,0.7
				c1.2,0.7,2.3,1.7,2.9,2.9c0.7,1.2,1,2.6,0.9,4c-0.1,1-0.4,2.1-0.9,3c-0.6,1-1.3,1.9-2.3,2.7c-1,0.8-2.1,1.4-3.3,1.7
				c-1.1,0.3-2.2,0.4-3.3,0.2c-1-0.1-1.9-0.4-2.8-0.8c-1.2-0.5-2.2-1.3-3.1-2.2c-0.9-0.9-1.6-2-2.1-3.1c-0.4-0.9-0.8-1.9-1-2.9
				C367.1,151.9,367.3,152.8,367.6,153.7z"/>
			<path class="st18" d="M160.8,330.8c0,0.5-0.4,0.9-0.9,0.9c-0.1,0-0.3,0-0.4-0.1c-0.3-0.2-0.6-0.4-0.8-0.8
				c-0.6-1.2,0.5-2.4,1.6-2.8c1.2-0.5,2.6-0.4,3.7,0.3c0.9,0.7,1.5,1.7,1.7,2.8c0.5,2-0.2,4.2-1.7,5.6c-1.8,1.5-4.2,2.1-6.4,1.5
				c-2.1-0.6-3.8-2-4.8-3.8c-1.2-2.4-1.2-5.2,0-7.6c1-2.1,2.7-3.8,4.9-4.7c1.8-0.7,3.8-0.9,5.7-0.5c4.6,1.1,7.9,5,8.4,9.6
				c-0.4-2.6-1.8-4.9-3.8-6.6c-2.1-1.8-4.8-2.6-7.5-2.3c-4.6,0.6-7.9,4.8-7.4,9.4c0.3,2.2,1.8,4.2,3.8,5.2c2.1,1,4.6,0.8,6.4-0.7
				c0.5-0.5,1-1,1.3-1.6l0,0c0.4-0.8,0.6-1.8,0.5-2.7c-0.1-0.7-0.3-1.3-0.6-1.9c-0.2-0.3-0.4-0.6-0.6-0.9c-0.8-0.8-2-1-3.1-0.7
				c-1.1,0.3-2.4,1.3-1.8,2.5c0,0.1,0.1,0.1,0.1,0.2c0.2,0.2,0.4,0.4,0.7,0.5c0.4,0.1,0.9-0.1,1-0.5
				C160.7,330.9,160.7,330.9,160.8,330.8C160.8,330.9,160.8,330.9,160.8,330.8z M150,334.2c0.4,1.1,1,2.2,1.7,3.1
				c1.5,2,3.8,3.3,6.2,3.8c4,0.7,8.1-1.1,10.2-4.6c1-1.8,1.3-3.8,0.9-5.8c-0.5-2.5-2-4.6-4.3-5.8c-2.3-1.2-5-1-7.1,0.4
				c-1.7,1.3-2.7,3.3-2.5,5.5c0.1,1.2,0.7,2.3,1.6,3.1c0.8,0.8,1.8,1.2,2.9,1.1c1.2-0.1,2.3-0.9,2.7-2c0.3-0.6,0.1-1.2-0.3-1.7
				c-0.4-0.3-0.8-0.5-1.3-0.5c0.5,0,0.9,0.2,1.2,0.5c0.3,0.4,0.4,1,0.1,1.5c-0.5,1.2-1.7,1.8-3,1.6c-0.9-0.2-1.6-0.7-2.2-1.4
				c-0.8-1-1.2-2.3-0.9-3.6c0.2-1.2,0.9-2.3,1.8-3.1l0,0c0.4-0.4,0.8-0.6,1.3-0.8c0.7-0.3,1.4-0.4,2.1-0.4c1.1,0,2.2,0.3,3.1,0.7
				c1.2,0.7,2.2,1.7,2.9,2.9c0.7,1.2,1,2.6,0.9,4c-0.1,1-0.4,2.1-0.9,3c-0.6,1-1.3,1.9-2.3,2.7c-1,0.8-2.1,1.3-3.3,1.6
				c-1.1,0.3-2.2,0.4-3.3,0.2c-1-0.1-1.9-0.4-2.8-0.8c-1.2-0.5-2.2-1.3-3.1-2.2c-0.9-0.9-1.6-2-2.1-3.1c-0.4-0.9-0.7-1.9-0.9-2.9
				C149.5,332.4,149.7,333.4,150,334.2z"/>
			<path class="st18" d="M344.8,327.9c0,0.5-0.4,0.9-0.9,0.9c-0.1,0-0.3,0-0.4-0.1c-0.3-0.2-0.6-0.4-0.8-0.8
				c-0.6-1.2,0.5-2.4,1.6-2.8c1.2-0.5,2.6-0.4,3.7,0.3c0.9,0.7,1.5,1.7,1.8,2.8c0.5,2-0.2,4.2-1.7,5.6c-1.8,1.5-4.2,2.1-6.4,1.5
				c-2-0.6-3.8-2-4.8-3.8c-1.2-2.4-1.2-5.2,0-7.6c1-2.1,2.7-3.8,4.9-4.7c1.8-0.7,3.8-0.9,5.7-0.5c4.6,1.1,7.9,5,8.4,9.6
				c-0.4-2.6-1.8-4.9-3.8-6.6c-2.1-1.8-4.8-2.6-7.5-2.3c-4.6,0.6-7.9,4.8-7.4,9.4c0.3,2.2,1.8,4.2,3.8,5.2c2.1,1,4.6,0.8,6.4-0.7
				c0.5-0.5,1-1,1.3-1.6l0,0c0.4-0.8,0.6-1.8,0.5-2.7c-0.1-0.6-0.3-1.3-0.6-1.9c-0.2-0.3-0.4-0.6-0.6-0.9c-0.8-0.8-2-1-3.1-0.7
				c-1,0.3-2.4,1.3-1.8,2.5c0,0.1,0.1,0.1,0.1,0.2c0.2,0.2,0.4,0.4,0.6,0.5c0.4,0.1,0.9-0.1,1-0.6
				C344.8,328,344.8,327.9,344.8,327.9C344.8,328,344.8,328,344.8,327.9z M334,331.3c0.4,1.1,1,2.2,1.7,3.1c1.6,2,3.8,3.3,6.2,3.8
				c4,0.7,8.1-1.1,10.2-4.7c1-1.7,1.4-3.8,1-5.8c-0.5-2.5-2-4.6-4.3-5.8c-2.3-1.2-5-1-7.1,0.4c-1.7,1.3-2.7,3.3-2.5,5.5
				c0.1,1.2,0.7,2.3,1.6,3.1c0.8,0.8,1.8,1.2,2.9,1.1c1.2-0.1,2.3-0.9,2.7-2c0.2-0.6,0.1-1.2-0.3-1.7c-0.4-0.3-0.8-0.5-1.3-0.5
				c0.5,0,0.9,0.2,1.2,0.5c0.3,0.4,0.4,1,0.2,1.5c-0.5,1.2-1.7,1.8-3,1.6c-0.9-0.2-1.7-0.7-2.2-1.4c-0.8-1-1.2-2.3-0.9-3.6
				c0.2-1.2,0.9-2.3,1.8-3.1l0,0c0.4-0.4,0.9-0.6,1.4-0.8c0.7-0.3,1.4-0.4,2.1-0.4c1.1,0,2.2,0.3,3.1,0.7c1.2,0.7,2.3,1.7,2.9,2.9
				c1.2,2.2,1.2,4.8,0,7c-0.6,1-1.3,1.9-2.3,2.7c-1,0.8-2.1,1.3-3.3,1.6c-1.1,0.3-2.2,0.4-3.3,0.2c-1-0.1-1.9-0.4-2.8-0.8
				c-1.2-0.5-2.2-1.3-3.1-2.2c-0.9-0.9-1.6-2-2.1-3.1c-0.4-0.9-0.8-1.9-1-2.9C333.5,329.4,333.7,330.4,334,331.3L334,331.3z"/>
			<path class="st18" d="M104.2,60.6c0,0.3-0.3,0.6-0.6,0.6c-0.1,0-0.2,0-0.3-0.1c-0.2-0.1-0.4-0.3-0.5-0.6c-0.4-0.9,0.4-1.7,1.1-2
				c0.9-0.4,1.9-0.3,2.6,0.2c0.6,0.5,1.1,1.2,1.3,2c0.4,1.5-0.1,3-1.2,4c-1.3,1.1-3,1.5-4.6,1.1c-1.5-0.4-2.7-1.4-3.4-2.7
				c-0.9-1.7-0.9-3.7,0-5.4c1.3-2.9,4.5-4.4,7.6-3.7c3.3,0.8,5.7,3.5,6,6.9c-0.3-1.8-1.3-3.5-2.7-4.7c-1.5-1.3-3.4-1.9-5.3-1.7
				c-3.3,0.5-5.6,3.4-5.3,6.7c0.2,1.6,1.3,3,2.7,3.7c1.5,0.7,3.3,0.5,4.6-0.5c0.4-0.3,0.7-0.7,0.9-1.1l0,0c0.3-0.6,0.4-1.3,0.3-1.9
				c-0.1-0.5-0.2-0.9-0.4-1.3c-0.1-0.2-0.3-0.4-0.5-0.6c-0.6-0.5-1.4-0.7-2.2-0.5c-0.8,0.2-1.7,0.9-1.3,1.8c0,0,0,0.1,0.1,0.1
				c0.1,0.2,0.3,0.3,0.5,0.4c0.3,0.1,0.6-0.1,0.7-0.4C104.2,60.7,104.2,60.7,104.2,60.6C104.2,60.7,104.2,60.7,104.2,60.6z M96.5,63
				c0.3,0.8,0.7,1.5,1.2,2.2c1.1,1.4,2.7,2.4,4.4,2.7c2.9,0.5,5.7-0.8,7.2-3.3c0.7-1.2,1-2.7,0.7-4.1c-0.3-1.8-1.5-3.3-3.1-4.1
				c-1.6-0.8-3.6-0.7-5.1,0.3c-1.2,0.9-1.9,2.3-1.8,3.8c0.1,0.9,0.5,1.6,1.1,2.2c0.6,0.5,1.3,0.8,2.1,0.8c0.9-0.1,1.6-0.6,1.9-1.4
				c0.2-0.4,0.1-0.9-0.2-1.2c-0.3-0.2-0.6-0.4-1-0.3c0.3,0,0.6,0.2,0.9,0.4c0.3,0.3,0.3,0.7,0.1,1.1c-0.4,0.8-1.3,1.3-2.2,1.2
				c-1.6-0.4-2.6-1.9-2.3-3.5c0.2-0.8,0.7-1.6,1.3-2.1l0,0c0.3-0.3,0.6-0.5,0.9-0.6c0.5-0.2,1-0.3,1.5-0.3c0.8,0,1.5,0.2,2.3,0.5
				c0.9,0.5,1.6,1.2,2.1,2.1c0.5,0.9,0.7,1.9,0.6,2.9c-0.1,0.7-0.3,1.5-0.6,2.1c-0.4,0.7-0.9,1.4-1.6,1.9c-0.7,0.6-1.5,1-2.4,1.2
				c-0.8,0.2-1.6,0.3-2.3,0.2c-0.7-0.1-1.4-0.3-2-0.6c-0.8-0.4-1.6-0.9-2.2-1.6c-0.6-0.6-1.1-1.4-1.5-2.2c-0.3-0.6-0.5-1.3-0.7-2
				C96.2,61.8,96.3,62.4,96.5,63z"/>
			<path class="st18" d="M361.1,222.2c0,0.6-0.4,1-1,1c-0.2,0-0.4,0-0.6-0.1c-0.4-0.2-0.7-0.5-0.9-0.9c-0.7-1.4,0.6-2.8,1.9-3.3
				c1.4-0.7,3.1-0.5,4.4,0.3c1.1,0.8,1.8,2,2.1,3.3c0.6,2.4-0.2,4.9-2.1,6.6c-2.1,1.8-4.9,2.5-7.6,1.8c-2.4-0.7-4.5-2.3-5.7-4.5
				c-1.4-2.8-1.4-6.2,0-9c1.2-2.5,3.2-4.5,5.8-5.6c2.1-0.9,4.5-1.1,6.7-0.6c5.4,1.3,9.4,5.9,9.9,11.4c-0.5-3.1-2.1-5.8-4.5-7.8
				c-2.4-2.1-5.6-3.1-8.8-2.8c-5.4,0.7-9.3,5.6-8.8,11.1c0.4,2.6,2.1,4.9,4.5,6.1c2.5,1.2,5.4,0.9,7.6-0.9c0.6-0.5,1.2-1.2,1.6-1.9
				l0,0c0.5-1,0.7-2.1,0.6-3.2c-0.1-0.8-0.3-1.5-0.7-2.2c-0.2-0.4-0.4-0.7-0.8-1c-1-0.9-2.4-1.2-3.7-0.8c-1.3,0.3-2.8,1.5-2.1,2.9
				l0.1,0.2c0.2,0.3,0.5,0.5,0.8,0.6c0.5,0.1,1.1-0.2,1.2-0.7C361.1,222.3,361.1,222.2,361.1,222.2
				C361.1,222.3,361.1,222.3,361.1,222.2z M348.4,226.2c0.5,1.3,1.2,2.6,2,3.7c1.8,2.3,4.4,3.9,7.4,4.5c4.8,0.9,9.5-1.3,12-5.5
				c1.2-2.1,1.6-4.5,1.1-6.8c-0.5-2.9-2.4-5.5-5.1-6.8c-2.7-1.4-5.9-1.2-8.4,0.5c-2,1.5-3.1,3.9-2.9,6.4c0.2,1.4,0.8,2.7,1.9,3.6
				c0.9,0.9,2.2,1.4,3.4,1.3c1.4-0.1,2.7-1,3.2-2.4c0.3-0.7,0.1-1.5-0.3-2c-0.4-0.4-1-0.6-1.6-0.6c0.5,0,1.1,0.3,1.5,0.6
				c0.4,0.5,0.5,1.2,0.2,1.8c-0.6,1.4-2.1,2.2-3.6,1.9c-1-0.2-1.9-0.8-2.6-1.6c-1-1.2-1.4-2.7-1.1-4.2c0.3-1.4,1-2.7,2.1-3.7l0,0
				c0.5-0.4,1-0.8,1.6-1c0.8-0.3,1.7-0.5,2.5-0.5c1.3,0,2.6,0.3,3.7,0.9c1.5,0.8,2.7,2,3.4,3.4c0.8,1.5,1.1,3.1,1,4.8
				c-0.1,1.2-0.4,2.4-1,3.5c-0.7,1.2-1.6,2.3-2.7,3.1c-1.2,0.9-2.5,1.6-3.9,1.9c-1.3,0.4-2.6,0.5-3.9,0.3c-1.2-0.2-2.3-0.5-3.4-0.9
				c-1.4-0.6-2.6-1.5-3.7-2.6c-1-1.1-1.9-2.3-2.5-3.7c-0.5-1.1-0.9-2.2-1.1-3.4C347.8,224,348,225.1,348.4,226.2L348.4,226.2z"/>
			<path class="st18" d="M346.1,48.6c-0.8-7.5-7.8-10.1-14.8-10.2c-11.1,0-13.4,7.2-13.6,9.8c-0.1,0.8-0.5,4-0.5,4
				c-0.1,0.5-0.5,2.5,0.3,2.9c0.3,0.2,0.5,0.5,0.5,0.9l-1.9,5.8c-0.1,0.7,0.3,1.4,1.1,1.6c0.1,0,0.2,0,0.3,0l1.7,0.1
				c-0.3,0,0.4,8.1,0.6,9c0.2,1,1.2,1.7,2.3,1.6l5.7-0.5l-0.5,5h16.3l-1-12.7C345.7,59.1,346.7,54.6,346.1,48.6z M335.2,65.7h-6.5
				l1-11.7c-1.7-1.3-2.1-3.6-0.8-5.4c1.3-1.7,3.6-2.1,5.4-0.8c1.7,1.3,2.1,3.6,0.8,5.4c-0.2,0.3-0.5,0.6-0.8,0.8L335.2,65.7z"/>
			<path class="st18" d="M47.3,51.9c-0.1-0.5-0.2-0.9-0.3-1.4c-0.1-0.4-0.2-0.8-0.3-1.1c-0.2-0.7-0.4-1.3-0.6-1.8
				c-0.3-1-0.6-1.6-0.6-1.6s-0.1,0.6-0.1,1.7c0,0.5,0,1.2,0,1.9c0,0.4,0,0.8,0,1.2s0,0.8-0.1,1.2c-0.1,0.9-0.3,1.7-0.5,2.5
				c-0.3,0.8-0.7,1.6-1.3,2.3c-0.3,0.3-0.6,0.6-0.9,0.8c-0.2,0.1-0.3,0.2-0.5,0.2l-0.3,0.1c-0.1,0-0.1,0-0.2,0C41.7,58,41,58,41,58
				h-1.3l-0.3-14.1h-2.2L37,58h-1.3c-0.2,0-0.4,0-0.5,0l-0.3-0.1l-0.3-0.1c-0.2-0.1-0.3-0.1-0.5-0.2c-0.3-0.2-0.7-0.5-0.9-0.8
				c-0.6-0.7-1-1.4-1.3-2.3c-0.3-0.8-0.5-1.7-0.5-2.5c0-0.2,0-0.4,0-0.6v-0.6c0-0.3,0-0.8,0-1.1c0-0.7,0-1.4,0-1.9
				c0-1-0.1-1.7-0.1-1.7s-0.2,0.6-0.6,1.6c-0.2,0.5-0.4,1.1-0.6,1.8c-0.1,0.4-0.2,0.7-0.4,1.2c-0.1,0.4-0.2,0.9-0.3,1.3
				c-0.2,1.1-0.2,2.1,0,3.2c0.2,1.3,0.7,2.5,1.4,3.5c0.4,0.6,0.9,1.1,1.5,1.5c0.6,0.5,1.4,0.8,2.2,1c0.4,0.1,0.8,0.1,1.2,0.2h1.2
				l-0.2,11.8h3.4l-0.2-11.8h1.4h0.1h0.2h0.2l0.3-0.1c1.5-0.3,2.9-1.2,3.8-2.6c0.7-1.1,1.2-2.3,1.4-3.5C47.5,54.2,47.5,53,47.3,51.9
				z"/>
			<path class="st18" d="M63.3,294.4c-0.1-0.4-0.1-0.8-0.2-1.1c-0.1-0.3-0.2-0.6-0.3-0.9c-0.2-0.6-0.4-1.1-0.5-1.5
				c-0.3-0.8-0.5-1.3-0.5-1.3s0,0.5-0.1,1.4c0,0.4,0,1,0,1.5c0,0.3,0,0.6,0,1s0,0.6,0,1c-0.1,0.7-0.2,1.4-0.4,2.1
				c-0.2,0.7-0.6,1.3-1.1,1.9c-0.2,0.2-0.5,0.5-0.8,0.6c-0.1,0.1-0.3,0.1-0.4,0.2l-0.2,0.1h-0.2c0,0-0.5,0-0.5,0h-1l-0.2-11.5h-1.8
				l-0.2,11.5h-0.3h-0.7c-0.1,0-0.3,0-0.5,0h-0.2l-0.2-0.1c-0.1-0.1-0.3-0.1-0.4-0.2c-0.3-0.2-0.5-0.4-0.8-0.6
				c-0.5-0.5-0.9-1.2-1.2-1.9c-0.2-0.6-0.4-1.3-0.4-2c0-0.2,0-0.3,0-0.5v-0.5c0-0.3,0-0.6,0-0.9c0-0.6,0-1.1,0-1.5
				c0-0.9,0-1.4,0-1.4s-0.2,0.5-0.5,1.3c-0.1,0.4-0.3,0.9-0.5,1.5c-0.1,0.3-0.2,0.6-0.3,0.9c-0.1,0.4-0.2,0.7-0.2,1.1
				c-0.1,0.9-0.1,1.8,0,2.6c0.2,1,0.6,2,1.1,2.9c0.3,0.5,0.8,0.9,1.2,1.3c0.5,0.4,1.1,0.7,1.8,0.8c0.3,0.1,0.7,0.1,1,0.1h1l-0.2,9.7
				h2.8l-0.2-9.7h0.3h0.7h0.3h0.2h0.2l0.3-0.1c1.3-0.3,2.4-1,3.1-2.1c0.6-0.9,1-1.8,1.1-2.9C63.4,296.3,63.4,295.3,63.3,294.4z"/>
			<path class="st18" d="M346.3,90.4c-0.1-0.4-0.1-0.7-0.2-1.1c-0.1-0.3-0.2-0.6-0.3-0.9c-0.2-0.6-0.4-1.1-0.5-1.5
				c-0.3-0.8-0.5-1.3-0.5-1.3s0,0.5,0,1.4c0,0.4,0,1,0,1.6c0,0.3,0,0.6,0,0.9s0,0.6,0,1c-0.1,0.7-0.2,1.4-0.4,2.1
				c-0.2,0.7-0.6,1.3-1.1,1.9c-0.2,0.3-0.5,0.5-0.8,0.6c-0.1,0.1-0.3,0.1-0.4,0.2l-0.2,0.1h-0.1c0,0-0.5,0-0.5,0h-1l-0.2-11.5h-1.8
				l-0.2,11.5h-1c-0.1,0-0.3,0-0.5,0h-0.2l-0.2-0.1c-0.1,0-0.3-0.1-0.4-0.2c-0.3-0.2-0.5-0.4-0.8-0.7c-0.5-0.5-0.8-1.2-1.1-1.9
				c-0.2-0.6-0.4-1.3-0.4-2c0-0.2,0-0.3,0-0.5s0-0.3,0-0.5s0-0.6,0-0.9c0-0.6,0-1.1,0-1.6c0-0.9-0.1-1.4-0.1-1.4s-0.2,0.5-0.5,1.3
				c-0.1,0.4-0.3,0.9-0.5,1.5c-0.1,0.3-0.2,0.6-0.3,0.9c-0.1,0.4-0.2,0.7-0.2,1.1c-0.1,0.9-0.1,1.8,0,2.6c0.2,1,0.6,2,1.1,2.9
				c0.3,0.5,0.8,0.9,1.2,1.3c0.5,0.4,1.1,0.7,1.8,0.8c0.3,0.1,0.7,0.1,1,0.1h1l-0.2,9.7h2.8l-0.2-9.7h1.3h0.2h0.2h0.3
				c1.3-0.3,2.4-1,3.1-2.1c0.6-0.9,1-1.8,1.1-2.9C346.5,92.2,346.5,91.3,346.3,90.4z"/>
			<path class="st18" d="M47.6,68.6c1.4,0.7,1.9,2.4,1.2,3.8c-0.7,1.4-2.4,1.9-3.8,1.2c-1.4-0.7-1.9-2.4-1.2-3.8
				C44.5,68.4,46.2,67.9,47.6,68.6C47.6,68.6,47.6,68.6,47.6,68.6z M37.2,71.1c0.9-8.9,9.2-12,17.6-12.1c13.2,0,15.9,8.6,16.2,11.6
				c0.1,0.9,0.6,4.8,0.6,4.8c0.1,0.5,0.6,2.9-0.3,3.5c-0.4,0.2-0.6,0.6-0.6,1l2.2,6.9c0.2,0.9-0.4,1.7-1.3,1.9c-0.1,0-0.2,0-0.3,0
				l-2,0.2c0.3,0-0.5,9.6-0.8,10.7c-0.3,1.2-1.5,2.1-2.7,1.9l-6.8-0.6l0.6,5.9H40.4l1.2-15.1C37.7,83.5,36.5,78.2,37.2,71.1z
				 M52.4,76l2.3,0.1l1.1,1.3l-0.3,2.2l1.9,1l1.7-1.5l1.7,0.2L62,81l2.1-0.7l0.1-2.3l1.3-1.1l2.2,0.3l1-1.9l-1.5-1.7l0.2-1.7
				l1.8-1.3l-0.7-2.1l-2.3-0.1l-1.1-1.3l0.3-2.2l-1.9-1l-1.7,1.5l-1.7-0.2l-1.4-1.8l-2.1,0.6l-0.1,2.3l-1.3,1.1l-2.2-0.3l-1,1.9
				l1.5,1.7l-0.2,1.7l-1.8,1.4L52.4,76z M42.6,75l1.3-0.5l0.9,0.5l0.3,1.3l1.3,0.1l0.6-1.3l1-0.3l1.2,0.7l1-0.8l-0.5-1.3l0.5-0.9
				l1.3-0.3l0.1-1.3l-1.3-0.6l-0.3-1l0.7-1.2l-0.8-1l-1.3,0.5l-0.9-0.5l-0.3-1.3l-1.3-0.1l-0.6,1.2l-1,0.3l-1.2-0.7l-1,0.8l0.5,1.3
				l-0.5,0.9L41,70l-0.1,1.3l1.2,0.6l0.3,1l-0.7,1.2L42.6,75z M56.1,70c-1.3,2.4-0.3,5.4,2.1,6.7c2.4,1.3,5.4,0.3,6.7-2.1
				c1.3-2.4,0.3-5.4-2.1-6.7c0,0,0,0,0,0C60.3,66.7,57.3,67.6,56.1,70C56.1,70,56.1,70.1,56.1,70L56.1,70z"/>
		</g>
	</g>
</g>
</svg>
