<svg xmlns="http://www.w3.org/2000/svg" viewBox="0 0 400.76 353.79"><defs><style>.cls-1{isolation:isolate;}.cls-2,.cls-22,.cls-25,.cls-28,.cls-42,.cls-8{fill:#fff;}.cls-3{fill:#ffcf9f;}.cls-4{fill:#1d1d1b;}.cls-28,.cls-4{opacity:0.1;}.cls-5{fill:#f6f6f6;}.cls-6{fill:#362a2b;}.cls-7{fill:#e09d64;}.cls-18,.cls-42,.cls-8{opacity:0.3;}.cls-9{fill:#775335;}.cls-10{fill:#5d2315;}.cls-11{fill:#eeb481;}.cls-12{fill:#040b20;}.cls-13{fill:#6b6271;}.cls-14{fill:#75c6d1;}.cls-15{fill:#f75f73;}.cls-16{fill:#f4cda6;}.cls-17{fill:#dadada;}.cls-19,.cls-20,.cls-26{fill:#3c3c3b;}.cls-20,.cls-39{opacity:0.2;}.cls-21{fill:#f3384b;}.cls-22{opacity:0.35;}.cls-23{fill:#ee1d2c;}.cls-24{fill:#fb7058;}.cls-25{opacity:0.75;}.cls-26{opacity:0.25;}.cls-27{fill:#ededed;}.cls-29{fill:#dedede;}.cls-30{fill:#2f2e29;}.cls-31{fill:#71433d;}.cls-32{fill:#faf0f0;}.cls-33{fill:#4a4150;}.cls-34{fill:#f2c799;}.cls-35{fill:#ffd2a1;}.cls-36{fill:#e6dcdc;}.cls-37{fill:#21201d;}.cls-38{opacity:0.07;}.cls-40{fill:#c49f7b;}.cls-41{fill:#e3b88e;}.cls-42,.cls-43{mix-blend-mode:overlay;}.cls-43{opacity:0.4;}</style></defs><title>treatment</title><g class="cls-1"><g id="Layer_2" data-name="Layer 2"><g id="Layer_1-2" data-name="Layer 1"><path class="cls-2" d="M53.46,119.56l-.14-.48,1.45-.4.12.49C54.41,119.29,53.93,119.42,53.46,119.56Z"/><path class="cls-2" d="M33.56,239.86c-.64-.79-1.27-1.6-1.87-2.39l.4-.3c.6.79,1.22,1.59,1.86,2.38Zm-3.08-4c-.59-.82-1.17-1.65-1.73-2.49l.41-.28c.56.83,1.14,1.67,1.73,2.48Zm-2.85-4.19c-.54-.85-1.08-1.72-1.59-2.59l.43-.25c.51.86,1,1.72,1.59,2.57ZM25,227.31c-.49-.88-1-1.79-1.44-2.68l.44-.23c.46.89.94,1.79,1.44,2.66Zm-2.35-4.49c-.44-.9-.88-1.83-1.29-2.75l.46-.2c.41.91.84,1.83,1.28,2.73Zm-2.09-4.6c-.39-.93-.77-1.88-1.13-2.82l.47-.18c.35.94.73,1.88,1.12,2.8Zm-1.82-4.72c-.34-.95-.67-1.92-1-2.88l.48-.15c.3.95.62,1.92,1,2.86Zm-1.56-4.82c-.28-1-.55-2-.79-2.92l.48-.13c.25,1,.51,2,.79,2.91Zm-1.27-4.89c-.23-1-.44-2-.63-3l.49-.1c.19,1,.4,2,.63,3Zm-1-5c-.17-1-.32-2-.46-3l.5-.07c.13,1,.29,2,.46,3Zm-.71-5c-.12-1-.21-2-.29-3l.49,0c.08,1,.18,2,.3,3Zm-.43-5c-.06-1-.1-2-.12-3l.5,0c0,1,.06,2,.12,3Zm.36-5.06h-.5c0-1,0-2,.05-3l.5,0C14.17,181.7,14.16,182.72,14.16,183.72Zm.14-5-.5,0c.06-1,.14-2,.23-3l.5,0C14.43,176.67,14.36,177.69,14.3,178.69Zm.44-5-.5-.06c.12-1,.25-2,.4-3l.5.08C15,171.66,14.85,172.67,14.74,173.67Zm.72-5L15,168.6c.18-1,.37-2,.59-3l.48.1C15.83,166.7,15.64,167.7,15.46,168.69Zm1-4.93-.48-.12c.23-1,.49-2,.76-2.94l.48.13C17,161.8,16.72,162.78,16.49,163.76Zm1.33-4.86-.48-.15c.3-1,.62-1.94.95-2.88l.47.16C18.43,157,18.12,157.94,17.82,158.9Zm1.64-4.76L19,154c.36-.94.74-1.89,1.14-2.82l.46.2C20.19,152.26,19.81,153.2,19.46,154.14Zm1.95-4.64-.46-.21c.43-.92.88-1.84,1.34-2.73l.44.23C22.28,147.67,21.83,148.58,21.41,149.5ZM23.68,145l-.44-.24c.49-.89,1-1.77,1.53-2.63l.43.26C24.67,143.25,24.16,144.13,23.68,145Zm2.6-4.31-.42-.27c.56-.85,1.14-1.69,1.73-2.5l.41.29C27.41,139,26.83,139.86,26.28,140.7Zm2.93-4.08-.39-.31c.63-.81,1.28-1.59,1.93-2.35l.38.33C30.48,135,29.83,135.82,29.21,136.62Zm3.27-3.82-.37-.34c.7-.74,1.42-1.47,2.15-2.17l.34.36C33.88,131.34,33.16,132.07,32.48,132.8Zm3.6-3.5-.33-.38c.76-.67,1.55-1.32,2.34-1.94l.31.39C37.61,128,36.83,128.63,36.08,129.3ZM40,126.17l-.29-.41c.83-.59,1.68-1.16,2.53-1.69l.27.42C41.66,125,40.82,125.58,40,126.17Zm4.23-2.7L44,123c.89-.49,1.8-1,2.7-1.4l.22.45C46,122.51,45.1,123,44.23,123.47Zm4.5-2.22-.19-.46c.93-.39,1.89-.76,2.84-1.09l.17.47C50.6,120.5,49.65,120.86,48.73,121.25Z"/><path class="cls-2" d="M35.91,242.63c-.34-.38-.66-.76-1-1.14l.38-.32c.32.38.65.76,1,1.13Z"/><path class="cls-2" d="M59.3,65.57c0-.51-.07-1-.09-1.51l.5,0c0,.5,0,1,.09,1.49Z"/><path class="cls-2" d="M59.69,62.06h-.5c0-1,.07-2,.17-3l.5.05C59.76,60.07,59.71,61.07,59.69,62.06Zm.41-4.94L59.61,57c.15-1,.34-2,.57-3l.49.12C60.44,55.16,60.25,56.14,60.1,57.12Zm1.08-4.85-.48-.14c.28-1,.61-1.92,1-2.86l.47.18C61.78,50.38,61.46,51.33,61.18,52.27Zm1.72-4.65-.46-.2c.41-.91.86-1.82,1.34-2.71l.44.24Q63.5,46.27,62.9,47.62Zm2.31-4.39L64.78,43c.52-.85,1.07-1.7,1.66-2.52l.41.29C66.27,41.55,65.72,42.39,65.21,43.23ZM68,39.15l-.39-.31c.61-.78,1.26-1.56,1.93-2.31l.38.33C69.28,37.61,68.64,38.38,68,39.15ZM71.3,35.4l-.36-.34c.7-.72,1.42-1.43,2.17-2.1l.33.37C72.71,34,72,34.7,71.3,35.4ZM74.94,32l-.32-.38c.76-.64,1.55-1.27,2.35-1.88l.3.4C76.48,30.75,75.69,31.38,74.94,32Zm80.77-.4c-.74-.67-1.5-1.32-2.27-1.94l.31-.39c.78.63,1.55,1.29,2.29,2ZM78.89,29l-.29-.41c.81-.57,1.66-1.13,2.51-1.66l.27.42C80.53,27.86,79.69,28.41,78.89,29Zm73-.53c-.79-.58-1.61-1.16-2.44-1.71l.27-.42c.84.56,1.67,1.14,2.47,1.73ZM83.08,26.3l-.25-.43c.86-.5,1.75-1,2.64-1.45l.23.45C84.82,25.33,83.94,25.81,83.08,26.3Zm64.66-.62c-.85-.52-1.72-1-2.6-1.48l.24-.44c.89.47,1.77,1,2.62,1.49ZM87.49,24l-.22-.45c.9-.43,1.82-.85,2.75-1.24l.19.46C89.29,23.14,88.38,23.55,87.49,24Zm55.88-.69c-.89-.43-1.8-.85-2.71-1.24l.19-.46c.92.39,1.85.81,2.74,1.25ZM92.06,22l-.18-.46c.93-.36,1.88-.71,2.83-1l.16.48C93.93,21.3,93,21.65,92.06,22Zm46.75-.69c-.92-.35-1.87-.69-2.82-1l.16-.48c.95.31,1.91.65,2.84,1Zm-42-.93-.14-.48c1-.29,1.93-.57,2.89-.82l.13.49C98.68,19.81,97.71,20.09,96.76,20.38Zm37.33-.64c-1-.27-1.93-.53-2.89-.75l.11-.49c1,.23,1.95.48,2.92.76Zm-32.52-.64-.11-.49c1-.22,2-.42,3-.6l.09.49C103.52,18.68,102.54,18.88,101.57,19.1Zm27.68-.53c-1-.19-2-.36-3-.51l.08-.49c1,.15,2,.32,3,.51Zm-22.79-.4-.08-.5c1-.15,2-.28,3-.39l.06.5C108.43,17.89,107.43,18,106.46,18.17Zm17.87-.37c-1-.11-2-.2-3-.27l0-.5c1,.07,2,.16,3,.28Zm-12.93-.21,0-.5c1-.08,2-.14,3-.17v.5C113.39,17.45,112.39,17.51,111.4,17.59Zm8-.17c-.83,0-1.69-.05-2.54-.05h-.44v-.5h.45c.86,0,1.72,0,2.56.05Z"/><path class="cls-2" d="M158.28,34.09c-.35-.36-.7-.72-1.06-1.06l.35-.36c.36.35.72.71,1.07,1.07Z"/><path class="cls-2" d="M225.1,35.42l-.36-.35c.35-.36.71-.72,1.07-1.07l.34.36Z"/><path class="cls-2" d="M318.64,54.07c-.3-1-.63-1.93-1-2.87l.47-.18c.36.95.7,1.93,1,2.9Zm-1.76-4.75c-.4-.93-.84-1.85-1.31-2.74l.45-.23c.46.9.91,1.83,1.32,2.77Zm-2.28-4.5c-.51-.87-1.05-1.74-1.62-2.58l.42-.28c.57.85,1.12,1.72,1.63,2.6Zm-2.79-4.23c-.59-.8-1.23-1.6-1.88-2.38l.38-.32c.66.78,1.3,1.59,1.91,2.4Zm-3.23-3.9c-.68-.73-1.39-1.46-2.13-2.16l.35-.37c.74.72,1.47,1.45,2.15,2.2ZM305,33.15c-.75-.66-1.54-1.32-2.34-1.94l.31-.4c.8.64,1.6,1.3,2.36,2ZM227.63,33l-.33-.37c.75-.68,1.53-1.35,2.33-2L230,31C229.15,31.63,228.38,32.3,227.63,33ZM301,30c-.82-.59-1.67-1.17-2.52-1.72l.27-.42c.86.55,1.72,1.13,2.54,1.73Zm-69.45-.24-.3-.4c.81-.6,1.66-1.2,2.52-1.76L234,28C233.19,28.57,232.35,29.15,231.55,29.75Zm65.2-2.55c-.87-.51-1.77-1-2.66-1.47l.23-.45c.9.47,1.81,1,2.68,1.49Zm-61-.28-.26-.43c.87-.53,1.77-1,2.67-1.52l.23.44C237.51,25.89,236.62,26.39,235.76,26.92Zm56.51-2.1c-.91-.44-1.84-.85-2.78-1.25l.19-.46c.95.4,1.89.82,2.81,1.26Zm-52.06-.32-.22-.45c.92-.45,1.86-.87,2.8-1.27l.19.46C242.05,23.64,241.11,24.06,240.21,24.5Zm47.39-1.68c-1-.35-1.91-.69-2.88-1l.16-.48c1,.32,1.94.66,2.9,1Zm-42.73-.32-.18-.47c.95-.35,1.93-.69,2.91-1l.15.48C246.78,21.81,245.81,22.15,244.87,22.5Zm37.91-1.27c-1-.28-2-.54-2.95-.77l.11-.48c1,.23,2,.49,3,.77Zm-33.09-.3-.13-.48c1-.27,2-.52,3-.74l.11.49C251.66,20.42,250.66,20.67,249.69,20.93Zm28.16-.9c-1-.2-2-.37-3-.52l.08-.5c1,.15,2,.33,3,.53Zm-23.21-.23-.09-.49c1-.18,2-.34,3-.48l.06.5C256.64,19.46,255.63,19.62,254.64,19.8Zm18.19-.56c-1-.12-2-.21-3-.28l0-.5c1,.07,2,.16,3.06.28Zm-13.17-.14-.05-.5c1-.1,2.05-.17,3.06-.22l0,.5C261.69,18.93,260.67,19,259.66,19.1Zm8.11-.25-2.29,0h-.75v-.5h.84c.75,0,1.49,0,2.23,0Z"/><path class="cls-2" d="M319.52,57.46c-.11-.49-.22-1-.34-1.45l.48-.13c.13.49.24,1,.35,1.47Z"/><path class="cls-2" d="M330.77,83.26c-.48-.12-1-.22-1.46-.31l.1-.49c.49.09,1,.2,1.47.31Z"/><path class="cls-2" d="M365.38,163.5l-.43-.25c.49-.84,1-1.72,1.4-2.61l.45.22C366.36,161.76,365.88,162.65,365.38,163.5Zm2.26-4.45-.46-.2c.39-.9.75-1.82,1.07-2.76l.48.17C368.4,157.2,368,158.14,367.64,159.05Zm1.7-4.69-.48-.14c.28-.93.54-1.89.76-2.87l.49.12C369.88,152.45,369.62,153.42,369.34,154.36Zm1.17-4.85-.49-.09c.18-1,.33-1.95.45-2.93l.5.07C370.85,147.55,370.69,148.54,370.51,149.51Zm.66-4.94-.49,0c.08-1,.13-2,.16-3h.5C371.31,142.59,371.26,143.6,371.17,144.57Zm-.31-5c0-1,0-2-.1-3l.5,0c.06,1,.09,2,.1,3Zm-.26-4.94c-.09-1-.21-2-.35-3l.5-.07c.14,1,.26,2,.35,3Zm-.66-4.9c-.17-1-.37-1.94-.59-2.91l.49-.11c.22,1,.42,2,.59,2.93Zm-1.06-4.84c-.24-.94-.51-1.9-.8-2.86l.48-.14c.29,1,.56,1.93.81,2.88Zm-1.41-4.74c-.32-.93-.66-1.87-1-2.79l.46-.18c.37.93.71,1.87,1,2.81Zm-1.77-4.62c-.38-.9-.79-1.81-1.22-2.7l.45-.22c.43.91.85,1.82,1.23,2.73Zm-2.1-4.47c-.45-.88-.93-1.76-1.42-2.61l.44-.24c.49.85,1,1.73,1.43,2.62Zm-2.43-4.3c-.51-.84-1.05-1.67-1.61-2.49L360,104c.56.82,1.11,1.66,1.63,2.5Zm-2.75-4.1c-.58-.8-1.19-1.59-1.8-2.35L357,100c.61.77,1.22,1.57,1.81,2.37Zm-3.07-3.86c-.65-.75-1.32-1.49-2-2.19l.36-.35c.68.71,1.36,1.45,2,2.21ZM352,95.23c-.7-.68-1.44-1.35-2.18-2l.33-.38c.75.65,1.49,1.33,2.2,2ZM348.28,92c-.77-.62-1.56-1.22-2.36-1.79l.29-.4c.8.57,1.61,1.17,2.38,1.8Zm-4-2.89c-.83-.54-1.68-1-2.54-1.53l.25-.44c.86.49,1.72,1,2.56,1.55ZM340,86.62c-.89-.44-1.79-.86-2.69-1.23l.19-.47c.91.39,1.82.81,2.72,1.26Zm-4.53-2c-.92-.33-1.87-.64-2.81-.91l.14-.48c.95.27,1.91.58,2.84.93Z"/><path class="cls-2" d="M363.45,166.47l-.4-.29q.43-.62.84-1.23l.42.27C364,165.64,363.75,166.06,363.45,166.47Z"/><path class="cls-2" d="M387.44,196.64c-.32-.39-.64-.76-1-1.12l.37-.34c.34.37.67.75,1,1.13Z"/><path class="cls-2" d="M363.47,288.38l-.11-.49c1-.22,2-.48,2.95-.76l.13.48C365.47,287.89,364.47,288.15,363.47,288.38ZM368.4,287l-.16-.48c1-.31,1.93-.67,2.86-1l.18.47C370.35,286.33,369.38,286.69,368.4,287Zm4.77-1.85-.21-.46c.92-.41,1.84-.86,2.73-1.33l.23.44C375,284.29,374.1,284.74,373.17,285.16Zm4.54-2.35-.26-.43c.88-.52,1.74-1.07,2.56-1.64l.29.41C379.46,281.73,378.59,282.28,377.71,282.81ZM382,280l-.3-.4c.79-.6,1.58-1.25,2.34-1.92l.34.37C383.56,278.68,382.76,279.34,382,280Zm3.88-3.34-.35-.36q1.09-1.06,2.1-2.19l.37.33C387.28,275.15,386.56,275.89,385.83,276.61Zm3.45-3.78-.39-.32c.63-.77,1.24-1.58,1.83-2.42l.41.29C390.53,271.22,389.91,272.05,389.28,272.83Zm3-4.15-.43-.27c.55-.85,1.07-1.73,1.56-2.61l.43.24C393.34,266.93,392.81,267.82,392.27,268.68Zm2.51-4.45-.44-.23c.44-.9.87-1.83,1.27-2.76l.46.2C395.67,262.37,395.24,263.31,394.78,264.23Zm2.05-4.7-.47-.17c.35-.93.69-1.9,1-2.88l.48.15C397.52,257.62,397.18,258.6,396.83,259.53Zm1.59-4.86-.48-.14c.27-1,.52-2,.74-2.95l.49.11C398.94,252.69,398.69,253.69,398.42,254.67Zm1.16-5-.49-.1c.19-1,.35-2,.5-3l.49.07C399.94,247.68,399.77,248.69,399.58,249.69Zm.76-5.06-.5-.06c.11-1,.2-2,.27-3l.49,0C400.54,242.59,400.45,243.62,400.34,244.63Zm.37-5.1-.5,0c0-.86.05-1.75.05-2.63v-.42h.5v.42C400.76,237.77,400.74,238.66,400.71,239.53Zm-.5-5.1c0-1-.08-2-.16-3l.5,0c.07,1,.13,2.05.16,3.07Zm-.34-5.06c-.1-1-.22-2-.37-3l.5-.07c.14,1,.27,2,.37,3Zm-.68-5c-.17-1-.36-2-.57-3l.49-.1c.21,1,.41,2,.57,3Zm-1-5c-.24-1-.5-2-.77-3l.48-.13c.27,1,.54,2,.78,3Zm-1.36-4.89c-.31-1-.65-1.94-1-2.88l.47-.17c.35.94.68,1.92,1,2.9Zm-1.73-4.77c-.38-1-.79-1.89-1.21-2.79l.45-.22c.43.92.84,1.87,1.23,2.82ZM393,205.1q-.71-1.38-1.47-2.67l.43-.25c.51.86,1,1.77,1.48,2.69Zm-2.53-4.4c-.57-.86-1.15-1.7-1.74-2.48l.39-.31c.6.8,1.2,1.65,1.77,2.52Z"/><path class="cls-2" d="M359.94,289.08l-.08-.5,1.47-.26.1.49Z"/><path class="cls-2" d="M207.16,319.25c-.31-.39-.62-.79-.92-1.19l.4-.3c.3.4.6.79.91,1.18Z"/><path class="cls-2" d="M277.16,346.51V346c1,0,2,0,3-.05l0,.5C279.17,346.49,278.16,346.51,277.16,346.51Zm-2,0c-1,0-2,0-3-.08l0-.5c1,0,2,.06,3,.08Zm7-.13,0-.5c1-.05,2-.11,3-.19l0,.5C284.2,346.27,283.19,346.33,282.18,346.38Zm-12.05-.05c-1-.06-2-.13-3-.22l.05-.49c1,.08,2,.15,3,.21Zm17.06-.31-.05-.5c1-.09,2-.2,3-.33l.06.5Q288.69,345.87,287.19,346Zm-22.06-.09c-1-.1-2-.22-3-.34l.07-.5c1,.13,2,.24,3,.34Zm27.05-.51-.07-.49,3-.47.09.49C294.19,345.12,293.19,345.28,292.18,345.42Zm-32-.1c-1-.15-2-.31-3-.48l.09-.49c1,.17,2,.33,3,.47Zm37-.74-.1-.49c1-.19,2-.4,2.94-.62l.11.49C299.11,344.18,298.12,344.39,297.14,344.58Zm-41.94-.09c-1-.19-2-.39-2.95-.61l.11-.48q1.45.32,2.94.6Zm46.85-1-.12-.48c1-.25,1.95-.51,2.89-.77l.14.48C304,343,303,343.25,302.05,343.49Zm-51.76-.05c-1-.23-2-.48-2.93-.74l.13-.48c1,.26,1.94.5,2.91.73Zm-4.87-1.27q-1.46-.42-2.88-.87l.15-.48c.95.3,1.91.59,2.87.87Zm61.47,0-.15-.48c.95-.29,1.91-.6,2.86-.93l.16.47C308.81,341.54,307.84,341.85,306.89,342.15Zm-66.27-1.47-2.84-1,.18-.47c.92.34,1.88.68,2.82,1Zm71-.14-.17-.47c.95-.35,1.89-.72,2.8-1.09l.18.46C313.55,339.81,312.61,340.18,311.65,340.54ZM235.9,339c-.94-.37-1.88-.76-2.78-1.15l.19-.46c.9.39,1.84.77,2.78,1.14Zm80.42-.3-.2-.45c.92-.41,1.84-.83,2.72-1.26l.22.45C318.17,337.82,317.25,338.25,316.32,338.65Zm-85-1.67c-.93-.42-1.84-.86-2.72-1.3l.22-.45c.87.44,1.79.88,2.7,1.3Zm89.58-.48-.23-.45c.9-.46,1.78-.94,2.64-1.42l.25.44C322.65,335.55,321.76,336,320.86,336.5Zm-94.09-1.74c-.9-.47-1.79-1-2.64-1.46l.25-.43c.85.49,1.73,1,2.62,1.45Zm98.48-.7-.25-.43c.86-.51,1.71-1.05,2.54-1.59l.27.42C327,333,326.12,333.54,325.25,334.06ZM222.4,332.27c-.86-.52-1.72-1.07-2.54-1.63l.27-.41c.83.55,1.68,1.09,2.53,1.62Zm107.08-.93-.29-.41c.82-.57,1.64-1.15,2.43-1.75l.3.4C331.13,330.18,330.3,330.77,329.48,331.34ZM218.2,329.5c-.83-.6-1.64-1.2-2.42-1.82l.31-.39c.77.61,1.58,1.21,2.4,1.8Zm115.31-1.15-.31-.39c.77-.62,1.55-1.26,2.3-1.91l.33.37C335.07,327.08,334.29,327.73,333.51,328.35Zm-119.29-1.94c-.77-.64-1.53-1.32-2.26-2l.34-.37c.73.68,1.48,1.35,2.25,2Zm123.11-1.32-.34-.37c.74-.68,1.46-1.37,2.17-2.08l.35.36C338.8,323.7,338.07,324.41,337.33,325.09ZM210.52,323c-.71-.71-1.41-1.45-2.06-2.21l.37-.33c.65.75,1.34,1.48,2,2.19Zm130.39-1.44-.36-.35c.69-.72,1.37-1.47,2-2.22l.38.33C342.29,320.07,341.61,320.83,340.91,321.56Zm3.33-3.78-.39-.31c.64-.78,1.26-1.57,1.85-2.36l.41.3C345.51,316.21,344.88,317,344.24,317.78Z"/><path class="cls-2" d="M347.34,313.72l-.41-.29c.29-.4.57-.81.85-1.23l.42.29Z"/><path class="cls-2" d="M39.05,276.56l-.48-.13c.13-.48.26-1,.4-1.45l.48.15C39.31,275.6,39.18,276.08,39.05,276.56Z"/><path class="cls-2" d="M93.15,344c-1,0-2,0-3-.08l0-.5c1,.05,2,.08,3,.08Zm2,0v-.5c1,0,2-.05,3-.11l0,.5C97.2,343.92,96.18,344,95.18,344Zm-7.1-.2c-1-.07-2-.17-3-.28l.06-.5c1,.12,2,.21,3,.28Zm12.17,0,0-.5c1-.07,2-.16,3-.27l0,.5C102.26,343.57,101.24,343.67,100.25,343.74Zm5-.51-.06-.49c1-.13,2-.27,3-.43l.08.5C107.29,343,106.28,343.11,105.3,343.23Zm-22.26,0c-1-.14-2-.31-3-.5l.1-.49c1,.19,2,.35,3,.5Zm27.27-.75-.08-.5c1-.17,2-.35,3-.56l.1.49C112.3,342.12,111.3,342.3,110.31,342.48ZM78,342.32c-1-.22-2-.46-3-.72l.13-.49c1,.26,1.94.51,2.93.73Zm37.25-.83-.11-.49c1-.21,2-.44,2.95-.69l.12.49C117.25,341,116.27,341.28,115.29,341.49ZM73.13,341c-1-.31-1.95-.63-2.88-1l.17-.47c.93.34,1.89.67,2.86,1Zm47.08-.73-.12-.49c1-.25,1.94-.52,2.92-.8l.14.48Zm-51.86-1c-.93-.38-1.87-.8-2.79-1.23l.22-.45c.9.43,1.83.84,2.76,1.22Zm56.74-.41-.15-.48c1-.29,1.92-.59,2.9-.91l.15.48C127,338.32,126.05,338.62,125.09,338.91Zm4.82-1.56-.16-.47c.95-.32,1.9-.66,2.86-1l.17.47C131.82,336.69,130.86,337,129.91,337.35Zm-66.17-.16c-.9-.47-1.8-1-2.66-1.49l.26-.43c.85.51,1.74,1,2.63,1.47Zm70.94-1.56-.18-.46c.94-.36,1.88-.72,2.83-1.1l.18.46C136.56,334.91,135.62,335.28,134.68,335.63Zm-75.32-1c-.85-.56-1.69-1.14-2.51-1.74l.3-.41c.81.6,1.64,1.18,2.48,1.73Zm80-.86-.19-.46c.93-.38,1.86-.78,2.79-1.18l.2.46C141.25,333,140.32,333.39,139.39,333.77Zm4.66-2-.2-.46c.91-.4,1.83-.82,2.75-1.25l.22.45Zm-88.81-.13c-.79-.63-1.56-1.3-2.31-2l.34-.36c.74.67,1.51,1.33,2.29,2Zm93.41-2-.22-.45,2.73-1.33.22.45C150.47,328.77,149.56,329.22,148.65,329.65Zm-97.19-1.4c-.72-.71-1.43-1.46-2.1-2.21l.37-.33c.67.74,1.37,1.48,2.08,2.19Zm101.73-.84L153,327c.89-.45,1.79-.91,2.69-1.39l.24.45C155,326.49,154.09,327,153.19,327.41ZM48,324.49c-.64-.79-1.27-1.6-1.86-2.42l.41-.29c.58.81,1.2,1.61,1.84,2.39Zm-3-4.09c-.56-.85-1.1-1.72-1.6-2.6l.43-.25c.5.87,1,1.74,1.58,2.57ZM42.47,316c-.47-.9-.92-1.82-1.33-2.75l.46-.2c.41.91.85,1.83,1.31,2.72Zm-2.12-4.62c-.37-.94-.72-1.91-1-2.87l.47-.15c.32.95.67,1.9,1,2.83Zm-1.64-4.81c-.28-1-.54-2-.76-3l.48-.11c.23,1,.48,2,.76,2.93Zm-1.18-4.95c-.18-1-.34-2-.47-3l.49-.06c.13,1,.29,2,.48,3Zm-.7-5c-.09-1-.16-2-.2-3.05l.5,0c0,1,.11,2,.2,3Zm.26-5.09h-.5v-.07c0-1,0-2,.08-3l.5,0c-.05,1-.08,2-.08,2.95Zm.22-5-.5-.05c.09-1,.21-2,.35-3l.49.07C37.51,284.47,37.4,285.48,37.31,286.48Zm.66-5-.49-.09c.17-1,.37-2,.6-3l.49.11C38.34,279.5,38.14,280.5,38,281.48Z"/><path class="cls-2" d="M157.74,325l-.24-.44,1.32-.72.24.44Z"/><path class="cls-3" d="M66.65,114.47s0,.82-.1,2.09c0,.89-.13,2-.24,3.3,0,.62-.12,1.29-.18,2l-.09.79c-.06.51-.12,1-.19,1.58,0,.19,0,.37-.07.56,0,.35-.1.71-.16,1.07-.09.69-.21,1.39-.33,2.09-.71,4.06-1.79,8.08-3.41,10.44l-1.3-.08-7.33-.43a126.12,126.12,0,0,1,.62-16.65c.13-1.22.26-2.34.4-3.38,0-.35.1-.7.15-1s0-.35.08-.52c0,0,0,0,0,0s.05-.29.06-.43a.29.29,0,0,0,0-.09l0-.12,0-.18v-.1a.24.24,0,0,0,0-.08h0a1.43,1.43,0,0,1,0-.22c0-.06,0-.11,0-.16l0-.07v0c0-.1,0-.21,0-.3s0-.16,0-.24c.11-.58.21-1.11.3-1.56,0-.1,0-.19,0-.27.29-1.39.49-2.13.49-2.13s.65.22,1.67.58c1.4.51,3.56,1.29,5.45,2h0l1.24.49c.81.32,1.51.6,2,.83A3.79,3.79,0,0,1,66.65,114.47Z"/><path class="cls-3" d="M61.78,153.78c-.82,3.6-2,7.39-2.84,12.86-.07.41-.13.83-.2,1.26a1,1,0,0,1,0,.24c0,.11,0,.23,0,.33-.07.43-.12.87-.17,1.31a.85.85,0,0,0,0,.23c-3.06,2.13-3.37.78-5-1h0c0-6.49-.09-11.2-.18-15-.1-4.1-.21-7.13-.21-10.21,0-1.89,0-3.79.13-6,0-.75,1.16-1.36,1.55-1.68a2.3,2.3,0,0,1,1.29-.54c1.09-.16,2.32.59,3.89,1.58q.24.13.48.3l.41.25,1,.61a39.13,39.13,0,0,1,.83,6.28A32.19,32.19,0,0,1,61.78,153.78Z"/><path class="cls-3" d="M58.51,169.78c-2.94,1.94-3.41-1-4.51-1.79-.24-.18-.58,1.66-.8,1.86-1.66,1.59-7.19,4.35-7.2,4.35-1,.07-2.1,0-2.19.82-.06.61-.12,1.23,3.26.84,6,.44,5.29-.65,7.61-.43,1.4.13,1.44.55,3.68.36S59.35,171.41,58.51,169.78Z"/><path class="cls-3" d="M78.83,137.85l-7,.42-1.67.09c-1.61-2.34-2.68-6.29-3.39-10.31q-.19-1.11-.36-2.22v0c0-.31-.1-.63-.14-.94s0-.44-.08-.66c-.07-.54-.13-1.07-.19-1.58,0-.32-.07-.64-.1-1,0-.47-.09-.92-.13-1.35-.12-1.41-.21-2.66-.27-3.63-.08-1.35-.11-2.18-.11-2.22a3.79,3.79,0,0,1,.61-.32c1.46-.68,5-2,7.5-2.91l1.54-.55,1.32-.46a82.37,82.37,0,0,1,1.91,11.93c.11,1.16.21,2.42.3,3.73C78.84,129.4,79,133.42,78.83,137.85Z"/><path class="cls-3" d="M78.94,143.91c0,2.39-.06,4.77-.14,7.65-.12,4.21-.24,9.49-.24,17.45h0c-1.59,1.78-1.9,3.13-5,1a1.46,1.46,0,0,0,0-.22h0c0-.33-.07-.66-.11-1-.29-2.22-.64-4.17-1-6-.86-4.22-1.85-7.39-2.49-10.58a30.84,30.84,0,0,1-.54-8.67,41.27,41.27,0,0,1,.77-5.24l1-.61.89-.55c1.57-1,2.8-1.74,3.88-1.58a2.35,2.35,0,0,1,1.3.54c.39.32,1.52.93,1.55,1.68C78.92,140.05,79,142,78.94,143.91Z"/><path class="cls-3" d="M73.57,169.78c2.94,1.94,3.41-1,4.51-1.79.24-.18.57,1.66.79,1.86,1.66,1.59,7.2,4.35,7.2,4.35,1,.07,2.11,0,2.2.82.06.61.11,1.23-3.27.84-6,.44-5.29-.65-7.61-.43-1.39.13-1.43.55-3.67.36S72.73,171.41,73.57,169.78Z"/><path class="cls-4" d="M62.71,144.64a32.19,32.19,0,0,1-.93,9.14,32.77,32.77,0,0,1-8.44.23c-.1-4.1-.21-7.13-.21-10.21a15.79,15.79,0,0,0,8.65,1Z"/><path class="cls-4" d="M78.94,143.91c0,2.39-.06,4.77-.14,7.65l-4,0a16.24,16.24,0,0,0-2.7.15,15.51,15.51,0,0,0-2.11.53,30.84,30.84,0,0,1-.54-8.67c.69-.07,1.38-.12,2.06-.14C74,143.41,76.46,143.81,78.94,143.91Z"/><path class="cls-3" d="M66.09,73.73l-1.67-.12h0L63,73.79h0l-4.59.6h0l-1.33.17-.06,0-.1,0-1.33.69a11.7,11.7,0,0,0,2.57,2.17C61.73,78.09,64.38,76.35,66.09,73.73Z"/><path class="cls-5" d="M84.87,147.26c-.13,0-.25,0-.38,0-14.45-1.07-27.43,7.22-35.2,1.26,0,0,.37-15.07,1.69-29.06.22-2.27.46-4.5.73-6.64q-.16-4.41-.39-8.47C51.15,101.05,51,98,50.79,95c-.38-6.47-.69-12.11-.57-16.87v0l5.36-2.79a12.48,12.48,0,0,0,2.57,2.16c3.59.59,6.23-1.15,7.95-3.77l5,.37h0l.41,0A48.72,48.72,0,0,1,75,83c1.88,6.43,3,13.89,4.15,22.13.24,1.69.46,3.4.69,5.15C81.43,122.41,82.87,139.27,84.87,147.26Z"/><path class="cls-3" d="M64.49,74.25l-.07-.64v-.06l-.13-1.15h0l0-.13-.17-1.54h0l-.11-1-7.66.76.16,1.15h0l.21,1.51,0,.25.15,1.06,0,.18.08.57a.11.11,0,0,1,0,.05c.35,1.39,1.87,1.93,3.46,1.86a5,5,0,0,0,.53-.05,6.21,6.21,0,0,0,.84-.16c1.51-.4,2.75-1.34,2.67-2.61A.07.07,0,0,0,64.49,74.25Z"/><path class="cls-4" d="M79.12,105.08c-4.44,1.33-22-.31-27.8-.76C51.15,101.05,51,98,50.79,95c.76-4.83,1.56-9.87,1.5-10.49,2.32-.25,1.84,1.56,2,6.7,2.3,0,17.7-2,18.12-2a16,16,0,0,1-1.68-6.15C71,83,73,83,75,83,76.85,89.38,78,96.84,79.12,105.08Z"/><path class="cls-5" d="M82.43,92.5a.4.4,0,0,1,0,.11,3.42,3.42,0,0,1-.78,2.5l-.06.08a3.63,3.63,0,0,1-2.31,1.21c-1.56.11-7.76.46-13.89.79l-13.61.73s-.16-4.51.15-5.09c0,0,0-.07.06-.07l.43-.06c2.59-.36,16.09-2.22,21.26-2.9l1.79-.23L77,89.4c.77-.08,1.31-.13,1.48-.13a3.58,3.58,0,0,1,3.54,1.91,3.72,3.72,0,0,1,.37,1.24Z"/><path class="cls-5" d="M68.6,76.38c-1,2.09.26,4.69,2.72,5.81s5.22.34,6.17-1.75-.27-4.69-2.72-5.81S69.55,74.29,68.6,76.38Z"/><path class="cls-5" d="M82.17,93.19l-1-.06-4.5-.27a3.24,3.24,0,0,1-1.29-.81,7.45,7.45,0,0,1-.9-1,13.49,13.49,0,0,1-.81-1.25A14.41,14.41,0,0,1,71.88,85a5.32,5.32,0,0,1,.07-2.6.36.36,0,0,1,0-.09.28.28,0,0,1,0-.11l.81-.41,4.94-2.46A23.15,23.15,0,0,1,80.36,84h0s0,0,0,0a21.48,21.48,0,0,1,.81,2.34.17.17,0,0,0,0,0,25.56,25.56,0,0,1,.86,4.74c0,.09,0,.18,0,.27C82.14,92,82.16,92.6,82.17,93.19Z"/><path class="cls-4" d="M67.27,65c-.1.92-.38,2.08-.84,2.32s-.81,0-.85-.06a10.09,10.09,0,0,1-.44,3.31c-.33.66-.61,1.2-.87,1.65l0,.13h0l.13,1.15s0,0,0,.07-.15.25-.23.37c-.76,1.18-1.48,1.54-3.21,1.77h0c-1.73.23-2.51.07-3.57-.86L57,74.59l-.13-.13-.15-1.06,0-.25c-.34-.35-.71-.76-1.15-1.25a10.62,10.62,0,0,1-1.3-3.07.65.65,0,0,1-.8.29C52.93,69,52.33,67.9,52,67a.92.92,0,0,1,.29-.51.66.66,0,0,1,.4-.19h0a1,1,0,0,1,.49.07,10.37,10.37,0,0,1-.34-1.21h0l0-.13c0-.06,0-.13,0-.19a8.38,8.38,0,0,1-.19-1.44h0a7.37,7.37,0,0,1,.07-1.26,5.78,5.78,0,0,1,.76-2.23l.26-.4s0,0,0,0h0a6.19,6.19,0,0,1,2.87-2.17h0A8.22,8.22,0,0,1,57.81,57h0c.18,0,.36-.07.55-.09a7.6,7.6,0,0,1,1.84,0h0a6.26,6.26,0,0,1,3.5,1.43h0a5.91,5.91,0,0,1,1.51,2,2.14,2.14,0,0,1,.1.22A7.1,7.1,0,0,1,65.78,62h0a9.24,9.24,0,0,1,.15,1.09,1.55,1.55,0,0,0,0,.22v.15c0,.41,0,.81,0,1.23a1,1,0,0,1,.46-.2.68.68,0,0,1,.5.11A1,1,0,0,1,67.27,65Z"/><path class="cls-3" d="M67.29,64.89a.77.77,0,0,1,0,.15c-.1.92-.38,2.08-.84,2.32s-.81,0-.85-.06a10.09,10.09,0,0,1-.44,3.31c-.33.66-.61,1.2-.87,1.65-.09.16-.18.3-.27.44a3.55,3.55,0,0,1-1,1.09h0a4.8,4.8,0,0,1-2.21.68h0s0,0,0,0a4.81,4.81,0,0,1-2.36-.09h0a3.79,3.79,0,0,1-1.2-.77c-.16-.14-.32-.3-.5-.47-.34-.35-.71-.76-1.15-1.25a10.62,10.62,0,0,1-1.3-3.07.65.65,0,0,1-.8.29C52.93,69,52.33,67.9,52,67A.36.36,0,0,1,52,67a1.53,1.53,0,0,1,.16-1.72.71.71,0,0,1,.41-.19h0a.84.84,0,0,1,.27,0,.9.9,0,0,1,.22.06,12.12,12.12,0,0,1-.42-1.54l0-.15h0a7.85,7.85,0,0,1-.08-2.54,5.92,5.92,0,0,1,1-2.65h0a6.59,6.59,0,0,1,4.08-2.53h.07l.55-.09c3-.4,5.8.85,7,3.67a7.89,7.89,0,0,1,.57,2.56,1.09,1.09,0,0,1,0,.18h0a11.06,11.06,0,0,1,0,1.41.7.7,0,0,1,.16-.1,1,1,0,0,1,.29-.11.75.75,0,0,1,.51.12A1.59,1.59,0,0,1,67.29,64.89Z"/><path class="cls-6" d="M66.24,63.19a1.73,1.73,0,0,0-.72,1.33,9.55,9.55,0,0,0-.07,1.34c-.4.17-.58.22-.94.4,0-.39.07-.76.11-1.12a19,19,0,0,0-.1-4.61,7.75,7.75,0,0,0-.28-1.17c-.86-2.63-2.66-2.51-3.33-2.55a24.87,24.87,0,0,0-4.94.66,3.08,3.08,0,0,0-2.45,2.6,6.49,6.49,0,0,0-.07.68,14.6,14.6,0,0,0,1.12,5.63c.13.37.28.76.44,1.16-.4-.08-.59-.07-1-.14a10,10,0,0,0-.48-1.4,1.69,1.69,0,0,0-1-1h0a14.12,14.12,0,0,1-.59-4.11,7.81,7.81,0,0,1,.94-3.26c1.42-2.85,8-4.24,11.06-1.5a6,6,0,0,1,1.88,3A14.79,14.79,0,0,1,66.24,63.19Z"/><path class="cls-6" d="M55.93,55.88a2.84,2.84,0,0,0-1.29.6c-.56.4-1.79,2.79-1.41,3.27,1.56,1.93,5.61,2,8.42,1.74a2.63,2.63,0,0,1-1.08-1,7.49,7.49,0,0,0,4.9-.23,9.34,9.34,0,0,0-2.59-3.53,6.29,6.29,0,0,0-3.37-1.07A19.55,19.55,0,0,0,55.93,55.88Z"/><path class="cls-4" d="M82.43,92.5a.4.4,0,0,1,0,.11,3.42,3.42,0,0,1-.78,2.5l-.06.08a3.63,3.63,0,0,1-2.31,1.21c-1.56.11-7.76.46-13.89.79a27.2,27.2,0,0,0-2.79-.6c-.88-.12-1.77-.13-2.66-.21a20.54,20.54,0,0,1-3.88-.71,20,20,0,0,0-4-1,9.58,9.58,0,0,0-.13-1.84c0-.27,0-.44.06-.39a2.73,2.73,0,0,0,.43.26c3.1,1.85,7.55,2.66,11.49,3.07a103.74,103.74,0,0,0,16.16-.7,2.46,2.46,0,0,0,1.11-1.94,12.05,12.05,0,0,0,0-3c-.19-2.22-.7-4.63-.85-6.09,0,0,0,0,0,0q.41,1.24.81,2.34a.17.17,0,0,0,0,0,25.56,25.56,0,0,1,.86,4.74,3.72,3.72,0,0,1,.37,1.24Z"/><path class="cls-5" d="M45.55,99.42A3.58,3.58,0,0,0,47.66,101c3.22.72,31.46,4.13,31.46,4.13a15.78,15.78,0,0,0-.94-6.61s-23.45-3.09-25.75-3.71l-1.53-.41c-.76-.19-1.28-.32-1.44-.34a3.55,3.55,0,0,0-4.33,2.54l0,.08a.36.36,0,0,0,0,.11,3.52,3.52,0,0,0,.41,2.59A.36.36,0,0,1,45.55,99.42Z"/><path class="cls-5" d="M55.11,79.18c1.37,1.84.73,4.64-1.44,6.25s-5,1.43-6.4-.41-.72-4.64,1.44-6.26S53.74,77.34,55.11,79.18Z"/><path class="cls-5" d="M45.37,98.47,50.68,97a3.29,3.29,0,0,0,1.09-1.06,8,8,0,0,0,.66-1.17c.85-1.83,1.06-8.33.68-9l-.06-.09a.7.7,0,0,0-.06-.09l-.88-.23L46.76,84a23.61,23.61,0,0,0-1.67,12.72C45.16,97.31,45.26,97.88,45.37,98.47Z"/><path class="cls-4" d="M84.49,147.23c-14.45-1.07-27.43,7.22-35.2,1.26,0,0,.37-15.07,1.69-29.06a155.86,155.86,0,0,1,.21,18.34c-.1,2.23-.2,4.64,1.07,6.48a6.74,6.74,0,0,0,2.35,2c2.84,1.58,6.26,1.78,9.5,1.45s6.41-1.13,9.65-1.43A30.6,30.6,0,0,1,84.49,147.23Z"/><path class="cls-4" d="M54.46,109.89c1.12,6.57.26,13.33,1.11,19.94s4,13.61,10.26,16c-4.89-4.17-7.2-10.63-8.34-17S56.14,116.09,54.46,109.89Z"/><path class="cls-4" d="M53,132a24,24,0,0,0,.66,8c.82,2.55,2.7,4.93,5.3,5.58a12.74,12.74,0,0,1-3.81-6.06c-1.1-4.23.4-9.15-2-12.81C53.06,128.49,53,130.26,53,132Z"/><path class="cls-4" d="M78.27,120.43a28.4,28.4,0,0,1,1,6.29,45.45,45.45,0,0,1,.13,10,15.19,15.19,0,0,1-4.07,8.91c1.88-1.37,3.86-2.87,4.69-5.05a17.36,17.36,0,0,0,1.19-4.38C81.47,130.59,81,125.29,78.27,120.43Z"/><rect class="cls-7" x="131.12" y="28.9" width="106.41" height="46.41"/><rect class="cls-8" x="162.2" y="32.83" width="44.24" height="35.56"/><rect class="cls-9" x="131.12" y="28.87" width="106.41" height="3.94"/><rect class="cls-8" x="131.12" y="68.38" width="106.41" height="6.92"/><path class="cls-2" d="M140.37,48.48h-5.32V38.25a2.64,2.64,0,0,1,2.63-2.64h0a2.64,2.64,0,0,1,2.64,2.64Z"/><path class="cls-9" d="M140.74,48.85h-6.06V38.25a3,3,0,0,1,6.06,0Zm-5.32-.74H140V38.25a2.29,2.29,0,0,0-4.58,0Z"/><path class="cls-2" d="M149.41,48.48h-5.32V38.25a2.64,2.64,0,0,1,2.64-2.64h.05a2.64,2.64,0,0,1,2.63,2.64Z"/><path class="cls-9" d="M149.78,48.85h-6.05V38.25a3,3,0,0,1,6.05,0Zm-5.32-.74h4.59V38.25a2.3,2.3,0,0,0-4.59,0Z"/><path class="cls-2" d="M158.46,48.48h-5.32V38.25a2.64,2.64,0,0,1,2.63-2.64h0a2.64,2.64,0,0,1,2.64,2.64Z"/><path class="cls-9" d="M158.83,48.85h-6.06V38.25a3,3,0,0,1,6.06,0Zm-5.32-.74h4.58V38.25a2.29,2.29,0,0,0-4.58,0Z"/><path class="cls-2" d="M140.37,64.75h-5.32V54.52a2.63,2.63,0,0,1,2.63-2.63h0a2.64,2.64,0,0,1,2.64,2.63Z"/><path class="cls-9" d="M140.74,65.12h-6.06V54.52a3,3,0,0,1,6.06,0Zm-5.32-.74H140V54.52a2.29,2.29,0,0,0-4.58,0Z"/><path class="cls-2" d="M149.41,64.75h-5.32V54.52a2.64,2.64,0,0,1,2.64-2.63h.05a2.63,2.63,0,0,1,2.63,2.63Z"/><path class="cls-9" d="M149.78,65.12h-6.05V54.52a3,3,0,0,1,6.05,0Zm-5.32-.74h4.59V54.52a2.3,2.3,0,0,0-4.59,0Z"/><path class="cls-2" d="M158.46,64.75h-5.32V54.52a2.63,2.63,0,0,1,2.63-2.63h0a2.64,2.64,0,0,1,2.64,2.63Z"/><path class="cls-9" d="M158.83,65.12h-6.06V54.52a3,3,0,0,1,6.06,0Zm-5.32-.74h4.58V54.52a2.29,2.29,0,0,0-4.58,0Z"/><path class="cls-2" d="M215.51,48.48h-5.32V38.25a2.64,2.64,0,0,1,2.63-2.64h.05a2.64,2.64,0,0,1,2.64,2.64Z"/><path class="cls-9" d="M215.88,48.85h-6.06V38.25a3,3,0,0,1,6.06,0Zm-5.33-.74h4.59V38.25a2.3,2.3,0,0,0-4.59,0Z"/><path class="cls-2" d="M224.55,48.48h-5.32V38.25a2.64,2.64,0,0,1,2.64-2.64h0a2.64,2.64,0,0,1,2.63,2.64Z"/><path class="cls-9" d="M224.92,48.85h-6.06V38.25a3,3,0,0,1,6.06,0Zm-5.32-.74h4.58V38.25a2.29,2.29,0,0,0-4.58,0Z"/><path class="cls-2" d="M233.6,48.48h-5.32V38.25a2.64,2.64,0,0,1,2.63-2.64H231a2.64,2.64,0,0,1,2.64,2.64Z"/><path class="cls-9" d="M234,48.85h-6.05V38.25a3,3,0,0,1,6.05,0Zm-5.32-.74h4.59V38.25a2.3,2.3,0,0,0-4.59,0Z"/><path class="cls-2" d="M215.51,64.75h-5.32V54.52a2.63,2.63,0,0,1,2.63-2.63h.05a2.64,2.64,0,0,1,2.64,2.63Z"/><path class="cls-9" d="M215.88,65.12h-6.06V54.52a3,3,0,0,1,6.06,0Zm-5.33-.74h4.59V54.52a2.3,2.3,0,0,0-4.59,0Z"/><path class="cls-2" d="M224.55,64.75h-5.32V54.52a2.64,2.64,0,0,1,2.64-2.63h0a2.63,2.63,0,0,1,2.63,2.63Z"/><path class="cls-9" d="M224.92,65.12h-6.06V54.52a3,3,0,0,1,6.06,0Zm-5.32-.74h4.58V54.52a2.29,2.29,0,0,0-4.58,0Z"/><path class="cls-2" d="M233.6,64.75h-5.32V54.52a2.63,2.63,0,0,1,2.63-2.63H231a2.64,2.64,0,0,1,2.64,2.63Z"/><path class="cls-9" d="M234,65.12h-6.05V54.52a3,3,0,0,1,6.05,0Zm-5.32-.74h4.59V54.52a2.3,2.3,0,0,0-4.59,0Z"/><path class="cls-2" d="M173.05,48.48v-9.3a3.39,3.39,0,0,0-3.17-3.57h-.06a3.39,3.39,0,0,0-3.17,3.57v9.3Z"/><path class="cls-9" d="M173.42,48.85h-7.14V39.18a3.59,3.59,0,1,1,7.14,0Zm-6.4-.74h5.66V39.18a2.85,2.85,0,1,0-5.66,0Z"/><path class="cls-2" d="M182.7,48.48v-9.3a3.39,3.39,0,0,0-3.17-3.57h-.06a3.39,3.39,0,0,0-3.17,3.57v9.3Z"/><path class="cls-9" d="M183.07,48.85h-7.14V39.18a3.59,3.59,0,1,1,7.14,0Zm-6.41-.74h5.67V39.18a2.86,2.86,0,1,0-5.67,0Z"/><path class="cls-2" d="M192.35,48.48v-9.3a3.39,3.39,0,0,0-3.17-3.57h-.07a3.39,3.39,0,0,0-3.17,3.57v9.3Z"/><path class="cls-9" d="M192.72,48.85h-7.14V39.18a3.59,3.59,0,1,1,7.14,0Zm-6.41-.74H192V39.18a2.86,2.86,0,1,0-5.67,0Z"/><path class="cls-2" d="M202,48.48v-9.3a3.39,3.39,0,0,0-3.17-3.57h-.07a3.39,3.39,0,0,0-3.17,3.57v9.3Z"/><path class="cls-9" d="M202.37,48.85h-7.15V39.18a3.59,3.59,0,1,1,7.15,0ZM196,48.11h5.67V39.18a2.86,2.86,0,1,0-5.67,0Z"/><rect class="cls-9" x="137.56" y="35.61" width="0.34" height="12.86"/><rect class="cls-9" x="135.1" y="45.12" width="5.27" height="0.34"/><rect class="cls-9" x="135.1" y="41.93" width="5.27" height="0.34"/><rect class="cls-9" x="135.1" y="38.74" width="5.27" height="0.34"/><rect class="cls-9" x="146.58" y="35.61" width="0.34" height="12.86"/><rect class="cls-9" x="144.12" y="45.12" width="5.27" height="0.34"/><rect class="cls-9" x="144.12" y="41.93" width="5.27" height="0.34"/><rect class="cls-9" x="144.12" y="38.74" width="5.27" height="0.34"/><rect class="cls-9" x="155.6" y="35.61" width="0.34" height="12.86"/><rect class="cls-9" x="153.14" y="45.12" width="5.27" height="0.34"/><rect class="cls-9" x="153.14" y="41.93" width="5.27" height="0.34"/><rect class="cls-9" x="153.14" y="38.74" width="5.27" height="0.34"/><rect class="cls-9" x="169.68" y="35.61" width="0.34" height="12.86"/><rect class="cls-9" x="166.65" y="45.12" width="6.4" height="0.34"/><rect class="cls-9" x="166.65" y="41.93" width="6.4" height="0.34"/><rect class="cls-9" x="166.65" y="38.74" width="6.4" height="0.34"/><rect class="cls-9" x="179.33" y="35.61" width="0.34" height="12.86"/><rect class="cls-9" x="176.3" y="45.12" width="6.4" height="0.34"/><rect class="cls-9" x="176.3" y="41.93" width="6.4" height="0.34"/><rect class="cls-9" x="176.3" y="38.74" width="6.4" height="0.34"/><rect class="cls-9" x="188.98" y="35.61" width="0.34" height="12.86"/><rect class="cls-9" x="185.94" y="45.12" width="6.41" height="0.34"/><rect class="cls-9" x="185.94" y="41.93" width="6.41" height="0.34"/><rect class="cls-9" x="185.94" y="38.74" width="6.41" height="0.34"/><rect class="cls-9" x="198.62" y="35.61" width="0.34" height="12.86"/><rect class="cls-9" x="195.59" y="45.12" width="6.4" height="0.34"/><rect class="cls-9" x="195.59" y="41.93" width="6.4" height="0.34"/><rect class="cls-9" x="195.59" y="38.74" width="6.4" height="0.34"/><rect class="cls-9" x="137.56" y="51.89" width="0.34" height="12.86"/><rect class="cls-9" x="135.1" y="61.39" width="5.27" height="0.34"/><rect class="cls-9" x="135.1" y="58.2" width="5.27" height="0.34"/><rect class="cls-9" x="135.1" y="55.01" width="5.27" height="0.34"/><rect class="cls-9" x="146.58" y="51.89" width="0.34" height="12.86"/><rect class="cls-9" x="144.12" y="61.39" width="5.27" height="0.34"/><rect class="cls-9" x="144.12" y="58.2" width="5.27" height="0.34"/><rect class="cls-9" x="144.12" y="55.01" width="5.27" height="0.34"/><rect class="cls-9" x="155.6" y="51.89" width="0.34" height="12.86"/><rect class="cls-9" x="153.14" y="61.39" width="5.27" height="0.34"/><rect class="cls-9" x="153.14" y="58.2" width="5.27" height="0.34"/><rect class="cls-9" x="153.14" y="55.01" width="5.27" height="0.34"/><rect class="cls-9" x="212.7" y="35.61" width="0.34" height="12.86"/><rect class="cls-9" x="210.24" y="45.12" width="5.27" height="0.34"/><rect class="cls-9" x="210.24" y="41.93" width="5.27" height="0.34"/><rect class="cls-9" x="210.24" y="38.74" width="5.27" height="0.34"/><rect class="cls-9" x="221.72" y="35.61" width="0.34" height="12.86"/><rect class="cls-9" x="219.26" y="45.12" width="5.27" height="0.34"/><rect class="cls-9" x="219.26" y="41.93" width="5.27" height="0.34"/><rect class="cls-9" x="219.26" y="38.74" width="5.27" height="0.34"/><rect class="cls-9" x="230.74" y="35.61" width="0.34" height="12.86"/><rect class="cls-9" x="228.28" y="45.12" width="5.27" height="0.34"/><rect class="cls-9" x="228.28" y="41.93" width="5.27" height="0.34"/><rect class="cls-9" x="228.28" y="38.74" width="5.27" height="0.34"/><rect class="cls-9" x="212.7" y="51.89" width="0.34" height="12.86"/><rect class="cls-9" x="210.24" y="61.39" width="5.27" height="0.34"/><rect class="cls-9" x="210.24" y="58.2" width="5.27" height="0.34"/><rect class="cls-9" x="210.24" y="55.01" width="5.27" height="0.34"/><rect class="cls-9" x="221.72" y="51.89" width="0.34" height="12.86"/><rect class="cls-9" x="219.26" y="61.39" width="5.27" height="0.34"/><rect class="cls-9" x="219.26" y="58.2" width="5.27" height="0.34"/><rect class="cls-9" x="219.26" y="55.01" width="5.27" height="0.34"/><rect class="cls-9" x="230.74" y="51.89" width="0.34" height="12.86"/><rect class="cls-9" x="228.28" y="61.39" width="5.27" height="0.34"/><rect class="cls-9" x="228.28" y="58.2" width="5.27" height="0.34"/><rect class="cls-9" x="228.28" y="55.01" width="5.27" height="0.34"/><rect class="cls-10" x="137.56" y="35.61" width="0.34" height="12.86"/><rect class="cls-10" x="135.1" y="45.12" width="5.27" height="0.34"/><rect class="cls-10" x="135.1" y="41.93" width="5.27" height="0.34"/><rect class="cls-10" x="135.1" y="38.74" width="5.27" height="0.34"/><rect class="cls-10" x="146.58" y="35.61" width="0.34" height="12.86"/><rect class="cls-10" x="144.12" y="45.12" width="5.27" height="0.34"/><rect class="cls-10" x="144.12" y="41.93" width="5.27" height="0.34"/><rect class="cls-10" x="144.12" y="38.74" width="5.27" height="0.34"/><rect class="cls-10" x="155.6" y="35.61" width="0.34" height="12.86"/><rect class="cls-10" x="153.14" y="45.12" width="5.27" height="0.34"/><rect class="cls-10" x="153.14" y="41.93" width="5.27" height="0.34"/><rect class="cls-10" x="153.14" y="38.74" width="5.27" height="0.34"/><rect class="cls-10" x="169.68" y="35.61" width="0.34" height="12.86"/><rect class="cls-10" x="166.65" y="45.12" width="6.4" height="0.34"/><rect class="cls-10" x="166.65" y="41.93" width="6.4" height="0.34"/><rect class="cls-10" x="166.65" y="38.74" width="6.4" height="0.34"/><rect class="cls-10" x="179.33" y="35.61" width="0.34" height="12.86"/><rect class="cls-10" x="176.3" y="45.12" width="6.4" height="0.34"/><rect class="cls-10" x="176.3" y="41.93" width="6.4" height="0.34"/><rect class="cls-10" x="176.3" y="38.74" width="6.4" height="0.34"/><rect class="cls-10" x="188.98" y="35.61" width="0.34" height="12.86"/><rect class="cls-10" x="185.94" y="45.12" width="6.41" height="0.34"/><rect class="cls-10" x="185.94" y="41.93" width="6.41" height="0.34"/><rect class="cls-10" x="185.94" y="38.74" width="6.41" height="0.34"/><rect class="cls-10" x="198.62" y="35.61" width="0.34" height="12.86"/><rect class="cls-10" x="195.59" y="45.12" width="6.4" height="0.34"/><rect class="cls-10" x="195.59" y="41.93" width="6.4" height="0.34"/><rect class="cls-10" x="195.59" y="38.74" width="6.4" height="0.34"/><rect class="cls-10" x="137.56" y="51.89" width="0.34" height="12.86"/><rect class="cls-10" x="135.1" y="61.39" width="5.27" height="0.34"/><rect class="cls-10" x="135.1" y="58.2" width="5.27" height="0.34"/><rect class="cls-10" x="135.1" y="55.01" width="5.27" height="0.34"/><rect class="cls-10" x="146.58" y="51.89" width="0.34" height="12.86"/><rect class="cls-10" x="144.12" y="61.39" width="5.27" height="0.34"/><rect class="cls-10" x="144.12" y="58.2" width="5.27" height="0.34"/><rect class="cls-10" x="144.12" y="55.01" width="5.27" height="0.34"/><rect class="cls-10" x="155.6" y="51.89" width="0.34" height="12.86"/><rect class="cls-10" x="153.14" y="61.39" width="5.27" height="0.34"/><rect class="cls-10" x="153.14" y="58.2" width="5.27" height="0.34"/><rect class="cls-10" x="153.14" y="55.01" width="5.27" height="0.34"/><rect class="cls-10" x="212.7" y="35.61" width="0.34" height="12.86"/><rect class="cls-10" x="210.24" y="45.12" width="5.27" height="0.34"/><rect class="cls-10" x="210.24" y="41.93" width="5.27" height="0.34"/><rect class="cls-10" x="210.24" y="38.74" width="5.27" height="0.34"/><rect class="cls-10" x="221.72" y="35.61" width="0.34" height="12.86"/><rect class="cls-10" x="219.26" y="45.12" width="5.27" height="0.34"/><rect class="cls-10" x="219.26" y="41.93" width="5.27" height="0.34"/><rect class="cls-10" x="219.26" y="38.74" width="5.27" height="0.34"/><rect class="cls-10" x="230.74" y="35.61" width="0.34" height="12.86"/><rect class="cls-10" x="228.28" y="45.12" width="5.27" height="0.34"/><rect class="cls-10" x="228.28" y="41.93" width="5.27" height="0.34"/><rect class="cls-10" x="228.28" y="38.74" width="5.27" height="0.34"/><rect class="cls-10" x="212.7" y="51.89" width="0.34" height="12.86"/><rect class="cls-10" x="210.24" y="61.39" width="5.27" height="0.34"/><rect class="cls-10" x="210.24" y="58.2" width="5.27" height="0.34"/><rect class="cls-10" x="210.24" y="55.01" width="5.27" height="0.34"/><rect class="cls-10" x="221.72" y="51.89" width="0.34" height="12.86"/><rect class="cls-10" x="219.26" y="61.39" width="5.27" height="0.34"/><rect class="cls-10" x="219.26" y="58.2" width="5.27" height="0.34"/><rect class="cls-10" x="219.26" y="55.01" width="5.27" height="0.34"/><rect class="cls-10" x="230.74" y="51.89" width="0.34" height="12.86"/><rect class="cls-10" x="228.28" y="61.39" width="5.27" height="0.34"/><rect class="cls-10" x="228.28" y="58.2" width="5.27" height="0.34"/><rect class="cls-10" x="228.28" y="55.01" width="5.27" height="0.34"/><rect class="cls-9" x="162.2" y="68.38" width="44.24" height="1.38"/><rect class="cls-8" x="161.2" y="69.77" width="46.24" height="1.38"/><rect class="cls-9" x="160.01" y="71.15" width="48.62" height="1.38"/><rect class="cls-8" x="158.94" y="72.54" width="50.76" height="1.38"/><rect class="cls-9" x="157.71" y="73.92" width="53.23" height="1.38"/><rect class="cls-9" x="169.85" y="51.89" width="28.94" height="5"/><rect class="cls-7" x="175.51" y="56.88" width="17.62" height="11.5"/><path class="cls-9" d="M201.56,23.14h-4.84a14.33,14.33,0,0,0-24.79,0h-4.84A7.08,7.08,0,0,0,160,30.22v2.61h48.62V30.22A7.08,7.08,0,0,0,201.56,23.14Z"/><path class="cls-11" d="M163,29.88a4.13,4.13,0,0,1,4.12-3.79h6.53l.85-1.47a11.39,11.39,0,0,1,19.71,0l.85,1.47h6.53a4.13,4.13,0,0,1,4.11,3.79Z"/><path class="cls-9" d="M187.88,24.41a3.56,3.56,0,1,1-3.56-3.56A3.56,3.56,0,0,1,187.88,24.41Z"/><rect class="cls-9" x="176.83" y="57.4" width="6.87" height="10.46"/><rect class="cls-9" x="184.85" y="57.4" width="6.87" height="10.46"/><path class="cls-2" d="M173.52,53.46v.48c0,.58-.37.9-1.14.9H172v1.37h-.76V52.56h1.12C173.15,52.56,173.52,52.88,173.52,53.46Zm-1.5-.38v1.24h.36c.24,0,.38-.09.38-.35v-.54c0-.26-.14-.35-.38-.35Z"/><path class="cls-2" d="M174.9,52.52c.74,0,1.13.33,1.13.92v.11h-.73V53.4c0-.26-.13-.36-.38-.36s-.38.1-.38.36c0,.75,1.49.89,1.49,1.93,0,.59-.39.92-1.13.92s-1.14-.33-1.14-.92v-.22h.72v.26c0,.26.15.35.39.35s.4-.09.4-.35c0-.75-1.49-.89-1.49-1.93C173.78,52.85,174.16,52.52,174.9,52.52Z"/><path class="cls-2" d="M177.14,55l-1-2.44h.8l.58,1.66.59-1.66h.72l-1,2.44v1.21h-.76Z"/><path class="cls-2" d="M181.28,54.85v.48c0,.59-.39.92-1.14.92s-1.13-.33-1.13-.92V53.44c0-.59.38-.92,1.13-.92s1.14.33,1.14.92v.35h-.72V53.4c0-.26-.15-.36-.4-.36s-.39.1-.39.36v2c0,.26.15.35.39.35s.4-.09.4-.35v-.52Z"/><path class="cls-2" d="M182.51,56.21h-.76V52.56h.76v1.56h.87V52.56h.78v3.65h-.78V54.64h-.87Z"/><path class="cls-2" d="M184.71,52.56h.77v3.65h-.77Z"/><path class="cls-2" d="M188.5,56.21h-.77l-.13-.66h-.94l-.13.66h-.7l.78-3.65h1.11Zm-1.74-1.16h.73l-.36-1.84Z"/><path class="cls-2" d="M188.37,52.56h2.36v.52h-.8v3.13h-.76V53.08h-.8Z"/><path class="cls-2" d="M192.66,56.21a.9.9,0,0,1-.07-.45v-.57c0-.34-.15-.47-.5-.47h-.26v1.49h-.77V52.56h1.16c.79,0,1.13.28,1.13.84v.29a.71.71,0,0,1-.5.74.7.7,0,0,1,.5.77v.56a.83.83,0,0,0,.09.45Zm-.83-3.13V54.2h.3c.28,0,.45-.09.45-.38v-.36c0-.26-.11-.38-.39-.38Z"/><path class="cls-2" d="M193.85,52.56h.77v3.65h-.77Z"/><path class="cls-2" d="M197.39,54.85v.48c0,.59-.39.92-1.14.92s-1.14-.33-1.14-.92V53.44c0-.59.39-.92,1.14-.92s1.14.33,1.14.92v.35h-.72V53.4c0-.26-.16-.36-.4-.36s-.4.1-.4.36v2c0,.26.16.35.4.35s.4-.09.4-.35v-.52Z"/><path class="cls-3" d="M365.36,300.86c6.17-7.35,7-18.72,6-28.49-1.28-12.29-12.71-16.56-24.24-16.59-18.22-.05-21.87,11.83-22.3,16-.14,1.24-.8,6.61-.8,6.61-.15.73-.79,4,.42,4.79a1.48,1.48,0,0,1,.78,1.45l-1.94,9.69a2.22,2.22,0,0,0,2.16,2.65H327c-.47,0,.7,13.27,1,14.76a3.37,3.37,0,0,0,3.77,2.57l9.35-.85-.83,8.4,26.6-.07Z"/><path class="cls-12" d="M352.62,268.94a2.65,2.65,0,1,0-4.22,2.13l-.69,8.11h4.52l-.69-8.11A2.66,2.66,0,0,0,352.62,268.94Z"/><path class="cls-13" d="M302.81,268.87a8.12,8.12,0,0,0,15.91,2.27h11.67v7.72h3.3v-7.72h.9v7.72h6.59v-7.72h2.45v-4.55H318.72a8.12,8.12,0,0,0-15.91,2.28Zm4,0a4.15,4.15,0,1,1,4.15,4.14A4.15,4.15,0,0,1,306.78,268.87Z"/><path class="cls-14" d="M340.93,75.89l-3-9.48a1.46,1.46,0,0,1,.78-1.45c1.2-.77.57-4.06.41-4.79,0,0-.66-5.36-.8-6.6-.43-4.21-4.07-16.08-22.29-16-11.54,0-23,4.3-24.24,16.6-1,9.76.69,17.12,6,28.49l-1.6,20.77H322.7l-.81-8.16,9.36.86A3.37,3.37,0,0,0,335,93.51c.34-1.48,1.5-14.75,1-14.75l2.72-.21A2.23,2.23,0,0,0,340.93,75.89Z"/><path class="cls-15" d="M299.45,70.43,301.52,64a1,1,0,0,0-.53-1c-.82-.53-.39-2.76-.28-3.25,0,0,.45-3.64.54-4.49.29-2.85,2.76-10.91,15.13-10.88,7.83,0,15.59,2.92,16.45,11.26.69,6.63-.46,11.62-4.06,19.34l1.08,14.1h-18l.55-5.54-6.35.58a2.27,2.27,0,0,1-2.55-1.74c-.24-1-1-10-.71-10l-1.84-.14A1.51,1.51,0,0,1,299.45,70.43Z"/><path class="cls-12" d="M352.09,190.44a42.13,42.13,0,0,0-.71,12.32c-1,.14-4.71.28-5.73.42-.66-3.11.68-6.09-1-8.72a1,1,0,0,0-.08-.14c-.13-.19-.29-.4-.51-.43s-.4.07-.57,0-.18-.53-.05-.8a28.9,28.9,0,0,1,2.3-3.86c.17-.25.35-.5.53-.74l.71-.9a1.44,1.44,0,0,1,.43-.42,1.73,1.73,0,0,1,.81-.2,10.29,10.29,0,0,1,1.11,0,7.13,7.13,0,0,1,1.21.21,8,8,0,0,1,2.1.85C352.44,188.83,352.25,189.63,352.09,190.44Z"/><path class="cls-16" d="M347,192.22a4.62,4.62,0,0,1-1.53,1.7c-.27.19-.55.37-.83.54-3.83,2.26-8.74,2-13.21,1.32a9.91,9.91,0,0,1-4.65-1.6,3.77,3.77,0,0,1-1.44-4.14l.11-.26a4.74,4.74,0,0,1,2.66-2,23.15,23.15,0,0,1,6.65-1.36c.88-.07,1.77-.11,2.66-.13l1.52,0a16.82,16.82,0,0,1,4.13.38,6.64,6.64,0,0,1,1.28.43,5.13,5.13,0,0,1,1.91,1.37,4,4,0,0,1,.26.32,4.25,4.25,0,0,1,.39.66A3.35,3.35,0,0,1,347,192.22Z"/><path class="cls-17" d="M382.58,166.17a9.6,9.6,0,0,1-.32,1.41,1.87,1.87,0,0,1-.07.22c-1.63,5-5.89,7.72-10.75,9.07-.52.15-1.06.28-1.6.4-1,.23-2.12.4-3.19.53l-1.37.15c-1.25.1-2.47.16-3.64.19h-1.58a.24.24,0,0,1,.22.15,3,3,0,0,1,.09,1.36,18.35,18.35,0,0,1-.39,2.48c-.09.46-.2.92-.3,1.37-.32,1.33-.69,2.61-1,3.45a4.65,4.65,0,0,1-.4.92l-.28.35a6.46,6.46,0,0,1-5.92,2.22,37.81,37.81,0,0,1-5.16-1l-.86-.18a1.65,1.65,0,0,0-.32-.06c-.6-.11-1.22-.2-1.83-.26q-.66-.06-1.35-.09a61.53,61.53,0,0,0-9.63.65l-1.67.19c-1.5.17-3,.29-4.48.33-.46,0-.94,0-1.43,0a11.69,11.69,0,0,1-4.13-.72,5.53,5.53,0,0,1-1.46-.83,4.36,4.36,0,0,1-.76-.73,10.82,10.82,0,0,1-2-3.63c-.06-.19-.12-.37-.17-.56-.13-.46-.23-.92-.32-1.39a19.92,19.92,0,0,1-.3-2.4,23,23,0,0,1,.2-4.62,20.08,20.08,0,0,1,.42-2.16,25.23,25.23,0,0,1,1.61-4.74,27.56,27.56,0,0,1,1.81-3.39c.26-.43.54-.84.82-1.24a29.33,29.33,0,0,1,4.42-5l.47-.41c.6-.51,1.21-1,1.83-1.47.8-.6,1.64-1.16,2.49-1.69a38.39,38.39,0,0,1,7.54-3.53c.42-.15.84-.29,1.27-.42,1.05-.33,2.11-.62,3.18-.86.47-.12.94-.21,1.41-.3,1.15-.24,2.3-.42,3.45-.57a71.13,71.13,0,0,1,14.11-.36c1.28.09,2.56.24,3.82.44a36.46,36.46,0,0,1,10.28,3c.61.3,1.22.61,1.81.95l.4.24a9.92,9.92,0,0,1,3.31,3.44,12,12,0,0,1,1.21,2.74,10.42,10.42,0,0,1,.35,1.33A13.54,13.54,0,0,1,382.58,166.17Z"/><g class="cls-18"><path class="cls-19" d="M325.6,183.87l-1.07.56a17.4,17.4,0,0,0-1.55.86,4.47,4.47,0,0,0-1.32,1.2,3.53,3.53,0,0,0-.43,2.83,5.53,5.53,0,0,1-1.46-.83,4.53,4.53,0,0,1,.79-2.77,4.77,4.77,0,0,1,.69-.79,11.11,11.11,0,0,1,2.67-1.7l1-.54c1.26-.71,2.53-1.94,2.3-3.25a3.46,3.46,0,0,0-1.76-2.11c-.28-.18-.58-.34-.87-.5a10.52,10.52,0,0,1-2.1-1.4,3.44,3.44,0,0,1-1-3.84.67.67,0,0,1,.9-.32.69.69,0,0,1,.32.89,2.14,2.14,0,0,0,.71,2.28,8.35,8.35,0,0,0,1.82,1.21c.3.17.62.34.93.53a4.58,4.58,0,0,1,2.38,3C328.85,180.91,327.74,182.66,325.6,183.87Z"/><path class="cls-19" d="M324.32,179.8a3.88,3.88,0,0,1-2.87,1.55l-.7.09a5.58,5.58,0,0,0-1.85.42,3.56,3.56,0,0,0-1.66,1.85c-.07.14-.13.28-.19.42-.06-.19-.12-.37-.17-.56-.13-.46-.23-.92-.32-1.39a4.35,4.35,0,0,1,1.77-1.54,6.53,6.53,0,0,1,2.25-.53l.67-.09a2.68,2.68,0,0,0,1.94-.94.67.67,0,0,1,1.13.72Z"/><path class="cls-19" d="M318.58,177.45a.64.64,0,0,0,.4.13.65.65,0,0,0,.54-.27.68.68,0,0,0-.15-.95,7.3,7.3,0,0,1-2.49-3.36,19.79,19.79,0,0,0-.42,2.17A8.67,8.67,0,0,0,318.58,177.45Z"/><path class="cls-19" d="M333.7,180.61a7.06,7.06,0,0,0-1.75-3.5c-.24-.3-.47-.61-.69-.92a18.79,18.79,0,0,1-1.58-3.1c-.28-.63-.57-1.28-.89-1.91-1.16-2.26-2.62-3.68-4.33-4.22a4.64,4.64,0,0,0-3.69.44,3.38,3.38,0,0,0-1.67,2.3.67.67,0,1,0,1.32.25,2.07,2.07,0,0,1,1-1.39,3.28,3.28,0,0,1,2.59-.32,6.54,6.54,0,0,1,3.54,3.55c.3.6.58,1.23.85,1.84a20.46,20.46,0,0,0,1.71,3.32c.23.33.48.65.73,1a5.92,5.92,0,0,1,1.48,2.81,3.64,3.64,0,0,1-1.19,2.84,12.33,12.33,0,0,1-3,2,.67.67,0,0,0,.33,1.26.66.66,0,0,0,.32-.08,14,14,0,0,0,3.27-2.23A5,5,0,0,0,333.7,180.61Z"/><path class="cls-19" d="M382.47,161.14a5.19,5.19,0,0,1-1.81.38,7.48,7.48,0,0,1-3.64-.8,18.12,18.12,0,0,1-4.14-3.22l-.84-.78a9.84,9.84,0,0,0-5-2.85,5.47,5.47,0,0,0-5.4,2.78,12.21,12.21,0,0,0-.8,2.23c-.13.49-.27,1-.45,1.48a5.47,5.47,0,0,1-2.22,2.95c.32.37.62.76.91,1.15a.67.67,0,0,1-.15.94.65.65,0,0,1-.39.13.68.68,0,0,1-.55-.28,19.27,19.27,0,0,0-23.41-6.35,3.56,3.56,0,0,1,1.34,2.13,3.36,3.36,0,0,1-.48,2.26,4.43,4.43,0,0,1-1.06,1.15,8.4,8.4,0,0,1-2.78,1.28h0c.26.6.46,1.21.66,1.81s.33,1,.52,1.5a7.14,7.14,0,0,0,.7,1.28,3.61,3.61,0,0,0,1.34,1.23,6.43,6.43,0,0,1,8.42-4.58,12,12,0,0,1,2.84,1.6c.39.28.79.55,1.2.79.82.51,2.4,1.25,3.72.69a.66.66,0,0,1,.27-.06.68.68,0,0,1,.62.4.67.67,0,0,1-.35.89c-1.38.6-3.14.33-4.95-.76-.45-.26-.87-.56-1.27-.84a11.14,11.14,0,0,0-2.53-1.44,5.12,5.12,0,0,0-6.79,4.31,4.72,4.72,0,0,0,0,1.3,11.16,11.16,0,0,0,1.53,3.65c.23.41.46.81.67,1.21,1.2,2.31,1.4,4.37.61,6a4.89,4.89,0,0,1-1.09,1.41,3.36,3.36,0,0,1-.29.24,14.21,14.21,0,0,1-2,1.32c-.36.2-.72.4-1.06.62a5.47,5.47,0,0,0-1.4,1.26l-1.67.19a6.26,6.26,0,0,1,2.35-2.59l1.11-.65,0,0,.56-.33a5.5,5.5,0,0,0,2.27-2.06c.76-1.49.09-3.4-.6-4.73-.2-.39-.41-.78-.64-1.16a12.24,12.24,0,0,1-1.69-4.12,6,6,0,0,1-.06-1.11v0a5.8,5.8,0,0,1-3.1-3.37c-.21-.53-.39-1.07-.55-1.58a11.84,11.84,0,0,0-1.06-2.57c-.65-1-1.89-1.93-3-1.6a.67.67,0,1,1-.39-1.28c1.79-.55,3.53.63,4.45,2a8,8,0,0,0,2.62-1.13,2.33,2.33,0,0,0,1-2.11c-.12-.7-.73-1.35-1.8-1.93a10.87,10.87,0,0,0-6.78-1.12c.6-.51,1.21-1,1.83-1.47a12.07,12.07,0,0,1,5.44,1.33.65.65,0,0,1,.22-.18,20.73,20.73,0,0,1,5-1.61,8.63,8.63,0,0,0-.65-4.76c.42-.15.84-.29,1.27-.42a10.1,10.1,0,0,1,.77,5h0a20.66,20.66,0,0,1,7.56.48,21,21,0,0,1,9.78,5.73,4.19,4.19,0,0,0,1.87-2.39c.17-.44.29-.9.43-1.39a12.72,12.72,0,0,1,.9-2.5,6.86,6.86,0,0,1,6.77-3.47,11.08,11.08,0,0,1,5.72,3.18l.86.8a16.49,16.49,0,0,0,3.83,3,6,6,0,0,0,3.2.65,3.8,3.8,0,0,0,1.29-.35A10.42,10.42,0,0,1,382.47,161.14Z"/><path class="cls-19" d="M323.7,165.61a.65.65,0,0,0,.64-.46.67.67,0,0,0-.42-.85,17.19,17.19,0,0,0-2.79-.68c-.29.41-.57.83-.83,1.25a15.31,15.31,0,0,1,3.19.71Z"/><path class="cls-19" d="M361.64,178.14h-1.36a14.43,14.43,0,0,0-.36-3.46.66.66,0,0,1,.5-.8.67.67,0,0,1,.81.5A15.93,15.93,0,0,1,361.64,178.14Z"/><path class="cls-19" d="M382.58,166.17a9.6,9.6,0,0,1-.32,1.41,14.28,14.28,0,0,1-1.46.08,13.33,13.33,0,0,1-2.35-.21,13.67,13.67,0,0,1-9.12-5.86l-.22-.36a5.88,5.88,0,0,0-.9-1.2,1.36,1.36,0,0,0-1.24-.38c-.5.19-.74.91-1,1.67-.33,1-.69,2.14-1.85,2.52a.67.67,0,1,1-.42-1.28c.48-.15.69-.73,1-1.66a3.44,3.44,0,0,1,1.8-2.51,2.6,2.6,0,0,1,2.61.66,6.56,6.56,0,0,1,1.13,1.47l.21.34a12.37,12.37,0,0,0,8.72,5.34A11.74,11.74,0,0,0,382.58,166.17Z"/><path class="cls-19" d="M378.34,170.69a4.69,4.69,0,0,1-2.67,2.59,5,5,0,0,1-1.88.37,4.4,4.4,0,0,1-1.84-.39,5.66,5.66,0,0,1-1.28-.81c-.4-.33-.78-.69-1.14-1s-.54-.54-.83-.78-1.78-1.43-3-.95a.69.69,0,0,1-.49,0,8,8,0,0,1-2.07,1.31,10.22,10.22,0,0,1,1.35,1.76A17.82,17.82,0,0,1,366,176l.18.54c.15.44.29.86.45,1.27l-1.37.15c-.14-.33-.24-.66-.36-1l-.18-.52a13.7,13.7,0,0,0-2-3.95,7.82,7.82,0,0,0-1.22-1.22l0,0a4.88,4.88,0,0,0-5.25-.7s0,0,0,0v.11a5.27,5.27,0,0,1-.21,1.78l.07.09a11.12,11.12,0,0,1-.12,9.43,15.71,15.71,0,0,0,4.05.17c-.09.46-.2.92-.3,1.37-.33,0-.66,0-1,0a17.92,17.92,0,0,1-3.93-.43,18.78,18.78,0,0,1-2.62-.79,17.47,17.47,0,0,1-4.43-2.5.67.67,0,1,1,.83-1.06,16.22,16.22,0,0,0,4.71,2.52,12.17,12.17,0,0,0,1.3.4,9.75,9.75,0,0,0,.62-7.69c-.11.13-.2.26-.31.37a7.36,7.36,0,0,1-4.2,1.77,29.67,29.67,0,0,1-4.62.36c-.63,0-1.25,0-1.88-.07v0a20.2,20.2,0,0,1,.45,2.75c0,.43.09.86.16,1.3a8,8,0,0,0,1,3.1,4.92,4.92,0,0,0,.63.72,3.57,3.57,0,0,0,.84.6h0a10.42,10.42,0,0,0,3.26.91c2.7.44,5.44.82,8.18,1.14a4.65,4.65,0,0,1-.4.92l-.28.35c-2.5-.29-5-.64-7.46-1l-.26,0-1-.17a7.54,7.54,0,0,1-3.79-1.63l-.07-.06c-.07-.07-.15-.14-.21-.21-.07.12-.14.25-.2.38a10.78,10.78,0,0,0-.7,1.64,11.61,11.61,0,0,0-.45,1.85q-.66-.06-1.35-.09a12.47,12.47,0,0,1,.52-2.19q.17-.48.36-1a12.54,12.54,0,0,1,1-1.81,9.63,9.63,0,0,1-1-3.23c-.07-.44-.11-.89-.16-1.34a14.38,14.38,0,0,0-.58-3.16c0-.08-.06-.15-.09-.24a3.84,3.84,0,0,0-2.57-2.49.68.68,0,0,1-.54-.78.67.67,0,0,1,.79-.54,5,5,0,0,1,3.39,2.91,28,28,0,0,0,6.78-.24,6.23,6.23,0,0,0,3.46-1.39,3.45,3.45,0,0,0,.9-1.9,4.45,4.45,0,0,0-.34-2.45,6.91,6.91,0,0,0-3.61-3.29,22.2,22.2,0,0,0-5.12-1.35c-2.84-.52-5.36-.86-7.53.14a.66.66,0,0,1-.89-.33.69.69,0,0,1,0-.64.62.62,0,0,1,.28-.25c2.73-1.27,5.84-.7,8.34-.25a23.41,23.41,0,0,1,5.44,1.45,8.3,8.3,0,0,1,4.28,4,6.07,6.07,0,0,1,.25.67h0a6.28,6.28,0,0,1,6,.81,6.5,6.5,0,0,0,4.54-5.13.67.67,0,1,1,1.33.21,7.57,7.57,0,0,1-1.3,3.17,5.29,5.29,0,0,1,3,1.39c.3.27.59.55.88.84a8.3,8.3,0,0,0,1.9,1.52l.14.07a3.6,3.6,0,0,0,4.58-1.84.67.67,0,0,1,1.25.49Z"/><path class="cls-19" d="M371.44,176.87c-.52.15-1.06.28-1.6.4a17.8,17.8,0,0,1-2.22-2.52.65.65,0,0,1,.14-.93.67.67,0,0,1,.94.14A15.76,15.76,0,0,0,371.44,176.87Z"/><path class="cls-19" d="M346.28,153a11,11,0,0,0,4.06-.26l1-.19c1.8-.3,3.16-.1,4,.58a13.06,13.06,0,0,0-1.5,2.19.68.68,0,0,0,.27.92.71.71,0,0,0,.31.08.68.68,0,0,0,.6-.35,13.15,13.15,0,0,1,10-6.54c-1.26-.2-2.54-.34-3.82-.44a14.69,14.69,0,0,0-5,3.16c-1.17-1-2.92-1.3-5.17-.93l-1.07.2a9.71,9.71,0,0,1-3.56.25,4.52,4.52,0,0,1-2.8-1.76c-.47.09-.94.19-1.41.31l.14.23A5.92,5.92,0,0,0,346.28,153Z"/><path class="cls-19" d="M376.91,157.19h0a.68.68,0,0,0,.68-.65,10.38,10.38,0,0,0-.41-3.14c-.59-.35-1.19-.66-1.81-1a8.89,8.89,0,0,1,.87,4.06A.66.66,0,0,0,376.91,157.19Z"/></g><path class="cls-20" d="M382.58,166.17a9.6,9.6,0,0,1-.32,1.41,1.87,1.87,0,0,1-.07.22c-1.63,5-5.89,7.72-10.75,9.07-.52.15-1.06.28-1.6.4-1,.23-2.12.4-3.19.53l-1.37.15c-1.25.1-2.47.16-3.64.19h-1.58a.24.24,0,0,1,.22.15,3,3,0,0,1,.09,1.36,18.35,18.35,0,0,1-.39,2.48c-.09.46-.2.92-.3,1.37-.32,1.33-.69,2.61-1,3.45a4.65,4.65,0,0,1-.4.92l-.28.35a6.46,6.46,0,0,1-5.92,2.22,42.13,42.13,0,0,0-.71,12.32c-1,.14-4.71.28-5.73.42-.66-3.11.68-6.09-1-8.72-3.83,2.26-8.74,2-13.21,1.32a9.91,9.91,0,0,1-4.65-1.6,3.77,3.77,0,0,1-1.44-4.14,11.69,11.69,0,0,1-4.13-.72,5.53,5.53,0,0,1-1.46-.83,4.36,4.36,0,0,1-.76-.73,10.82,10.82,0,0,1-2-3.63c-.06-.19-.12-.37-.17-.56l.36.14a30.31,30.31,0,0,0,4,1.22l.54.12c.4.09.79.17,1.19.24a48.14,48.14,0,0,0,4.93.63c.74.05,1.47.09,2.21.12,1.74.08,3.48.08,5.22.07l2,0h.4a49.49,49.49,0,0,0,5.72-.36c.55-.07,1.09-.15,1.62-.25l.48-.11a16.16,16.16,0,0,0,1.69-.45h0a.29.29,0,0,0,.1,0,14.21,14.21,0,0,0,4.79-2.56,9.11,9.11,0,0,0,1.11-1,9.71,9.71,0,0,0,1.75-2.58,8,8,0,0,0,.66-2.27,7.93,7.93,0,0,0-.85-4.92,6,6,0,0,0-1.71-2l1.7.63,1.39.5a43.47,43.47,0,0,0,6.53,1.83c.59.11,1.2.2,1.81.26.36.05.72.08,1.08.1a17.24,17.24,0,0,0,5.06-.4,13.36,13.36,0,0,0,6.8-3.75,9.8,9.8,0,0,0,1-1.25,10.45,10.45,0,0,0,.73-1.25,15.32,15.32,0,0,0,1.48-4.68c.07-.45.13-.9.17-1.36a22.78,22.78,0,0,0,.08-3.09,12,12,0,0,1,1.21,2.74,10.42,10.42,0,0,1,.35,1.33A13.54,13.54,0,0,1,382.58,166.17Z"/><path class="cls-21" d="M395.09,195.11c1.27,1.19,1.06,3.51-.53,5.1h0c-1.6,1.6-3.91,1.8-5.1.53l-16.52-17.47a3.26,3.26,0,0,1,.15-4.53h0a3.25,3.25,0,0,1,4.53-.14Z"/><path class="cls-22" d="M350.45,156.1a13.5,13.5,0,1,1,0,19.08A13.49,13.49,0,0,1,350.45,156.1Z"/><rect class="cls-23" x="368.35" y="175.48" width="7.22" height="4.26" rx="1.69" transform="translate(-16.65 315.04) rotate(-45)"/><path class="cls-24" d="M348,153.67a16.93,16.93,0,1,1,0,23.94A16.92,16.92,0,0,1,348,153.67Zm21.51,2.42a13.5,13.5,0,1,0,0,19.1A13.49,13.49,0,0,0,369.53,156.09Z"/><path class="cls-25" d="M364.93,157.9l1.83-2.58a11.79,11.79,0,0,0-9.92-1.77l.82,3A8.64,8.64,0,0,1,364.93,157.9Z"/><path class="cls-21" d="M348,153.67a16.93,16.93,0,1,1,0,23.94A16.92,16.92,0,0,1,348,153.67Zm21.51,2.42a13.5,13.5,0,1,0,0,19.1A13.49,13.49,0,0,0,369.53,156.09Z"/><path class="cls-26" d="M391.54,191.76l3.55,3.35c1.27,1.19,1.06,3.51-.53,5.1s-3.91,1.8-5.1.53q-6-6.39-12.08-12.77A42,42,0,0,0,391.54,191.76Z"/><path class="cls-14" d="M54.87,271.4a3.48,3.48,0,0,0,2.92,4l6,.89,1-6.86-6-.89A3.46,3.46,0,0,0,54.87,271.4Z"/><path class="cls-8" d="M63.85,270.07l-5.21-.78a2.67,2.67,0,0,0-3,2.24c0,.07,0,.13,0,.2,2.19-1.19,5-1.24,8.07-.93Z"/><path class="cls-27" d="M70.32,277.22a3.47,3.47,0,1,0,1-6.86l-6.56-1-1,6.86Z"/><rect class="cls-21" x="30.29" y="218.58" width="21.89" height="60.22"/><rect class="cls-17" x="29.06" y="214.34" width="24.35" height="4.23"/><rect class="cls-27" x="30.29" y="234.29" width="21.89" height="23.73"/><rect class="cls-19" x="32.98" y="236.64" width="13.98" height="1.74"/><rect class="cls-19" x="32.98" y="240.73" width="6.23" height="1.74"/><rect class="cls-19" x="32.98" y="248.91" width="12.47" height="1.74"/><rect class="cls-19" x="32.98" y="252.99" width="8.97" height="1.74"/><rect class="cls-4" x="30.29" y="218.58" width="21.89" height="5.6"/><rect class="cls-28" x="32.36" y="219.84" width="4.29" height="55.44"/><path class="cls-14" d="M48.9,275.85a3.48,3.48,0,0,0,3.46,3.48h6l0-6.93-6,0A3.47,3.47,0,0,0,48.9,275.85Z"/><path class="cls-8" d="M57.6,273.22H52.33a2.67,2.67,0,0,0-2.61,2.64c0,.07,0,.14,0,.21,2-1.51,4.8-2,7.85-2.1Z"/><path class="cls-29" d="M65,279.36a3.47,3.47,0,0,0,0-6.94H58.42l0,6.93Z"/><path class="cls-14" d="M80.58,278.49a3.46,3.46,0,0,1-3.44,3.5l-6,.05,0-6.93,6-.05A3.46,3.46,0,0,1,80.58,278.49Z"/><path class="cls-8" d="M71.87,275.92l5.27-.05a2.67,2.67,0,0,1,2.62,2.63,1.49,1.49,0,0,1,0,.21c-2-1.49-4.81-1.94-7.86-2.06Z"/><path class="cls-27" d="M64.47,282.1a3.47,3.47,0,0,1-.06-6.94l6.64-.05,0,6.93Z"/><path class="cls-14" d="M43.61,285.54A3.47,3.47,0,0,0,47.05,289l6,.05.06-6.93-6,0A3.47,3.47,0,0,0,43.61,285.54Z"/><path class="cls-8" d="M52.32,283l-5.27,0a2.66,2.66,0,0,0-2.62,2.62c0,.07,0,.14,0,.21,2-1.49,4.81-1.93,7.87-2.05Z"/><path class="cls-27" d="M59.72,289.14a3.47,3.47,0,1,0,.06-6.94l-6.63-.05-.06,6.93Z"/><path class="cls-3" d="M296.22,237.6a7.57,7.57,0,0,1-6.67,4l-9.32.72c.47,0,.47,3.82.19,9.38-.65,13.62-2.92,37.65-3.75,41.27a12.16,12.16,0,0,1-.67,2,11.52,11.52,0,0,1-12.27,6.82l-32.11-2.93,2.78,28H143.23l.43-5.59.47-6.17.43-5.59.47-6.17.43-5.59.48-6.17.43-5.59.47-6.17.43-5.58.13-1.64c.11-1.52.17-3,.16-4.54a55,55,0,0,0-3.4-18.61,53,53,0,0,0-2.59-6c-.77-1.53-1.51-3.1-2.23-4.67-.57-1.3-1.13-2.59-1.66-3.92h0A146.34,146.34,0,0,1,128,194.37s0,0,0,0,0,0,0-.05v0c0-.3-.06-.59-.08-.9h0a.53.53,0,0,1,0-.13c0-.14,0-.28,0-.42h0c-.06-.54-.1-1.08-.13-1.62h0c-.07-.67-.11-1.35-.15-2,0-.31-.06-.64-.07-1-.12-1.73-.2-3.45-.25-5.18a183.57,183.57,0,0,1,.89-25.22c4.38-42.2,43.6-56.85,83.2-57,62.55-.16,75.07,40.61,76.54,55,.47,4.27,2.74,22.68,2.74,22.68.48,2.23,2.25,11.37-.26,15.25a4.06,4.06,0,0,1-1.17,1.2s-3.3,1.78-2.67,5l.25.78h0L297,232.52A7.52,7.52,0,0,1,296.22,237.6Z"/><rect class="cls-5" x="129.35" y="268.11" width="84.28" height="11.76"/><rect class="cls-5" x="116.25" y="279.87" width="84.28" height="11.76"/><rect class="cls-5" x="103.14" y="291.62" width="84.28" height="11.76"/><rect class="cls-5" x="90.03" y="303.38" width="84.28" height="11.76"/><rect class="cls-5" x="76.92" y="315.14" width="84.28" height="11.76"/><rect class="cls-4" x="129.35" y="274.28" width="84.28" height="5.59"/><rect class="cls-4" x="116.25" y="286.03" width="84.28" height="5.59"/><rect class="cls-4" x="103.14" y="297.79" width="84.28" height="5.59"/><rect class="cls-4" x="90.03" y="309.55" width="84.28" height="5.59"/><rect class="cls-4" x="76.92" y="321.31" width="84.28" height="5.59"/><path class="cls-12" d="M238.68,268.11H169.54V129.05h69.14c-21.14,10.58-15.57,122.86-2.78,137.49A3.8,3.8,0,0,0,238.68,268.11Z"/><path class="cls-30" d="M124.6,273.37l-.07.15-.22.48-.42.93-.19.42-.6-.15a8.2,8.2,0,0,1-3.69-1.71l.33-1,2.58.48.45.09,1.77.33Z"/><path class="cls-30" d="M137.81,278.09l-.52,1.27c-3,.14-7.41-1.2-12.82-4.11l-.58-.32-1-.54c-1-.59-2.09-1.23-3.18-1.93l0,0,.42-1,0-.12.15-.37h0l1.77.73.58.24,1.82.75Z"/><path class="cls-31" d="M120.18,271.39a8.82,8.82,0,0,0,2.14,1.55c.59.35,1.26.71,2,1.06l.2.1c4.83,2.34,11.92,4.75,13.3,4,.36-.87-.78-2.3-3.06-4.18l-.71-.56-.54-.42-.74-.56h0l-.54-.4h0l-.79-.56-1-.68-1.09-.74a9.63,9.63,0,0,0-4.45-1.82,4.14,4.14,0,0,0-3.64,1.45,5.56,5.56,0,0,0-.86,1.29c-.07.13-.12.25-.17.36Z"/><rect class="cls-32" x="151.73" y="178.56" width="26.23" height="19.02" transform="translate(-51.3 313.87) rotate(-78.97)"/><rect class="cls-30" x="162.17" y="195.54" width="5.3" height="11.3" transform="translate(-64.19 324.47) rotate(-78.97)"/><path class="cls-33" d="M164.1,208,161,214.67l-.91,1.94-1.36,2.89-9.53,20.3L132.48,272h-.23l-10.61-.58h0l-1.43-.08h0l-1.6-.09c1.13-3,3.31-8,6.12-13.64,4.32-8.72,10.12-19.1,15.76-26.61l4.65-20.94,1-4.5.07-.3a10.47,10.47,0,0,1,8.72-8.53c.16,0,.33,0,.5-.06l.26.29,2.43,2.85,1.22,1.42,2.18,3.11Z"/><path class="cls-30" d="M192.5,265.7l-.51.37c-.2.15-.4.28-.61.42a6.7,6.7,0,0,1-3,1.34l-.58-.9,2-1.69.18-.15.17-.14,1.38-1.16,0,0,.07.15.23.48.45.92Z"/><path class="cls-30" d="M204.23,257.77c-1.81,2.42-5.63,5-11.33,7.27l-.61.26-1,.4-.53.2c-.95.35-1.94.68-3,1l0-.05-.52-1-.06-.11-.19-.35h0l1.69-.91.54-.28h0l1.73-.93,12.64-6.73h0Z"/><path class="cls-31" d="M203.59,256.57h0c-.3,1.55-6.66,5.48-11.54,7.72l-.2.09c-.65.29-1.27.55-1.84.77l-.24.09a9.37,9.37,0,0,1-2.56.66l-.06-.11-.17-.36a5.84,5.84,0,0,1-.45-1.49,3.55,3.55,0,0,1-.05-.57,3.87,3.87,0,0,1,.53-2.22,4.67,4.67,0,0,1,.72-.95,9.73,9.73,0,0,1,4.24-2.26l1.26-.38c.39-.11.77-.22,1.15-.31l.46-.13.48-.13.65-.16h0l.91-.22.66-.15.89-.18C201.32,255.71,203.15,255.74,203.59,256.57Z"/><path class="cls-33" d="M181.07,167.91c-.23.76-1.4,6-2.88,12.71-.15.67-.3,1.34-.45,2-2.37,10.75-4.91,22.16-6.22,28.1-.28,1.22-.47,2.12-.58,2.6l-2.81-.66a4.32,4.32,0,0,1-3.14-5.43L166.8,201l2.68-9.28L174.54,175l3.11-10.73.42.21,2.62,3Z"/><path class="cls-13" d="M194.91,257.07l-.08.05-7,5.26-1.32,1-1.88,1.39c-4.32-8.72-7.06-28.22-9.49-41.82l-15-6.33-8.91-3.75a10.84,10.84,0,0,1-2.07-1.59,10.53,10.53,0,0,1-3-5.71,10.78,10.78,0,0,1-.13-2.27,10.36,10.36,0,0,1,.31-2.06l1.67-6.56L160,197l2.75,2.18,2.65,2.12,1.1.87,2.62,2.08,3.28,2.61,13.83,11Z"/><path class="cls-34" d="M205,193.57l-2.37-.31c.17-1.51.38-3,.53-4.52l2.3.29.23-.37a2.65,2.65,0,0,1,1.82-1.13c.19,0,2.62-.09,2.73-.09h0l-.18,1.15,2.61.34c-.22,2.47-.51,4.16-.89,6.4l-3-.13C206.5,195.06,205.63,194.57,205,193.57Z"/><path class="cls-35" d="M211,191.88a.93.93,0,0,1-.63-.31.77.77,0,0,1-.21-.62v-.15a.87.87,0,0,1,1-.73l2.35.23a.93.93,0,0,1,.59.29.77.77,0,0,1,.19.58l0,.32a.76.76,0,0,1-.86.63Z"/><path class="cls-35" d="M210.89,190.07a1,1,0,0,1-.63-.32.8.8,0,0,1-.21-.62l0-.15a.86.86,0,0,1,1-.73l2.34.23a.93.93,0,0,1,.59.29.73.73,0,0,1,.19.59l0,.31a.76.76,0,0,1-.86.64Z"/><path class="cls-35" d="M210.56,193.63a.89.89,0,0,1-.83-.93l0-.16a.79.79,0,0,1,.33-.56,1,1,0,0,1,.68-.17l1.85.21a.83.83,0,0,1,.77.88l0,.31a.72.72,0,0,1-.29.49.86.86,0,0,1-.59.15Z"/><path class="cls-35" d="M210.42,195.18a.72.72,0,0,1-.63-.8v-.13a.72.72,0,0,1,.79-.64l1.42.16a.66.66,0,0,1,.58.74l0,.28a.63.63,0,0,1-.69.56Z"/><path class="cls-35" d="M210.38,190.44l-.64-.71a.54.54,0,0,0-.41-.18l-.33,0a3,3,0,0,1-3.64,1.89l-.4,2.11-2.41,0c.18-1.65.41-3.28.58-4.93l1.34.22.95.14.23-.37a2.65,2.65,0,0,1,1.82-1.13c.19,0,2.62-.09,2.73-.09h0a.61.61,0,0,1,.41.21l1,1.15.68.77a.59.59,0,0,1,0,.83l-.14.13a1.25,1.25,0,0,1-.9.32A1.2,1.2,0,0,1,210.38,190.44Z"/><polygon class="cls-36" points="205.75 187.94 202.34 187.59 200.97 194.37 204.4 194.6 205.75 187.94"/><path class="cls-33" d="M204.1,187.32l-1.51,7.56-.51,0c-7.37-.47-18.77-.76-20.34-3.32-.08-.07-2-4.12-4-8.86q-.35-.79-.69-1.62c-.88-2-1.76-4.17-2.51-6.09-.62-1.58-1.15-3-1.53-4.21a11.21,11.21,0,0,1-.86-4.89c.33-2,2-2.89,4.11-2.67a10,10,0,0,1,1.61.33,7.48,7.48,0,0,1,3.73,2.55c1.28,1.69,6.22,18.71,6.22,18.71C189.79,185.4,198.3,186.6,204.1,187.32Z"/><path class="cls-37" d="M148.51,194.62c.4-1.25.51-1.73.75-2.35l22.47,7.22a10,10,0,0,1-.76,2.35Z"/><rect class="cls-36" x="163.48" y="197.03" width="1.97" height="2.77" transform="translate(-74.76 294.28) rotate(-72.18)"/><path class="cls-38" d="M148.27,204.11a9.32,9.32,0,0,0,.9.87Z"/><path class="cls-32" d="M146,191.05l21.67,7.13c1-4.51,10.45-33.75,10.45-33.75l-2.94-1.49-8.86-4.51S147.17,187.05,146,191.05Z"/><path class="cls-34" d="M168.66,157.67l3.27-7.54c3.2,1.46,7.5,3.34,8.31,3.54,0,0-2.33,5.5-3.13,7.94C175.87,166.38,170.39,164.9,168.66,157.67Z"/><path class="cls-36" d="M174.08,164.36l2,3.63c1-1.8,1.85-2.77,2-4l-1-2.25A3.12,3.12,0,0,1,174.08,164.36Z"/><path class="cls-36" d="M174.08,164.36l-4.49,3.46c-1.6-3-3.42-7-3.32-9.39l2.74-1.57C168.37,158.85,171.4,163.61,174.08,164.36Z"/><path class="cls-13" d="M171.52,185.75c3.67-5.54,8.35-16.85,8.35-16.85s-2.24-1.75-2-1.9l2.22.43-.74-3.34-2-1.6C175.87,169.76,173.85,177.9,171.52,185.75Z"/><path class="cls-35" d="M169.24,151.77a9.62,9.62,0,0,1-.28-4.21c1.09-8.1,5.63-6.49,8.65-6.18,3.5.51,6.59,3.23,6.23,8.66a9.06,9.06,0,0,1-.49.93l.85,3.14a.87.87,0,0,1-.74,1.1l-.8.13c-.07.55-.25,2.89-.25,2.89-.19,1.37-1,3.46-2.82,3.1-5.23-1-7-3.7-6.15-8.31C172.18,152.74,169.61,153,169.24,151.77Z"/><path class="cls-19" d="M169.77,155.53c4.06,1.56,2.92-4.84,2.92-4.84a27.46,27.46,0,0,1,3.56-.59c-3.43-5.56-2.45-9.82,4.59-7.47,1.09-.95-1.63-2.8-5.29-2.49-4.08.35-7.1,2-8,6C166.92,148.64,166.14,153.5,169.77,155.53Z"/><path class="cls-35" d="M171.75,150.68c-.13,1.27.8,2.85,1.64,2.93s1-1,1.14-2.25c.09-.84.26-2-.63-2.36S171.93,148.81,171.75,150.68Z"/><path class="cls-34" d="M127.38,193h0a.9.9,0,0,1,.62,1.18,28.64,28.64,0,0,0-1,6,1,1,0,0,1-1,.91h0a.9.9,0,0,1-.89-1,30.05,30.05,0,0,1,1-6.32A1.1,1.1,0,0,1,127.38,193Z"/><rect class="cls-35" x="123.96" y="188.54" width="4.62" height="5.06" transform="translate(-102.62 198.95) rotate(-58.51)"/><path class="cls-34" d="M126.81,194.87h0a.86.86,0,0,1,.29,1.19l-3.19,5.3a.87.87,0,0,1-1.19.28h0a.86.86,0,0,1-.29-1.19l3.19-5.29A.86.86,0,0,1,126.81,194.87Z"/><path class="cls-34" d="M124,196.09h0a.85.85,0,0,1,.28,1.18L122.64,200a.86.86,0,0,1-1.18.28h0a.85.85,0,0,1-.28-1.18l1.68-2.75A.86.86,0,0,1,124,196.09Z"/><path class="cls-34" d="M122.66,195h0a.87.87,0,0,1,.28,1.19l-1.41,2.3a.86.86,0,0,1-1.18.28h0a.86.86,0,0,1-.28-1.19l1.4-2.3A.87.87,0,0,1,122.66,195Z"/><path class="cls-34" d="M121.26,194.14h0a.75.75,0,0,1,.25,1l-1.25,2.05a.76.76,0,0,1-1,.25h0a.76.76,0,0,1-.26-1.05l1.25-2.05A.77.77,0,0,1,121.26,194.14Z"/><path class="cls-35" d="M121,193.11l-.81,1.32a.76.76,0,0,0,.26,1h0a.76.76,0,0,0,1-.25l-.14.24a.86.86,0,0,0,.28,1.18h0a.86.86,0,0,0,1.18-.28l-.13.22a.87.87,0,0,0,.28,1.19h0a.86.86,0,0,0,1.19-.29.86.86,0,0,0,.28,1.19h0a.85.85,0,0,0,1.18-.29l1.09-1.78Z"/><path class="cls-35" d="M125.4,190.77l1.45.89a2.53,2.53,0,0,1,.84,3.49l-1.08,1.77-5.79-3.54,1.09-1.77A2.53,2.53,0,0,1,125.4,190.77Z"/><polygon class="cls-36" points="125.06 186.57 130.92 190.48 128.7 193.38 122.95 189.54 125.06 186.57"/><path class="cls-33" d="M159.28,167.87a6.66,6.66,0,0,1-1.1,1.28,51.85,51.85,0,0,1-4.69,3.09l-1.81,1.11c-4.09,2.47-8.54,5.07-8.54,5.07s-.53-.82-1.39-1.88c-1.29-1.61-3.33-3.75-5.4-4.34.11-.16,11.8-8.1,16.44-11.22a8.15,8.15,0,0,1,4.37-1.29l.43,0c2,.16,3.06,1.8,3,3.86A8.09,8.09,0,0,1,159.28,167.87Z"/><path class="cls-33" d="M143.14,178.42c-.91.85-7.55,7.61-11.71,12.39-.55.63-1.05,1.23-1.5,1.77l-.41-.26-.76-.48-4.28-2.69-.86-.54-.37-.24a174.17,174.17,0,0,1,13.1-16.17,7.36,7.36,0,0,1,6.13,3.7A4.85,4.85,0,0,1,143.14,178.42Z"/><path class="cls-2" d="M124.94,187.82a.49.49,0,0,1,0-.7.5.5,0,1,1,.65.75A.49.49,0,0,1,124.94,187.82Z"/><path class="cls-2" d="M125.88,186.36a.5.5,0,1,1,.7,0A.49.49,0,0,1,125.88,186.36Z"/><path class="cls-4" d="M167.41,198.9l2.07-7.16c-2.63-3.42-3.84-8.72-4.36-12.8a62.21,62.21,0,0,1,.15-12.94c-3.24,10.94-5.82,19.73-8.6,30.8Z"/><path class="cls-39" d="M202.08,194.84c-7.37-.47-18.77-.76-20.34-3.32-.08-.07-2-4.12-4-8.86-1.94,8.82-3.86,17.34-5.37,24.21l-3.28-2.61c1.53-2.87,2.07-6.38,2.77-9.63,1.17-5.49,2.63-8.6,5.19-13.59.23-.46.47-.9.72-1.36l.42.94a37.28,37.28,0,0,0,3.34,6.15,14.66,14.66,0,0,0,6,5.16C192.12,193.88,197.67,192.61,202.08,194.84Z"/><path class="cls-39" d="M191.38,266.49a6.7,6.7,0,0,1-3,1.34l-.58-.9,0-.05-.52-1-.06-.11-.19-.35h0a5.84,5.84,0,0,1-.45-1.49,3.55,3.55,0,0,1-.05-.57l-1.88,1.39c-4.32-8.72-7.06-28.22-9.49-41.82l-15-6.33-1.36,2.89a13.34,13.34,0,0,0-7.47,1.46,13.85,13.85,0,0,0-6.85,14.46c-8.94,4.46-13.26,14.45-19.68,22.19,4.32-8.72,10.12-19.1,15.76-26.61l4.65-20.94-2.67-.86c1.15-2,2.33-4,3.53-5.91q2.44-3.94,5-7.75l3.91,1.19.76.23,3,.94,4.07,1.29,4.22,1.35,0,.05-.06.2a3.4,3.4,0,0,1-.09.33c-.05.16-.1.33-.14.5s-.1.35-.14.5a.14.14,0,0,0,0,.06,9.59,9.59,0,0,0-5,2.16,12,12,0,0,0-4,8.19c1.13.74,2.28,1.46,3.45,2.14a82.29,82.29,0,0,0,17.06,7.55,239.71,239.71,0,0,0,3.86,24.12,54.68,54.68,0,0,0,4,12.8c.34.69.7,1.36,1.1,2,.25.42.52.83.79,1.23a19.75,19.75,0,0,0,1.41,1.86c.24.29.49.57.74.85l.06.06c.23.26.48.5.73.75Z"/><path class="cls-33" d="M159.34,195.45c-.12.46-.26.91-.38,1.36s-.21.73-.31,1.09l-.55,1.91c-.76,2.62-1.47,5-2.11,7.17a6.14,6.14,0,0,1-6.89,4.29h0a6.59,6.59,0,0,1-.85-.21l-3.11-1-2.67-.86-.22-.07-3-1c.58-1.9,3-9.27,5.93-17.63,2.27-6.59,4.4-11.56,6.54-17.18.5-1.33,1-2.57,1.43-3.7l.38-1,.6-1.46c1.09-2.64,2-5.12,3.07-7.55,0,0,0,0,0,0l9.09-1.22.39.2C167.8,164.33,163.53,180.65,159.34,195.45Z"/><path class="cls-13" d="M162.67,183.69c.25-6.64.46-19.76.46-19.76s3.14-.53,3-.8l-3-.85,1.77-3.67,3.44-1.38C168.23,165,165.35,176,162.67,183.69Z"/><path class="cls-39" d="M154.15,169.31c-.19,1-.42,2-.66,2.93-1.3,5.19-2.72,8-4.58,13-.64,1.76-1.3,3.52-1.92,5.28l-.26.72a80.6,80.6,0,0,0-4.49,17.84l-3-1c.58-1.9,3-9.27,5.93-17.63,2.27-6.59,4.4-11.56,6.54-17.18-4.09,2.47-8.54,5.07-8.54,5.07-.91.85-7.55,7.61-11.71,12.39a46.21,46.21,0,0,1,10.32-14.27l.73-.64a32.25,32.25,0,0,1,10.63-6.25C153.45,169.52,153.8,169.41,154.15,169.31Z"/><polygon class="cls-21" points="174.35 168.28 172.48 167.92 172.38 165.67 174.08 164.36 175.03 166.08 174.35 168.28"/><path class="cls-21" d="M174.35,168.28l-1.87-.36c-1.5,6-4.15,10.82-8.55,14l.22,4.3,3.82-1.16C172.07,180.45,173.67,174.6,174.35,168.28Z"/><polygon class="cls-40" points="238.68 129.05 235.9 266.54 235.87 267.99 235.42 268.11 199.51 277.82 196.71 276.91 196.71 137.48 230.31 129.05 238.68 129.05"/><polygon class="cls-41" points="238.68 268.11 199.51 277.82 199.51 138.76 238.68 128.93 238.68 268.11"/><path class="cls-12" d="M208.87,200.51a1.82,1.82,0,0,0-2.58-1.78,4,4,0,0,0-2.58,3.5,1.79,1.79,0,0,0,1,1.76l-.67,8.29,4.39-1.46-.67-7.84A3.8,3.8,0,0,0,208.87,200.51Z"/><path class="cls-4" d="M290.37,193.8a4.06,4.06,0,0,1-1.17,1.2s-3.3,1.78-2.67,5l.25.78h0l-17.5,8.37-17.74-13.59Z"/><path class="cls-4" d="M296.22,237.6a7.57,7.57,0,0,1-6.67,4l-9.32.72c.47,0,.47,3.82.19,9.38-7.23-2.22-10.6-4.6-12.59-10.36C279.61,241.42,290.61,241,296.22,237.6Z"/><path class="cls-4" d="M276,295a11.52,11.52,0,0,1-12.27,6.82l-32.11-2.93,2.78,28c-21.26-9.22-33.44-24.25-33.43-47C226.82,292.93,251.77,297.49,276,295Z"/><path class="cls-42" d="M285.9,330.68a2.38,2.38,0,0,0,.79.88l.43.28c-.86,1.36-.17,2.9-.51,4.51-.53-.07-2.44-.15-3-.21a21.66,21.66,0,0,0-.37-6.38,19.49,19.49,0,0,0,2.68-.52A1.73,1.73,0,0,0,285.9,330.68Zm2.15.9.43.28c2,1.17,4.52,1.05,6.83.69a5.3,5.3,0,0,0,2.41-.83,2,2,0,0,0,.74-2.15h-.74c-.77,0-1.54-.08-2.31-.17l-.87-.1a31.1,31.1,0,0,0-5-.33c-.24,0-.47,0-.7,0s-.63.08-.95.13l-.16,0-.45.09a1.74,1.74,0,0,0-.05,1.43A2.41,2.41,0,0,0,288.05,331.58Zm-7.43-6.22a4.43,4.43,0,0,1-.52,0c.17.69.36,1.35.52,1.79,1.41-.17,2.83-.36,4.23-.59a5.39,5.39,0,0,0,1.68-.47h0a2.24,2.24,0,0,0,.43-.31,2,2,0,0,0,.33-.38,4.17,4.17,0,0,0,.52-1.6c0-.22.06-.45.08-.67a10.37,10.37,0,0,1,.23-1.43h0l-1,0a15.92,15.92,0,0,1-2.39-.18,3.89,3.89,0,0,1-2.18-.92l-.15-.19a4.87,4.87,0,0,0-.26,1.26,5.08,5.08,0,0,0,.58,2.72c.22-.06.45-.13.67-.21a8.68,8.68,0,0,0,2.44-1.3.34.34,0,0,1,.49.06.36.36,0,0,1-.07.49,9.06,9.06,0,0,1-2.29,1.29,10.19,10.19,0,0,1-1.36.41A9.13,9.13,0,0,1,280.62,325.36Zm9.71-14.21h0a10.49,10.49,0,0,0-3.91.25,10.77,10.77,0,0,0-5.06,3,2.16,2.16,0,0,1-1-1.24c-.08-.23-.15-.46-.22-.71a6.55,6.55,0,0,0-.47-1.3,3.53,3.53,0,0,0-3.5-1.79,5.71,5.71,0,0,0-3,1.64l-.44.42a9.13,9.13,0,0,1-2,1.54,3.07,3.07,0,0,1-1.66.34,2,2,0,0,1-.67-.18,6.46,6.46,0,0,1,.63-1.42,5,5,0,0,1,1.71-1.78l.21-.12c.3-.18.62-.34.93-.5a18.74,18.74,0,0,1,5.32-1.54l1.18-.16-1.18.16a6.78,6.78,0,0,1,5.19,3.38.37.37,0,0,0,.31.18.29.29,0,0,0,.16,0,.35.35,0,0,0,.14-.48,7.26,7.26,0,0,0-.77-1.13,2.65,2.65,0,0,1,2.08-.3l.53.1a5.49,5.49,0,0,0,2.1.13,3,3,0,0,0,2-1.31s.05-.08.07-.13l-.51-.11.51.11q.84.19,1.65.45A5.16,5.16,0,0,0,290.33,311.15ZM271,309.77a5.19,5.19,0,0,0-.21,1.62.34.34,0,0,0,.34.34h0a.34.34,0,0,0,.34-.36,4.63,4.63,0,0,1,.46-2.1C271.66,309.43,271.34,309.59,271,309.77Zm22.72,2.41a6.24,6.24,0,0,1,2.82-.68c-.42-.31-.85-.6-1.29-.88a20.7,20.7,0,0,0-3.9-1.83,4.47,4.47,0,0,0-.34,2.47,11.11,11.11,0,0,1,2.6.83ZM277.39,322c-.06.17-.11.34-.18.51.64.06,1.27.09,1.88.1a8,8,0,0,1,.21-1.94.35.35,0,0,1,.68.15,7.22,7.22,0,0,0-.19,1.79h.12a.12.12,0,0,0-.12.08,1.67,1.67,0,0,0-.05.7,9.5,9.5,0,0,0,.21,1.29,9.13,9.13,0,0,0,2.09-.09,5.8,5.8,0,0,1-.57-2.52,5.66,5.66,0,0,1,.51-2.36l0-.05a2.56,2.56,0,0,1-.11-.92s0,0,0-.06h0a2.53,2.53,0,0,0-2.72.36l0,0a3.41,3.41,0,0,0-.63.63,6.58,6.58,0,0,0-1,2Zm11-14c-.59-.13-1.19-.22-1.78-.29a36.49,36.49,0,0,0-7.3-.19,7.6,7.6,0,0,1,2.57,1.63,3.21,3.21,0,0,1,2.67-.48l.55.1a5.1,5.1,0,0,0,1.84.14A2.34,2.34,0,0,0,288.35,308Zm-20.1,8.4a6.11,6.11,0,0,0,1.76,0,6.35,6.35,0,0,0,4.51-2.76l.12-.18a3.41,3.41,0,0,1,.58-.76,1.36,1.36,0,0,1,1.35-.34c.58.22.76.79.93,1.3s.26.78.51.86a.35.35,0,1,1-.21.66c-.6-.2-.79-.78-1-1.3s-.25-.77-.51-.87a.72.72,0,0,0-.64.2,3.36,3.36,0,0,0-.47.62l-.11.19a7.26,7.26,0,0,1-5.94,3.14c-.25,0-.5,0-.75,0l0,.11c.85,2.61,3.05,4,5.57,4.69a8.09,8.09,0,0,0,1.42-1.5.35.35,0,0,1,.48-.08.34.34,0,0,1,.07.49,8.85,8.85,0,0,1-1.15,1.3,15.75,15.75,0,0,0,1.65.27c.09-.21.16-.43.24-.65l.09-.28a9.08,9.08,0,0,1,.77-1.68,5.09,5.09,0,0,1,.7-.91,4.13,4.13,0,0,1-1.07-.68.31.31,0,0,1-.25,0c-.62-.25-1.33.31-1.54.49l-.42.41c-.19.18-.39.37-.6.54a3,3,0,0,1-.66.42,2.31,2.31,0,0,1-.95.2,2.58,2.58,0,0,1-1-.19,2.46,2.46,0,0,1-1.38-1.34.35.35,0,0,1,.65-.26,1.72,1.72,0,0,0,1,1,1.74,1.74,0,0,0,1.38,0l.07,0a4.2,4.2,0,0,0,1-.79l.46-.43a2.66,2.66,0,0,1,1.56-.72,3.94,3.94,0,0,1-.67-1.64.35.35,0,1,1,.69-.11,3.36,3.36,0,0,0,2.35,2.65,3.26,3.26,0,0,1,3.12-.42h0c0-.11.08-.23.13-.34a4.27,4.27,0,0,1,2.22-2.05,12.17,12.17,0,0,1,2.81-.75,7.16,7.16,0,0,1,4.31.13.3.3,0,0,1,.15.12.37.37,0,0,1,0,.34.35.35,0,0,1-.46.17,6.57,6.57,0,0,0-3.9-.08,12.06,12.06,0,0,0-2.65.71,3.55,3.55,0,0,0-1.86,1.7,2,2,0,0,0-.17.57,2.29,2.29,0,0,0,0,.69,1.84,1.84,0,0,0,.47,1,3.21,3.21,0,0,0,1.79.72,14.64,14.64,0,0,0,3.5.12,2.6,2.6,0,0,1,1.76-1.51.35.35,0,0,1,.13.69,2,2,0,0,0-1.33,1.29l-.05.12a8.4,8.4,0,0,0-.3,1.63c0,.24,0,.47-.08.7a4.77,4.77,0,0,1-.51,1.67,6.5,6.5,0,0,1,.5.94,4.84,4.84,0,0,1,.18.49,5.56,5.56,0,0,1,.27,1.14,31.14,31.14,0,0,1,5,.33,2.68,2.68,0,0,0-.73-.65c-.17-.11-.36-.22-.55-.32a8.2,8.2,0,0,1-1.05-.68l-.15-.13a2.57,2.57,0,0,1-.57-.73,3.39,3.39,0,0,1,.32-3.08c.11-.21.23-.42.35-.63a5.82,5.82,0,0,0,.79-1.89,2.15,2.15,0,0,0,0-.67,2.77,2.77,0,0,0-.94-1.77,2.71,2.71,0,0,0-2.57-.46,5.4,5.4,0,0,0-1.31.75c-.21.14-.43.3-.66.43a2.81,2.81,0,0,1-2.56.4.35.35,0,0,1-.18-.46.34.34,0,0,1,.32-.21l.14,0a2.26,2.26,0,0,0,1.92-.36,7.49,7.49,0,0,0,.63-.41,5.79,5.79,0,0,1,1.46-.82,3.41,3.41,0,0,1,3.25.58,3.34,3.34,0,0,1,1.11,1.79,1.85,1.85,0,0,0,.69-.64,3,3,0,0,0,.36-.67c.1-.24.19-.5.28-.77a8.71,8.71,0,0,1,.34-.93h0a4.48,4.48,0,0,1-1.44-.67,2.15,2.15,0,0,1-.54-.59,1.73,1.73,0,0,1-.26-1.17,1.83,1.83,0,0,1,.7-1.1A10,10,0,0,0,281,315.9a.35.35,0,0,1-.29.15.31.31,0,0,1-.2-.07.35.35,0,0,1-.08-.49c.15-.2.31-.4.47-.59a2.82,2.82,0,0,1-1.14-1.53,7.41,7.41,0,0,1-.24-.76,6.33,6.33,0,0,0-.41-1.16,2.84,2.84,0,0,0-2.8-1.44,5.1,5.1,0,0,0-2.58,1.48l-.44.4a9.1,9.1,0,0,1-2.14,1.66,3.72,3.72,0,0,1-1.88.42,2.76,2.76,0,0,1-.94-.19A7.12,7.12,0,0,0,268.25,316.38Zm16.58,10.87c-1.28.2-2.57.38-3.87.53a3.39,3.39,0,0,0,3.07,1.16,19.64,19.64,0,0,0,2.67-.52l.44-.09a1,1,0,0,1,.17,0c.31-.06.63-.1.95-.14a5.29,5.29,0,0,0-.24-1,5.86,5.86,0,0,0-.36-.85l-.1-.2a1.14,1.14,0,0,1-.11.11l0,0a4,4,0,0,1-2,.85l-.49.08Zm10,1.3a3.23,3.23,0,0,0-1.21-1.34l-.58-.34h0l-.29-.17a2.79,2.79,0,0,1-1.18-1.06,2.84,2.84,0,0,1,.31-2.45c.11-.2.21-.4.33-.6a6.36,6.36,0,0,0,.88-2.13,3.76,3.76,0,0,0,0-.58h0a3,3,0,0,0,1.6-1.75c.11-.27.2-.55.29-.81a6.07,6.07,0,0,1,.54-1.33,1.55,1.55,0,0,1,1.57-.83.34.34,0,1,0,.2-.66,2.16,2.16,0,0,0-2.3,1,4.24,4.24,0,0,1-1.36-.58,1.23,1.23,0,0,1-.53-1.09c.06-.37.38-.7.93-1a5.6,5.6,0,0,1,3.51-.58l.25.21a15.22,15.22,0,0,1,2.28,2.59.61.61,0,0,0,.07.1.61.61,0,0,1-.07-.1,9.27,9.27,0,0,0-1.45.35.35.35,0,0,0,.11.68l.12,0a8.39,8.39,0,0,1,1.65-.37,14.79,14.79,0,0,1,.93,1.76,13.38,13.38,0,0,1,.84,2.45h0a3.86,3.86,0,0,1-1.29,1.74.35.35,0,0,0,.2.63.33.33,0,0,0,.21-.07,4.37,4.37,0,0,0,1.09-1.18c0-.28-.09-.56-.15-.83a7.58,7.58,0,0,1,.15.83,11.23,11.23,0,0,1,.1,2.39,8.92,8.92,0,0,1-.15,1.24,2.21,2.21,0,0,0-.91-.8,3.55,3.55,0,0,0-1.17-.27l-.35,0a1.39,1.39,0,0,1-1-.48.35.35,0,0,0-.48-.11.34.34,0,0,0-.1.48,2,2,0,0,0,1.48.8l.36,0a3.14,3.14,0,0,1,1,.21,1.89,1.89,0,0,1,.86,1,2.14,2.14,0,0,1,.1.22,5.72,5.72,0,0,1-1,1.88,2,2,0,0,1-.39.37,2.3,2.3,0,0,0-.41-1.43,2,2,0,0,0-.36-.41,5.31,5.31,0,0,0-1.37-.87l-.53-.28c-.65-.37-1.31-1-1.19-1.69a1.83,1.83,0,0,1,.91-1.09l.45-.26a5.15,5.15,0,0,0,1.09-.72,1.8,1.8,0,0,0,.52-2,.34.34,0,0,0-.47-.16.35.35,0,0,0-.16.46,1.11,1.11,0,0,1-.37,1.18,4.51,4.51,0,0,1-.94.62c-.16.09-.33.18-.48.28a2.37,2.37,0,0,0-1.24,1.56,2.47,2.47,0,0,0,1.53,2.41c.19.11.37.2.56.29s.55.29.8.45a2.25,2.25,0,0,1,.68.62,1.86,1.86,0,0,1,.23,1.46,6.18,6.18,0,0,1-2.14.38h-.74C296.35,328.7,295.58,328.64,294.8,328.55Zm1.58-2.13a6.73,6.73,0,0,1-1.53-1,1.9,1.9,0,0,1-.61-1.47,3.08,3.08,0,0,1,.76-1.46l.38-.51a9.89,9.89,0,0,0,.88-1.71c.14-.32.29-.65.45-.95a3.33,3.33,0,0,1,1.83-1.84,1.71,1.71,0,0,1,1.34.16,1.08,1.08,0,0,1,.53.72.35.35,0,0,0,.69-.12,1.78,1.78,0,0,0-.87-1.2,2.45,2.45,0,0,0-1.91-.23,4,4,0,0,0-2.23,2.19c-.17.32-.32.66-.46,1a10.06,10.06,0,0,1-.83,1.6l-.35.48a3.67,3.67,0,0,0-.91,1.81,2.59,2.59,0,0,0,.82,2,7,7,0,0,0,1.69,1.15.35.35,0,0,0,.47-.14A.35.35,0,0,0,296.38,326.42Z"/><path class="cls-42" d="M314.07,237.89a2.47,2.47,0,0,1,3.45.06h0a2.48,2.48,0,0,1,.16,3.45q-6.19,6.75-12.38,13.49c-.9,1-2.66.86-3.9-.34h0c-1.23-1.2-1.41-3-.46-3.88Zm22.27-19.33a12.9,12.9,0,1,0,.28,18.24A12.9,12.9,0,0,0,336.34,218.56ZM320,220.65a10.29,10.29,0,1,1,.21,14.55A10.27,10.27,0,0,1,320,220.65Zm16.36-2.09a12.9,12.9,0,1,0,.28,18.24A12.9,12.9,0,0,0,336.34,218.56ZM320,220.65a10.29,10.29,0,1,1,.21,14.55A10.27,10.27,0,0,1,320,220.65Z"/><path class="cls-42" d="M247.75,87.61a8.12,8.12,0,0,0,15.91,2.28h11.67v7.72h3.3V89.89h.9v7.72h6.59V89.89h2.45V85.34H263.66a8.12,8.12,0,0,0-15.91,2.27Zm4,0a4.15,4.15,0,1,1,4.15,4.15A4.14,4.14,0,0,1,251.72,87.61Z"/><polygon class="cls-42" points="226.12 10.37 220.06 10.37 220.06 4.32 215.32 4.32 215.32 10.37 209.27 10.37 209.27 15.11 215.32 15.11 215.32 21.16 220.06 21.16 220.06 15.11 226.12 15.11 226.12 10.37"/><polygon class="cls-42" points="352.76 45.74 349.09 45.74 349.09 42.08 346.22 42.08 346.22 45.74 342.55 45.74 342.55 48.62 346.22 48.62 346.22 52.28 349.09 52.28 349.09 48.62 352.76 48.62 352.76 45.74"/><polygon class="cls-42" points="145.47 107.73 141.81 107.73 141.81 104.06 138.93 104.06 138.93 107.73 135.27 107.73 135.27 110.6 138.93 110.6 138.93 114.27 141.81 114.27 141.81 110.6 145.47 110.6 145.47 107.73"/><polygon class="cls-42" points="115.75 257.64 112.09 257.64 112.09 253.97 109.22 253.97 109.22 257.64 105.55 257.64 105.55 260.51 109.22 260.51 109.22 264.18 112.09 264.18 112.09 260.51 115.75 260.51 115.75 257.64"/><polygon class="cls-42" points="194.08 339.33 190.41 339.33 190.41 335.66 187.54 335.66 187.54 339.33 183.87 339.33 183.87 342.2 187.54 342.2 187.54 345.87 190.41 345.87 190.41 342.2 194.08 342.2 194.08 339.33"/><polygon class="cls-42" points="387.57 262.14 383.91 262.14 383.91 258.48 381.04 258.48 381.04 262.14 377.37 262.14 377.37 265.02 381.04 265.02 381.04 268.68 383.91 268.68 383.91 265.02 387.57 265.02 387.57 262.14"/><polygon class="cls-42" points="320.49 290.19 316.82 290.19 316.82 286.52 313.95 286.52 313.95 290.19 310.29 290.19 310.29 293.06 313.95 293.06 313.95 296.73 316.82 296.73 316.82 293.06 320.49 293.06 320.49 290.19"/><polygon class="cls-42" points="67.85 254.11 64.18 254.11 64.18 250.45 61.31 250.45 61.31 254.11 57.65 254.11 57.65 256.99 61.31 256.99 61.31 260.65 64.18 260.65 64.18 256.99 67.85 256.99 67.85 254.11"/><polygon class="cls-42" points="39.61 148.22 35.95 148.22 35.95 144.55 33.07 144.55 33.07 148.22 29.41 148.22 29.41 151.09 33.07 151.09 33.07 154.75 35.95 154.75 35.95 151.09 39.61 151.09 39.61 148.22"/><polygon class="cls-42" points="325.6 112.89 321.93 112.89 321.93 109.22 319.06 109.22 319.06 112.89 315.39 112.89 315.39 115.76 319.06 115.76 319.06 119.43 321.93 119.43 321.93 115.76 325.6 115.76 325.6 112.89"/><polygon class="cls-42" points="290.48 35.55 286.81 35.55 286.81 31.89 283.94 31.89 283.94 35.55 280.27 35.55 280.27 38.42 283.94 38.42 283.94 42.09 286.81 42.09 286.81 38.42 290.48 38.42 290.48 35.55"/><polygon class="cls-42" points="28.58 299.7 24.91 299.7 24.91 296.03 22.04 296.03 22.04 299.7 18.37 299.7 18.37 302.57 22.04 302.57 22.04 306.24 24.91 306.24 24.91 302.57 28.58 302.57 28.58 299.7"/><polygon class="cls-42" points="126.13 26.82 122.47 26.82 122.47 23.16 119.59 23.16 119.59 26.82 115.93 26.82 115.93 29.69 119.59 29.69 119.59 33.36 122.47 33.36 122.47 29.69 126.13 29.69 126.13 26.82"/><polygon class="cls-42" points="19.28 236.01 13.23 236.01 13.23 229.96 8.49 229.96 8.49 236.01 2.43 236.01 2.43 240.75 8.49 240.75 8.49 246.8 13.23 246.8 13.23 240.75 19.28 240.75 19.28 236.01"/><polygon class="cls-42" points="124.35 219.84 113.28 219.84 113.28 208.77 104.61 208.77 104.61 219.84 93.54 219.84 93.54 228.51 104.61 228.51 104.61 239.58 113.28 239.58 113.28 228.51 124.35 228.51 124.35 219.84"/><polygon class="cls-42" points="399.7 297.74 391.03 297.74 391.03 289.08 384.25 289.08 384.25 297.74 375.58 297.74 375.58 304.53 384.25 304.53 384.25 313.19 391.03 313.19 391.03 304.53 399.7 304.53 399.7 297.74"/><g class="cls-43"><path class="cls-2" d="M91.63,42.68a39.7,39.7,0,0,1-9.57-5L76.6,52.86c-1.95,5.36.29,12.64,5.75,14.6l.29.11C88.07,69.46,94.38,65.31,96.3,60l5.47-15.14A39.6,39.6,0,0,1,91.63,42.68Zm2.07,7.85c1.64.38,2.64,1.58,2.26,2.87A39.63,39.63,0,0,1,89.86,52,3.3,3.3,0,0,1,93.7,50.53Zm-9-3.22c1.5.76,2.41,2.28,2,3.58a40,40,0,0,1-5.59-2.8C81.71,46.85,83.24,46.56,84.74,47.31ZM84,63.67l-.19-.06c-3.95-1.42-5.8-6.39-4.9-10.82,1.6,4.08,3.73,6.56,6.32,7.5s5.74.31,9.26-1.87C92.43,62.34,87.94,65,84,63.67Z"/></g><g class="cls-43"><path class="cls-2" d="M20.32,97.12a37.16,37.16,0,0,1-9.46,3l6.38,13.68c2.25,4.85,8.57,8.2,13.49,5.9l.18-.09c4.93-2.29,6.42-9.28,4.14-14.13L28.67,91.77A37.89,37.89,0,0,1,20.32,97.12Zm-3.92,9.75a9.36,9.36,0,0,0,5.27-3.17,2.67,2.67,0,0,1-1,3.7A3.37,3.37,0,0,1,16.4,106.87Zm11,5.45a14.05,14.05,0,0,0-5.59,4.55c-.45-2.29,1.22-5.55,4.44-7,3.59-1.64,6.8-.73,8.24,1.1A16.66,16.66,0,0,0,27.41,112.32ZM28,104a2.67,2.67,0,0,1-3.51-1.58,9.41,9.41,0,0,0,5.81-2A3.36,3.36,0,0,1,28,104Z"/></g><path class="cls-42" d="M314.45,142.27l-6.2,6.3,7.5,7.51,6.26-6.37a5.3,5.3,0,1,0-7.56-7.44Zm-3.91,7.36-.8-.79,5.66-5.75a4.07,4.07,0,0,1,5.67,0c.08.08.13.17.2.25C317.49,143.9,314,146.46,310.54,149.63Zm-9.69,6.46,6.1-6.2,7.51,7.5-6,6.14a5.31,5.31,0,0,1-7.57-7.44Z"/><path class="cls-42" d="M1,271,6,278.22l8.75-6L9.66,264.9A5.3,5.3,0,0,0,1,271Zm6.52,5.19-.93.64-4.61-6.61A4.07,4.07,0,0,1,3,264.61a2.49,2.49,0,0,1,.28-.15C3.12,268.28,5,272.2,7.48,276.16Zm4.58,10.71-5-7.14,8.76-6,4.93,7.06a5.31,5.31,0,0,1-8.7,6.08Z"/><path class="cls-42" d="M50.33,191.4l-10.19.09v12.23l10.3-.08a6.12,6.12,0,0,0-.11-12.24Zm-9.18,2.82v-1.3l9.3-.07a4.7,4.7,0,0,1,4.62,4.63c0,.12,0,.24,0,.36C51.49,195.21,46.54,194.43,41.15,194.22ZM28,191.59l10-.09v12.24l-9.93.08a6.12,6.12,0,1,1-.1-12.23Z"/><path class="cls-42" d="M360.74,75.65a1.1,1.1,0,0,1-1.62.95,2.14,2.14,0,0,1-1-1c-.74-1.56.64-3,2-3.54a4.84,4.84,0,0,1,4.68.35,6.07,6.07,0,0,1,2.2,3.49,7,7,0,0,1-2.19,7,8.83,8.83,0,0,1-8.1,1.88A10.05,10.05,0,0,1,350.67,80a10.67,10.67,0,0,1,.05-9.58,12,12,0,0,1,6.16-6,12.16,12.16,0,0,1,7.18-.62A13.83,13.83,0,0,1,374.6,76a13.94,13.94,0,0,0-4.8-8.32,12.33,12.33,0,0,0-9.42-3A10.92,10.92,0,0,0,351,76.54a8.63,8.63,0,0,0,4.8,6.5,7.59,7.59,0,0,0,8.11-.9,8.94,8.94,0,0,0,1.67-2l0,0a5.76,5.76,0,0,0,.61-3.39,6.45,6.45,0,0,0-.73-2.34,3.61,3.61,0,0,0-.81-1.12,4.11,4.11,0,0,0-3.91-.86c-1.33.37-3,1.59-2.26,3.16,0,.08.08.17.13.25a2.19,2.19,0,0,0,.82.68,1,1,0,0,0,1.32-.89C360.73,75.77,360.72,75.77,360.74,75.65Zm-13.58,4.29a14.38,14.38,0,0,0,2.17,3.93,13.08,13.08,0,0,0,7.85,4.81A12.34,12.34,0,0,0,370,82.84a10.62,10.62,0,0,0,1.2-7.28,10.19,10.19,0,0,0-5.41-7.26,8.89,8.89,0,0,0-9,.49,7.72,7.72,0,0,0-3.14,6.87,6.16,6.16,0,0,0,2,3.9,5.09,5.09,0,0,0,3.68,1.4,3.91,3.91,0,0,0,3.41-2.56,2,2,0,0,0-.37-2.16,2.58,2.58,0,0,0-1.67-.59,2.54,2.54,0,0,1,1.56.69,1.82,1.82,0,0,1,.19,1.92,3.5,3.5,0,0,1-3.81,2.06,5.14,5.14,0,0,1-2.79-1.69,5.35,5.35,0,0,1-1.18-4.5A7.17,7.17,0,0,1,357,70.19h0a5.15,5.15,0,0,1,1.7-1,6.89,6.89,0,0,1,2.61-.54,9.4,9.4,0,0,1,4,.92,8.9,8.9,0,0,1,3.67,3.65,9.29,9.29,0,0,1,1.1,5.09A9.76,9.76,0,0,1,368.89,82a10.91,10.91,0,0,1-2.84,3.35,11.2,11.2,0,0,1-4.19,2.07,10.5,10.5,0,0,1-4.17.3,14,14,0,0,1-3.58-1A12.65,12.65,0,0,1,350.2,84a15.14,15.14,0,0,1-2.67-3.91,19.12,19.12,0,0,1-1.2-3.61A17.46,17.46,0,0,0,347.16,79.94Z"/><path class="cls-42" d="M156.89,9.61a.87.87,0,0,1-1.28.76,1.64,1.64,0,0,1-.77-.79c-.58-1.23.51-2.35,1.57-2.81a3.86,3.86,0,0,1,3.71.28,4.83,4.83,0,0,1,1.75,2.77,5.63,5.63,0,0,1-1.74,5.58,7,7,0,0,1-6.43,1.49,8,8,0,0,1-4.81-3.84,8.49,8.49,0,0,1,0-7.61A9.63,9.63,0,0,1,153.82.71a9.78,9.78,0,0,1,5.71-.49,11,11,0,0,1,8.37,9.64,11.11,11.11,0,0,0-3.81-6.61A9.84,9.84,0,0,0,156.61.91a8.67,8.67,0,0,0-7.44,9.41,6.85,6.85,0,0,0,3.8,5.17,6,6,0,0,0,6.44-.72,7,7,0,0,0,1.33-1.6l0,0a4.51,4.51,0,0,0,.49-2.7,5,5,0,0,0-.58-1.85,2.85,2.85,0,0,0-.64-.89,3.25,3.25,0,0,0-3.11-.68c-1,.29-2.36,1.25-1.79,2.5a1.24,1.24,0,0,0,.1.2,1.68,1.68,0,0,0,.66.54.79.79,0,0,0,1-.71C156.89,9.72,156.88,9.72,156.89,9.61ZM146.1,13a11.62,11.62,0,0,0,1.73,3.12A10.4,10.4,0,0,0,154.06,20a9.78,9.78,0,0,0,10.16-4.63,8.41,8.41,0,0,0,1-5.79,8.08,8.08,0,0,0-4.3-5.76,7.06,7.06,0,0,0-7.12.39,6.12,6.12,0,0,0-2.49,5.46,4.9,4.9,0,0,0,1.61,3.09,4,4,0,0,0,2.92,1.12,3.14,3.14,0,0,0,2.71-2,1.59,1.59,0,0,0-.29-1.71,2.07,2.07,0,0,0-1.33-.48,2,2,0,0,1,1.24.55,1.44,1.44,0,0,1,.15,1.53,2.79,2.79,0,0,1-3,1.64A4.12,4.12,0,0,1,153,12a4.26,4.26,0,0,1-.94-3.57,5.69,5.69,0,0,1,1.78-3.13h0a4.05,4.05,0,0,1,1.34-.84A5.69,5.69,0,0,1,157.29,4a7.51,7.51,0,0,1,3.15.74,7,7,0,0,1,2.91,2.89,7.39,7.39,0,0,1,.88,4,7.6,7.6,0,0,1-.87,3,8.76,8.76,0,0,1-2.25,2.67A9,9,0,0,1,157.78,19a8.42,8.42,0,0,1-3.31.24,11.65,11.65,0,0,1-2.84-.8,10.17,10.17,0,0,1-3.11-2.2,11.82,11.82,0,0,1-2.12-3.11,15,15,0,0,1-1-2.86A13.68,13.68,0,0,0,146.1,13Z"/><path class="cls-42" d="M164.15,343.27a.87.87,0,0,1-1.28.76,1.69,1.69,0,0,1-.77-.79c-.58-1.23.51-2.35,1.57-2.81a3.88,3.88,0,0,1,3.72.28,4.84,4.84,0,0,1,1.74,2.77,5.61,5.61,0,0,1-1.74,5.58,7,7,0,0,1-6.43,1.49,8,8,0,0,1-4.81-3.84,8.49,8.49,0,0,1,0-7.61,9.59,9.59,0,0,1,4.89-4.73,9.7,9.7,0,0,1,5.71-.49,11,11,0,0,1,8.37,9.64,11.11,11.11,0,0,0-3.81-6.61,9.84,9.84,0,0,0-7.48-2.34,8.67,8.67,0,0,0-7.44,9.41,6.85,6.85,0,0,0,3.8,5.17,6,6,0,0,0,6.44-.72,7,7,0,0,0,1.33-1.6l0,0a4.51,4.51,0,0,0,.49-2.7,5.11,5.11,0,0,0-.58-1.86,2.93,2.93,0,0,0-.64-.88,3.24,3.24,0,0,0-3.1-.68c-1.06.29-2.37,1.25-1.8,2.5a1.24,1.24,0,0,0,.1.2,1.68,1.68,0,0,0,.66.54.79.79,0,0,0,1-.71C164.15,343.37,164.14,343.37,164.15,343.27Zm-10.78,3.41a11.33,11.33,0,0,0,1.72,3.12,10.39,10.39,0,0,0,6.24,3.82A9.79,9.79,0,0,0,171.49,349a8.46,8.46,0,0,0,.95-5.79,8.08,8.08,0,0,0-4.3-5.76,7.06,7.06,0,0,0-7.12.39,6.11,6.11,0,0,0-2.49,5.45,4.9,4.9,0,0,0,1.61,3.1,4,4,0,0,0,2.92,1.12,3.14,3.14,0,0,0,2.71-2,1.59,1.59,0,0,0-.29-1.71,2,2,0,0,0-1.33-.48,2,2,0,0,1,1.24.55,1.44,1.44,0,0,1,.15,1.53,2.78,2.78,0,0,1-3,1.64,4.12,4.12,0,0,1-2.22-1.35,4.26,4.26,0,0,1-.94-3.57,5.69,5.69,0,0,1,1.78-3.13h0a4.16,4.16,0,0,1,1.34-.84,5.69,5.69,0,0,1,2.08-.43,7.66,7.66,0,0,1,3.15.73,7.07,7.07,0,0,1,2.91,2.9,7.39,7.39,0,0,1,.88,4,7.6,7.6,0,0,1-.87,3,8.61,8.61,0,0,1-2.25,2.66,8.9,8.9,0,0,1-3.33,1.65,8.42,8.42,0,0,1-3.31.24,11.65,11.65,0,0,1-2.84-.8,10.17,10.17,0,0,1-3.11-2.2,11.82,11.82,0,0,1-2.12-3.11,15.23,15.23,0,0,1-.95-2.86A13.06,13.06,0,0,0,153.37,346.68Z"/><path class="cls-42" d="M348.21,340.31a.87.87,0,0,1-1.29.76,1.62,1.62,0,0,1-.76-.79c-.59-1.23.51-2.35,1.57-2.81a3.86,3.86,0,0,1,3.71.28,4.83,4.83,0,0,1,1.75,2.77,5.63,5.63,0,0,1-1.74,5.58,7,7,0,0,1-6.44,1.49,8,8,0,0,1-4.8-3.84,8.49,8.49,0,0,1,0-7.61,9.63,9.63,0,0,1,4.89-4.73,9.78,9.78,0,0,1,5.71-.49,11,11,0,0,1,8.36,9.64A11,11,0,0,0,355.4,334a9.82,9.82,0,0,0-7.48-2.34,8.68,8.68,0,0,0-7.44,9.41,6.89,6.89,0,0,0,3.81,5.17,6,6,0,0,0,6.44-.72,7,7,0,0,0,1.33-1.6l0,0a4.51,4.51,0,0,0,.49-2.7,5.19,5.19,0,0,0-.58-1.85,2.88,2.88,0,0,0-.65-.89,3.23,3.23,0,0,0-3.1-.68c-1.05.29-2.37,1.25-1.8,2.5a1.28,1.28,0,0,0,.11.2,1.64,1.64,0,0,0,.65.54.8.8,0,0,0,1-.71C348.2,340.42,348.19,340.41,348.21,340.31Zm-10.79,3.41a11.87,11.87,0,0,0,1.72,3.12,10.45,10.45,0,0,0,6.24,3.82A9.79,9.79,0,0,0,355.54,346a8.41,8.41,0,0,0,1-5.79,8.1,8.1,0,0,0-4.3-5.76,7.06,7.06,0,0,0-7.12.39,6.12,6.12,0,0,0-2.49,5.46,4.85,4.85,0,0,0,1.61,3.09,4,4,0,0,0,2.92,1.12,3.14,3.14,0,0,0,2.71-2,1.61,1.61,0,0,0-.29-1.71,2.09,2.09,0,0,0-1.33-.48,2,2,0,0,1,1.23.55,1.46,1.46,0,0,1,.16,1.53,2.79,2.79,0,0,1-3,1.64,4.14,4.14,0,0,1-2.23-1.35,4.23,4.23,0,0,1-.93-3.57,5.74,5.74,0,0,1,1.77-3.13h0a4.2,4.2,0,0,1,1.35-.84,5.68,5.68,0,0,1,2.07-.43,7.48,7.48,0,0,1,3.15.74,7.07,7.07,0,0,1,2.92,2.89,7.44,7.44,0,0,1,0,7,8.9,8.9,0,0,1-2.25,2.67,9,9,0,0,1-3.33,1.64,8.42,8.42,0,0,1-3.31.24,11.65,11.65,0,0,1-2.84-.8,10.17,10.17,0,0,1-3.11-2.2,11.82,11.82,0,0,1-2.12-3.11,15,15,0,0,1-1-2.86A14.41,14.41,0,0,0,337.42,343.72Z"/><path class="cls-42" d="M107.58,73a.62.62,0,0,1-.92.54,1.22,1.22,0,0,1-.54-.56c-.42-.88.36-1.67,1.12-2a2.73,2.73,0,0,1,2.64.2,3.44,3.44,0,0,1,1.25,2,4,4,0,0,1-1.24,4,5,5,0,0,1-4.59,1.07,5.73,5.73,0,0,1-3.42-2.74,6,6,0,0,1,0-5.42,6.66,6.66,0,0,1,7.55-3.72,7.83,7.83,0,0,1,6,6.87,7.89,7.89,0,0,0-2.72-4.71,7,7,0,0,0-5.32-1.67,6.17,6.17,0,0,0-5.3,6.71,4.89,4.89,0,0,0,2.71,3.68,4.29,4.29,0,0,0,4.59-.52,5.09,5.09,0,0,0,.94-1.13v0a3.22,3.22,0,0,0,.35-1.92,4,4,0,0,0-.41-1.33,2.21,2.21,0,0,0-.47-.63,2.29,2.29,0,0,0-2.2-.48c-.76.2-1.69.89-1.29,1.78,0,0,0,.1.08.14a1.17,1.17,0,0,0,.46.39.57.57,0,0,0,.75-.51C107.58,73.1,107.57,73.1,107.58,73ZM99.9,75.46a8.15,8.15,0,0,0,1.22,2.22,7.49,7.49,0,0,0,4.45,2.73,7,7,0,0,0,7.23-3.31,6,6,0,0,0,.69-4.12,5.83,5.83,0,0,0-3.07-4.11,5.05,5.05,0,0,0-5.07.28A4.36,4.36,0,0,0,103.58,73a3.5,3.5,0,0,0,1.14,2.21,2.89,2.89,0,0,0,2.08.79,2.21,2.21,0,0,0,1.93-1.45,1.15,1.15,0,0,0-.2-1.22,1.49,1.49,0,0,0-1-.34,1.51,1.51,0,0,1,.88.39,1,1,0,0,1,.11,1.09,2,2,0,0,1-2.15,1.17,3,3,0,0,1-2.25-3.5A4,4,0,0,1,105.43,70h0a2.92,2.92,0,0,1,.95-.59,3.81,3.81,0,0,1,1.48-.31,5.38,5.38,0,0,1,2.25.52,5,5,0,0,1,2.07,2.06,5.28,5.28,0,0,1,.62,2.88,5.45,5.45,0,0,1-.61,2.13,6.13,6.13,0,0,1-1.61,1.9,6.34,6.34,0,0,1-2.37,1.17,5.84,5.84,0,0,1-2.35.17,8,8,0,0,1-2-.57,7,7,0,0,1-2.21-1.57,8.18,8.18,0,0,1-1.51-2.21,10.4,10.4,0,0,1-.68-2A9.58,9.58,0,0,0,99.9,75.46Z"/><path class="cls-42" d="M364.48,234.6a1,1,0,0,1-1.52.89,1.94,1.94,0,0,1-.9-.93c-.69-1.45.6-2.77,1.85-3.31a4.53,4.53,0,0,1,4.38.33,5.69,5.69,0,0,1,2.07,3.27,6.62,6.62,0,0,1-2.06,6.58,8.3,8.3,0,0,1-7.59,1.76,9.45,9.45,0,0,1-5.67-4.54,10,10,0,0,1,0-9,11.25,11.25,0,0,1,5.77-5.58,11.4,11.4,0,0,1,6.73-.58,12.94,12.94,0,0,1,9.87,11.38,13,13,0,0,0-4.49-7.8,11.55,11.55,0,0,0-8.83-2.76,10.22,10.22,0,0,0-8.78,11.1,8.12,8.12,0,0,0,4.5,6.09,7.08,7.08,0,0,0,7.59-.85A8.1,8.1,0,0,0,369,238.8l0,0a5.31,5.31,0,0,0,.57-3.18,5.83,5.83,0,0,0-.68-2.19,3.29,3.29,0,0,0-.76-1,3.83,3.83,0,0,0-3.66-.81c-1.25.34-2.8,1.48-2.12,2.95l.12.24a2,2,0,0,0,.77.64,1,1,0,0,0,1.24-.84C364.47,234.72,364.46,234.72,364.48,234.6Zm-12.73,4a13.86,13.86,0,0,0,2,3.67,12.27,12.27,0,0,0,7.36,4.51,11.54,11.54,0,0,0,12-5.47,9.9,9.9,0,0,0,1.13-6.82,9.61,9.61,0,0,0-5.07-6.81,8.36,8.36,0,0,0-8.41.47,7.21,7.21,0,0,0-2.93,6.44,5.7,5.7,0,0,0,1.9,3.65,4.75,4.75,0,0,0,3.44,1.31,3.66,3.66,0,0,0,3.2-2.4,1.91,1.91,0,0,0-.34-2,2.47,2.47,0,0,0-1.57-.56,2.34,2.34,0,0,1,1.46.65,1.72,1.72,0,0,1,.18,1.8,3.28,3.28,0,0,1-3.57,1.93,4.83,4.83,0,0,1-2.62-1.58,5,5,0,0,1-1.1-4.22,6.7,6.7,0,0,1,2.09-3.69h0a4.84,4.84,0,0,1,1.59-1A6.62,6.62,0,0,1,365,228a8.67,8.67,0,0,1,3.71.86,8.34,8.34,0,0,1,3.44,3.42,8.69,8.69,0,0,1,1,4.77,8.88,8.88,0,0,1-1,3.52,10.06,10.06,0,0,1-2.66,3.14,10.37,10.37,0,0,1-3.92,1.94,9.76,9.76,0,0,1-3.91.28,13.45,13.45,0,0,1-3.35-.93,12,12,0,0,1-3.67-2.6,14.19,14.19,0,0,1-2.5-3.67,17.4,17.4,0,0,1-1.12-3.38A16.72,16.72,0,0,0,351.75,238.63Z"/><path class="cls-42" d="M275.51,38.85c-.78-7.52-7.77-10.12-14.82-10.15-11.15,0-13.38,7.24-13.64,9.81-.08.76-.49,4-.49,4-.09.45-.48,2.46.26,2.93a.91.91,0,0,1,.47.89l-1.86,5.8a1.35,1.35,0,0,0,1.32,1.62l1.66.13c-.28,0,.43,8.12.64,9a2.05,2.05,0,0,0,2.3,1.57l5.73-.52-.5,5h16.25l-1-12.71C275.09,49.33,276.14,44.83,275.51,38.85ZM264.59,56h-6.51l1-11.7a3.83,3.83,0,1,1,4.53,0Z"/><path class="cls-42" d="M39.27,59.73A10.5,10.5,0,0,0,39,58.37c-.11-.42-.24-.77-.35-1.13-.21-.7-.43-1.3-.61-1.8-.35-1-.59-1.57-.59-1.57s-.06.62-.08,1.68c0,.52,0,1.17,0,1.9,0,.36,0,.77,0,1.16s0,.78-.06,1.19a10.64,10.64,0,0,1-.54,2.52,7,7,0,0,1-1.31,2.28,4.24,4.24,0,0,1-.92.79,4.52,4.52,0,0,1-.5.23l-.26.09a.57.57,0,0,0-.18,0c0,.05-.65.05-.63.06H31.68l-.29-14.12H29.18L28.9,65.78H27.62a4.74,4.74,0,0,1-.55,0l-.27-.05-.25-.09a2.87,2.87,0,0,1-.51-.23,4.24,4.24,0,0,1-.92-.79,6.87,6.87,0,0,1-1.31-2.28,10.77,10.77,0,0,1-.54-2.51c0-.2-.05-.37-.05-.59v-.63c0-.35,0-.79,0-1.14,0-.73,0-1.38,0-1.91,0-1-.07-1.67-.07-1.67s-.24.57-.59,1.57c-.18.5-.4,1.1-.61,1.8-.11.37-.23.69-.36,1.15a9,9,0,0,0-.28,1.33,10.83,10.83,0,0,0,0,3.21,8.58,8.58,0,0,0,1.4,3.51A6.78,6.78,0,0,0,24.25,68a5.83,5.83,0,0,0,2.16,1,6.9,6.9,0,0,0,1.21.15h1.21L28.59,81H32l-.24-11.82H33.2l.11,0,.22,0,.22,0,.33-.07a6,6,0,0,0,3.76-2.56,8.58,8.58,0,0,0,1.4-3.51A10.76,10.76,0,0,0,39.27,59.73Z"/><path class="cls-42" d="M66.65,306.85a8.82,8.82,0,0,0-.24-1.12c-.09-.34-.19-.63-.28-.92-.18-.57-.36-1.07-.5-1.47-.29-.82-.49-1.28-.49-1.28s0,.5-.06,1.37c0,.43,0,.95,0,1.55,0,.3,0,.63,0,.95s0,.64,0,1a8.67,8.67,0,0,1-.45,2.06,5.6,5.6,0,0,1-1.06,1.86,3.76,3.76,0,0,1-.75.65,2.21,2.21,0,0,1-.42.18l-.2.08-.15,0s-.53,0-.52,0h-1l-.24-11.54h-1.8l-.24,11.54h-.32l-.72,0a3.27,3.27,0,0,1-.45,0l-.22,0-.21-.07a3.75,3.75,0,0,1-.41-.19,3.45,3.45,0,0,1-.75-.64A5.6,5.6,0,0,1,54,309a8.66,8.66,0,0,1-.44-2,3.73,3.73,0,0,1,0-.48v-.52c0-.28,0-.64,0-.93,0-.6,0-1.12,0-1.55,0-.87-.05-1.37-.05-1.37s-.2.46-.49,1.28c-.14.41-.32.9-.5,1.47-.09.3-.18.57-.28.94a6.77,6.77,0,0,0-.23,1.08,8.3,8.3,0,0,0,0,2.63,7,7,0,0,0,1.14,2.87,5.55,5.55,0,0,0,1.24,1.28,4.87,4.87,0,0,0,1.76.8,5.47,5.47,0,0,0,1,.12h1l-.2,9.66H60.7l-.2-9.66h.27l.72,0h.29l.18,0h.18l.27-.06a4.9,4.9,0,0,0,3.07-2.09,7,7,0,0,0,1.14-2.87A8.5,8.5,0,0,0,66.65,306.85Z"/><path class="cls-42" d="M349.66,102.79a8.69,8.69,0,0,0-.23-1.11c-.1-.34-.2-.63-.29-.92-.18-.57-.36-1.07-.5-1.48-.29-.81-.49-1.27-.49-1.27s0,.5,0,1.36c0,.43,0,1,0,1.56,0,.3,0,.63,0,.95s0,.63-.05,1a8.74,8.74,0,0,1-.44,2.06,5.55,5.55,0,0,1-1.07,1.86,3.19,3.19,0,0,1-.75.64,2.5,2.5,0,0,1-.41.19l-.21.08-.15,0s-.53,0-.51,0h-1.05l-.24-11.54h-1.8l-.24,11.54h-1a3.29,3.29,0,0,1-.45,0l-.22,0-.2-.08a2.21,2.21,0,0,1-.42-.18,3.5,3.5,0,0,1-.75-.65,5.45,5.45,0,0,1-1.07-1.86,8.88,8.88,0,0,1-.44-2c0-.17,0-.31,0-.49s0-.34,0-.51,0-.64,0-.93c0-.6,0-1.13,0-1.56,0-.86-.06-1.36-.06-1.36s-.2.46-.49,1.27c-.14.41-.32.91-.49,1.48-.09.3-.19.56-.29.94a6.53,6.53,0,0,0-.23,1.08,8.61,8.61,0,0,0,0,2.63,7,7,0,0,0,1.14,2.86,5.59,5.59,0,0,0,1.24,1.29,4.69,4.69,0,0,0,1.76.79,5.48,5.48,0,0,0,1,.13h1l-.2,9.66h2.78l-.2-9.66h1.28l.18,0,.18,0,.27,0a4.94,4.94,0,0,0,3.07-2.09,7.13,7.13,0,0,0,1.15-2.87A8.87,8.87,0,0,0,349.66,102.79Z"/><path class="cls-42" d="M103.26,100.29a2.83,2.83,0,1,1-3.82,1.2A2.83,2.83,0,0,1,103.26,100.29Zm-10.39,2.47c.93-8.93,9.23-12,17.61-12.06,13.24,0,15.89,8.6,16.2,11.65.1.91.58,4.81.58,4.81.12.53.58,2.91-.3,3.48a1,1,0,0,0-.56,1l2.21,6.89a1.62,1.62,0,0,1-1.57,1.93l-2,.15c.35,0-.5,9.64-.75,10.72a2.45,2.45,0,0,1-2.74,1.87l-6.8-.62.59,5.93H96.06l1.16-15.09C93.37,115.2,92.13,109.86,92.87,102.76Zm15.2,4.92,2.25.09,1.09,1.3-.32,2.23,1.91,1,1.66-1.53,1.69.15,1.35,1.8,2.06-.65.08-2.25,1.3-1.09,2.23.31,1-1.91-1.53-1.65.15-1.69,1.8-1.35-.65-2.06-2.25-.08L120.8,99l.32-2.23-1.91-1-1.65,1.53-1.69-.15-1.36-1.8-2.06.65-.08,2.25-1.3,1.09L108.84,99l-1,1.91,1.53,1.65-.15,1.69-1.8,1.36Zm-9.79-1,1.29-.48.91.48.34,1.32,1.31.12.57-1.25,1-.3,1.18.69,1-.84-.48-1.28.48-.92,1.32-.34.12-1.3-1.25-.57-.3-1,.69-1.18-.84-1-1.28.47-.92-.47-.34-1.33-1.3-.11-.57,1.24-1,.31L99,98.29l-1,.84.47,1.29-.47.91-1.33.34L96.59,103l1.24.57.31,1-.7,1.18Zm13.45-5a4.94,4.94,0,1,0,6.66-2.09A4.94,4.94,0,0,0,111.73,101.75Z"/></g></g></g></svg>