<?xml version="1.0" standalone="no"?>
<!DOCTYPE svg PUBLIC "-//W3C//DTD SVG 20010904//EN"
 "http://www.w3.org/TR/2001/REC-SVG-20010904/DTD/svg10.dtd">
<svg version="1.0" xmlns="http://www.w3.org/2000/svg"
 width="1549.000000pt" height="1549.000000pt" viewBox="0 0 1549.000000 1549.000000"
 preserveAspectRatio="xMidYMid meet">
<metadata>
Created by potrace 1.11, written by Peter Selinger 2001-2013
</metadata>
<g transform="translate(0.000000,1549.000000) scale(0.100000,-0.100000)"
fill="#000000" stroke="none">
<path d="M11389 9798 c-1 -2 -2 -913 -3 -2025 -1 -1377 2 -2024 9 -2026 5 -2
150 -2 320 -2 l310 1 2 135 c2 74 4 494 6 934 2 440 6 814 10 830 67 266 169
413 359 518 98 55 184 77 308 82 374 13 562 -164 596 -561 3 -38 7 -491 8
-1004 l1 -935 323 0 323 0 -4 1100 c-1 605 -6 1111 -10 1125 -3 14 -14 58 -23
99 -63 289 -268 520 -546 617 -40 14 -80 27 -88 29 -8 2 -37 8 -64 14 -111 26
-341 35 -466 19 -144 -19 -346 -99 -464 -184 -78 -56 -177 -154 -219 -216 -17
-26 -35 -48 -39 -48 -5 0 -8 338 -8 750 l0 750 -320 0 c-176 0 -321 -1 -321
-2z"/>
<path d="M2044 8744 c-537 -77 -910 -376 -1095 -876 -27 -75 -62 -199 -73
-263 -3 -16 -9 -55 -15 -86 -14 -80 -24 -228 -24 -339 1 -285 53 -536 157
-756 44 -92 136 -243 173 -282 159 -170 248 -242 389 -314 139 -71 307 -125
444 -142 25 -3 65 -8 90 -12 106 -14 330 -6 460 17 101 17 110 19 193 45 432
136 717 466 832 964 14 60 25 117 25 128 0 18 -12 19 -312 19 -178 0 -318 -3
-325 -9 -6 -5 -14 -32 -18 -61 -4 -29 -12 -63 -17 -77 -5 -14 -11 -32 -13 -41
-12 -57 -94 -200 -152 -265 -84 -93 -220 -171 -348 -198 -88 -19 -277 -15
-357 8 -405 112 -621 563 -565 1176 26 284 106 493 248 645 143 153 334 225
581 220 128 -2 224 -24 334 -77 123 -59 238 -202 259 -323 4 -22 11 -45 15
-50 5 -6 127 -10 332 -10 l323 1 -2 39 c-5 103 -86 307 -173 435 -161 236
-479 421 -818 475 -23 4 -54 9 -70 11 -70 12 -393 11 -478 -2z"/>
<path d="M5008 8749 c-102 -11 -161 -19 -178 -24 -8 -2 -31 -6 -50 -9 -100
-15 -290 -84 -396 -142 -122 -67 -250 -182 -318 -287 -82 -125 -141 -296 -152
-440 l-5 -63 320 0 c175 1 321 3 324 6 2 3 9 32 16 65 16 85 57 161 122 225
50 49 156 114 205 125 11 2 35 9 54 15 63 19 133 25 280 24 370 -3 568 -133
578 -379 4 -94 -35 -199 -93 -247 -51 -43 -150 -83 -260 -104 -11 -2 -31 -6
-45 -9 -14 -2 -44 -7 -67 -10 -24 -3 -61 -7 -83 -10 -22 -3 -57 -7 -77 -10
-21 -3 -56 -7 -78 -10 -82 -10 -107 -14 -133 -19 -15 -3 -47 -8 -72 -11 -95
-13 -119 -16 -239 -36 -468 -77 -742 -275 -825 -597 -27 -102 -31 -140 -30
-287 1 -107 6 -158 22 -216 94 -349 385 -569 827 -624 64 -8 245 -8 321 0 306
33 588 138 775 289 l67 54 -2 -134 -1 -134 301 0 301 0 -2 1138 c-2 1018 -4
1144 -19 1204 -55 225 -184 384 -410 504 -125 66 -298 122 -436 139 -30 4 -64
10 -75 12 -34 9 -396 10 -467 2z m762 -1808 c-1 -361 -18 -423 -151 -553 -82
-80 -206 -145 -344 -180 -119 -30 -352 -32 -460 -4 -243 63 -365 180 -365 348
0 90 16 162 52 231 83 156 260 234 643 281 72 9 144 18 160 20 90 12 130 19
230 42 61 14 135 38 165 53 30 16 59 29 63 30 4 0 7 -120 7 -268z"/>
<path d="M8075 8740 c-268 -47 -458 -169 -631 -404 -26 -36 -51 -63 -55 -61
-4 3 -6 95 -6 205 l2 200 -307 0 -308 0 0 -1467 0 -1468 322 0 323 0 1 910 c0
501 4 939 8 975 29 243 168 454 361 550 103 52 196 71 313 65 112 -5 171 -19
245 -58 144 -75 221 -241 226 -488 1 -62 3 -526 4 -1033 l2 -920 323 -1 322 0
1 905 c0 498 2 923 5 945 13 134 21 175 50 263 67 201 200 327 394 373 60 14
236 18 315 7 147 -20 267 -104 321 -226 25 -57 50 -156 60 -242 4 -25 8 -488
9 -1030 2 -542 4 -987 4 -990 1 -3 146 -5 323 -5 l322 0 0 1055 c-1 949 -4
1166 -20 1242 -2 13 -7 38 -10 57 -3 19 -18 72 -34 116 -74 219 -204 365 -405
455 -203 90 -537 113 -807 56 -52 -12 -168 -57 -231 -91 -119 -64 -264 -193
-376 -335 l-19 -25 -11 28 c-18 46 -94 158 -142 208 -78 81 -218 164 -344 203
-152 47 -372 57 -550 26z"/>
</g>
</svg>
