<svg xmlns="http://www.w3.org/2000/svg" viewBox="0 0 166.16 169.21"><defs><style>.cls-1{fill:#fff5eb;}.cls-2{fill:#f9a124;}.cls-3{fill:#2e7ac6;}.cls-4{fill:#f2950e;}.cls-5{fill:#ffc778;}.cls-6{fill:#fff;}.cls-7{fill:#21588f;}.cls-8{fill:#5e9bd6;}.cls-9{fill:#f9d198;}</style></defs><title>Asset 11</title><g id="Layer_2" data-name="Layer 2"><g id="Layer_1-2" data-name="Layer 1"><path class="cls-1" d="M100.48,13.25a71.81,71.81,0,0,0-25.09-1.14C60.12,14.32,49,22,41.58,35.21c-6.86,12.26-7.33,27.28-16,38.63C22.24,78.12,18,81.68,14.84,86,9.68,93.12,7.56,102,7.47,110.63c-.13,11.49,4.26,24.3,15,29.17,6.13,2.79,13.2,2.48,20,3.13,13.41,1.28,19.16,10.84,29.24,18.13,11.25,8.13,26.47,9.5,40.29,7.06,7.42-1.31,15.13-3.94,19.65-9.8,6.31-8.19,4.19-20.6,11.52-28.13,2.61-2.68,6.29-4,9-6.67a47,47,0,0,0,9.11-13c3.25-7,3.9-15.54-.3-22-3.68-5.68-10.4-8.86-14.72-14.1-11.3-13.7-4.6-34.37-17.67-48.06-5.57-5.83-13.29-9.12-21-11.37C105.18,14.34,102.84,13.74,100.48,13.25Z"/><path class="cls-2" d="M107.79,34.71a51.39,51.39,0,0,0-38.68-5.05,41.35,41.35,0,0,0-11.92,5.21c-7.54,5-11.51,12.8-13.54,18.75a37,37,0,0,0-2,11.08c-.08,3.55-.67,9.51-3.58,13-4.33,5.11-10,9.24-9.64,11s1.8,4.57,7.64,5.73a2.65,2.65,0,0,1,2.09,2.45,6,6,0,0,1-1.37,4.51s-1.28,2.16,1.67,3.54c0,0-2.36,1.08-1,3s2.16,2.26,1.47,7.67S36.73,128,41.65,130.27s15.05,3.14,24.59,1.08,10.91,3.34,11.9,7.57S81.48,156,81.48,156s9.15,7.48,30.29-.39c14.65-6,17.9-14.75,17.9-14.75s-7.28-12.49-8.75-16.33-4.72-12.1-1.28-21.34,7.57-15.74,8.75-30.68C129.3,61,125.18,44.63,107.79,34.71Z"/><path class="cls-1" d="M19.83,68.21a10.83,10.83,0,0,1-6.32,2.05A2.81,2.81,0,0,1,12,69.83,2.76,2.76,0,0,1,11,68c-.49-2.64,1.12-5.22,2.93-7.21s4-3.81,4.94-6.32c.92-2.33.69-4.95,1.19-7.4S22.24,42,24.75,42c5.32-.08,6,8.38,5.16,12A23.65,23.65,0,0,1,19.83,68.21Z"/><path class="cls-1" d="M148.41,134.45c1.31-2.19,2.83-4.44,5.15-5.51s5.63-.4,6.55,2c1.06,2.79-1.52,5.52-2.41,8.37-1,3.29.25,7-.83,10.25-1.51,4.56-9.75,9.15-12.86,3.66C141.08,148.05,145.84,138.75,148.41,134.45Z"/><path class="cls-2" d="M117.21,9.18a10.23,10.23,0,0,0-2.45-1.49c-1.38-.71-1.86-1.93-2.88-3a5.73,5.73,0,0,0-4.82-2,4,4,0,0,0-3.62,3.56c-.18,2.74,2.33,4.74,3.53,7-1.75.25-3.5-.89-5.14-1.35a9.32,9.32,0,0,0-3.71-.38,5.21,5.21,0,0,0-4.4,3c-1.41,3.65,3.07,6.69,5.62,3.51.24-.3-.19-.74-.44-.43A2.7,2.7,0,0,1,94,15.85c.16-2.53,2.71-3.73,5-3.74,2.9,0,5.71,2.44,8.54,1.67a.31.31,0,0,0,.19-.45c-1-2.31-3.45-4.08-3.53-6.74-.13-4.06,4.91-3.79,7.08-1.68,1.24,1.21,1.63,2.55,3.24,3.33,2.35,1.13,4.15,2.78,4.46,5.51a6.67,6.67,0,0,1-3.31,6.46c-1.52.9-2.85,1.18-4,2.59-1.55,1.89-3.87,2.84-6.16,1.48-2.74-1.63-2.15-5.24-1.78-7.87,0-.27-.36-.4-.42-.12-.76,3.52-.77,8.38,3.71,9.11A5,5,0,0,0,111.37,24c.4-.4.68-.91,1.06-1.33a6.58,6.58,0,0,1,2.43-1.49,8.34,8.34,0,0,0,2.46-1.53A7.19,7.19,0,0,0,117.21,9.18Z"/><path class="cls-3" d="M112.88,14.45A4,4,0,0,0,112,9.69a7.63,7.63,0,0,0-1.16-3.35,12.39,12.39,0,0,0-5-4.43c-2.3-2.15-6.06-2.76-8.48-.39s-1.65,5.3-.42,8a5.6,5.6,0,0,0-.49.36c-1.08.14-2.6.42-3.11,1.38s.11,1.76,1.15,2.39c.13,2.9,4,5.33,6.54,5.64h.19a2,2,0,0,0,.35,0A5.89,5.89,0,0,0,107,16.46l.41.09a8.94,8.94,0,0,0,.84,3.55c1,2.09,4.17,3.48,5.8,1.18C115.52,19.21,114.31,16.28,112.88,14.45ZM112,10.78a3.34,3.34,0,0,1,.57,1.33,2.67,2.67,0,0,1-.22,1.74,10.77,10.77,0,0,0-1-.93A5.05,5.05,0,0,0,112,10.78Zm-.69-.52a4.51,4.51,0,0,1-.55,2.18,11.79,11.79,0,0,0-1.91-1.12,23.08,23.08,0,0,1,.71-2.27,6,6,0,0,1,1.73.94C111.3,10.08,111.32,10.17,111.32,10.26ZM110.38,13a5.17,5.17,0,0,1-2.09,1.51,19.08,19.08,0,0,1,.39-2.48A11.34,11.34,0,0,1,110.38,13Zm-2.54-8.89A9.39,9.39,0,0,1,111.17,9a8.48,8.48,0,0,0-2.61-1.1,12,12,0,0,0-1.38-4.3C107.41,3.79,107.64,4,107.84,4.13Zm.08,3.65a19.33,19.33,0,0,0-6.8,0,14.53,14.53,0,0,0-1.63.42C99,6.5,99,4.52,100.24,3.18c1.45-1.59,3.49-1.36,5.27-.54A9.48,9.48,0,0,1,107.92,7.78ZM100.08,14c-.58-.81-.79-2-1.41-2.81l-.42-.72,1.24,0a12,12,0,0,0,3.37,4,13.58,13.58,0,0,0,1.22.81,16.53,16.53,0,0,1-3.43-.44C100.49,14.52,100.28,14.25,100.08,14Zm-2-4.26A7.41,7.41,0,0,1,99,9.23c.05.14.1.27.16.41C98.78,9.65,98.42,9.66,98.05,9.69ZM96.83,3.81c.93-2.91,4.29-3.67,6.82-2.52a5,5,0,0,0-1,0c-2.75.19-4.19,2.65-4.16,5.2a8.4,8.4,0,0,0,.3,2.06,11.26,11.26,0,0,0-1.21.59A7.1,7.1,0,0,1,96.83,3.81Zm-1.39,7a4.46,4.46,0,0,0-.82,1.59C94.19,11.78,94.38,11.14,95.44,10.82Zm1.41-.29.6-.06c.28.54.58,1.06.86,1.53l.09.09a9.65,9.65,0,0,0,.52,1.45,11.87,11.87,0,0,0,.66,1c-.86-.24-1.71-.52-2.55-.83a9,9,0,0,1-1.72-.67A4.16,4.16,0,0,1,96.85,10.53Zm-1.15,4.4a3.36,3.36,0,0,1-.35-.88,27.3,27.3,0,0,0,4.5,1.35l.08,0a13.13,13.13,0,0,1,0,1.66,3.86,3.86,0,0,0,.22,1.19,7.1,7.1,0,0,1-1.55-.65A8.14,8.14,0,0,1,95.7,14.93ZM106,16.33a5.43,5.43,0,0,1-4.63,2.14,5,5,0,0,1-.5-2.13c0-.2,0-.41,0-.61,0,0,0-.06,0-.08a17.15,17.15,0,0,0,4.66.35c.17.07.35.14.54.2Zm.85-1.35a11,11,0,0,1-1.28.22l-.4-.18a11.11,11.11,0,0,1-4.84-4.61,22.44,22.44,0,0,1,7.57,1.32A10.51,10.51,0,0,1,106.88,15ZM108,11a18.31,18.31,0,0,0-4.86-1.14A30.69,30.69,0,0,0,100,9.63c-.09-.22-.18-.44-.26-.67a14.68,14.68,0,0,1,5-.63,21.05,21.05,0,0,1,3.35.32A12.62,12.62,0,0,1,108,11Zm.21,4.94c0-.15,0-.31,0-.46a6.86,6.86,0,0,0,2-1.14,5.63,5.63,0,0,0,.76-.79,9.55,9.55,0,0,1,1,.94A4.28,4.28,0,0,1,109,15.9,5.48,5.48,0,0,1,108.23,15.89Zm3.56,5.84c-1.94.27-3.05-2-3.34-3.52a11.46,11.46,0,0,1-.18-1.56,5.07,5.07,0,0,0,3.57-1,4.43,4.43,0,0,0,.62-.6,7.63,7.63,0,0,1,1.18,2.33C114.19,19.1,114,21.42,111.79,21.73Z"/><path class="cls-3" d="M11.75,106c-2.29-.09-3.86,2.53-5.09,4.34-.41.07-.81.16-1.22.25a12,12,0,0,1-2,.41c-.78,0-1.62-.57-2.29-.49-1.47.18-1.24,1.78-1.06,3a4.26,4.26,0,0,0,2.12,3.48,6.27,6.27,0,0,0-.36,1.61c-.17,2.36,1.11,4.7,2.38,6.6A3.62,3.62,0,0,0,6.35,127a3.24,3.24,0,0,0,1.54-.14,8.46,8.46,0,0,0-.51,2.87,5.75,5.75,0,0,0,2.29,4.87,2.78,2.78,0,0,0,3.74-.47c1.15-1.56,0-4-.74-5.49A4.83,4.83,0,0,0,10,125.89a.34.34,0,0,0-.3-.17,2.61,2.61,0,0,0-.28,0l-.15,0a17.36,17.36,0,0,1,2-2.94,7.67,7.67,0,0,0,.51,2.35c.54,1.4,1.69,3.08,3.39,2.85A5,5,0,0,0,18.48,125c.45-1.81-1.39-3.21-2.66-4.14a17.19,17.19,0,0,0-2.09-1.28l.12-.27a5.34,5.34,0,0,0-.44-3.65l0-.07C14.33,113.12,16.69,106.15,11.75,106Zm-4.12,4.88c2.44,0,3.87,2.13,4.75,4.14.13.28.24.56.35.83a24.48,24.48,0,0,0-1,2.86c-.47-.19-1-.36-1.43-.52-1.84-.6-4.81-.74-6.94-1.68a24.36,24.36,0,0,1,2.93-4.34c.3-.4.6-.83.9-1.25A2.28,2.28,0,0,1,7.63,110.83Zm4.55,8.76.53.26a5.75,5.75,0,0,1-.45.69c-.09.12-.19.23-.29.35A11.35,11.35,0,0,1,12.18,119.59ZM.94,114c-.19-.67-.47-1.84.13-2.36s.08-.15.89-.15a10.8,10.8,0,0,0,2.13,0c.69-.11,1.36-.33,2-.49a31.66,31.66,0,0,0-3.54,5A3.53,3.53,0,0,1,.94,114Zm11.53,15.6a13.79,13.79,0,0,1,.58,1.86c.47,2.41-3.06,3.05-4.17,1.08a6.76,6.76,0,0,1-.3-5.33c.07-.23.17-.44.26-.66a3.47,3.47,0,0,1,.85-.1.32.32,0,0,0,.31-.19C11.3,126.88,12,128.34,12.47,129.61Zm-3-5.85a12.55,12.55,0,0,0-1.09,1.84l-.26,0c-1.23,0-2.17.16-3.16-.78a5.23,5.23,0,0,1-.45-.49,17,17,0,0,1-1.37-2.84,6,6,0,0,1-.12-4.24c2.82.86,5.72,1,8.5,2.11a13.84,13.84,0,0,0-.32,2.4A19.61,19.61,0,0,0,9.5,123.76Zm6.55,3c-3.24,1.59-4.12-2.68-4.16-4.8a13.42,13.42,0,0,0,1.51-1.78C16.14,121.74,20.1,124.81,16.05,126.8ZM13,119.22l-.65-.29c.2-.74.43-1.48.69-2.21A4,4,0,0,1,13,119.22Zm1.22-9.52a12.23,12.23,0,0,1-1.14,5.21c-.15-.33-.31-.66-.46-1-.9-1.8-2.36-3.5-4.48-3.73a4.1,4.1,0,0,0-.49,0,18,18,0,0,1,1.48-1.84c1.3-1.35,3-2.54,4.46-.64A3.81,3.81,0,0,1,14.21,109.7Z"/><path class="cls-2" d="M11.23,103.42a3.82,3.82,0,0,0-3.07.12c-1.64.81-1.76,2.82-3.27,3.77a.29.29,0,0,0-.08.07.25.25,0,0,0-.39.15,10.29,10.29,0,0,0,1,7.66c.68,1.19,1.26,1.87.76,3.39a14.57,14.57,0,0,1-2,3c-.55.79-1.37,1.6-1.13,2.64.19.82,1.2,1.65,1.73,2.26a23.28,23.28,0,0,0,3.38,3.63,8.52,8.52,0,0,0,1.73.81c.68.29,1.34.82,2.05,1a2.71,2.71,0,0,0,2-.17c2-1,1.8-3.09,1.07-4.81-.62-1.46-1-2.37-.36-3.81a12.49,12.49,0,0,0,.62-1.57,8.51,8.51,0,0,0,.28-4c-.37-1.81-1.59-1.85-3.2-1.64-1.16.15-2.37.47-2.69-1.38a6.49,6.49,0,0,1,.81-3c.74-1.51,2.5-1.53,3.13-2.91C14.45,106.75,13,104.13,11.23,103.42Zm1.84,4.67c-.44,1-2.2,1.5-2.84,2.47A8.51,8.51,0,0,0,9,113.83c-.2,1.51.4,2.76,2,2.86.78,0,1.82-.48,2.57-.27,2.74.78.9,5.21.29,6.66a3.56,3.56,0,0,0-.41,2.45,6.32,6.32,0,0,0,.59,1.23,5.21,5.21,0,0,1,.83,2.18c-.37.72-.73,1.45-1.09,2.18-1,.89-5-1.16-5.84-1.91a39.34,39.34,0,0,1-3.4-3.78C1.68,122.09,8,120.17,7.2,117c-.3-1.24-1.49-2.33-1.93-3.55a10.69,10.69,0,0,1-.39-5.55.31.31,0,0,0,.37,0c1.08-.71,1.22-1.6,1.92-2.63a3.11,3.11,0,0,1,3.42-1.41C12.07,104.22,13.82,106.44,13.07,108.09Z"/><path class="cls-2" d="M155.66,105.54c-.3-.13-.6-.25-.91-.36,2.89-3.09,7-5.61,6.29-10.3-.49-3.34-4.84-5.54-7.14-2.45a11.16,11.16,0,0,1-1.59,2.18c-1.57,1.37-3.4.48-4.61-1A15.35,15.35,0,0,1,145,88.07c-.73-2.49-1-5.7,1.81-6.88s5.57,1.61,4.88,4.53c-.13.57.76.82.89.24,1.41-5.94-7.35-8.46-8.91-2.52-.86,3.3,1.1,7.85,3,10.46,1.41,1.88,4.26,3.42,6.34,1.56,1.51-1.35,1.74-4.17,4.49-3.5,3.71.92,2.8,5.57,1.16,7.89-1.33,1.87-3.26,3.34-4.84,5.05a17.23,17.23,0,0,0-5.52-.61c-.88,0-2.94.71-3.69.39l-1.08-1.2a1.66,1.66,0,0,1-.9-2.41,10.77,10.77,0,0,1,1.27-2.51c.32-.51-.48-1-.79-.46-1.07,1.74-2.22,3.87-1.16,5.89,1.21,2.31,3.84,1.43,5.93,1.26a17.12,17.12,0,0,1,5.28.39,9,9,0,0,0-1.88,3.56c-.64,2.56.29,5.47,2.95,6.38a4.65,4.65,0,0,0,6-3.26C161.09,109.14,158.3,106.67,155.66,105.54Zm.94,9.31c-3,.63-4.83-2.14-4.49-4.8a8.08,8.08,0,0,1,2-4.14,9.06,9.06,0,0,1,4.24,2.56C160.15,110.51,159.56,114.22,156.6,114.85Z"/><path class="cls-3" d="M162.91,91.85c.06-2.21-.24-4.56-1.43-6.17-2.81-3.8-7.53-1.51-10.79,1.49a4.26,4.26,0,0,0-1.89.26,4.62,4.62,0,0,0-2.8,3.8,14.14,14.14,0,0,0-4.67,3.45c-3.68,4.39-.09,10.44,4.63,9.77a20,20,0,0,0,2.73,6.74c1.66,2.54,4.41,2.93,7.23,2.48,3.46-.54,6.36-1.61,8-4.87C166.52,103.63,167.65,96.09,162.91,91.85Zm-14.2,10.67a.36.36,0,0,0-.47,0,5.91,5.91,0,0,1-1.51.75,25.64,25.64,0,0,1-.3-3.06,17.45,17.45,0,0,1,.28-3.89,9.5,9.5,0,0,0,4.63,4.7A10.19,10.19,0,0,1,148.71,102.52Zm2.88-2.3a8.81,8.81,0,0,1-4.49-5.6,15.78,15.78,0,0,1,1.48-3.49A18.71,18.71,0,0,1,153.92,90c1.49,2.08,1.25,5.3.22,7.52a9.64,9.64,0,0,1-2.09,2.91C151.9,100.34,151.74,100.29,151.59,100.22Zm-.65-12.15a4.93,4.93,0,0,1,1.55.59,5.42,5.42,0,0,1,.67.48q-.79.09-1.56.24c-.75.15-1.51.35-2.28.58A14.45,14.45,0,0,1,150.94,88.07Zm4,1.87a12.47,12.47,0,0,1,3.86.61,9.32,9.32,0,0,1,3.06,1.69c0,2.82-.49,5.64-3,7.36a7.42,7.42,0,0,1-5.93,1.08C155.7,97.82,157.07,93.59,155,89.94Zm3.87-4.9c2.68.75,3,3.56,3.06,6a12.47,12.47,0,0,0-7.56-2,5.62,5.62,0,0,0-2.64-1.7C153.63,85.72,156.32,84.32,158.83,85Zm-9.08,3a16.11,16.11,0,0,0-1.86,2.35l-.67.26A3.76,3.76,0,0,1,149.75,88.09ZM141,100.7c-1.25-3,.83-5.64,3.18-7.27a18.73,18.73,0,0,1,1.74-1.06c0,.3,0,.61,0,.91a9.46,9.46,0,0,0,.23,1.33,21.18,21.18,0,0,0-.36,8.87A4.5,4.5,0,0,1,141,100.7Zm21.6,8.65c-1.7,2.58-5.24,3.44-8.18,3.57-4.54.2-6.64-4.37-7.48-8.69a6.21,6.21,0,0,0,1.46-.69.38.38,0,0,0,.28,0,11.22,11.22,0,0,0,3.6-2.16,8,8,0,0,0,5.47-.13A7.73,7.73,0,0,0,162.62,95c.09-.57.16-1.2.22-1.85,2.22,2.53,2.82,6.21,2.1,9.82A18.3,18.3,0,0,1,162.56,109.35Z"/><path class="cls-4" d="M107.68,109a.65.65,0,0,1-.21-.52.54.54,0,0,0-.2-.47,1.6,1.6,0,0,1-.37-.75,2,2,0,0,0,1.58,0,1.51,1.51,0,0,1,0-.83.53.53,0,0,0,0-.5c-.28-.27-.42-.3-.51-.07a1,1,0,0,1-.44.37c-.35.16-.37.15-.34-.15.1-1.26-.2-1.28-.62,0-.48,1.48-.36,2.32.3,2.41.44.07.47.12.41.6s.18.92.47.64S108,109.36,107.68,109Z"/><path class="cls-4" d="M108.46,127.21c-.06.25.26.85.43.81s.08-.26,0-.54C108.78,127,108.56,126.84,108.46,127.21Z"/><path class="cls-4" d="M109.9,129.87c-.36-.23-.58.33-.31.8s.27.34.45-.18S110.15,130,109.9,129.87Z"/><path class="cls-4" d="M117.31,141.38c.13.26.54.45.72.36s.07-.17-.26-.52S117.13,141,117.31,141.38Z"/><path class="cls-4" d="M114.05,134.26c-.27,0-.44.37-.2.49a.29.29,0,0,0,.33-.05A.27.27,0,0,0,114.05,134.26Z"/><path class="cls-4" d="M105.23,115.52c0,.27,0,.5.08.51s.16-.14.19-.34a.77.77,0,0,0-.07-.51C105.36,115.1,105.27,115.24,105.23,115.52Z"/><path class="cls-4" d="M119.39,69.43c.13-.09.13-.12,0-.41s-.53-.36-.57-.06S119.21,69.54,119.39,69.43Z"/><path class="cls-4" d="M109.26,43.84,111.33,48c.6,1.18,1.29,2.37,2.08,4.17a31,31,0,0,1,1.82,5,44.88,44.88,0,0,1,1,5.09c.13.7.24,2,.29,2.76,0,1.43.09,1.81.27,1.82a6.77,6.77,0,0,0,.3-2.38c0-.39,0-1,0-1.45a1.84,1.84,0,0,0-.26-1.1c-.21-.3-.22-.42-.11-.65a1.39,1.39,0,0,0-.25-1.23.39.39,0,0,1,0-.36,1.87,1.87,0,0,0-.15-.89,9.27,9.27,0,0,1-.37-1.49c-.12-.84-.13-.85.23-1a3.23,3.23,0,0,0,.54-.23c.15-.09.24,0,.36.3s.12.44-.11.56-.29.39,0,.56a.71.71,0,0,1,.1.54c0,.33,0,.46.25.62s.25.26.13.46,0,.4.39.37a.76.76,0,0,1,.74.51c0,.21-.21.28-.55.18s-.58.08-.56.3.15.19.42.17.41,0,.49.47c.09.68.81,1.08.77.42a.81.81,0,0,1,.19-.56.36.36,0,0,0,.09-.48c-.11-.26-.08-.31.17-.35s.36-.22,0-.36-.3-.15-.18-.39.43-.35.62,0a.94.94,0,0,0,.44.42.84.84,0,0,1,.41.44c.35,1,.4,1.13.81,1.13s.42.24,0,.27c-.14,0-.34.2-.48.42s-.32.38-.6.33a.54.54,0,0,0-.56.22c-.29.35-.72.28-.82-.14s-.6-.5-.58-.18c-.21.1-.24,0-.2-.1-.18-.14-.18.06-.13.43.09.63.63,1.11,1.1,1,.27-.08.53.21.52.59,0,.83,0,1,.21,1.13s.27.11.52-.16c.42-.45.61-.42.89.21a3.25,3.25,0,0,1,.06,2.15.57.57,0,0,0-.07.87c.23.22.23.35,0,1.09-.34,1.19-.2,1.52.48,1.13.3-.16.32-.16.41.07a.52.52,0,0,0,.31.28c.16,0,.18.14,0,.53a1,1,0,0,0-.07.71c.1.15.07.23-.11.32s-.22.18-.15.41a.54.54,0,0,1-.13.56c-.28.34-.83.25-.74-.1a.38.38,0,0,0-.07-.35c-.07-.07-.18.18-.29.68s-.12.7,0,.51.27-.27.7-.18.6.13.23.65c-.18.23-.23.43-.17.55a4.57,4.57,0,0,1-.26,1.45c-.26.89-.34,1.3-.23,1.41s.07.2-.19.34-.33.19-.17.63.09.59-.17,1.17a1.58,1.58,0,0,0-.23,1c.07.18,0,.27-.11.33a.63.63,0,0,0-.25.44c-.06.42-.54,1-.76.89s-.08-.17,0-.32c.18-.34.1-1.36-.09-1.43s-.41.28-.62.84c-1.31,3.24-1.54,3.8-1.24,4s.18.81-.25,1.13a2.05,2.05,0,0,0-.49.93,7.27,7.27,0,0,1-1.12,2.44,2.1,2.1,0,0,1-.07-.45.42.42,0,0,0-.3-.43,5.64,5.64,0,0,1-.7-.27c-.44-.21-.65-.07-.49.33a1.32,1.32,0,0,1-.14.73c-.32.69-.16,1,.5,1,.46,0,.9.06.84.18a2.1,2.1,0,0,0,0,.3c0,.18-.11.19-.42.05-.56-.25-1.83.15-1.77.57a5.39,5.39,0,0,1-.71,2.18c-.12.08-.22,0-.38-.24-.28-.43-.56-.56-.81-.37s-.23.1-.37-.15.09-.69.46-.52a.57.57,0,0,0,.53-.07c.32-.24.31-.56,0-.48s-.64-.28-.38-.62a.91.91,0,0,0,.14-.63,1.55,1.55,0,0,1,.57-1.34c.3-.31.3-.38.07-.9s-.21-.61,0-.86a1.57,1.57,0,0,0,.42-1.28,3.16,3.16,0,0,1,.34-1.33,2.24,2.24,0,0,0,.29-1,5.05,5.05,0,0,1,.61-1.88,1,1,0,0,0,.09-.52,11,11,0,0,1,.44-2c.65-2.46.52-2.7-.19-.47-.33,1-.76,2.24-.93,2.71s-.76,2.29-1.31,4-1.15,3.41-1.31,4-.5,1.58-.78,2.35a16.65,16.65,0,0,0-1.34,5.41c0,.47.18.55.56.21s.54-.27.49.1a5.13,5.13,0,0,0,0,.71,1.34,1.34,0,0,1-.26.84c-.33.48-.67.52-.55.06s-.14-.84-.36-.76a5.31,5.31,0,0,0-.94,2.74,3.23,3.23,0,0,1-.15,1.06c-.17.68-.16.86,0,1,.7.33.81.41,1,.75a1,1,0,0,0,.49.5c.19.07.32.2.28.28a1.17,1.17,0,0,0,0,.38,6.25,6.25,0,0,1-.17,1.19,3.3,3.3,0,0,0-.08,1.31c.17.47.07.73-.26.62s-.4,0-.39,1.09c0,.53-.05.79-.15.81s-.39.63-.22.68a.63.63,0,0,1,.23,1c-.23.34-.25.47-.11.77a1.48,1.48,0,0,1-.05,1.07c-.39,1.26,0,3.24.62,3.41-.59.47-.66,1-.23,1.92.29.61.3.64.07,1.23s-.17.65,0,.87a1.19,1.19,0,0,1,.16.71.7.7,0,0,0,.12.56.67.67,0,0,1,.22.46,2.77,2.77,0,0,0,.85,1.31c.08,0,.07.33,0,.64-.15.53-.14.57.22,1a3.35,3.35,0,0,1,.57,1.06,6.49,6.49,0,0,0,.33.94.43.43,0,0,1-.13.54c-.34.31-.3.42.25.67.39.18.47.31.59.85s.74,1.44,1,1.34c-.27.62.24,1.12.65.89.23-.13.32-.07.54.32s.33.43.47.35c.51-.3.81.58.78,2a.73.73,0,0,0,.16.46c.21.22.53.11.52-.17.39.06.39.17.19.42-.38.49,0,1,.49.72.27-.12.45-.1.56,0s.07.26-.11.34a.93.93,0,0,0-.36.58c-.05.25-.15.44-.21.41s-.11.22-.09.55c.07.87.81,1.38.92.66.07-.43.07-.43.49-.26a1,1,0,0,0,.56.1c.25.34.41.48.56.51.17.42-.39.43-.6.19s-.26-.2-.34-.17-.07.3.26.38a1.13,1.13,0,0,1,.51.51c.21.39.31.43.77.36s.73,0,.61.55c-.06.28,0,.38.16.44.34.1.41.3.13.34s-.43.32,0,.45.52.38,1.06,1.25c1.13,1.72,1.2,1.95.71,2.26-.29.19-.38.33-.29.46-.31.47.34.89,1.25,1.08a6.24,6.24,0,0,1,.87.22c4.67-4.1,6-7.6,6-7.6s-1.93-3.32-4-7a.44.44,0,0,1-.21-.37,97.73,97.73,0,0,1-4.54-8.91c-1.48-3.83-4.72-12.1-1.28-21.34s7.57-15.74,8.75-30.68c.91-11.53-3.21-27.91-20.6-37.83-.82-.46-1.65-.9-2.48-1.31a31.87,31.87,0,0,0,1.33,4.47C107.23,39.36,108.66,42.57,109.26,43.84ZM120.92,63s0-.17.13-.26C121.27,63,121,63.12,120.92,63Zm-11.39,40.81c-.07.16-.21.25-.32.21s-.22-.13,0-.4a.39.39,0,0,1,.3-.14C109.59,103.48,109.59,103.63,109.53,103.78Zm.46-1.15c-.34.14-.53,0-.67-.41s-.29-.54-.5-.19-.5.32-.58-.2,0-.47.24-.65.32-.13.34,0,.26.33.35.11c.2-.47.72-.44,1,.07S110.32,102.49,110,102.63Zm.39-1.83c-.37,0-.4-.23-.12-1s.45-.87.66-.39S110.76,100.81,110.38,100.8Zm.52-2.57c-.36.11-.4,0-.1-.43s.45-.34.43,0S111.22,98.15,110.9,98.23ZM112,96.4c-.44.95-.78,1.22-.86.66a.25.25,0,0,0-.24-.18.44.44,0,0,1-.35-.26.74.74,0,0,0-.49-.32c-.34-.06-.34-.08-.05-.52.54-.83,1.15-1,1-.31-.29,1-.18,1.27.28.64a.75.75,0,0,0,.17-.68c-.16-.51.4-.74.76-.32S112.4,95.47,112,96.4Zm6.14,8.48a.61.61,0,0,1-.3-.93.46.46,0,0,1,.82.08C118.85,104.45,118.49,105,118.12,104.88Zm8.28-33.51c.23-.9.26-.94.3-.38,0,.28,0,.64,0,.8,0,.38-.2.9-.37.87S126.21,72.07,126.4,71.37ZM126,82.66c.52.08.53.4.06,1.33-.29.55-.43.94-.38,1.05a1.16,1.16,0,0,1-.21.67c-.23.39-.5.35-.58-.08S125.69,82.62,126,82.66Zm-1.28,0c.09,0,.22.11.28.28.14.45.06.57-.19.3S124.48,82.74,124.71,82.7Zm-.23,1.16c.26,0,.28.24,0,.64-.1.16-.24.24-.31.18S124.21,83.86,124.48,83.86Zm-1.76-2.68c-.49-.91-.49-.92,0-.71S123.12,81,122.72,81.18Zm-.78-12.61c.22-.22.31-1,.13-1s-.09-.4,0-.89a7.81,7.81,0,0,1,.16-.87c.2,0,.37.53.28,1.14a1.19,1.19,0,0,0,.09.82c.17.15.15.47-.07,1.17-.12.4-.25.41-.53.06C121.84,68.82,121.83,68.69,121.94,68.57Zm-2.1-10.42a.43.43,0,0,1,.31-.08c.26,0,.4.53.14.51S119.74,58.27,119.84,58.15Zm-1.33-2c.31-.16.36.19,0,.43-.14.11-.3.19-.36.17S118.26,56.26,118.51,56.14Zm.56,2.47c-.32-.12-.35-.53-.09-.82s.23-.24.39.08C119.65,58.5,119.52,58.8,119.07,58.61Zm.26-2.24a.35.35,0,0,1,.31.29c.06.26,0,.29-.54.42s-1.08-.13-.51-.3a.84.84,0,0,0,.39-.24A.47.47,0,0,1,119.33,56.37Zm-1-1.84c.41-.16.54-.09.41.22s-.15.23-.38.19C118,54.88,117.94,54.68,118.32,54.53Zm-2.5-.07c.11-.15.17-.17.28-.08s.17.31-.14.45S115.64,54.7,115.82,54.46Zm-2-8.83a1.45,1.45,0,0,1,.37-.64c.19-.17.3-.17.44,0,.47.56.15,1.13-.53,1.06C113.76,46,113.76,46,113.86,45.63Z"/><path class="cls-4" d="M107.38,110.3c-.24-.07-.57.59-.42.9a.23.23,0,0,0,.28.14C107.51,111.23,107.63,110.38,107.38,110.3Z"/><path class="cls-4" d="M106.51,118.71a1.53,1.53,0,0,0,.24.59C106.69,118.86,106.59,118.72,106.51,118.71Z"/><path class="cls-4" d="M120.67,148c.2.64.35.68.4.4S121,148.15,120.67,148Z"/><path class="cls-4" d="M106.75,115.24a.6.6,0,0,0-.22.4C107,115.3,107,115.09,106.75,115.24Z"/><path class="cls-4" d="M121.58,72.58c.19-.11.16-.27-.06-.32a.21.21,0,0,0-.25.15C121.23,72.6,121.39,72.69,121.58,72.58Z"/><path class="cls-4" d="M115.87,84.41a1.24,1.24,0,0,1,0,.5c-.11.25.14.32.32.08S116.15,84.29,115.87,84.41Z"/><path class="cls-4" d="M118.66,77.6c-.17-.2-.27-.11-.31,0C118.51,77.83,118.61,77.74,118.66,77.6Z"/><path class="cls-4" d="M121.49,149.38c-.14.09-.2.22,0,.39a1.15,1.15,0,0,0,.4-.35A.26.26,0,0,0,121.49,149.38Z"/><path class="cls-4" d="M120,79a7.29,7.29,0,0,0,.74-2,7.85,7.85,0,0,0,.43-2.18c-.23-.34-.37-.11-.69,1.08C119.94,77.82,119.72,78.9,120,79Z"/><path class="cls-4" d="M119.34,67.81c-.21,0-.2.26.17.21A.23.23,0,0,0,119.34,67.81Z"/><path class="cls-4" d="M116.16,73.52c0-.41.22-1.19.31-1.72.2-1,.07-1.7-.18-1.12a3,3,0,0,0-.19.71,16,16,0,0,1-.24,1.59c-.1.66-.23,1.34-.22,1.5C115.93,74.39,116.08,73.94,116.16,73.52Z"/><path class="cls-4" d="M116.49,69.77c.11,0,.2-.44.08-1.44C116.39,68.59,116.33,69.82,116.49,69.77Z"/><path class="cls-4" d="M116.15,86.69c.29.27.44.27.47.2C116.37,86.64,116.22,86.64,116.15,86.69Z"/><path class="cls-4" d="M115.27,77.24a.38.38,0,0,0,0-.34c-.06-.07-.16,0-.21.18s0,.32,0,.34S115.23,77.36,115.27,77.24Z"/><path class="cls-5" d="M61.79,32.82c.05,0,.06.1,0,.16s-.3.1-.28,0A.18.18,0,0,1,61.79,32.82Zm-2.3,2.81c-.06.21.24.23.44,0s.14-.19-.15-.19S59.54,35.48,59.49,35.63Zm10.39-5.85c.38,0,.43-.08.29-.14S70,29.62,69.88,29.78Zm.89-.19c0,.08.07.13.2.07a.43.43,0,0,0-.09-.24A.14.14,0,0,0,70.77,29.59ZM58.45,36.78c.13,0,.33-.29.29-.36s-.14,0-.25.1S58.26,36.81,58.45,36.78Zm4.86-5.14-.44.19C63.09,32,63.3,31.84,63.31,31.64ZM45.72,62.88c.09.13.14,0,.15,0S45.74,62.77,45.72,62.88ZM46,70.66a3.53,3.53,0,0,0,.29-1.34C46.26,69.35,46.18,69.71,46,70.66Zm-1.65-5.48c.1.24.19.06.38-.86.32-1.5.39-2.29.26-2.33A18.94,18.94,0,0,0,44.39,65.18ZM47,57.69a1.81,1.81,0,0,1,0-.34c0-.18-.08-.19-.16,0S46.82,57.8,47,57.69Zm-14,31.49a18.28,18.28,0,0,1-3.66,1.38,5.76,5.76,0,0,1-.81-1.9c-.39-1.77,5.31-5.9,9.64-11,2.15-2.54,3-6.46,3.38-9.77,0-.06,0-.09.06-.16.15-.48.2-.86.1-.89s0,0-.06,0c.06-.79.09-1.53.1-2.18a37,37,0,0,1,2-11.08c2-5.95,6-13.8,13.54-18.75A35.53,35.53,0,0,1,62.61,32c.16,0,.22.13.09.25a.51.51,0,0,1-.27.12c-.82.07-1.33.36-1.14.59.06.06,0,.15-.18.28s-.24.22-.16.33-.1.5-.46.44c.08.14-.32.52-.65.71s-.32.21-.37.43-.11.35-.31.23a.24.24,0,0,0-.3,0,4.18,4.18,0,0,1-.43.33,1.3,1.3,0,0,0-.41.48c-.12.26-.14.27-.42.33s-.29.1-.3.15a1.45,1.45,0,0,1-.39.69.37.37,0,0,0-.14.21s-.08.14-.19.2a.55.55,0,0,0-.24.27c0,.13-.1.17-.34.25s-.31.1-.44.4c-.19.45-.4.6-.77.57.15.27-.31,1.12-.83,1.53-.22.17-.3.29-.32.44s0,.21-.24.31a.32.32,0,0,0-.15.5c.06.06-.17.29-.26.26s-.14.09-.26.34c-.24.48-.28.57-.41.45s-.24,0-.25.26a1.84,1.84,0,0,1-.29.65,3.19,3.19,0,0,0-.3.58.76.76,0,0,1-.08.2s0,.12.09.18a.55.55,0,0,1,.17.32c0,.19.06.25.35.5.09.08.07.17-.11.51a1.85,1.85,0,0,0-.21.54,3.61,3.61,0,0,1-.76,1.41c-.12,0-.2-.25-.11-.44s-.07-.24-.28,0a.87.87,0,0,0-.22.45c0,.14,0,.32-.07.4s0,.23.24.07.32-.12.27.13a19.59,19.59,0,0,1-.91,3c-.14.46-.34,1.06-.4,1.38s-.35,1.4-.59,2.53-.45,2.34-.53,2.76-.24,1.28-.39,2.06c-.32,1.77-.38,1.58-.11-.32A9.57,9.57,0,0,0,48,58.79a1,1,0,0,1,0-.37,4.25,4.25,0,0,0,.24-1.34,2.51,2.51,0,0,1,.12-.68,3,3,0,0,0,.13-.89,1.32,1.32,0,0,1,.18-.84c.11-.17.1-.26,0-.53s-.12-.34,0-.55a1.08,1.08,0,0,0,.27-.83.67.67,0,0,1,.09-.38c.13-.21,0-.42-.19-.34s-.18-.12,0-.28a.31.31,0,0,1,.27-.06c.19.08.33-.12.24-.31s-.1-.15-.19-.08-.27,0-.4-.19-.13-.17-.19-.13a3.84,3.84,0,0,0-.39,1.32c0,.24-.62.59-.91.47s-.21-.05-.21.07a1.31,1.31,0,0,1,0,.19c0,.08.2.1.43,0s.42.1.27.55a.85.85,0,0,0-.07.46c.09.23,0,.34-.24.25a2.54,2.54,0,0,0-.36-.1c-.09,0-.15-.1-.16-.24s0-.25,0-.28a5.58,5.58,0,0,0-.53,1.68,1.74,1.74,0,0,1-.21.66c-.21.26-.26.7-.1.78s.07.45-.48,2.86c-.1.41-.21.69-.29.66a1.63,1.63,0,0,1-.09-1c0-.12,0-.22,0-.23s-.34.41-.36.71a.46.46,0,0,1-.11.33c-.07.06-.08.13,0,.25a1.61,1.61,0,0,1-.1.69,1.36,1.36,0,0,0-.06.85c.09.3.08.31-.08.47s-.15.17-.09.25a2.52,2.52,0,0,1-.12,1,5.67,5.67,0,0,0-.16,1.09.64.64,0,0,1-.1.42c-.21.4-.21.41.08.48s.28,0,.37-.17.05,0,0,.39-.15.59-.19.54a.47.47,0,0,1,0-.27c.06-.27-.21-.32-.37-.06a.6.6,0,0,0-.1.42c0,.17,0,.24-.1.31a.2.2,0,0,0-.09.25,1.1,1.1,0,0,1-.09.53c-.11.29-.12.38,0,.41s.11.11.12.22,0,.18.2.06c.39-.28.42,0,.1.92-.2.58-.22.68-.14.87a.69.69,0,0,1-.2.7A5.77,5.77,0,0,0,43,72.6c0,.55,0,.63.36.34s.23-.19.28,0,0,.3-.24,1c-.13.32-.11.63,0,.63s.32.58.09,1.18c-.14.36-.24.54-.24.35s.09-.17,0-.15c-.14.3-.27,0-.16-.34s0-.57-.29-.35-.22.12-.32,0-.17-.1-.38.1-.3.21-.36.18-.27.07-.11.2.17.24-.16,1.15a1,1,0,0,0-.06.49,1.18,1.18,0,0,1,0,.51c-.14.38-.06.51.18.29s.19-.2.14-.39,0-.42.17-.31.14,0,.24-.22.16-.33.27-.37a1.14,1.14,0,0,0,.32-.41c.27-.59.38,0,.11.64-.21.44-.22.49-.08.61a.24.24,0,0,1,.05.33c-.12.22-.3.23-.35,0s-.19-.26-.29-.07a1,1,0,0,0,0,.77c.15.16.1.34-.11.5s-.2.19-.25.46a1.22,1.22,0,0,1-.35.66,2.45,2.45,0,0,0-.35.49c-.07.28-.25.47-.4.42s-.19,0-.42.36-.25.41-.17.44a.82.82,0,0,1,.24.17c.13.14.16.14.76-.63a9.3,9.3,0,0,0,1-1.5,5.74,5.74,0,0,1,.56-.89,1,1,0,0,0,.21-.36,3.67,3.67,0,0,1,.63-1.3,1.1,1.1,0,0,0,.29-.67,5.12,5.12,0,0,1,.42-1.17c.17-.4.42-1,.57-1.41.47-1.24.84-2.28.88-2.27s0,.41-.41,1.85c-.27.81-.71,2.1-1.05,2.87a24.23,24.23,0,0,1-3.1,5.36,26.46,26.46,0,0,1-4.25,4.48A22.75,22.75,0,0,1,32.94,89.18ZM50.81,46s.11,0,.17-.05.17-.14.07-.21-.13,0-.19.08S50.79,46,50.81,46Zm-.57,1.13c.06.3.32.35.48.1s.17-.06.16.08.06.07.17,0,.18-.12.2-.34-.1-.36-.27-.15-.21.14-.23-.14-.09-.33-.28-.28S50.18,46.83,50.24,47.16Zm-.6,1.05c.06.28.15.23.37-.2s.23-.52,0-.55S49.58,47.94,49.64,48.21Zm-.07.94c.18-.21.17-.3,0-.25s-.16,0-.19.23S49.4,49.34,49.57,49.15Zm-.84,1.55c.17.24.47.09.4-.2a.55.55,0,0,1,.12-.39c.27-.36.31-.21.12.37-.13.4.18.28.49-.18.17-.25.17-.26,0-.3a.33.33,0,0,1-.23-.18.24.24,0,0,0-.16-.15.11.11,0,0,1-.12-.1c0-.32-.2-.17-.47.38S48.61,50.54,48.73,50.7ZM43.64,61.21c.24.1.24.09,0-.49A.27.27,0,0,0,43.64,61.21Zm-.78,10c-.15.46-.23.89-.12.94s.14-.3.28-.67a1.73,1.73,0,0,0,.16-.71c-.08,0,.1-.62.25-.78a.31.31,0,0,0,0-.33c-.08-.3-.15-.29-.27,0-.22.52-.28.76-.23.89A1.5,1.5,0,0,1,42.86,71.24Zm-.22-12.15c.13,0,.21-.48.1-.57s-.11,0-.15.15C42.49,59,42.5,59.12,42.64,59.09Zm-.23.65c0,.11.1.18.15.16s.08-.2-.07-.38S42.32,59.45,42.41,59.74Zm-.06,15.14a.26.26,0,0,0,.15-.18C42.5,74.55,42.34,74.62,42.35,74.88ZM40.67,79.3c-.14.3-.14.31.06.24a.76.76,0,0,0,.46-.67C41.16,78.53,41,78.7,40.67,79.3Zm-.11-.52a.14.14,0,0,0,.14.09.6.6,0,0,0,.1-.51C40.72,78.23,40.5,78.64,40.56,78.78Zm-.78,1.58a.14.14,0,0,0,.18.07.29.29,0,0,1,.24,0c.24.19.31-.25.07-.47s-.24-.2-.39,0A.49.49,0,0,0,39.78,80.36Zm0,.6c.13.06.45-.11.46-.24s-.08-.09-.18-.08S39.63,80.89,39.79,81Zm-1,2.63c-.07.13-.05.16.07.14s.39-.23.3-.32S38.92,83.35,38.78,83.59Zm-.05-1.51c.15.14.29,0,.28-.26s0-.18-.18-.12S38.57,81.93,38.73,82.08Zm-7,5.19c-.15.1-.18.16-.11.28a.54.54,0,0,0,.33.19c.25,0,.26,0,.37-.21C32.53,87.09,32.2,87,31.73,87.27Zm23.94-47.5a.61.61,0,0,0,.11-.27C55.66,39.66,55.65,39.74,55.67,39.77ZM44.83,69.49c-.08.07-.09.1-.07.35s.21.35.28.09S44.94,69.41,44.83,69.49Zm1.91-13.28c-.15-.15-.23-.13-.24-.08S46.71,56.25,46.74,56.21ZM44.52,70.69c0,.09,0,.18,0,.19S44.72,70.68,44.52,70.69Zm-.45-3.79c-.11.09-.11.21,0,.24s.12,0,.14-.11S44.18,66.81,44.07,66.9Zm21.67-36a.49.49,0,0,0,.27-.33l-.37.13C65.51,30.88,65.55,31,65.74,30.94Zm-11.19,10a.26.26,0,0,0,.2-.09C54.46,40.83,54.4,40.92,54.55,40.94Zm-8,26.54c-.21.93-.22,1.52,0,1a4,4,0,0,0,.17-.64c0-.2.16-.84.27-1.43s.19-1.18.2-1.32a1.59,1.59,0,0,0-.32.86C46.82,66.32,46.7,67,46.59,67.48ZM64.08,31.53s.12,0,.31,0c.49-.05.84-.43.44-.48l-.1,0c-.3.11-.59.24-.89.36C64,31.45,64.09,31.5,64.08,31.53Zm-8.9,9.62a.29.29,0,0,0-.11.2s.08,0,.17-.06.13-.18.11-.2S55.24,41.08,55.18,41.15Zm-1.82,1.29c-.15,0-.4.35-.3.44s.39-.15.4-.31A.13.13,0,0,0,53.36,42.44ZM47.44,62.81a.31.31,0,0,0,0,.26s.08,0,.1-.16,0-.26,0-.27S47.46,62.71,47.44,62.81Zm5.45-19.35c.13-.27.1-.47-.1-.4s-.21.14-.13.35a.36.36,0,0,1,0,.29.3.3,0,0,0,0,.26.76.76,0,0,1,0,.43.94.94,0,0,0-.75-.25,1,1,0,0,1-.15.41.26.26,0,0,0-.06.27c.08.17.15.2.23.1a.46.46,0,0,1,.28-.12c.2,0,.2,0,.14.12-.26.6-.11.65.29.1s.56-1,.28-1.21S52.77,43.67,52.89,43.46Z"/><circle class="cls-6" cx="85.12" cy="67.93" r="36.76"/><path class="cls-3" d="M114.6,80.91a32.42,32.42,0,0,1-8.81,11.7V60.14a1.29,1.29,0,0,0-2.58,0v28H96.52a1.29,1.29,0,1,0,0,2.58h6.69v3.82a32,32,0,0,1-18.09,5.58,33.21,33.21,0,0,1-4.25-.28v-9.5h8.89V82.09h9.06V53.45H87.52a1.3,1.3,0,0,0,0,2.59h8.71V79.51h-9v8.27H78.29V99.41a31.93,31.93,0,0,1-13.81-6.78h.12V90.36h8.55a1.29,1.29,0,0,0,0-2.58H64.6V73.89h8.55a1.29,1.29,0,0,0,0-2.58H64.6V55.83H75.32V43.59H70a1.29,1.29,0,1,0,0,2.58h2.77v7.08H62v8.94H51.17a35.1,35.1,0,0,0-.47,5.74,34.42,34.42,0,0,0,54.79,27.75l.3-.23a34.45,34.45,0,0,0,10.83-13.63,1.11,1.11,0,0,0-1-1.57A1.08,1.08,0,0,0,114.6,80.91ZM62,90.35a32.11,32.11,0,0,1-9.11-22.42c0-1.06.06-2.12.16-3.15h9ZM86.29,33.53A34.38,34.38,0,0,0,54.7,51.83a1.12,1.12,0,0,0,1,1.64,1.1,1.1,0,0,0,1-.6A32.22,32.22,0,0,1,96.23,37.7v6.1H79.82V61.55H71.74a1.29,1.29,0,1,0,0,2.58h8.08V78.84H71.74a1.3,1.3,0,1,0,0,2.59H82.41V64.13h6.12v9.06a1.3,1.3,0,1,0,2.59,0V61.55H82.41V46.39H98.82V38.78a32.84,32.84,0,0,1,4.39,2.52V51.86a1.29,1.29,0,1,0,2.58,0V43.25A32.28,32.28,0,0,1,116,58.84h-4.93a1.29,1.29,0,0,0,0,2.58h5.57a31.74,31.74,0,0,1,.67,6.51,32.36,32.36,0,0,1-.28,4.21h-6.13a1.25,1.25,0,0,0,0,2.5h8a34.12,34.12,0,0,0,.64-7.47A34.57,34.57,0,0,0,86.29,33.53Z"/><path class="cls-7" d="M96.06,89.34c-.11-.32-.58-.62-.54-.34a.76.76,0,0,0,.23.43C96,89.62,96.13,89.57,96.06,89.34Z"/><path class="cls-7" d="M105.77,60.78s0-.64,0-.64a1.29,1.29,0,0,0-.58-1C105.28,60.53,105.36,60.8,105.77,60.78Z"/><path class="cls-7" d="M98.44,59.79c-.47-1.28-.73-1.28-.51-.07.13.55.14,1.25.19,1.49s.08.46.13.84.19.81.2,1.28.13.9.17,1.28a6.41,6.41,0,0,0,.09.84,4.67,4.67,0,0,1,.1.57c0,.23,0,.48,0,.68a7.18,7.18,0,0,0,0,.93,2.32,2.32,0,0,0,0,.6V60.71A3.6,3.6,0,0,1,98.44,59.79Z"/><path class="cls-7" d="M103.38,60.87c.05-.1,0-.18-.17-.21V61A.39.39,0,0,0,103.38,60.87Z"/><path class="cls-7" d="M103.27,64.55c-.09.47.3.62,1.2.42.62-.14,1.29-.2,1.28-.11l0,.09v-.86a.07.07,0,0,1-.08,0,3.35,3.35,0,0,1-.34-.25.84.84,0,0,0-.65-.16c-.24,0-.74.06-1.13.07l-.38,0v.39A.46.46,0,0,1,103.27,64.55Z"/><path class="cls-7" d="M105,61.7a1.3,1.3,0,0,0-.76.08C104.81,61.81,105,61.75,105,61.7Z"/><path class="cls-7" d="M95.27,53.52c-.1.29.34.89.53.71S95.82,53.86,95.27,53.52Z"/><path class="cls-7" d="M78.31,100.87c-.57,0-.65.15-.34.61.19.28,1.33.32,1.29,0S78.83,100.86,78.31,100.87Z"/><path class="cls-7" d="M98.3,77.73a.22.22,0,0,0,0-.27.2.2,0,0,0-.29,0,.18.18,0,0,0,.05.26C98.11,77.79,98.25,77.8,98.3,77.73Z"/><path class="cls-7" d="M115.6,80.25a1.08,1.08,0,0,0-1,.66,32.42,32.42,0,0,1-8.81,11.7V65.17a2,2,0,0,1-.49,0,5.17,5.17,0,0,0-2.09.51v.36a1.65,1.65,0,0,1,0,1.18v.45c.32.11.36.22.17.74a1.79,1.79,0,0,1-.17.34v1.64a.42.42,0,0,1,0,.71v17H96.52a.76.76,0,0,0-.16,0,1.37,1.37,0,0,0,.15.21c.25.31.26.41,0,.63a.34.34,0,0,0,0,.54c.5.59,0,.9-1,.71a1.31,1.31,0,0,0,1,.46h6.69v3.82a32,32,0,0,1-17.07,5.54,1,1,0,0,1,.35,1,.72.72,0,0,0,0,.52c.3.66-.16.37-.52-.34-.22-.44-.47-.79-.55-.77s-.35-.15-.53-.41c-.59,0-1.17,0-1.75-.06-.06.1-.16.1-.29,0l-1.42-.14c-.8.15-.83.17-.71.64a1,1,0,0,1-.18.93c-.21.3-.25.46-.12.52.64.1,1.25.17,1.87.22,0-.11,0-.23-.1-.42-.18-.66-.18-.66.46-.77.85-.18,1.12,0,1.37,1,0,.1,0,.18.08.27l1,0a34.27,34.27,0,0,0,20.37-6.67l.3-.23a34.45,34.45,0,0,0,10.83-13.63A1.11,1.11,0,0,0,115.6,80.25Z"/><path class="cls-7" d="M97,56.82a.57.57,0,0,0,.17-.78c-.11-.22-.31-.64-.44-.95-.25-.6-.71-.76-.74-.29a.76.76,0,0,0,.11.44,9.09,9.09,0,0,1,.45.83A3.6,3.6,0,0,0,97,56.82Z"/><path class="cls-7" d="M97.69,58.29c.11,0,.19-.14.18-.21s-.11-.11-.23-.09a.22.22,0,0,0-.18.21C97.48,58.29,97.58,58.33,97.69,58.29Z"/><path class="cls-7" d="M104.07,52.56c-.25,0-.37.08-.4.27a1.21,1.21,0,0,0,.8.31C104.31,52.8,104.16,52.56,104.07,52.56Z"/><path class="cls-7" d="M103.21,50.84v.29l.09-.1C103.44,50.85,103.38,50.78,103.21,50.84Z"/><path class="cls-7" d="M119.53,67.16a33.91,33.91,0,0,0-2.06-10.92,1.44,1.44,0,0,1-.13-.37A34.39,34.39,0,0,0,74.41,35.22l.53.4c.58.46,1.07.82,1.64,1.26a32.3,32.3,0,0,1,19.65.82v6.1h-1l-.07.09c-.24.26-.66.39-.61.19a1.38,1.38,0,0,1,.17-.28H93.6c0,.08-.1.16-.16.26-.52.8-1,1.13-.59.35a2.78,2.78,0,0,0,.26-.61h-.28a1.15,1.15,0,0,1-.08.46,1.84,1.84,0,0,1-.27.54c-.16.12-.11-.47.06-.84a.76.76,0,0,1,.09-.16h-8l0,0c.75.68,1.54,1.24,2.57,2.18l.43.37h3l.19-.4c.09-.23.19-.27.41-.15s.25.21.1.55h3.68s0-.06-.07-.07c-.21-.07-.21-.13,0-.43.36-.46.27-.55-.2-.19-.31.24-.36.23-.34-.07,0-.45.27-.72.62-.65a1,1,0,0,0,.62-.19.7.7,0,0,1,.59-.14c.79.33.92.32,1.34-.1s.53-.29.11.18a1.84,1.84,0,0,0-.31.79,1.14,1.14,0,0,1-.47.85s1.83,0,1.83,0V38.78a32.84,32.84,0,0,1,4.39,2.52v8a.86.86,0,0,0,.52-.13c.21-.13.28-.07.32.28s.16.45.32.46.22.07,0,.29-.17.3,0,.36.25.17.17.41c-.15.43-.87.84-1,.58a.23.23,0,0,0-.28-.13c-.14,0-.11.25,0,.61s.24.47.27.28.19-.37.76-.68c.79-.43.8-.43.66.16-.07.27,0,.42.11.44s.18.17.29.39a1.3,1.3,0,0,0,.29-.79V43.25c.85.72,1.65,1.49,2.43,2.28-.1-.34,0-.31.26-.06l.54.47a.74.74,0,0,1,.22.68A32.06,32.06,0,0,1,116,58.84h-4.93a1.29,1.29,0,0,0,0,2.58h5.57a31.74,31.74,0,0,1,.67,6.51,32.36,32.36,0,0,1-.28,4.21h-6.13a1.25,1.25,0,0,0,0,2.5h3.72a.43.43,0,0,1,0-.46c.19-.29.83-.25,1.2.09a.57.57,0,0,1,.2.37h2.89A34.12,34.12,0,0,0,119.53,67.16ZM89.9,45.67c-.16.34-.29.23-.23-.18,0-.25.09-.33.2-.37S90.11,45.21,89.9,45.67Zm4.1-.4c-.35.26-.54,0-.4-.52s.12-.44.39-.36C94.51,44.54,94.52,44.89,94,45.27Zm3.7.95c-.07,0-.06-.13,0-.31C98.07,45.84,97.89,46.19,97.7,46.22Zm18.56,10.14c-.05.44-.43.56-.82.29a2.65,2.65,0,0,1-.52-1.51c-.11-.64-.13-1.27.09-1.36.73-.3,1-.08,1,.92,0,.59,0,1,.16,1A.68.68,0,0,1,116.26,56.36Z"/><path class="cls-8" d="M59.58,46.88c-.19.1-.68-.17-.76-.44a.54.54,0,0,0-.19-.28l-.1-.07a33.75,33.75,0,0,0-3.83,5.74,1.12,1.12,0,0,0,1,1.64,1.1,1.1,0,0,0,1-.6,32.57,32.57,0,0,1,3.73-5.54C59.79,46.83,59.73,46.8,59.58,46.88Z"/><path class="cls-8" d="M61.05,46c.22.07.34,0,.67-.26s.4-.34.17-.58a.75.75,0,0,1-.25-.57c0-.22,0-.32-.13-.32a1.59,1.59,0,0,1-.43-.12c-.26-.11-.35-.09-.51.13s-.18.26.14.57.33.32.06.55-.56.29-1.06-.19L59.45,45c-.29.32-.58.63-.85,1a1.5,1.5,0,0,1,.41.2,1.46,1.46,0,0,0,.57.26c.11-.1.55.09.87.38l.22.17.46-.51C60.85,46.19,60.79,45.94,61.05,46Z"/><path class="cls-8" d="M62.91,44c-.19-.11-.75.17-.64.31a.52.52,0,0,0,.69.13C63.22,44.26,63.22,44.17,62.91,44Z"/><path class="cls-8" d="M62.69,43.58c.14-.07.13-.32,0-.44s-.25-.1-.29.13S62.54,43.67,62.69,43.58Z"/><path class="cls-8" d="M62,65.49c.12,0,.21-.12.23-.36,0-.51-.27-.75-.93-.72-.44,0-.48,0-.53-.16a.45.45,0,0,0-.6-.17c-.23.12-.2.16.18.24.19,0,.34.11.33.15s.13.1.31.13a1.9,1.9,0,0,1,.49.18H62Z"/><path class="cls-8" d="M63.81,82.5c-.11.09-.1.1.09.17s.55-.07.53-.21S64,82.38,63.81,82.5Z"/><path class="cls-8" d="M62.07,78.8c.23,0,.28-.06.28-.11C62.12,78.65,62.06,78.72,62.07,78.8Z"/><path class="cls-8" d="M64.19,83.13c.2-.08.14-.19-.2,0A.23.23,0,0,0,64.19,83.13Z"/><path class="cls-8" d="M62,67v.38c0,.13.44.23.6.16s.19-1-.08-1.08c-.08,0-.17-.2-.21-.36s-.12-.29-.31-.3v1C62.15,66.89,62.15,66.93,62,67Z"/><path class="cls-8" d="M61.64,62.35a.15.15,0,0,0,.18-.09s0,0,0-.07h-.27A.14.14,0,0,0,61.64,62.35Z"/><path class="cls-8" d="M63.8,70A3.25,3.25,0,0,0,62.92,68c-.15-.15-.37-.13-.59.07a.58.58,0,0,1-.31.16v.87a1.73,1.73,0,0,0,.32,0c.34-.07.35-.07.26.15a.74.74,0,0,1-.58.49v.51a.44.44,0,0,0,.17-.07c.11-.09.16-.1.39-.06s.2.26-.21.31a1.07,1.07,0,0,0-.35.14v.24a.34.34,0,0,0,.12,0c.32-.15.68-.1.6.09a.19.19,0,0,0,.12.26c.24.1.26.33,0,.63s-.12.23.3.33.44.13.36.29a.37.37,0,0,0,.15.58.76.76,0,0,1,.24.59c0,.25.08.45.15.46s.19.35.22.91a.23.23,0,0,0,.13.22.75.75,0,0,1,.15.29V73.89h.16c-.23-1-.61-2.5-.72-2.85A7.39,7.39,0,0,1,63.8,70Z"/><path class="cls-8" d="M60.39,63.88c.25,0,.43-.22.24-.32a.78.78,0,0,0-.31,0C60.07,63.58,60.13,63.87,60.39,63.88Z"/><path class="cls-8" d="M60.32,62.29a.23.23,0,0,0,.17-.1h-.08C60.06,62.27,60.08,62.32,60.32,62.29Z"/><path class="cls-8" d="M71.74,97.21a32,32,0,0,1-7.26-4.58h.12V90.36h6c-.12-.33-.26-.68-.42-1.1s-.39-.92-.65-1.48h-4c-.08.08-.12.07-.21,0h-.45a.52.52,0,0,1-.26.21c-.23.1-.38-.11-.15-.22l.08,0v-.66a.65.65,0,0,0-.2,0,.51.51,0,0,1-.4,0c-.39-.36-.47-.38-.83-.2s-.4.07,0-.13a1.43,1.43,0,0,0,.38-.42.82.82,0,0,1,.49-.42,1,1,0,0,0,.47-.35,1.36,1.36,0,0,1,.12-.12v-.5c-.12,0-.22,0-.24-.13-.11-.36-.16-.41-.35-.39s-.26.07-.44.29-.48.43-.84.29-.61-.7-.45-.88.17-.39-.11-.39H62v6.65a32.34,32.34,0,0,1-7.38-12,.21.21,0,0,1-.13.2c-.24.1-.34,0-.29-.24a.24.24,0,0,1,.2-.19.2.2,0,0,1,.17.08,32.14,32.14,0,0,1-1.68-10.24c0-1.06.06-2.12.16-3.15h6.44a.55.55,0,0,0-.19-.26c-.28-.14-.23-.24.11-.23s.37-.06.15-.41c-.12-.18-.12-.27,0-.28s.27-.23.09-.24c-.4,0-.58-.19-.37-.33s.18-.17,0-.27-.17-.18-.06-.35a.57.57,0,0,0,.07-.22H51.17a35.1,35.1,0,0,0-.47,5.74,34.42,34.42,0,0,0,21,31.69c0-.21,0-.44,0-.68C71.75,98.5,71.75,97.87,71.74,97.21Zm-3.45-8.95c.2-.15.26,0,.11.21s-.16.17-.24.15S68,88.47,68.29,88.26Zm-2,1.1c-.35.27-.46.27-.34,0a.44.44,0,0,1,.33-.27C66.6,89,66.61,89.12,66.28,89.36Zm-.14-.94c-.27.23-.31,0,0-.24a1,1,0,0,1,.31-.25C66.53,87.9,66.35,88.25,66.14,88.42Zm-.53-.31c.53-.35,1-.4.45,0a1.91,1.91,0,0,0-.32.31.86.86,0,0,1-.31.25c-.11.06-.23,0-.26,0S65.14,88.42,65.61,88.11Zm-2.07-2.26c.05,0,0,.08-.08.18S63.42,85.83,63.54,85.85Zm-12-17.58c-.36-.14-.24-.51.16-.52s.7.13.62.34S51.82,68.38,51.52,68.27Zm2.1,11.31c-.5.17-.63,0-.56-.51,0-.32,0-.53-.09-.56a.32.32,0,0,1-.07-.34c.05-.25.3-.33.55-.19S53.91,79.48,53.62,79.58Zm1.13-.51a.47.47,0,0,1-.35,0c-.3-.12-.28-.2.05-.18S54.94,79,54.75,79.07Zm2,5.65-.25-.34c-.12-.15-.06-.46.1-.51s.32.18.33.56S56.9,85,56.72,84.72Z"/><path class="cls-9" d="M27.56,138.66c-1.52-1.16-4.39-.94-4.82,1.26a.38.38,0,0,0,.13.34c-1.35,2.94,3.16,7.37,5.37,4.07A4.24,4.24,0,0,0,27.56,138.66Zm-.09,4.81c-.91,1.61-2.86.57-3.5-.69a3.46,3.46,0,0,1,.47-3.43,2.05,2.05,0,0,1,2.29,0A3.06,3.06,0,0,1,27.47,143.47Z"/><path class="cls-9" d="M16.51,141.29a1.9,1.9,0,0,0-1.28,1.17,1.63,1.63,0,0,0-.07.3.12.12,0,0,0-.05.05,2.17,2.17,0,0,0,1.18,2.89,1.86,1.86,0,0,0,2.46-1.81C18.83,142.68,18,141,16.51,141.29Zm-.23,3.56a1.06,1.06,0,0,1-.3-.26c.12-.64.07-1.63.59-2.06.84-.68,1.32.76,1.29,1.36A1,1,0,0,1,16.28,144.85Z"/><path class="cls-9" d="M129.14,18.71c-2.15-2.4-5.44-.08-6.71,2a.41.41,0,0,0-.05.18,6.28,6.28,0,0,0-.91,4.11c.38,2.95,3.52,3.87,5.7,2C129,25.3,131.13,20.93,129.14,18.71Zm-2.47,7a2.79,2.79,0,0,1-2.75,1c-1.32-.45-1.42-2-1.29-3.16A5.43,5.43,0,0,1,124,20.35c1.48-1.19,3.46-2.5,4.56-.15C129.31,21.71,127.69,24.63,126.67,25.72Z"/><path class="cls-9" d="M124.49,9.67A1.6,1.6,0,0,0,123.13,11a.2.2,0,0,0-.15.12c-.51,1.16-.44,3,1,3.43s2.46-.92,2.6-2.17S126,9.46,124.49,9.67Zm-.43,4a1.26,1.26,0,0,1-.57-1.05.2.2,0,0,0,.21-.12c.2-.44.3-1,.53-1.38a.64.64,0,0,1,1-.19,1.69,1.69,0,0,1,.4,1.35C125.61,13,125,14.17,124.06,13.63Z"/><path class="cls-9" d="M133.18,9a1.6,1.6,0,0,0-2.45.64.33.33,0,0,0,.07.33,1.67,1.67,0,0,0,0,1.65,1.36,1.36,0,0,0,2.26,0C133.59,10.91,133.89,9.62,133.18,9Zm-.74,2c-.29.49-.91.54-1.05-.09a1.71,1.71,0,0,1,.12-.89c.3-.17.61-.42.92-.32S132.62,10.65,132.44,11Z"/><path class="cls-9" d="M151.29,119.07c-2.22-.36-3.62,1.37-3.73,3.33-.76,1.39-.72,3.46.47,4.39,2.07,1.62,5-.25,5.89-2.3A3.84,3.84,0,0,0,151.29,119.07Zm1.42,5.16c-.61,1.17-2.44,2.64-3.81,1.78s-.58-3.23.1-4.3a.23.23,0,0,0,0-.21,2,2,0,0,1,2-1.14C152.86,120.56,153.47,122.75,152.71,124.23Z"/><path class="cls-9" d="M160.39,119c-.75-.35-2.07.08-2.15,1-.53.74-.77,1.86,0,2.42a2.2,2.2,0,0,0,3-.67A2,2,0,0,0,160.39,119Zm0,2.29a1.38,1.38,0,0,1-1.69.5c-.35-.25-.3-.76-.14-1.24a.37.37,0,0,0,.24-.08c.33-.31.64-.68,1.18-.57S160.69,120.81,160.42,121.26Z"/></g></g></svg>