<svg id="Layer_1" data-name="Layer 1" xmlns="http://www.w3.org/2000/svg" viewBox="0 0 772.45 524.57"><defs><style>.cls-1{fill:#1e0605;}.cls-1,.cls-11,.cls-15,.cls-23,.cls-26,.cls-5{opacity:0.3;}.cls-1,.cls-10,.cls-11,.cls-15,.cls-16,.cls-19,.cls-20,.cls-21,.cls-22,.cls-23,.cls-24,.cls-25,.cls-26,.cls-28,.cls-29,.cls-3,.cls-5,.cls-7,.cls-8{isolation:isolate;}.cls-2,.cls-22,.cls-23,.cls-7{fill:#350801;}.cls-10,.cls-15,.cls-16,.cls-25,.cls-3{fill:#1e0300;}.cls-3{opacity:0.6;}.cls-4{fill:#a57147;}.cls-19,.cls-5,.cls-8{fill:#352213;}.cls-20,.cls-6{fill:#6d1000;}.cls-24,.cls-7{opacity:0.5;}.cls-8{opacity:0.22;}.cls-9{fill:#46546d;}.cls-10,.cls-21{opacity:0.15;}.cls-11,.cls-21,.cls-29{fill:#222a35;}.cls-12{fill:#5e7493;}.cls-13{fill:#2d3a4a;}.cls-14{fill:#ff6552;}.cls-16{opacity:0.25;}.cls-17,.cls-28{fill:#cc9864;}.cls-18{fill:#931300;}.cls-19,.cls-22,.cls-29{opacity:0.2;}.cls-20,.cls-28{opacity:0.7;}.cls-24,.cls-26{fill:#0f171e;}.cls-25{opacity:0.4;}.cls-27{fill:#eabd8c;}</style></defs><title>teens</title><path class="cls-1" d="M299,507.07c.14.71.82,2.73,6.49,4.62,14.37,4.81,23.86-3.49,47.31-5,4.46-.29,10.48-.19,22.54.06,15.22.31,20.05,1,29.21,0,1.75-.18,21.55-2.3,21.63-5.62.09-4-28.14-7.06-35.26-7.84-1.62-.17-15.77-1.68-24-.11-.62.12-3.23.59-6.82,1a79.45,79.45,0,0,1-8.17.51c-20.51.42-26.35-3.88-38,.18C306.54,497.49,298.23,502.94,299,507.07Z" transform="translate(38.55 -1.31)"/><path class="cls-2" d="M323.07,183.07c-2-14.72-3.85-15.6-9.72-47.83-2.61-14.3-4.86-32,3.86-38.17,9.49-6.75,11.59-5.28,11.59-5.28s-3.86-10.28,20-8.52c9.84.73,16.52,3.2,21.29,6.4A34.13,34.13,0,0,1,382.54,105c29,65.87,19.55,101.8,19.55,101.8-6,22.22-18.34,42.9-36,60.25l.38-9.65s-11.15,15.43-21.91,18.33A73.66,73.66,0,0,1,325,278.3l6.92-15.11-10,3.22c.9-8.74,1.91-20.81,2.34-35.24C324.82,211.05,325.18,198.83,323.07,183.07Z" transform="translate(38.55 -1.31)"/><path class="cls-3" d="M333.45,174.88c-2.64-6.2-5.17-12.91-7.45-20.12a215.17,215.17,0,0,1-7.81-34.29,63.28,63.28,0,0,0,16.35-20.8,103.83,103.83,0,0,0,35.91,5.54s18.63,46.5,16,72.59-15.16,52.37-15.16,52.37S342.2,188.68,333.45,174.88Z" transform="translate(38.55 -1.31)"/><path class="cls-4" d="M417.86,300.7c1.69,8.63,3.15,13.24,4.29,15.91a13.62,13.62,0,0,1,.94,4.52,7.26,7.26,0,0,1-1,4.72c-.8,1.17-1.19.85-2.32,2.28-1.5,1.91-1.14,2.9-2.5,3.71-.89.53-1.2.18-2.94.68-3,.83-3.16,2.13-4.56,2.05s-2.57-1.79-4.89-5.21c-.82-1.22-1.46-2.25-1.88-3a5.93,5.93,0,0,1-3.58-1,4.17,4.17,0,0,1-1.59-2.45,6.48,6.48,0,0,1,1.36-5.07c1.64-2.41,3.69-6.67,6.33-14.64a46.93,46.93,0,0,0,12.33-2.52Z" transform="translate(38.55 -1.31)"/><path class="cls-5" d="M420.16,310.72c-.7-2.54-1.47-5.8-2.3-10a46.85,46.85,0,0,1-12.33,2.52c-1,3-1.88,5.43-2.72,7.47C406.49,312.51,412.88,314.67,420.16,310.72Z" transform="translate(38.55 -1.31)"/><path class="cls-6" d="M402.05,203.5c7,6.56,3.22,13.82,8.11,33.1,1,3.79.91,2.76,2,6.88,3.81,14.67,3.16,23,4.53,37a207.92,207.92,0,0,0,3.4,22,19.59,19.59,0,0,1-16.22,2.5s-12.64-63-12.19-65.64S383.55,212.18,384,208c.27-2.43,2.18-7.87,6.62-9C395.79,197.75,401.71,203.18,402.05,203.5Z" transform="translate(38.55 -1.31)"/><path class="cls-7" d="M410.16,236.6c-4.89-19.28-1.12-26.54-8.11-33.1-.34-.32-6.26-5.75-11.43-4.45-4.44,1.12-6.36,6.56-6.62,9-.45,4.15,8.12,28.67,7.67,31.31a13,13,0,0,0,.21,2.33c4.16.61,10.74.5,18.62-3.76C410.4,237.55,410.29,237.13,410.16,236.6Z" transform="translate(38.55 -1.31)"/><path class="cls-4" d="M398,294c1.39,4.59,1.63,8.56,1.64,16.4,0,1.28,0,2.84-.19,8.28-.05,1.46-.34,10-.65,15.87-1.06,20.23-3.36,28.35-3.67,43.83,0,2.06-.12,7.94-.69,16-.24,3.46-.45,5.62-.63,7.56-.79,9.16-.87,16.67-.93,22.94-.25,26.42,2.14,37.94,3.74,44a27.62,27.62,0,0,0,3.43,8.6c3.11,4.9,9.24,10.81,16.44,15.23,2.28,1.4,7.11,4.3,6.77,6.73a.88.88,0,0,1-.05.15c-1.7,2.95-31.63.86-43.48-12.82-5.78-6.68-2-10-3.32-29.25-1.42-20.51-8.35-52.1-7.66-63.35a32.24,32.24,0,0,1,4.78-15.15c-.43-1.2-1-2.94-1.71-5.05a151.3,151.3,0,0,1-5.39-22.73,146.54,146.54,0,0,1-1.51-14.61,123.32,123.32,0,0,1,2.37-31.93,46.69,46.69,0,0,1,2.16-7c1.86-4.76,4.85-12.11,11.27-13.63l.15,0c1.17-.26,6.63-1.34,11.13,1C394.39,286.35,396.29,288.46,398,294Z" transform="translate(38.55 -1.31)"/><path class="cls-8" d="M423.17,499.69a.3.3,0,0,0,.05-.15c.34-2.43-4.49-5.33-6.77-6.73-.45-.28-.89-.58-1.33-.87-3.71,1.85-15.37-.69-22.59-4.37-9.46-4.84-8.67-23.29-12.35-52.73a131.81,131.81,0,0,1,4.47-53.37c-1-6.16-3.15-28.56-3.15-28.56,3.22.15,11.18-1,15.94-1.79.5-4.69,1-10,1.32-16.55.31-5.91.6-14.41.65-15.88.18-5.43.19-7,.19-8.27,0-7.84-.25-11.81-1.64-16.4-1.67-5.56-3.57-7.67-6-8.93-4.49-2.32-9.95-1.24-11.13-1l-.14,0c-6.42,1.51-9.41,8.86-11.27,13.62a46.46,46.46,0,0,0-2.16,7,123.22,123.22,0,0,0-2.38,31.92,145.91,145.91,0,0,0,1.52,14.61,151.3,151.3,0,0,0,5.39,22.73c.67,2.11,1.28,3.85,1.71,5.06a33.45,33.45,0,0,0-3.19,6.81,34.18,34.18,0,0,0-1.6,8.33c-.68,11.25,6.24,42.84,7.66,63.35,1.33,19.28-2.45,22.57,3.33,29.25C391.54,500.55,421.47,502.64,423.17,499.69Z" transform="translate(38.55 -1.31)"/><path class="cls-6" d="M374,490.81a15.88,15.88,0,0,1,2.88-8.45,38,38,0,0,0,14.94,9.76c2.86,1,13.35,4.52,24.74,1.89l1.08-.26a63.16,63.16,0,0,1,6.28,2.06c3.27,1.26,3.79,1.77,4,2.31.5,1.4-1.2,2.9-2.36,3.92a15.82,15.82,0,0,1-6.59,3.54c-5.53,1.4-9.48-.87-20.71-3.39-4.36-1-7.92-1.58-10-1.9a11.49,11.49,0,0,1-10.18.24C373.75,498.32,373.9,493.1,374,490.81Z" transform="translate(38.55 -1.31)"/><path class="cls-4" d="M356,302.34a121.08,121.08,0,0,1-1.3,14.43,235.41,235.41,0,0,1-7.17,29.4c-1.3,4.39-3.14,10.52-5.64,18.22-1.66,5.09-2.18,6.44-6.73,19.62-.43,1.25-3.95,11.16-6,17.63a257,257,0,0,0-7,26.8c-4.75,22-7.12,33-6.3,42,1.9,20.65,12.39,30.86,6,35.48-4.6,3.33-15.31,2-21.31-2.39-9.27-6.85-1.67-17.07-.42-41.63,1.07-21.08-2.31-56.94,2.61-66.72.11-.23,1.65-3.26,3.73-7.28,1.77-3.44,3.24-6.2,4.13-7.91a166.7,166.7,0,0,1-3.14-30.26c-.3-26.52,5.91-41.14,7.68-45.07,2.87-6.4,10-21.4,21.47-23.91,4.76-1,11.87-1.13,16.08,2.25C353.9,283.94,356.59,286.56,356,302.34Z" transform="translate(38.55 -1.31)"/><path class="cls-8" d="M356,302.34c.58-15.78-2.11-18.4-3.3-19.36-4.2-3.38-11.32-3.28-16.08-2.24-11.47,2.5-18.59,17.51-21.47,23.91-1.76,3.93-8,18.55-7.67,45.06A165.13,165.13,0,0,0,310.63,380c-.9,1.7-2.36,4.47-4.14,7.91-2.08,4-3.61,7-3.72,7.27-4.93,9.79-1.55,45.65-2.62,66.72-1.24,24.57-8.84,34.79.43,41.64,6,4.43,16.71,5.72,21.31,2.39,4.09-3,1.22-8.24-1.85-17.11a5.88,5.88,0,0,1-1.45,6,8.6,8.6,0,0,1-7,2.1,9.13,9.13,0,0,1-6.08-3.91,13.28,13.28,0,0,1-2.34-10c1.71-13.27,1.48-26.7,3.74-39.92,3-17.84,1.57-15.91,4.21-28.95a249.5,249.5,0,0,1,8-29.73c.25-7.28,2.56-33.22,2.56-33.22,9.05,3,19.46,1.24,24.35.1.58-1.91,1.09-3.63,1.54-5.14a235.84,235.84,0,0,0,7.17-29.4A121.08,121.08,0,0,0,356,302.34Z" transform="translate(38.55 -1.31)"/><path class="cls-6" d="M297.36,483.67c.45,9.34,3.72,16.4,7.86,18.44a13.33,13.33,0,0,0,5.67,1.4,12.54,12.54,0,0,0,5.09-1.4c3.89-2.08,5.49-7.41,4-13.41,1.19,3.18,2.33,5.68,3.19,7.44a28.35,28.35,0,0,1,3,8.25c.07.45.1.82.15,1.21.25,2.42-2,8.45-6.62,9.06-8.24,1.08-17.09,1.74-22.12-2.62-4.83-4.17-4.23-9.89-3.51-16.76A36.63,36.63,0,0,1,297.36,483.67Z" transform="translate(38.55 -1.31)"/><path class="cls-9" d="M400.53,278s2.16-11.25-.27-16.14c0,0-26,13-77.15,0,0,0-4.6,10.76-3.52,13.7,0,0-8.39,24.21-10.56,46.47,0,0,28.16,11.74,43,10l7-19.57,4.6-.73.27,21.52s24.64,1,35.19-2.69C399.18,330.63,403.78,291,400.53,278Z" transform="translate(38.55 -1.31)"/><path class="cls-10" d="M323.11,261.9s-4.6,10.76-3.52,13.7c0,0-2.3,6.63-4.79,16.13,7.43-1.3,23.73-6.12,27.27-19.89.61-2.36,1.1-4.28,1.5-5.86A196.9,196.9,0,0,1,323.11,261.9Z" transform="translate(38.55 -1.31)"/><path class="cls-11" d="M400.53,278s2.16-11.25-.27-16.14c0,0-6,3-17.89,4.66.17,6.39,2.19,24.57,19.27,29.86h0C401.8,289,401.56,282.18,400.53,278Z" transform="translate(38.55 -1.31)"/><path class="cls-12" d="M323.11,261.9s-4.6,10.76-3.52,13.7c0,0,53.69,18.37,80.94,2.44,0,0,2.16-11.25-.27-16.14C400.26,261.9,374.27,274.86,323.11,261.9Z" transform="translate(38.55 -1.31)"/><path class="cls-11" d="M323.11,261.9s-4.6,10.76-3.52,13.7c0,0-8.39,24.21-10.56,46.47,0,0,28.16,11.74,43,10l1.92-5.34c-11.66.81-19.69-1.64-24.4-3.66-3.81-1.63-7.57-3.85-7.3-4.4s6.2,1.62,15.67,2.75c5.2.62,10,.72,10.05.28s-5.58-1.33-13.24-4.13c-1.81-.66-3.15-1.21-4.07-2.48-1.25-1.74-1.05-3.92,0-7.47,2.1-7.06,3.14-10.59,5.51-12.09,5.11-3.22,10.63,1.71,26.25,2,6.45.1,11.27-.64,11.27-1s-9.08-.58-21.31-3.49c-4-1-6-1.66-5.93-1.93.14-.61,11.17,1.76,25.56.69,4.09-.3,8.33-.87,8.32-1.41,0-.77-8.66-.45-19-2.85a73.13,73.13,0,0,1-15.15-5.33,5,5,0,0,1-.5-2.8h0c-.29-1.06,0-2.53,1-4.45a107,107,0,0,0,54.53-2.64c.27-3.52.26-7.81-1-10.37C400.26,261.9,374.27,274.86,323.11,261.9Z" transform="translate(38.55 -1.31)"/><path class="cls-11" d="M399.18,330.63s.28-2.46.66-6.35c-9.19,3.38-19.85,2.26-20.81,1.05s8.64-1.91,13.77-2.91.6-1.45-3.22-1.27-13.16.27-13.37-4.72-1.4-6,6.13-10-18.29,5.18-18.63,5.36l.27,21.53S388.62,334.3,399.18,330.63Z" transform="translate(38.55 -1.31)"/><path class="cls-12" d="M309.4,319.56A64.6,64.6,0,0,0,325.92,327a68.74,68.74,0,0,0,26.88,2.29,5.6,5.6,0,0,1,.53,1.27c.5,1.78-.1,3.07-1.57,6.9-1.05,2.7-2.08,5.53-2.08,5.53-2.14.86-14.79,5.75-28.48.33a34.13,34.13,0,0,1-15.79-12.71c.28-1.2.53-2.23.74-3.05,1-4.07,1.52-5.54,2.58-7.12C309,320.07,309.25,319.75,309.4,319.56Z" transform="translate(38.55 -1.31)"/><path class="cls-11" d="M349.68,343l.62-1.67A57.88,57.88,0,0,1,338,342.43c-7-.15-12-.25-14.41-3.29-3.48-4.44,1.15-11.87,1.49-12.39a65,65,0,0,1-15.64-7.19c-.16.19-.4.51-.67.91-1.06,1.58-1.56,3-2.58,7.12-.21.82-.46,1.85-.74,3.05a34.13,34.13,0,0,0,15.79,12.71C334.89,348.77,347.54,343.88,349.68,343Z" transform="translate(38.55 -1.31)"/><path class="cls-12" d="M364.14,330.71s23.49,2,35.3-2.93a3.24,3.24,0,0,1,.82.57c1.19,1.16,1,2.89.67,5.12-.61,4.06-.92,6.08-1.44,6.85s-1.77,2.28-6.33,3.9a38.75,38.75,0,0,1-19.28,1.47c-4.57-.76-8.61-1.43-10.07-4.16-.68-1.26.08-1.3-.87-5.89-.28-1.4-.68-3,.29-4.16A3.27,3.27,0,0,1,364.14,330.71Z" transform="translate(38.55 -1.31)"/><path class="cls-11" d="M393.16,344.22c4.55-1.62,5.81-3.14,6.33-3.91a2.77,2.77,0,0,0,.35-.79,43.07,43.07,0,0,1-9.89,1.91c-4.05.3-6.36.44-8.1-.85-3.6-2.65-1.7-9.11-1.56-9.57a145,145,0,0,1-16.15-.3,3.08,3.08,0,0,0-.91.76c-1,1.21-.58,2.77-.29,4.16.95,4.6.19,4.64.87,5.9,1.46,2.73,5.5,3.4,10.07,4.16A38.86,38.86,0,0,0,393.16,344.22Z" transform="translate(38.55 -1.31)"/><path class="cls-4" d="M340.42,148.27c0,.57,3.27,19.58,1.55,20S330.08,171,330.08,171s21.71,15.84,29.29,15.26,20.15-13.82,20.15-13.82-9-1.88-10.16-3.32-2.76-24-3.45-26.78-12.06-7.49-19.12-6.19S340.42,148.27,340.42,148.27Z" transform="translate(38.55 -1.31)"/><path class="cls-5" d="M366.94,151.17c-.42-4.24-.78-7.82-1-8.81-.69-2.73-12.06-7.49-19.12-6.19s-6.38,12.1-6.38,12.1c0,.22.49,3.18,1,6.76a47.43,47.43,0,0,0,12.45,4.63S361.91,156.15,366.94,151.17Z" transform="translate(38.55 -1.31)"/><path class="cls-5" d="M358.56,182c-2.78.36-17.6-9.44-22-12.41L330.08,171s21.7,15.84,29.28,15.26,20.16-13.82,20.16-13.82-3.39-.71-6.28-1.59C369.15,174.54,361,181.64,358.56,182Z" transform="translate(38.55 -1.31)"/><path class="cls-4" d="M371.94,128.17a17.1,17.1,0,0,1-1.35,13.77,24.63,24.63,0,0,1-9.34,8.95,37,37,0,0,1-7.63,3.49,43.51,43.51,0,0,1-12.91-3.19c-3.11-1.31-7-3-10.21-6.57a19.14,19.14,0,0,1-3.57-5.76,4.83,4.83,0,0,1-2.3.16c-2.68-.51-4.23-3.61-3.85-6a3.85,3.85,0,0,1,2.19-3.15,4,4,0,0,1,2-.14q-1.37-3.65-2.71-7.3a33.86,33.86,0,0,0,15.5-17,57.47,57.47,0,0,0,29.51,7.5l2.74,5.43c.09-.09,2-2,4.15-1.62,1.87.33,2.62,2.12,3.07,3.19,1.48,3.5.34,8.35-2.33,8.94A4,4,0,0,1,371.94,128.17Z" transform="translate(38.55 -1.31)"/><path class="cls-5" d="M364.71,115.73l5.3,2.65L367.27,113a57.57,57.57,0,0,1-29.51-7.5,33.86,33.86,0,0,1-15.5,17c.91,2.43,1.81,4.87,2.71,7.3a59.78,59.78,0,0,0,.71-6.21,28.13,28.13,0,0,0,5.46-2.56,24.25,24.25,0,0,0,8.71-9,35.81,35.81,0,0,0,9,3.43A39.17,39.17,0,0,0,364.71,115.73Z" transform="translate(38.55 -1.31)"/><path class="cls-13" d="M327.84,313.12,291.74,301A4.49,4.49,0,0,0,286.3,303a2.88,2.88,0,0,0-.26.85l-2.65,17.12a3.45,3.45,0,0,0,2.51,3.67l30.63,10.87c.44.2,2.67.92,4.87,1.62a4.48,4.48,0,0,0,5.4-2,3.26,3.26,0,0,0,.22-.69l3.39-17.45A3.45,3.45,0,0,0,327.84,313.12Z" transform="translate(38.55 -1.31)"/><path class="cls-4" d="M297.34,309.51a70.28,70.28,0,0,1-2.72,8.24s-2.7,6.74-2.76,11a4.86,4.86,0,0,0,.44,2.08,4,4,0,0,0,1.67,2c.7.39,1,.21,1.84.62a8.6,8.6,0,0,1,1.67,1.28,7.43,7.43,0,0,0,2.13,1.45c1.34.36,1.87-.53,3.13-.23s1.29,1.48,2.7,2.16c1.15.55,2.37.36,3.95.11a21.53,21.53,0,0,0,7.16-2.69h0a15.46,15.46,0,0,1-1.37-8.12c.6-.18,4.41-1.41,4.8-3.8.18-1.05-.43-1.95-1.64-3.7-1.67-2.41-2.85-3.08-4.42-5.08a18.27,18.27,0,0,1-2.67-4.58,40.1,40.1,0,0,1-5.36.46C302.93,310.75,299.46,310.58,297.34,309.51Z" transform="translate(38.55 -1.31)"/><path class="cls-5" d="M315.71,316.78a24.5,24.5,0,0,1-1.81-2,19,19,0,0,1-2.67-4.58,41.68,41.68,0,0,1-5.36.46c-2.94.1-6.41-.07-8.53-1.14a73.14,73.14,0,0,1-2.41,7.46C298.69,318.85,307.52,322.14,315.71,316.78Z" transform="translate(38.55 -1.31)"/><path class="cls-6" d="M303.48,207.86c-1.25,5-2.36,10.42-3.23,16.19a171.26,171.26,0,0,0-1.88,22.48,44.32,44.32,0,0,0-2.69,7.87c-1.42,5.94-1.14,10.4-.8,16.18.6,10.46,1,18.23,1.07,20.68.19,4.5.34,11.23,0,19.56a16,16,0,0,0,16.94,2q1.23-15.15,2.09-30.91.74-13.41,1.13-26.41L324.66,213c.25-5.24-4.64-9.65-10.91-9.85a12,12,0,0,0-10.28,4.75Z" transform="translate(38.55 -1.31)"/><path class="cls-7" d="M316.93,203.59c-5.13-1.38-10.71.39-13.45,4.27-1.25,5-2.36,10.42-3.23,16.19-.72,4.83-1.18,9.44-1.49,13.84A27.09,27.09,0,0,0,319,241l5.63-28C324.82,208.75,321.68,205,316.93,203.59Z" transform="translate(38.55 -1.31)"/><path class="cls-6" d="M329.55,170.56l4.18-1c2.6,2.53,10.71,10.26,18.5,14.45a12.14,12.14,0,0,0,6.68,1.76c2.72-.17,4.74-1.46,7-3.23a59.61,59.61,0,0,0,10.8-10.85l5.43,1c-3.8,16-13.86,26.88-23.25,26.8-7.45-.07-13.91-7-18.94-12.46A53.37,53.37,0,0,1,329.55,170.56Z" transform="translate(38.55 -1.31)"/><path class="cls-14" d="M330.76,169.52A66.78,66.78,0,0,0,345.85,188c5.11,4.36,8.69,7.32,13.17,6.91,4.72-.43,7.89-4.37,13.17-10.94a75.33,75.33,0,0,0,7.86-11.9l11.72.09s22.94,36.72,31.11,39.7a30.28,30.28,0,0,1-8.73,11.38,35.33,35.33,0,0,1-18.31,7.46,39.55,39.55,0,0,0,2,16.23,59.32,59.32,0,0,0,4.31,9.74c2.6,3.53,3.72,4.58,3.41,6.49-.58,3.63-6.56,6-8.67,6.82a32.18,32.18,0,0,1-4.58,1.35A46.17,46.17,0,0,1,385,272.4c-9.83.77-14.74,1.15-19.33.88a73.26,73.26,0,0,1-26.21-6.75,23.59,23.59,0,0,1-16-1.31c-2.43-1.31-5.28-3.32-5.32-5.84,0-1.63,1.13-2.46,2.28-4.58s1.26-3.56,1.64-9c.36-5.16.6-9.39.75-12.51a40.61,40.61,0,0,1-12.05-1.6A39.48,39.48,0,0,1,289.3,216,316.89,316.89,0,0,0,308,187.22q4.21-7.36,7.78-14.41Z" transform="translate(38.55 -1.31)"/><path class="cls-15" d="M405.54,263.11c.31-1.92-.81-3-3.41-6.49a58.69,58.69,0,0,1-3.83-8.41,40.9,40.9,0,0,1-10-4.71c-6.32-4.15-19.88-15.83-23.68-17.72-.05,0-.19-.1-.26-.05-1.17.68,13.78,23.15,17.09,29.76.39.8.85,2.09.23,2.69-2,2-14.56-4.3-24.49-11.61-8.46-6.23-11.25-10.45-13.95-9.54-4.82,1.61-1.68,16.93-3.58,17.2-1.65.24-5.91-11-8.11-23.51-1.75-10-3.31-18.87-3-29.47,0-1.79.24-6.54-.56-6.64-.43-.06-1.06,1.2-2.39,5.12-3.92,11.54-3.57,12.5-5,15-2.45,4.26-10,4.07-17.4.37s-5.93-2.4-3.68,0,20.26,12.39,9.82,10.36c-7.94-1.55-15.05-8.87-18-12.29q-1,1.39-2,2.76a39.48,39.48,0,0,0,21.38,15.68,40.61,40.61,0,0,0,12.05,1.6c-.16,3.12-.39,7.35-.75,12.51-.38,5.48-.55,7-1.65,9s-2.3,2.95-2.28,4.58c.05,2.51,2.89,4.52,5.32,5.84a23.61,23.61,0,0,0,16.05,1.31,73.26,73.26,0,0,0,26.21,6.75c4.58.27,9.5-.11,19.32-.88a47.16,47.16,0,0,0,7.33-1.12,31.8,31.8,0,0,0,4.58-1.35C399,269.09,405,266.74,405.54,263.11Z" transform="translate(38.55 -1.31)"/><path class="cls-15" d="M420.22,210.13c-3.41,4.15-8.66,10-12.11,11.05-5.47,1.71-6.6-1.53-4.53-2.72s8.11-7.67,9.62-9.37c.35-.4.57-1.06.29-1.31-.66-.6-3.4,1.63-6.89,2-4.25.5-7.91-1.92-9.06-2.68-5.51-3.64-6.24-9.27-6.79-9.15s1.84,9,3.4,17.83a125.77,125.77,0,0,1,1.7,14.84,35.48,35.48,0,0,0,18.31-7.46,30.44,30.44,0,0,0,8.72-11.38A9.69,9.69,0,0,1,420.22,210.13Z" transform="translate(38.55 -1.31)"/><path class="cls-16" d="M412.66,224.32c-3.49.21-8.59.36-11.45-.29-4.64-1.06-1.9-6.35.63-8.11s1.27-1.94-3.16-1.77a8,8,0,0,1-5.3-2.32c.27,1.31.53,2.64.76,4a121.69,121.69,0,0,1,1.7,14.84A35.81,35.81,0,0,0,412.66,224.32Z" transform="translate(38.55 -1.31)"/><path class="cls-16" d="M316.71,222c-3.47-.64-2.39.22-.72,1.52s3.95,6.37-2.87,5.83a66.93,66.93,0,0,1-12.72-2.51,38.17,38.17,0,0,0,10.28,4.76,40.72,40.72,0,0,0,12.06,1.61s1.86-16.82,2.57-19.31S320.18,222.69,316.71,222Z" transform="translate(38.55 -1.31)"/><path class="cls-16" d="M331.89,242.86c-.33.07.66,13.19.76,14.58a3,3,0,0,1-.71,2.62c-1.56,1.33-5.23.1-7.18-1a10.89,10.89,0,0,1-4.34-4.44.71.71,0,0,1-.08.15c-1.14,2.12-2.3,3-2.27,4.58,0,2.52,2.89,4.52,5.31,5.84a23.62,23.62,0,0,0,16.05,1.31,73.05,73.05,0,0,0,26.21,6.75c4.58.27,9.5-.11,19.33-.88a46.17,46.17,0,0,0,7.33-1.12,30.46,30.46,0,0,0,4.57-1.35c2.11-.83,8.1-3.18,8.68-6.81.3-1.92-.81-3-3.41-6.5-2.6,11.12-13.92-2-20.23-6.5s2.41,6.65,4.36,11.53a2,2,0,0,1,.1,1.14c-.55,2.77-7.37,4.63-12.44,4.32-9.9-.59-16.16-9.6-17.54-8.58-1.21.89,4.75,7.19,2.95,9.18-2,2.21-13.44-1.1-19.47-8.24a35.74,35.74,0,0,1-4.61-7.58C333,247.12,332.08,242.82,331.89,242.86Z" transform="translate(38.55 -1.31)"/><path class="cls-1" d="M276.51,508.17c-.29.75-1.58,2.88-10.93,4.66-23.68,4.5-38.23-4.79-76-7.45q-18.16-1.11-36.44-.93c-16,.2-24.49,1.13-36.95-.93-7.6-1.26-22.87-4.66-22.38-7.76.71-4.46,33.82-7.28,62.46-6.21,18.5.69,16.08,2.3,35.91,3.11,33.13,1.35,43-3,61.41,1.86C265.31,497.6,278.22,503.79,276.51,508.17Z" transform="translate(38.55 -1.31)"/><path class="cls-17" d="M14.79,150.09c-1.27-1.51-1.73-3.26-2.65-6.76-1.3-4.91-.46-6.34.31-7.2,1-1.09,3.05-2.55,4.09-2.23a.94.94,0,0,1,.49.32c.74.88,14.17,19.86,8.65,21.67C23,156.76,17.38,153.18,14.79,150.09Z" transform="translate(38.55 -1.31)"/><path class="cls-18" d="M32.74,153.35,28,156.73,3.9,153.66q-8.18-5.19-16.49-10.95c-9.52-6.61-18.15-13.1-26-19.39l4.8-3.87,24.59,7.08q11,7.36,22.76,14.87Q23.22,147.54,32.74,153.35Z" transform="translate(38.55 -1.31)"/><path class="cls-7" d="M-12.59,142.71q8.31,5.74,16.49,10.95L28,156.73l4.7-3.38-23-4.78-43.5-29.12-4.8,3.87C-30.74,129.6-22.11,136.1-12.59,142.71Z" transform="translate(38.55 -1.31)"/><path class="cls-17" d="M134.92,175.76a164.56,164.56,0,0,1-14.28,13,204.58,204.58,0,0,1-18.26,13.08c-2.86,1.83-5.36,3.34-7.23,4.45a112.73,112.73,0,0,1-15.05-3.92,95.21,95.21,0,0,1-12.84-5.43c-8.86-4.49-26.89-15.14-49.4-29.76-4.77-2.14-8.73-4-11.66-5.36-11.43-5.39-16.58-8.22-18-9-2.44-1.35-4.42-2.51-5.78-3.32l-1.1-2.36c-1-2.24-1.27-2.8-1.48-3.23C-21.55,141-23,140.64-25.36,137c-1.28-2-2.88-4.46-1.83-4.88.81-.32,2.87.73,3.93,1.28A20.1,20.1,0,0,1-15.61,140c-3-6-2.83-7.47-2.1-7.67,1-.26,3.37,1.55,4.33,2.27a18.31,18.31,0,0,1,3.68,3.68c4.29,5.57,3.9,5.73,5.38,7.05A21.36,21.36,0,0,0,3,149.53c3.61,1.24,5,.79,13.92,2.19,4.93.78,7.4,1.17,9.06,1.88a10.36,10.36,0,0,1,6.42,8.45c3.92,2,9.86,4.86,17.48,8.1,5,2.13,8.14,3.31,18.83,7.5C73.34,179.44,80,182,88,185.23l22.41-17.36a16.15,16.15,0,0,1,7.75-4.52,20,20,0,0,1,5.59-.81,21,21,0,0,1,7.47,1.49C135.85,166,137.55,170.78,134.92,175.76Z" transform="translate(38.55 -1.31)"/><path class="cls-19" d="M131.25,164a21,21,0,0,0-7.47-1.49,20.4,20.4,0,0,0-5.59.8,16.23,16.23,0,0,0-7.75,4.52l-12.76,9.89c3.3,2.72,10.18,6.44,24.47,9.72a164.14,164.14,0,0,0,12.77-11.71C137.56,170.78,135.85,166,131.25,164Z" transform="translate(38.55 -1.31)"/><path class="cls-17" d="M217.55,169.23q1.94,11.51,5,23.9C225,203.26,228,212.9,231.13,222c0,0,.1,3.65.79,8.9a120.49,120.49,0,0,0,4.35,18.61c5,15.86,15,34.69,16.38,37.35a88,88,0,0,1-9.42,15.81c-1,1.36-2.72,3.47-1.74,5.84,1.22,3,5.9,4.62,8.41,5.34a14.63,14.63,0,0,0,2.9,5.68c1.19,1.46,2,2.37,3.34,2.6,2.25.37,5.3-1.21,7.69-3.86a8.22,8.22,0,0,0,4.57,1.17c2.72-.17,5.17-1.85,5.39-4.08a9.61,9.61,0,0,0,4.88.44c4.45-1,4.65-6.48,4.68-7.18.18-4.81-3.36-7.18-8.51-15a74,74,0,0,1-4.26-7.34c-.59-5.83-1.59-15.54-3-28.08-1.19-10.84-1.89-16.68-5.27-24.46a70.46,70.46,0,0,0-7.63-13.24q-4-26.85-8-53.7c-1.94-7.87-13.44-11.86-20.5-10.53C220.12,157.42,215.16,163,217.55,169.23Z" transform="translate(38.55 -1.31)"/><path class="cls-19" d="M246.74,166.79c-1.94-7.86-13.44-11.85-20.5-10.53-6.12,1.16-11.07,6.71-8.68,13q1.92,11.51,5,23.9l0,.13a164.76,164.76,0,0,0,27.13-6.65Z" transform="translate(38.55 -1.31)"/><path class="cls-2" d="M121.56,204.64a124.94,124.94,0,0,0,36.3,12.1,161.87,161.87,0,0,0,57.74-.52,250.43,250.43,0,0,0-31.07-7.57A288.51,288.51,0,0,0,121.56,204.64Z" transform="translate(38.55 -1.31)"/><path class="cls-17" d="M126,192.94a94.52,94.52,0,0,1-2.17,17.57,103.53,103.53,0,0,1-6.93,20.71q12.95.47,26.6.65,33.67.45,67.3-1.07-1.9-6.86-3.49-14.16c-1.46-6.83-2.55-13.42-3.35-19.76a75,75,0,0,0-28.73-7.36c-3.9-.2-7.1-.06-18.82.84C148.05,191,137.78,191.85,126,192.94Z" transform="translate(38.55 -1.31)"/><path class="cls-19" d="M175.26,189.52c-3.91-.2-7.1-.06-18.83.84-8.38.65-18.65,1.49-30.41,2.58a94.62,94.62,0,0,1-2.17,17.57l-.09.38c10.86,1.47,48.09,6,83.37,4.77q-2-9.71-3.15-18.78A75.15,75.15,0,0,0,175.26,189.52Z" transform="translate(38.55 -1.31)"/><path class="cls-19" d="M210.82,230.8c-1-3.62-1.93-7.37-2.8-11.18-24.68,3.37-73.1,1.72-87,1.15a107.67,107.67,0,0,1-4.09,10.44q12.95.47,26.6.66Q177.2,232.32,210.82,230.8Z" transform="translate(38.55 -1.31)"/><path class="cls-17" d="M156.76,115.63s10.13,22.07,5.85,23.46-19.48,3.49-19.48,3.49,0,13.24,22.6,14.86,42.46-7.2,55.7-17.42c0,0-12.85-.23-16.75-3s-9.35-30.66-10.51-36.23-16-18.36-32.34-17.19S155.2,109.82,156.76,115.63Z" transform="translate(38.55 -1.31)"/><path class="cls-19" d="M197.92,118c-1.78-7.38-3.22-14.65-3.76-17.22-1.17-5.57-16-18.35-32.34-17.19s-6.62,26.25-5.06,32.06c0,0,2.73,6,4.75,11.86A157.27,157.27,0,0,0,197.92,118Z" transform="translate(38.55 -1.31)"/><path class="cls-19" d="M221.42,140s-8.46-.15-13.73-1.7c-6.67,3.6-25.41,11.48-38.7,11.93-13.62.46-15.28-7.57-15.48-9.27-5.18.88-10.39,1.59-10.39,1.59s0,13.24,22.6,14.87S208.19,150.24,221.42,140Z" transform="translate(38.55 -1.31)"/><path class="cls-12" d="M119,64.53a33.63,33.63,0,0,0-8.31,6.8c-9.51,11.14-2.89,23.44,3.89,35.43,9.06,16,24,29.94,24.56,29.78,0,0,0-.06,0-.09-.29-1,4-5.24,17.91-16.14l29.31-8.73,3,24.23a83.26,83.26,0,0,0,20.79-16.31,58.5,58.5,0,0,0,5.12-6.62l5.07,1.72c22.92-22.86,14.44-50-12.6-62,0,0-30.1-13.38-74.4-3.39A24.16,24.16,0,0,0,126.41,52C119.51,56,119,61.8,119,64.53Z" transform="translate(38.55 -1.31)"/><path class="cls-11" d="M227.46,68c-.35,1.82-1.82,3.48-4.13,4.68-6.88,3.24-22.07.69-37-7.24-1.37,2.46-4,4.6-7.53,6.11-4.91,2-10.56,2-31.23,0-5.57-.51-12.68-1.2-21-2.09-3.41,5.1-8.32,8-11,7.5-2.42-.45-3.56-3.81-2.89-7.85a26.86,26.86,0,0,0-2.08,2.17c-9.51,11.15-2.89,23.44,3.88,35.44,9.06,16,24,29.94,24.57,29.78,0,0,0-.07,0-.1-.29-1,4-5.23,17.91-16.13l29.3-8.74,3,24.23a82.85,82.85,0,0,0,20.79-16.31,57.63,57.63,0,0,0,5.13-6.61l5.07,1.71C236,99,237,81.41,227.46,68Z" transform="translate(38.55 -1.31)"/><path class="cls-17" d="M193.28,82l2.61,14.25c2.21-1.42,7.85-5.41,7-10.26-.21-1.18-.73-4-3.91-4.71A10.51,10.51,0,0,0,193.28,82Z" transform="translate(38.55 -1.31)"/><path class="cls-17" d="M181.31,80l5.08,31.61a148,148,0,0,1-41.27,13c-17.75-13.94-24.06-31.89-17.2-48.9,6,.83,12.45,1.59,19.2,2.23Q164.1,79.56,181.31,80Z" transform="translate(38.55 -1.31)"/><path class="cls-19" d="M147.13,77.94q-10.12-1-19.2-2.23a36.85,36.85,0,0,0-2.67,12c1.17-1.06,2.41-2.15,3.74-3.27,1.15-1,2.3-1.89,3.45-2.77a230.06,230.06,0,0,0,43.13,5.77q1.63,3.32,3.22,6.69,4.17,8.89,7.57,17.44h0L181.3,80Q164.13,79.57,147.13,77.94Z" transform="translate(38.55 -1.31)"/><path class="cls-17" d="M137.43,421.37a11.28,11.28,0,0,0-1.78,7.08c.68,8.56,3,12.83,3.47,19.8a37.58,37.58,0,0,1-1.2,14.85c-1.22,4-2.4,5.34-1.38,7.65,2.14,4.79,11.9,9.79,20.87,8.33,7.08-1.15,10-5.72,10.1-5.94,1.1-1.83,0-1.93-.21-8-.2-4.74.31-7.84.12-12.09a18.82,18.82,0,0,1,0-2.08c.06-2,.43-3.49.79-12.59.2-4.89.27-8.88.3-11.46a9.41,9.41,0,0,0-4-6.47c-5.61-4.23-17-6-22.7-3.42C139.53,418.06,138.58,419.57,137.43,421.37Z" transform="translate(38.55 -1.31)"/><path class="cls-19" d="M141.81,417c-2.27,1-3.23,2.53-4.38,4.33a11.28,11.28,0,0,0-1.78,7.08c.68,8.56,3,12.83,3.47,19.8l.06.89a60.21,60.21,0,0,0,12.45,2.14,63.35,63.35,0,0,0,15.77-.72c.1-1.85.45-3.7.79-12.17.2-4.89.27-8.89.3-11.46a9.44,9.44,0,0,0-4-6.47C158.9,416.23,147.52,414.49,141.81,417Z" transform="translate(38.55 -1.31)"/><path class="cls-14" d="M171.78,490.66c-4.89,6-18.94,7.41-35.63,9s-35.46,3.46-45.25-2.78c-1.18-.74-5.9-3.75-4.87-7,1.31-4.18,10.52-4.5,26.57-11.71A91.11,91.11,0,0,0,126.54,471c7.47-4.92,9.53-8.7,14.36-8.59A13,13,0,0,1,149,466a6.75,6.75,0,0,1,1,9.13c6.64-4.66,14.21-7.3,18.47-6.11,3.75,1.06,4.08,4.86,4.58,10.49S173.87,488.1,171.78,490.66Z" transform="translate(38.55 -1.31)"/><path class="cls-20" d="M171.78,490.66c1.63-2,1.83-4.21,1.6-7.8-6.65,2-13.53,3.78-20.59,5.23a184.28,184.28,0,0,1-66.71,1.67s0,.08,0,.12c-1,3.29,3.69,6.3,4.86,7.05,9.8,6.23,28.68,4.39,45.25,2.77S166.89,496.7,171.78,490.66Z" transform="translate(38.55 -1.31)"/><path class="cls-17" d="M235.41,426.57c-2.66,2.77-3.48,6-2.3,9.16a116.44,116.44,0,0,1,8.7,22.89c1.58,6.28,2.38,9.43,2.12,12.91-.31,4.16-1.6,5.49,0,7.53,3.33,4.27,15.61,7.55,22.89,4.43,4.84-2.07,5.25-6,5.31-6.92-.06-2.88-.66-28.67-5.75-42.83a16.16,16.16,0,0,0-10.24-10.68,22.58,22.58,0,0,0-9.73-1.53A17,17,0,0,0,235.41,426.57Z" transform="translate(38.55 -1.31)"/><path class="cls-19" d="M270.28,451.69a90.73,90.73,0,0,0-3.9-17.95,16.15,16.15,0,0,0-10.24-10.68,22.73,22.73,0,0,0-9.73-1.52,17,17,0,0,0-11,5c-2.66,2.77-3.48,6-2.3,9.16a122.64,122.64,0,0,1,7.58,18.88A67.21,67.21,0,0,0,270.28,451.69Z" transform="translate(38.55 -1.31)"/><path class="cls-14" d="M275.12,511.4c-8.65,6.27-32.62,2.35-38.5-1.78l-.09-.07c-3.08-2.21-4.8-5-4.89-7.85.09-3.08,2.51-4.65,5.65-9.3a36.23,36.23,0,0,0,4.3-8.51,7.3,7.3,0,0,1,2.33-9.49c3.94-2.92,10-3.29,14.6-3.57,3.57-.21,7-.42,10.29.6,5.44,1.69,8.2,6.11,7.63,11.08a71.57,71.57,0,0,1,3.65,16.42,14,14,0,0,1-.33,4.55C279.32,505.27,278.4,509,275.12,511.4Z" transform="translate(38.55 -1.31)"/><path class="cls-20" d="M275.12,511.39c3.28-2.38,4.2-6.12,4.65-7.91a14,14,0,0,0,.33-4.55c-.06-.7-.13-1.41-.22-2.12a45,45,0,0,1-18.5,6.71,63,63,0,0,1-20.38-.69,44,44,0,0,1-8.95-3,5.49,5.49,0,0,0-.41,1.89c.09,2.87,1.81,5.64,4.89,7.85l.09.06C242.5,513.75,266.47,517.67,275.12,511.39Z" transform="translate(38.55 -1.31)"/><path class="cls-9" d="M121.35,226.06s63.81,5.21,86.81-.88a5.58,5.58,0,0,1,1.73,0c2.64.48,3.6,2.89,4.35,4.79.82,2.05,1.86,4.67-.35,6.21a5.6,5.6,0,0,1-1.64.73s13.61,25.95,17.34,44.09,37.9,140.89,43.5,155.81c0,0-18.81,7.62-40.6,4.4l-59.73-130s-9,36.69-4.15,63.87,7.69,53.95,7.69,53.95-26.91.5-43-3.22c0,0-22.77-90.77-25.88-110.38s-5.2-52.54,10.09-79c0,0-2.1-.44-1.77-3.23S117.25,225.34,121.35,226.06Z" transform="translate(38.55 -1.31)"/><path class="cls-11" d="M249.53,423c-5.41.94-15.7,3.07-24.08,2.95l7,15.34c21.79,3.22,40.6-4.4,40.6-4.4-5.59-14.92-39.77-137.67-43.5-155.81s-17.34-44.09-17.34-44.09a5.61,5.61,0,0,0,1.64-.74c2.21-1.53,1.17-4.15.35-6.2-.75-1.9-1.71-4.31-4.35-4.79a5.9,5.9,0,0,0-1.73,0c-23,6.1-86.81.89-86.81.89-4.1-.73-5.26,4.41-5.59,7.2s1.76,3.23,1.76,3.23c-1.24,2.15-2.33,4.36-3.36,6.58a123.48,123.48,0,0,0,49.59,8c32.33-1.57-8.9,5.94-17.52,5.91s-24.68-.11-10.25,2.89,52.48,3.05,36.28,5.86-46.46,3.95-27.62,6.1,49.58-1.32,53.39,3.23,25.46,86.88,29.75,96.59,20.61,43.26,18.91,44.67-17.14,4.46-11.43,5.27S256.91,421.66,249.53,423Z" transform="translate(38.55 -1.31)"/><path class="cls-11" d="M157.08,289.83c-6.11-1.83-23.27-4.42-20.15-2.21s4.77,33.3,4.25,42.38,10.28,61.72,11.13,68.19,3.14,15-2.09,15.41-10.91,1.13-9.65,2.5,18.59-.5,16.06,1.4-15.5,3.24-25.11,1.18c1.12,4.5,1.79,7.16,1.79,7.16,16.08,3.72,43,3.22,43,3.22s-2.8-26.78-7.69-53.95,4.14-63.87,4.14-63.87S163.18,291.66,157.08,289.83Z" transform="translate(38.55 -1.31)"/><path class="cls-11" d="M115.75,233.26c-.33,2.79,1.77,3.23,1.77,3.23a85.17,85.17,0,0,0-8.29,20.14c15.77-6.86,25.21-17.74,25.51-29.38V227c-8.09-.47-13.4-.9-13.4-.9C117.25,225.34,116.09,230.47,115.75,233.26Z" transform="translate(38.55 -1.31)"/><path class="cls-11" d="M224.24,263.59a279.82,279.82,0,0,0-12-26.65,5.37,5.37,0,0,0,1.64-.73c2.22-1.54,1.18-4.16.36-6.21-.76-1.9-1.71-4.3-4.36-4.79a5.83,5.83,0,0,0-1.72,0c-8.1,2.14-21.25,2.89-34.9,2.95C174,236,180.48,259.25,224.24,263.59Z" transform="translate(38.55 -1.31)"/><path class="cls-12" d="M214.24,230c-.76-1.9-1.71-4.3-4.36-4.79a5.51,5.51,0,0,0-1.72,0c-23,6.09-86.82.88-86.82.88-4.1-.72-5.26,4.41-5.59,7.2s1.77,3.23,1.77,3.23,42.75,10.06,94.73.45a5.6,5.6,0,0,0,1.64-.73C216.1,234.67,215.06,232.05,214.24,230Z" transform="translate(38.55 -1.31)"/><path class="cls-21" d="M212.25,236.94a5.37,5.37,0,0,0,1.64-.73c2.21-1.54,1.17-4.16.35-6.21-.75-1.9-1.71-4.3-4.35-4.79a5.9,5.9,0,0,0-1.73,0c-6.83,1.81-17.29,2.62-28.59,2.87,0,1.27,0,3.12-.07,5.36a10.4,10.4,0,0,1-.12,2.61c-2.06,4.06-27.11,2.31-33.61,1.84-10.12-.75-20.15-1.92-30-3.49a2.28,2.28,0,0,0,1,1.73,2.09,2.09,0,0,0,.79.39S160.28,246.55,212.25,236.94Z" transform="translate(38.55 -1.31)"/><path class="cls-12" d="M132.66,422.86a71,71,0,0,0,16.22,2.59,72.45,72.45,0,0,0,26.52-3.81,5.6,5.6,0,0,1,2.84,1.46c.84,1,.43,1.86,0,3.86a21.06,21.06,0,0,0-.59,4.91c.13,2.82,1.51,3.37,1.33,4.61-.61,4-16.87,7.91-31.83,6.35-3-.32-14.59-1.53-16.7-5.8-.94-1.92.94-2.5.18-6.48-.53-2.76-1.87-4.49-.33-6.2A6.06,6.06,0,0,1,132.66,422.86Z" transform="translate(38.55 -1.31)"/><path class="cls-21" d="M179,436.48c.19-1.24-1.2-1.79-1.32-4.61a20.54,20.54,0,0,1,.59-4.91c.43-2,.84-2.9,0-3.86a5.59,5.59,0,0,0-2.85-1.46,72,72,0,0,1-19.26,3.73c1.18,4.6,1.93,9.89-1.45,12.08-3.83,2.48-13.87,1.52-24.3-2.62a2.64,2.64,0,0,0,.06,2.2c2.11,4.27,13.68,5.48,16.7,5.8C162.11,444.39,178.37,440.52,179,436.48Z" transform="translate(38.55 -1.31)"/><path class="cls-12" d="M226.41,428.25a88.71,88.71,0,0,0,13.26.51,82.92,82.92,0,0,0,28.9-6.28,5.55,5.55,0,0,1,1.91,1,3.4,3.4,0,0,1,1.16,2.17,34.85,34.85,0,0,0,1.71,3.8c1,2.11,1.52,2.17,2.57,4.4a10.32,10.32,0,0,1,1.13,3c.21,4.08-15.31,8.53-29.76,9.55-6.64.47-12.92.86-16.32-1.59-2.55-1.84-.41-3.06-3.73-8.27-1.72-2.7-3.76-4.69-2.49-6.76A4.56,4.56,0,0,1,226.41,428.25Z" transform="translate(38.55 -1.31)"/><path class="cls-21" d="M277.05,436.84a10.58,10.58,0,0,0-1.12-3c-1.06-2.23-1.59-2.29-2.58-4.4a34.85,34.85,0,0,1-1.71-3.8,3.36,3.36,0,0,0-1.16-2.17,5.59,5.59,0,0,0-1.9-1,80,80,0,0,1-14.9,4.59c2.82,5.17,5.14,12.12-1.47,13.95-7.65,2.13-17.58,1.51-22.81,1A3.5,3.5,0,0,0,231,444.8c3.4,2.45,9.69,2.06,16.32,1.59C261.74,445.37,277.26,440.92,277.05,436.84Z" transform="translate(38.55 -1.31)"/><path class="cls-6" d="M127.85,144s14.74-.89,22.47-3c0,0-4,19.89,20.26,18.41s44.2-21.38,44.2-21.38,14.73,1.19,16.57.89c0,0,22.1,31.47,36.47,38.3,0,0-23.94,21.37-50.09,25.23q-.71,6.66-1.18,13.59c-.67,9.46-1,18.6-1,27.37q-17.42-1.17-34.57-3.9c-14.75-2.36-22.58-4.53-47.41-9.46-10.64-2.12-19.34-3.73-24.88-4.74L125,193c-10.83-3.05-19.29-10-22.91-18.74a112.34,112.34,0,0,0,14.36-13.95A99.78,99.78,0,0,0,127.85,144Z" transform="translate(38.55 -1.31)"/><path class="cls-22" d="M267.82,177.26a25.66,25.66,0,0,1-3.35-1.94c-2.18,1.19-4.67,2.51-8,4.14-1.42.7-20.51,10.11-22.22,8.29-1.24-1.33,7.56-7.7,6.12-9.19s-10.56,4.4-14.18,2.24c-5-3,4.37-19.16,2.77-19.71-1-.36-3.95,7-12.23,13.22-7.59,5.72-16.43,8.07-21.19,9.29-12.22,3.15-21.3,2.38-21.6,4.37-.33,2.2,10.47,4.5,10,6.05-.21.7-2.53.81-10.25.77-4.93,0-14.37,0-21.66,0-6.61,0-7.4.29-7.45.55-.24,1.24,16.44,4,36.86,11.9,2.91,1.12,6.18,2.25,8.5,5,4.73,5.61,3.51,15.12-2.39,18.11-1.91,1-3.74,1-12.42,0-10.51-1.17-16.64-2.14-21.63-2.76-5.35-.67-11-1-22.4-1.51-6.15-.3-13.73-.59-22.45-.74,5.54,1,14.23,2.62,24.88,4.73,24.83,4.94,32.66,7.11,47.41,9.47q17.13,2.73,34.56,3.9c0-8.78.33-17.91,1-27.37q.48-6.93,1.18-13.59C243.88,198.64,267.82,177.26,267.82,177.26Z" transform="translate(38.55 -1.31)"/><path class="cls-23" d="M226.94,194.5c-1.6-1.51-2.29-3-3.66-6.05a42.37,42.37,0,0,1-3.27-11l-2.28,25.07a74.06,74.06,0,0,0,15.91-4.37A18.1,18.1,0,0,1,226.94,194.5Z" transform="translate(38.55 -1.31)"/><path class="cls-22" d="M130.44,172.17a21.28,21.28,0,0,1-8,2.55c-4.17.35-6.67-1.06-7.33-.24s.81,2.23,2.69,4.34c2.33,2.61,3.74,3.45,3.45,3.86-.46.64-4.94.29-8.39-1.93-3-1.95-6.21-5.94-8.14-8.73-.91.78-1.82,1.56-2.69,2.27C105.7,183.06,114.16,190,125,193c0,0,9.84-17.49,10.54-24.09A27,27,0,0,1,130.44,172.17Z" transform="translate(38.55 -1.31)"/><path class="cls-1" d="M691.36,507.94c3,1.71,12.95,7.36,12,11.61-1.84,8.26-43.47,5.89-66,3.4-22.2-2.46-62.45-9.11-62.15-15.4.26-5.5,31.58-9.54,55-8.9,8.54.24,4.74.79,28.64,2.71C674.73,502.64,682.46,502.88,691.36,507.94Z" transform="translate(38.55 -1.31)"/><path class="cls-2" d="M725,233l-.07-.54a27.45,27.45,0,0,0-30.7-23.8,28.2,28.2,0,0,0-3.51.67Q654.66,218.79,618,229q-23,6.41-45.55,12.94l-16.22,5A27.5,27.5,0,0,0,537,276.08l.46,4.47A27.47,27.47,0,0,0,573,304L705.9,262.7A27.48,27.48,0,0,0,725,233Z" transform="translate(38.55 -1.31)"/><path class="cls-3" d="M545.39,279.85l-.46-4.71c-1.35-13.61,6.56-26.33,18.92-30.52L556.22,247A27.48,27.48,0,0,0,537,276.08l.47,4.48a27.49,27.49,0,0,0,29.35,24.57C555.74,302.55,546.67,292.8,545.39,279.85Z" transform="translate(38.55 -1.31)"/><path class="cls-13" d="M601.9,116.69c-1.44-3.31-2.73-6-3.65-7.86,3.56-16.27,5.45-29.59,6.51-38.71,2.36-20.24,2.19-32.8,11-46.85,6.85-11,12.52-12.24,14.47-12.52,8.72-1.24,16.17,6.89,18.78,9.52,3.74,3.76,12.25,13.84,14,56.15a335.73,335.73,0,0,1-.75,40.62c-.56,2.51-4.32,18-19.09,25.64-8.55,4.42-23.13,7.35-30.51.56C608.15,139.11,609.54,134.32,601.9,116.69Z" transform="translate(38.55 -1.31)"/><path class="cls-24" d="M663,76.42c-1.59-37.57-8.48-49.73-12.62-54.62-.7-.82-1.42-1.53-1.42-1.53-5.3-5.29-11.94-7.25-17.08-8a46.08,46.08,0,0,0-14,16C611,41.59,614,53.6,614.21,72.64a202.07,202.07,0,0,1-3.83,41.42c-3.87,11.28-2.19,22.93,4.82,30.09a23.63,23.63,0,0,0,10.47,6.1A101.73,101.73,0,0,0,662.25,117,335.73,335.73,0,0,0,663,76.42Z" transform="translate(38.55 -1.31)"/><path class="cls-4" d="M623.57,80.76c-.68,17,3.49,25.94-1.76,30.25-2,1.6-6.11,3.3-9.74,4.78-2.38,1-4.4,1.67-5.83,2.12.21,1.66,4.48,33,17.59,34.78,2.23.31,4.79-.23,13.9-7,14.31-10.63,31.6-23.48,28.65-32.17-1.79-5.26-12.42-1.12-13.74-9-1.57-9.45-.67-35.34-1.35-40.52-1.07-8.23-15.8-9.47-21.55-6C624.36,61.34,624,69.81,623.57,80.76Z" transform="translate(38.55 -1.31)"/><path class="cls-5" d="M652.65,104.51C651.07,95.06,652,69.17,651.3,64c-1.08-8.23-15.8-9.47-21.56-6-5.38,3.3-5.72,11.77-6.16,22.72a134,134,0,0,0,.67,17.69c5-2.18,15.5-7.62,15.5-7.62l-1.7,31.35s-11.14,14.73-12.47,17.37c0,0-7.08-18.41-9-25.67-1.48.66-3.05,1.3-4.54,1.91-2.38,1-4.41,1.66-5.84,2.12.22,1.65,4.49,33,17.6,34.78,2.23.31,4.79-.23,13.9-7,14.31-10.64,31.6-23.48,28.65-32.17C664.59,108.26,654,112.4,652.65,104.51Z" transform="translate(38.55 -1.31)"/><path class="cls-14" d="M629.76,10.72A69.39,69.39,0,0,1,619.2,8.28c-5.58-1.76-8.37-2.64-11-4.54-2.08-1.5-3.07-2.73-4.25-2.37-1.9.59-2.31,4.7-2.21,6.93a13.55,13.55,0,0,0,2,6.46c-2-.2-3.77-.36-5.2-.47-3.44-.28-3.85-.24-5.2-.48-3.63-.63-4.11-1.53-5-1.1-2.44,1.14-3,9.13,1.11,14.19a13.42,13.42,0,0,0,7.08,4.4,12.07,12.07,0,0,1-2,.79c-2.56.71-3.71.08-4.25.63-1.15,1.17,1.39,6.94,5.83,10.71,4.84,4.1,10.71,4.8,14.28,4.83L609,53.59l15.36.2-.19,15.6s27.45-9,30.91-22S639,12.18,629.76,10.72Z" transform="translate(38.55 -1.31)"/><path class="cls-25" d="M629.76,10.72c-1-.15-1.92-.31-2.84-.49,2,1.91,12.56,12.54,13.32,17.31.84,5.25-4,6.51-9.45,5-4.83-1.3-31.12-3.91-44.28-13.34a14.38,14.38,0,0,0,2.93,7.66,13.44,13.44,0,0,0,7.09,4.4,11.54,11.54,0,0,1-2,.78c-2.56.72-3.72.09-4.25.63-1.15,1.18,1.39,6.95,5.82,10.71,4.84,4.1,10.72,4.8,14.28,4.84L609,53.59l15.37.2-.2,15.6s27.46-9,30.92-22S639,12.18,629.76,10.72Z" transform="translate(38.55 -1.31)"/><path class="cls-4" d="M645.58,79.17s-21.4,9.2-31.4,12.6c0,0-7.8-13.8-9.4-29.2a76.3,76.3,0,0,1,3-29c3.07.8,6.32,1.55,9.72,2.23,5.74,1.13,11.17,1.9,16.21,2.4-.74.5-1.74,1.19-2.91,2-5,3.52-5.35,4.11-5.31,4.68.09,1.29,2.39,2.1,5.06,3a34.64,34.64,0,0,0,7.84,1.77c-2.36,1.57-3.83,3.4-3.41,4.48s3.34,1.2,5.21,1.17a18.7,18.7,0,0,0,5.46-.91Q645.62,66.79,645.58,79.17Z" transform="translate(38.55 -1.31)"/><path class="cls-5" d="M645.58,79.17q0-12.37.07-24.74a18.81,18.81,0,0,1-5.46.91c-1.87,0-4.73,0-5.21-1.17s1-2.92,3.41-4.48a34.4,34.4,0,0,1-7.84-1.77c-2.67-.93-5-1.74-5.06-3,0-.57.34-1.17,5.31-4.68,1.17-.83,2.17-1.52,2.91-2-5-.5-10.47-1.26-16.21-2.4-3.41-.67-6.65-1.42-9.73-2.22a65.18,65.18,0,0,0-1.87,7.56c1.62.41,3.37.78,5.26,1.07a54.91,54.91,0,0,0,12.68.42c-3,1-4.84,2.76-4.77,4.42,0,.65.3,1.51,1.74,2.56a16.91,16.91,0,0,0,10.49,3.28s-5,3.6-1.56,5.17,11.58.63,11.58.63-.17,14.31-.84,22.67C643.56,80,645.58,79.17,645.58,79.17Z" transform="translate(38.55 -1.31)"/><path class="cls-2" d="M594,256.41c-4,67-1.78,102.24,1.51,122.21,1,6.13,5.15,25.37,7.85,52.09,1.94,19.14,2.5,34.92,2.68,45.34a19.68,19.68,0,0,0,19.59,0c-1-27.93-1.64-47.37-1.8-57.89-.05-2.91-.09-7.8-.7-14.42-.16-1.73-.44-4.58-2-16.37-.63-4.64-1.17-8.48-1.54-11.12q2.31-18.75,4.48-37.88,1.92-17,3.65-33.75a8.66,8.66,0,0,1,4.26,2.13,10.23,10.23,0,0,1,2.35,3.84,26.43,26.43,0,0,1,1.7,6c.93,7,20.21,63.32,28.66,91.28a612.18,612.18,0,0,1,15.5,63.61c.3.4,4.13,5.2,10.34,4.77a12.25,12.25,0,0,0,8.35-4.37c-4.87-24.47-7.22-41.85-8.47-53.44-.29-2.67-2.38-22.21-6-36.05-.22-.87-3.29-12.68-3.29-12.68l-6.39-116.9q-25.66,2-53.11,3Q607.58,256.27,594,256.41Z" transform="translate(38.55 -1.31)"/><path class="cls-15" d="M684.4,382.36c-.23-.87-3.3-12.68-3.3-12.68l-6.39-116.9q-25.65,2-53.1,3-14,.48-27.62.63c-.81,13.68-1.37,26-1.71,37.2,3.61,2,9.65,4.37,19.12,5.47q.11-7.69.22-15.4a85.77,85.77,0,0,0,26.9-.5q.06,2.94.13,5.86c-15.15.15-18.48.91-18.53,1.62s3.27,1.56,6.45,2.36a64.35,64.35,0,0,0,11.95,1.87q.06,4.17.13,8.35a70.75,70.75,0,0,0,22.41-1.89s10.3,66.46,11.23,73.32,17.48,68.95,16.23,73.63-4.68,4.06-6.24,5.3,2.8,4.06,5.92,3.43,4.37,4.06.94,4.68c-1.56.29-6.27.12-10.95-.15q1,4.81,1.95,9.88c.3.39,4.13,5.2,10.34,4.77a12.21,12.21,0,0,0,8.34-4.37c-4.86-24.47-7.22-41.85-8.47-53.44C690.06,415.74,688,396.2,684.4,382.36Z" transform="translate(38.55 -1.31)"/><path class="cls-15" d="M615.92,456c-.66.25-1.67.5-4.35,0a27.85,27.85,0,0,1-6.36-2c.5,8.78.72,16.25.82,22.05a19.64,19.64,0,0,0,19.59,0c-1-27.92-1.64-47.36-1.8-57.89-.05-2.91-.09-7.8-.7-14.42-.16-1.73-.44-4.57-2-16.36-.63-4.65-1.17-8.48-1.54-11.12q2.31-18.76,4.48-37.88,1.92-17,3.65-33.75c-.78-.33-12.74-3.94-13.4-2.33a.64.64,0,0,0,.06.47c1.6,3.26-6.81,46.34-7.58,66.08-.3,7.53,1.1,15.26,3.88,30.72,2.92,16.16,9.26,43.6,3,46.46-1.2.55-4,.71-4.19,1.93-.12.79.9,1.56,1.51,2,3.65,2.69,7.56,1.47,8,2.82C619.29,453.77,617.56,455.38,615.92,456Z" transform="translate(38.55 -1.31)"/><path class="cls-6" d="M678.2,466.4c.45-.41,3.58-1,9.86-2.12a13.64,13.64,0,0,1,7,.4l.13.05c4.93,2.08,5.65,10.71,5.79,13.36a109.41,109.41,0,0,1,4.9,16c2.1,9.39,2,14.64,1.87,16.5-.23,4.82-.34,7.24-1.75,9.4-4.44,6.8-15.88,5.94-19.24,5.68-5-.37-10.57-.79-14.44-5.25-4.13-4.76-4.27-11.86-2.62-16.61,1.42-4.08,3.58-4.8,7.22-11.81a59.14,59.14,0,0,0,3.26-7.54C675.89,476.75,675.05,469.28,678.2,466.4Z" transform="translate(38.55 -1.31)"/><path class="cls-2" d="M686.75,525.7c3.37.26,14.8,1.12,19.24-5.68,1.42-2.17,1.53-4.58,1.75-9.4a39.64,39.64,0,0,0,0-4.08,28.74,28.74,0,0,1-18.48,7.77c-11,.38-17.26-2.6-20.51-5a16.17,16.17,0,0,0,3.6,11.11C676.18,524.91,681.8,525.33,686.75,525.7Z" transform="translate(38.55 -1.31)"/><path class="cls-6" d="M599.06,461c1.58-2,4.38-2.38,6.32-2.61,1.24-.15,5.42-.66,7.47,1.71a5.86,5.86,0,0,1,1.17,3.61,68,68,0,0,1,.14,10.87,8.35,8.35,0,0,1,4.27-3.52,7.2,7.2,0,0,1,5.09-.13,6.6,6.6,0,0,1,2.8,2.24c2.51,3.26,2.5,7.33,2.5,8.61.08,13.47,4.73,18.49.87,22.55-.86.9-1.84,1.38-5.94,2.6a99.15,99.15,0,0,1-20.2,3.86c-15.19.91-27.33,1.65-29.8-3.58-.64-1.34-.33-3.34.27-7.34s1.09-7.12,2.9-9.87,3.8-3.45,14.74-9c3.36-1.71,6.05-3.11,7.61-3.92-.11-1.07-.26-2.57-.42-4.36C598,463.59,598.08,462.23,599.06,461Z" transform="translate(38.55 -1.31)"/><path class="cls-2" d="M630.42,495.07c-12.65,6.82-46.12,6.2-56.55,5.83-.5,3.29-.7,5.06-.12,6.29,2.47,5.22,14.61,4.49,29.8,3.58a99.85,99.85,0,0,0,20.2-3.87c4.1-1.22,5.08-1.7,5.94-2.6C631.88,502,631.32,499.37,630.42,495.07Z" transform="translate(38.55 -1.31)"/><path class="cls-12" d="M613.26,114.2a107.72,107.72,0,0,0,12.12,33c3.7-5.88,7.84-12,12.5-18.35,5.82-7.9,11.65-15,17.26-21.29l9.28-.18a438.63,438.63,0,0,0-8.2,61.68c-1.21,19.85-.78,35.32-.41,47.25.65,21.53,2.31,39.74,3.92,53.45a98.43,98.43,0,0,1-57,2.34c-1.7-23.57-2.41-43.27-2.73-57.76-.21-9.27-.46-23.48,0-42.16.54-21.93,1.84-40.63,3.14-55Z" transform="translate(38.55 -1.31)"/><path class="cls-11" d="M656.22,169.09a438.69,438.69,0,0,1,8.2-61.67l-7.29.14c-2,1.48-4,3-5.8,4.41-4.35,5.08-8.79,10.62-13.24,16.63-.4,13-2.46,82-1.26,102.77.84,14.56-2.65,20.92-6.73,23.75a26.39,26.39,0,0,1-7,2.28c-5.3,1.17-9.21.83-9.29,1.52s3.23,1.51,4,1.71c11.83,3.08,21.42,2.61,21.53,3.62,0,.29-.7.94-4.57,1.72-7.23,1.44-15.85,1.4-23.87.8-1.2-26-1.42-48.68-1.25-67.12.05-5.35.3-27.73,1.85-57.36.59-11.24,1.23-20.81,1.76-28.08l-10.1,3c-1.3,14.4-2.61,33.1-3.15,55-.46,18.68-.2,32.89,0,42.15.32,14.49,1,34.2,2.73,57.77.68.18,1.39.35,2.11.52l1.35.3.78.17,1.82.36.33.06a97.45,97.45,0,0,0,17,1.71,99.08,99.08,0,0,0,33.57-5.46c-1.6-13.72-3.27-31.93-3.92-53.46C655.45,204.42,655,188.94,656.22,169.09Z" transform="translate(38.55 -1.31)"/><path class="cls-13" d="M733.55,180.48c-.55-2-16.62-31-19.73-37.62S701,107.07,699,106.89s-14.79-1.64-14.79-1.64c.55-7.86-5.48-8.22-6.58-8.77s6-10.59,3.48-14.24-12.42-42.19-12.6-54.6S662,15.58,654.11,13.76s-19-4.57-20.45-4.75-3.48,1.74-3.48,1.74c5.05,2.36,13.33,11,14.7,14.23s-1.83,75.17-4.12,116.89,5.5,154.58,5.5,154.58c34.33-5.11,42.91-18.08,42.91-18.08l-3.65-35.79s4-.37,5.3-2.19,42.36-46.57,42.73-48S734.1,182.5,733.55,180.48Zm-47.4,22.67q.17-18.78.33-37.56a70.39,70.39,0,0,0,16.35,16,4.08,4.08,0,0,0-1.41,2.16,4.22,4.22,0,0,0,.83,3.48,7.34,7.34,0,0,0-2.73,1.08,7.86,7.86,0,0,0-2.74,3.4c-.85,1.84-3.33,5.12-10.63,11.43Z" transform="translate(38.55 -1.31)"/><path class="cls-13" d="M605.63,292s-1.8-116.43.45-142.16,4.3-35.81,4.3-35.81-22,6-22.22,7.54-2.54,25.4-2.79,27.69-7.6,70.79-9.7,76.5-4.95,12.74-4.95,12.74l1.71,3.43,17-4.83-2.79,38.34A23.35,23.35,0,0,0,605.63,292Z" transform="translate(38.55 -1.31)"/><path class="cls-26" d="M733.55,180.49c-.22-.8-2.86-5.81-6.17-12a30.76,30.76,0,0,1,.09,10.22c-.9,5.14-3.79,8.48-5.43,10.52-13.6,16.89-21.16,23.62-29.26,32.65a47.12,47.12,0,0,1-8.3,7.47,45.59,45.59,0,0,1-7.2,4.15q-.37-10.32-.76-20.63l9.63-9.73.33-37a158,158,0,0,1-9-13.17c-4.09-6.65-5.65-10.27-7.22-10-2.62.42-2.91,11.22-3,14.79-.78,34.9.22,53.81.22,53.81.95,31.52,2.8,47.62-7,55.16-2.38,1.84-7.61,4.82-7,6.56.54,1.54,5.35,1.23,9.95.9,10.62-.75,16.4-3.06,16.73-2.26s-6.6,5.55-15.37,8.37A58.1,58.1,0,0,1,645.38,283c.53,8.36.88,13.42.88,13.42,34.33-5.11,42.91-18.08,42.91-18.08l-3.65-35.79s4-.36,5.3-2.19,42.36-46.57,42.73-48S734.09,182.5,733.55,180.49Z" transform="translate(38.55 -1.31)"/><path class="cls-26" d="M591.78,205.86c-1-.21-2.1,9.8-8,11.74a9,9,0,0,1-6.46-.75,67.92,67.92,0,0,1-1.65,8.94c-2.09,5.71-4.94,12.74-4.94,12.74l1.71,3.43,17-4.83c.13-2.25.35-5.63.72-9.74C591.21,215.81,592.73,206.08,591.78,205.86Z" transform="translate(38.55 -1.31)"/><path class="cls-26" d="M656.34,110.8c4.34-7.31,20.56-14.17,20.56-14.17l1.08,0a2.08,2.08,0,0,1-.32-.12c-1.1-.55,6-10.59,3.47-14.24s-11.8-39.76-12.55-53.34c.63,19.65-6.58,48.77-8.81,59.28C657.48,98.92,652,118.11,656.34,110.8Z" transform="translate(38.55 -1.31)"/><path class="cls-1" d="M557.76,497.26c-.11,1.3-2.76,2.51-11.46,3.92-19.84,3.21-26.65.25-43.44,1.22-13.9.81-25.23,3.76-41.05,3.92a47.25,47.25,0,0,1-11.73-1.47c-1.07-.28-13.79-3.55-13.59-6.85.26-4.36,22.89-6.5,26.65-6.86,12.9-1.22,14.67.15,29.59-.25,23-.61,26.81-4.08,41.84-1.95C545.41,490.47,558,494.33,557.76,497.26Z" transform="translate(38.55 -1.31)"/><path class="cls-14" d="M518.9,91.52l8.84.8L530,95.18s-9.88,31.7-10.94,34.8c0,0-9-2.83-8.95-3.1S518.9,91.52,518.9,91.52Z" transform="translate(38.55 -1.31)"/><path class="cls-25" d="M519.06,130c1.06-3.1,10.93-34.8,10.93-34.8l-2.25-2.86-13.87,36C516.32,129.12,519.06,130,519.06,130Z" transform="translate(38.55 -1.31)"/><path class="cls-2" d="M497.65,264.12c-.3,3.89-.81,9.7-1.66,16.74-3.11,26-7.33,39.71-18.71,84.79,0,0-7,27.81-14.29,65.4a124.62,124.62,0,0,0-2.75,21.13,256.56,256.56,0,0,0,.42,25.85c.75,9.4,1.7,13.29-1.1,15.34-3.22,2.37-10.32,1.48-14.16-2.05-5.69-5.23-1.71-13.89.69-34.43.87-7.53,1.06-12.6,1.44-22.74,1.2-31.83-3.91-42.2,2.06-61.73a82.11,82.11,0,0,1,6.75-15.86q-1.17-14.08-1.78-29.15c-.61-15.06-.21-5.49-.32-10.16-.44-20.16,2.32-47.74,3.46-58.36,2.6-10.43,13.83-16.82,24.33-14.64C491.44,246.2,498.31,254.62,497.65,264.12Z" transform="translate(38.55 -1.31)"/><path class="cls-25" d="M497.65,264.12c.66-9.5-6.21-17.92-15.62-19.87-10.5-2.17-21.73,4.22-24.33,14.64-1.14,10.62-3.9,38.21-3.46,58.37.1,4.66.32,10.15.32,10.15q.58,15.06,1.78,29.16a81.76,81.76,0,0,0-6.75,15.85c-6,19.53-.86,29.9-2.06,61.74-.38,10.14-.57,15.21-1.45,22.73-2.39,20.54-6.37,29.2-.68,34.43l.25.21,15,.73c1.46-2.29.69-6.29.06-14.23a256.56,256.56,0,0,1-.42-25.85A124.62,124.62,0,0,1,463,431.05c.58-3,1.16-6,1.74-8.84-1.81-.21-3.67-.41-5.58-.58-1.5-.14-3-.26-4.43-.36a136.9,136.9,0,0,1,.27-15.69c1.57-21,8.13-25.39,9.93-46.81.33-3.95,2.31-33.74,2.31-33.74,4.52,2.08,14.75,3.28,19.43,3.74,4.75-19,7.28-30.8,9.33-47.91C496.84,273.82,497.35,268,497.65,264.12Z" transform="translate(38.55 -1.31)"/><path class="cls-13" d="M443.45,428.45a54.41,54.41,0,0,1,27.49,3.39l-6.57,38.09a194.43,194.43,0,0,0,3.29,26c.39,1.85,1.21,5.43-.85,8.56-2.17,3.32-6.38,4.32-8.06,4.71-7.88,1.87-18.91-.83-22.71-7.85-1.82-3.37-1.24-6.93,0-13.9a71.22,71.22,0,0,1,5.13-16.6Z" transform="translate(38.55 -1.31)"/><path class="cls-24" d="M466.81,504.47c2.05-3.13,1.24-6.71.84-8.56-.24-1.15-.48-2.38-.72-3.7a19.09,19.09,0,0,1-10.6,5.22c-11.95,2.05-17.76-5.42-20.23-10.32l-.06.32c-1.24,7-1.83,10.53,0,13.9,3.8,7,14.83,9.72,22.71,7.85C460.42,508.79,464.63,507.79,466.81,504.47Z" transform="translate(38.55 -1.31)"/><path class="cls-2" d="M519.76,250.79c14,9.23,14.58,44.59,11.76,109.69-.68,15.75-1,23.63-1.29,26.44,0,0-4.63,42.21-4.17,58.08a33.37,33.37,0,0,0,1.87,11.09c.9,2.49,3,7.28,13.91,18.75,8.28,8.7,12.22,11.36,11.25,13.2-1.17,2.2-8.41,1.36-12.94.12-7.32-2-6.8-4.89-14.53-7-4.68-1.3-7.31-.93-10.92-3.44a15.88,15.88,0,0,1-4.51-4.77c-2.8-4.67-1.66-9.06-1.07-16.4.38-4.84,0-9.71.15-14.56.85-23.38-6.82-35.17-4.55-59.89a106.85,106.85,0,0,1,2.82-16.41C504.61,345.78,502,330,500.3,320c-3.53-20.75-10-57,.63-67a17.3,17.3,0,0,1,9.9-4.8A15.49,15.49,0,0,1,519.76,250.79Z" transform="translate(38.55 -1.31)"/><path class="cls-25" d="M541.42,474.39c-10.53-11.13-12.6-15.84-13.49-18.3A33.37,33.37,0,0,1,526.06,445c-.13-4.64.17-11.54.66-19a55.39,55.39,0,0,1-11.43-.89s0-2.86-.93-11.43,2.18-41.44,3.42-47.16-.93-36.3-.93-36.3c8.49.2,13.5-1.73,15.83-3,1-44.11-1.5-69-12.91-76.47a15.54,15.54,0,0,0-8.94-2.59,17.3,17.3,0,0,0-9.9,4.8c-10.62,10-4.15,46.21-.62,67,1.7,10,4.3,25.82,7.24,45.7a108.1,108.1,0,0,0-2.83,16.41c-2.27,24.72,5.41,36.51,4.55,59.89-.18,4.85.24,9.72-.14,14.56-.59,7.34-1.73,11.73,1.07,16.4a15.76,15.76,0,0,0,4.51,4.77c3.61,2.51,6.23,2.14,10.92,3.44l.1,0,15.4-2.86Z" transform="translate(38.55 -1.31)"/><path class="cls-13" d="M506.62,435.52a45.49,45.49,0,0,1,28.73.91l-.8,27.75a12.19,12.19,0,0,0,1.28,3.63,13.89,13.89,0,0,0,3.66,4.29,101.26,101.26,0,0,0,8.89,6.55c9,5.65,11.27,6.65,11.62,9.17a28.53,28.53,0,0,1-.9,4.67c-1.2,5.34-1.77,6-2.14,6.36-1.08,1-2.45,1.13-7.41.83-12.72-.75-15.6-1.55-18.42-2.89a30.28,30.28,0,0,1-3.06-1.7,17.25,17.25,0,0,0-3.35-3.8,18.09,18.09,0,0,0-2.6-1.82c-.09.42-.23,1-.42,1.78-.53,2-.8,3.08-1.41,3.57s-1.5.55-3,.52a13,13,0,0,1-5-1,12.63,12.63,0,0,1-5.24-4.17l.27-12.1q-.1-7.51-.22-15.05Q506.86,449.25,506.62,435.52Z" transform="translate(38.55 -1.31)"/><path class="cls-24" d="M520.28,494.82c.61-.49.89-1.53,1.41-3.57.19-.74.33-1.36.42-1.78a18.09,18.09,0,0,1,2.6,1.82,17.25,17.25,0,0,1,3.35,3.8,30.44,30.44,0,0,0,3.07,1.7c2.81,1.34,5.69,2.14,18.42,2.89,5,.3,6.32.18,7.4-.83.38-.35.94-1,2.14-6.36.22-1,.4-1.75.54-2.41-6.32,2.94-28.4-.08-32.74-2.66-3.71-2.21-14.83-7.18-19.6-9.17L507,490.17a12.65,12.65,0,0,0,5.24,4.18,13.21,13.21,0,0,0,5,1C518.78,495.37,519.6,495.38,520.28,494.82Z" transform="translate(38.55 -1.31)"/><path class="cls-13" d="M516,161.74s1.67-65.95,4.36-74l4.31-1.31a35.83,35.83,0,0,0-3.14-16.37c-1.67-3.68-5.78-12.74-16-17.23-14.07-6.17-28.52,1.27-30,2.07a22,22,0,0,0-10.51,2.58c-5.82,3.24-8.15,8.65-9.38,11.72-8.66,21.63-12.34,51-12.57,52.9-2.4,19.78-2.33,24-1.21,29.43a63.32,63.32,0,0,0,10.59,23.81l2.16-6.86c1.08-3.43,8.05,13.56,14.76,19.1a32.45,32.45,0,0,0,13.08,6.78s-1.67-20-1-21.57c0,0,9.73,13.56,17.11,15.72l.33-19.41,7.39,12.32A30.88,30.88,0,0,0,516,161.74Z" transform="translate(38.55 -1.31)"/><path class="cls-24" d="M501.86,147.78c.67-2.91,1.31-5.84,1.92-8.81a438.45,438.45,0,0,0,7.37-49.75l-24.46-1.34-9.59,54Z" transform="translate(38.55 -1.31)"/><path class="cls-24" d="M467.28,102.44s-5.69,24.67-5.59,33.12,4.51,33.15,7.19,37.09l-19.64-26.92c1.07-10.66,2.52-19.85,3.9-27.27,2.35-12.59,4.39-19.38,8.07-26.57,1.1-2.14,2.11-3.87,2.84-5.06Q465.67,94.63,467.28,102.44Z" transform="translate(38.55 -1.31)"/><path class="cls-24" d="M498.82,81.84c-.35-.65-6.66-16.24-6.66-16.24C491,66.83,484.87,80,484.87,80a35.8,35.8,0,0,1-10.54-.24,14.89,14.89,0,0,0,4.3,3.34,17,17,0,0,0,9.23,2.65q1.89-6.5,3.76-13,1.59,6.49,3.17,13a52.28,52.28,0,0,0,17.72,1.36,32,32,0,0,1,7.88.64l4.31-1.31C518.75,83.12,498.82,81.84,498.82,81.84Z" transform="translate(38.55 -1.31)"/><path class="cls-27" d="M473.43,114.42s-1.61,20.74-2.62,21.14-9.13,0-9.13,0a50.66,50.66,0,0,0,4.19,13.06c3,6.36,5.9,12.39,12.54,16,5.76,3.1,16.61,5.55,23.81-.14,6.84-5.42,8.19-16.52,1.56-25.47-1.88-.34-4.46-.83-7.53-1.45-4.2-.86-4.7-1.05-5.24-1.51-1.88-1.62-1.5-4.19-1-10.85.17-2.2.41-5.69.63-10.11a9.29,9.29,0,0,0-10.44-8.48A8.66,8.66,0,0,0,473.43,114.42Z" transform="translate(38.55 -1.31)"/><path class="cls-17" d="M503.78,139c-1.88-.34-4.46-.83-7.52-1.45a43.71,43.71,0,0,1-4.39-1c1.55,4.2.7,8.29-2,10.29-2.44,1.79-5.6,1.35-6.63,1.21-8.58-1.18-12.5-11.48-12.82-12.35q-4.35.17-8.7-.08a50.64,50.64,0,0,0,4.18,13.06c3,6.36,5.9,12.39,12.54,16,5.76,3.1,16.62,5.55,23.81-.14C509.07,159,510.41,147.92,503.78,139Z" transform="translate(38.55 -1.31)"/><path class="cls-27" d="M512.67,179.9s27.59,25.12,33.11,26.5,10-5.3,9.78-8.3-40.63-40.32-43.4-41.24-12,6.23-8.78,12S512.67,179.9,512.67,179.9Z" transform="translate(38.55 -1.31)"/><path class="cls-17" d="M539.76,181.4c-11.75-11.23-26-24-27.59-24.53-2.76-.92-12,6.22-8.78,12s9.28,11.05,9.28,11.05,6.45,5.88,13.74,12.1A31.12,31.12,0,0,0,539.76,181.4Z" transform="translate(38.55 -1.31)"/><path class="cls-6" d="M499.25,139.43c3-1.37,6.43-.12,8.1.48,8,2.88,9.51,9.88,18,20.17a85.28,85.28,0,0,0,9.94,10.09A38.71,38.71,0,0,1,510,187.47c-1.54-3.35-4-8.42-7.32-14.47-4.9-8.83-6.95-11.05-7.92-16.18C493.64,151.06,494,141.88,499.25,139.43Z" transform="translate(38.55 -1.31)"/><path class="cls-7" d="M532.68,167.78c-1.76,1.8-6.59,6.19-10.62,4.87-3.76-1.24-15.9-22.84-21.74-33.59a6.77,6.77,0,0,0-1.07.37,6.47,6.47,0,0,0-1.83,1.3l1,24.93c1.1,1.9,2.48,4.2,4.22,7.35,3.35,6,5.78,11.11,7.32,14.46a38.71,38.71,0,0,0,25.37-17.3C534.39,169.35,533.51,168.56,532.68,167.78Z" transform="translate(38.55 -1.31)"/><path class="cls-17" d="M489.68,129.79c.08-1.28.21-2.8.35-4.63.17-2.2.42-5.69.64-10.11a9.3,9.3,0,0,0-10.45-8.48,8.66,8.66,0,0,0-6.79,7.85s-.31,4-.75,8.6a43.36,43.36,0,0,0,17,6.77Z" transform="translate(38.55 -1.31)"/><path class="cls-6" d="M463,135.22l5.69-.25c.45,1.36,5.1,14.85,15.42,16.48,1.09.17,4.1.65,6.55-.91,3.55-2.26,4.55-7.95,2.15-14.25l7.52,1.61a85.48,85.48,0,0,1,3.92,9c2.7,7.41,4.1,11.91,2.46,15.33-3.24,6.78-19.09,9.72-30,4.59C466,161.79,460.18,149,463,135.22Z" transform="translate(38.55 -1.31)"/><path class="cls-7" d="M506.7,162.24c1.63-3.42.24-7.92-2.46-15.33a85.48,85.48,0,0,0-3.92-9l-5.82-1.25c.92,2.62,2.3,8.19,4.35,18.37-1-.07-2.42-.16-4.16-.19-3,0-6,.11-9,.38-2.12.15-4.83.36-8,.65a103.35,103.35,0,0,0-6.18-13.41c-1.48-2.67-3-5.13-4.51-7.41l-4,.18c-2.81,13.76,3.06,26.57,13.74,31.61C487.61,172,503.46,169,506.7,162.24Z" transform="translate(38.55 -1.31)"/><path class="cls-27" d="M478.63,83.13q-1.14,6.11-2.2,12.36-1.64,9.6-3,18.93a66.13,66.13,0,0,0,26.9,11.36,71.24,71.24,0,0,0,7.1-13.16,68.75,68.75,0,0,0,5.08-25.48,52.24,52.24,0,0,1-17.71-1.36l-3.18-13-3.75,13a17,17,0,0,1-9.24-2.65Z" transform="translate(38.55 -1.31)"/><path class="cls-28" d="M489.46,91.64l1.93-8.5,1.93,8.68a45.05,45.05,0,0,0,19,.47c.15-1.86.22-3.59.23-5.15a52.24,52.24,0,0,1-17.71-1.36l-3.18-13-3.75,13a17,17,0,0,1-9.24-2.65q-1.14,6.11-2.2,12.36-1.64,9.6-3,18.93l8.31-24.73A46.43,46.43,0,0,0,489.46,91.64Z" transform="translate(38.55 -1.31)"/><path class="cls-27" d="M467.4,102l2.86-16.1s-3.85-.51-6.2.89S461.32,97.82,467.4,102Z" transform="translate(38.55 -1.31)"/><path class="cls-12" d="M464.09,134.3a50.61,50.61,0,0,1,5.09,7.31,49.64,49.64,0,0,1,5.93,16.66q5.22-.53,11-.8c5.65-.26,11-.27,15.95-.11a79.67,79.67,0,0,0-6.76-21.52l4.28.95c1.87.4,3.72.79,5.54,1.15,1.35,2.85,3.2,7,5.3,12.09,3.1,7.51,4.55,11.3,5.23,15,1.15,6.25,0,8.62-.94,20.7-.32,4.17-.62,9.83-.6,16.62.69,2.1,1.67,5.16,2.81,8.86,0,0,1.27,4.17,2.6,8.83,5.51,19.29,9.28,34.62,9.28,34.62,5.66,23,9.6,43.73,11.59,54.78a106.16,106.16,0,0,1-36.86,8.29,108.59,108.59,0,0,1-59.57-15.24c1.8-7.37,3.26-13.25,4.15-16.82,3.67-14.74,11.82-47.25,13.73-62.18C462.47,218.26,463,213,463,213c.33-3.65.55-6.86.7-9.51-1.32-4-3-9.13-4.43-13.32-4.58-13.81-4.17-12.68-4.58-13.82-10-27.6-9.6-30.36-8.79-35.87a7,7,0,0,1,1.62-3.75,9.46,9.46,0,0,1,3.68-2.43Z" transform="translate(38.55 -1.31)"/><path class="cls-11" d="M523.26,233.6c-1.13-4.16-2.4-8.73-3.78-13.56-1.33-4.66-2.6-8.83-2.6-8.83-1.14-3.7-2.12-6.76-2.81-8.87,0-6.78.29-12.45.6-16.61.86-11.59,2-14.26,1.07-20h0a14.88,14.88,0,0,1-6.34,7.94c-3.36,1.92-6.53,1.75-11.1,1.7-19.08-.21-21.15,2.2-24.95-.51-.92-.66-1.65-1.41-6.28-13.92-2.44-6.59-4.93-12.26-7.72-16.23a30,30,0,0,0-10.66-9.11h0a8.62,8.62,0,0,0-1.23,1.1,7.08,7.08,0,0,0-1.63,3.75c-.8,5.51-1.22,8.27,8.8,35.87.41,1.14,0,0,4.58,13.82,1.39,4.19,3.11,9.37,4.43,13.32-.15,2.65-.37,5.86-.7,9.51,0,0-.48,5.25-1.14,10.48-1.9,14.93-10.06,47.45-13.73,62.18-.89,3.57-2.34,9.45-4.15,16.82a110.43,110.43,0,0,0,29.66,12.18c1.13-11.64,2.68-23.85,4.76-36.55,2.2-13.48,4.78-26.24,7.6-38.25a121.17,121.17,0,0,0,37.32-6.27Z" transform="translate(38.55 -1.31)"/><path class="cls-29" d="M480.5,200.2c-10.18-6.75-6.94-17-19.24-30a55.42,55.42,0,0,0-12.11-9.62c1.33,4.11,3.11,9.24,5.48,15.77.42,1.14,0,0,4.58,13.82,1.39,4.19,3.11,9.37,4.43,13.32-.15,2.65-.37,5.86-.7,9.51,0,0-.47,5.25-1.14,10.48-1.9,14.93-10.06,47.45-13.73,62.18-.88,3.57-2.34,9.45-4.15,16.82a110.14,110.14,0,0,0,14.08,7c4.44-24.18,7.56-42.47,10.06-58.54.13-.81,3.69-23.69,14.84-34.62A39,39,0,0,1,495.44,208c5.6-2.06,10.2-1.9,10.21-2.61C505.67,204.14,490.85,207.08,480.5,200.2Z" transform="translate(38.55 -1.31)"/><path class="cls-11" d="M465.13,312.2c2.64.88,5.46,1.72,8.45,2.47,1.13-11.65,2.68-23.85,4.76-36.56q1.82-11.12,4-21.57C475.05,269.11,466.6,305.67,465.13,312.2Z" transform="translate(38.55 -1.31)"/><path class="cls-11" d="M503.49,317.73c1.25-.05,2.47-.13,3.67-.22-.77-18.73-6.94-62.33-6.94-62.33.24,9.72-1.66,52.65-2.27,62.63C499.77,317.83,501.61,317.81,503.49,317.73Z" transform="translate(38.55 -1.31)"/><path class="cls-11" d="M518,253.2c2.58,11,5,22.62,7,34.9,1.45,8.8,2.61,17.3,3.55,25.52,3.23-.94,6.15-1.95,8.72-2.94C531.57,290.66,518,253.2,518,253.2Z" transform="translate(38.55 -1.31)"/><path class="cls-27" d="M459.23,163.51q-1.05,11.31-2.8,23.5c-1.45,10-3.16,19.46-5.05,28.43,0,0,0,3.58-.36,8.75a153.23,153.23,0,0,1-2.49,18.3c-3,15.83-8.06,33.53-9.28,37.75,1.79,4.82,3.38,8.81,4.57,11.71,1.9,4.6,2.84,6.9,3.75,8.66,3.15,6.07,5.9,9,5.12,9.67s-4.41-1.55-5.39-2.16c-5.06-3.17-6-6-7.42-5.67-2.15.46-4,7.54-2.31,13.79.59,2.23,1.8,5,.51,8.11-.26.65-.87,2.1-1.77,2.16-1.33.1-3.12-2.81-5.61-11.58a12.21,12.21,0,0,1-5.53-6.31,10.65,10.65,0,0,1-.47-5.48,7.08,7.08,0,0,1-2.69-2.77c-.75-1.46-.73-2.92-.28-5.28a43,43,0,0,1,2.9-9c.69-1.7,1.63-4.17,2.6-7.24.28-5.73.77-15.27,1.46-27.58.59-10.65.95-16.4,3-24.06a84.27,84.27,0,0,1,4.65-13.06l4.26-52.78c1.12-7.73,8.38-11.75,12.9-10.5C457.41,151.94,460.66,157.35,459.23,163.51Z" transform="translate(38.55 -1.31)"/><path class="cls-17" d="M453.5,150.86c-4.52-1.25-11.78,2.77-12.9,10.5q-1.28,15.87-2.56,31.72a23.59,23.59,0,0,0,17.06,2.52c.46-2.83.92-5.68,1.34-8.59q1.77-12.16,2.8-23.5C460.66,157.35,457.41,151.94,453.5,150.86Z" transform="translate(38.55 -1.31)"/><path class="cls-6" d="M432.13,161.69c7.4-15.16,8.11-25.63,15.33-27.21a10.36,10.36,0,0,1,5.91.63c10,3.86,9.2,21.16,8.92,27.41A65.42,65.42,0,0,1,459.21,179a69.83,69.83,0,0,1-2.76,7.34,42.44,42.44,0,0,1-21.08-4,35,35,0,0,1-10.53-7.89A111,111,0,0,0,432.13,161.69Z" transform="translate(38.55 -1.31)"/><path class="cls-7" d="M456.47,137a21.75,21.75,0,0,1,2.23,11.07c-.91,12.79-13.73,23.56-19.42,22.26-.6-.14-1.71-.55-1.88-.28-.56.93,14.5,9.44,7.67,9.66-5.5.17-12.94-6-17.33-9.92-1.09,1.83-2.09,3.39-2.9,4.62a34.87,34.87,0,0,0,10.54,7.89,42.4,42.4,0,0,0,21.08,4,72.06,72.06,0,0,0,2.75-7.34,65,65,0,0,0,3.08-16.48C462.54,157,463.16,142.92,456.47,137Z" transform="translate(38.55 -1.31)"/><path class="cls-27" d="M538.56,197.19c-7.94-14-17-46.44-18.6-52.4-4.88-9.51-4.21-15.46-2.52-19.21,1.18-2.61,3-4.51,5.54-9.8a61,61,0,0,0,3.57-9.37,5.76,5.76,0,0,1,1.76,2.17c.67,1.55.11,2.51-.39,5.8a25.53,25.53,0,0,0-.46,6.41,8,8,0,0,1,0,3.16c-.1.37-.44,1.37-.84,2.94l0,.07a26.56,26.56,0,0,0,.5,14.12A178.66,178.66,0,0,0,538.29,162c5.52,8.84,8.67,12.12,12.49,20.61,3,6.74,7.37,16.68,2.88,21.17a7.49,7.49,0,0,1-5.43,2.07C545.4,205.71,542.24,203.69,538.56,197.19Z" transform="translate(38.55 -1.31)"/></svg>